# Blender 5.1.2
# www.blender.org
mtllib v1.mtl
o m1
v 4.143778 2.836067 3.112228
v 4.143778 2.836066 -3.112229
v 4.143778 -3.932276 -3.112229
v 4.143778 -3.932276 3.112228
v 4.687663 2.836067 3.112228
v 4.687663 -3.932276 3.112228
v 4.687662 -3.932276 -3.112229
v 4.687662 2.836066 -3.112230
v 4.143778 2.836067 3.112228
v 4.143778 -3.932276 3.112228
v 4.687663 -3.932276 3.112228
v 4.687663 2.836067 3.112228
v 4.143778 -3.932276 3.112228
v 4.143778 -3.932276 -3.112229
v 4.687662 -3.932276 -3.112229
v 4.687663 -3.932276 3.112228
v 4.143778 -3.932276 -3.112229
v 4.143778 2.836066 -3.112229
v 4.687662 2.836066 -3.112230
v 4.687662 -3.932276 -3.112229
v 4.143778 2.836066 -3.112229
v 4.143778 2.836067 3.112228
v 4.687663 2.836067 3.112228
v 4.687662 2.836066 -3.112230
v -4.687663 2.836068 3.112230
v -4.687664 2.836066 -3.112228
v -4.687664 -3.932275 -3.112228
v -4.687663 -3.932275 3.112230
v -4.143778 2.836068 3.112230
v -4.143778 -3.932275 3.112230
v -4.143779 -3.932275 -3.112228
v -4.143779 2.836066 -3.112228
v -4.687663 2.836068 3.112230
v -4.687663 -3.932275 3.112230
v -4.143778 -3.932275 3.112230
v -4.143778 2.836068 3.112230
v -4.687663 -3.932275 3.112230
v -4.687664 -3.932275 -3.112228
v -4.143779 -3.932275 -3.112228
v -4.143778 -3.932275 3.112230
v -4.687664 -3.932275 -3.112228
v -4.687664 2.836066 -3.112228
v -4.143779 2.836066 -3.112228
v -4.143779 -3.932275 -3.112228
v -4.687664 2.836066 -3.112228
v -4.687663 2.836068 3.112230
v -4.143778 2.836068 3.112230
v -4.143779 2.836066 -3.112228
vn -1.0000 -0.0000 -0.0000
vn 1.0000 -0.0000 -0.0000
vn -0.0000 -0.0000 1.0000
vn -0.0000 -1.0000 -0.0000
vn -0.0000 -0.0000 -1.0000
vn -0.0000 1.0000 -0.0000
vt 0.997244 0.733959
vt 0.497924 0.733959
vt 0.997245 0.493094
vt 0.497924 0.493094
vt 0.997244 0.493094
vt 0.997245 0.733959
vt 0.497924 0.493094
vt 0.497925 0.733959
vt 0.997244 0.492985
vt 0.497924 0.492985
vt 0.497924 0.733959
vt 0.997244 0.492985
vt 0.997244 0.733959
vt 0.497924 0.492985
vt 0.497924 0.733959
vt 0.997244 0.493093
vt 0.997244 0.734068
vt 0.497924 0.493093
vt 0.497924 0.734068
vt 0.997244 0.493093
vt 0.997244 0.734068
vt 0.497924 0.493093
vt 0.497924 0.734068
s 0
usemtl HOUSECOLOR02.4_-_Default
f 2/1/1 3/2/1 1/3/1
f 1/3/1 3/2/1 4/4/1
f 6/5/2 7/6/2 5/7/2
f 5/7/2 7/6/2 8/8/2
f 10/9/3 11/1/3 9/10/3
f 9/10/3 11/1/3 12/11/3
f 14/12/4 15/13/4 13/10/4
f 13/10/4 15/13/4 16/11/4
f 18/9/5 19/1/5 17/14/5
f 17/14/5 19/1/5 20/15/5
f 22/12/6 23/13/6 21/10/6
f 21/10/6 23/13/6 24/11/6
f 26/1/1 27/2/1 25/3/1
f 25/3/1 27/2/1 28/4/1
f 30/5/2 31/6/2 29/7/2
f 29/7/2 31/6/2 32/8/2
f 34/16/3 35/17/3 33/18/3
f 33/18/3 35/17/3 36/19/3
f 38/20/4 39/21/4 37/18/4
f 37/18/4 39/21/4 40/19/4
f 42/16/5 43/17/5 41/22/5
f 41/22/5 43/17/5 44/23/5
f 46/20/6 47/21/6 45/18/6
f 45/18/6 47/21/6 48/19/6
o m2
v -7.987367 -0.177225 -0.223329
v -7.987367 2.421334 -0.223329
v -7.987367 2.421334 -3.063616
v -7.987367 -0.177225 -3.063616
v 7.748784 -0.177224 -0.223329
v 7.748784 -0.177224 -3.063616
v 7.748784 2.421336 -3.063616
v 7.748784 2.421336 -0.223329
v -7.987367 -0.177225 -0.223329
v -7.987367 -0.177225 -3.063616
v 7.748784 -0.177224 -3.063616
v 7.748784 -0.177224 -0.223329
v -7.987367 -0.177225 -3.063616
v -7.987367 2.421334 -3.063616
v 7.748784 2.421336 -3.063616
v 7.748784 -0.177224 -3.063616
v -7.987367 2.421334 -3.063616
v -7.987367 2.421334 -0.223329
v 7.748784 2.421336 -0.223329
v 7.748784 2.421336 -3.063616
v -7.987367 2.421334 -0.223329
v -7.987367 -0.177225 -0.223329
v 7.748784 -0.177224 -0.223329
v 7.748784 2.421336 -0.223329
v 4.765338 -2.461391 3.172908
v 3.888366 -1.447589 3.172908
v 3.888368 -1.447588 2.999271
v 4.765340 -2.461391 2.999271
v 4.765340 -2.461391 -3.099087
v 3.888368 -1.447588 -3.099086
v 3.888366 -1.447589 -3.275731
v 4.765338 -2.461391 -3.275731
v -7.987366 -0.177225 3.071940
v -7.987366 2.421334 3.071940
v -7.987366 2.421334 0.231654
v -7.987366 -0.177225 0.231654
v 7.748784 -0.177224 3.071940
v 7.748783 -0.177224 0.231654
v 7.748784 2.421336 0.231653
v 7.748784 2.421336 3.071940
v -7.987366 -0.177225 3.071940
v -7.987366 -0.177225 0.231654
v 7.748783 -0.177224 0.231654
v 7.748784 -0.177224 3.071940
v -7.987366 -0.177225 0.231654
v -7.987366 2.421334 0.231654
v 7.748784 2.421336 0.231653
v 7.748783 -0.177224 0.231654
v -7.987366 2.421334 0.231654
v -7.987366 2.421334 3.071940
v 7.748784 2.421336 3.071940
v 7.748784 2.421336 0.231653
v -7.987366 2.421334 3.071940
v -7.987366 -0.177225 3.071940
v 7.748784 -0.177224 3.071940
v 7.748784 2.421336 3.071940
v -7.987366 -3.215568 -0.223329
v -7.987366 -0.617008 -0.223329
v -7.987366 -0.617008 -3.063616
v -7.987366 -3.215568 -3.063616
v 7.748783 -3.215567 -0.223329
v 7.748783 -3.215567 -3.063616
v 7.748783 -0.617007 -3.063616
v 7.748783 -0.617007 -0.223329
v -7.987366 -3.215568 -0.223329
v -7.987366 -3.215568 -3.063616
v 7.748783 -3.215567 -3.063616
v 7.748783 -3.215567 -0.223329
v -7.987366 -3.215568 -3.063616
v -7.987366 -0.617008 -3.063616
v 7.748783 -0.617007 -3.063616
v 7.748783 -3.215567 -3.063616
v -7.987366 -0.617008 -3.063616
v -7.987366 -0.617008 -0.223329
v 7.748783 -0.617007 -0.223329
v 7.748783 -0.617007 -3.063616
v -7.987366 -0.617008 -0.223329
v -7.987366 -3.215568 -0.223329
v 7.748783 -3.215567 -0.223329
v 7.748783 -0.617007 -0.223329
v -7.987366 -3.215568 3.071940
v -7.987366 -0.617008 3.071940
v -7.987366 -0.617008 0.231654
v -7.987366 -3.215568 0.231654
v 7.748783 -3.215567 3.071940
v 7.748782 -3.215567 0.231654
v 7.748783 -0.617007 0.231653
v 7.748783 -0.617007 3.071940
v -7.987366 -3.215568 3.071940
v -7.987366 -3.215568 0.231654
v 7.748782 -3.215567 0.231654
v 7.748783 -3.215567 3.071940
v -7.987366 -3.215568 0.231654
v -7.987366 -0.617008 0.231654
v 7.748783 -0.617007 0.231653
v 7.748782 -3.215567 0.231654
v -7.987366 -0.617008 0.231654
v -7.987366 -0.617008 3.071940
v 7.748783 -0.617007 3.071940
v 7.748783 -0.617007 0.231653
v -7.987366 -0.617008 3.071940
v -7.987366 -3.215568 3.071940
v 7.748783 -3.215567 3.071940
v 7.748783 -0.617007 3.071940
v -7.499595 -0.982970 0.095835
v -6.301414 -0.381941 0.095835
v -6.301414 -0.381940 -0.077803
v -7.499597 -0.982969 -0.077803
v -3.702212 1.891265 -4.521102
v -3.702212 1.891265 -3.049988
v 3.887181 1.891265 -3.049988
v 3.887181 1.891265 -3.548139
v -3.702212 0.462430 -4.521102
v 3.887181 0.462430 -3.548139
v 3.887181 0.462430 -3.049987
v -3.702212 0.462430 -3.049987
v -3.702212 1.891265 -4.521102
v 3.887181 1.891265 -3.548139
v 3.887181 0.462430 -3.548139
v -3.702212 0.462430 -4.521102
v 3.887181 1.891265 -3.548139
v 3.887181 1.891265 -3.049988
v 3.887181 0.462430 -3.049987
v 3.887181 0.462430 -3.548139
v 3.887181 1.891265 -3.049988
v -3.702212 1.891265 -3.049988
v -3.702212 0.462430 -3.049987
v 3.887181 0.462430 -3.049987
v -3.702212 1.891265 -3.049988
v -3.702212 1.891265 -4.521102
v -3.702212 0.462430 -4.521102
v -3.702212 0.462430 -3.049987
v -3.702212 0.462428 4.519836
v -3.702212 0.462428 3.048722
v 3.887181 0.462428 3.048722
v 3.887181 0.462428 3.546874
v -3.702212 1.891263 4.519836
v 3.887181 1.891263 3.546874
v 3.887181 1.891263 3.048722
v -3.702212 1.891263 3.048722
v -3.702212 0.462428 4.519836
v 3.887181 0.462428 3.546874
v 3.887181 1.891263 3.546874
v -3.702212 1.891263 4.519836
v 3.887181 0.462428 3.546874
v 3.887181 0.462428 3.048722
v 3.887181 1.891263 3.048722
v 3.887181 1.891263 3.546874
v 3.887181 0.462428 3.048722
v -3.702212 0.462428 3.048722
v -3.702212 1.891263 3.048722
v 3.887181 1.891263 3.048722
v -3.702212 0.462428 3.048722
v -3.702212 0.462428 4.519836
v -3.702212 1.891263 4.519836
v -3.702212 1.891263 3.048722
vn -1.0000 -0.0000 -0.0000
vn 1.0000 -0.0000 -0.0000
vn -0.0000 -1.0000 -0.0000
vn -0.0000 -0.0000 -1.0000
vn -0.0000 1.0000 -0.0000
vn -0.0000 -0.0000 1.0000
vn 0.1272 -0.0000 -0.9919
vn 0.1272 -0.0000 0.9919
vt 0.756041 0.234030
vt 0.993051 0.234030
vt 0.756041 0.011841
vt 0.993051 0.011841
vt 0.994872 0.243259
vt 0.994872 0.481939
vt 0.739544 0.243259
vt 0.739544 0.481939
vt 0.629367 0.259958
vt 0.009285 0.260038
vt 0.628709 0.007437
vt 0.009277 0.007459
vt 0.008845 0.491841
vt 0.628926 0.491921
vt 0.009502 0.239321
vt 0.628934 0.239343
vt 0.008850 0.259956
vt 0.628921 0.260037
vt 0.009499 0.007437
vt 0.628929 0.007459
vt 0.629360 0.252789
vt 0.009285 0.252708
vt 0.628709 0.496732
vt 0.009277 0.496710
vt 0.994872 0.240627
vt 0.994872 0.480406
vt 0.738445 0.240627
vt 0.738445 0.480406
vt 0.629367 0.491841
vt 0.009285 0.491921
vt 0.628710 0.239321
vt 0.009277 0.239343
vt 0.008848 0.252789
vt 0.628923 0.252708
vt 0.009500 0.496732
vt 0.628931 0.496710
vt 0.994872 0.237587
vt 0.994872 0.481244
vt 0.740422 0.237587
vt 0.740422 0.481244
vt 0.008844 0.259958
vt 0.628925 0.260038
vt 0.009502 0.007437
vt 0.628933 0.007459
vt 0.629357 0.259956
vt 0.009285 0.260037
vt 0.628707 0.007437
vt 0.009277 0.007459
vt -0.036994 0.529177
vt 0.434682 0.529177
vt -0.036994 0.620605
vt 0.434682 0.560136
vt -0.036994 0.620605
vt 0.434682 0.631677
vt 0.434682 0.542876
vt -0.036994 0.631677
vt -0.036994 0.542876
vt 0.434682 0.631677
vt 0.434682 0.542876
vt -0.036994 0.542876
s 0
usemtl TURRETEL.5_-_Default
f 50/24/7 51/25/7 49/26/7
f 49/26/7 51/25/7 52/27/7
f 54/28/8 55/29/8 53/30/8
f 53/30/8 55/29/8 56/31/8
f 58/32/9 59/33/9 57/34/9
f 57/34/9 59/33/9 60/35/9
f 62/36/10 63/37/10 61/38/10
f 61/38/10 63/37/10 64/39/10
f 66/40/11 67/41/11 65/42/11
f 65/42/11 67/41/11 68/43/11
f 70/44/12 71/45/12 69/46/12
f 69/46/12 71/45/12 72/47/12
f 82/24/7 83/25/7 81/26/7
f 81/26/7 83/25/7 84/27/7
f 86/48/8 87/49/8 85/50/8
f 85/50/8 87/49/8 88/51/8
f 90/32/9 91/33/9 89/34/9
f 89/34/9 91/33/9 92/35/9
f 94/52/10 95/53/10 93/54/10
f 93/54/10 95/53/10 96/55/10
f 98/40/11 99/41/11 97/42/11
f 97/42/11 99/41/11 100/43/11
f 102/56/12 103/57/12 101/58/12
f 101/58/12 103/57/12 104/59/12
f 106/24/7 107/25/7 105/26/7
f 105/26/7 107/25/7 108/27/7
f 110/60/8 111/61/8 109/62/8
f 109/62/8 111/61/8 112/63/8
f 114/64/9 115/65/9 113/66/9
f 113/66/9 115/65/9 116/67/9
f 118/36/10 119/37/10 117/38/10
f 117/38/10 119/37/10 120/39/10
f 122/68/11 123/69/11 121/70/11
f 121/70/11 123/69/11 124/71/11
f 126/44/12 127/45/12 125/46/12
f 125/46/12 127/45/12 128/47/12
f 130/24/7 131/25/7 129/26/7
f 129/26/7 131/25/7 132/27/7
f 134/60/8 135/61/8 133/62/8
f 133/62/8 135/61/8 136/63/8
f 138/64/9 139/65/9 137/66/9
f 137/66/9 139/65/9 140/67/9
f 142/52/10 143/53/10 141/54/10
f 141/54/10 143/53/10 144/55/10
f 146/68/11 147/69/11 145/70/11
f 145/70/11 147/69/11 148/71/11
f 150/56/12 151/57/12 149/58/12
f 149/58/12 151/57/12 152/59/12
f 158/72/11 159/73/11 157/74/11
f 157/74/11 159/73/11 160/75/11
f 162/75/9 163/73/9 161/76/9
f 161/76/9 163/73/9 164/72/9
f 166/77/13 167/78/13 165/79/13
f 165/79/13 167/78/13 168/80/13
f 170/81/8 171/82/8 169/77/8
f 169/77/8 171/82/8 172/78/8
f 174/79/12 175/83/12 173/81/12
f 173/81/12 175/83/12 176/82/12
f 178/79/7 179/80/7 177/79/7
f 177/79/7 179/80/7 180/83/7
f 182/72/9 183/73/9 181/74/9
f 181/74/9 183/73/9 184/75/9
f 186/75/11 187/73/11 185/76/11
f 185/76/11 187/73/11 188/72/11
f 190/77/14 191/78/14 189/79/14
f 189/79/14 191/78/14 192/80/14
f 194/81/8 195/82/8 193/77/8
f 193/77/8 195/82/8 196/78/8
f 198/79/10 199/83/10 197/81/10
f 197/81/10 199/83/10 200/82/10
f 202/79/7 203/80/7 201/79/7
f 201/79/7 203/80/7 204/83/7
l 73 74
l 75 76
l 77 78
l 79 80
l 153 154
l 155 156
