# Blender 5.1.2
# www.blender.org
mtllib 3.mtl
o AVCOMANCHE_PROP
v 25.606936 -0.093972 5.620622
v 1.600002 -0.093973 0.734805
v 25.642107 -0.093972 -5.234341
v 1.600002 -0.093973 -0.732332
v 13.258512 -0.093975 -22.616779
v 1.193270 -0.093973 -1.294625
v 2.945699 -0.093975 -26.004597
v -0.202060 -0.093973 -1.747996
v -17.412725 -0.093974 -19.598562
v -0.862519 -0.093973 -1.534928
v -23.821568 -0.093974 -10.837386
v -1.724881 -0.093973 -0.347989
v -24.020168 -0.093972 10.504199
v -1.726336 -0.093973 0.345986
v -17.668240 -0.093972 19.306723
v -0.863975 -0.093973 1.532925
v 2.567445 -0.093970 26.090521
v -0.204414 -0.093973 1.748759
v 12.901999 -0.093970 22.769600
v 1.190916 -0.093973 1.295388
v 1.600002 0.093973 0.734805
v 25.606936 0.093973 5.620622
v 25.642107 0.093973 -5.234341
v 1.600002 0.093973 -0.732332
v 1.193270 0.093973 -1.294625
v 13.258512 0.093971 -22.616779
v 2.945699 0.093971 -26.004597
v -0.202060 0.093973 -1.747996
v -0.862519 0.093973 -1.534928
v -17.412725 0.093972 -19.598562
v -23.821568 0.093972 -10.837386
v -1.724881 0.093973 -0.347989
v -1.726336 0.093973 0.345986
v -24.020168 0.093974 10.504199
v -17.668240 0.093974 19.306723
v -0.863975 0.093973 1.532925
v -0.204414 0.093973 1.748759
v 2.567445 0.093975 26.090521
v 12.901999 0.093975 22.769600
v 1.190916 0.093973 1.295388
vn -0.0000 -1.0000 -0.0000
vn -0.0000 1.0000 -0.0000
vt 0.300452 0.022508
vt 0.473912 0.937682
vt 0.685834 0.021167
vt 0.526000 0.937682
s 1
usemtl AVCOMANCHE_PROP.AG
f 1/1/1 2/2/1 3/3/1
f 3/3/1 2/2/1 4/4/1
f 5/1/1 6/2/1 7/3/1
f 7/3/1 6/2/1 8/4/1
f 9/1/1 10/2/1 11/3/1
f 11/3/1 10/2/1 12/4/1
f 13/1/1 14/2/1 15/3/1
f 15/3/1 14/2/1 16/4/1
f 17/1/1 18/2/1 19/3/1
f 19/3/1 18/2/1 20/4/1
f 22/1/2 23/3/2 21/2/2
f 21/2/2 23/3/2 24/4/2
f 26/1/2 27/3/2 25/2/2
f 25/2/2 27/3/2 28/4/2
f 30/1/2 31/3/2 29/2/2
f 29/2/2 31/3/2 32/4/2
f 34/1/2 35/3/2 33/2/2
f 33/2/2 35/3/2 36/4/2
f 38/1/2 39/3/2 37/2/2
f 37/2/2 39/3/2 40/4/2
o m2house
v -16.241169 0.032266 -0.579200
v -18.782013 3.131912 -0.347583
v -18.782013 3.131911 0.332730
v -16.241169 0.032266 0.564346
v -3.003467 3.203818 1.254626
v 5.634154 3.203818 1.254626
v 4.798255 4.929121 1.254626
v -2.724105 4.929121 1.254626
v 5.634154 3.203818 1.254626
v 5.634154 3.203818 -1.269480
v 4.798255 4.929121 -1.269480
v 4.798255 4.929121 1.254626
v 5.634154 3.203818 -1.269480
v -3.003467 3.203818 -1.269480
v -2.724105 4.929121 -1.269480
v 4.798255 4.929121 -1.269480
v -3.003467 3.203818 -1.269480
v -3.003467 3.203818 1.254626
v -2.724105 4.929121 1.254626
v -2.724105 4.929121 -1.269480
v -23.650215 5.967846 4.955764
v -23.650215 5.967846 -4.879032
v -21.297077 5.967846 -4.735806
v -21.297077 6.034985 -4.735806
v -23.650215 6.034985 -4.879033
v -23.650215 6.034985 4.955763
v -21.297077 6.034985 4.812539
v -21.297077 5.967846 4.812540
vn 0.7734 0.6339 -0.0000
vn 0.7734 0.6340 -0.0000
vn -0.0000 -0.0000 1.0000
vn 0.8999 0.4360 -0.0000
vn -0.0000 -0.0000 -1.0000
vn -0.9871 0.1598 -0.0000
vn -0.0000 -1.0000 -0.0000
vn -0.0000 1.0000 -0.0000
vt 0.751456 0.584228
vt 0.769687 0.584228
vt 0.745249 0.519506
vt 0.775894 0.519506
vt 0.369639 0.289555
vt 0.344086 0.366755
vt 0.126486 0.289555
vt 0.135026 0.366755
vt 0.638423 0.670299
vt 0.638423 0.598404
vt 0.710318 0.670299
vt 0.710318 0.598404
vt 0.710318 0.598403
vt 0.638423 0.598403
vt 0.137267 0.367203
vt 0.141106 0.289688
vt 0.362175 0.367203
vt 0.358337 0.289688
s 1
usemtl HOUSECOLOR01.Material_#2
f 42/5/3 43/6/4 41/7/4
f 41/7/4 43/6/4 44/8/4
f 46/9/5 47/10/5 45/11/5
f 45/11/5 47/10/5 48/12/5
f 50/13/6 51/14/6 49/15/6
f 49/15/6 51/14/6 52/16/6
f 54/11/7 55/12/7 53/9/7
f 53/9/7 55/12/7 56/10/7
f 58/15/8 59/17/8 57/13/8
f 57/13/8 59/17/8 60/18/8
f 62/19/9 63/20/9 61/21/9
f 61/21/9 63/20/9 68/22/9
f 65/19/10 66/21/10 64/20/10
f 64/20/10 66/21/10 67/22/10
o PROPELLER01
v -1.081750 -0.550523 2.123055
v 0.663346 0.259070 2.041567
v -0.974549 0.259070 1.912662
v 0.736314 -0.550522 2.266140
v 1.912662 0.259070 0.974549
v 2.123055 -0.550523 1.081750
v 2.041567 0.259070 -0.663346
v 2.266139 -0.550523 -0.736314
v 0.974549 0.259069 -1.912663
v 1.081750 -0.550523 -2.123055
v -0.663346 0.259069 -2.041567
v -0.736314 -0.550523 -2.266140
v -1.912662 0.259069 -0.974549
v -2.123055 -0.550523 -1.081749
v -2.041566 0.259070 0.663346
v -2.266139 -0.550523 0.736314
v 0.000000 0.259070 -0.000000
v -0.974549 0.259070 1.912662
v 0.663346 0.259070 2.041567
v 1.912662 0.259070 0.974549
v 2.041567 0.259070 -0.663346
v 0.974549 0.259069 -1.912663
v -0.663346 0.259069 -2.041567
v -1.912662 0.259069 -0.974549
v -2.041566 0.259070 0.663346
vn -0.5491 0.2776 0.7883
vn -0.3150 0.2776 0.9076
vn 0.1691 0.2776 0.9457
vn 0.4191 0.2776 0.8645
vn 0.7883 0.2776 0.5491
vn 0.9076 0.2776 0.3150
vn 0.9457 0.2776 -0.1691
vn 0.8645 0.2776 -0.4191
vn 0.5491 0.2776 -0.7883
vn 0.3150 0.2776 -0.9076
vn -0.1691 0.2776 -0.9457
vn -0.4191 0.2776 -0.8645
vn -0.7883 0.2776 -0.5491
vn -0.9076 0.2776 -0.3150
vn -0.9457 0.2776 0.1691
vn -0.8645 0.2776 0.4191
vn -0.0000 1.0000 -0.0000
vt 0.788229 0.861402
vt 0.797702 0.857478
vt 0.788229 0.932745
vt 0.797702 0.936669
vt 0.737782 0.983192
vt 0.741705 0.992665
vt 0.666439 0.983192
vt 0.662515 0.992665
vt 0.615991 0.932745
vt 0.606518 0.936669
vt 0.615991 0.861402
vt 0.606518 0.857478
vt 0.666438 0.810955
vt 0.662515 0.801482
vt 0.737782 0.810955
vt 0.741705 0.801482
vt 0.702110 0.897074
s 1
usemtl PROPELLER01.Material_#25
f 71/23/11 69/24/12 70/25/13
f 70/25/13 69/24/12 72/26/14
f 70/25/13 72/26/14 73/27/15
f 73/27/15 72/26/14 74/28/16
f 73/27/15 74/28/16 75/29/17
f 75/29/17 74/28/16 76/30/18
f 75/29/17 76/30/18 77/31/19
f 77/31/19 76/30/18 78/32/20
f 77/31/19 78/32/20 79/33/21
f 79/33/21 78/32/20 80/34/22
f 79/33/21 80/34/22 81/35/23
f 81/35/23 80/34/22 82/36/24
f 81/35/23 82/36/24 83/37/25
f 83/37/25 82/36/24 84/38/26
f 83/37/25 84/38/26 71/23/11
f 71/23/11 84/38/26 69/24/12
f 87/25/27 85/39/27 86/23/27
f 86/23/27 85/39/27 93/37/27
f 93/37/27 85/39/27 92/35/27
f 92/35/27 85/39/27 91/33/27
f 91/33/27 85/39/27 90/31/27
f 90/31/27 85/39/27 89/29/27
f 89/29/27 85/39/27 88/27/27
f 88/27/27 85/39/27 87/25/27
o PROPELLER02
v 0.679283 -0.238643 -0.003188
v -0.341116 -0.238643 -0.592315
v -0.341116 0.261357 -0.592315
v 0.679283 0.261357 -0.003188
v -0.341116 -0.238643 -0.592315
v -0.341116 -0.238643 0.585938
v -0.341116 0.261357 0.585938
v -0.341116 0.261357 -0.592315
v -0.341116 -0.238643 0.585938
v 0.679283 -0.238643 -0.003188
v 0.679283 0.261357 -0.003188
v -0.341116 0.261357 0.585938
v 0.679283 -0.238643 -0.003188
v -0.341116 -0.238643 0.585938
v -0.341116 -0.238643 -0.592315
v 0.679283 0.261357 -0.003188
v -0.341116 0.261357 -0.592315
v -0.341116 0.261357 0.585938
v -0.429047 -0.025553 2.446431
v 0.433453 -0.025553 2.446431
v 0.433453 -0.025553 -2.432084
v -0.429047 -0.025553 -2.432084
v 0.433453 -0.025553 2.446431
v -0.429047 -0.025553 2.446431
v 0.433453 -0.025553 -2.432084
v -0.429047 -0.025553 -2.432084
vn -0.0000 -1.0000 -0.0000
vn -0.0000 1.0000 -0.0000
vn 0.5000 -0.0000 -0.8660
vn -1.0000 -0.0000 -0.0000
vn 0.5000 -0.0000 0.8660
vt 0.008569 0.577295
vt 0.155682 0.512771
vt 0.155682 0.641818
vt 0.155682 0.577295
vt 0.008569 0.641818
vt 0.008569 0.512771
vt 0.994807 0.038202
vt 0.915217 0.038202
vt 0.994807 0.004183
vt 0.915217 0.004183
s 1
usemtl PROPELLER02.Material_#25
f 106/40/28 107/41/28 108/42/28
f 109/43/29 110/44/29 111/45/29
f 95/41/30 96/42/30 94/45/30
f 94/45/30 96/42/30 97/44/30
f 99/41/31 100/42/31 98/45/31
f 98/45/31 100/42/31 101/44/31
f 103/41/32 104/42/32 102/45/32
f 102/45/32 104/42/32 105/44/32
f 113/46/29 114/47/29 112/48/29
f 112/48/29 114/47/29 115/49/29
f 116/46/28 117/48/28 118/47/28
f 118/47/28 117/48/28 119/49/28
o m1
v -22.314770 3.151231 -0.339767
v -23.999619 -0.998271 -0.822965
v -23.999619 -0.998271 0.823741
v -22.314770 3.151231 0.340545
v -16.880474 -3.056786 0.823741
v -16.880474 -3.056786 -0.822965
v -16.167229 -1.972466 0.742148
v -21.332478 -3.058288 0.823740
v -21.332478 -3.058288 -0.822966
v -16.880474 -3.056786 0.823741
v -5.352894 -1.854475 2.095049
v -4.448720 -2.431620 0.001772
v -3.769125 -2.874501 2.706340
v -16.167229 -1.972466 0.003631
v -4.448720 -2.431620 0.001772
v -5.352894 -1.854475 2.095049
v -3.769125 -2.874501 -2.705660
v 9.326887 -3.098563 -2.476974
v 9.326887 -3.098563 2.477981
v -3.769125 -2.874501 2.706340
v 9.326887 -3.098563 -2.476974
v 16.559460 -2.261942 -1.015522
v 16.559460 -2.261942 1.016529
v 9.326887 -3.098563 2.477981
v 16.130199 -0.934533 -0.913197
v 13.630422 0.056363 -1.568315
v 13.630422 0.056363 1.569322
v 16.130199 -0.934533 0.914204
v 13.630422 0.056363 -1.568315
v 12.177166 1.217445 -0.945946
v 12.177166 1.217444 0.946981
v 13.630422 0.056363 1.569322
v 8.920252 2.850037 1.155106
v 8.920251 2.850038 -1.154839
v 5.922318 3.355964 1.380276
v 12.177166 1.217445 -0.945946
v 8.920251 2.850038 -1.154839
v 8.920252 2.850037 1.155106
v 5.922318 3.355964 -1.379375
v -5.060384 3.190454 -1.513489
v -5.060384 3.190454 1.514169
v 5.922318 3.355964 1.380276
v -5.060384 3.190454 -1.513489
v -16.190876 0.046339 -0.567442
v -16.190876 0.046339 0.568218
v -5.060384 3.190454 1.514169
v -18.731831 3.146113 -0.339767
v -22.314770 3.151231 -0.339767
v -22.314770 3.151231 0.340545
v -18.731831 3.146112 0.340545
v 9.326887 -3.098563 -2.476974
v 16.130199 -0.934533 -0.913197
v 16.559460 -2.261942 -1.015522
v 13.630422 0.056363 -1.568315
v 9.326887 -3.098563 -2.476974
v 5.999908 2.150903 -2.182181
v 9.863289 -0.237114 -1.866075
v 9.863289 -0.237114 -1.866075
v 5.999908 2.150903 -2.182181
v 8.920251 2.850038 -1.154839
v -3.769125 -2.874501 -2.705660
v 5.999908 2.150903 -2.182181
v -4.924380 2.014019 -2.600777
v 5.922318 3.355964 -1.379375
v -3.769125 -2.874501 -2.705660
v -5.352894 -1.854475 -2.103371
v -4.924380 2.014019 -2.600777
v -16.167229 -1.972466 -0.741371
v -16.190876 0.046339 -0.567442
v -5.352894 -1.854475 -2.103371
v -21.321877 0.604301 0.629975
v -22.314770 3.151231 0.340545
v -23.999619 -0.998271 0.823741
v -16.880474 -3.056786 0.823741
v -16.167229 -1.972466 0.742148
v -18.494980 -2.080523 0.735211
v -16.190876 0.046339 0.568218
v -18.731831 3.146112 0.340545
v -17.341095 0.604399 0.523755
v 9.326887 -3.098563 2.477981
v 16.559460 -2.261942 1.016529
v 16.130199 -0.934533 0.914204
v 13.630422 0.056363 1.569322
v 8.920252 2.850037 1.155106
v 9.863280 -0.237115 1.887243
v 12.177166 1.217444 0.946981
v 6.076934 2.048932 2.193064
v 8.920252 2.850037 1.155106
v 5.922318 3.355964 1.380276
v -4.924380 2.014017 2.611357
v 6.076934 2.048932 2.193064
v 5.922318 3.355964 1.380276
v -5.060384 3.190454 1.514169
v -4.924380 2.014017 2.611357
v -5.060384 3.190454 1.514169
v -16.190876 0.046339 0.568218
v -5.352894 -1.854475 2.095049
v -3.769125 -2.874501 2.706340
v -4.924380 2.014017 2.611357
v -3.769125 -2.874501 2.706340
v 9.326887 -3.098563 2.477981
v 6.076934 2.048932 2.193064
v 9.863280 -0.237115 1.887243
v -4.924380 2.014019 -2.600777
v 9.863289 -0.237114 -1.866075
v 8.920251 2.850038 -1.154839
v 12.177166 1.217445 -0.945946
v 9.863280 -0.237115 1.887243
v 12.177166 1.217444 0.946981
v 5.922318 3.355964 -1.379375
v 5.922318 3.355964 -1.379375
v 9.863280 -0.237115 1.887243
v 13.630422 0.056363 1.569322
v 13.630422 0.056363 -1.568315
v 9.863289 -0.237114 -1.866075
v -5.352894 -1.854475 2.095049
v -4.924380 2.014017 2.611357
v -16.190876 0.046339 0.568218
v -4.924380 2.014017 2.611357
v -4.924380 2.014019 -2.600777
v -16.190876 0.046339 -0.567442
v -5.060384 3.190454 -1.513489
v -5.060384 3.190454 -1.513489
v -4.924380 2.014019 -2.600777
v -5.352894 -1.854475 -2.103371
v -3.769125 -2.874501 -2.705660
v -16.167229 -1.972466 0.742148
v -16.167229 -1.972466 0.742148
v -21.321884 -0.993491 0.735211
v -23.999619 -0.998271 -0.822965
v -16.167229 -1.972466 0.003631
v -4.628058 1.243173 -3.592528
v -4.628058 2.634126 -2.669174
v 2.026323 3.031014 -2.669173
v 2.026324 0.846285 -3.592528
v -4.628058 1.243172 3.593305
v 2.026324 0.846284 3.593305
v 2.026324 3.031014 2.669951
v -4.628057 2.634126 2.669951
v -4.628058 1.243173 -3.592528
v 2.026324 0.846285 -3.592528
v 2.026324 -1.145871 0.117502
v 2.026324 0.846284 3.593305
v -4.628058 1.243172 3.593305
v -4.628058 -0.748982 0.117397
v 2.026324 0.846285 -3.592528
v 2.026323 3.031014 -2.669173
v 2.026324 3.031014 2.669951
v 2.026324 -1.145871 0.117502
v 2.026323 3.031014 -2.669173
v -4.628058 2.634126 -2.669174
v -4.628057 2.634126 2.669951
v 2.026324 3.031014 2.669951
v -4.628058 2.634126 -2.669174
v -4.628058 -0.748982 0.117397
v -4.628058 1.243172 3.593305
v -4.628057 2.634126 2.669951
v 2.026324 0.846284 3.593305
v -4.628058 1.243173 -3.592528
v -2.673810 4.943194 1.262442
v 4.848550 4.943194 1.262441
v 4.848550 4.943194 -1.261664
v -2.673810 4.943194 -1.261664
v 18.188515 -2.652672 0.000503
v 16.871738 -2.652672 -1.360148
v 16.549076 -1.070117 -1.014908
v 17.531746 -1.070117 0.000503
v 16.871738 -2.652672 -1.360148
v 14.741147 -2.652672 -0.840425
v 14.959085 -1.070117 -0.627055
v 16.549076 -1.070117 -1.014908
v 14.741147 -2.652672 -0.840425
v 14.741147 -2.652672 0.841433
v 14.959085 -1.070117 0.628063
v 14.959085 -1.070117 -0.627055
v 14.741147 -2.652672 0.841433
v 16.871738 -2.652672 1.361155
v 16.549076 -1.070117 1.015915
v 14.959085 -1.070117 0.628063
v 16.871738 -2.652672 1.361155
v 18.188515 -2.652672 0.000503
v 17.531746 -1.070117 0.000503
v 16.549076 -1.070117 1.015915
v 18.188515 -2.652672 0.000503
v 14.741147 -2.652672 -0.840425
v 16.871738 -2.652672 -1.360148
v 14.741147 -2.652672 0.841433
v 16.871738 -2.652672 1.361155
v 17.531746 -1.070117 0.000503
v 16.549076 -1.070117 -1.014908
v 14.959085 -1.070117 -0.627055
v 14.959085 -1.070117 0.628063
v 16.549076 -1.070117 1.015915
v 15.762242 -3.087043 0.172568
v 15.762242 -2.740849 0.172568
v 15.762242 -2.740849 -0.173626
v 15.762242 -3.087043 -0.173626
v 20.065434 -3.087043 0.172568
v 20.065434 -3.087043 -0.173626
v 20.065434 -2.740849 -0.173626
v 20.065434 -2.740849 0.172568
v 15.762242 -3.087043 0.172568
v 15.762242 -3.087043 -0.173626
v 20.065434 -3.087043 -0.173626
v 20.065434 -3.087043 0.172568
v 15.762242 -3.087043 -0.173626
v 15.762242 -2.740849 -0.173626
v 20.065434 -2.740849 -0.173626
v 20.065434 -3.087043 -0.173626
v 15.762242 -2.740849 -0.173626
v 15.762242 -2.740849 0.172568
v 20.065434 -2.740849 0.172568
v 20.065434 -2.740849 -0.173626
v 15.762242 -2.740849 0.172568
v 15.762242 -3.087043 0.172568
v 20.065434 -3.087043 0.172568
v 20.065434 -2.740849 0.172568
v -17.340927 -0.993471 0.622289
v -18.495430 1.653178 0.406511
v -20.198875 1.653087 0.524426
v -21.332478 -3.058288 0.823740
v -20.198734 -2.080526 0.735212
v -22.314770 3.151231 -0.339767
v -18.731831 3.146113 -0.339767
v -18.495430 1.653178 -0.411587
v -17.341095 0.604399 -0.528831
v -16.190876 0.046339 -0.567442
v -17.340931 -0.993472 -0.629351
v -16.167229 -1.972466 -0.741371
v -18.494980 -2.080523 -0.740287
v -16.880474 -3.056786 -0.822965
v -21.332478 -3.058288 -0.822966
v -20.198734 -2.080526 -0.740287
v -21.321884 -0.993491 -0.740288
v -23.999619 -0.998271 -0.822965
v -21.321877 0.604301 -0.625684
v -20.198875 1.653087 -0.529501
v -17.340927 -0.993471 0.622289
v -17.340931 -0.993472 -0.629351
v -18.494980 -2.080523 -0.740287
v -17.341095 0.604399 0.523755
v -18.495430 1.653178 0.406511
v -18.495430 1.653178 -0.411587
v -17.341095 0.604399 -0.528831
v -18.495430 1.653178 0.406511
v -20.198875 1.653087 0.524426
v -20.198875 1.653087 -0.529501
v -18.495430 1.653178 -0.411587
v -21.321877 0.604301 -0.625684
v -21.321877 0.604301 0.629975
v -21.321884 -0.993491 0.735211
v -20.198734 -2.080526 -0.740287
v -21.321884 -0.993491 -0.740288
v -20.198734 -2.080526 0.735212
v -5.352894 -1.854475 -2.103371
v -16.167229 -1.972466 -0.741371
v -16.167229 -1.972466 -0.741371
v -23.999619 -0.998271 0.823741
v -16.880474 -3.056786 -0.822965
v -18.729588 3.100173 -0.006355
v -22.194466 3.119713 -0.006355
v -21.343056 6.000862 -0.006355
v -23.362274 6.000862 -0.006355
v -22.194466 3.119713 0.000389
v -18.729588 3.100173 0.000389
v -21.343056 6.000862 0.000389
v -23.362274 6.000862 0.000389
v -18.494980 -2.080523 0.735211
v 2.573720 -1.261952 0.000389
v 5.638358 -1.261952 0.000389
v 5.638358 -1.261952 7.639065
v 2.573720 -1.261952 7.868226
v 5.638358 -0.599327 7.639065
v 5.638358 -0.599328 0.000389
v 2.573720 -0.599328 0.000389
v 2.573720 -0.599327 7.868226
v 5.638358 -0.599327 7.639065
v 2.573720 -0.599327 7.868226
v 2.573720 -1.261952 7.868226
v 5.638358 -1.261952 7.639065
v 5.638358 -1.261952 0.000389
v 5.638358 -0.599328 0.000389
v 5.638358 -0.599327 7.639065
v 5.638358 -1.261952 7.639065
v 2.573720 -0.599328 -7.867448
v 5.638358 -0.599328 -7.638288
v 5.638358 -1.261952 -7.638288
v 2.573720 -1.261952 -7.867448
v 2.573720 -1.261952 0.000389
v 2.573720 -0.599328 0.000389
v 2.573720 -0.599328 -7.867448
v 2.573720 -1.261952 -7.867448
v 2.573720 -1.261952 -7.867448
v 5.638358 -1.261952 -7.638288
v 5.638358 -0.599328 -7.638288
v 2.573720 -0.599328 -7.867448
v 2.573720 -0.599328 0.000389
v 5.638358 -0.599328 0.000389
v 5.638358 -1.261952 -7.638288
v 5.638358 -0.599328 -7.638288
v 2.573720 -1.261952 7.868226
v 2.573720 -0.599327 7.868226
v 16.034389 -0.480212 0.650278
v 16.034389 -0.480211 -0.666378
v 15.278443 -0.180559 -0.949459
v 15.278443 -0.180559 0.933359
v 15.891765 -0.840019 0.650278
v 15.891765 -0.840019 -0.666378
v 16.034389 -0.480211 -0.666378
v 16.034389 -0.480212 0.650278
v 15.891765 -0.840019 -0.666378
v 15.135818 -0.540366 -0.949459
v 15.278443 -0.180559 -0.949459
v 16.034389 -0.480211 -0.666378
v 15.135818 -0.540366 -0.949459
v 15.135818 -0.540366 0.933359
v 15.278443 -0.180559 0.933359
v 15.278443 -0.180559 -0.949459
v 15.135818 -0.540366 0.933359
v 15.891765 -0.840019 0.650278
v 16.034389 -0.480212 0.650278
v 15.278443 -0.180559 0.933359
v -7.173087 3.009183 -0.253292
v -7.173087 3.009183 0.210453
v -5.649303 3.439617 0.349577
v -5.649303 3.439617 -0.392416
v -7.065453 2.628142 -0.253292
v -7.065453 2.628142 0.210453
v -7.173087 3.009183 0.210453
v -7.173087 3.009183 -0.253292
v -7.065453 2.628142 0.210453
v -5.541668 3.058577 0.349577
v -5.649303 3.439617 0.349577
v -7.173087 3.009183 0.210453
v -5.541668 3.058577 0.349577
v -5.541668 3.058577 -0.392416
v -5.649303 3.439617 -0.392416
v -5.649303 3.439617 0.349577
v -5.541668 3.058577 -0.392416
v -7.065453 2.628142 -0.253292
v -7.173087 3.009183 -0.253292
v -5.649303 3.439617 -0.392416
v 1.283824 -2.885522 -7.010403
v 1.283824 -2.287741 -7.833178
v 6.783824 -2.287741 -7.833178
v 6.783825 -2.885522 -7.010403
v 1.283824 -2.287741 -7.833178
v 1.283824 -1.320512 -7.518906
v 6.783824 -1.320512 -7.518906
v 6.783824 -2.287741 -7.833178
v 1.283824 -1.320512 -7.518906
v 1.283824 -1.320511 -6.501900
v 6.783825 -1.320511 -6.501900
v 6.783824 -1.320512 -7.518906
v 1.283824 -1.320511 -6.501900
v 1.283824 -2.287741 -6.187628
v 6.783825 -2.287741 -6.187628
v 6.783825 -1.320511 -6.501900
v 1.283824 -2.287741 -6.187628
v 1.283824 -2.885522 -7.010403
v 6.783825 -2.885522 -7.010403
v 6.783825 -2.287741 -6.187628
v 1.283824 -2.287741 -7.833178
v 1.283824 -1.320511 -6.501900
v 1.283824 -1.320512 -7.518906
v 1.283824 -2.287741 -6.187628
v 1.283824 -2.885522 -7.010403
v 6.783824 -2.287741 -7.833178
v 6.783824 -1.320512 -7.518906
v 6.783825 -1.320511 -6.501900
v 6.783825 -2.287741 -6.187628
v 6.783825 -2.885522 -7.010403
v 1.283825 -2.885522 -4.550334
v 1.283825 -2.287741 -5.373110
v 6.783824 -2.287741 -5.373110
v 6.783825 -2.885522 -4.550334
v 1.283825 -2.287741 -5.373110
v 1.283825 -1.320511 -5.058837
v 6.783824 -1.320511 -5.058837
v 6.783824 -2.287741 -5.373110
v 1.283825 -1.320511 -5.058837
v 1.283825 -1.320511 -4.041831
v 6.783825 -1.320511 -4.041831
v 6.783824 -1.320511 -5.058837
v 1.283825 -1.320511 -4.041831
v 1.283825 -2.287741 -3.727559
v 6.783825 -2.287741 -3.727559
v 6.783825 -1.320511 -4.041831
v 1.283825 -2.287741 -3.727559
v 1.283825 -2.885522 -4.550334
v 6.783825 -2.885522 -4.550334
v 6.783825 -2.287741 -3.727559
v 1.283825 -2.287741 -5.373110
v 1.283825 -1.320511 -4.041831
v 1.283825 -1.320511 -5.058837
v 1.283825 -2.287741 -3.727559
v 1.283825 -2.885522 -4.550334
v 6.783824 -2.287741 -5.373110
v 6.783824 -1.320511 -5.058837
v 6.783825 -1.320511 -4.041831
v 6.783825 -2.287741 -3.727559
v 6.783825 -2.885522 -4.550334
v 1.283825 -2.885523 4.550335
v 1.283825 -2.287742 3.727560
v 6.783825 -2.287742 3.727560
v 6.783826 -2.885523 4.550335
v 1.283825 -2.287742 3.727560
v 1.283825 -1.320512 4.041832
v 6.783825 -1.320512 4.041832
v 6.783825 -2.287742 3.727560
v 1.283825 -1.320512 4.041832
v 1.283825 -1.320512 5.058838
v 6.783826 -1.320512 5.058838
v 6.783825 -1.320512 4.041832
v 1.283825 -1.320512 5.058838
v 1.283825 -2.287741 5.373110
v 6.783826 -2.287741 5.373109
v 6.783826 -1.320512 5.058838
v 1.283825 -2.287741 5.373110
v 1.283825 -2.885523 4.550335
v 6.783826 -2.885523 4.550335
v 6.783826 -2.287741 5.373109
v 1.283825 -2.287742 3.727560
v 1.283825 -1.320512 5.058838
v 1.283825 -1.320512 4.041832
v 1.283825 -2.287741 5.373110
v 1.283825 -2.885523 4.550335
v 6.783825 -2.287742 3.727560
v 6.783825 -1.320512 4.041832
v 6.783826 -1.320512 5.058838
v 6.783826 -2.287741 5.373109
v 6.783826 -2.885523 4.550335
v 1.283825 -2.885523 7.010403
v 1.283825 -2.287741 6.187627
v 6.783824 -2.287741 6.187627
v 6.783826 -2.885523 7.010403
v 1.283825 -2.287741 6.187627
v 1.283825 -1.320512 6.501900
v 6.783825 -1.320512 6.501900
v 6.783824 -2.287741 6.187627
v 1.283825 -1.320512 6.501900
v 1.283825 -1.320511 7.518906
v 6.783826 -1.320511 7.518906
v 6.783825 -1.320512 6.501900
v 1.283825 -1.320511 7.518906
v 1.283825 -2.287741 7.833178
v 6.783826 -2.287741 7.833178
v 6.783826 -1.320511 7.518906
v 1.283825 -2.287741 7.833178
v 1.283825 -2.885523 7.010403
v 6.783826 -2.885523 7.010403
v 6.783826 -2.287741 7.833178
v 1.283825 -2.287741 6.187627
v 1.283825 -1.320511 7.518906
v 1.283825 -1.320512 6.501900
v 1.283825 -2.287741 7.833178
v 1.283825 -2.885523 7.010403
v 6.783824 -2.287741 6.187627
v 6.783825 -1.320512 6.501900
v 6.783826 -1.320511 7.518906
v 6.783826 -2.287741 7.833178
v 6.783826 -2.885523 7.010403
v 8.690878 2.888747 -0.960877
v 6.170856 3.314021 1.170107
v 6.167933 3.314514 -1.109557
v 8.765690 2.876121 -0.956497
v 8.792921 2.871525 0.975698
v 6.269593 2.215466 -2.087309
v 8.664092 2.788713 -1.244953
v 9.519647 0.215785 -1.818481
v 6.204301 2.247829 -2.077719
v 6.142682 3.206624 -1.438954
v 6.291055 2.109261 2.114899
v 8.732204 2.797055 1.223753
v 6.175869 3.190282 1.440325
v 9.638982 0.118128 1.834789
v 10.001063 -0.150501 1.831254
v 11.955462 1.078076 1.037072
v 9.210018 2.438331 1.217348
v 9.236604 2.450270 1.207991
v 13.310423 0.087547 1.563522
v 12.142634 1.079327 1.029069
v 10.014438 -0.142098 -1.805970
v 12.044806 1.134240 -0.998579
v 9.275820 2.483741 -1.187545
v 13.242124 0.131445 -1.538067
v 13.547701 0.122453 -1.425141
v 12.329291 1.095904 0.683682
v 12.306357 1.114227 -0.821886
v 12.319675 1.103586 0.835037
v 13.569251 0.105236 1.379217
v 12.010593 1.300943 -0.838489
v 9.158396 2.730662 1.001478
v 9.159551 2.730084 -0.937016
v 12.020262 1.296096 0.825527
vn -0.3957 -0.0739 -0.9154
vn -0.2440 0.6462 0.7231
vn -0.4019 -0.0773 0.9124
vn -0.2434 0.6430 -0.7262
vn -0.9265 0.3762 -0.0000
vn 0.8355 -0.5496 -0.0000
vn -0.5410 -0.8410 -0.0018
vn -0.8106 0.5103 0.2872
vn -0.5556 -0.8314 0.0051
vn -0.7879 0.4962 0.3647
vn -0.5415 -0.8407 -0.0000
vn -0.0171 -0.9999 -0.0000
vn 0.1149 -0.9934 -0.0000
vn 0.3685 0.9296 -0.0000
vn 0.6242 0.7813 -0.0000
vn 0.1664 0.9861 -0.0000
vn 0.4481 0.8940 -0.0000
vn -0.0151 0.9999 -0.0000
vn -0.2718 0.9623 -0.0000
vn 0.0014 1.0000 -0.0000
vn 0.1814 0.1338 -0.9743
vn 0.1613 0.0965 -0.9822
vn 0.2097 0.0450 -0.9767
vn 0.1512 0.0776 -0.9855
vn 0.0620 0.1973 -0.9784
vn 0.1854 0.1718 -0.9675
vn 0.1025 0.1204 -0.9874
vn 0.0810 0.0904 -0.9926
vn 0.0283 0.0491 -0.9984
vn -0.0605 -0.0394 -0.9974
vn 0.2549 0.2904 -0.9223
vn 0.2073 0.4273 -0.8800
vn 0.3691 0.3632 -0.8555
vn 0.2378 0.4311 -0.8704
vn 0.2072 0.4275 -0.8799
vn 0.0585 0.4604 -0.8858
vn 0.1548 0.5546 -0.8176
vn 0.1936 0.4248 -0.8843
vn 0.2072 0.4275 -0.8800
vn 0.0249 0.5554 -0.8312
vn 0.0118 0.6190 -0.7853
vn 0.0119 0.6190 -0.7853
vn -0.0013 0.6787 -0.7345
vn -0.1254 0.0837 -0.9886
vn -0.1425 -0.0125 -0.9897
vn -0.1425 -0.0126 -0.9897
vn -0.0607 -0.0395 -0.9974
vn 0.1814 0.1338 0.9743
vn 0.2101 0.0452 0.9766
vn 0.1633 0.0939 0.9821
vn 0.1541 0.0736 0.9853
vn 0.0679 0.1895 0.9795
vn 0.2023 0.2841 0.9372
vn 0.1192 0.3983 0.9095
vn 0.1119 0.1795 0.9774
vn 0.0614 0.3116 0.9482
vn 0.1191 0.3985 0.9094
vn 0.1536 0.5645 0.8110
vn 0.0335 0.5044 0.8628
vn 0.1743 0.4743 0.8629
vn 0.1527 0.5348 0.8310
vn 0.2047 0.4194 0.8844
vn 0.2813 0.5513 0.7855
vn 0.2522 0.4444 0.8596
vn 0.2048 0.4192 0.8845
vn 0.1261 0.2575 0.9580
vn 0.2530 0.2957 0.9212
vn 0.1743 0.4058 0.8972
vn 0.0305 0.5304 0.8472
vn 0.0147 0.6090 0.7930
vn 0.0146 0.6091 0.7930
vn -0.0014 0.6820 0.7314
vn 0.1789 0.1666 0.9696
vn 0.0788 0.0877 0.9930
vn 0.0992 0.1173 0.9881
vn 0.0282 0.0476 0.9985
vn -0.0604 -0.0428 0.9973
vn 0.1993 0.2774 -0.9398
vn 0.1157 0.3930 -0.9122
vn 0.3368 0.2924 -0.8950
vn 0.2216 0.4101 -0.8847
vn 0.1155 0.3934 -0.9121
vn -0.1158 0.5003 -0.8581
vn 0.0294 0.5006 -0.8652
vn 0.0188 0.3702 -0.9287
vn -0.0607 -0.0429 0.9972
vn -0.0716 0.0315 0.9969
vn -0.1421 -0.0149 0.9897
vn -0.0374 0.0843 0.9957
vn 0.0109 -0.9999 -0.0000
vn -0.0137 -0.9999 0.0003
vn -0.0136 -0.9919 0.1262
vn -0.0392 -0.9992 0.0005
vn -0.0136 -0.9920 -0.1256
vn -0.0330 0.5528 -0.8327
vn -0.0049 0.4732 -0.8809
vn 0.0232 0.3892 -0.9209
vn 0.0232 0.3892 0.9209
vn -0.0049 0.4732 0.8809
vn -0.0330 0.5528 0.8327
vn -0.0525 -0.8798 -0.4724
vn -0.0587 -0.9840 -0.1681
vn -0.0584 -0.9790 0.1953
vn -0.0517 -0.8664 0.4966
vn 1.0000 -0.0000 -0.0000
vn -0.0595 0.9982 -0.0000
vn -1.0000 -0.0000 -0.0000
vn -0.0000 1.0000 -0.0000
vn 0.6886 0.2858 -0.6664
vn -0.2339 0.1615 -0.9588
vn -0.9907 0.1364 -0.0000
vn -0.2339 0.1615 0.9588
vn 0.6886 0.2858 0.6664
vn -0.0000 -1.0000 -0.0000
vn -0.0000 -0.0000 -1.0000
vn -0.0000 -0.0000 1.0000
vn -0.2186 -0.1419 -0.9654
vn -0.5942 -0.3213 -0.7373
vn -0.3607 -0.9327 -0.0000
vn -0.9637 -0.2669 -0.0000
vn -0.6536 0.2365 -0.7189
vn -0.8522 0.5232 -0.0000
vn -0.2778 0.7493 -0.6011
vn -0.3689 0.9295 -0.0000
vn 0.2478 0.9688 -0.0000
vn 0.3369 0.6237 -0.7053
vn 0.9207 0.3902 -0.0000
vn 0.4990 0.2418 -0.8322
vn 0.6674 -0.1085 -0.7368
vn 0.8506 -0.5257 -0.0000
vn 0.3577 -0.7911 -0.4962
vn 0.3669 -0.9303 -0.0000
vn -0.3603 -0.9329 -0.0000
vn -0.2186 -0.1417 -0.9655
vn -0.6113 -0.7914 -0.0000
vn -0.4278 -0.9039 -0.0000
vn -0.2136 -0.9769 -0.0000
vn 0.0003 -1.0000 -0.0000
vn 0.0746 -0.0000 0.9972
vn 0.0746 -0.0000 -0.9972
vn 0.9296 -0.3685 -0.0000
vn 0.3056 -0.1212 -0.9444
vn -0.9296 0.3685 -0.0000
vn 0.3056 -0.1212 0.9444
vn -0.9623 -0.2718 -0.0000
vn -0.0842 -0.0238 0.9962
vn 0.9623 0.2718 -0.0000
vn -0.0842 -0.0238 -0.9962
vn 0.0231 0.0743 0.9970
vn 0.0092 0.0965 0.9953
vn -0.0012 0.1153 0.9933
vn 0.0201 0.0956 0.9952
vn -0.0019 0.0698 0.9976
vn -0.0013 0.0439 0.9990
vn -0.0310 0.0624 0.9976
vn -0.0715 0.0316 0.9969
vn -0.0374 0.0846 0.9957
vn -0.0294 0.0867 0.9958
vn -0.0049 0.0939 0.9956
vn -0.0022 0.0866 0.9962
vn 0.0137 0.0744 0.9971
vn 0.0247 0.0585 0.9980
vn 0.0357 0.0503 0.9981
vn 0.0147 0.1219 -0.9924
vn -0.0213 0.0538 -0.9983
vn -0.2185 -0.1418 -0.9655
vn -0.5944 -0.3214 -0.7371
vn -0.0078 0.0748 -0.9972
vn -0.6539 0.2366 -0.7186
vn -0.0111 0.0901 -0.9959
vn -0.2778 0.7495 -0.6009
vn -0.0014 0.0821 -0.9966
vn 0.3371 0.6238 -0.7051
vn 0.0231 0.0547 -0.9982
vn 0.4990 0.2417 -0.8322
vn 0.0218 0.0749 -0.9970
vn 0.6676 -0.1086 -0.7366
vn 0.3576 -0.7910 -0.4964
vn -0.0000 -0.8090 -0.5878
vn -0.0000 0.3090 -0.9511
vn -0.0000 0.3090 0.9511
vn -0.0000 -0.8090 0.5878
vt 0.374535 0.074801
vt 0.321373 0.122610
vt 0.335757 0.303930
vt 0.444783 0.373720
vt 0.444743 0.426766
vt 0.985832 0.399453
vt 0.335757 0.303929
vt 0.057257 0.654418
vt 0.134718 0.654418
vt 0.057257 0.809350
vt 0.134718 0.809350
vt 0.901103 0.108937
vt 0.901103 0.089000
vt 0.893065 0.108937
vt 0.893065 0.099792
vt 0.893065 0.089000
vt 0.717998 0.119588
vt 0.717998 0.098836
vt 0.700010 0.125605
vt 0.717998 0.078260
vt 0.700010 0.072332
vt 0.499153 0.065673
vt 0.499153 0.132264
vt 0.388224 0.085314
vt 0.388224 0.112623
vt 0.005638 0.815870
vt 0.005638 0.995740
vt 0.094425 0.815875
vt 0.094425 0.995703
vt 0.806561 0.821633
vt 0.998125 0.821633
vt 0.978068 0.802874
vt 0.824712 0.805702
vt 0.817429 0.652625
vt 0.806523 0.642424
vt 0.988203 0.649967
vt 0.987566 0.804060
vt 0.998221 0.642424
vt 0.998576 0.818714
vt 0.805514 0.818714
vt 0.820227 0.832470
vt 0.821081 0.827983
vt 0.982750 0.826350
vt 0.981871 0.983595
vt 0.997813 0.998500
vt 0.822540 0.983770
vt 0.804917 0.998499
vt 0.984398 0.805787
vt 0.822374 0.805725
vt 0.814580 0.650964
vt 0.804663 0.641922
vt 0.985038 0.650440
vt 0.998498 0.641922
vt 0.004216 0.821143
vt 0.004216 0.997736
vt 0.437813 0.819340
vt 0.437813 0.999500
vt 0.960697 0.369997
vt 0.960697 0.412772
vt 0.453790 0.334364
vt 0.453790 0.448401
vt 0.453512 0.817737
vt 0.453512 0.993857
vt 0.230918 0.817737
vt 0.230918 0.993857
vt 0.989782 0.099647
vt 0.848813 0.056001
vt 0.981415 0.168896
vt 0.920961 0.194442
vt 0.868078 0.227747
vt 0.952983 0.227747
vt 0.914440 0.056001
vt 0.784703 0.329861
vt 0.403757 0.057522
vt 0.358708 0.322720
vt 0.806258 0.807418
vt 0.996851 0.807447
vt 0.979248 0.825113
vt 0.818741 0.825794
vt 0.822955 0.981971
vt 0.806235 0.998751
vt 0.983304 0.980784
vt 0.983311 0.828541
vt 0.996851 0.998790
vt 0.488442 0.338869
vt 0.846067 0.331818
vt 0.490982 0.400941
vt 0.850519 0.392416
vt 0.350369 0.056490
vt 0.349143 0.144530
vt 0.911041 0.061635
vt 0.933258 0.230340
vt 0.805198 0.823477
vt 0.805129 0.642498
vt 0.816532 0.653274
vt 0.816573 0.805031
vt 0.818672 0.806780
vt 0.978278 0.806126
vt 0.996626 0.823465
vt 0.987045 0.804240
vt 0.984011 0.650585
vt 0.997075 0.642631
vt 0.805410 1.000321
vt 0.805299 0.808984
vt 0.819616 0.823395
vt 0.820529 0.981967
vt 0.982843 0.987699
vt 0.995416 1.000355
vt 0.988278 0.825720
vt 0.995405 0.809016
vt 0.485920 0.333616
vt 0.787707 0.324541
vt 0.996854 0.998721
vt 0.985952 0.987778
vt 0.823077 0.984985
vt 0.818708 0.819914
vt 0.983286 0.823215
vt 0.996854 0.807399
vt 0.836676 0.430004
vt 0.531171 0.440005
vt 0.836676 0.394952
vt 0.531171 0.384951
vt 0.531171 0.334749
vt 0.836676 0.344751
vt 0.446556 0.652921
vt 0.446556 0.997971
vt 0.582935 0.652921
vt 0.588032 0.828448
vt 0.582935 0.997972
vt 0.047304 0.347242
vt 0.047304 0.436814
vt 0.248306 0.347242
vt 0.248306 0.436814
vt 0.445870 0.998988
vt 0.445870 0.652082
vt 0.580783 0.998988
vt 0.592999 0.827841
vt 0.580783 0.652082
vt 0.289226 0.990282
vt 0.289226 0.915496
vt 0.073893 0.990282
vt 0.073893 0.915496
vt 0.784292 0.454389
vt 0.784312 0.539998
vt 0.570815 0.454389
vt 0.570815 0.539998
vt 0.784617 0.454389
vt 0.784630 0.539998
vt 0.570737 0.454389
vt 0.570746 0.539998
vt 0.570929 0.454389
vt 0.570918 0.539998
vt 0.784537 0.454389
vt 0.784529 0.539998
vt 0.383435 0.080682
vt 0.363239 0.098968
vt 0.416112 0.087667
vt 0.416112 0.110270
vt 0.383435 0.117255
vt 0.208624 0.819528
vt 0.101989 0.852480
vt 0.274528 0.905797
vt 0.101989 0.959115
vt 0.208624 0.992067
vt 0.000499 0.040563
vt 0.000499 0.005997
vt 0.284522 0.040563
vt 0.284522 0.005997
vt 0.493371 0.817734
vt 0.493371 0.784612
vt 0.458804 0.817734
vt 0.458804 0.784612
vt 0.284525 0.005997
vt 0.000500 0.005996
vt 0.284525 0.040563
vt 0.000500 0.040563
vt 0.284524 0.040563
vt 0.000499 0.040560
vt 0.284524 0.006000
vt 0.284524 0.005997
vt 0.000499 0.005996
vt 0.284525 0.006000
vt 0.000500 0.005997
vt 0.000500 0.040560
vt 0.234249 0.659236
vt 0.014600 0.659236
vt 0.234249 0.746808
vt 0.014600 0.746808
vt 0.117884 0.659236
vt 0.115843 0.746808
vt 0.231869 0.659236
vt 0.231869 0.746808
vt 0.128321 0.746808
vt 0.127648 0.659236
vt 0.017000 0.746808
vt 0.017000 0.659236
vt 0.133795 0.659236
vt 0.124249 0.746808
vt 0.231817 0.659236
vt 0.231817 0.746808
vt 0.016858 0.746808
vt 0.016858 0.659236
vt 0.977603 0.075954
vt 0.977603 0.056017
vt 0.890683 0.075954
vt 0.890661 0.056017
vt 0.797925 0.075954
vt 0.797925 0.056017
vt 0.151079 0.230440
vt 0.054776 0.231010
vt 0.078440 0.315151
vt 0.022318 0.315151
vt 0.000500 0.750708
vt 0.000500 0.702899
vt 0.419790 0.762472
vt 0.419790 0.716055
vt 0.000500 0.655089
vt 0.419790 0.669637
vt 0.047080 0.992204
vt 0.047080 0.829429
vt 0.383852 0.992204
vt 0.393955 0.829429
vt 0.000500 0.655090
vt 0.419790 0.750707
vt 0.419790 0.655089
vt 0.000500 0.736160
vt 0.419789 0.736160
vt 0.419789 0.702899
vt 0.419789 0.669637
vt 0.000500 0.669637
vt 0.000499 0.750707
vt 0.419790 0.750708
vt 0.419790 0.655090
vt 0.419789 0.655089
vt 0.419789 0.750708
vt 0.403354 0.825152
vt 0.037261 0.825152
vt 0.392692 0.997027
vt 0.037261 0.997027
vt 0.146426 0.526368
vt 0.162691 0.572581
vt 0.070776 0.526368
vt 0.054511 0.572581
vt 0.133946 0.508427
vt 0.133946 0.529767
vt 0.089328 0.508427
vt 0.089328 0.529767
vt 0.155015 0.508427
vt 0.155015 0.529767
vt 0.068260 0.508427
vt 0.068260 0.529767
vt 0.017258 0.508427
vt 0.017258 0.529767
vt 0.089217 0.520226
vt 0.100033 0.577908
vt 0.066029 0.520226
vt 0.055214 0.577908
vt 0.093895 0.509143
vt 0.093895 0.530972
vt 0.082761 0.509143
vt 0.082761 0.530972
vt 0.141147 0.509143
vt 0.141147 0.530972
vt 0.035509 0.509143
vt 0.035509 0.530972
vt 0.018386 0.509143
vt 0.018386 0.530972
vt 0.002326 0.104452
vt 0.081427 0.153655
vt 0.052097 0.231853
vt 0.114601 0.185856
vt 0.157938 0.231695
vt 0.164921 0.185858
vt 0.199020 0.153658
vt 0.232998 0.136524
vt 0.233696 0.074541
vt 0.199025 0.104599
vt 0.164934 0.071224
vt 0.212627 0.041250
vt 0.114605 0.071224
vt 0.081114 0.041204
vt 0.081427 0.104598
vt 0.153381 0.599036
vt 0.012162 0.599036
vt 0.153381 0.651545
vt 0.012162 0.651545
vt 0.153381 0.626380
vt 0.012162 0.626380
vt 0.153381 0.652309
vt 0.012162 0.652309
vt 0.153381 0.625402
vt 0.012162 0.625402
vt 0.153381 0.652184
vt 0.012162 0.652184
vt 0.275628 0.622672
vt 0.251571 0.544823
vt 0.353477 0.622672
vt 0.377533 0.544823
vt 0.314552 0.496710
s 1
usemtl CHASSIS.Material_#25.001
f 184/50/33 185/51/33 186/52/33
f 213/53/34 214/54/34 215/55/34
f 216/51/35 217/50/35 218/56/35
f 239/53/36 240/55/36 241/54/36
f 121/57/37 122/58/37 120/59/37
f 120/59/37 122/58/37 123/60/37
f 124/61/38 125/62/38 126/63/38
f 126/63/38 125/62/38 250/64/38
f 125/62/38 375/65/38 250/64/38
f 130/66/39 131/67/40 132/68/41
f 132/68/41 131/67/40 244/69/42
f 132/68/41 244/69/42 245/70/43
f 137/71/44 138/72/44 136/70/44
f 136/70/44 138/72/44 139/68/44
f 141/73/45 142/74/45 140/71/45
f 140/71/45 142/74/45 143/72/45
f 145/75/46 146/76/46 144/77/46
f 144/77/46 146/76/46 147/78/46
f 149/79/47 150/80/47 607/81/47 608/82/47 606/83/47 148/84/47
f 148/84/47 606/83/47 610/85/47 609/86/47 607/81/47 150/80/47 151/87/47
f 152/88/48 153/89/48 582/90/48 585/91/48 586/92/48 583/93/48 154/94/48
f 154/94/48 583/93/48 584/95/48 582/90/48 153/89/48 230/96/48
f 156/89/49 157/88/49 612/97/49 613/98/49 611/99/49 155/100/49
f 155/100/49 611/99/49 614/101/49 612/97/49 157/88/49 228/102/49
f 159/103/50 160/104/50 158/105/50
f 158/105/50 160/104/50 161/106/50
f 163/107/51 164/108/51 162/109/51
f 162/109/51 164/108/51 165/110/51
f 167/111/52 168/112/52 166/113/52
f 166/113/52 168/112/52 169/114/52
f 172/115/53 170/116/54 171/117/55
f 171/117/55 170/116/54 173/118/56
f 170/116/54 234/119/57 173/118/56
f 176/120/58 174/121/59 175/122/60
f 175/122/60 174/121/59 180/123/61
f 175/122/60 180/123/61 223/124/62
f 177/125/63 178/126/64 587/127/65 589/128/63 588/129/66 179/130/64
f 179/130/67 588/129/68 591/131/69 590/132/69 587/127/70 178/126/71 229/133/69
f 181/134/72 182/135/73 183/136/74
f 183/136/74 182/135/73 242/137/75
f 187/138/76 188/139/77 189/140/78
f 189/140/78 188/139/77 243/141/79
f 200/115/80 201/117/81 199/116/82
f 199/116/82 201/117/81 202/118/83
f 199/116/82 202/118/83 231/119/84
f 203/142/85 204/143/86 596/144/87 598/145/85 599/146/85 597/147/88 205/148/86
f 205/148/89 597/147/90 601/149/91 600/150/91 596/144/92 204/143/89 232/151/91
f 208/152/93 206/153/94 592/154/95 594/155/93 593/156/96 207/157/94
f 207/157/97 593/156/98 595/158/99 592/154/100 206/153/97 227/159/99
f 210/160/101 211/136/102 209/135/103
f 209/135/103 211/136/102 212/137/104
f 222/120/105 221/161/106 220/121/107
f 220/121/107 221/161/106 219/123/108
f 219/123/108 221/161/106 238/124/109
f 225/130/110 226/162/111 603/163/112 604/164/110 602/165/113 224/125/111
f 224/125/114 602/165/115 605/166/116 603/163/117 226/162/114 233/167/116
f 236/141/118 237/139/119 235/140/120
f 235/140/120 237/139/119 246/138/121
f 247/63/122 133/64/123 135/66/124
f 135/66/124 133/64/123 134/67/125
f 376/65/122 374/69/126 133/64/123
f 133/64/123 374/69/126 134/67/125
f 252/168/127 253/169/128 251/170/128
f 251/170/128 253/169/128 254/171/129
f 256/171/130 257/169/131 255/170/131
f 255/170/131 257/169/131 258/168/132
f 260/171/133 261/172/134 259/170/133
f 259/170/133 261/172/134 264/173/135
f 263/170/136 264/173/135 262/171/136
f 262/171/136 264/173/135 261/172/134
f 266/174/137 267/175/137 265/176/137
f 265/176/137 267/175/137 268/177/137
f 267/175/137 277/178/137 268/177/137
f 270/179/138 271/180/138 269/181/138
f 269/181/138 271/180/138 272/182/138
f 276/183/139 273/184/139 275/185/139
f 275/185/139 273/184/139 274/186/139
f 273/184/139 278/187/139 274/186/139
f 280/188/140 281/189/140 279/190/140
f 279/190/140 281/189/140 282/191/140
f 284/192/141 285/193/141 283/194/141
f 283/194/141 285/193/141 286/195/141
f 288/196/142 289/197/142 287/198/142
f 287/198/142 289/197/142 290/199/142
f 292/200/143 293/201/143 291/196/143
f 291/196/143 293/201/143 294/197/143
f 296/202/144 297/203/144 295/200/144
f 295/200/144 297/203/144 298/201/144
f 300/194/145 301/195/145 299/202/145
f 299/202/145 301/195/145 302/203/145
f 305/204/146 303/205/146 304/206/146
f 304/206/146 303/205/146 306/207/146
f 303/205/146 307/208/146 306/207/146
f 309/209/140 310/210/140 308/211/140
f 308/211/140 310/210/140 311/212/140
f 308/211/140 311/212/140 312/213/140
f 314/214/139 315/215/139 313/216/139
f 313/216/139 315/215/139 316/217/139
f 318/218/137 319/219/137 317/220/137
f 317/220/137 319/219/137 320/221/137
f 322/222/146 323/223/146 321/224/146
f 321/224/146 323/223/146 324/225/146
f 326/226/147 327/227/147 325/228/147
f 325/228/147 327/227/147 328/215/147
f 330/226/140 331/214/140 329/229/140
f 329/229/140 331/214/140 332/230/140
f 334/231/148 335/232/148 333/224/148
f 333/224/148 335/232/148 336/233/148
f 362/234/149 363/235/150 361/236/151
f 361/236/151 363/235/150 360/237/152
f 363/235/150 358/238/153 360/237/152
f 360/237/152 358/238/153 357/239/154
f 358/238/153 359/240/155 357/239/154
f 357/239/154 359/240/155 387/241/156
f 387/241/156 359/240/155 373/242/157
f 373/242/157 359/240/155 371/243/158
f 373/242/157 371/243/158 370/244/159
f 370/244/159 371/243/158 372/245/160
f 370/244/159 372/245/160 368/246/161
f 370/244/159 368/246/161 369/247/162
f 369/247/162 368/246/161 366/248/163
f 369/247/162 366/248/163 365/249/164
f 365/249/164 366/248/163 364/250/165
f 364/250/165 366/248/163 367/251/166
f 377/252/167 249/253/167 127/254/168
f 127/254/168 249/253/167 128/255/169
f 127/254/168 128/255/169 129/256/170
f 129/256/170 128/255/169 378/257/170
f 379/258/147 380/259/147 381/260/147
f 381/260/147 380/259/147 382/261/147
f 384/258/148 385/260/148 383/259/148
f 383/259/148 385/260/148 386/261/148
f 391/262/146 388/263/146 390/264/146
f 390/264/146 388/263/146 389/265/146
f 412/266/146 413/267/146 388/263/146
f 388/263/146 413/267/146 389/265/146
f 393/268/140 394/269/140 392/270/140
f 392/270/140 394/269/140 395/271/140
f 397/262/171 398/272/171 396/273/171
f 396/273/171 398/272/171 399/274/171
f 403/275/137 400/263/137 402/276/137
f 402/276/137 400/263/137 401/277/137
f 419/278/137 401/277/137 418/279/137
f 418/279/137 401/277/137 400/263/137
f 405/280/172 406/266/172 404/281/172
f 404/281/172 406/266/172 407/282/172
f 411/283/139 408/277/139 410/266/139
f 410/266/139 408/277/139 409/263/139
f 421/262/139 409/263/139 420/284/139
f 420/284/139 409/263/139 408/277/139
f 415/285/140 416/286/140 414/287/140
f 414/287/140 416/286/140 417/288/140
f 423/289/46 424/290/46 422/291/46
f 422/291/46 424/290/46 425/292/46
f 427/293/173 428/294/173 426/295/173
f 426/295/173 428/294/173 429/296/173
f 431/297/174 432/298/174 430/293/174
f 430/293/174 432/298/174 433/294/174
f 435/299/175 436/300/175 434/301/175
f 434/301/175 436/300/175 437/302/175
f 439/295/176 440/296/176 438/299/176
f 438/299/176 440/296/176 441/300/176
f 443/303/51 444/304/51 442/305/51
f 442/305/51 444/304/51 445/306/51
f 447/307/177 448/308/177 446/309/177
f 446/309/177 448/308/177 449/310/177
f 451/311/178 452/312/178 450/307/178
f 450/307/178 452/312/178 453/308/178
f 455/313/179 456/314/179 454/315/179
f 454/315/179 456/314/179 457/316/179
f 459/309/180 460/310/180 458/313/180
f 458/313/180 460/310/180 461/314/180
f 192/317/181 190/318/182 191/319/183
f 191/319/183 190/318/182 339/320/184
f 191/319/183 339/320/184 197/321/185
f 197/321/185 339/320/184 338/322/186
f 197/321/185 338/322/186 198/323/187
f 197/321/185 198/323/187 196/324/188
f 196/324/188 198/323/187 194/325/189
f 198/323/187 337/326/190 194/325/189
f 194/325/189 337/326/190 195/327/191
f 194/325/189 195/327/191 193/328/192
f 193/328/192 195/327/191 341/329/193
f 193/328/192 341/329/193 340/330/194
f 340/330/194 341/329/193 248/331/195
f 340/330/194 248/331/195 192/317/181
f 192/317/181 248/331/195 190/318/182
f 342/319/196 343/321/197 344/322/198
f 344/322/198 343/321/197 345/323/199
f 343/321/197 346/324/200 345/323/199
f 345/323/199 346/324/200 347/326/201
f 346/324/200 348/325/202 347/326/201
f 347/326/201 348/325/202 349/327/203
f 348/325/202 350/328/204 349/327/203
f 349/327/203 350/328/204 352/329/205
f 350/328/204 351/330/206 352/329/205
f 352/329/205 351/330/206 353/331/207
f 351/330/206 354/317/208 353/331/207
f 353/331/207 354/317/208 355/318/209
f 354/317/208 342/319/196 355/318/209
f 355/318/209 342/319/196 356/320/210
f 342/319/196 344/322/198 356/320/210
usemtl MISSILEUPGRADE.Material_#25.001
f 463/332/211 464/333/211 462/334/211
f 462/334/211 464/333/211 465/335/211
f 467/336/212 468/337/212 466/332/212
f 466/332/212 468/337/212 469/333/212
f 471/338/140 472/339/140 470/336/140
f 470/336/140 472/339/140 473/337/140
f 475/340/213 476/341/213 474/342/213
f 474/342/213 476/341/213 477/343/213
f 479/334/214 480/335/214 478/340/214
f 478/340/214 480/335/214 481/341/214
f 484/344/139 482/345/139 483/346/139
f 483/346/139 482/345/139 485/347/139
f 486/348/139 485/347/139 482/345/139
f 488/344/137 489/346/137 487/345/137
f 487/345/137 489/346/137 490/347/137
f 487/345/137 490/347/137 491/348/137
f 493/332/211 494/333/211 492/334/211
f 492/334/211 494/333/211 495/335/211
f 497/336/212 498/337/212 496/332/212
f 496/332/212 498/337/212 499/333/212
f 501/338/140 502/339/140 500/336/140
f 500/336/140 502/339/140 503/337/140
f 505/340/213 506/341/213 504/342/213
f 504/342/213 506/341/213 507/343/213
f 509/334/214 510/335/214 508/340/214
f 508/340/214 510/335/214 511/341/214
f 514/344/139 512/345/139 513/346/139
f 513/346/139 512/345/139 515/347/139
f 516/348/139 515/347/139 512/345/139
f 518/344/137 519/346/137 517/345/137
f 517/345/137 519/346/137 520/347/137
f 517/345/137 520/347/137 521/348/137
f 523/332/211 524/333/211 522/334/211
f 522/334/211 524/333/211 525/335/211
f 527/336/212 528/337/212 526/332/212
f 526/332/212 528/337/212 529/333/212
f 531/338/140 532/339/140 530/336/140
f 530/336/140 532/339/140 533/337/140
f 535/340/213 536/341/213 534/342/213
f 534/342/213 536/341/213 537/343/213
f 539/334/214 540/335/214 538/340/214
f 538/340/214 540/335/214 541/341/214
f 544/344/139 542/345/139 543/346/139
f 543/346/139 542/345/139 545/347/139
f 546/348/139 545/347/139 542/345/139
f 548/344/137 549/346/137 547/345/137
f 547/345/137 549/346/137 550/347/137
f 547/345/137 550/347/137 551/348/137
f 553/332/211 554/333/211 552/334/211
f 552/334/211 554/333/211 555/335/211
f 557/336/212 558/337/212 556/332/212
f 556/332/212 558/337/212 559/333/212
f 561/338/140 562/339/140 560/336/140
f 560/336/140 562/339/140 563/337/140
f 565/340/213 566/341/213 564/342/213
f 564/342/213 566/341/213 567/343/213
f 569/334/214 570/335/214 568/340/214
f 568/340/214 570/335/214 571/341/214
f 574/344/139 572/345/139 573/346/139
f 573/346/139 572/345/139 575/347/139
f 576/348/139 575/347/139 572/345/139
f 578/344/137 579/346/137 577/345/137
f 577/345/137 579/346/137 580/347/137
f 577/345/137 580/347/137 581/348/137
o PROPELLER01.001
v -0.985505 -2.485332 1.990585
v 0.759591 -1.675740 1.909097
v -0.878304 -1.675740 1.780192
v 0.832559 -2.485332 2.133670
v 2.008907 -1.675740 0.842079
v 2.219300 -2.485332 0.949280
v 2.137812 -1.675740 -0.795816
v 2.362384 -2.485332 -0.868784
v 1.070794 -1.675741 -2.045133
v 1.177994 -2.485333 -2.255525
v -0.567101 -1.675741 -2.174037
v -0.640069 -2.485333 -2.398609
v -1.816417 -1.675741 -1.107019
v -2.026810 -2.485333 -1.214220
v -1.945322 -1.675740 0.530876
v -2.169894 -2.485332 0.603844
v 0.096245 -1.675740 -0.132470
v -0.878304 -1.675740 1.780192
v 0.759591 -1.675740 1.909097
v 2.008907 -1.675740 0.842079
v 2.137812 -1.675740 -0.795816
v 1.070794 -1.675741 -2.045133
v -0.567101 -1.675741 -2.174037
v -1.816417 -1.675741 -1.107019
v -1.945322 -1.675740 0.530876
vn -0.5491 0.2776 0.7883
vn -0.3150 0.2776 0.9076
vn 0.1691 0.2776 0.9457
vn 0.4191 0.2776 0.8645
vn 0.7883 0.2776 0.5491
vn 0.9076 0.2776 0.3150
vn 0.9457 0.2776 -0.1691
vn 0.8645 0.2776 -0.4191
vn 0.5491 0.2776 -0.7883
vn 0.3150 0.2776 -0.9076
vn -0.1691 0.2776 -0.9457
vn -0.4191 0.2776 -0.8645
vn -0.7883 0.2776 -0.5491
vn -0.9076 0.2776 -0.3150
vn -0.9457 0.2776 0.1691
vn -0.8645 0.2776 0.4191
vn -0.0000 1.0000 -0.0000
vt 0.788229 0.861402
vt 0.797702 0.857478
vt 0.788229 0.932745
vt 0.797702 0.936669
vt 0.737782 0.983192
vt 0.741705 0.992665
vt 0.666439 0.983192
vt 0.662515 0.992665
vt 0.615991 0.932745
vt 0.606518 0.936669
vt 0.615991 0.861402
vt 0.606518 0.857478
vt 0.666438 0.810955
vt 0.662515 0.801482
vt 0.737782 0.810955
vt 0.741705 0.801482
vt 0.702110 0.897074
s 1
usemtl PROPELLER01.Material_#25.001
f 617/349/215 615/350/216 616/351/217
f 616/351/217 615/350/216 618/352/218
f 616/351/217 618/352/218 619/353/219
f 619/353/219 618/352/218 620/354/220
f 619/353/219 620/354/220 621/355/221
f 621/355/221 620/354/220 622/356/222
f 621/355/221 622/356/222 623/357/223
f 623/357/223 622/356/222 624/358/224
f 623/357/223 624/358/224 625/359/225
f 625/359/225 624/358/224 626/360/226
f 625/359/225 626/360/226 627/361/227
f 627/361/227 626/360/226 628/362/228
f 627/361/227 628/362/228 629/363/229
f 629/363/229 628/362/228 630/364/230
f 629/363/229 630/364/230 617/349/215
f 617/349/215 630/364/230 615/350/216
f 633/351/231 631/365/231 632/349/231
f 632/349/231 631/365/231 639/363/231
f 639/363/231 631/365/231 638/361/231
f 638/361/231 631/365/231 637/359/231
f 637/359/231 631/365/231 636/357/231
f 636/357/231 631/365/231 635/355/231
f 635/355/231 631/365/231 634/353/231
f 634/353/231 631/365/231 633/351/231
o PROPELLER02.001
v 0.679283 -0.238643 -0.003188
v -0.341116 -0.238643 -0.592315
v -0.341116 0.261357 -0.592315
v 0.679283 0.261357 -0.003188
v -0.341116 -0.238643 -0.592315
v -0.341116 -0.238643 0.585938
v -0.341116 0.261357 0.585938
v -0.341116 0.261357 -0.592315
v -0.341116 -0.238643 0.585938
v 0.679283 -0.238643 -0.003188
v 0.679283 0.261357 -0.003188
v -0.341116 0.261357 0.585938
v 0.679283 -0.238643 -0.003188
v -0.341116 -0.238643 0.585938
v -0.341116 -0.238643 -0.592315
v 0.679283 0.261357 -0.003188
v -0.341116 0.261357 -0.592315
v -0.341116 0.261357 0.585938
v -0.429047 -0.025553 2.446431
v 0.433453 -0.025553 2.446431
v 0.433453 -0.025553 -2.432084
v -0.429047 -0.025553 -2.432084
v 0.433453 -0.025553 2.446431
v -0.429047 -0.025553 2.446431
v 0.433453 -0.025553 -2.432084
v -0.429047 -0.025553 -2.432084
vn -0.0000 -1.0000 -0.0000
vn -0.0000 1.0000 -0.0000
vn 0.5000 -0.0000 -0.8660
vn -1.0000 -0.0000 -0.0000
vn 0.5000 -0.0000 0.8660
vt 0.008569 0.577295
vt 0.155682 0.512771
vt 0.155682 0.641818
vt 0.155682 0.577295
vt 0.008569 0.641818
vt 0.008569 0.512771
vt 0.994807 0.038202
vt 0.915217 0.038202
vt 0.994807 0.004183
vt 0.915217 0.004183
s 1
usemtl PROPELLER02.Material_#25.001
f 652/366/232 653/367/232 654/368/232
f 655/369/233 656/370/233 657/371/233
f 641/367/234 642/368/234 640/371/234
f 640/371/234 642/368/234 643/370/234
f 645/367/235 646/368/235 644/371/235
f 644/371/235 646/368/235 647/370/235
f 649/367/236 650/368/236 648/371/236
f 648/371/236 650/368/236 651/370/236
f 659/372/233 660/373/233 658/374/233
f 658/374/233 660/373/233 661/375/233
f 662/372/232 663/374/232 664/373/232
f 664/373/232 663/374/232 665/375/232
