# Blender 5.1.2
# www.blender.org
mtllib v1.mtl
o AVCOMANCHE_PROP
v 25.606936 -0.093972 5.620622
v 1.600002 -0.093973 0.734805
v 25.642107 -0.093972 -5.234341
v 1.600002 -0.093973 -0.732332
v 13.258512 -0.093973 -22.616779
v 1.193270 -0.093973 -1.294625
v 2.945699 -0.093973 -26.004597
v -0.202060 -0.093973 -1.747996
v -17.412725 -0.093973 -19.598562
v -0.862519 -0.093973 -1.534928
v -23.821568 -0.093973 -10.837386
v -1.724881 -0.093973 -0.347989
v -24.020168 -0.093973 10.504199
v -1.726336 -0.093973 0.345986
v -17.668240 -0.093973 19.306723
v -0.863975 -0.093973 1.532925
v 2.567445 -0.093972 26.090521
v -0.204414 -0.093973 1.748759
v 12.901999 -0.093972 22.769600
v 1.190916 -0.093973 1.295388
v 1.600002 0.093973 0.734805
v 25.606936 0.093973 5.620622
v 25.642107 0.093973 -5.234341
v 1.600002 0.093973 -0.732332
v 1.193270 0.093973 -1.294625
v 13.258512 0.093973 -22.616779
v 2.945699 0.093973 -26.004597
v -0.202060 0.093973 -1.747996
v -0.862519 0.093973 -1.534928
v -17.412725 0.093973 -19.598562
v -23.821568 0.093973 -10.837386
v -1.724881 0.093973 -0.347989
v -1.726336 0.093973 0.345986
v -24.020168 0.093973 10.504199
v -17.668240 0.093973 19.306723
v -0.863975 0.093973 1.532925
v -0.204414 0.093973 1.748759
v 2.567445 0.093973 26.090521
v 12.901999 0.093973 22.769600
v 1.190916 0.093973 1.295388
vn -0.0000 -1.0000 -0.0000
vn -0.0000 1.0000 -0.0000
vt 0.300452 0.022508
vt 0.473912 0.937682
vt 0.685834 0.021167
vt 0.526000 0.937682
s 0
usemtl AVCOMANCHE_PROP.AG
f 1/1/1 2/2/1 3/3/1
f 3/3/1 2/2/1 4/4/1
f 5/1/1 6/2/1 7/3/1
f 7/3/1 6/2/1 8/4/1
f 9/1/1 10/2/1 11/3/1
f 11/3/1 10/2/1 12/4/1
f 13/1/1 14/2/1 15/3/1
f 15/3/1 14/2/1 16/4/1
f 17/1/1 18/2/1 19/3/1
f 19/3/1 18/2/1 20/4/1
f 22/1/2 23/3/2 21/2/2
f 21/2/2 23/3/2 24/4/2
f 26/1/2 27/3/2 25/2/2
f 25/2/2 27/3/2 28/4/2
f 30/1/2 31/3/2 29/2/2
f 29/2/2 31/3/2 32/4/2
f 34/1/2 35/3/2 33/2/2
f 33/2/2 35/3/2 36/4/2
f 38/1/2 39/3/2 37/2/2
f 37/2/2 39/3/2 40/4/2
o PROPELLER01
v -1.081750 -0.550523 2.123055
v 0.663346 0.259070 2.041567
v -0.974549 0.259070 1.912662
v 0.736314 -0.550522 2.266140
v 1.912662 0.259070 0.974549
v 2.123055 -0.550523 1.081750
v 2.041567 0.259070 -0.663346
v 2.266139 -0.550523 -0.736314
v 0.974549 0.259069 -1.912663
v 1.081750 -0.550523 -2.123055
v -0.663346 0.259069 -2.041567
v -0.736314 -0.550523 -2.266140
v -1.912662 0.259069 -0.974549
v -2.123055 -0.550523 -1.081749
v -2.041566 0.259070 0.663346
v -2.266139 -0.550523 0.736314
v -0.000000 0.259070 0.000000
v -0.974549 0.259070 1.912662
v 0.663346 0.259070 2.041567
v 1.912662 0.259070 0.974549
v 2.041567 0.259070 -0.663346
v 0.974549 0.259069 -1.912663
v -0.663346 0.259069 -2.041567
v -1.912662 0.259069 -0.974549
v -2.041566 0.259070 0.663346
vn -0.5491 0.2776 0.7883
vn -0.3149 0.2776 0.9076
vn 0.1691 0.2776 0.9457
vn 0.4191 0.2776 0.8645
vn 0.7883 0.2776 0.5492
vn 0.9076 0.2776 0.3150
vn 0.7883 0.2776 0.5491
vn 0.9076 0.2776 0.3149
vn 0.9457 0.2776 -0.1691
vn 0.8645 0.2776 -0.4191
vn 0.5492 0.2776 -0.7883
vn 0.3150 0.2776 -0.9076
vn 0.5491 0.2776 -0.7883
vn 0.3149 0.2776 -0.9076
vn -0.1691 0.2776 -0.9457
vn -0.4191 0.2776 -0.8645
vn -0.7883 0.2776 -0.5492
vn -0.9076 0.2776 -0.3150
vn -0.7883 0.2776 -0.5491
vn -0.9076 0.2776 -0.3149
vn -0.9457 0.2776 0.1691
vn -0.8645 0.2776 0.4191
vn -0.5492 0.2776 0.7883
vn -0.3150 0.2776 0.9076
vn -0.0000 1.0000 -0.0000
vt 0.788229 0.861402
vt 0.797702 0.857478
vt 0.788229 0.932745
vt 0.797702 0.936669
vt 0.737782 0.983192
vt 0.741705 0.992665
vt 0.666439 0.983192
vt 0.662515 0.992665
vt 0.615991 0.932745
vt 0.606518 0.936669
vt 0.615991 0.861402
vt 0.606518 0.857478
vt 0.666438 0.810955
vt 0.662515 0.801482
vt 0.737782 0.810955
vt 0.741705 0.801482
vt 0.702110 0.897074
s 0
usemtl PROPELLER01.Material_#25
f 43/5/3 41/6/4 42/7/5
f 42/7/5 41/6/4 44/8/6
f 42/7/5 44/8/6 45/9/7
f 45/9/7 44/8/6 46/10/8
f 45/9/9 46/10/10 47/11/11
f 47/11/11 46/10/10 48/12/12
f 47/11/11 48/12/12 49/13/13
f 49/13/13 48/12/12 50/14/14
f 49/13/15 50/14/16 51/15/17
f 51/15/17 50/14/16 52/16/18
f 51/15/17 52/16/18 53/17/19
f 53/17/19 52/16/18 54/18/20
f 53/17/21 54/18/22 55/19/23
f 55/19/23 54/18/22 56/20/24
f 55/19/23 56/20/24 43/5/25
f 43/5/25 56/20/24 41/6/26
f 59/7/27 57/21/27 58/5/27
f 58/5/27 57/21/27 65/19/27
f 65/19/27 57/21/27 64/17/27
f 64/17/27 57/21/27 63/15/27
f 63/15/27 57/21/27 62/13/27
f 62/13/27 57/21/27 61/11/27
f 61/11/27 57/21/27 60/9/27
f 60/9/27 57/21/27 59/7/27
o m2house
v -16.241169 0.032266 -0.579200
v -18.782013 3.131912 -0.347583
v -18.782013 3.131911 0.332730
v -16.241169 0.032266 0.564346
v -3.003467 3.203818 1.254626
v 5.634154 3.203818 1.254626
v 4.798255 4.929121 1.254626
v -2.724105 4.929121 1.254626
v 5.634154 3.203818 1.254626
v 5.634154 3.203818 -1.269480
v 4.798255 4.929121 -1.269480
v 4.798255 4.929121 1.254626
v 5.634154 3.203818 -1.269480
v -3.003467 3.203818 -1.269480
v -2.724105 4.929121 -1.269480
v 4.798255 4.929121 -1.269480
v -3.003467 3.203818 -1.269480
v -3.003467 3.203818 1.254626
v -2.724105 4.929121 1.254626
v -2.724105 4.929121 -1.269480
v -23.650215 5.967846 4.955765
v -23.650215 5.967847 -4.879031
v -21.297077 5.967847 -4.735806
v -21.297077 6.034985 -4.735806
v -23.650215 6.034985 -4.879032
v -23.650215 6.034984 4.955764
v -21.297077 6.034984 4.812539
v -21.297077 5.967846 4.812540
vn 0.7734 0.6340 -0.0000
vn -0.0000 -0.0000 1.0000
vn 0.8999 0.4360 -0.0000
vn -0.0000 -0.0000 -1.0000
vn -0.9871 0.1598 -0.0000
vn -0.0000 -1.0000 -0.0000
vn -0.0000 1.0000 -0.0000
vt 0.751456 0.584228
vt 0.769687 0.584228
vt 0.745249 0.519506
vt 0.775894 0.519506
vt 0.369639 0.289555
vt 0.344086 0.366755
vt 0.126486 0.289555
vt 0.135026 0.366755
vt 0.638423 0.670299
vt 0.638423 0.598404
vt 0.710318 0.670299
vt 0.710318 0.598404
vt 0.710318 0.670299
vt 0.710318 0.598403
vt 0.638423 0.670299
vt 0.638423 0.598403
vt 0.137267 0.367203
vt 0.141106 0.289688
vt 0.362175 0.367203
vt 0.358337 0.289688
vt 0.137267 0.367203
s 0
usemtl HOUSECOLOR01.Material_#2
f 67/22/28 68/23/28 66/24/28
f 66/24/28 68/23/28 69/25/28
f 71/26/29 72/27/29 70/28/29
f 70/28/29 72/27/29 73/29/29
f 75/30/30 76/31/30 74/32/30
f 74/32/30 76/31/30 77/33/30
f 79/28/31 80/29/31 78/26/31
f 78/26/31 80/29/31 81/27/31
f 83/34/32 84/35/32 82/36/32
f 82/36/32 84/35/32 85/37/32
f 87/38/33 88/39/33 86/40/33
f 86/40/33 88/39/33 93/41/33
f 90/42/34 91/40/34 89/39/34
f 89/39/34 91/40/34 92/41/34
o PROPELLER02
v 0.679283 -0.238643 -0.003188
v -0.341116 -0.238643 -0.592315
v -0.341116 0.261357 -0.592315
v 0.679283 0.261357 -0.003188
v -0.341116 -0.238643 -0.592315
v -0.341116 -0.238643 0.585938
v -0.341116 0.261357 0.585938
v -0.341116 0.261357 -0.592315
v -0.341116 -0.238643 0.585938
v 0.679283 -0.238643 -0.003188
v 0.679283 0.261357 -0.003188
v -0.341116 0.261357 0.585938
v 0.679283 -0.238643 -0.003188
v -0.341116 -0.238643 0.585938
v -0.341116 -0.238643 -0.592315
v 0.679283 0.261357 -0.003188
v -0.341116 0.261357 -0.592315
v -0.341116 0.261357 0.585938
v -0.429047 -0.025553 2.446431
v 0.433453 -0.025553 2.446431
v 0.433453 -0.025553 -2.432084
v -0.429047 -0.025553 -2.432084
v 0.433453 -0.025553 2.446431
v -0.429047 -0.025553 2.446431
v 0.433453 -0.025553 -2.432084
v -0.429047 -0.025553 -2.432084
vn -0.0000 -1.0000 -0.0000
vn -0.0000 1.0000 -0.0000
vn 0.5000 -0.0000 -0.8660
vn -1.0000 -0.0000 -0.0000
vn 0.5000 -0.0000 0.8660
vt 0.008569 0.577295
vt 0.155682 0.512771
vt 0.155682 0.641818
vt 0.155682 0.577295
vt 0.008569 0.641818
vt 0.008569 0.512771
vt 0.155682 0.512771
vt 0.008569 0.641818
vt 0.155682 0.641818
vt 0.994807 0.038202
vt 0.915217 0.038202
vt 0.994807 0.004183
vt 0.915217 0.004183
s 0
usemtl PROPELLER02.Material_#25
f 106/43/35 107/44/35 108/45/35
f 109/46/36 110/47/36 111/48/36
f 95/49/37 96/45/37 94/48/37
f 94/48/37 96/45/37 97/50/37
f 99/44/38 100/51/38 98/48/38
f 98/48/38 100/51/38 101/50/38
f 103/44/39 104/51/39 102/48/39
f 102/48/39 104/51/39 105/50/39
f 113/52/36 114/53/36 112/54/36
f 112/54/36 114/53/36 115/55/36
f 116/52/35 117/54/35 118/53/35
f 118/53/35 117/54/35 119/55/35
o m1
v -22.314770 3.151231 -0.339767
v -23.999619 -0.998271 -0.822965
v -23.999619 -0.998271 0.823741
v -22.314770 3.151231 0.340545
v -16.880474 -3.056786 0.823741
v -16.880474 -3.056786 -0.822965
v -16.167229 -1.972466 0.742148
v -21.332478 -3.058288 0.823740
v -21.332478 -3.058288 -0.822966
v -16.880474 -3.056786 0.823741
v -5.352894 -1.854475 2.095049
v -4.448720 -2.431620 0.001772
v -3.769125 -2.874501 2.706340
v -16.167229 -1.972466 0.003631
v -4.448720 -2.431620 0.001772
v -5.352894 -1.854475 2.095049
v -3.769125 -2.874501 -2.705660
v 9.326887 -3.098563 -2.476974
v 9.326887 -3.098563 2.477981
v -3.769125 -2.874501 2.706340
v 9.326887 -3.098563 -2.476974
v 16.559460 -2.261942 -1.015522
v 16.559460 -2.261942 1.016529
v 9.326887 -3.098563 2.477981
v 16.130199 -0.934533 -0.913197
v 13.630422 0.056363 -1.568315
v 13.630422 0.056363 1.569322
v 16.130199 -0.934533 0.914204
v 13.630422 0.056363 -1.568315
v 12.177166 1.217445 -0.945946
v 12.177166 1.217444 0.946981
v 13.630422 0.056363 1.569322
v 8.920252 2.850037 1.155106
v 8.920251 2.850038 -1.154839
v 5.922318 3.355964 1.380276
v 12.177166 1.217445 -0.945946
v 8.920251 2.850038 -1.154839
v 8.920252 2.850037 1.155106
v 5.922318 3.355964 -1.379375
v -5.060384 3.190454 -1.513489
v -5.060384 3.190454 1.514169
v 5.922318 3.355964 1.380276
v -5.060384 3.190454 -1.513489
v -16.190876 0.046339 -0.567442
v -16.190876 0.046339 0.568218
v -5.060384 3.190454 1.514169
v -18.731831 3.146113 -0.339767
v -22.314770 3.151231 -0.339767
v -22.314770 3.151231 0.340545
v -18.731831 3.146112 0.340545
v 9.326887 -3.098563 -2.476974
v 16.130199 -0.934533 -0.913197
v 16.559460 -2.261942 -1.015522
v 13.630422 0.056363 -1.568315
v 9.326887 -3.098563 -2.476974
v 5.999908 2.150903 -2.182181
v 9.863289 -0.237114 -1.866075
v 9.863289 -0.237114 -1.866075
v 5.999908 2.150903 -2.182181
v 8.920251 2.850038 -1.154839
v -3.769125 -2.874501 -2.705660
v 5.999908 2.150903 -2.182181
v -4.924380 2.014019 -2.600777
v 5.922318 3.355964 -1.379375
v -3.769125 -2.874501 -2.705660
v -5.352894 -1.854475 -2.103371
v -4.924380 2.014019 -2.600777
v -16.167229 -1.972466 -0.741371
v -16.190876 0.046339 -0.567442
v -5.352894 -1.854475 -2.103371
v -21.321877 0.604301 0.629975
v -22.314770 3.151231 0.340545
v -23.999619 -0.998271 0.823741
v -16.880474 -3.056786 0.823741
v -16.167229 -1.972466 0.742148
v -18.494980 -2.080523 0.735211
v -16.190876 0.046339 0.568218
v -18.731831 3.146112 0.340545
v -17.341095 0.604399 0.523755
v 9.326887 -3.098563 2.477981
v 16.559460 -2.261942 1.016529
v 16.130199 -0.934533 0.914204
v 13.630422 0.056363 1.569322
v 8.920252 2.850037 1.155106
v 9.863280 -0.237115 1.887243
v 12.177166 1.217444 0.946981
v 6.076934 2.048932 2.193064
v 8.920252 2.850037 1.155106
v 5.922318 3.355964 1.380276
v -4.924380 2.014017 2.611357
v 6.076934 2.048932 2.193064
v 5.922318 3.355964 1.380276
v -5.060384 3.190454 1.514169
v -4.924380 2.014017 2.611357
v -5.060384 3.190454 1.514169
v -16.190876 0.046339 0.568218
v -5.352894 -1.854475 2.095049
v -3.769125 -2.874501 2.706340
v -4.924380 2.014017 2.611357
v -3.769125 -2.874501 2.706340
v 9.326887 -3.098563 2.477981
v 6.076934 2.048932 2.193064
v 9.863280 -0.237115 1.887243
v -4.924380 2.014019 -2.600777
v 9.863289 -0.237114 -1.866075
v 8.920251 2.850038 -1.154839
v 12.177166 1.217445 -0.945946
v 9.863280 -0.237115 1.887243
v 12.177166 1.217444 0.946981
v 5.922318 3.355964 -1.379375
v 5.922318 3.355964 -1.379375
v 9.863280 -0.237115 1.887243
v 13.630422 0.056363 1.569322
v 13.630422 0.056363 -1.568315
v 9.863289 -0.237114 -1.866075
v -5.352894 -1.854475 2.095049
v -4.924380 2.014017 2.611357
v -16.190876 0.046339 0.568218
v -4.924380 2.014017 2.611357
v -4.924380 2.014019 -2.600777
v -16.190876 0.046339 -0.567442
v -5.060384 3.190454 -1.513489
v -5.060384 3.190454 -1.513489
v -4.924380 2.014019 -2.600777
v -5.352894 -1.854475 -2.103371
v -3.769125 -2.874501 -2.705660
v -16.167229 -1.972466 0.742148
v -16.167229 -1.972466 0.742148
v -21.321884 -0.993491 0.735211
v -23.999619 -0.998271 -0.822965
v -16.167229 -1.972466 0.003631
v -4.628058 1.243173 -3.592528
v -4.628058 2.634126 -2.669174
v 2.026323 3.031014 -2.669173
v 2.026324 0.846285 -3.592528
v -4.628058 1.243172 3.593305
v 2.026324 0.846284 3.593305
v 2.026324 3.031014 2.669951
v -4.628057 2.634126 2.669951
v -4.628058 1.243173 -3.592528
v 2.026324 0.846285 -3.592528
v 2.026324 -1.145871 0.117502
v 2.026324 0.846284 3.593305
v -4.628058 1.243172 3.593305
v -4.628058 -0.748982 0.117397
v 2.026324 0.846285 -3.592528
v 2.026323 3.031014 -2.669173
v 2.026324 3.031014 2.669951
v 2.026324 -1.145871 0.117502
v 2.026323 3.031014 -2.669173
v -4.628058 2.634126 -2.669174
v -4.628057 2.634126 2.669951
v 2.026324 3.031014 2.669951
v -4.628058 2.634126 -2.669174
v -4.628058 -0.748982 0.117397
v -4.628058 1.243172 3.593305
v -4.628057 2.634126 2.669951
v 2.026324 0.846284 3.593305
v -4.628058 1.243173 -3.592528
v -2.673810 4.943194 1.262442
v 4.848550 4.943194 1.262441
v 4.848550 4.943194 -1.261664
v -2.673810 4.943194 -1.261664
v 18.188515 -2.652672 0.000503
v 16.871738 -2.652672 -1.360148
v 16.549076 -1.070117 -1.014908
v 17.531746 -1.070117 0.000503
v 16.871738 -2.652672 -1.360148
v 14.741147 -2.652672 -0.840425
v 14.959085 -1.070117 -0.627055
v 16.549076 -1.070117 -1.014908
v 14.741147 -2.652672 -0.840425
v 14.741147 -2.652672 0.841433
v 14.959085 -1.070117 0.628063
v 14.959085 -1.070117 -0.627055
v 14.741147 -2.652672 0.841433
v 16.871738 -2.652672 1.361155
v 16.549076 -1.070117 1.015915
v 14.959085 -1.070117 0.628063
v 16.871738 -2.652672 1.361155
v 18.188515 -2.652672 0.000503
v 17.531746 -1.070117 0.000503
v 16.549076 -1.070117 1.015915
v 18.188515 -2.652672 0.000503
v 14.741147 -2.652672 -0.840425
v 16.871738 -2.652672 -1.360148
v 14.741147 -2.652672 0.841433
v 16.871738 -2.652672 1.361155
v 17.531746 -1.070117 0.000503
v 16.549076 -1.070117 -1.014908
v 14.959085 -1.070117 -0.627055
v 14.959085 -1.070117 0.628063
v 16.549076 -1.070117 1.015915
v 15.762242 -3.087043 0.172568
v 15.762242 -2.740849 0.172568
v 15.762242 -2.740849 -0.173626
v 15.762242 -3.087043 -0.173626
v 20.065434 -3.087043 0.172568
v 20.065434 -3.087043 -0.173626
v 20.065434 -2.740849 -0.173626
v 20.065434 -2.740849 0.172568
v 15.762242 -3.087043 0.172568
v 15.762242 -3.087043 -0.173626
v 20.065434 -3.087043 -0.173626
v 20.065434 -3.087043 0.172568
v 15.762242 -3.087043 -0.173626
v 15.762242 -2.740849 -0.173626
v 20.065434 -2.740849 -0.173626
v 20.065434 -3.087043 -0.173626
v 15.762242 -2.740849 -0.173626
v 15.762242 -2.740849 0.172568
v 20.065434 -2.740849 0.172568
v 20.065434 -2.740849 -0.173626
v 15.762242 -2.740849 0.172568
v 15.762242 -3.087043 0.172568
v 20.065434 -3.087043 0.172568
v 20.065434 -2.740849 0.172568
v -17.340927 -0.993471 0.622289
v -18.495430 1.653178 0.406511
v -20.198875 1.653087 0.524426
v -21.332478 -3.058288 0.823740
v -20.198734 -2.080526 0.735212
v -22.314770 3.151231 -0.339767
v -18.731831 3.146113 -0.339767
v -18.495430 1.653178 -0.411587
v -17.341095 0.604399 -0.528831
v -16.190876 0.046339 -0.567442
v -17.340931 -0.993472 -0.629351
v -16.167229 -1.972466 -0.741371
v -18.494980 -2.080523 -0.740287
v -16.880474 -3.056786 -0.822965
v -21.332478 -3.058288 -0.822966
v -20.198734 -2.080526 -0.740287
v -21.321884 -0.993491 -0.740288
v -23.999619 -0.998271 -0.822965
v -21.321877 0.604301 -0.625684
v -20.198875 1.653087 -0.529501
v -17.340927 -0.993471 0.622289
v -17.340931 -0.993472 -0.629351
v -18.494980 -2.080523 -0.740287
v -17.341095 0.604399 0.523755
v -18.495430 1.653178 0.406511
v -18.495430 1.653178 -0.411587
v -17.341095 0.604399 -0.528831
v -18.495430 1.653178 0.406511
v -20.198875 1.653087 0.524426
v -20.198875 1.653087 -0.529501
v -18.495430 1.653178 -0.411587
v -21.321877 0.604301 -0.625684
v -21.321877 0.604301 0.629975
v -21.321884 -0.993491 0.735211
v -20.198734 -2.080526 -0.740287
v -21.321884 -0.993491 -0.740288
v -20.198734 -2.080526 0.735212
v -5.352894 -1.854475 -2.103371
v -16.167229 -1.972466 -0.741371
v -16.167229 -1.972466 -0.741371
v -23.999619 -0.998271 0.823741
v -16.880474 -3.056786 -0.822965
v -18.729588 3.100173 -0.006355
v -22.194466 3.119713 -0.006355
v -21.343056 6.000862 -0.006355
v -23.362274 6.000862 -0.006355
v -22.194466 3.119713 0.000389
v -18.729588 3.100173 0.000389
v -21.343056 6.000862 0.000389
v -23.362274 6.000862 0.000389
v -18.494980 -2.080523 0.735211
v 2.573720 -1.261952 0.000389
v 5.638358 -1.261952 0.000389
v 5.638358 -1.261953 7.639065
v 2.573720 -1.261953 7.868226
v 5.638358 -0.599328 7.639065
v 5.638358 -0.599328 0.000389
v 2.573720 -0.599328 0.000389
v 2.573720 -0.599328 7.868226
v 5.638358 -0.599328 7.639065
v 2.573720 -0.599328 7.868226
v 2.573720 -1.261953 7.868226
v 5.638358 -1.261953 7.639065
v 5.638358 -1.261952 0.000389
v 5.638358 -0.599328 0.000389
v 5.638358 -0.599328 7.639065
v 5.638358 -1.261953 7.639065
v 2.573720 -0.599327 -7.867448
v 5.638358 -0.599327 -7.638288
v 5.638358 -1.261951 -7.638288
v 2.573720 -1.261951 -7.867448
v 2.573720 -1.261952 0.000389
v 2.573720 -0.599328 0.000389
v 2.573720 -0.599327 -7.867448
v 2.573720 -1.261951 -7.867448
v 2.573720 -1.261951 -7.867448
v 5.638358 -1.261951 -7.638288
v 5.638358 -0.599327 -7.638288
v 2.573720 -0.599327 -7.867448
v 2.573720 -0.599328 0.000389
v 5.638358 -0.599328 0.000389
v 5.638358 -1.261951 -7.638288
v 5.638358 -0.599327 -7.638288
v 2.573720 -1.261953 7.868226
v 2.573720 -0.599328 7.868226
v 16.034389 -0.480212 0.650278
v 16.034389 -0.480211 -0.666378
v 15.278443 -0.180559 -0.949459
v 15.278443 -0.180559 0.933359
v 15.891765 -0.840019 0.650278
v 15.891765 -0.840019 -0.666378
v 16.034389 -0.480211 -0.666378
v 16.034389 -0.480212 0.650278
v 15.891765 -0.840019 -0.666378
v 15.135818 -0.540366 -0.949459
v 15.278443 -0.180559 -0.949459
v 16.034389 -0.480211 -0.666378
v 15.135818 -0.540366 -0.949459
v 15.135818 -0.540366 0.933359
v 15.278443 -0.180559 0.933359
v 15.278443 -0.180559 -0.949459
v 15.135818 -0.540366 0.933359
v 15.891765 -0.840019 0.650278
v 16.034389 -0.480212 0.650278
v 15.278443 -0.180559 0.933359
v -7.173087 3.009183 -0.253292
v -7.173087 3.009183 0.210453
v -5.649303 3.439617 0.349577
v -5.649303 3.439617 -0.392416
v -7.065453 2.628142 -0.253292
v -7.065453 2.628142 0.210453
v -7.173087 3.009183 0.210453
v -7.173087 3.009183 -0.253292
v -7.065453 2.628142 0.210453
v -5.541668 3.058577 0.349577
v -5.649303 3.439617 0.349577
v -7.173087 3.009183 0.210453
v -5.541668 3.058577 0.349577
v -5.541668 3.058577 -0.392416
v -5.649303 3.439617 -0.392416
v -5.649303 3.439617 0.349577
v -5.541668 3.058577 -0.392416
v -7.065453 2.628142 -0.253292
v -7.173087 3.009183 -0.253292
v -5.649303 3.439617 -0.392416
v 1.283824 -2.885522 -7.010403
v 1.283824 -2.287741 -7.833178
v 6.783824 -2.287741 -7.833178
v 6.783825 -2.885522 -7.010403
v 1.283824 -2.287741 -7.833178
v 1.283824 -1.320511 -7.518906
v 6.783824 -1.320511 -7.518906
v 6.783824 -2.287741 -7.833178
v 1.283824 -1.320511 -7.518906
v 1.283824 -1.320511 -6.501900
v 6.783825 -1.320511 -6.501900
v 6.783824 -1.320511 -7.518906
v 1.283824 -1.320511 -6.501900
v 1.283824 -2.287741 -6.187628
v 6.783825 -2.287741 -6.187628
v 6.783825 -1.320511 -6.501900
v 1.283824 -2.287741 -6.187628
v 1.283824 -2.885522 -7.010403
v 6.783825 -2.885522 -7.010403
v 6.783825 -2.287741 -6.187628
v 1.283824 -2.287741 -7.833178
v 1.283824 -1.320511 -6.501900
v 1.283824 -1.320511 -7.518906
v 1.283824 -2.287741 -6.187628
v 1.283824 -2.885522 -7.010403
v 6.783824 -2.287741 -7.833178
v 6.783824 -1.320511 -7.518906
v 6.783825 -1.320511 -6.501900
v 6.783825 -2.287741 -6.187628
v 6.783825 -2.885522 -7.010403
v 1.283825 -2.885522 -4.550334
v 1.283825 -2.287741 -5.373110
v 6.783824 -2.287741 -5.373110
v 6.783825 -2.885522 -4.550334
v 1.283825 -2.287741 -5.373110
v 1.283825 -1.320511 -5.058837
v 6.783824 -1.320511 -5.058837
v 6.783824 -2.287741 -5.373110
v 1.283825 -1.320511 -5.058837
v 1.283825 -1.320511 -4.041831
v 6.783825 -1.320511 -4.041831
v 6.783824 -1.320511 -5.058837
v 1.283825 -1.320511 -4.041831
v 1.283825 -2.287741 -3.727559
v 6.783825 -2.287741 -3.727559
v 6.783825 -1.320511 -4.041831
v 1.283825 -2.287741 -3.727559
v 1.283825 -2.885522 -4.550334
v 6.783825 -2.885522 -4.550334
v 6.783825 -2.287741 -3.727559
v 1.283825 -2.287741 -5.373110
v 1.283825 -1.320511 -4.041831
v 1.283825 -1.320511 -5.058837
v 1.283825 -2.287741 -3.727559
v 1.283825 -2.885522 -4.550334
v 6.783824 -2.287741 -5.373110
v 6.783824 -1.320511 -5.058837
v 6.783825 -1.320511 -4.041831
v 6.783825 -2.287741 -3.727559
v 6.783825 -2.885522 -4.550334
v 1.283825 -2.885523 4.550335
v 1.283825 -2.287742 3.727560
v 6.783825 -2.287742 3.727560
v 6.783826 -2.885523 4.550335
v 1.283825 -2.287742 3.727560
v 1.283825 -1.320512 4.041832
v 6.783825 -1.320512 4.041832
v 6.783825 -2.287742 3.727560
v 1.283825 -1.320512 4.041832
v 1.283825 -1.320512 5.058838
v 6.783826 -1.320512 5.058838
v 6.783825 -1.320512 4.041832
v 1.283825 -1.320512 5.058838
v 1.283825 -2.287742 5.373110
v 6.783826 -2.287742 5.373109
v 6.783826 -1.320512 5.058838
v 1.283825 -2.287742 5.373110
v 1.283825 -2.885523 4.550335
v 6.783826 -2.885523 4.550335
v 6.783826 -2.287742 5.373109
v 1.283825 -2.287742 3.727560
v 1.283825 -1.320512 5.058838
v 1.283825 -1.320512 4.041832
v 1.283825 -2.287742 5.373110
v 1.283825 -2.885523 4.550335
v 6.783825 -2.287742 3.727560
v 6.783825 -1.320512 4.041832
v 6.783826 -1.320512 5.058838
v 6.783826 -2.287742 5.373109
v 6.783826 -2.885523 4.550335
v 1.283825 -2.885523 7.010403
v 1.283825 -2.287742 6.187627
v 6.783824 -2.287742 6.187627
v 6.783826 -2.885523 7.010403
v 1.283825 -2.287742 6.187627
v 1.283825 -1.320512 6.501900
v 6.783825 -1.320512 6.501900
v 6.783824 -2.287742 6.187627
v 1.283825 -1.320512 6.501900
v 1.283825 -1.320512 7.518906
v 6.783826 -1.320512 7.518906
v 6.783825 -1.320512 6.501900
v 1.283825 -1.320512 7.518906
v 1.283825 -2.287742 7.833178
v 6.783826 -2.287742 7.833178
v 6.783826 -1.320512 7.518906
v 1.283825 -2.287742 7.833178
v 1.283825 -2.885523 7.010403
v 6.783826 -2.885523 7.010403
v 6.783826 -2.287742 7.833178
v 1.283825 -2.287742 6.187627
v 1.283825 -1.320512 7.518906
v 1.283825 -1.320512 6.501900
v 1.283825 -2.287742 7.833178
v 1.283825 -2.885523 7.010403
v 6.783824 -2.287742 6.187627
v 6.783825 -1.320512 6.501900
v 6.783826 -1.320512 7.518906
v 6.783826 -2.287742 7.833178
v 6.783826 -2.885523 7.010403
vn -0.3957 -0.0739 -0.9154
vn -0.2440 0.6462 0.7231
vn -0.4019 -0.0773 0.9124
vn -0.2434 0.6430 -0.7262
vn -0.9265 0.3762 -0.0000
vn 0.8355 -0.5496 -0.0000
vn 0.8355 -0.5495 -0.0000
vn -0.5410 -0.8410 -0.0018
vn -0.8106 0.5103 0.2872
vn -0.5556 -0.8314 0.0051
vn -0.5557 -0.8314 0.0051
vn -0.7879 0.4962 0.3648
vn -0.7879 0.4962 0.3647
vn -0.5415 -0.8407 -0.0000
vn -0.0171 -0.9999 -0.0000
vn 0.1149 -0.9934 -0.0000
vn 0.3685 0.9296 -0.0000
vn 0.6242 0.7813 -0.0000
vn 0.1664 0.9861 -0.0000
vn 0.4481 0.8940 -0.0000
vn -0.0151 0.9999 -0.0000
vn -0.2718 0.9623 -0.0000
vn 0.0014 1.0000 -0.0000
vn 0.1814 0.1338 -0.9743
vn 0.1614 0.0965 -0.9822
vn 0.2091 0.0449 -0.9769
vn 0.2101 0.0452 -0.9766
vn 0.1512 0.0776 -0.9855
vn 0.0620 0.1973 -0.9784
vn 0.1854 0.1718 -0.9675
vn 0.1025 0.1204 -0.9874
vn 0.0810 0.0904 -0.9926
vn 0.0282 0.0491 -0.9984
vn 0.0283 0.0491 -0.9984
vn -0.0605 -0.0394 -0.9974
vn 0.2549 0.2904 -0.9223
vn 0.2073 0.4274 -0.8800
vn 0.2072 0.4274 -0.8800
vn 0.1548 0.5546 -0.8176
vn 0.0249 0.5554 -0.8312
vn 0.0119 0.6190 -0.7853
vn 0.0118 0.6190 -0.7853
vn -0.0013 0.6787 -0.7345
vn -0.1254 0.0837 -0.9886
vn -0.1425 -0.0125 -0.9897
vn -0.1424 -0.0125 -0.9897
vn -0.1425 -0.0126 -0.9897
vn -0.0606 -0.0395 -0.9974
vn 0.1814 0.1338 0.9743
vn 0.2101 0.0452 0.9766
vn 0.1633 0.0939 0.9821
vn 0.1633 0.0938 0.9821
vn 0.1541 0.0736 0.9853
vn 0.1540 0.0737 0.9853
vn 0.0679 0.1895 0.9795
vn 0.2023 0.2841 0.9372
vn 0.1192 0.3984 0.9095
vn 0.1191 0.3983 0.9095
vn 0.1191 0.3984 0.9094
vn 0.0335 0.5044 0.8628
vn 0.1527 0.5348 0.8310
vn 0.2047 0.4193 0.8845
vn 0.2048 0.4192 0.8845
vn 0.2530 0.2957 0.9212
vn 0.0305 0.5304 0.8472
vn 0.0147 0.6090 0.7930
vn 0.0146 0.6091 0.7930
vn -0.0014 0.6820 0.7314
vn 0.1789 0.1666 0.9696
vn 0.0788 0.0877 0.9930
vn 0.0992 0.1173 0.9881
vn 0.0282 0.0477 0.9985
vn 0.0282 0.0476 0.9985
vn -0.0605 -0.0428 0.9972
vn 0.1993 0.2774 -0.9398
vn 0.1156 0.3931 -0.9122
vn 0.1156 0.3932 -0.9122
vn 0.0294 0.5006 -0.8652
vn -0.0606 -0.0429 0.9972
vn -0.0716 0.0315 0.9969
vn -0.1421 -0.0149 0.9897
vn -0.1420 -0.0149 0.9897
vn -0.0374 0.0843 0.9957
vn 0.0109 -0.9999 -0.0000
vn -0.0137 -0.9999 0.0003
vn -0.0136 -0.9919 0.1262
vn -0.0136 -0.9919 0.1263
vn -0.0137 -0.9999 0.0004
vn -0.0391 -0.9992 0.0008
vn -0.0136 -0.9920 -0.1255
vn -0.0136 -0.9920 -0.1256
vn -0.0391 -0.9992 0.0006
vn -0.0330 0.5528 -0.8327
vn -0.0049 0.4733 -0.8809
vn -0.0049 0.4732 -0.8809
vn -0.0049 0.4732 -0.8810
vn 0.0232 0.3892 -0.9209
vn 0.0232 0.3892 0.9209
vn -0.0049 0.4732 0.8810
vn -0.0049 0.4733 0.8809
vn -0.0049 0.4732 0.8809
vn -0.0330 0.5528 0.8327
vn -0.0525 -0.8798 -0.4724
vn -0.0587 -0.9840 -0.1680
vn -0.0584 -0.9790 0.1952
vn -0.0517 -0.8664 0.4966
vn 1.0000 -0.0000 -0.0000
vn -0.0595 0.9982 -0.0000
vn -1.0000 -0.0000 -0.0000
vn -0.0000 1.0000 -0.0000
vn 0.6886 0.2858 -0.6664
vn -0.2339 0.1615 -0.9588
vn -0.9907 0.1364 -0.0000
vn -0.2339 0.1615 0.9588
vn 0.6886 0.2858 0.6664
vn -0.0000 -1.0000 -0.0000
vn -0.0000 -0.0000 -1.0000
vn -0.0000 -0.0000 1.0000
vn -0.2186 -0.1419 -0.9654
vn -0.5943 -0.3214 -0.7373
vn -0.3605 -0.9328 -0.0000
vn -0.9637 -0.2670 -0.0000
vn -0.5943 -0.3214 -0.7372
vn -0.6537 0.2365 -0.7188
vn -0.9637 -0.2669 -0.0000
vn -0.8522 0.5232 -0.0000
vn -0.6538 0.2365 -0.7188
vn -0.2778 0.7494 -0.6010
vn -0.2778 0.7494 -0.6011
vn -0.3689 0.9295 -0.0000
vn -0.3688 0.9295 -0.0000
vn -0.2777 0.7494 -0.6011
vn 0.2478 0.9688 -0.0000
vn 0.3370 0.6237 -0.7053
vn 0.2479 0.9688 -0.0000
vn 0.9207 0.3902 -0.0000
vn 0.4990 0.2418 -0.8322
vn 0.4990 0.2417 -0.8322
vn 0.6674 -0.1086 -0.7367
vn 0.6674 -0.1084 -0.7367
vn 0.8506 -0.5257 -0.0000
vn 0.6675 -0.1085 -0.7366
vn 0.3577 -0.7911 -0.4962
vn 0.3669 -0.9303 -0.0000
vn 0.3668 -0.9303 -0.0000
vn 0.3577 -0.7910 -0.4963
vn -0.3604 -0.9328 -0.0000
vn 0.3578 -0.7910 -0.4962
vn -0.2186 -0.1418 -0.9655
vn -0.6113 -0.7914 -0.0000
vn -0.4278 -0.9039 -0.0000
vn -0.2137 -0.9769 -0.0000
vn -0.4277 -0.9039 -0.0000
vn -0.2136 -0.9769 -0.0000
vn 0.0003 -1.0000 -0.0000
vn 0.0746 -0.0000 0.9972
vn 0.0746 -0.0000 -0.9972
vn 0.9296 -0.3685 -0.0000
vn 0.3056 -0.1211 -0.9444
vn 0.3056 -0.1212 -0.9444
vn -0.9296 0.3685 -0.0000
vn 0.3056 -0.1212 0.9444
vn -0.9623 -0.2718 -0.0000
vn -0.0842 -0.0238 0.9962
vn 0.9623 0.2718 -0.0000
vn -0.0842 -0.0238 -0.9962
vn 0.0231 0.0743 0.9970
vn 0.0092 0.0965 0.9953
vn -0.0017 0.1153 0.9933
vn 0.0201 0.0956 0.9952
vn -0.0019 0.0699 0.9976
vn -0.0019 0.0698 0.9976
vn -0.0013 0.0439 0.9990
vn -0.0310 0.0623 0.9976
vn -0.0310 0.0624 0.9976
vn -0.0715 0.0315 0.9969
vn -0.0715 0.0316 0.9969
vn -0.0374 0.0846 0.9957
vn -0.0294 0.0867 0.9958
vn -0.0049 0.0939 0.9956
vn -0.0022 0.0867 0.9962
vn -0.0022 0.0866 0.9962
vn 0.0137 0.0744 0.9971
vn 0.0247 0.0585 0.9980
vn 0.0357 0.0503 0.9981
vn 0.0231 0.0742 0.9970
vn 0.0147 0.1218 -0.9924
vn -0.0213 0.0538 -0.9983
vn -0.2186 -0.1418 -0.9654
vn -0.0078 0.0748 -0.9972
vn -0.0111 0.0902 -0.9959
vn -0.2777 0.7495 -0.6010
vn -0.0014 0.0821 -0.9966
vn 0.3370 0.6238 -0.7052
vn 0.0231 0.0547 -0.9982
vn 0.3371 0.6237 -0.7052
vn 0.0231 0.0546 -0.9982
vn 0.0222 0.0750 -0.9969
vn 0.0147 0.1219 -0.9924
vn 0.6675 -0.1085 -0.7367
vn 0.3576 -0.7911 -0.4963
vn 0.3577 -0.7911 -0.4963
vn -0.0000 -0.8090 -0.5878
vn -0.0000 0.3090 -0.9511
vn -0.0000 0.3090 0.9511
vn -0.0000 -0.8090 0.5878
vt 0.374535 0.074801
vt 0.321373 0.122610
vt 0.335757 0.303930
vt 0.444783 0.373720
vt 0.444743 0.426766
vt 0.985832 0.399453
vt 0.321373 0.122610
vt 0.335757 0.303929
vt 0.444783 0.373720
vt 0.985832 0.399453
vt 0.057257 0.654418
vt 0.134718 0.654418
vt 0.057257 0.809350
vt 0.134718 0.809350
vt 0.901103 0.108937
vt 0.901103 0.089000
vt 0.893065 0.108937
vt 0.893065 0.099792
vt 0.893065 0.089000
vt 0.717998 0.119588
vt 0.717998 0.098836
vt 0.700010 0.125605
vt 0.717998 0.078260
vt 0.700010 0.072332
vt 0.499153 0.065673
vt 0.499153 0.132264
vt 0.388224 0.085314
vt 0.388224 0.112623
vt 0.005638 0.815870
vt 0.005638 0.995740
vt 0.094425 0.815875
vt 0.094425 0.995703
vt 0.806561 0.821633
vt 0.998125 0.821633
vt 0.806523 0.642424
vt 0.998221 0.642424
vt 0.998576 0.818714
vt 0.805514 0.818714
vt 0.997813 0.998500
vt 0.804917 0.998499
vt 0.804663 0.641922
vt 0.998498 0.641922
vt 0.004216 0.821143
vt 0.004216 0.997736
vt 0.437813 0.819340
vt 0.437813 0.999500
vt 0.960697 0.369997
vt 0.960697 0.412772
vt 0.453790 0.334364
vt 0.453790 0.448401
vt 0.453512 0.817737
vt 0.453512 0.993857
vt 0.230918 0.817737
vt 0.230918 0.993857
vt 0.989782 0.099647
vt 0.848813 0.056001
vt 0.981415 0.168896
vt 0.920961 0.194442
vt 0.868078 0.227747
vt 0.952983 0.227747
vt 0.914440 0.056001
vt 0.784703 0.329861
vt 0.403757 0.057522
vt 0.358708 0.322720
vt 0.806258 0.807418
vt 0.996851 0.807447
vt 0.806235 0.998751
vt 0.996851 0.998790
vt 0.488442 0.338869
vt 0.846067 0.331818
vt 0.490982 0.400941
vt 0.850519 0.392416
vt 0.350369 0.056490
vt 0.349143 0.144530
vt 0.911041 0.061635
vt 0.933258 0.230340
vt 0.868078 0.227747
vt 0.805198 0.823477
vt 0.805129 0.642498
vt 0.996626 0.823465
vt 0.997075 0.642631
vt 0.805410 1.000321
vt 0.805299 0.808984
vt 0.995416 1.000355
vt 0.995405 0.809016
vt 0.485920 0.333616
vt 0.846067 0.331818
vt 0.952983 0.227747
vt 0.787707 0.324541
vt 0.996854 0.998721
vt 0.996854 0.807399
vt 0.933258 0.230340
vt 0.350369 0.056490
vt 0.836676 0.430004
vt 0.531171 0.440005
vt 0.836676 0.394952
vt 0.531171 0.384951
vt 0.836676 0.430004
vt 0.531171 0.334749
vt 0.836676 0.344751
vt 0.446556 0.652921
vt 0.446556 0.997971
vt 0.582935 0.652921
vt 0.588032 0.828448
vt 0.582935 0.997972
vt 0.047304 0.347242
vt 0.047304 0.436814
vt 0.248306 0.347242
vt 0.248306 0.436814
vt 0.445870 0.998988
vt 0.445870 0.652082
vt 0.580783 0.998988
vt 0.592999 0.827841
vt 0.580783 0.652082
vt 0.289226 0.990282
vt 0.289226 0.915496
vt 0.073893 0.990282
vt 0.073893 0.915496
vt 0.784292 0.454389
vt 0.784312 0.539998
vt 0.570815 0.454389
vt 0.570815 0.539998
vt 0.784617 0.454389
vt 0.784630 0.539998
vt 0.570737 0.454389
vt 0.570746 0.539998
vt 0.570929 0.454389
vt 0.570918 0.539998
vt 0.784537 0.454389
vt 0.784529 0.539998
vt 0.383435 0.080682
vt 0.363239 0.098968
vt 0.416112 0.087667
vt 0.416112 0.110270
vt 0.383435 0.117255
vt 0.208624 0.819528
vt 0.101989 0.852480
vt 0.274528 0.905797
vt 0.101989 0.959115
vt 0.208624 0.992067
vt 0.000499 0.040563
vt 0.000499 0.005997
vt 0.284522 0.040563
vt 0.284522 0.005997
vt 0.493371 0.817734
vt 0.493371 0.784612
vt 0.458804 0.817734
vt 0.458804 0.784612
vt 0.284525 0.005997
vt 0.000500 0.005996
vt 0.284525 0.040563
vt 0.000500 0.040563
vt 0.284524 0.040563
vt 0.000499 0.040560
vt 0.284524 0.006000
vt 0.000499 0.005997
vt 0.284524 0.040563
vt 0.000499 0.040563
vt 0.284524 0.005997
vt 0.000499 0.005996
vt 0.284525 0.006000
vt 0.000500 0.005997
vt 0.284525 0.040563
vt 0.000500 0.040560
vt 0.234249 0.659236
vt 0.014600 0.659236
vt 0.234249 0.746808
vt 0.014600 0.746808
vt 0.117884 0.659236
vt 0.115843 0.746808
vt 0.231869 0.659236
vt 0.231869 0.746808
vt 0.128321 0.746808
vt 0.127648 0.659236
vt 0.017000 0.746808
vt 0.017000 0.659236
vt 0.133795 0.659236
vt 0.124249 0.746808
vt 0.231817 0.659236
vt 0.231817 0.746808
vt 0.016858 0.746808
vt 0.016858 0.659236
vt 0.977603 0.075954
vt 0.977603 0.056017
vt 0.890683 0.075954
vt 0.890661 0.056017
vt 0.797925 0.075954
vt 0.797925 0.056017
vt 0.151079 0.230440
vt 0.054776 0.231010
vt 0.078440 0.315151
vt 0.022318 0.315151
vt 0.000500 0.750708
vt 0.000500 0.702899
vt 0.419790 0.762472
vt 0.419790 0.716055
vt 0.000500 0.655089
vt 0.419790 0.669637
vt 0.047080 0.992204
vt 0.047080 0.829429
vt 0.383852 0.992204
vt 0.393955 0.829429
vt 0.000500 0.750708
vt 0.000500 0.655090
vt 0.419790 0.750707
vt 0.419790 0.655089
vt 0.000500 0.736160
vt 0.000500 0.702899
vt 0.419789 0.736160
vt 0.419789 0.702899
vt 0.419789 0.669637
vt 0.000500 0.669637
vt 0.000499 0.750707
vt 0.000500 0.655089
vt 0.419790 0.750708
vt 0.419790 0.655090
vt 0.419789 0.655089
vt 0.419789 0.702899
vt 0.419789 0.750708
vt 0.403354 0.825152
vt 0.037261 0.825152
vt 0.392692 0.997027
vt 0.037261 0.997027
vt 0.146426 0.526368
vt 0.162691 0.572581
vt 0.070776 0.526368
vt 0.054511 0.572581
vt 0.133946 0.508427
vt 0.133946 0.529767
vt 0.089328 0.508427
vt 0.089328 0.529767
vt 0.155015 0.508427
vt 0.155015 0.529767
vt 0.068260 0.508427
vt 0.068260 0.529767
vt 0.017258 0.508427
vt 0.017258 0.529767
vt 0.089217 0.520226
vt 0.100033 0.577908
vt 0.066029 0.520226
vt 0.055214 0.577908
vt 0.093895 0.509143
vt 0.093895 0.530972
vt 0.082761 0.509143
vt 0.082761 0.530972
vt 0.141147 0.509143
vt 0.141147 0.530972
vt 0.035509 0.509143
vt 0.035509 0.530972
vt 0.018386 0.509143
vt 0.018386 0.530972
vt 0.002326 0.104452
vt 0.081427 0.153655
vt 0.052097 0.231853
vt 0.114601 0.185856
vt 0.157938 0.231695
vt 0.164921 0.185858
vt 0.199020 0.153658
vt 0.232998 0.136524
vt 0.233696 0.074541
vt 0.199025 0.104599
vt 0.164934 0.071224
vt 0.212627 0.041250
vt 0.114605 0.071224
vt 0.081114 0.041204
vt 0.081427 0.104598
vt 0.199025 0.104599
vt 0.114605 0.071224
vt 0.081427 0.153655
vt 0.153381 0.599036
vt 0.012162 0.599036
vt 0.153381 0.651545
vt 0.012162 0.651545
vt 0.153381 0.626380
vt 0.012162 0.626380
vt 0.153381 0.652309
vt 0.012162 0.652309
vt 0.153381 0.625402
vt 0.012162 0.625402
vt 0.153381 0.652184
vt 0.012162 0.652184
vt 0.275628 0.622672
vt 0.251571 0.544823
vt 0.353477 0.622672
vt 0.377533 0.544823
vt 0.314552 0.496710
vt 0.275628 0.622672
vt 0.353477 0.622672
vt 0.251571 0.544823
vt 0.377533 0.544823
vt 0.314552 0.496710
s 0
usemtl CHASSIS.Material_#25
f 184/56/40 185/57/40 186/58/40
f 213/59/41 214/60/41 215/61/41
f 216/62/42 217/56/42 218/63/42
f 239/64/43 240/65/43 241/60/43
f 121/66/44 122/67/44 120/68/44
f 120/68/44 122/67/44 123/69/44
f 124/70/45 125/71/45 126/72/45
f 126/72/45 125/71/45 250/73/45
f 125/71/46 375/74/46 250/73/46
f 130/75/47 131/76/48 132/77/49
f 132/77/50 131/76/48 244/78/51
f 132/77/50 244/78/52 245/79/53
f 137/80/54 138/81/54 136/79/54
f 136/79/54 138/81/54 139/77/54
f 141/82/55 142/83/55 140/80/55
f 140/80/55 142/83/55 143/81/55
f 145/84/56 146/85/56 144/86/56
f 144/86/56 146/85/56 147/87/56
f 149/88/57 150/89/57 148/90/57
f 148/90/57 150/89/57 151/91/57
f 152/92/58 153/93/58 154/94/58
f 154/94/58 153/93/58 230/95/58
f 156/93/59 157/92/59 155/96/59
f 155/96/59 157/92/59 228/97/59
f 159/98/60 160/99/60 158/100/60
f 158/100/60 160/99/60 161/101/60
f 163/102/61 164/103/61 162/104/61
f 162/104/61 164/103/61 165/105/61
f 167/106/62 168/107/62 166/108/62
f 166/108/62 168/107/62 169/109/62
f 172/110/63 170/111/64 171/112/65
f 171/112/66 170/111/64 173/113/67
f 170/111/64 234/114/68 173/113/67
f 176/115/69 174/116/70 175/117/71
f 175/117/71 174/116/70 180/118/72
f 175/117/71 180/118/73 223/119/74
f 177/120/75 178/121/76 179/122/76
f 179/122/77 178/121/77 229/123/78
f 181/124/79 182/125/80 183/126/80
f 183/126/80 182/125/81 242/127/82
f 187/128/83 188/129/84 189/130/85
f 189/130/86 188/129/86 243/131/87
f 200/110/88 201/112/89 199/111/90
f 199/111/91 201/112/89 202/113/92
f 199/111/90 202/113/93 231/132/94
f 203/133/95 204/134/96 205/135/97
f 205/135/98 204/134/98 232/136/99
f 208/137/100 206/138/101 207/139/101
f 207/139/102 206/138/102 227/140/103
f 210/141/104 211/126/105 209/142/105
f 209/142/106 211/126/106 212/127/107
f 222/143/108 221/144/109 220/116/110
f 220/116/110 221/144/109 219/118/111
f 219/118/112 221/144/109 238/119/113
f 225/122/114 226/145/115 224/120/115
f 224/120/116 226/145/116 233/146/117
f 236/147/118 237/129/119 235/130/120
f 235/130/121 237/129/119 246/148/122
f 247/72/123 133/73/124 135/75/125
f 135/75/126 133/73/127 134/76/128
f 376/74/123 374/78/129 133/73/124
f 133/73/124 374/78/130 134/76/131
f 252/149/132 253/150/133 251/151/134
f 251/151/135 253/150/135 254/152/136
f 256/152/137 257/150/138 255/151/138
f 255/151/139 257/150/140 258/153/141
f 260/152/142 261/154/143 259/151/142
f 259/151/142 261/154/143 264/155/144
f 263/151/145 264/155/144 262/152/145
f 262/152/145 264/155/144 261/154/143
f 266/156/146 267/157/146 265/158/146
f 265/158/146 267/157/146 268/159/146
f 267/157/146 277/160/146 268/159/146
f 270/161/147 271/162/147 269/163/147
f 269/163/147 271/162/147 272/164/147
f 276/165/148 273/166/148 275/167/148
f 275/167/148 273/166/148 274/168/148
f 273/166/148 278/169/148 274/168/148
f 280/170/149 281/171/149 279/172/149
f 279/172/149 281/171/149 282/173/149
f 284/174/150 285/175/150 283/176/150
f 283/176/150 285/175/150 286/177/150
f 288/178/151 289/179/151 287/180/151
f 287/180/151 289/179/151 290/181/151
f 292/182/152 293/183/152 291/178/152
f 291/178/152 293/183/152 294/179/152
f 296/184/153 297/185/153 295/182/153
f 295/182/153 297/185/153 298/183/153
f 300/176/154 301/177/154 299/184/154
f 299/184/154 301/177/154 302/185/154
f 305/186/155 303/187/155 304/188/155
f 304/188/155 303/187/155 306/189/155
f 303/187/155 307/190/155 306/189/155
f 309/191/149 310/192/149 308/193/149
f 308/193/149 310/192/149 311/194/149
f 308/193/149 311/194/149 312/195/149
f 314/196/148 315/197/148 313/198/148
f 313/198/148 315/197/148 316/199/148
f 318/200/146 319/201/146 317/202/146
f 317/202/146 319/201/146 320/203/146
f 322/204/155 323/205/155 321/206/155
f 321/206/155 323/205/155 324/207/155
f 326/208/156 327/209/156 325/210/156
f 325/210/156 327/209/156 328/211/156
f 330/212/149 331/213/149 329/214/149
f 329/214/149 331/213/149 332/215/149
f 334/216/157 335/217/157 333/218/157
f 333/218/157 335/217/157 336/219/157
f 362/220/158 363/221/159 361/222/160
f 361/222/160 363/221/159 360/223/161
f 363/221/162 358/224/163 360/223/164
f 360/223/164 358/224/163 357/225/165
f 358/224/166 359/226/167 357/225/165
f 357/225/165 359/226/168 387/227/169
f 387/227/170 359/226/171 373/228/172
f 373/228/172 359/226/167 371/229/173
f 373/228/174 371/229/173 370/230/175
f 370/230/175 371/229/173 372/231/176
f 370/230/175 372/231/177 368/232/178
f 370/230/175 368/232/179 369/233/180
f 369/233/180 368/232/181 366/234/182
f 369/233/180 366/234/182 365/235/183
f 365/235/184 366/234/185 364/236/186
f 364/236/186 366/234/187 367/237/188
f 377/238/189 249/239/189 127/240/190
f 127/240/190 249/239/189 128/241/191
f 127/240/192 128/241/193 129/242/194
f 129/242/194 128/241/193 378/243/194
f 379/244/156 380/245/156 381/246/156
f 381/246/156 380/245/156 382/247/156
f 384/244/157 385/246/157 383/245/157
f 383/245/157 385/246/157 386/247/157
f 391/248/155 388/249/155 390/250/155
f 390/250/155 388/249/155 389/251/155
f 412/252/155 413/253/155 388/249/155
f 388/249/155 413/253/155 389/251/155
f 393/254/149 394/255/149 392/256/149
f 392/256/149 394/255/149 395/257/149
f 397/258/195 398/259/195 396/260/195
f 396/260/195 398/259/195 399/261/195
f 403/262/146 400/263/146 402/264/146
f 402/264/146 400/263/146 401/265/146
f 419/266/146 401/265/146 418/267/146
f 418/267/146 401/265/146 400/263/146
f 405/268/196 406/269/196 404/270/196
f 404/270/196 406/269/196 407/271/196
f 411/272/148 408/273/148 410/252/148
f 410/252/148 408/273/148 409/249/148
f 421/248/148 409/249/148 420/274/148
f 420/274/148 409/249/148 408/273/148
f 415/275/149 416/276/149 414/277/149
f 414/277/149 416/276/149 417/278/149
f 423/279/56 424/280/56 422/281/56
f 422/281/56 424/280/56 425/282/56
f 427/283/197 428/284/197 426/285/197
f 426/285/197 428/284/197 429/286/197
f 431/287/198 432/288/198 430/283/198
f 430/283/199 432/288/199 433/284/199
f 435/289/200 436/290/200 434/291/200
f 434/291/200 436/290/200 437/292/200
f 439/285/201 440/286/201 438/289/201
f 438/289/201 440/286/201 441/290/201
f 443/293/61 444/294/61 442/295/61
f 442/295/61 444/294/61 445/296/61
f 447/297/202 448/298/202 446/299/202
f 446/299/202 448/298/202 449/300/202
f 451/301/203 452/302/203 450/297/203
f 450/297/203 452/302/203 453/298/203
f 455/303/204 456/304/204 454/305/204
f 454/305/204 456/304/204 457/306/204
f 459/299/205 460/300/205 458/303/205
f 458/303/205 460/300/205 461/304/205
f 192/307/206 190/308/207 191/309/208
f 191/309/208 190/308/207 339/310/209
f 191/309/208 339/310/209 197/311/210
f 197/311/211 339/310/209 338/312/212
f 197/311/211 338/312/212 198/313/213
f 197/311/211 198/313/214 196/314/215
f 196/314/216 198/313/214 194/315/217
f 198/313/213 337/316/218 194/315/217
f 194/315/217 337/316/218 195/317/219
f 194/315/217 195/317/219 193/318/220
f 193/318/221 195/317/219 341/319/222
f 193/318/221 341/319/222 340/320/223
f 340/320/223 341/319/222 248/321/224
f 340/320/223 248/321/224 192/307/225
f 192/307/225 248/321/224 190/308/207
f 342/309/226 343/311/227 344/312/188
f 344/312/228 343/311/227 345/313/162
f 343/311/227 346/314/229 345/313/162
f 345/313/162 346/314/229 347/322/166
f 346/314/229 348/315/230 347/322/166
f 347/322/166 348/315/230 349/317/231
f 348/315/230 350/318/232 349/317/167
f 349/317/167 350/318/232 352/323/233
f 350/318/232 351/320/234 352/323/235
f 352/323/233 351/320/234 353/321/177
f 351/320/236 354/307/237 353/321/177
f 353/321/177 354/307/237 355/324/181
f 354/307/237 342/309/238 355/324/239
f 355/324/181 342/309/226 356/310/240
f 342/309/238 344/312/158 356/310/241
usemtl MISSILEUPGRADE.Material_#25
f 463/325/242 464/326/242 462/327/242
f 462/327/242 464/326/242 465/328/242
f 467/329/243 468/330/243 466/325/243
f 466/325/243 468/330/243 469/326/243
f 471/331/149 472/332/149 470/329/149
f 470/329/149 472/332/149 473/330/149
f 475/333/244 476/334/244 474/335/244
f 474/335/244 476/334/244 477/336/244
f 479/327/245 480/328/245 478/333/245
f 478/333/245 480/328/245 481/334/245
f 484/337/148 482/338/148 483/339/148
f 483/339/148 482/338/148 485/340/148
f 486/341/148 485/340/148 482/338/148
f 488/342/146 489/343/146 487/344/146
f 487/344/146 489/343/146 490/345/146
f 487/344/146 490/345/146 491/346/146
f 493/325/242 494/326/242 492/327/242
f 492/327/242 494/326/242 495/328/242
f 497/329/243 498/330/243 496/325/243
f 496/325/243 498/330/243 499/326/243
f 501/331/149 502/332/149 500/329/149
f 500/329/149 502/332/149 503/330/149
f 505/333/244 506/334/244 504/335/244
f 504/335/244 506/334/244 507/336/244
f 509/327/245 510/328/245 508/333/245
f 508/333/245 510/328/245 511/334/245
f 514/337/148 512/338/148 513/339/148
f 513/339/148 512/338/148 515/340/148
f 516/341/148 515/340/148 512/338/148
f 518/342/146 519/343/146 517/344/146
f 517/344/146 519/343/146 520/345/146
f 517/344/146 520/345/146 521/346/146
f 523/325/242 524/326/242 522/327/242
f 522/327/242 524/326/242 525/328/242
f 527/329/243 528/330/243 526/325/243
f 526/325/243 528/330/243 529/326/243
f 531/331/149 532/332/149 530/329/149
f 530/329/149 532/332/149 533/330/149
f 535/333/244 536/334/244 534/335/244
f 534/335/244 536/334/244 537/336/244
f 539/327/245 540/328/245 538/333/245
f 538/333/245 540/328/245 541/334/245
f 544/337/148 542/338/148 543/339/148
f 543/339/148 542/338/148 545/340/148
f 546/341/148 545/340/148 542/338/148
f 548/342/146 549/343/146 547/344/146
f 547/344/146 549/343/146 550/345/146
f 547/344/146 550/345/146 551/346/146
f 553/325/242 554/326/242 552/327/242
f 552/327/242 554/326/242 555/328/242
f 557/329/243 558/330/243 556/325/243
f 556/325/243 558/330/243 559/326/243
f 561/331/149 562/332/149 560/329/149
f 560/329/149 562/332/149 563/330/149
f 565/333/244 566/334/244 564/335/244
f 564/335/244 566/334/244 567/336/244
f 569/327/245 570/328/245 568/333/245
f 568/333/245 570/328/245 571/334/245
f 574/337/148 572/338/148 573/339/148
f 573/339/148 572/338/148 575/340/148
f 576/341/148 575/340/148 572/338/148
f 578/342/146 579/343/146 577/344/146
f 577/344/146 579/343/146 580/345/146
f 577/344/146 580/345/146 581/346/146
