# Blender 5.1.2
# www.blender.org
mtllib V1.mtl
o m2
v -2.459732 4.240678 -4.845490
v -2.459732 4.240678 4.845490
v 2.223476 4.240678 4.845490
v 2.223476 4.240678 -4.845490
vn -0.0000 1.0000 -0.0000
vt 0.994994 0.487815
vt 0.501941 0.487815
vt 0.994994 0.733308
vt 0.501941 0.733308
s 0
usemtl HOUSECOLOR01.002.Material_#4
f 3/1/1 4/2/1 2/3/1
f 2/3/1 4/2/1 1/4/1
o m1
v -17.670366 -4.188149 -5.788113
v -17.670366 -2.977323 -5.788113
v -16.281477 -2.977323 -6.251162
v -16.281477 -4.188149 -6.251162
v -17.670366 -4.188148 5.788112
v -16.281477 -4.188148 6.251162
v -16.281477 -2.977323 6.251159
v -17.670366 -2.977323 5.788111
v -16.281477 -2.977323 -6.251162
v -17.670366 -2.977323 -5.788113
v -17.670366 -2.977323 5.788111
v -16.281477 -2.977323 6.251159
v -17.670366 -2.977323 -5.788113
v -17.670366 -4.188149 -5.788113
v -17.670366 -4.188148 5.788112
v -17.670366 -2.977323 5.788111
v -16.281477 -2.977323 -6.251162
v -16.281477 -2.977323 6.251159
v -16.281477 -4.188148 6.251162
v -16.281477 -4.188149 -6.251162
v -16.054115 -3.417104 -5.844391
v 11.840615 -3.481839 -5.844391
v 11.840615 -3.481839 5.808113
v -16.054115 -3.417103 5.808113
v -3.080708 0.730419 -5.476067
v -3.075832 -0.174808 -5.844391
v -3.075832 -0.174807 5.808113
v -3.080708 0.730418 5.441588
v -3.076584 -3.417104 -5.844391
v -3.076584 -3.417103 5.808113
v 11.840615 -3.481839 -5.844391
v 12.443841 -0.176613 -5.844391
v 12.443841 -0.176612 5.808113
v 11.840615 -3.481839 5.808113
v 12.443841 -0.176613 -5.844391
v 12.174916 0.660899 -5.225361
v 12.174916 0.660899 5.189082
v 12.443841 -0.176612 5.808113
v 12.174916 0.660899 -5.225361
v 3.839138 1.388518 -5.225361
v 3.839138 1.388518 5.189082
v 12.174916 0.660899 5.189082
v 3.839138 1.388518 -5.225361
v 2.254738 4.239666 -4.863630
v 2.254738 4.239666 4.827350
v 3.839138 1.388518 5.189082
v -2.428471 4.239666 -4.863630
v -3.080708 0.730419 -5.476067
v -3.080708 0.730418 5.441588
v -2.428471 4.239666 4.827350
v -3.075832 -0.174808 -5.844391
v 11.840615 -3.481839 -5.844391
v -3.076584 -3.417104 -5.844391
v 12.443841 -0.176613 -5.844391
v 3.839138 1.388518 -5.225361
v 12.174916 0.660899 -5.225361
v -3.080708 0.730419 -5.476067
v 2.254738 4.239666 -4.863630
v -2.428471 4.239666 -4.863630
v -3.075832 -0.174807 5.808113
v -3.076584 -3.417103 5.808113
v 11.840615 -3.481839 5.808113
v 12.443841 -0.176612 5.808113
v 12.174916 0.660899 5.189082
v 3.839138 1.388518 5.189082
v -3.080708 0.730418 5.441588
v 2.254738 4.239666 4.827350
v -2.428471 4.239666 4.827350
v -16.043715 -0.210555 5.810814
v -3.083380 -3.429445 5.813904
v -3.083379 -0.210555 5.810812
v -16.043716 -3.429445 5.813905
v -3.083379 -3.448987 4.843405
v -16.039463 0.725300 4.819852
v -3.083379 0.729481 4.847229
v -16.043715 -3.448987 4.843407
v -16.039463 0.725300 4.819852
v -16.043715 -0.210555 5.810814
v -16.043715 0.729481 5.437664
v -16.043715 0.729481 5.437664
v -3.080708 0.730418 5.441588
v -16.043716 -3.429445 5.813905
v -16.043715 -3.448987 4.843407
v -16.043716 -0.210554 -5.844388
v -3.083380 -0.210554 -5.844388
v -3.083380 -3.448986 -5.844389
v -16.043716 -3.448986 -5.844389
v -3.083380 -3.448986 -4.876980
v -3.083380 0.729483 -4.880806
v -16.039463 0.725301 -4.845502
v -16.043716 -3.448986 -4.876980
v -16.039463 0.725301 -4.845502
v -16.043716 0.729483 -5.471239
v -16.043716 -0.210554 -5.844388
v -16.043716 0.729483 -5.471239
v -3.080708 0.730419 -5.476067
v -16.043716 -3.448986 -5.844389
v -16.043716 -3.448986 -4.876980
v -15.779167 -2.694390 4.858756
v -3.083380 -2.694390 4.858754
v -15.779165 -2.693912 -4.878542
v -3.083380 -2.693912 -4.878542
v 12.701554 -3.653524 -5.788113
v 12.085340 -2.442698 -6.251162
v 12.915936 -2.442698 -5.788113
v 11.870954 -3.653524 -6.251162
v 12.701554 -3.653524 5.788112
v 12.085340 -2.442698 6.251159
v 11.870954 -3.653524 6.251162
v 12.915936 -2.442698 5.788111
v 12.085340 -2.442698 -6.251162
v 12.915936 -2.442698 5.788111
v 12.915936 -2.442698 -5.788113
v 12.085340 -2.442698 6.251159
v 12.915936 -2.442698 -5.788113
v 12.701554 -3.653524 5.788112
v 12.701554 -3.653524 -5.788113
v 12.915936 -2.442698 5.788111
v 14.022374 -3.623351 2.285893
v 13.477754 2.161602 1.971456
v 14.022374 2.161602 2.285893
v 13.477754 -3.623351 1.971456
v 13.477754 2.161602 2.600330
v 13.477754 -3.623351 2.600330
v 14.022374 -3.623350 4.791568
v 13.477754 2.161602 4.477131
v 14.022374 2.161602 4.791568
v 13.477754 -3.623350 4.477131
v 13.477754 2.161602 5.106005
v 13.477754 -3.623350 5.106005
v 14.022374 -3.623351 -2.224696
v 13.477754 2.161602 -2.539134
v 14.022374 2.161602 -2.224697
v 13.477754 -3.623351 -2.539134
v 13.477754 2.161601 -1.910259
v 13.477754 -3.623351 -1.910259
v 14.022374 -3.623351 -4.871723
v 13.477754 2.161602 -5.186161
v 14.022374 2.161602 -4.871723
v 13.477754 -3.623351 -5.186161
v 13.477754 2.161601 -4.557286
v 13.477754 -3.623351 -4.557286
v 13.659295 1.386952 -5.320754
v 13.659295 1.386952 -4.396308
v 17.670357 0.788399 -4.858534
v 13.659295 -1.005938 1.885936
v 13.659295 -1.005938 2.722338
v 17.670361 -1.604491 2.304134
v 13.659299 1.386953 4.378058
v 13.659299 1.386953 5.201883
v 17.670364 0.788399 4.789967
v 13.659291 -1.005938 -2.670122
v 13.659291 -1.005938 -1.789697
v 17.670357 -1.604491 -2.229912
v 13.659295 -3.579214 4.318316
v 13.659295 -3.579213 5.261627
v 17.670357 -4.177766 4.789968
v 13.659291 -3.579214 -5.339620
v 13.659291 -3.579214 -4.377442
v 17.670353 -4.177766 -4.858534
v 13.471978 2.202084 -5.182208
v 13.471978 2.202084 5.142128
v 14.046552 2.202084 -5.182208
v 14.046552 2.202084 5.142128
v 13.461240 2.202084 2.011176
v 10.686017 0.822278 2.011176
v 13.461240 2.202084 2.585747
v 10.686017 0.822279 2.585747
v 13.461240 2.202084 -2.497494
v 10.686017 0.822278 -2.497495
v 13.461240 2.202084 -1.922923
v 10.686017 0.822279 -1.922923
v 13.462426 -3.589654 -5.182208
v 13.462426 -3.589653 5.142128
v 14.036996 -3.589654 -5.182208
v 14.036996 -3.589653 5.142128
v -16.039463 0.725300 4.819852
v -3.080708 0.730418 5.441588
v -3.083379 0.729481 4.847229
v -16.043715 0.729481 5.437664
v -16.039463 0.725301 -4.845502
v -3.083380 0.729483 -4.880806
v -3.080708 0.730419 -5.476067
v -16.043716 0.729483 -5.471239
v -15.542934 -3.150333 4.792472
v -19.669270 -2.829848 4.819852
v -19.669270 -2.829850 -4.845502
v -15.542934 -3.150333 -4.810198
v -15.508981 -2.718905 4.792472
v -15.508981 -2.718905 -4.810198
v -19.630812 -2.394510 -4.810198
v -19.630812 -2.394508 4.792472
v -19.669270 -2.829850 -4.845502
v -19.669270 -2.829848 4.819852
v -19.630812 -2.394508 4.792472
v -19.630812 -2.394510 -4.810198
v -15.508981 -2.718905 -4.810198
v -15.542934 -3.150333 -4.810198
v -19.630812 -2.394510 -4.810198
v -19.669270 -2.829850 -4.845502
v -15.542934 -3.150333 4.792472
v -15.508981 -2.718905 4.792472
v -19.669270 -2.829848 4.819852
v -19.630812 -2.394508 4.792472
v 3.809185 1.442418 -5.035316
v 2.581041 3.652480 2.757021
v 2.559046 3.692061 -4.774021
v 2.585680 3.644131 4.768816
v 3.784010 1.487721 4.904631
v -16.028921 -1.276500 -5.913006
v -16.028921 -1.276151 -6.276274
v 11.836223 -1.276500 -5.913013
v 11.836223 -1.276151 -6.276282
v -16.028921 -0.530059 -5.912289
v -16.028921 -0.529710 -6.275558
v 11.836223 -0.530059 -5.912297
v 11.836223 -0.529710 -6.275565
v -16.028921 -1.276151 -6.276274
v 11.836223 -1.276151 -6.276282
v 11.836223 -0.529710 -6.275565
v -16.028921 -0.529710 -6.275558
v -15.026702 -1.249024 -6.385038
v 10.834004 -1.249024 -6.385045
v -15.026702 -0.556278 -6.384373
v 10.834004 -0.556278 -6.384380
v 11.836223 -1.276500 5.811838
v 11.836223 -1.276151 6.175106
v -16.028921 -1.276500 5.811840
v -16.028921 -1.276151 6.175108
v 11.836223 -0.530059 5.811121
v 11.836223 -0.529710 6.174389
v -16.028921 -0.530059 5.811123
v -16.028921 -0.529710 6.174392
v 11.836223 -1.276151 6.175106
v -16.028921 -1.276151 6.175108
v -16.028921 -0.529710 6.174392
v 11.836223 -0.529710 6.174389
v 10.834004 -1.249024 6.283869
v -15.026702 -1.249024 6.283872
v 10.834004 -0.556277 6.283205
v -15.026702 -0.556277 6.283207
v 5.109053 1.277668 3.602491
v 4.292852 1.348914 4.622226
v 4.177399 1.358992 4.608907
v 5.108692 1.277700 3.045184
v 4.238339 1.353672 3.024920
v 5.112004 1.277411 4.597530
v 6.507857 -3.469463 5.636487
v 3.775505 1.395713 5.190410
v 6.507857 -3.469464 -5.795713
v 3.646061 1.437440 -5.216525
v 6.552722 -3.469567 5.636487
v 3.820371 1.395609 5.190410
v 6.552722 -3.469568 -5.795713
v 3.690927 1.437336 -5.216525
vn 0.1476 0.9890 -0.0000
vn -0.3163 -0.0000 -0.9487
vn -0.3163 -0.0000 0.9487
vn -0.0000 1.0000 -0.0000
vn -1.0000 -0.0000 -0.0000
vn 1.0000 -0.0000 -0.0000
vn -0.0023 -1.0000 -0.0000
vn -0.9927 0.1204 -0.0000
vn -0.9983 0.0575 -0.0000
vn -1.0000 -0.0036 -0.0000
vn -1.0000 -0.0016 -0.0000
vn -1.0000 0.0002 -0.0000
vn -1.0000 -0.0015 -0.0000
vn 0.9838 -0.1795 -0.0000
vn 0.9521 0.3057 -0.0000
vn 0.0870 0.9962 -0.0000
vn 0.8741 0.4857 -0.0000
vn -0.9983 0.0576 -0.0000
vn -0.9927 0.1205 -0.0000
vn -0.9832 0.1827 -0.0000
vn -0.0000 -0.0000 -1.0000
vn -0.0006 0.1896 -0.9819
vn 0.0182 0.3360 -0.9417
vn 0.0528 0.6045 -0.7949
vn 0.0182 0.3362 -0.9416
vn 0.0186 0.3782 -0.9255
vn 0.0186 0.3781 -0.9256
vn 0.0182 0.3361 -0.9417
vn -0.0006 0.1897 -0.9818
vn 0.0051 0.2647 -0.9643
vn -0.0000 0.1719 -0.9851
vn 0.0114 0.1551 -0.9878
vn 0.0051 0.2645 -0.9644
vn 0.0186 0.3780 -0.9256
vn -0.0000 -0.0000 1.0000
vn -0.0005 0.1892 0.9819
vn 0.0182 0.3360 0.9417
vn -0.0005 0.1893 0.9819
vn 0.0182 0.3361 0.9417
vn 0.0188 0.3778 0.9257
vn 0.0183 0.3362 0.9416
vn 0.0528 0.6045 0.7949
vn 0.0052 0.2646 0.9644
vn 0.0052 0.2644 0.9644
vn 0.0188 0.3777 0.9258
vn 0.0115 0.1554 0.9878
vn 0.0115 0.1555 0.9878
vn -0.0000 0.1724 0.9850
vn -0.0000 0.0010 1.0000
vn -0.0000 0.1255 0.9921
vn -0.0001 0.2488 0.9685
vn -0.0000 0.1257 0.9921
vn -0.0001 0.2490 0.9685
vn -0.0002 0.3671 0.9302
vn -0.0002 0.3670 0.9302
vn 0.0052 0.2646 0.9643
vn 0.0021 0.0009 -1.0000
vn 0.0011 -0.0024 -1.0000
vn -0.0000 -0.0056 -1.0000
vn -1.0000 -0.0027 -0.0069
vn -1.0000 -0.0006 -0.0038
vn -1.0000 -0.0014 -0.0056
vn -1.0000 -0.0013 -0.0055
vn -1.0000 -0.0005 -0.0038
vn -1.0000 0.0005 -0.0022
vn -1.0000 0.0010 -0.0000
vn -0.0000 0.1249 -0.9922
vn -0.0001 0.2483 -0.9687
vn 0.0050 0.2647 -0.9643
vn -0.0001 0.2484 -0.9687
vn -0.0002 0.3667 -0.9303
vn -0.0001 0.2484 -0.9686
vn 0.0001 0.1251 -0.9921
vn 0.0027 0.0009 1.0000
vn 0.0014 -0.0032 1.0000
vn 0.0014 -0.0033 1.0000
vn -0.0000 -0.0075 1.0000
vn -1.0000 -0.0027 0.0068
vn -1.0000 -0.0014 0.0056
vn -1.0000 -0.0005 0.0037
vn -1.0000 -0.0013 0.0055
vn -1.0000 0.0005 0.0022
vn -1.0000 -0.0006 0.0037
vn -1.0000 0.0005 0.0021
vn 0.4851 -0.0859 -0.8702
vn 0.4851 -0.0859 0.8702
vn 0.9847 -0.1743 -0.0000
vn -0.4452 0.8954 -0.0000
vn -0.0003 1.0000 -0.0016
vn -0.0002 1.0000 -0.0042
vn -0.0002 1.0000 -0.0043
vn -0.0001 1.0000 -0.0068
vn -0.0003 1.0000 0.0016
vn -0.0002 1.0000 0.0041
vn -0.0002 1.0000 0.0042
vn -0.0001 1.0000 0.0067
vn -0.0774 -0.9970 -0.0000
vn 0.0785 0.9969 -0.0000
vn -0.9961 0.0880 -0.0000
vn 0.0074 0.0398 -0.9992
vn 0.0147 0.0795 -0.9967
vn 0.0066 -0.0005 1.0000
vn 0.0058 0.0309 0.9995
vn 0.0057 0.0309 0.9995
vn 0.0049 0.0623 0.9980
vn 0.8660 -0.0000 0.5000
vn 0.8660 -0.0000 -0.5000
vn -0.8660 -0.0000 -0.5000
vn -0.8660 -0.0000 0.5000
vn 0.8660 0.0002 0.5000
vn -0.0000 -1.0000 -0.0010
vn -0.0000 1.0000 0.0010
vn -0.0000 -0.0010 1.0000
vn -0.0000 -0.9703 -0.2420
vn -0.0000 -0.0000 -0.0000
vn -0.0000 0.0010 -1.0000
vn -0.1079 0.0010 -0.9942
vn 0.1079 0.0010 -0.9942
vn -0.0000 0.9715 -0.2372
vn -0.0000 -1.0000 0.0010
vn -0.0000 1.0000 -0.0010
vn -0.0000 -0.0010 -1.0000
vn -0.0000 -0.9703 0.2420
vn 0.1079 0.0010 0.9942
vn -0.1079 0.0010 0.9942
vn -0.0000 0.9715 0.2372
vn -0.8678 -0.4969 0.0042
vn 0.0003 0.1174 -0.9931
vn 0.8678 0.4969 -0.0042
vn 0.0002 0.0914 0.9958
vn 0.0023 1.0000 0.0040
vt 0.810402 0.371840
vt 0.844699 0.371840
vt 0.827550 0.264380
vt 0.807240 0.374256
vt 0.838270 0.374256
vt 0.822755 0.266795
vt 0.805495 0.376671
vt 0.836059 0.376671
vt 0.820777 0.269211
vt 0.804876 0.374256
vt 0.837540 0.374256
vt 0.821208 0.266795
vt 0.803278 0.376671
vt 0.838275 0.376671
vt 0.820777 0.269211
vt 0.809702 0.371841
vt 0.845399 0.371841
vt 0.827550 0.264380
vt 0.164592 0.212157
vt 0.219935 0.212157
vt 0.164592 0.164538
vt 0.219935 0.164538
vt 0.219935 0.164538
vt 0.164592 0.212157
vt 0.483779 0.199982
vt 0.051535 0.199982
vt 0.501068 0.228855
vt 0.034245 0.228855
vt 0.022759 0.164402
vt 0.510414 0.164402
vt 0.022759 0.211259
vt 0.510414 0.211259
vt 0.529921 0.228410
vt 0.529921 0.164402
vt 0.003253 0.228410
vt 0.003253 0.164402
vt 0.708694 0.003380
vt 0.991789 0.003380
vt 0.708694 0.518359
vt 0.991789 0.518359
vt 0.740212 0.847169
vt 0.460088 0.847169
vt 0.747957 0.824437
vt 0.452342 0.824437
vt 0.747957 0.743186
vt 0.452342 0.743186
vt 0.001262 0.130382
vt 0.433087 0.130382
vt 0.001262 0.005005
vt 0.433087 0.005005
vt 0.022801 0.162152
vt 0.411549 0.162152
vt 0.291957 0.627972
vt 0.291957 0.266348
vt 0.276224 0.286031
vt 0.280227 0.286494
vt 0.278114 0.341495
vt 0.247933 0.340791
vt 0.247920 0.321440
vt 0.002896 0.627972
vt 0.247818 0.286889
vt 0.002896 0.266348
vt 0.769232 0.683711
vt 0.322555 0.683711
vt 0.414761 0.650290
vt 0.762099 0.652543
vt 0.761808 0.524497
vt 0.770272 0.521429
vt 0.334545 0.527075
vt 0.328383 0.649815
vt 0.322877 0.521429
vt 0.002935 0.885210
vt 0.369312 0.885210
vt 0.002299 0.997681
vt 0.369947 0.997681
vt 0.456660 0.728901
vt 0.456686 0.843880
vt 0.978347 0.726605
vt 0.999501 0.843816
vt 0.990070 0.873516
vt 0.697751 0.899319
vt 0.456703 0.876048
vt 0.479388 1.000428
vt 0.642189 1.000428
vt 0.456660 0.728901
vt 0.990070 0.873516
vt 0.456703 0.876048
vt 0.000500 0.728463
vt 0.456422 0.728463
vt 0.000500 0.842613
vt 0.456422 0.842613
vt 0.000500 0.875949
vt 0.456422 0.875948
vt 0.456422 0.727770
vt 0.000500 0.727770
vt 0.290148 0.613581
vt 0.240746 0.613581
vt 0.289626 0.571549
vt 0.289783 0.427623
vt 0.240552 0.426750
vt 0.000500 0.727770
vt 0.000500 0.842613
vt 0.456422 0.727770
vt 0.456422 0.842613
vt 0.456422 0.875948
vt 0.000500 0.875949
vt 0.240857 0.484350
vt 0.238578 0.418026
vt 0.287229 0.481052
vt 0.238578 0.280549
vt 0.287444 0.281648
vt 0.321207 0.511679
vt 0.696384 0.511679
vt 0.321207 0.237650
vt 0.696384 0.237650
vt 0.462525 0.229121
vt 0.455523 0.164329
vt 0.407526 0.229121
vt 0.400524 0.164329
vt 0.400524 0.164329
vt 0.486568 0.213286
vt 0.503857 0.178018
vt 0.054324 0.213286
vt 0.037035 0.178019
vt 0.022759 0.170618
vt 0.022759 0.224406
vt 0.510414 0.170618
vt 0.510414 0.224406
vt 0.938817 0.012259
vt 0.938817 0.464569
vt 0.966813 0.012259
vt 0.966813 0.464569
vt 0.751815 0.325515
vt 0.751815 0.460740
vt 0.776987 0.325515
vt 0.776987 0.460740
vt 0.807371 0.224609
vt 0.807371 0.359833
vt 0.832543 0.224609
vt 0.832543 0.359833
vt 0.938351 0.012259
vt 0.938351 0.464569
vt 0.966348 0.012259
vt 0.966348 0.464569
vt 0.624598 0.469886
vt 0.390310 0.469886
vt 0.624598 0.482567
vt 0.390310 0.482567
vt 0.624598 0.274622
vt 0.624598 0.261941
vt 0.390310 0.274622
vt 0.390310 0.261941
vt 0.997025 0.998390
vt 0.745138 0.998390
vt 0.997025 0.898225
vt 0.745138 0.898225
vt 0.995165 0.897018
vt 0.995165 0.998933
vt 0.743933 0.897018
vt 0.743933 0.998933
vt 0.609049 0.482218
vt 0.609049 0.468897
vt 0.402816 0.482218
vt 0.402816 0.468897
vt 0.997206 0.424778
vt 0.997206 0.170507
vt 0.972664 0.424778
vt 0.972664 0.170507
vt 0.972664 0.170507
vt 0.004992 0.800529
vt 0.977061 0.805659
vt 0.977061 0.831660
vt 0.004992 0.828978
vt 0.982751 0.806119
vt 0.489428 0.788337
vt 0.003688 0.801053
vt 0.483569 0.808257
vt 0.541576 0.892632
vt 0.531420 0.809624
vt 0.437281 0.788337
vt 0.437281 0.840484
vt 0.982391 0.832856
vt 0.003314 0.828780
vt 0.739295 0.148352
vt 0.988273 0.148352
vt 0.988273 0.397330
vt 0.739295 0.397330
vt 0.524748 0.386836
vt 0.456650 0.386836
vt 0.524748 0.454934
vt 0.456650 0.454934
vt 0.524748 0.523031
vt 0.456650 0.523031
vt 0.388552 0.386836
vt 0.388552 0.454934
vt 0.592846 0.386836
vt 0.592846 0.454934
s 0
usemtl CHASSIS.002.Material_#13
f 147/5/2 148/6/2 149/7/2
f 150/8/2 151/9/2 152/10/2
f 153/11/2 154/12/2 155/13/2
f 156/14/2 157/15/2 158/16/2
f 159/17/2 160/18/2 161/19/2
f 162/20/2 163/21/2 164/22/2
f 6/23/3 7/24/3 5/25/3
f 5/25/3 7/24/3 8/26/3
f 10/27/4 11/24/4 9/25/4
f 9/25/4 11/24/4 12/28/4
f 14/29/5 15/30/5 13/31/5
f 13/31/5 15/30/5 16/32/5
f 18/33/6 19/34/6 17/35/6
f 17/35/6 19/34/6 20/36/6
f 22/37/7 23/38/7 21/39/7
f 21/39/7 23/38/7 24/40/7
f 26/41/8 27/42/8 25/43/8
f 25/43/8 27/42/8 28/44/8
f 32/45/9 29/46/10 31/47/11
f 31/47/11 29/46/10 30/48/12
f 31/47/11 30/48/12 34/49/13
f 34/49/13 30/48/14 33/50/13
f 36/51/15 37/52/15 35/53/15
f 35/53/15 37/52/15 38/54/15
f 40/55/16 41/56/16 39/51/16
f 39/51/16 41/56/16 42/52/16
f 44/57/17 45/58/17 247/59/17 248/60/17 250/61/17 249/62/17 246/63/17 43/64/17
f 43/64/17 246/63/17 251/65/17 247/59/17 45/58/17 46/66/17
f 48/67/18 49/68/18 210/69/18 211/70/18 209/71/18 47/72/18
f 47/72/18 209/71/18 213/73/18 212/74/18 210/69/18 49/68/18 50/75/18
f 52/76/19 53/77/20 51/78/21
f 51/78/21 53/77/20 54/79/21
f 57/80/22 55/81/23 56/82/22
f 56/82/22 55/81/23 58/83/24
f 60/84/25 58/83/26 59/85/27
f 59/85/28 58/83/29 55/81/30
f 59/85/28 55/81/30 61/86/31
f 63/87/32 62/88/33 61/86/34
f 61/86/34 62/88/33 59/85/35
f 65/89/36 66/82/36 64/81/37
f 64/81/37 66/82/36 67/83/38
f 64/81/39 67/83/40 69/85/41
f 69/85/41 67/83/42 68/90/43
f 64/81/39 69/85/41 70/91/44
f 70/91/45 69/85/46 71/88/47
f 70/91/45 71/88/48 72/87/49
f 76/92/50 74/93/50 73/94/51
f 73/94/51 74/93/50 75/95/52
f 73/94/53 75/95/54 84/96/55
f 84/96/56 75/95/54 85/97/57
f 79/97/58 77/98/59 78/96/59
f 78/96/59 77/98/59 80/99/60
f 83/100/61 81/101/62 82/102/63
f 82/102/64 81/101/65 86/103/66
f 86/103/66 81/101/62 87/104/67
f 91/105/22 88/106/68 90/107/22
f 90/107/22 88/106/68 89/108/69
f 100/109/70 89/108/71 99/110/72
f 99/110/72 89/108/73 88/106/74
f 93/109/75 94/110/76 92/107/76
f 92/107/77 94/110/77 95/105/78
f 97/111/79 98/112/80 96/113/81
f 96/113/81 98/112/82 101/114/83
f 96/113/84 101/114/85 102/115/67
f 103/116/5 104/117/5 105/118/5
f 105/118/5 104/117/5 106/119/5
f 109/120/86 107/121/86 108/122/86
f 108/122/86 107/121/86 110/123/86
f 113/124/87 111/121/87 112/122/87
f 112/122/87 111/121/87 114/120/87
f 117/125/5 115/126/5 116/127/5
f 116/127/5 115/126/5 118/128/5
f 121/129/88 119/130/88 120/131/88
f 120/131/88 119/130/88 122/132/88
f 165/133/5 166/134/5 167/135/5
f 167/135/5 166/134/5 168/136/5
f 169/137/89 170/138/89 171/139/89
f 171/139/89 170/138/89 172/140/89
f 173/141/89 174/142/89 175/143/89
f 175/143/89 174/142/89 176/144/89
f 177/145/5 178/146/5 179/147/5
f 179/147/5 178/146/5 180/148/5
f 183/149/90 181/150/91 182/151/91
f 182/151/92 181/150/92 184/152/93
f 186/153/94 187/154/95 185/155/95
f 185/155/96 187/154/95 188/156/97
f 190/157/98 191/158/98 189/159/98
f 189/159/98 191/158/98 192/160/98
f 194/161/99 195/162/99 193/163/99
f 193/163/99 195/162/99 196/164/99
f 198/165/100 199/166/100 197/167/100
f 197/167/100 199/166/100 200/168/100
f 201/161/22 202/160/101 203/162/101
f 203/162/101 202/160/101 204/158/102
f 205/159/103 206/163/104 207/157/104
f 207/157/104 206/163/105 208/164/106
f 125/169/107 123/170/108 124/171/22
f 124/171/22 123/170/108 126/172/109
f 124/171/22 126/172/109 127/171/110
f 127/171/110 126/172/109 128/172/36
f 127/171/110 128/172/36 125/169/107
f 125/169/107 128/172/36 123/170/108
f 131/169/107 129/170/108 130/171/22
f 130/171/22 129/170/108 132/172/109
f 130/171/22 132/172/109 133/171/110
f 133/171/110 132/172/109 134/173/36
f 133/171/110 134/173/36 131/169/107
f 131/169/107 134/173/36 129/170/108
f 137/169/107 135/170/108 136/171/22
f 136/171/22 135/170/108 138/172/109
f 136/171/22 138/172/109 139/171/110
f 139/171/110 138/172/109 140/172/36
f 139/171/110 140/172/36 137/169/107
f 137/169/107 140/172/36 135/170/108
f 143/169/107 141/170/108 142/171/22
f 142/171/22 141/170/108 144/172/109
f 142/171/22 144/172/109 145/171/110
f 145/171/110 144/172/109 146/172/36
f 145/171/110 146/172/36 143/169/111
f 143/169/107 146/172/36 141/170/108
f 246/63/17 249/62/17 250/61/17 248/60/17 247/59/17
f 247/59/17 251/65/17 246/63/17
f 252/188/128 253/189/128 255/190/128 254/191/128
f 254/191/129 255/190/129 259/192/129 258/193/129
f 258/193/130 259/192/130 257/194/130 256/195/130
f 256/195/131 257/194/131 253/196/131 252/197/131
f 254/198/8 258/193/8 256/195/8 252/199/8
f 259/192/132 255/200/132 253/201/132 257/194/132
usemtl Material.001
f 214/174/112 222/175/112 223/176/112 216/177/112
f 216/177/7 223/176/7 224/178/7 220/179/7
f 220/179/113 224/178/113 225/180/113 218/181/113
f 218/181/6 225/180/6 222/182/6 214/183/6
f 216/184/114 220/179/114 218/181/114 214/185/114
f 217/186/115 215/187/115 226/187/115 227/186/115
f 215/187/5 217/186/5 223/186/5 222/187/5
f 217/186/116 221/178/116 224/178/116 223/186/116
f 221/178/5 219/180/5 225/180/5 224/178/5
f 219/180/116 215/187/116 222/187/116 225/180/116
f 229/178/117 227/186/117 226/187/117 228/180/117
f 215/187/118 219/180/118 228/180/118 226/187/118
f 221/178/119 217/186/119 227/186/119 229/178/119
f 219/180/120 221/178/120 229/178/120 228/180/120
f 230/174/121 238/175/121 239/176/121 232/177/121
f 232/177/6 239/176/6 240/178/6 236/179/6
f 236/179/122 240/178/122 241/180/122 234/181/122
f 234/181/7 241/180/7 238/182/7 230/183/7
f 232/184/123 236/179/123 234/181/123 230/185/123
f 233/186/124 231/187/124 242/187/124 243/186/124
f 231/187/5 233/186/5 239/186/5 238/187/5
f 233/186/116 237/178/116 240/178/116 239/186/116
f 237/178/5 235/180/5 241/180/5 240/178/5
f 235/180/116 231/187/116 238/187/116 241/180/116
f 245/178/50 243/186/50 242/187/50 244/180/50
f 231/187/125 235/180/125 244/180/125 242/187/125
f 237/178/126 233/186/126 243/186/126 245/178/126
f 235/180/127 237/178/127 245/178/127 244/180/127
