# Blender 5.1.2
# www.blender.org
mtllib V2.mtl
o CHASSIS.004
v -17.695999 -4.115586 -5.779180
v -17.695999 -2.904759 -5.779180
v -16.307108 -2.904759 -6.242229
v -16.307108 -4.115586 -6.242229
v -17.695999 -4.115585 5.797045
v -16.307108 -4.115585 6.260095
v -16.307108 -2.904759 6.260092
v -17.695999 -2.904759 5.797044
v -16.307108 -2.904759 -6.242229
v -17.695999 -2.904759 -5.779180
v -17.695999 -2.904759 5.797044
v -16.307108 -2.904759 6.260092
v -17.695999 -2.904759 -5.779180
v -17.695999 -4.115586 -5.779180
v -17.695999 -4.115585 5.797045
v -17.695999 -2.904759 5.797044
v -16.307108 -2.904759 -6.242229
v -16.307108 -2.904759 6.260092
v -16.307108 -4.115585 6.260095
v -16.307108 -4.115586 -6.242229
v -16.079746 -3.344541 -5.835458
v 11.814982 -3.409276 -5.835458
v 11.814982 -3.409276 5.817046
v -16.079746 -3.344540 5.817046
v -3.106341 0.802982 -5.467134
v -3.101465 -0.102244 -5.835458
v -3.101465 -0.102244 5.817046
v -3.106341 0.802981 5.450521
v -3.102217 -3.344541 -5.835458
v -3.102217 -3.344540 5.817046
v 11.814982 -3.409276 -5.835458
v 12.418208 -0.104050 -5.835458
v 12.418208 -0.104049 5.817046
v 11.814982 -3.409276 5.817046
v 12.418208 -0.104050 -5.835458
v 12.149283 0.733462 -5.216428
v 12.149283 0.733462 5.198015
v 12.418208 -0.104049 5.817046
v 12.149283 0.733462 -5.216428
v 3.813505 1.461081 -5.216428
v 3.813505 1.461081 5.198015
v 12.149283 0.733462 5.198015
v 3.813505 1.461081 -5.216428
v 2.229105 4.312230 -4.854697
v 2.229105 4.312230 4.836283
v 3.813505 1.461081 5.198015
v -2.454103 4.312230 -4.854697
v -3.106341 0.802982 -5.467134
v -3.106341 0.802981 5.450521
v -2.454103 4.312230 4.836283
v -3.101465 -0.102244 -5.835458
v 11.814982 -3.409276 -5.835458
v -3.102217 -3.344541 -5.835458
v 12.418208 -0.104050 -5.835458
v 3.813505 1.461081 -5.216428
v 12.149283 0.733462 -5.216428
v -3.106341 0.802982 -5.467134
v 2.229105 4.312230 -4.854697
v -2.454103 4.312230 -4.854697
v -3.101465 -0.102244 5.817046
v -3.102217 -3.344540 5.817046
v 11.814982 -3.409276 5.817046
v 12.418208 -0.104049 5.817046
v 12.149283 0.733462 5.198015
v 3.813505 1.461081 5.198015
v -3.106341 0.802981 5.450521
v 2.229105 4.312230 4.836283
v -2.454103 4.312230 4.836283
v -16.069345 -0.137992 5.819747
v -3.109013 -3.356882 5.822837
v -3.109012 -0.137992 5.819746
v -16.069347 -3.356882 5.822838
v -3.109012 -3.376424 4.852338
v -16.065094 0.797863 4.828785
v -3.109012 0.802044 4.856163
v -16.069345 -3.376424 4.852340
v -16.065094 0.797863 4.828785
v -16.069345 -0.137992 5.819747
v -16.069345 0.802044 5.446597
v -16.069345 0.802044 5.446597
v -3.106341 0.802981 5.450521
v -16.069347 -3.356882 5.822838
v -16.069345 -3.376424 4.852340
v -16.069347 -0.137991 -5.835455
v -3.109013 -0.137991 -5.835455
v -3.109013 -3.376423 -5.835456
v -16.069347 -3.376423 -5.835456
v -3.109013 -3.376423 -4.868047
v -3.109013 0.802046 -4.871873
v -16.065094 0.797864 -4.836569
v -16.069347 -3.376423 -4.868047
v -16.065094 0.797864 -4.836569
v -16.069347 0.802046 -5.462306
v -16.069347 -0.137991 -5.835455
v -16.069347 0.802046 -5.462306
v -3.106341 0.802982 -5.467134
v -16.069347 -3.376423 -5.835456
v -16.069347 -3.376423 -4.868047
v -15.804799 -2.621827 4.867689
v -3.109013 -2.621827 4.867687
v -15.804797 -2.621349 -4.869609
v -3.109013 -2.621349 -4.869609
v 12.675921 -3.580961 -5.779180
v 12.059707 -2.370135 -6.242229
v 12.890304 -2.370135 -5.779180
v 11.845321 -3.580961 -6.242229
v 12.675921 -3.580961 5.797045
v 12.059707 -2.370134 6.260092
v 11.845321 -3.580961 6.260095
v 12.890304 -2.370134 5.797044
v 12.059707 -2.370135 -6.242229
v 12.890304 -2.370134 5.797044
v 12.890304 -2.370135 -5.779180
v 12.059707 -2.370134 6.260092
v 12.890304 -2.370135 -5.779180
v 12.675921 -3.580961 5.797045
v 12.675921 -3.580961 -5.779180
v 12.890304 -2.370134 5.797044
v 13.996741 -3.550787 2.294826
v 13.452121 2.234165 1.980389
v 13.996741 2.234165 2.294826
v 13.452121 -3.550787 1.980389
v 13.452121 2.234165 2.609263
v 13.452121 -3.550787 2.609263
v 13.996741 -3.550787 4.800501
v 13.452121 2.234165 4.486064
v 13.996741 2.234165 4.800501
v 13.452121 -3.550787 4.486064
v 13.452121 2.234165 5.114938
v 13.452121 -3.550787 5.114938
v 13.996741 -3.550787 -2.215763
v 13.452121 2.234165 -2.530200
v 13.996741 2.234165 -2.215763
v 13.452121 -3.550787 -2.530200
v 13.452121 2.234164 -1.901326
v 13.452121 -3.550787 -1.901326
v 13.996741 -3.550788 -4.862790
v 13.452121 2.234165 -5.177227
v 13.996741 2.234165 -4.862790
v 13.452121 -3.550788 -5.177227
v 13.452121 2.234164 -4.548353
v 13.452121 -3.550788 -4.548353
v 13.633662 1.459515 -5.311821
v 13.633662 1.459515 -4.387375
v 17.644724 0.860962 -4.849601
v 13.633662 -0.933374 1.894870
v 13.633662 -0.933375 2.731272
v 17.644728 -1.531928 2.313067
v 13.633666 1.459516 4.386991
v 13.633666 1.459516 5.210816
v 17.644732 0.860962 4.798900
v 13.633658 -0.933375 -2.661188
v 13.633658 -0.933375 -1.780764
v 17.644724 -1.531928 -2.220979
v 13.633662 -3.506650 4.327249
v 13.633662 -3.506650 5.270560
v 17.644724 -4.105203 4.798901
v 13.633658 -3.506651 -5.330687
v 13.633658 -3.506651 -4.368509
v 17.644720 -4.105203 -4.849601
v 13.446345 2.274647 -5.173275
v 13.446345 2.274647 5.151061
v 14.020919 2.274647 -5.173275
v 14.020919 2.274647 5.151061
v 13.435607 2.274647 2.020109
v 10.660384 0.894842 2.020109
v 13.435607 2.274647 2.594681
v 10.660384 0.894843 2.594681
v 13.435607 2.274647 -2.488561
v 10.660384 0.894842 -2.488561
v 13.435607 2.274647 -1.913989
v 10.660384 0.894843 -1.913990
v 13.436793 -3.517091 -5.173275
v 13.436793 -3.517090 5.151061
v 14.011363 -3.517091 -5.173275
v 14.011363 -3.517090 5.151061
v -16.065094 0.797863 4.828785
v -3.106341 0.802981 5.450521
v -3.109012 0.802044 4.856163
v -16.069345 0.802044 5.446597
v -16.065094 0.797864 -4.836569
v -3.109013 0.802046 -4.871873
v -3.106341 0.802982 -5.467134
v -16.069347 0.802046 -5.462306
v -15.568566 -3.077770 4.801405
v -19.694902 -2.757285 4.828785
v -19.694902 -2.757287 -4.836569
v -15.568566 -3.077770 -4.801265
v -15.534614 -2.646342 4.801405
v -15.534614 -2.646342 -4.801265
v -19.656445 -2.321946 -4.801265
v -19.656445 -2.321944 4.801405
v -19.694902 -2.757287 -4.836569
v -19.694902 -2.757285 4.828785
v -19.656445 -2.321944 4.801405
v -19.656445 -2.321946 -4.801265
v -15.534614 -2.646342 -4.801265
v -15.568566 -3.077770 -4.801265
v -19.656445 -2.321946 -4.801265
v -19.694902 -2.757287 -4.836569
v -15.568566 -3.077770 4.801405
v -15.534614 -2.646342 4.801405
v -19.694902 -2.757285 4.828785
v -19.656445 -2.321944 4.801405
vn 0.1476 0.9890 -0.0000
vn -0.3163 -0.0000 -0.9487
vn -0.3163 -0.0000 0.9487
vn -0.0000 1.0000 -0.0000
vn -1.0000 -0.0000 -0.0000
vn 1.0000 -0.0000 -0.0000
vn -0.0023 -1.0000 -0.0000
vn -0.9927 0.1205 -0.0000
vn -0.9983 0.0575 -0.0000
vn -1.0000 -0.0035 -0.0000
vn -1.0000 -0.0016 -0.0000
vn -1.0000 -0.0036 -0.0000
vn -1.0000 0.0002 -0.0000
vn 0.9838 -0.1795 -0.0000
vn 0.9521 0.3057 -0.0000
vn 0.0870 0.9962 -0.0000
vn 0.8741 0.4857 -0.0000
vn -0.9983 0.0576 -0.0000
vn -0.9832 0.1827 -0.0000
vn -0.0000 -0.0000 -1.0000
vn -0.0006 0.1896 -0.9819
vn 0.0182 0.3360 -0.9417
vn 0.0528 0.6045 -0.7949
vn 0.0182 0.3361 -0.9416
vn 0.0186 0.3782 -0.9255
vn 0.0186 0.3781 -0.9256
vn 0.0182 0.3361 -0.9417
vn -0.0006 0.1897 -0.9818
vn 0.0051 0.2646 -0.9643
vn -0.0000 0.1719 -0.9851
vn 0.0114 0.1551 -0.9878
vn 0.0051 0.2646 -0.9644
vn 0.0051 0.2645 -0.9644
vn -0.0000 -0.0000 1.0000
vn -0.0005 0.1892 0.9819
vn 0.0182 0.3360 0.9417
vn -0.0005 0.1893 0.9819
vn 0.0182 0.3361 0.9417
vn 0.0188 0.3778 0.9257
vn 0.0183 0.3361 0.9416
vn 0.0528 0.6045 0.7949
vn 0.0052 0.2645 0.9644
vn 0.0188 0.3777 0.9257
vn 0.0115 0.1554 0.9878
vn 0.0115 0.1555 0.9878
vn -0.0000 0.1724 0.9850
vn -0.0000 0.0010 1.0000
vn -0.0000 0.1256 0.9921
vn -0.0001 0.2489 0.9685
vn -0.0001 0.2490 0.9685
vn -0.0002 0.3671 0.9302
vn 0.0052 0.2646 0.9644
vn 0.0021 0.0009 -1.0000
vn 0.0011 -0.0024 -1.0000
vn -0.0000 -0.0056 -1.0000
vn -1.0000 -0.0027 -0.0069
vn -1.0000 -0.0006 -0.0037
vn -1.0000 -0.0014 -0.0056
vn -1.0000 0.0005 -0.0022
vn -1.0000 -0.0006 -0.0038
vn -1.0000 0.0010 -0.0000
vn -0.0000 0.1249 -0.9922
vn -0.0001 0.2483 -0.9687
vn 0.0050 0.2646 -0.9643
vn -0.0001 0.2484 -0.9687
vn -0.0002 0.3668 -0.9303
vn -0.0002 0.3667 -0.9303
vn -0.0000 0.1250 -0.9922
vn 0.0027 0.0009 1.0000
vn 0.0014 -0.0033 1.0000
vn -0.0000 -0.0075 1.0000
vn -1.0000 -0.0027 0.0068
vn -1.0000 -0.0014 0.0056
vn -1.0000 -0.0005 0.0037
vn -1.0000 -0.0013 0.0055
vn -1.0000 0.0005 0.0021
vn -1.0000 -0.0006 0.0037
vn 0.4851 -0.0859 -0.8702
vn 0.4851 -0.0859 0.8702
vn 0.9847 -0.1743 -0.0000
vn -0.4452 0.8954 -0.0000
vn -0.0003 1.0000 -0.0016
vn -0.0002 1.0000 -0.0042
vn -0.0001 1.0000 -0.0068
vn -0.0003 1.0000 0.0016
vn -0.0002 1.0000 0.0042
vn -0.0002 1.0000 0.0041
vn -0.0001 1.0000 0.0067
vn -0.0774 -0.9970 -0.0000
vn 0.0785 0.9969 -0.0000
vn -0.9961 0.0880 -0.0000
vn 0.0074 0.0398 -0.9992
vn 0.0147 0.0795 -0.9967
vn 0.0066 -0.0005 1.0000
vn 0.0058 0.0309 0.9995
vn 0.0057 0.0309 0.9995
vn 0.0049 0.0623 0.9980
vn 0.8660 -0.0000 0.5000
vn 0.8660 -0.0000 -0.5000
vn -0.8660 -0.0000 -0.5000
vn -0.8660 -0.0000 0.5000
vt 0.810402 0.371840
vt 0.844699 0.371840
vt 0.827550 0.264380
vt 0.807240 0.374256
vt 0.838270 0.374256
vt 0.822755 0.266795
vt 0.805495 0.376671
vt 0.836059 0.376671
vt 0.820777 0.269211
vt 0.804876 0.374256
vt 0.837540 0.374256
vt 0.821208 0.266795
vt 0.803278 0.376671
vt 0.838275 0.376671
vt 0.820777 0.269211
vt 0.809702 0.371841
vt 0.845399 0.371841
vt 0.827550 0.264380
vt 0.164592 0.212157
vt 0.219935 0.212157
vt 0.164592 0.164538
vt 0.219935 0.164538
vt 0.219935 0.164538
vt 0.164592 0.212157
vt 0.483779 0.199982
vt 0.051535 0.199982
vt 0.501068 0.228855
vt 0.034245 0.228855
vt 0.022759 0.164402
vt 0.510414 0.164402
vt 0.022759 0.211259
vt 0.510414 0.211259
vt 0.529921 0.228410
vt 0.529921 0.164402
vt 0.003253 0.228410
vt 0.003253 0.164402
vt 0.708694 0.003380
vt 0.991789 0.003380
vt 0.708694 0.518359
vt 0.991789 0.518359
vt 0.740212 0.847169
vt 0.460088 0.847169
vt 0.747957 0.824437
vt 0.452342 0.824437
vt 0.747957 0.743186
vt 0.452342 0.743186
vt 0.001262 0.130382
vt 0.433087 0.130382
vt 0.001262 0.005005
vt 0.433087 0.005005
vt 0.022801 0.162152
vt 0.411549 0.162152
vt 0.291957 0.627972
vt 0.291957 0.266348
vt 0.002896 0.627972
vt 0.002896 0.266348
vt 0.769232 0.683711
vt 0.322555 0.683711
vt 0.770272 0.521429
vt 0.322877 0.521429
vt 0.002935 0.885210
vt 0.369312 0.885210
vt 0.002299 0.997681
vt 0.369947 0.997681
vt 0.456660 0.728901
vt 0.456686 0.843880
vt 0.978347 0.726605
vt 0.999501 0.843816
vt 0.990070 0.873516
vt 0.697751 0.899319
vt 0.456703 0.876048
vt 0.479388 1.000428
vt 0.642189 1.000428
vt 0.456660 0.728901
vt 0.990070 0.873516
vt 0.456703 0.876048
vt 0.000500 0.728463
vt 0.456422 0.728463
vt 0.000500 0.842613
vt 0.456422 0.842613
vt 0.000500 0.875949
vt 0.456422 0.875948
vt 0.456422 0.727770
vt 0.000500 0.727770
vt 0.290148 0.613581
vt 0.240746 0.613581
vt 0.289626 0.571549
vt 0.289783 0.427623
vt 0.240552 0.426750
vt 0.000500 0.727770
vt 0.000500 0.842613
vt 0.456422 0.727770
vt 0.456422 0.842613
vt 0.456422 0.875948
vt 0.000500 0.875949
vt 0.240857 0.484350
vt 0.238578 0.418026
vt 0.287229 0.481052
vt 0.238578 0.280549
vt 0.287444 0.281648
vt 0.321207 0.511679
vt 0.696384 0.511679
vt 0.321207 0.237650
vt 0.696384 0.237650
vt 0.462525 0.229121
vt 0.455523 0.164329
vt 0.407526 0.229121
vt 0.400524 0.164329
vt 0.400524 0.164329
vt 0.486568 0.213286
vt 0.503857 0.178018
vt 0.054324 0.213286
vt 0.037035 0.178019
vt 0.022759 0.170618
vt 0.022759 0.224406
vt 0.510414 0.170618
vt 0.510414 0.224406
vt 0.938817 0.012259
vt 0.938817 0.464569
vt 0.966813 0.012259
vt 0.966813 0.464569
vt 0.751815 0.325515
vt 0.751815 0.460740
vt 0.776987 0.325515
vt 0.776987 0.460740
vt 0.807371 0.224609
vt 0.807371 0.359833
vt 0.832543 0.224609
vt 0.832543 0.359833
vt 0.938351 0.012259
vt 0.938351 0.464569
vt 0.966348 0.012259
vt 0.966348 0.464569
vt 0.624598 0.469886
vt 0.390310 0.469886
vt 0.624598 0.482567
vt 0.390310 0.482567
vt 0.624598 0.274622
vt 0.624598 0.261941
vt 0.390310 0.274622
vt 0.390310 0.261941
vt 0.997025 0.998390
vt 0.745138 0.998390
vt 0.997025 0.898225
vt 0.745138 0.898225
vt 0.995165 0.897018
vt 0.995165 0.998933
vt 0.743933 0.897018
vt 0.743933 0.998933
vt 0.609049 0.482218
vt 0.609049 0.468897
vt 0.402816 0.482218
vt 0.402816 0.468897
vt 0.997206 0.424778
vt 0.997206 0.170507
vt 0.972664 0.424778
vt 0.972664 0.170507
vt 0.972664 0.170507
s 0
usemtl CHASSIS.004.Material_#13
f 143/1/1 144/2/1 145/3/1
f 146/4/1 147/5/1 148/6/1
f 149/7/1 150/8/1 151/9/1
f 152/10/1 153/11/1 154/12/1
f 155/13/1 156/14/1 157/15/1
f 158/16/1 159/17/1 160/18/1
f 2/19/2 3/20/2 1/21/2
f 1/21/2 3/20/2 4/22/2
f 6/23/3 7/20/3 5/21/3
f 5/21/3 7/20/3 8/24/3
f 10/25/4 11/26/4 9/27/4
f 9/27/4 11/26/4 12/28/4
f 14/29/5 15/30/5 13/31/5
f 13/31/5 15/30/5 16/32/5
f 18/33/6 19/34/6 17/35/6
f 17/35/6 19/34/6 20/36/6
f 22/37/7 23/38/7 21/39/7
f 21/39/7 23/38/7 24/40/7
f 28/41/8 25/42/9 27/43/10
f 27/43/10 25/42/9 26/44/11
f 27/43/12 26/44/11 30/45/13
f 30/45/13 26/44/11 29/46/13
f 32/47/14 33/48/14 31/49/14
f 31/49/14 33/48/14 34/50/14
f 36/51/15 37/52/15 35/47/15
f 35/47/15 37/52/15 38/48/15
f 40/53/16 41/54/16 39/55/16
f 39/55/16 41/54/16 42/56/16
f 44/57/17 45/58/17 43/59/17
f 43/59/17 45/58/17 46/60/17
f 48/61/18 49/62/8 47/63/19
f 47/63/19 49/62/8 50/64/19
f 53/65/20 51/66/21 52/67/20
f 52/67/20 51/66/21 54/68/22
f 56/69/23 54/68/24 55/70/25
f 55/70/26 54/68/27 51/66/28
f 55/70/26 51/66/28 57/71/29
f 59/72/30 58/73/31 57/71/32
f 57/71/33 58/73/31 55/70/26
f 61/74/34 62/67/34 60/66/35
f 60/66/35 62/67/34 63/68/36
f 60/66/37 63/68/38 65/70/39
f 65/70/39 63/68/40 64/75/41
f 60/66/37 65/70/39 66/76/42
f 66/76/42 65/70/43 67/73/44
f 66/76/42 67/73/45 68/72/46
f 72/77/47 70/78/47 69/79/48
f 69/79/48 70/78/47 71/80/49
f 69/79/48 71/80/50 80/81/51
f 80/81/51 71/80/49 81/82/52
f 75/82/53 73/83/54 74/81/54
f 74/81/54 73/83/54 76/84/55
f 79/85/56 77/86/57 78/87/58
f 78/87/58 77/86/57 82/88/59
f 82/88/59 77/86/60 83/89/61
f 87/90/20 84/91/62 86/92/20
f 86/92/20 84/91/62 85/93/63
f 96/94/64 85/93/65 95/95/66
f 95/95/67 85/93/65 84/91/68
f 89/94/69 90/95/70 88/92/70
f 88/92/70 90/95/70 91/90/71
f 93/96/72 94/97/73 92/98/74
f 92/98/74 94/97/75 97/99/76
f 92/98/77 97/99/76 98/100/61
f 99/101/4 100/102/4 101/103/4
f 101/103/4 100/102/4 102/104/4
f 105/105/78 103/106/78 104/107/78
f 104/107/78 103/106/78 106/108/78
f 109/109/79 107/106/79 108/107/79
f 108/107/79 107/106/79 110/105/79
f 113/110/4 111/111/4 112/112/4
f 112/112/4 111/111/4 114/113/4
f 117/114/80 115/115/80 116/116/80
f 116/116/80 115/115/80 118/117/80
f 161/118/4 162/119/4 163/120/4
f 163/120/4 162/119/4 164/121/4
f 165/122/81 166/123/81 167/124/81
f 167/124/81 166/123/81 168/125/81
f 169/126/81 170/127/81 171/128/81
f 171/128/81 170/127/81 172/129/81
f 173/130/4 174/131/4 175/132/4
f 175/132/4 174/131/4 176/133/4
f 179/134/82 177/135/83 178/136/83
f 178/136/83 177/135/83 180/137/84
f 182/138/85 183/139/86 181/140/86
f 181/140/87 183/139/87 184/141/88
f 186/142/89 187/143/89 185/144/89
f 185/144/89 187/143/89 188/145/89
f 190/146/90 191/147/90 189/148/90
f 189/148/90 191/147/90 192/149/90
f 194/150/91 195/151/91 193/152/91
f 193/152/91 195/151/91 196/153/91
f 197/146/20 198/145/92 199/147/92
f 199/147/92 198/145/92 200/143/93
f 201/144/94 202/148/95 203/142/95
f 203/142/95 202/148/96 204/149/97
f 121/154/98 119/155/99 120/156/20
f 120/156/20 119/155/99 122/157/100
f 120/156/20 122/157/100 123/156/101
f 123/156/101 122/157/100 124/157/34
f 123/156/101 124/157/34 121/154/98
f 121/154/98 124/157/34 119/155/99
f 127/154/98 125/155/99 126/156/20
f 126/156/20 125/155/99 128/157/100
f 126/156/20 128/157/100 129/156/101
f 129/156/101 128/157/100 130/158/34
f 129/156/101 130/158/34 127/154/98
f 127/154/98 130/158/34 125/155/99
f 133/154/98 131/155/99 132/156/20
f 132/156/20 131/155/99 134/157/100
f 132/156/20 134/157/100 135/156/101
f 135/156/101 134/157/100 136/157/34
f 135/156/101 136/157/34 133/154/98
f 133/154/98 136/157/34 131/155/99
f 139/154/98 137/155/99 138/156/20
f 138/156/20 137/155/99 140/157/100
f 138/156/20 140/157/100 141/156/101
f 141/156/101 140/157/100 142/157/34
f 141/156/101 142/157/34 139/154/98
f 139/154/98 142/157/34 137/155/99
o m2
v -2.459732 4.240678 -4.845490
v -2.459732 4.240678 4.845490
v 2.223476 4.240678 4.845490
v 2.223476 4.240678 -4.845490
vn -0.0000 1.0000 -0.0000
vt 0.994994 0.487815
vt 0.501941 0.487815
vt 0.994994 0.733308
vt 0.501941 0.733308
s 0
usemtl HOUSECOLOR01.002.Material_#4
f 207/159/102 208/160/102 206/161/102
f 206/161/102 208/160/102 205/162/102
