# Blender 5.1.2
# www.blender.org
mtllib v1.mtl
o m1
v -0.121806 3.853219 8.273807
v -7.769572 3.815416 8.220963
v 0.996093 3.290728 9.783907
v -8.342325 3.245310 9.719048
v -14.467569 -0.147126 2.370055
v -8.342325 3.245310 9.719048
v -12.200888 1.362035 2.791651
v -7.769572 3.815416 8.220963
v -0.022628 1.396751 2.842616
v -0.121806 3.853219 8.273807
v 1.133113 -0.101774 2.279753
v 0.996093 3.290728 9.783907
v -0.121806 3.853218 -8.273808
v 0.996093 3.290726 -9.783908
v -7.769571 3.815413 -8.220963
v -8.342325 3.245308 -9.719048
v -14.467569 -0.147127 -2.370054
v -12.200888 1.362034 -2.791651
v -8.342325 3.245308 -9.719048
v -7.769571 3.815413 -8.220963
v -0.022628 1.396750 -2.842616
v 1.133113 -0.101774 -2.279753
v -0.121806 3.853218 -8.273808
v 0.996093 3.290726 -9.783908
vn -0.0071 0.9354 0.3536
vn -0.2031 0.9384 0.2796
vn -0.0070 0.9355 0.3533
vn -0.3973 0.8983 0.1878
vn -0.5635 0.8211 0.0907
vn -0.3973 0.8983 0.1877
vn -0.5658 0.8194 0.0924
vn -0.5657 0.8194 0.0924
vn -0.2032 0.9384 0.2796
vn 0.7060 0.6501 -0.2811
vn 0.7063 0.6498 -0.2809
vn -0.0071 0.9354 -0.3536
vn -0.2031 0.9384 -0.2796
vn -0.0070 0.9355 -0.3533
vn -0.3972 0.8983 -0.1878
vn -0.5635 0.8211 -0.0907
vn -0.5658 0.8194 -0.0924
vn -0.3973 0.8983 -0.1877
vn -0.5657 0.8194 -0.0924
vn -0.2032 0.9384 -0.2795
vn 0.7060 0.6501 0.2811
vn 0.7063 0.6498 0.2809
vt 0.306519 0.286350
vt 0.434895 0.287024
vt 0.278679 0.219595
vt 0.434855 0.220474
vt 0.105539 0.219966
vt 0.246999 0.219492
vt 0.142636 0.284794
vt 0.246987 0.285597
vt 0.779867 0.285659
vt 0.631987 0.285805
vt 0.835182 0.223528
vt 0.631868 0.221578
s 0
usemtl BOB.Mtl_#10
f 1/1/1 2/2/2 3/3/1
f 3/3/3 2/2/2 4/4/4
f 5/5/5 6/6/6 7/7/7
f 7/7/8 6/6/6 8/8/9
f 9/9/10 10/10/10 11/11/10
f 11/11/11 10/10/11 12/12/11
f 13/1/12 14/3/12 15/2/13
f 15/2/13 14/3/14 16/4/15
f 17/5/16 18/7/17 19/6/18
f 19/6/18 18/7/19 20/8/20
f 21/9/21 22/11/21 23/10/21
f 23/10/22 22/11/22 24/12/22
o m3
v -8.060515 9.306252 2.386277
v -8.060515 9.306252 -2.382453
v -12.369523 9.306251 2.386277
v -12.369524 9.306252 -2.382453
v -0.478433 2.975019 -3.544066
v -8.060515 9.306252 -2.382453
v -0.478432 2.975018 3.547891
v -8.060515 9.306252 2.386277
v -1.026402 2.857481 5.884875
v -1.921213 6.169432 4.784809
v -7.862306 2.857481 5.884875
v -6.819945 6.169432 4.784809
v -0.478432 2.975018 3.547891
v -8.060515 9.306252 2.386277
v -14.846753 2.975016 3.547892
v -12.369523 9.306251 2.386277
v -14.846753 2.975018 -3.544066
v -12.369524 9.306252 -2.382453
v -0.478433 2.975019 -3.544066
v -8.060515 9.306252 -2.382453
v -14.846753 2.975016 3.547892
v -12.369523 9.306251 2.386277
v -14.846753 2.975018 -3.544066
v -12.369524 9.306252 -2.382453
v -1.921213 6.169432 4.784809
v -1.921214 6.169434 -4.780986
v -6.819945 6.169432 4.784809
v -6.819946 6.169432 -4.780986
v -1.026402 2.857483 -5.881052
v -1.921214 6.169434 -4.780986
v -1.026402 2.857481 5.884875
v -1.921213 6.169432 4.784809
v -7.862307 2.857481 -5.881052
v -6.819946 6.169432 -4.780986
v -1.026402 2.857483 -5.881052
v -1.921214 6.169434 -4.780986
v -7.862306 2.857481 5.884875
v -6.819945 6.169432 4.784809
v -7.862307 2.857481 -5.881052
v -6.819946 6.169432 -4.780986
v -10.120041 11.666486 2.787561
v -7.770078 11.666487 1.379159
v -12.569570 11.666487 1.436482
v -7.770078 11.666488 -1.394618
v -12.569570 11.666487 -1.415299
v -10.120041 11.666487 -2.749472
v -10.120040 9.611629 2.986648
v -10.120041 11.666486 2.787561
v -12.767926 9.611629 1.488440
v -12.569570 11.666487 1.436482
v -7.571469 9.611630 -1.447389
v -7.770078 11.666488 -1.394618
v -7.571469 9.611629 1.493682
v -7.770078 11.666487 1.379159
v -7.571469 9.611629 1.493682
v -7.770078 11.666487 1.379159
v -10.120040 9.611629 2.986648
v -10.120041 11.666486 2.787561
v -10.120040 9.611629 -2.947744
v -10.120041 11.666487 -2.749472
v -7.571469 9.611630 -1.447389
v -7.770078 11.666488 -1.394618
v -12.767926 9.611629 1.488440
v -12.569570 11.666487 1.436482
v -12.767926 9.611629 -1.529877
v -12.569570 11.666487 -1.415299
v -12.767926 9.611629 -1.529877
v -12.569570 11.666487 -1.415299
v -10.120040 9.611629 -2.947744
v -10.120041 11.666487 -2.749472
v -9.309643 14.114433 0.835246
v -9.309644 14.114433 -0.831421
v -10.976310 14.114433 0.835246
v -10.976310 14.114433 -0.831421
v -8.942976 11.480856 1.201913
v -9.309643 14.114433 0.835246
v -11.342977 11.480856 1.201913
v -10.976310 14.114433 0.835246
v -8.942976 11.480856 -1.198087
v -9.309644 14.114433 -0.831421
v -8.942976 11.480856 1.201913
v -9.309643 14.114433 0.835246
v -11.342977 11.480856 -1.198087
v -10.976310 14.114433 -0.831421
v -8.942976 11.480856 -1.198087
v -9.309644 14.114433 -0.831421
v -11.342977 11.480856 1.201913
v -10.976310 14.114433 0.835246
v -11.342977 11.480856 -1.198087
v -10.976310 14.114433 -0.831421
v -10.146026 13.967076 -0.301589
v -10.449526 13.967076 0.001911
v -10.146028 25.325859 0.001912
v -10.449526 13.967076 0.001911
v -10.146026 13.967076 0.305412
v -10.146028 25.325859 0.001912
v -10.146026 13.967076 -0.301589
v -10.146028 25.325859 0.001912
v -9.842525 13.967076 0.001911
v -10.146026 13.967076 0.305412
v -4.318358 11.876699 -1.794965
v -4.318358 11.876606 1.801084
v -5.322747 11.501404 -1.159750
v -5.322746 11.501403 1.181114
v -6.681197 11.124297 -0.638903
v -6.681196 11.117945 0.692005
v -7.907969 11.098368 -0.461488
v -7.907969 11.098368 0.471738
v -4.318358 9.089786 1.801084
v -5.322745 9.579951 1.181114
v -4.318358 11.876606 1.801084
v -5.322746 11.501403 1.181114
v -6.681196 10.112367 0.692005
v -6.681196 11.117945 0.692005
v -7.907969 11.098368 0.471738
v -7.908982 10.261482 0.471738
v -4.318358 9.089786 -1.794965
v -4.318358 11.876699 -1.794965
v -5.322745 9.579952 -1.159750
v -5.322747 11.501404 -1.159750
v -6.681184 10.097368 -0.638903
v -6.681197 11.124297 -0.638903
v -7.908982 10.261482 -0.461488
v -7.907969 11.098368 -0.461488
v -4.318358 9.089786 -1.794965
v -5.322745 9.579952 -1.159750
v -4.318358 9.089786 1.801084
v -5.322745 9.579951 1.181114
v -6.681184 10.097368 -0.638903
v -6.681196 10.112367 0.692005
v -7.908982 10.261482 0.471738
v -7.908982 10.261482 -0.461488
v -4.318246 12.240623 -2.159141
v -5.322747 11.600946 -1.334702
v -4.318246 12.240622 2.172113
v -5.322746 11.600945 1.347665
v -6.681197 11.239987 -0.755984
v -6.681196 11.239987 0.768946
v -7.907969 11.147935 0.513798
v -7.907969 11.147935 -0.500835
v -4.318215 8.724623 2.172114
v -4.318246 12.240622 2.172113
v -5.322745 9.466001 1.347665
v -5.322746 11.600945 1.347665
v -6.681184 9.972174 0.768946
v -6.681196 11.239987 0.768946
v -7.908982 10.218063 0.513798
v -7.907969 11.147935 0.513798
v -4.318216 8.724623 -2.159141
v -4.318215 8.724623 2.172114
v -5.322745 9.466000 -1.334702
v -5.322745 9.466001 1.347665
v -6.681184 9.972174 -0.755984
v -6.681184 9.972174 0.768946
v -7.908982 10.218063 -0.500835
v -7.908982 10.218063 0.513798
v -4.318216 8.724623 -2.159141
v -5.322745 9.466000 -1.334702
v -4.318246 12.240623 -2.159141
v -5.322747 11.600946 -1.334702
v -6.681184 9.972174 -0.755984
v -6.681197 11.239987 -0.755984
v -7.907969 11.147935 -0.500835
v -7.908982 10.218063 -0.500835
v -4.318358 11.876699 -1.794965
v -4.318246 12.240623 -2.159141
v -4.318358 11.876606 1.801084
v -4.318216 8.724623 -2.159141
v -4.318358 9.089786 -1.794965
v -4.318215 8.724623 2.172114
v -4.318358 11.876606 1.801084
v -4.318246 12.240622 2.172113
v -4.318358 9.089786 1.801084
v -4.318246 12.240623 -2.159141
v -4.318358 11.876699 -1.794965
v -4.318216 8.724623 -2.159141
v -4.318358 9.089786 1.801084
v -4.318358 9.089786 -1.794965
v -4.318246 12.240622 2.172113
v -4.318215 8.724623 2.172114
v -14.655995 11.876699 -4.173471
v -11.541724 11.876606 -5.971496
v -13.603688 11.501404 -3.621253
v -11.576440 11.501403 -4.791686
v -12.473395 11.124297 -2.705225
v -11.320796 11.117945 -3.370679
v -11.706364 11.098368 -1.731516
v -10.898167 11.098368 -2.198129
v -11.541724 9.089786 -5.971496
v -11.576441 9.579951 -4.791687
v -11.541724 11.876606 -5.971496
v -11.576440 11.501403 -4.791686
v -11.320796 10.112367 -3.370679
v -11.320796 11.117945 -3.370679
v -10.898167 11.098368 -2.198129
v -10.897660 10.261482 -2.197252
v -14.655995 9.089786 -4.173471
v -14.655995 11.876699 -4.173471
v -13.603688 9.579952 -3.621255
v -13.603688 11.501404 -3.621253
v -12.473402 10.097368 -2.705236
v -12.473395 11.124297 -2.705225
v -11.705857 10.261482 -1.730639
v -11.706364 11.098368 -1.731516
v -14.655995 9.089786 -4.173471
v -13.603688 9.579952 -3.621255
v -11.541724 9.089786 -5.971496
v -11.576441 9.579951 -4.791687
v -12.473402 10.097368 -2.705236
v -11.320796 10.112367 -3.370679
v -10.897660 10.261482 -2.197252
v -11.705857 10.261482 -1.730639
v -14.971437 12.240623 -3.991481
v -13.755200 11.600946 -3.533777
v -11.220460 12.240622 -6.157109
v -11.432203 11.600945 -4.874961
v -12.574791 11.239987 -2.646684
v -11.254163 11.239987 -3.409149
v -10.861741 11.147935 -2.219159
v -11.740439 11.147935 -1.711842
v -11.220475 8.724623 -6.157135
v -11.220460 12.240622 -6.157109
v -11.432203 9.466001 -4.874962
v -11.432203 11.600945 -4.874961
v -11.254169 9.972174 -3.409161
v -11.254163 11.239987 -3.409149
v -10.861235 10.218063 -2.218282
v -10.861741 11.147935 -2.219159
v -14.971452 8.724623 -3.991507
v -11.220475 8.724623 -6.157135
v -13.755202 9.466000 -3.533779
v -11.432203 9.466001 -4.874962
v -12.574798 9.972174 -2.646696
v -11.254169 9.972174 -3.409161
v -11.739933 10.218063 -1.710965
v -10.861235 10.218063 -2.218282
v -14.971452 8.724623 -3.991507
v -13.755202 9.466000 -3.533779
v -14.971437 12.240623 -3.991481
v -13.755200 11.600946 -3.533777
v -12.574798 9.972174 -2.646696
v -12.574791 11.239987 -2.646684
v -11.740439 11.147935 -1.711842
v -11.739933 10.218063 -1.710965
v -14.655995 11.876699 -4.173471
v -14.971437 12.240623 -3.991481
v -11.541724 11.876606 -5.971496
v -14.971452 8.724623 -3.991507
v -14.655995 9.089786 -4.173471
v -11.220475 8.724623 -6.157135
v -11.541724 11.876606 -5.971496
v -11.220460 12.240622 -6.157109
v -11.541724 9.089786 -5.971496
v -14.971437 12.240623 -3.991481
v -14.655995 11.876699 -4.173471
v -14.971452 8.724623 -3.991507
v -11.541724 9.089786 -5.971496
v -14.655995 9.089786 -4.173471
v -11.220460 12.240622 -6.157109
v -11.220475 8.724623 -6.157135
v -11.547023 11.876699 5.968437
v -14.661292 11.876606 4.170413
v -11.594941 11.501404 4.781003
v -13.622190 11.501403 3.610572
v -11.366783 11.124297 3.344128
v -12.519382 11.117945 2.678674
v -10.907043 11.098368 2.193004
v -11.715240 11.098368 1.726391
v -14.661292 9.089786 4.170413
v -13.622190 9.579951 3.610573
v -14.661292 11.876606 4.170413
v -13.622190 11.501403 3.610572
v -12.519383 10.112367 2.678674
v -12.519382 11.117945 2.678674
v -11.715240 11.098368 1.726391
v -11.714734 10.261482 1.725514
v -11.547023 9.089786 5.968437
v -11.547023 11.876699 5.968437
v -11.594942 9.579952 4.781005
v -11.594941 11.501404 4.781003
v -11.366790 10.097368 3.344139
v -11.366783 11.124297 3.344128
v -10.906536 10.261482 2.192127
v -10.907043 11.098368 2.193004
v -11.547023 9.089786 5.968437
v -11.594942 9.579952 4.781005
v -14.661292 9.089786 4.170413
v -13.622190 9.579951 3.610573
v -11.366790 10.097368 3.344139
v -12.519383 10.112367 2.678674
v -11.714734 10.261482 1.725514
v -10.906536 10.261482 2.192127
v -11.231693 12.240623 6.150622
v -11.443428 11.600946 4.868480
v -14.982671 12.240622 3.984996
v -13.766427 11.600945 3.527297
v -11.265388 11.239987 3.402668
v -12.586017 11.239987 2.640203
v -11.751665 11.147935 1.705361
v -10.872967 11.147935 2.212678
v -14.982686 8.724623 3.985022
v -14.982671 12.240622 3.984996
v -13.766427 9.466001 3.527298
v -13.766427 11.600945 3.527297
v -12.586022 9.972174 2.640215
v -12.586017 11.239987 2.640203
v -11.751159 10.218063 1.704484
v -11.751665 11.147935 1.705361
v -11.231709 8.724623 6.150648
v -14.982686 8.724623 3.985022
v -11.443429 9.466000 4.868481
v -13.766427 9.466001 3.527298
v -11.265395 9.972174 3.402679
v -12.586022 9.972174 2.640215
v -10.872460 10.218063 2.211801
v -11.751159 10.218063 1.704484
v -11.231709 8.724623 6.150648
v -11.443429 9.466000 4.868481
v -11.231693 12.240623 6.150622
v -11.443428 11.600946 4.868480
v -11.265395 9.972174 3.402679
v -11.265388 11.239987 3.402668
v -10.872967 11.147935 2.212678
v -10.872460 10.218063 2.211801
v -11.547023 11.876699 5.968437
v -11.231693 12.240623 6.150622
v -14.661292 11.876606 4.170413
v -11.231709 8.724623 6.150648
v -11.547023 9.089786 5.968437
v -14.982686 8.724623 3.985022
v -14.661292 11.876606 4.170413
v -14.982671 12.240622 3.984996
v -14.661292 9.089786 4.170413
v -11.231693 12.240623 6.150622
v -11.547023 11.876699 5.968437
v -11.231709 8.724623 6.150648
v -14.661292 9.089786 4.170413
v -11.547023 9.089786 5.968437
v -14.982671 12.240622 3.984996
v -14.982686 8.724623 3.985022
vn 0.0001 0.0267 -0.9996
vn -0.9996 0.0267 0.0001
vn -0.9996 0.0267 -0.0001
vn 0.0001 0.0267 0.9996
vn 0.3409 0.9401 -0.0000
vn -0.0000 1.0000 -0.0000
vn 0.6410 0.7676 -0.0000
vn -0.0000 0.3152 0.9490
vn -0.0000 0.1805 0.9836
vn -0.0000 0.1805 -0.9836
vn -0.9313 0.3644 -0.0000
vn 0.9654 0.2608 -0.0000
vn -0.0000 0.3152 -0.9490
vn -0.9539 0.3002 -0.0000
vn -0.4907 0.0840 0.8673
vn -0.4863 0.0763 0.8705
vn -0.4818 0.0686 0.8736
vn 0.9954 0.0962 -0.0000
vn 0.5031 0.0965 0.8588
vn 0.5077 0.0897 0.8568
vn 0.5123 0.0828 0.8548
vn 0.5056 0.0829 -0.8588
vn 0.5019 0.0766 -0.8615
vn 0.4982 0.0703 -0.8642
vn -0.9954 0.0961 -0.0000
vn -0.4700 0.0943 -0.8776
vn -0.4733 0.0894 -0.8764
vn -0.4766 0.0844 -0.8751
vn -0.0000 0.1379 0.9904
vn 0.9904 0.1379 -0.0000
vn -0.0000 0.1379 -0.9904
vn -0.9904 0.1379 -0.0000
vn -0.0001 0.0267 -0.9996
vn 0.9996 0.0267 0.0001
vn 0.9996 0.0267 -0.0001
vn -0.0001 0.0267 0.9996
vn 0.3500 -0.9367 -0.0000
vn 0.3227 -0.9465 -0.0000
vn 0.3228 -0.9465 -0.0000
vn 0.3499 -0.9368 -0.0000
vn 0.2971 -0.9548 -0.0015
vn 0.1884 -0.9821 -0.0031
vn 0.1040 -0.9946 -0.0031
vn 0.1883 -0.9821 -0.0031
vn 0.1039 -0.9946 -0.0032
vn 0.0182 -0.9998 -0.0024
vn 0.0160 -0.9999 -0.0000
vn 0.5253 -0.0000 -0.8509
vn 0.4653 -0.0000 -0.8851
vn 0.4029 -0.0000 -0.9153
vn 0.4653 -0.0000 -0.8852
vn 0.2856 -0.0000 -0.9583
vn 0.2314 -0.0001 -0.9728
vn 0.1767 -0.0002 -0.9843
vn 0.2314 -0.0001 -0.9729
vn 0.1765 0.0001 -0.9843
vn 0.1766 -0.0000 -0.9843
vn 0.2856 -0.0000 -0.9584
vn 0.5345 -0.0000 0.8452
vn 0.4778 -0.0000 0.8785
vn 0.4187 -0.0000 0.9081
vn 0.4777 -0.0000 0.8785
vn 0.4186 -0.0000 0.9082
vn 0.2879 -0.0000 0.9577
vn 0.2159 -0.0001 0.9764
vn 0.1430 -0.0000 0.9897
vn 0.1431 -0.0002 0.9897
vn 0.2159 -0.0000 0.9764
vn 0.4386 0.8987 -0.0000
vn 0.4114 0.9114 -0.0000
vn 0.3879 0.9217 -0.0035
vn 0.4114 0.9115 -0.0000
vn 0.2868 0.9580 -0.0073
vn 0.2869 0.9579 -0.0073
vn 0.2080 0.9781 -0.0073
vn 0.1206 0.9927 -0.0000
vn 0.1257 0.9920 -0.0056
vn -0.5371 0.8435 -0.0000
vn -0.4484 0.8938 -0.0000
vn -0.3540 0.9353 -0.0000
vn -0.4484 0.8939 -0.0000
vn -0.1969 0.9804 -0.0000
vn -0.3539 0.9353 -0.0000
vn -0.1360 0.9907 -0.0000
vn -0.0748 0.9972 -0.0000
vn -0.6344 -0.0000 0.7730
vn -0.5586 -0.0000 0.8294
vn -0.4771 -0.0000 0.8789
vn -0.5586 -0.0000 0.8295
vn -0.4770 -0.0000 0.8789
vn -0.3306 -0.0000 0.9438
vn -0.2676 0.0001 0.9635
vn -0.3305 -0.0000 0.9438
vn -0.2675 0.0001 0.9636
vn -0.2035 -0.0000 0.9791
vn -0.2034 -0.0000 0.9791
vn -0.2036 0.0002 0.9790
vn -0.5938 -0.8046 -0.0000
vn -0.5167 -0.8561 -0.0000
vn -0.4345 -0.9007 -0.0000
vn -0.5167 -0.8562 -0.0000
vn -0.2991 -0.9542 -0.0000
vn -0.2480 -0.9688 -0.0000
vn -0.2990 -0.9542 -0.0000
vn -0.1964 -0.9805 -0.0000
vn -0.6344 -0.0000 -0.7730
vn -0.5586 -0.0000 -0.8294
vn -0.4771 -0.0000 -0.8789
vn -0.5586 -0.0000 -0.8295
vn -0.3306 -0.0000 -0.9438
vn -0.4770 -0.0000 -0.8789
vn -0.2676 0.0001 -0.9635
vn -0.2036 0.0002 -0.9790
vn -0.2675 0.0001 -0.9636
vn -0.2035 -0.0000 -0.9791
vn -0.3305 -0.0000 -0.9438
vn 1.0000 -0.0003 -0.0000
vn 1.0000 0.0001 0.0002
vn 1.0000 0.0004 -0.0000
vn 1.0000 0.0001 -0.0002
vn 1.0000 -0.0002 -0.0001
vn 1.0000 -0.0003 -0.0001
vn 1.0000 0.0003 -0.0001
vn 1.0000 0.0002 -0.0001
vn 1.0000 -0.0002 0.0001
vn 1.0000 -0.0003 0.0001
vn 1.0000 0.0003 0.0001
vn 1.0000 -0.0000 0.0004
vn -0.1750 -0.9367 -0.3031
vn -0.1614 -0.9465 -0.2795
vn -0.1750 -0.9368 -0.3031
vn -0.1499 -0.9548 -0.2566
vn -0.1499 -0.9548 -0.2565
vn -0.0969 -0.9821 -0.1616
vn -0.0547 -0.9946 -0.0885
vn -0.0969 -0.9821 -0.1615
vn -0.0547 -0.9946 -0.0884
vn -0.0111 -0.9998 -0.0146
vn -0.0112 -0.9998 -0.0146
vn -0.0080 -0.9999 -0.0138
vn -0.9996 -0.0000 -0.0294
vn -0.9992 -0.0000 0.0396
vn -0.9941 -0.0000 0.1087
vn -0.9728 -0.0000 0.2318
vn -0.9941 -0.0000 0.1088
vn -0.9582 -0.0001 0.2860
vn -0.9408 -0.0002 0.3391
vn -0.9407 0.0001 0.3393
vn -0.9407 -0.0000 0.3392
vn -0.9727 -0.0000 0.2319
vn 0.4647 -0.0000 -0.8855
vn 0.5219 -0.0000 -0.8530
vn 0.5771 -0.0000 -0.8167
vn 0.5220 -0.0000 -0.8530
vn 0.5772 -0.0000 -0.8166
vn 0.6854 -0.0000 -0.7282
vn 0.7376 -0.0000 -0.6752
vn 0.6854 -0.0000 -0.7281
vn 0.7376 -0.0001 -0.6752
vn 0.7856 -0.0000 -0.6187
vn 0.7855 -0.0002 -0.6188
vn 0.7377 -0.0000 -0.6752
vn -0.2193 0.8987 -0.3798
vn -0.2057 0.9114 -0.3563
vn -0.1970 0.9217 -0.3342
vn -0.2057 0.9115 -0.3563
vn -0.1497 0.9579 -0.2448
vn -0.1970 0.9217 -0.3341
vn -0.1103 0.9781 -0.1765
vn -0.0603 0.9927 -0.1044
vn -0.0677 0.9920 -0.1061
vn -0.1497 0.9580 -0.2447
vn 0.2686 0.8435 0.4652
vn 0.2242 0.8938 0.3883
vn 0.1770 0.9353 0.3066
vn 0.0985 0.9804 0.1705
vn 0.1770 0.9353 0.3065
vn 0.0680 0.9907 0.1178
vn 0.0374 0.9972 0.0648
vn 0.0984 0.9804 0.1705
vn 0.9866 -0.0000 0.1629
vn 0.9976 -0.0000 0.0691
vn 0.9997 -0.0000 -0.0263
vn 0.9976 -0.0000 0.0690
vn 0.9826 -0.0000 -0.1856
vn 0.9682 0.0001 -0.2501
vn 0.9496 -0.0000 -0.3133
vn 0.9496 -0.0001 -0.3135
vn 0.9497 0.0002 -0.3132
vn 0.2969 -0.8046 0.5143
vn 0.2584 -0.8561 0.4475
vn 0.2173 -0.9007 0.3763
vn 0.2583 -0.8562 0.4475
vn 0.2172 -0.9007 0.3763
vn 0.1496 -0.9542 0.2590
vn 0.1240 -0.9688 0.2148
vn 0.1495 -0.9542 0.2590
vn 0.1240 -0.9688 0.2147
vn 0.0982 -0.9805 0.1701
vn -0.3522 -0.0000 0.9359
vn -0.4390 -0.0000 0.8985
vn -0.5226 -0.0000 0.8526
vn -0.6520 -0.0000 0.7582
vn -0.6521 -0.0000 0.7582
vn -0.7007 0.0001 0.7135
vn -0.7461 0.0002 0.6659
vn -0.7007 0.0001 0.7134
vn -0.7462 -0.0000 0.6657
vn -0.6521 -0.0000 0.7581
vn -0.5000 -0.0003 -0.8660
vn -0.5002 -0.0001 -0.8659
vn -0.5000 0.0004 -0.8660
vn -0.4998 0.0002 -0.8661
vn -0.5002 0.0001 -0.8659
vn -0.5003 -0.0000 -0.8659
vn -0.5001 0.0003 -0.8660
vn -0.5003 -0.0000 -0.8658
vn -0.5001 0.0002 -0.8660
vn -0.4997 -0.0000 -0.8662
vn -0.4999 0.0002 -0.8661
vn -0.1750 -0.9367 0.3031
vn -0.1614 -0.9465 0.2795
vn -0.1750 -0.9368 0.3031
vn -0.1472 -0.9548 0.2581
vn -0.0915 -0.9821 0.1647
vn -0.0493 -0.9946 0.0916
vn -0.0492 -0.9946 0.0916
vn -0.0070 -0.9998 0.0170
vn -0.0070 -0.9998 0.0169
vn -0.0080 -0.9999 0.0138
vn 0.4743 -0.0000 0.8804
vn 0.5339 -0.0000 0.8455
vn 0.5912 -0.0000 0.8065
vn 0.6871 -0.0000 0.7265
vn 0.7268 -0.0001 0.6869
vn 0.7640 -0.0002 0.6452
vn 0.7268 -0.0001 0.6868
vn 0.7641 -0.0000 0.6451
vn 0.6872 -0.0000 0.7265
vn -0.9992 -0.0000 0.0403
vn -0.9997 -0.0000 -0.0255
vn -0.9958 -0.0000 -0.0915
vn -0.9733 -0.0000 -0.2295
vn -0.9536 -0.0000 -0.3012
vn -0.9536 -0.0001 -0.3012
vn -0.9286 -0.0000 -0.3710
vn -0.9287 -0.0002 -0.3709
vn -0.9535 -0.0000 -0.3013
vn -0.2193 0.8987 0.3798
vn -0.2057 0.9114 0.3563
vn -0.1909 0.9217 0.3377
vn -0.2057 0.9115 0.3563
vn -0.1371 0.9579 0.2520
vn -0.1909 0.9217 0.3376
vn -0.1371 0.9579 0.2521
vn -0.0977 0.9781 0.1838
vn -0.0603 0.9927 0.1044
vn -0.0977 0.9781 0.1837
vn -0.0580 0.9920 0.1117
vn -0.1371 0.9580 0.2520
vn 0.2686 0.8435 -0.4652
vn 0.2242 0.8938 -0.3883
vn 0.1770 0.9353 -0.3066
vn 0.2242 0.8939 -0.3883
vn 0.0985 0.9804 -0.1705
vn 0.1770 0.9353 -0.3065
vn 0.0680 0.9907 -0.1178
vn 0.0374 0.9972 -0.0648
vn 0.0984 0.9804 -0.1705
vn -0.3522 -0.0000 -0.9359
vn -0.4390 -0.0000 -0.8985
vn -0.5226 -0.0000 -0.8526
vn -0.6520 -0.0000 -0.7582
vn -0.6521 -0.0000 -0.7582
vn -0.7007 0.0001 -0.7135
vn -0.6521 -0.0000 -0.7581
vn -0.7007 0.0001 -0.7134
vn -0.7462 -0.0000 -0.6657
vn -0.7461 0.0002 -0.6659
vn 0.2969 -0.8046 -0.5143
vn 0.2584 -0.8561 -0.4475
vn 0.2173 -0.9007 -0.3763
vn 0.2583 -0.8562 -0.4475
vn 0.2172 -0.9007 -0.3763
vn 0.1496 -0.9542 -0.2590
vn 0.1240 -0.9688 -0.2148
vn 0.1495 -0.9542 -0.2590
vn 0.1240 -0.9688 -0.2147
vn 0.0982 -0.9805 -0.1701
vn 0.9866 -0.0000 -0.1629
vn 0.9976 -0.0000 -0.0691
vn 0.9997 -0.0000 0.0263
vn 0.9976 -0.0000 -0.0690
vn 0.9826 -0.0000 0.1856
vn 0.9682 0.0001 0.2501
vn 0.9497 0.0002 0.3132
vn 0.9496 -0.0000 0.3133
vn -0.5002 -0.0001 0.8659
vn -0.4998 -0.0001 0.8661
vn -0.5002 0.0001 0.8659
vn -0.5000 0.0004 0.8660
vn -0.5000 -0.0003 0.8660
vn -0.4999 -0.0003 0.8661
vn -0.4999 0.0004 0.8661
vn -0.4997 -0.0000 0.8662
vn -0.5003 -0.0000 0.8659
vn -0.5001 0.0002 0.8660
vn -0.5000 0.0003 0.8660
vt 0.925781 0.230469
vt 0.925781 0.234375
vt 0.855469 0.234375
vt 0.765625 0.242188
vt 0.765625 0.238281
vt 0.835938 0.238281
vt 0.210938 0.296875
vt 0.210938 0.355469
vt 0.160156 0.296875
vt 0.160156 0.355469
vt 0.589844 0.500000
vt 0.574219 0.671875
vt 0.476562 0.500000
vt 0.492188 0.671875
vt 0.589844 0.195312
vt 0.562500 0.269531
vt 0.390625 0.195312
vt 0.421875 0.269531
vt 0.630916 0.744314
vt 0.522895 0.890902
vt 0.417525 0.744314
vt 0.458900 0.890902
vt 0.417525 0.744314
vt 0.472656 0.554688
vt 0.457031 0.738281
vt 0.359375 0.554688
vt 0.375000 0.738281
vt 0.773438 0.253906
vt 0.773438 0.441406
vt 0.683594 0.253906
vt 0.683594 0.441406
vt 0.628906 0.085938
vt 0.601562 0.160156
vt 0.304688 0.085938
vt 0.332031 0.160156
vt 0.582031 0.894531
vt 0.562500 0.972656
vt 0.238281 0.894531
vt 0.257812 0.972656
vt 0.531250 0.449219
vt 0.531250 0.386719
vt 0.656250 0.449219
vt 0.531250 0.316406
vt 0.656250 0.382812
vt 0.656250 0.316406
vt 0.589844 0.789062
vt 0.589844 0.890625
vt 0.402344 0.789062
vt 0.402344 0.890625
vt 0.218750 0.292969
vt 0.218750 0.359375
vt 0.152344 0.292969
vt 0.152344 0.359375
vt 0.214844 0.175781
vt 0.300781 0.175781
vt 0.214844 0.257812
vt 0.300781 0.257812
vt 0.902344 0.230469
vt 0.968750 0.234375
vt 0.902344 0.234375
vt 0.921875 0.050781
vt 0.800781 0.050781
vt 0.921875 0.031250
vt 0.808594 0.031250
vt 0.921875 0.015625
vt 0.808594 0.015625
vt 0.914062 0.000000
vt 0.808594 0.000000
vt 0.820312 0.000000
vt 0.843750 0.007812
vt 0.820312 0.062500
vt 0.843750 0.050781
vt 0.886719 0.019531
vt 0.886719 0.042969
vt 0.921875 0.042969
vt 0.921875 0.027344
vt 0.921875 0.062500
vt 0.890625 0.007812
vt 0.890625 0.050781
vt 0.851562 0.019531
vt 0.851562 0.042969
vt 0.820312 0.027344
vt 0.820312 0.042969
vt 0.808594 0.050781
vt 0.828125 0.031250
vt 0.910156 0.050781
vt 0.890625 0.031250
vt 0.839844 0.015625
vt 0.875000 0.015625
vt 0.867188 0.000000
vt 0.843750 0.000000
vt 0.746094 0.210938
vt 0.761719 0.132812
vt 0.980469 0.210938
vt 0.960938 0.132812
vt 0.777344 0.062500
vt 0.953125 0.062500
vt 0.941406 0.000000
vt 0.789062 0.000000
vt 0.937500 0.136719
vt 0.804688 0.136719
vt 0.910156 0.097656
vt 0.828125 0.097656
vt 0.890625 0.046875
vt 0.843750 0.046875
vt 0.882812 0.003906
vt 0.847656 0.003906
vt 0.945312 0.199219
vt 0.792969 0.199219
vt 0.917969 0.156250
vt 0.824219 0.156250
vt 0.894531 0.101562
vt 0.843750 0.101562
vt 0.886719 0.050781
vt 0.851562 0.050781
vt 0.781250 0.183594
vt 0.781250 0.203125
vt 0.953125 0.183594
vt 0.953125 0.203125
vt 0.773438 0.222656
vt 0.773438 0.242188
vt 0.957031 0.222656
vt 0.957031 0.242188
s 0
usemtl SPEAKER01.Overlord_Tank_-_Upgrades
f 115/13/23 116/14/24 117/15/24
f 118/16/25 119/17/26 120/18/25
f 25/19/27 26/20/27 27/21/28
f 27/21/28 26/20/27 28/22/28
f 29/23/29 30/24/27 31/25/29
f 31/25/29 30/24/27 32/26/27
f 33/27/30 34/28/30 35/29/30
f 35/29/30 34/28/30 36/30/30
f 37/31/31 38/32/31 39/33/31
f 39/33/31 38/32/31 40/34/31
f 41/35/32 42/34/32 43/31/32
f 43/31/32 42/34/32 44/32/32
f 45/36/33 46/37/33 47/38/33
f 47/38/33 46/37/33 48/39/33
f 49/40/28 50/41/28 51/42/28
f 51/42/28 50/41/28 52/43/28
f 53/44/34 54/45/34 55/46/34
f 55/46/34 54/45/34 56/47/34
f 57/29/35 58/30/35 59/27/35
f 59/27/35 58/30/35 60/28/35
f 61/48/36 62/49/36 63/50/36
f 63/50/36 62/49/36 64/51/36
f 65/52/28 66/53/28 67/54/28
f 67/54/28 66/53/28 68/55/28
f 67/54/28 68/55/28 69/56/28
f 69/56/28 68/55/28 70/57/28
f 71/58/37 72/59/38 73/60/38
f 73/60/38 72/59/38 74/61/39
f 75/60/40 76/61/40 77/58/40
f 77/58/40 76/61/40 78/59/40
f 79/58/41 80/59/42 81/60/42
f 81/60/42 80/59/42 82/61/43
f 83/60/44 84/61/45 85/58/45
f 85/58/45 84/61/45 86/59/46
f 87/60/47 88/61/47 89/58/47
f 89/58/47 88/61/47 90/59/47
f 91/58/48 92/59/49 93/60/49
f 93/60/49 92/59/49 94/61/50
f 95/62/28 96/63/28 97/64/28
f 97/64/28 96/63/28 98/65/28
f 99/66/51 100/67/51 101/68/51
f 101/68/51 100/67/51 102/69/51
f 103/68/52 104/69/52 105/66/52
f 105/66/52 104/69/52 106/67/52
f 107/66/53 108/67/53 109/68/53
f 109/68/53 108/67/53 110/69/53
f 111/68/54 112/69/54 113/66/54
f 113/66/54 112/69/54 114/67/54
f 121/70/55 122/71/25 123/72/56
f 123/72/57 122/71/24 124/72/58
f 125/73/59 126/74/59 127/75/60
f 127/75/61 126/74/62 128/76/63
f 127/75/60 128/76/63 129/77/64
f 129/77/64 128/76/63 130/78/65
f 129/77/66 130/78/67 131/79/68
f 131/79/68 130/78/65 132/80/69
f 133/81/70 134/82/71 135/83/70
f 135/83/70 134/82/71 136/84/72
f 134/82/73 137/85/74 136/84/72
f 136/84/72 137/85/74 138/86/75
f 139/87/76 138/86/77 140/88/78
f 140/88/79 138/86/77 137/85/80
f 141/79/81 142/89/81 143/90/82
f 143/90/82 142/89/81 144/91/83
f 143/90/84 144/91/85 145/92/86
f 145/92/86 144/91/85 146/93/87
f 145/92/86 146/93/87 147/94/88
f 147/94/89 146/93/90 148/95/89
f 149/96/91 150/97/92 151/98/91
f 151/98/91 150/97/92 152/99/93
f 150/97/94 153/100/95 152/99/93
f 152/99/93 153/100/96 154/101/97
f 155/102/98 154/101/97 156/103/99
f 156/103/99 154/101/97 153/100/95
f 157/104/100 158/105/101 159/106/100
f 159/106/100 158/105/101 160/107/102
f 158/105/103 161/108/104 160/107/105
f 160/107/105 161/108/104 162/109/106
f 163/110/107 162/109/106 164/111/107
f 164/111/107 162/109/106 161/108/104
f 165/112/108 166/113/108 167/114/109
f 167/114/109 166/113/108 168/115/110
f 167/114/111 168/115/112 169/116/113
f 169/116/113 168/115/112 170/117/114
f 169/116/115 170/117/116 171/118/117
f 171/118/118 170/117/116 172/119/119
f 173/120/120 174/121/120 175/122/121
f 175/122/121 174/121/120 176/123/122
f 175/122/123 176/123/122 177/124/124
f 177/124/124 176/123/122 178/125/125
f 177/124/126 178/125/125 179/126/127
f 179/126/127 178/125/125 180/127/127
f 181/112/128 182/114/129 183/113/128
f 183/113/128 182/114/129 184/115/130
f 182/114/131 185/116/132 184/115/133
f 184/115/133 185/116/132 186/117/134
f 187/119/135 186/117/136 188/118/135
f 188/118/137 186/117/136 185/116/138
f 189/128/139 190/129/139 191/130/139
f 191/130/139 190/129/139 203/131/139
f 192/132/140 193/133/141 194/134/141
f 194/134/141 193/133/141 201/135/142
f 195/132/143 196/133/144 197/134/145
f 197/134/146 196/133/143 204/135/146
f 198/132/147 199/133/148 200/134/149
f 200/134/150 199/133/150 202/135/150
f 205/73/151 206/74/151 207/75/152
f 207/75/152 206/74/153 208/76/154
f 207/75/152 208/76/155 209/77/156
f 209/77/156 208/76/155 210/78/157
f 209/77/158 210/78/159 211/79/160
f 211/79/161 210/78/157 212/80/162
f 213/81/163 214/82/164 215/83/163
f 215/83/163 214/82/164 216/84/165
f 214/82/164 217/85/166 216/84/167
f 216/84/167 217/85/166 218/86/168
f 219/87/169 218/86/168 220/88/170
f 220/88/171 218/86/168 217/85/172
f 221/79/173 222/89/173 223/90/174
f 223/90/174 222/89/173 224/91/175
f 223/90/176 224/91/177 225/92/178
f 225/92/178 224/91/177 226/93/179
f 225/92/180 226/93/181 227/94/182
f 227/94/183 226/93/184 228/95/183
f 229/96/185 230/97/186 231/98/185
f 231/98/185 230/97/186 232/99/187
f 230/97/188 233/100/189 232/99/187
f 232/99/190 233/100/189 234/101/191
f 235/102/192 234/101/191 236/103/193
f 236/103/193 234/101/191 233/100/194
f 237/104/195 238/105/196 239/106/195
f 239/106/195 238/105/196 240/107/197
f 238/105/196 241/108/198 240/107/199
f 240/107/199 241/108/198 242/109/200
f 243/110/201 242/109/200 244/111/201
f 244/111/201 242/109/200 241/108/202
f 245/112/203 246/113/203 247/114/204
f 247/114/204 246/113/203 248/115/205
f 247/114/206 248/115/205 249/116/207
f 249/116/207 248/115/205 250/117/208
f 249/116/207 250/117/208 251/118/209
f 251/118/210 250/117/208 252/119/211
f 253/120/212 254/121/212 255/122/213
f 255/122/213 254/121/212 256/123/214
f 255/122/215 256/123/216 257/124/217
f 257/124/217 256/123/216 258/125/218
f 257/124/219 258/125/220 259/126/221
f 259/126/221 258/125/220 260/127/221
f 261/112/222 262/114/223 263/113/222
f 263/113/222 262/114/223 264/115/224
f 262/114/223 265/116/225 264/115/224
f 264/115/224 265/116/226 266/117/227
f 267/119/228 266/117/229 268/118/228
f 268/118/230 266/117/229 265/116/231
f 269/128/232 270/129/232 271/130/232
f 271/130/233 270/129/232 283/131/232
f 272/132/234 273/133/234 274/134/234
f 274/134/234 273/133/235 281/135/236
f 275/132/232 276/133/237 277/134/238
f 277/134/239 276/133/239 284/135/240
f 278/132/241 279/133/241 280/134/241
f 280/134/241 279/133/241 282/135/242
f 285/73/243 286/74/243 287/75/244
f 287/75/244 286/74/245 288/76/246
f 287/75/244 288/76/246 289/77/247
f 289/77/247 288/76/246 290/78/248
f 289/77/247 290/78/249 291/79/250
f 291/79/251 290/78/248 292/80/252
f 293/81/253 294/82/254 295/83/253
f 295/83/253 294/82/254 296/84/255
f 294/82/254 297/85/256 296/84/255
f 296/84/255 297/85/256 298/86/257
f 299/87/258 298/86/259 300/88/258
f 300/88/260 298/86/259 297/85/261
f 301/79/262 302/89/262 303/90/263
f 303/90/263 302/89/262 304/91/264
f 303/90/263 304/91/264 305/92/265
f 305/92/265 304/91/264 306/93/266
f 305/92/265 306/93/267 307/94/268
f 307/94/269 306/93/270 308/95/269
f 309/96/271 310/97/272 311/98/271
f 311/98/271 310/97/272 312/99/273
f 310/97/274 313/100/275 312/99/276
f 312/99/276 313/100/277 314/101/278
f 315/102/279 314/101/280 316/103/281
f 316/103/281 314/101/278 313/100/282
f 317/104/283 318/105/284 319/106/283
f 319/106/283 318/105/284 320/107/285
f 318/105/286 321/108/287 320/107/288
f 320/107/288 321/108/287 322/109/289
f 323/110/290 322/109/289 324/111/290
f 324/111/290 322/109/289 321/108/291
f 325/112/292 326/113/292 327/114/293
f 327/114/293 326/113/292 328/115/294
f 327/114/293 328/115/294 329/116/295
f 329/116/296 328/115/294 330/117/297
f 329/116/298 330/117/299 331/118/300
f 331/118/300 330/117/299 332/119/301
f 333/120/302 334/121/302 335/122/303
f 335/122/303 334/121/302 336/123/304
f 335/122/305 336/123/306 337/124/307
f 337/124/307 336/123/306 338/125/308
f 337/124/309 338/125/310 339/126/311
f 339/126/311 338/125/310 340/127/311
f 341/112/312 342/114/313 343/113/312
f 343/113/312 342/114/313 344/115/314
f 342/114/315 345/116/316 344/115/314
f 344/115/314 345/116/316 346/117/317
f 347/119/318 346/117/317 348/118/318
f 348/118/319 346/117/317 345/116/316
f 349/128/320 350/129/320 351/130/321
f 351/130/321 350/129/320 363/131/321
f 352/132/322 353/133/323 354/134/323
f 354/134/323 353/133/323 361/135/323
f 355/132/324 356/133/325 357/134/326
f 357/134/327 356/133/327 364/135/327
f 358/132/328 359/133/328 360/134/328
f 360/134/329 359/133/324 362/135/330
o m2
v 10.323147 5.384724 1.520544
v 9.837402 -2.128060 4.094261
v 20.342196 -1.740632 2.155518
v 10.323147 5.384723 -1.653774
v 20.342196 -1.740634 -2.057347
v 9.662151 -2.106696 -4.023939
v -12.282335 3.401878 8.931425
v -12.930157 -1.930554 7.491897
v -3.212768 3.613368 3.102568
v -1.316859 -1.930554 2.965383
v -3.212768 3.613368 -3.560073
v -1.316859 -1.930554 -3.422886
v -12.282335 3.401877 -9.118190
v -12.930157 -1.930556 -7.678663
v -0.022629 1.399535 2.842616
v -12.200888 1.364819 2.791651
v -0.121806 3.856002 8.273807
v -7.769572 3.818199 8.220963
v -14.467569 -0.144343 2.370055
v -12.291773 -3.110017 5.879158
v -8.342325 3.248094 9.719048
v -8.342207 -0.675776 12.466323
v -3.212768 3.613368 3.102568
v -3.212768 3.613368 -3.560073
v -12.282335 3.401878 8.931425
v -12.282335 3.401877 -9.118190
v -16.260187 2.730449 -6.857302
v -16.260082 2.730452 6.670532
v -0.022628 1.399532 -2.842616
v -0.121806 3.855999 -8.273808
v -12.200888 1.364817 -2.791651
v -7.769571 3.818196 -8.220963
v -16.260187 2.730449 -6.857302
v -16.249977 -2.038835 -5.914378
v -16.259977 2.730449 -0.000002
v -16.249977 -2.038833 -0.000002
v -16.259977 2.730449 -0.000002
v -16.249977 -2.038833 -0.000002
v -16.260082 2.730452 6.670532
v -16.250116 -2.038835 5.727609
v -12.282335 3.401878 8.931425
v -16.260082 2.730452 6.670532
v -12.930157 -1.930554 7.491897
v -16.250116 -2.038835 5.727609
v -12.930157 -1.930556 -7.678663
v -16.249977 -2.038835 -5.914378
v -12.282335 3.401877 -9.118190
v -16.260187 2.730449 -6.857302
v 10.323147 5.384724 1.520544
v 10.323147 5.384723 -1.653774
v 2.166300 5.825000 1.829582
v 2.166299 5.825001 -1.962810
v 0.996093 3.293508 -9.783907
v 0.996071 -0.630168 -12.531229
v -8.342325 3.248090 -9.719049
v -8.342207 -0.675780 -12.466323
v -14.467569 -0.144347 -2.370055
v -8.342325 3.248090 -9.719049
v -12.291773 -3.110019 -5.879159
v -8.342207 -0.675780 -12.466323
v 9.662151 -2.106696 -4.023939
v -3.595456 -1.964456 -4.219384
v 10.323147 5.384723 -1.653774
v 2.166299 5.825001 -1.962810
v 2.166300 5.825000 1.829582
v -3.595456 -1.964452 4.317338
v 10.323147 5.384724 1.520544
v 9.837402 -2.128060 4.094261
v 2.166300 5.825000 1.829582
v 2.166299 5.825001 -1.962810
v -3.595456 -1.964452 4.317338
v -3.595456 -1.964456 -4.219384
v 20.342196 -1.740632 2.155518
v 20.342196 -1.740634 -2.057347
v 10.323147 5.384724 1.520544
v 10.323147 5.384723 -1.653774
v 0.996093 3.293511 9.783908
v -8.342325 3.248094 9.719048
v 0.996071 -0.630164 12.531227
v -8.342207 -0.675776 12.466323
v 1.133069 -3.891059 4.952991
v 1.133113 -0.098990 2.279753
v 0.996071 -0.630164 12.531227
v 0.996093 3.293511 9.783908
v 1.133069 -3.891059 -4.952991
v 0.996071 -0.630168 -12.531229
v 1.133113 -0.098994 -2.279753
v 0.996093 3.293508 -9.783907
v 1.133069 -3.891059 4.952991
v 0.996071 -0.630164 12.531227
v -12.291773 -3.110017 5.879158
v -8.342207 -0.675776 12.466323
v 1.133069 -3.891059 -4.952991
v -12.291773 -3.110019 -5.879159
v 0.996071 -0.630168 -12.531229
v -8.342207 -0.675780 -12.466323
v -12.930157 -1.930554 7.491897
v -12.930157 -1.930556 -7.678663
v -1.316859 -1.930554 -3.422886
v -1.316859 -1.930554 2.965383
v -16.250116 -2.038835 5.727609
v -16.249977 -2.038833 -0.000002
v -16.249977 -2.038835 -5.914378
v -12.200888 1.364819 2.791651
v -0.022629 1.399535 2.842616
v -0.022628 1.399532 -2.842616
v -12.200888 1.364817 -2.791651
v -12.291773 -3.110017 5.879158
v -14.467569 -0.144343 2.370055
v -14.467569 -0.144347 -2.370055
v 1.133113 -0.098990 2.279753
v 1.133069 -3.891059 4.952991
v 1.133069 -3.891059 -4.952991
v 1.133069 -3.891059 4.952991
v -12.291773 -3.110017 5.879158
v -12.291773 -3.110019 -5.879159
v 1.133113 -0.098990 2.279753
v 1.133069 -3.891059 -4.952991
v 1.133113 -0.098994 -2.279753
v -14.467569 -0.144347 -2.370055
v -12.291773 -3.110019 -5.879159
v 9.837402 -2.128060 4.094261
v 9.662151 -2.106696 -4.023939
v 20.342196 -1.740634 -2.057347
v 20.342196 -1.740632 2.155518
v -3.595456 -1.964452 4.317338
v -3.595456 -1.964456 -4.219384
vn 0.0775 0.3016 0.9503
vn 0.0908 0.3175 0.9439
vn 0.1614 0.3105 0.9368
vn 0.0773 0.2767 -0.9578
vn 0.1642 0.2844 -0.9446
vn 0.0910 0.2931 -0.9517
vn -0.8063 -0.5915 -0.0000
vn 1.0000 -0.0000 -0.0000
vn 0.5235 -0.2808 0.8044
vn 0.4531 -0.0923 0.8867
vn 0.4532 -0.0923 0.8866
vn 0.4531 -0.0922 0.8867
vn 0.3613 0.1006 0.9270
vn 0.5136 0.1548 -0.8440
vn 0.4344 -0.0661 -0.8983
vn -0.0222 -0.1366 -0.9904
vn -0.0221 -0.1367 -0.9904
vn 0.4344 -0.0662 -0.8983
vn -0.0692 -0.2522 -0.9652
vn -0.0009 0.9111 -0.4121
vn -0.0013 0.9115 -0.4113
vn -0.0013 0.9115 -0.4114
vn -0.0017 0.9118 -0.4107
vn -0.7902 0.1291 0.5991
vn -0.8342 0.2104 0.5097
vn -0.8343 0.2104 0.5096
vn -0.8645 0.2883 0.4118
vn -0.0233 0.9997 -0.0000
vn -0.0951 0.9955 -0.0000
vn -0.0952 0.9955 -0.0000
vn -0.1664 0.9861 -0.0000
vn -0.0009 0.9111 0.4121
vn -0.0013 0.9115 0.4114
vn -0.0017 0.9118 0.4107
vn -1.0000 -0.0021 -0.0000
vn -0.4634 -0.1781 0.8681
vn -0.4605 -0.1757 0.8701
vn -0.4578 -0.1734 0.8720
vn -0.0693 -0.2521 -0.9652
vn -0.4608 -0.1762 -0.8698
vn -0.0222 -0.1367 -0.9904
vn -0.4645 -0.1727 -0.8686
vn 0.4190 0.9080 -0.0000
vn 0.2374 0.9714 -0.0000
vn 0.0539 0.9985 -0.0000
vn -0.0085 0.5735 -0.8191
vn -0.7902 0.1291 -0.5991
vn -0.8342 0.2104 -0.5097
vn -0.8343 0.2104 -0.5097
vn -0.8343 0.2104 -0.5096
vn -0.8645 0.2883 -0.4118
vn 0.0336 0.2721 -0.9617
vn 0.0499 0.2437 -0.9686
vn 0.0510 0.2694 0.9617
vn 0.0353 0.2963 0.9544
vn -0.8040 0.5947 -0.0000
vn 0.5796 0.8149 -0.0000
vn 0.4191 0.9080 -0.0000
vn 0.2375 0.9714 -0.0000
vn -0.0085 0.5735 0.8191
vn 0.9999 0.0098 0.0139
vn 0.9999 0.0097 0.0139
vn 0.9999 0.0098 -0.0139
vn 0.9999 0.0097 -0.0139
vn -0.0262 -0.9184 0.3947
vn -0.0120 -0.9288 0.3703
vn -0.0120 -0.9289 0.3702
vn 0.0022 -0.9384 0.3455
vn -0.0262 -0.9184 -0.3947
vn -0.0120 -0.9288 -0.3703
vn -0.0120 -0.9289 -0.3702
vn 0.0022 -0.9384 -0.3455
vn -0.0000 -1.0000 -0.0000
vn 0.0163 -0.9999 -0.0000
vn 0.0217 -0.9998 -0.0000
vn 0.0326 -0.9995 -0.0000
vn -0.0029 1.0000 -0.0000
vn 0.6862 -0.7274 -0.0000
vn 0.6863 -0.7273 -0.0000
vn -0.0581 -0.9983 -0.0000
vn -0.4776 -0.8786 -0.0000
vn -0.4777 -0.8785 -0.0000
vn 0.0369 -0.9993 -0.0000
vn 0.0199 -0.9998 -0.0019
vn 0.0359 -0.9994 -0.0017
vn 0.0040 -1.0000 -0.0019
vn -0.0107 -0.9999 -0.0000
vn -0.0115 -0.9999 -0.0013
vn -0.0115 -0.9999 -0.0012
vn 0.0198 -0.9998 -0.0019
vt 0.134691 0.862415
vt 0.001356 0.862084
vt 0.003684 0.680793
vt 0.001146 0.862337
vt 0.690362 0.485125
vt 0.670198 0.517645
vt 0.670198 0.561574
vt 0.814776 0.518482
vt 0.814776 0.585511
vt 0.814776 0.560737
vt 0.322251 0.641294
vt 0.321363 0.571513
vt 0.441528 0.644005
vt 0.474482 0.571440
vt 0.040099 0.131869
vt 0.350910 0.132603
vt 0.037546 0.297497
vt 0.231050 0.296824
vt 0.365692 0.379402
vt 0.423299 0.253401
vt 0.553148 0.439726
vt 0.569492 0.284442
vt 0.644029 0.617004
vt 0.644029 0.451649
vt 0.888182 0.761665
vt 0.888182 0.313707
vt 0.996752 0.369818
vt 0.996752 0.705554
vt 0.104076 0.643835
vt 0.104257 0.573073
vt 0.205776 0.643608
vt 0.205595 0.572845
vt 0.318177 0.643058
vt 0.317996 0.572295
vt 0.211264 0.642990
vt 0.211445 0.572227
vt 0.746912 0.823266
vt 0.851270 0.823548
vt 0.747572 0.751957
vt 0.830561 0.751134
vt 0.439334 0.819689
vt 0.439334 0.702995
vt 0.739233 0.822801
vt 0.739233 0.699883
vt 0.777707 0.832858
vt 0.777707 0.997743
vt 0.600676 0.832858
vt 0.600676 0.997743
vt 0.419027 0.650896
vt -0.002437 0.650485
vt 0.423606 0.853862
vt 0.167104 0.862426
vt 0.167104 0.862425
vt -0.002437 0.650485
vt 0.423606 0.853862
vt 0.419169 0.650841
vt 0.115942 0.995119
vt 0.292924 0.995119
vt -0.000155 0.835948
vt 0.398233 0.835948
vt 0.101144 0.644173
vt -0.000208 0.644173
vt 0.101751 0.344715
vt -0.000453 0.344715
vt 0.334347 0.341489
vt 0.416298 0.466148
vt 0.107986 0.444229
vt 0.184290 0.572341
vt 0.792071 0.512128
vt 0.684446 0.470179
vt 0.792071 0.571331
vt 0.684446 0.610771
vt 0.653679 0.594421
vt 0.653679 0.539609
vt 0.653678 0.486529
vt 0.804066 0.513266
vt 0.804066 0.565953
vt 0.691204 0.513738
vt 0.691204 0.565481
vt 0.814776 0.493708
vt 0.690362 0.594094
vt 0.992796 0.519633
vt 0.895443 0.501666
vt 0.992796 0.558676
vt 0.893819 0.576901
vt 0.770954 0.578712
vt 0.770954 0.499599
s 0
usemtl HANK.08_-_Default
f 365/136/331 366/137/332 367/138/333
f 368/136/334 369/138/335 370/139/336
f 472/140/337 473/141/337 474/142/337
f 481/143/338 482/144/338 483/145/338
f 371/146/339 372/147/340 373/148/341
f 373/148/342 372/147/342 374/149/343
f 375/148/344 376/149/345 377/146/346
f 377/146/347 376/149/348 378/147/349
f 379/150/350 380/151/351 381/152/351
f 381/152/352 380/151/352 382/153/353
f 383/154/354 384/155/355 385/156/355
f 385/156/356 384/155/356 386/157/357
f 387/158/358 388/159/358 389/160/359
f 389/160/359 388/159/358 390/161/359
f 389/160/360 390/161/360 391/162/361
f 389/160/359 391/162/361 392/163/361
f 393/150/362 394/152/363 395/151/363
f 395/151/363 394/152/363 396/153/364
f 397/164/365 398/165/365 399/166/365
f 399/166/365 398/165/365 400/167/365
f 401/168/365 402/169/365 403/170/365
f 403/170/365 402/169/365 404/171/365
f 405/172/366 406/173/367 407/174/367
f 407/174/367 406/173/367 408/175/368
f 409/174/369 410/175/370 411/172/371
f 411/172/371 410/175/370 412/173/372
f 413/176/373 414/177/374 415/178/375
f 415/178/375 414/177/374 416/179/375
f 417/180/376 418/181/376 419/182/376
f 419/182/376 418/181/376 420/183/376
f 421/154/377 422/156/378 423/155/379
f 423/155/380 422/156/380 424/157/381
f 425/184/336 426/185/382 427/186/334
f 427/186/334 426/185/382 428/187/383
f 429/188/384 430/189/385 431/190/331
f 431/190/331 430/189/385 432/191/332
f 433/192/386 434/193/386 435/194/386
f 435/194/386 434/193/386 436/195/386
f 437/196/387 438/197/387 439/198/388
f 439/198/388 438/197/387 440/199/389
f 441/180/390 442/182/390 443/181/390
f 443/181/390 442/182/390 444/183/390
f 445/200/391 446/201/391 447/202/391
f 447/202/392 446/201/392 448/203/392
f 449/200/393 450/202/393 451/201/393
f 451/201/394 450/202/394 452/203/394
f 453/150/395 454/152/396 455/151/396
f 455/151/397 454/152/397 456/153/398
f 457/150/399 458/151/400 459/152/400
f 459/152/401 458/151/401 460/153/402
f 464/204/403 461/205/404 463/206/403
f 463/206/403 461/205/404 462/207/405
f 467/208/406 462/207/405 466/209/406
f 466/209/406 462/207/405 461/205/404
f 466/209/406 461/205/404 465/210/406
f 469/211/407 470/212/407 468/213/407
f 468/213/407 470/212/407 471/214/407
f 475/143/338 476/215/408 477/144/408
f 477/144/409 476/215/409 485/216/410
f 478/215/410 479/140/411 480/216/411
f 480/216/412 479/140/412 484/142/337
f 489/217/413 486/218/414 488/219/415
f 488/219/415 486/218/414 487/220/416
f 491/221/417 487/220/416 490/222/418
f 490/222/419 487/220/416 486/218/420
