# Blender 5.1.2
# www.blender.org
mtllib v2.mtl
o TURRET
v -1.247386 -1.380802 1.247386
v 1.247386 -1.380802 1.247386
v 0.678583 1.841070 0.000000
v -0.678583 1.841070 0.000000
v 1.247386 -1.380802 1.247386
v 1.247386 -1.380802 -1.247386
v 0.678583 1.841070 0.000000
v 1.247386 -1.380802 -1.247386
v -1.247386 -1.380802 -1.247386
v -0.678583 1.841070 0.000000
v 0.678583 1.841070 0.000000
v -1.247386 -1.380802 -1.247386
v -1.247386 -1.380802 1.247386
v -0.678583 1.841070 0.000000
vn 0.9848 0.1739 -0.0000
vn -0.9848 0.1739 -0.0000
vn -0.0000 0.3610 0.9325
vn -0.0000 0.3610 -0.9325
vt 0.353638 0.854870
vt 0.447913 0.854870
vt 0.400775 0.991542
vt 0.354020 0.854870
vt 0.448294 0.854870
vt 0.401157 0.991542
vt 0.397500 0.856594
vt 0.373738 0.988950
vt 0.293278 0.856594
vt 0.317040 0.988950
vt 0.397497 0.855938
vt 0.373735 0.988293
vt 0.293275 0.855938
vt 0.317038 0.988293
s 0
usemtl TURRET.Material_#10
f 5/1/1 6/2/1 7/3/1
f 12/4/2 13/5/2 14/6/2
f 2/7/3 3/8/3 1/9/3
f 1/9/3 3/8/3 4/10/3
f 9/11/4 10/12/4 8/13/4
f 8/13/4 10/12/4 11/14/4
o TURRET.001
v -2.649335 1.194160 -0.000957
v -2.639788 3.688477 -0.721009
v -2.653601 2.160810 -1.441062
v -2.639788 3.688477 0.719096
v -2.653601 2.160810 1.439149
v -2.653601 2.160810 -1.441062
v 2.990771 3.666924 -0.721009
v 2.985997 2.419765 -1.441062
v -2.639788 3.688477 -0.721009
v 2.990771 3.666924 0.719096
v -2.639788 3.688477 0.719096
v 2.985997 2.419765 1.439149
v -2.653601 2.160810 1.439149
v -2.653601 2.160810 1.439149
v 2.981224 1.172607 0.719096
v 2.985997 2.419765 1.439149
v -2.649335 1.194160 -0.000957
v -2.653601 2.160810 -1.441062
v 2.981224 1.172607 -0.721010
v 2.985997 2.419765 -1.441062
v 2.981224 1.172607 0.719096
v 2.985997 2.419765 -1.441062
v 2.990771 3.666924 -0.721009
v 2.990771 3.666924 0.719096
v 2.985997 2.419765 1.439149
v 2.981224 1.172607 -0.721010
v -3.052948 0.809524 2.735588
v -2.870959 3.238615 1.837488
v -2.745919 1.658425 1.254563
v -3.173961 3.353226 3.240684
v -3.351922 1.887648 4.060956
v -2.745919 1.658425 1.254563
v 2.633170 3.264885 3.023886
v 2.769426 1.964381 2.420539
v -2.870959 3.238615 1.837488
v 2.330168 3.379497 4.427083
v -3.173961 3.353226 3.240684
v 2.163422 2.193604 5.226931
v -3.351922 1.887648 4.060956
v -3.351922 1.887648 4.060956
v 2.299679 0.893100 4.623585
v 2.163422 2.193604 5.226931
v -3.052948 0.809524 2.735588
v -3.052948 0.809524 2.735588
v -2.745919 1.658425 1.254563
v 2.602681 0.778489 3.220388
v 2.769426 1.964381 2.420539
v 2.299679 0.893100 4.623585
v 2.769426 1.964381 2.420539
v 2.633170 3.264885 3.023886
v 2.330168 3.379497 4.427083
v 2.163422 2.193604 5.226931
v 2.602681 0.778489 3.220388
v -3.052948 0.809524 -2.734667
v -2.745919 1.658425 -1.253641
v -2.870959 3.238615 -1.836567
v -3.173961 3.353226 -3.239762
v -3.351922 1.887648 -4.060035
v -2.745919 1.658425 -1.253641
v 2.769426 1.964381 -2.419617
v 2.633170 3.264885 -3.022964
v -2.870959 3.238615 -1.836567
v 2.330168 3.379497 -4.426161
v -3.173961 3.353226 -3.239762
v 2.163422 2.193604 -5.226009
v -3.351922 1.887648 -4.060035
v -3.351922 1.887648 -4.060035
v 2.163422 2.193604 -5.226009
v 2.299679 0.893100 -4.622663
v -3.052948 0.809524 -2.734667
v -3.052948 0.809524 -2.734667
v 2.602681 0.778489 -3.219466
v -2.745919 1.658425 -1.253641
v 2.769426 1.964381 -2.419617
v 2.299679 0.893100 -4.622663
v 2.633170 3.264885 -3.022964
v 2.769426 1.964381 -2.419617
v 2.330168 3.379497 -4.426161
v 2.163422 2.193604 -5.226009
v 2.602681 0.778489 -3.219466
vn -1.0000 0.0058 0.0069
vn -1.0000 0.0051 -0.0000
vn -1.0000 0.0048 0.0035
vn -1.0000 0.0048 0.0034
vn -1.0000 0.0052 -0.0000
vn -1.0000 0.0048 -0.0034
vn -1.0000 0.0058 -0.0069
vn -1.0000 0.0048 -0.0035
vn -0.0000 -0.0000 -1.0000
vn -0.0226 -0.1249 -0.9919
vn -0.0067 0.7362 -0.6767
vn 0.0036 0.9370 -0.3492
vn 0.0036 0.9449 0.3272
vn -0.0053 0.7362 0.6767
vn 0.0036 0.9449 0.3273
vn 0.0020 0.1598 0.9872
vn -0.0283 -0.3614 0.9320
vn 0.0020 0.1598 0.9871
vn -0.0284 -0.3614 0.9320
vn -0.0263 -0.6824 0.7305
vn -0.0264 -0.6825 0.7304
vn -0.0284 -0.3613 0.9320
vn -0.0893 -0.9960 -0.0000
vn -0.0225 -0.1248 -0.9919
vn -0.0263 -0.6825 -0.7304
vn -0.0263 -0.6824 -0.7305
vn 1.0000 -0.0038 -0.0000
vn -0.9789 -0.0021 -0.2042
vn -0.9775 -0.0034 -0.2108
vn -0.9782 -0.0034 -0.2074
vn -0.9782 -0.0034 -0.2075
vn -0.9775 -0.0033 -0.2108
vn -0.9768 -0.0040 -0.2141
vn -0.9760 -0.0032 -0.2175
vn -0.9768 -0.0039 -0.2142
vn 0.2104 -0.0796 -0.9744
vn 0.1856 -0.2037 -0.9613
vn 0.1421 0.6799 -0.7194
vn 0.1856 -0.2036 -0.9613
vn 0.0850 0.9063 -0.4141
vn 0.0849 0.9063 -0.4141
vn -0.0572 0.9680 0.2444
vn -0.0573 0.9680 0.2444
vn -0.1413 0.7877 0.5996
vn -0.1413 0.7877 0.5997
vn -0.1911 0.5326 0.8245
vn -0.2058 0.4969 0.8431
vn -0.1640 -0.4292 0.8882
vn -0.1852 -0.6223 0.7606
vn -0.1852 -0.6224 0.7604
vn -0.1853 -0.6224 0.7604
vn -0.1965 -0.7819 0.5917
vn 0.0373 -0.8703 -0.4911
vn 0.1856 -0.2035 -0.9613
vn 0.1221 -0.7387 -0.6629
vn 0.1222 -0.7386 -0.6630
vn 0.9775 0.0047 0.2107
vn -0.9789 -0.0021 0.2042
vn -0.9783 -0.0034 0.2074
vn -0.9775 -0.0034 0.2108
vn -0.9775 -0.0033 0.2108
vn -0.9782 -0.0034 0.2074
vn -0.9768 -0.0040 0.2141
vn -0.9768 -0.0039 0.2141
vn -0.9760 -0.0032 0.2175
vn 0.2104 -0.0796 0.9744
vn 0.1421 0.6799 0.7194
vn 0.1856 -0.2037 0.9613
vn 0.1856 -0.2036 0.9613
vn 0.0850 0.9063 0.4141
vn -0.0573 0.9680 -0.2444
vn 0.0849 0.9063 0.4141
vn -0.1413 0.7877 -0.5996
vn -0.2269 -0.2863 -0.9309
vn -0.1413 0.7877 -0.5997
vn -0.2044 0.2378 -0.9495
vn -0.2044 0.2378 -0.9496
vn -0.0576 0.9680 -0.2444
vn -0.2044 0.2379 -0.9496
vn -0.1852 -0.6223 -0.7606
vn -0.2269 -0.2862 -0.9309
vn -0.1852 -0.6225 -0.7604
vn -0.0957 -0.9936 -0.0604
vn -0.0957 -0.9936 -0.0605
vn 0.1221 -0.7387 0.6629
vn 0.1856 -0.2035 0.9613
vn 0.1222 -0.7386 0.6630
vn 0.9775 0.0047 -0.2107
vt 0.004187 0.266871
vt 0.047292 0.230155
vt 0.035663 0.321082
vt 0.084847 0.305084
vt 0.094098 0.256995
vt 0.172239 0.474264
vt 0.002553 0.474264
vt 0.170597 0.439425
vt 0.000781 0.439425
vt 0.170597 0.369747
vt 0.000781 0.369747
vt 0.172239 0.334908
vt 0.002553 0.334908
vt 0.155092 0.408350
vt 0.011832 0.408366
vt 0.155090 0.333607
vt 0.011801 0.333667
vt 0.007500 0.948020
vt 0.030802 0.903156
vt 0.029893 0.989295
vt 0.074503 0.989297
vt 0.072907 0.903738
vt 0.099503 0.943183
vt 0.163321 0.472676
vt 0.004621 0.472498
vt 0.162026 0.443235
vt 0.003283 0.444023
vt 0.161804 0.375751
vt 0.003061 0.376539
vt 0.162878 0.337709
vt 0.004177 0.337531
vt 0.011832 0.408366
vt 0.011801 0.333667
vt 0.011800 0.333669
vt 0.011830 0.408363
vt 0.155090 0.333607
vt 0.155092 0.408350
vt 0.167760 0.336373
vt 0.169345 0.365184
vt -0.000815 0.337003
vt 0.001200 0.364647
vt 0.170811 0.433064
vt 0.002666 0.432527
vt 0.002118 0.472763
vt 0.170693 0.472134
vt 0.155092 0.408350
vt 0.155090 0.333607
vt 0.011830 0.408366
vt 0.011800 0.333667
vt 0.011801 0.333668
vt 0.155090 0.333607
vt 0.011834 0.408367
vt 0.155092 0.408344
s 0
usemtl TURRET.Material_#10
f 17/15/5 15/16/6 16/17/7
f 16/17/8 15/16/9 18/18/10
f 15/16/6 19/19/11 18/18/12
f 22/20/13 20/21/14 21/22/15
f 21/22/15 20/21/14 23/23/16
f 21/22/15 23/23/16 24/24/17
f 24/24/17 23/23/16 25/25/18
f 24/24/19 25/25/18 26/26/20
f 26/26/20 25/25/18 27/27/21
f 30/28/22 28/29/23 29/30/24
f 29/30/25 28/29/26 31/31/27
f 31/31/27 32/29/28 33/30/29
f 33/30/30 32/29/14 34/28/13
f 39/32/31 35/33/31 38/34/31
f 38/34/31 35/33/31 37/35/31
f 40/36/31 36/37/31 35/33/31
f 35/33/31 36/37/31 37/35/31
f 43/15/32 41/16/33 42/17/34
f 42/17/35 41/16/36 44/18/37
f 41/16/33 45/19/38 44/18/39
f 48/38/40 46/39/41 47/40/42
f 47/40/42 46/39/43 49/41/44
f 47/40/42 49/41/45 50/42/46
f 50/42/47 49/41/45 51/43/48
f 50/42/47 51/43/49 52/44/50
f 52/44/50 51/43/49 53/45/51
f 56/28/52 54/46/53 55/30/53
f 55/30/54 54/46/55 57/47/56
f 58/48/57 59/49/58 60/50/59
f 60/50/60 59/49/41 61/51/40
f 66/32/61 62/33/61 65/34/61
f 65/34/61 62/33/61 64/35/61
f 67/36/61 63/37/61 62/33/61
f 62/33/61 63/37/61 64/35/61
f 69/15/62 70/17/63 68/16/64
f 68/16/65 70/17/66 71/18/67
f 68/16/65 71/18/68 72/19/69
f 74/52/70 75/53/71 73/54/72
f 73/54/73 75/53/71 76/55/74
f 75/53/71 77/56/75 76/55/76
f 76/55/76 77/56/75 78/57/77
f 80/58/78 78/57/79 79/59/80
f 79/59/81 78/57/79 77/56/82
f 82/60/83 83/61/84 81/62/78
f 81/62/85 83/61/86 84/63/87
f 85/64/88 86/65/89 87/66/90
f 87/66/72 86/65/91 88/67/70
f 93/32/92 92/34/92 89/33/92
f 89/33/92 92/34/92 90/35/92
f 89/33/92 90/35/92 91/37/92
f 89/33/92 91/37/92 94/36/92
