# Blender 5.1.2
# www.blender.org
mtllib v3.mtl
o m2
v -8.423672 0.381836 4.012954
v -3.694766 0.381836 4.012954
v -3.694766 1.914911 4.012954
v -8.423672 1.914911 4.012954
v -3.694766 0.381836 2.690585
v -3.694766 1.914911 2.690585
v -3.694766 1.914911 4.012954
v -3.694766 0.381836 4.012954
v -3.694766 1.914911 2.690585
v -8.423672 1.914911 2.690585
v -8.423672 1.914911 4.012954
v -3.694766 1.914911 4.012954
v -8.423672 1.914911 2.690585
v -8.423672 0.381836 2.690585
v -8.423672 0.381836 4.012954
v -8.423672 1.914911 4.012954
v -8.423672 0.381836 -4.100020
v -8.423672 1.914911 -4.100020
v -3.694766 1.914911 -4.100020
v -3.694766 0.381836 -4.100020
v -3.694766 0.381836 -4.100020
v -3.694766 1.914911 -4.100020
v -3.694766 1.914911 -2.777652
v -3.694766 0.381836 -2.777652
v -3.694766 1.914911 -4.100020
v -8.423672 1.914911 -4.100020
v -8.423672 1.914911 -2.777652
v -3.694766 1.914911 -2.777652
v -8.423672 1.914911 -4.100020
v -8.423672 0.381836 -4.100020
v -8.423672 0.381836 -2.777652
v -8.423672 1.914911 -2.777652
v 10.956152 -0.204263 2.099349
v 10.956152 -0.204263 -2.051907
v 10.956152 1.100284 -2.051907
v 10.956152 1.100284 2.099348
v 10.956152 1.100284 -2.051907
v 10.956152 -0.204263 -2.051907
v 9.651605 0.448010 -2.051907
v 9.651605 0.448010 -2.051907
v 9.651605 0.448010 2.099349
v 10.956152 1.100284 2.099348
v 10.956152 1.100284 -2.051907
v 10.956152 -0.204263 2.099349
v 10.956152 1.100284 2.099348
v 9.651605 0.448010 2.099349
v -1.982817 3.988531 -2.575904
v -1.982817 3.988529 -1.874503
v 2.886271 4.007222 -3.497539
v 4.961581 4.007222 -1.874504
v -1.982817 3.988531 2.638833
v 2.886271 4.007222 3.560468
v -1.982817 3.988529 1.937432
v 4.961581 4.007222 1.937433
vn -0.0000 -0.0000 -1.0000
vn -0.0000 -0.0000 1.0000
vn 1.0000 -0.0000 -0.0000
vn -0.0000 1.0000 -0.0000
vn -1.0000 -0.0000 -0.0000
vn -0.4472 0.8944 -0.0000
vn -0.0038 1.0000 -0.0000
vn -0.0033 1.0000 0.0017
vn -0.0027 1.0000 0.0034
vn -0.0033 1.0000 -0.0017
vn -0.0027 1.0000 -0.0034
vt 0.716478 0.457641
vt 0.716478 0.382938
vt 0.791180 0.420290
vt 0.716478 0.382938
vt 0.791180 0.420290
vt 0.832461 0.386328
vt 0.832461 0.459083
vt 0.665124 0.386328
vt 0.665124 0.459083
vt 0.848796 0.452280
vt 0.848796 0.393496
vt 0.677462 0.452280
vt 0.677462 0.393496
vt 0.261369 0.523235
vt 0.261369 0.357988
vt 0.491336 0.523234
vt 0.491336 0.357987
vt 0.677462 0.452280
vt 0.677462 0.393496
vt 0.848796 0.452280
vt 0.848796 0.393496
vt 0.665124 0.459083
vt 0.832461 0.459083
vt 0.665124 0.386328
vt 0.832461 0.386328
vt 0.836718 0.452214
vt 0.836718 0.393430
vt 0.665385 0.452214
vt 0.665385 0.393430
vt 0.261369 0.523655
vt 0.261369 0.358408
vt 0.491336 0.523655
vt 0.491336 0.358408
vt 0.665385 0.452214
vt 0.665385 0.393430
vt 0.836718 0.452214
vt 0.836718 0.393430
vt 0.868862 0.458135
vt 0.870099 0.387231
vt 0.684352 0.454914
vt 0.685590 0.384010
vt 0.257204 0.364115
vt 0.325309 0.364115
vt 0.257204 0.619321
vt 0.325309 0.619321
vt 0.493307 0.754068
vt 0.252643 0.754068
vt 0.493307 0.358399
vt 0.252643 0.358399
s 0
usemtl HOUSECOLOR01.001.Material_#12
f 37/1/1 38/2/1 39/3/1
f 44/4/2 45/1/2 46/5/2
f 2/6/2 3/7/2 1/8/2
f 1/8/2 3/7/2 4/9/2
f 6/10/3 7/11/3 5/12/3
f 5/12/3 7/11/3 8/13/3
f 10/14/4 11/15/4 9/16/4
f 9/16/4 11/15/4 12/17/4
f 14/18/5 15/19/5 13/20/5
f 13/20/5 15/19/5 16/21/5
f 18/22/1 19/23/1 17/24/1
f 17/24/1 19/23/1 20/25/1
f 22/26/3 23/27/3 21/28/3
f 21/28/3 23/27/3 24/29/3
f 26/30/4 27/31/4 25/32/4
f 25/32/4 27/31/4 28/33/4
f 30/34/5 31/35/5 29/36/5
f 29/36/5 31/35/5 32/37/5
f 34/38/3 35/39/3 33/40/3
f 33/40/3 35/39/3 36/41/3
f 41/42/6 42/43/6 40/44/6
f 40/44/6 42/43/6 43/45/6
f 47/46/7 48/47/8 49/48/8
f 49/48/8 48/47/8 50/49/9
f 51/46/7 52/48/10 53/47/10
f 53/47/10 52/48/10 54/49/11
o m1
v -1.860630 -1.296405 2.980968
v -1.860630 -1.296405 -2.980967
v 0.242630 -1.296405 -3.875258
v 0.242630 -1.296405 3.875258
v 3.261917 -1.296405 -3.875258
v 3.261917 -1.296405 3.875258
v 4.673200 -1.296405 -2.213168
v 4.673200 -1.296405 2.213168
v 2.985181 3.971462 3.522962
v 5.060252 3.971462 1.941375
v 5.060252 3.971462 -1.941375
v 2.985181 3.971463 -3.522962
v -1.860630 -1.296405 2.980968
v 0.242630 -1.296405 3.875258
v -3.188042 1.645885 2.980968
v 0.242630 -1.296405 3.875258
v 3.261917 -1.296405 3.875258
v 4.430789 0.835423 4.774319
v 4.430789 0.835423 4.774319
v -3.188042 1.645885 2.980968
v 4.430789 0.835423 4.774319
v 2.985181 3.971462 3.522962
v -1.860630 3.949903 2.661579
v 3.261917 -1.296405 3.875258
v 4.673200 -1.296405 2.213168
v 5.743221 0.835423 3.120567
v 4.430789 0.835423 4.774319
v 4.673200 -1.296405 2.213168
v 4.673200 -1.296405 -2.213168
v 10.488306 0.750017 -1.682614
v 10.488306 0.750017 1.682614
v 5.743221 0.835423 -3.120567
v 3.261917 -1.296405 -3.875258
v 4.430789 0.835423 -4.774319
v 4.673200 -1.296405 -2.213168
v 4.430789 0.835423 4.774319
v 5.743221 0.835423 3.120567
v 5.060252 3.971462 1.941375
v 2.985181 3.971462 3.522962
v 5.060252 3.971462 -1.941375
v 4.430789 0.835423 -4.774319
v 2.985181 3.971463 -3.522962
v 5.743221 0.835423 -3.120567
v 4.430789 0.835423 -4.774319
v 0.242630 -1.296405 -3.875258
v -3.188042 1.645885 -2.980967
v 0.242630 -1.296405 -3.875258
v 4.430789 0.835423 -4.774319
v 3.261917 -1.296405 -3.875258
v -1.860630 -1.296405 -2.980967
v 2.985181 3.971463 -3.522962
v -3.188042 1.645885 -2.980967
v -1.860630 3.949903 -2.661578
v 4.430789 0.835423 -4.774319
v -1.860630 3.949903 -2.661578
v -3.188042 1.645885 -2.980967
v -3.188042 1.645885 2.980968
v -1.860630 3.949903 2.661579
v -1.860630 -1.296405 -2.980967
v -1.860630 -1.296405 2.980968
v -9.584701 -0.191979 2.661579
v -9.584701 -0.191979 -2.661578
v -1.860630 -1.296405 2.980968
v -3.188042 1.645885 2.980968
v -9.584700 1.645885 2.661579
v -9.584701 -0.191979 2.661579
v -3.188042 1.645885 -2.980967
v -1.860630 -1.296405 -2.980967
v -9.584701 -0.191979 -2.661578
v -9.584700 1.645885 -2.661578
v -3.188042 1.645885 2.980968
v -3.188042 1.645885 -2.980967
v -9.584700 1.645885 -2.661578
v -9.584700 1.645885 2.661579
v 4.673200 -1.296405 2.213168
v 10.488306 0.750017 1.682614
v 5.743221 0.835423 3.120567
v 4.673200 -1.296405 -2.213168
v 5.743221 0.835423 -3.120567
v 10.488306 0.750017 -1.682614
v 10.488306 0.750017 -1.682614
v 5.743221 0.835423 -3.120567
v 5.060252 3.971462 -1.941375
v 10.488306 0.750017 -1.682614
v 5.060252 3.971462 -1.941375
v 5.060252 3.971462 1.941375
v 10.488306 0.750017 1.682614
v 5.743221 0.835423 3.120567
v 10.488306 0.750017 1.682614
v 5.060252 3.971462 1.941375
v 3.269774 3.951051 0.521728
v 4.151412 3.951051 -0.010792
v 4.151412 4.760045 -0.010792
v 3.269774 4.760045 0.521728
v 4.151412 3.951051 -0.010792
v 3.269774 3.951051 -0.543311
v 3.269774 4.760045 -0.543311
v 4.151412 4.760045 -0.010792
v 3.269774 3.951051 -0.543311
v 3.269774 3.951051 0.521728
v 3.269774 4.760045 0.521728
v 3.269774 4.760045 -0.543311
v 1.855412 4.970738 -0.012273
v 4.127858 7.780324 -0.029923
v 4.541342 6.427876 -1.941164
v 1.855412 4.970738 -0.012273
v 4.531528 6.459979 1.905709
v 4.127858 7.780324 -0.029923
v 1.855412 4.970738 -0.012273
v 5.194494 4.291513 1.190754
v 4.531528 6.459979 1.905709
v 1.855412 4.970738 -0.012273
v 4.541342 6.427876 -1.941164
v 5.200560 4.271673 -1.186745
v 5.194494 4.291513 1.190754
v 4.541342 6.427876 -1.941164
v 4.127858 7.780324 -0.029923
v 4.531528 6.459979 1.905709
v 5.194494 4.291513 1.190754
v 5.200560 4.271673 -1.186745
v 4.541342 6.427876 -1.941164
v -9.584700 1.645885 2.661579
v -9.584700 1.645885 -2.661578
v -9.584701 -0.191979 -2.661578
v -9.584701 -0.191979 2.661579
v 2.985181 3.971462 3.522962
v 2.985181 3.971463 -3.522962
v -1.860630 3.949903 -2.661578
v -1.860630 3.949903 2.661579
v 6.092995 -2.040737 -4.324003
v 6.092995 -2.040737 5.077706
v 7.973337 -2.040737 -4.324003
v 7.973337 -2.040737 5.077706
vn -0.0000 -0.3886 0.9214
vn -0.0000 -0.3886 -0.9214
vn 0.2462 -0.4816 0.8411
vn 0.2462 -0.4816 -0.8411
vn 0.2735 0.3901 -0.8792
vn 0.2735 0.3901 0.8792
vn -0.6648 0.5344 -0.5220
vn -0.6674 0.5430 0.5096
vn -0.3814 -0.3925 0.8369
vn -0.3771 -0.4065 -0.8322
vn 0.9563 0.2924 -0.0000
vn -0.0945 -0.9955 -0.0000
vn -0.0000 -1.0000 -0.0000
vn -0.0473 -0.9989 -0.0000
vn 0.2241 -0.9746 -0.0000
vn 0.1120 -0.9937 -0.0000
vn -0.0000 1.0000 -0.0000
vn -0.0022 1.0000 -0.0000
vn -0.3853 -0.1738 0.9063
vn -0.3083 -0.0712 0.9486
vn -0.2257 0.0328 0.9736
vn -0.1905 0.2868 0.9389
vn -0.1810 0.2593 0.9487
vn -0.1388 0.1672 0.9761
vn -0.1810 0.2592 0.9487
vn -0.1713 0.2314 0.9577
vn 0.6368 -0.5497 0.5407
vn 0.6406 -0.5594 0.5261
vn 0.6442 -0.5688 0.5113
vn 0.1121 -0.9937 -0.0000
vn 0.3320 -0.9433 -0.0000
vn 0.2242 -0.9745 -0.0000
vn 0.6442 -0.5688 -0.5113
vn 0.6406 -0.5594 -0.5261
vn 0.6368 -0.5497 -0.5407
vn 0.7262 0.3749 0.5763
vn 0.6291 0.4477 0.6354
vn 0.6291 0.4478 0.6354
vn 0.5205 0.5125 0.6830
vn 0.5205 0.5125 -0.6830
vn 0.6291 0.4478 -0.6354
vn 0.6291 0.4477 -0.6354
vn 0.7262 0.3749 -0.5763
vn -0.2257 0.0328 -0.9736
vn -0.3083 -0.0712 -0.9486
vn -0.1788 -0.0408 -0.9830
vn -0.2189 -0.0987 -0.9707
vn -0.1713 0.2314 -0.9577
vn -0.1810 0.2592 -0.9487
vn -0.1810 0.2593 -0.9487
vn -0.1905 0.2868 -0.9389
vn -0.8665 0.4992 -0.0000
vn -0.1415 -0.9899 -0.0000
vn -0.0946 -0.9955 -0.0000
vn -0.1388 0.1671 0.9761
vn -0.0456 -0.0112 0.9989
vn -0.0413 -0.0000 0.9991
vn -0.2188 -0.0987 -0.9708
vn -0.0470 -0.0100 -0.9988
vn -0.1787 -0.0408 -0.9831
vn -0.1787 -0.0408 -0.9830
vn -0.0499 -0.0000 -0.9988
vn 0.5104 0.8600 -0.0000
vn 0.5170 -0.0000 0.8560
vn 0.5170 -0.0000 -0.8560
vn -1.0000 -0.0000 -0.0000
vn -0.0044 1.0000 -0.0000
vt 0.767030 0.480320
vt 0.924378 0.480320
vt 0.986985 0.621883
vt 0.768234 0.480320
vt 0.988189 0.621883
vt 0.925582 0.480320
vt 0.770093 0.483481
vt 0.996368 0.623712
vt 0.776382 0.621646
vt 0.771753 0.483481
vt 0.778042 0.621646
vt 0.998029 0.623712
vt 0.841434 0.098853
vt 0.704929 0.229992
vt 0.803165 0.327186
vt 0.705704 0.228367
vt 0.842210 0.097228
vt 0.803940 0.325561
vt 0.103163 0.817063
vt 0.012748 0.818540
vt 0.016793 0.890080
vt 0.016384 0.739104
vt 0.103853 0.810852
vt 0.152843 0.781951
vt 0.153116 0.847792
vt 0.104408 0.810852
vt 0.153860 0.846402
vt 0.153514 0.781092
vt 0.642663 0.070847
vt 0.726340 0.070104
vt 0.755894 0.150795
vt 0.518857 0.745147
vt 0.519574 0.853931
vt 0.184928 0.745147
vt 0.184212 0.853931
vt 0.519574 0.933835
vt 0.184212 0.933835
vt 0.206995 0.997238
vt 0.503580 0.997238
vt 0.805633 0.325186
vt 0.990162 0.325186
vt 0.713811 0.477583
vt 1.079363 0.477583
vt 0.660279 0.480320
vt 0.591101 0.663306
vt 0.908527 0.799155
vt 0.658849 0.797895
vt 0.788649 0.479994
vt 0.788610 0.610318
vt 0.970146 0.480014
vt 0.969957 0.610281
vt 0.391990 0.002102
vt 0.392005 0.112620
vt 0.521367 0.002102
vt 0.521482 0.112620
vt 0.970126 0.610281
vt 0.788636 0.610318
vt 0.970315 0.480014
vt 0.788675 0.479994
vt 0.342399 0.003980
vt 0.343137 0.190993
vt 0.521855 0.004776
vt 0.521803 0.191281
vt 0.521857 0.192395
vt 0.344146 0.192818
vt 0.522042 0.005840
vt 0.343245 0.005079
vt 0.592305 0.663306
vt 0.661483 0.480320
vt 0.660053 0.797895
vt 0.909731 0.799155
vt 0.851418 1.003941
vt 0.851418 0.813226
vt 0.782241 0.993996
vt 0.782241 0.823171
vt 0.486335 0.474295
vt 0.489837 0.213258
vt 0.610293 0.474295
vt 0.609650 0.213258
vt 0.306493 0.002907
vt 0.002864 0.002907
vt 0.306406 0.092153
vt 0.002864 0.095510
vt 0.305238 0.092153
vt 0.001697 0.095510
vt 0.305326 0.002907
vt 0.001697 0.002907
vt 0.851359 1.005054
vt 0.526577 0.999632
vt 0.851359 0.814287
vt 0.526577 0.809704
vt 0.997927 0.328733
vt 0.801476 0.328733
vt 0.944196 0.099190
vt 0.854816 0.099190
vt 0.844368 0.628702
vt 0.844368 0.723690
vt 0.798422 0.628702
vt 0.798422 0.723690
vt 0.844091 0.628702
vt 0.844091 0.723690
vt 0.798145 0.628702
vt 0.798145 0.723690
vt 0.912072 0.500683
vt 0.912072 0.595670
vt 0.800646 0.500683
vt 0.800646 0.595670
vt 0.753167 0.150687
vt 0.686137 0.192504
vt 0.639935 0.070738
vt 0.616095 0.151888
vt 0.834346 0.106046
vt 0.834346 0.002933
vt 0.957451 0.106046
vt 0.957451 0.002933
vt 0.521584 0.529407
vt 0.487846 0.743806
vt 0.184725 0.529407
vt 0.218463 0.743806
vt 0.220329 0.082833
vt 0.001893 0.082834
vt 0.220329 0.002822
vt 0.001893 0.002823
s 0
usemtl CHASSIS.002.Material_#10
f 70/50/12 71/51/12 72/52/12
f 101/53/13 102/54/13 103/55/13
f 129/56/14 130/57/14 131/58/14
f 132/59/15 133/60/15 134/61/15
f 135/62/16 136/63/16 137/64/16
f 142/65/17 143/66/17 144/67/17
f 157/68/18 158/69/18 159/70/18
f 160/68/19 161/71/19 162/69/19
f 163/72/20 164/73/20 165/74/20
f 166/75/21 167/76/21 168/77/21
f 173/78/22 174/79/22 175/80/22
f 56/81/23 57/82/24 55/83/25
f 55/83/25 57/82/24 58/84/24
f 57/82/24 59/85/24 58/84/24
f 58/84/24 59/85/24 60/86/24
f 62/87/26 60/86/24 61/88/27
f 61/88/27 60/86/24 59/85/24
f 64/89/28 65/90/28 63/91/29
f 63/91/29 65/90/28 66/92/29
f 67/93/30 68/50/31 69/94/31
f 69/94/31 68/50/31 73/52/32
f 75/52/33 76/95/34 74/94/35
f 74/94/35 76/95/36 77/96/37
f 79/97/38 80/98/39 78/99/39
f 78/99/39 80/98/39 81/100/40
f 83/101/41 84/102/42 82/103/43
f 82/103/43 84/102/42 85/104/42
f 88/105/44 86/106/45 87/107/45
f 87/107/45 86/106/45 89/108/46
f 91/109/47 92/110/48 90/111/48
f 90/111/49 92/110/49 93/112/50
f 96/113/51 94/114/52 95/115/52
f 95/115/53 94/114/53 97/116/54
f 98/54/55 99/53/56 100/117/57
f 100/117/57 99/53/56 104/118/58
f 107/119/59 105/120/60 106/117/60
f 106/117/61 105/120/61 108/54/62
f 110/121/63 111/122/63 109/123/63
f 109/123/63 111/122/63 112/124/63
f 114/125/25 115/126/64 113/127/65
f 113/127/65 115/126/64 116/128/64
f 118/129/66 119/130/67 117/131/67
f 117/131/67 119/130/67 120/132/68
f 122/133/69 123/134/70 121/135/71
f 121/135/72 123/134/70 124/136/73
f 126/137/28 127/138/28 125/139/28
f 125/139/28 127/138/28 128/140/28
f 139/141/74 140/142/74 138/143/74
f 138/143/74 140/142/74 141/144/74
f 146/145/75 147/146/75 145/147/75
f 145/147/75 147/146/75 148/148/75
f 150/149/76 151/150/76 149/151/76
f 149/151/76 151/150/76 152/152/76
f 154/153/77 155/154/77 153/155/77
f 153/155/77 155/154/77 156/156/77
f 170/157/22 171/158/22 169/159/22
f 169/159/22 171/158/22 172/160/22
f 177/161/77 178/162/77 176/163/77
f 176/163/77 178/162/77 179/164/77
f 181/165/29 182/166/78 180/167/29
f 180/167/29 182/166/78 183/168/78
f 184/169/28 185/170/28 186/171/28
f 186/171/28 185/170/28 187/172/28
