# Blender 5.1.2
# www.blender.org
mtllib v1.mtl
o m1
v 8.197433 6.594038 2.288164
v 7.704382 6.594038 -2.402908
v 7.331538 8.986173 2.379174
v 7.331538 8.986173 2.379174
v 7.704382 6.594038 -2.402908
v 6.838486 8.986174 -2.311898
v 6.838486 8.986174 -2.311898
v 7.631193 6.567253 -2.395216
v 7.331538 8.986173 2.379174
v 7.331538 8.986173 2.379174
v 7.631193 6.567253 -2.395216
v 8.124245 6.567253 2.295857
v 19.916756 1.584072 4.396780
v 16.720594 1.676749 4.396780
v 20.051991 -1.817993 4.396780
v 20.051991 -1.817993 4.396780
v 16.720594 1.676749 4.396780
v 18.566069 -1.818064 4.396780
v 2.970826 -1.818065 4.396780
v 2.970826 2.541726 4.396780
v 5.854166 6.245008 3.643762
v 16.555052 -1.818064 4.162339
v 14.130345 1.295047 4.162339
v 14.130346 -1.818065 6.196607
v 9.508780 -1.818065 6.196607
v 7.084074 -1.818064 4.162339
v 9.508780 1.295047 4.162339
v 16.720594 1.676749 -4.416780
v 5.854167 6.245008 -3.663762
v 16.720594 1.676749 4.396780
v 5.854166 6.245008 3.643762
v 19.916756 1.584072 4.396780
v 19.916758 1.584072 -4.416780
v 16.720594 1.676749 4.396780
v 16.720594 1.676749 -4.416780
v 20.051991 -1.817993 4.396780
v 20.051991 -1.817992 -4.416781
v 19.916756 1.584072 4.396780
v 19.916758 1.584072 -4.416780
v 18.566069 -1.818064 4.396780
v 18.566069 -1.818064 -4.416781
v 20.051991 -1.817993 4.396780
v 20.051991 -1.817992 -4.416781
v 2.970826 2.541727 -4.416779
v 2.970826 2.541726 4.396780
v 5.854167 6.245008 -3.663762
v 5.854166 6.245008 3.643762
v 19.916758 1.584072 -4.416780
v 20.051991 -1.817992 -4.416781
v 16.720594 1.676749 -4.416780
v 18.566069 -1.818064 -4.416781
v 16.720594 1.676749 -4.416780
v 18.566069 -1.818064 -4.416781
v 2.970826 2.541727 -4.416779
v 2.970826 -1.818064 -4.416779
v 5.854167 6.245008 -3.663762
v 16.555050 -1.818064 -4.182339
v 14.130345 -1.818064 -6.216607
v 14.130344 1.295048 -4.182339
v 9.508780 -1.818064 -6.216606
v 9.508780 1.295048 -4.182339
v 7.084074 -1.818064 -4.182339
v -7.166348 2.541726 7.929647
v -11.603788 -1.818064 3.619727
v -7.166348 -1.818065 7.929646
v -11.603788 -1.818064 3.619727
v -7.166348 2.541726 7.929647
v -14.732689 2.541726 3.340985
v -7.129114 -1.818064 -7.949644
v -11.603789 -1.818064 -3.639726
v -7.129114 2.541727 -7.949644
v -14.732689 2.541727 -3.360982
v -7.129114 2.541727 -7.949644
v -11.603789 -1.818064 -3.639726
v 2.970826 -1.818065 7.929646
v 2.970826 2.541726 7.929646
v -7.166348 -1.818065 7.929646
v -7.166348 2.541726 7.929647
v -11.603789 -1.818064 -3.639726
v -11.603788 -1.818064 3.619727
v -14.732689 2.541727 -3.360982
v -14.732689 2.541726 3.340985
v 2.970826 -1.818064 -7.949644
v -7.129114 -1.818064 -7.949644
v 2.970826 2.541727 -7.949644
v -7.129114 2.541727 -7.949644
v 2.970826 2.541726 7.929646
v 2.970826 2.541726 3.619728
v -7.166348 2.541726 7.929647
v -14.732689 2.541726 3.340985
v 2.970826 2.541727 -3.639727
v -14.732689 2.541727 -3.360982
v -7.129114 2.541727 -7.949644
v 2.970826 2.541727 -7.949644
v 2.970826 2.541726 3.619728
v 2.970826 2.541726 7.929646
v 2.970826 -1.818065 3.619728
v 2.970826 -1.818065 7.929646
v 2.970826 -1.818064 -7.949644
v 2.970826 2.541727 -7.949644
v 2.970826 -1.818064 -3.639727
v 2.970826 2.541727 -3.639727
v -11.889075 -1.104800 -6.890643
v 3.981480 -2.351724 -4.166515
v -15.448174 2.369256 -3.117604
v 3.981481 1.890996 -2.288908
v 3.981151 3.745893 -10.312674
v 3.981151 -0.640477 -12.237223
v -5.357268 3.714078 -10.240162
v -5.357268 -0.672291 -12.164712
v 2.863480 3.250031 -3.134732
v 2.863253 4.593623 -8.942212
v -13.181490 3.554509 -3.073362
v -4.784513 4.566918 -8.882979
v 3.981480 -2.351724 -4.166515
v 3.981151 -0.640477 -12.237223
v 3.981481 1.890996 -2.288908
v 3.981151 3.745893 -10.312674
v -11.889075 -1.104800 -6.890643
v -5.357268 -0.672291 -12.164712
v 3.981480 -2.351724 -4.166515
v 3.981151 -0.640477 -12.237223
v -15.448174 2.369256 -3.117604
v -11.889075 -1.104800 -6.890643
v -11.889076 -1.104800 6.870645
v -15.448174 2.369257 3.097605
v 3.981481 -2.351724 4.146516
v 3.981481 1.890996 2.268908
v 3.981151 3.745893 10.292673
v -5.357269 3.714079 10.220163
v 3.981151 -0.640477 12.217223
v -5.357268 -0.672291 12.144714
v 2.863480 3.250031 3.114732
v -13.181492 3.554510 3.053363
v 2.863253 4.593624 8.922215
v -4.784513 4.566919 8.862981
v 3.981481 -2.351724 4.146516
v 3.981481 1.890996 2.268908
v 3.981151 -0.640477 12.217223
v 3.981151 3.745893 10.292673
v -11.889076 -1.104800 6.870645
v 3.981481 -2.351724 4.146516
v -5.357268 -0.672291 12.144714
v 3.981151 -0.640477 12.217223
v -15.448174 2.369257 3.097605
v -11.889076 -1.104800 6.870645
vn 0.9345 0.3420 -0.0982
vn -0.9446 -0.3130 0.0993
vn -0.0000 -0.0000 1.0000
vn -0.6967 -0.0000 0.7173
vn -0.4942 -0.3026 0.8150
vn -0.6937 -0.0000 -0.7202
vn -0.4927 -0.3014 -0.8164
vn 0.0040 0.0637 0.9980
vn 0.0120 0.1903 0.9817
vn 0.5747 0.4476 0.6850
vn 0.1999 0.5360 0.8202
vn 0.3014 0.5216 0.7982
vn 0.3013 0.5216 0.7982
vn 0.1998 0.5360 0.8202
vn -0.1998 0.5360 0.8202
vn -0.5747 0.4476 0.6850
vn -0.1999 0.5360 0.8202
vn -0.3014 0.5216 0.7982
vn -0.3013 0.5216 0.7982
vn 0.3875 0.9218 -0.0000
vn 0.3875 0.9219 -0.0000
vn 0.0290 0.9996 -0.0000
vn 0.9992 0.0397 -0.0000
vn -0.0000 -1.0000 -0.0000
vn -0.7890 0.6143 -0.0000
vn -0.0000 -0.0000 -1.0000
vn 0.0040 0.0637 -0.9980
vn 0.0060 0.0955 -0.9954
vn 0.0120 0.1903 -0.9817
vn 0.0060 0.0956 -0.9954
vn 0.5747 0.4476 -0.6850
vn 0.3014 0.5216 -0.7982
vn 0.1999 0.5360 -0.8202
vn 0.1998 0.5360 -0.8202
vn 0.3013 0.5216 -0.7982
vn -0.1998 0.5360 -0.8202
vn -0.3013 0.5216 -0.7982
vn -0.3014 0.5216 -0.7982
vn -0.1999 0.5360 -0.8202
vn -0.5747 0.4476 -0.6850
vn -0.8124 -0.5831 -0.0000
vn -0.0000 1.0000 -0.0000
vn 1.0000 -0.0000 -0.0000
vn -0.1162 -0.9650 0.2351
vn -0.0776 -0.9380 0.3379
vn -0.1095 -0.6229 0.7746
vn -0.0776 -0.9380 0.3378
vn -0.0489 -0.4042 0.9134
vn 0.4533 0.7461 -0.4876
vn 0.7041 0.2853 -0.6502
vn -0.3114 0.6060 -0.7319
vn -0.3114 0.6060 -0.7320
vn 0.7041 0.2853 -0.6503
vn -0.3250 0.3800 -0.8660
vn -0.3115 0.6060 -0.7319
vn -0.3251 0.3800 -0.8660
vn -0.5949 0.2836 -0.7521
vn -0.5269 0.5580 -0.6411
vn 0.3947 0.8952 0.2071
vn 0.3246 0.9450 0.0408
vn -0.2044 0.9724 -0.1122
vn -0.1011 0.9361 -0.3370
vn 0.7041 0.2854 -0.6503
vn 0.9252 0.3696 0.0855
vn 0.9252 0.3696 0.0854
vn -0.1161 -0.9650 0.2351
vn -0.0254 -0.9839 -0.1769
vn 0.0017 -0.9783 -0.2074
vn -0.1162 -0.9650 -0.2351
vn -0.1095 -0.6229 -0.7746
vn -0.0776 -0.9380 -0.3379
vn -0.0776 -0.9380 -0.3378
vn -0.1095 -0.6228 -0.7746
vn -0.0489 -0.4042 -0.9134
vn 0.4533 0.7461 0.4876
vn -0.3114 0.6060 0.7319
vn 0.7041 0.2853 0.6503
vn -0.3114 0.6060 0.7320
vn -0.3250 0.3800 0.8660
vn -0.5269 0.5580 0.6411
vn -0.5949 0.2836 0.7521
vn -0.3115 0.6060 0.7319
vn -0.3251 0.3800 0.8660
vn 0.3947 0.8951 -0.2071
vn -0.2045 0.9724 0.1122
vn 0.3246 0.9450 -0.0408
vn -0.2044 0.9724 0.1123
vn -0.1011 0.9361 0.3370
vn 0.9252 0.3696 -0.0854
vn 0.7041 0.2854 0.6503
vn 0.4533 0.7462 0.4876
vn -0.0254 -0.9839 0.1769
vn 0.0017 -0.9783 0.2074
vt 0.265625 1.000000
vt 0.437500 0.882812
vt 0.437500 1.000000
vt 0.265625 0.882812
vt 0.492188 1.000000
vt 0.503906 0.933594
vt 0.437953 1.000000
vt 0.480469 0.640625
vt 0.593750 0.558594
vt 0.480469 0.558594
vt 0.593750 0.640625
vt 0.437500 0.972656
vt 0.531250 0.640625
vt 0.437500 0.640625
vt 0.593750 0.703125
vt -0.007812 0.882812
vt 0.062500 0.976562
vt 0.062500 0.882812
vt 0.203125 0.882812
vt 0.273438 0.882812
vt 0.203125 0.976562
vt 0.000000 0.882812
vt 0.375000 0.863281
vt 0.000000 0.667969
vt 0.375000 0.687500
vt 0.617188 0.457031
vt 0.429688 0.457031
vt 0.617188 0.531250
vt 0.429688 0.531250
vt 0.623409 0.007087
vt 0.624064 0.209744
vt 0.501193 0.007087
vt 0.501848 0.209744
vt 0.066105 0.476016
vt 0.066105 0.647891
vt 0.023136 0.476016
vt 0.023136 0.647891
vt 0.839844 0.457031
vt 0.839844 0.535156
vt 1.000000 0.457031
vt 1.000000 0.535156
vt 0.843750 0.457031
vt 0.617188 0.535156
vt 0.843750 0.535156
vt 1.000000 0.558594
vt 1.000000 0.679688
vt 0.761719 0.558594
vt 0.593750 0.679688
vt 1.000000 0.882812
vt 0.593750 0.882812
vt 0.761719 1.000000
vt 1.000000 1.000000
vt 0.730469 0.535156
vt 0.617188 0.453125
vt 0.730469 0.453125
vt 0.000000 0.000000
vt 0.000000 0.000000
vt 0.000500 0.000499
vt 0.999500 0.010179
vt 1.617602 0.533640
vt 1.617327 0.456220
vt 1.759761 0.533640
vt 1.759486 0.456220
vt 1.904998 0.462861
vt 1.980999 0.533640
vt -0.024691 1.698299
vt -0.024048 1.577866
vt -0.399215 1.698253
vt -0.207053 1.578205
vt 0.971778 0.453731
vt 0.843289 0.453647
vt 0.970817 0.533851
vt 0.843221 0.533806
vt 0.979077 0.349464
vt 0.875291 0.218496
vt 0.626278 0.373019
vt 0.629879 0.216969
s 0
usemtl RADARDISH01.001.Overlord_Tank
f 4/1/1 5/2/1 6/3/1
f 7/1/2 8/4/2 9/3/2
f 10/3/2 11/4/2 12/2/2
f 1/4/1 2/2/1 3/1/1
usemtl TURRET01.008.07_-_Default
f 13/5/3 14/6/3 15/7/3
f 63/8/4 64/9/4 65/10/4
f 66/9/5 67/8/5 68/11/5
f 69/10/6 70/9/6 71/8/6
f 72/11/7 73/8/7 74/9/7
f 16/7/3 17/6/8 18/12/3
f 18/12/3 17/6/8 20/13/8
f 18/12/3 20/13/8 19/14/3
f 20/13/8 17/6/8 21/15/9
f 22/16/10 23/17/11 24/18/12
f 24/18/13 23/17/14 25/19/15
f 26/20/16 25/19/17 27/21/18
f 27/21/19 25/19/15 23/17/14
f 28/22/20 29/23/20 30/24/20
f 30/24/21 29/23/21 31/25/21
f 32/26/22 33/27/22 34/28/22
f 34/28/22 33/27/22 35/29/22
f 36/30/23 37/31/23 38/32/23
f 38/32/23 37/31/23 39/33/23
f 40/34/24 41/35/24 42/36/24
f 42/36/24 41/35/24 43/37/24
f 44/29/25 45/28/25 46/27/25
f 46/27/25 45/28/25 47/26/25
f 48/5/26 49/7/26 50/6/26
f 50/6/26 49/7/26 51/12/26
f 55/14/26 54/13/27 53/12/26
f 53/12/26 54/13/27 52/6/28
f 56/15/29 52/6/30 54/13/27
f 57/16/31 58/18/32 59/17/33
f 59/17/34 58/18/35 60/19/36
f 59/17/34 60/19/36 61/21/37
f 61/21/38 60/19/39 62/20/40
f 75/38/3 76/39/3 77/40/3
f 77/40/3 76/39/3 78/41/3
f 79/26/41 80/42/41 81/43/41
f 81/43/41 80/42/41 82/44/41
f 83/38/26 84/40/26 85/39/26
f 85/39/26 84/40/26 86/41/26
f 87/45/42 88/46/42 89/47/42
f 89/47/42 88/46/42 90/48/42
f 88/46/42 91/49/42 90/48/42
f 90/48/42 91/49/42 92/50/42
f 93/51/42 92/50/42 94/52/42
f 94/52/42 92/50/42 91/49/42
f 95/43/43 96/53/43 97/54/43
f 97/54/43 96/53/43 98/55/43
f 99/55/43 100/53/43 101/54/43
f 101/54/43 100/53/43 102/43/43
f 103/56/44 104/57/45 105/58/46
f 105/58/46 104/57/47 106/59/48
f 107/60/49 108/61/50 109/62/51
f 109/62/52 108/61/53 110/63/54
f 109/62/55 110/63/56 124/64/57
f 123/65/58 109/62/51 124/64/57
f 111/66/59 112/67/60 113/68/61
f 113/68/61 112/67/60 114/69/62
f 115/70/43 116/71/63 117/72/64
f 117/72/65 116/71/53 118/73/49
f 119/74/66 120/75/67 121/76/47
f 121/76/45 120/75/67 122/77/68
f 125/56/69 126/58/70 127/57/71
f 127/57/72 126/58/73 128/59/74
f 129/60/75 130/62/76 131/61/77
f 131/61/77 130/62/78 132/63/79
f 145/65/80 146/64/81 130/62/76
f 130/62/82 146/64/81 132/63/83
f 133/66/84 134/68/85 135/67/86
f 135/67/86 134/68/87 136/69/88
f 137/70/43 138/72/89 139/71/77
f 139/71/90 138/72/89 140/73/91
f 141/74/69 142/76/72 143/75/92
f 143/75/92 142/76/71 144/77/93
o m2
v -8.109960 13.821030 -0.319374
v -8.419333 13.821030 -0.010001
v -8.109960 25.399609 -0.009999
v -8.419333 13.821030 -0.010001
v -8.109960 13.821030 0.299373
v -8.109960 25.399609 -0.009999
v -8.109960 13.821030 -0.319374
v -8.109960 25.399609 -0.009999
v -7.800587 13.821030 -0.010001
v -7.800587 13.821030 -0.010001
v -8.109960 25.399609 -0.009999
v -8.109960 13.821030 0.299373
v -8.083473 11.475924 2.829552
v -5.688037 11.475924 1.393897
v -10.580400 11.475924 1.452329
v -5.688037 11.475924 -1.433553
v -10.580400 11.475924 -1.454634
v -8.083473 11.475924 -2.814623
v -8.083473 9.381306 3.032491
v -8.083473 11.475924 2.829552
v -10.782596 9.381306 1.505292
v -10.580400 11.475924 1.452329
v -5.485587 9.381306 -1.487345
v -5.688037 11.475924 -1.433553
v -5.485587 9.381306 1.510636
v -5.688037 11.475924 1.393897
v -5.485587 9.381306 1.510636
v -5.688037 11.475924 1.393897
v -8.083473 9.381306 3.032491
v -8.083473 11.475924 2.829552
v -8.083473 9.381306 -3.016732
v -8.083473 11.475924 -2.814623
v -5.485587 9.381306 -1.487345
v -5.688037 11.475924 -1.433553
v -10.782596 9.381306 1.505292
v -10.580400 11.475924 1.452329
v -10.782596 9.381306 -1.571429
v -10.580400 11.475924 -1.454634
v -10.782596 9.381306 -1.571429
v -10.580400 11.475924 -1.454634
v -8.083473 9.381306 -3.016732
v -8.083473 11.475924 -2.814623
v -9.330072 11.286701 -1.233219
v -6.883632 11.286701 -1.233219
v -9.330072 11.286701 1.213221
v -6.883632 11.286701 1.213221
v -7.257394 13.971238 0.839459
v -7.257394 13.971238 -0.859458
v -8.956310 13.971238 0.839459
v -8.956310 13.971238 -0.859458
v -6.883632 11.286701 1.213221
v -7.257394 13.971238 0.839459
v -9.330072 11.286701 1.213221
v -8.956310 13.971238 0.839459
v -6.883632 11.286701 -1.233219
v -7.257394 13.971238 -0.859458
v -6.883632 11.286701 1.213221
v -7.257394 13.971238 0.839459
v -9.330072 11.286701 -1.233219
v -8.956310 13.971238 -0.859458
v -6.883632 11.286701 -1.233219
v -7.257394 13.971238 -0.859458
v -9.330072 11.286701 1.213221
v -8.956310 13.971238 0.839459
v -9.330072 11.286701 -1.233219
v -8.956310 13.971238 -0.859458
v 2.898070 6.182286 5.311813
v 2.898070 6.182286 -5.331812
v -4.400776 6.182286 5.311813
v -4.400776 6.182286 -5.331812
v 3.915646 2.612305 6.535828
v 2.898070 6.182286 5.311813
v -5.896498 2.405494 6.535828
v -4.400776 6.182286 5.311813
v 3.915646 2.612305 -6.555830
v 2.898070 6.182286 -5.331812
v 3.915646 2.612305 6.535828
v 2.898070 6.182286 5.311813
v -5.896498 2.405494 -6.555830
v -4.400776 6.182286 -5.331812
v 3.915646 2.612305 -6.555830
v 2.898070 6.182286 -5.331812
v -5.896498 2.405494 6.535828
v -4.400776 6.182286 5.311813
v -5.896498 2.405494 -6.555830
v -4.400776 6.182286 -5.331812
v -5.984096 9.379804 2.420502
v -5.984097 9.379804 -2.440503
v -10.376484 9.379804 2.420503
v -10.376484 9.379804 -2.440502
v 1.599939 2.525305 3.604594
v -5.984096 9.379804 2.420502
v -14.680110 2.525305 3.201515
v -10.376484 9.379804 2.420503
v 1.599939 2.525305 -3.624594
v -5.984097 9.379804 -2.440503
v 1.599939 2.525305 3.604594
v -5.984096 9.379804 2.420502
v -14.680110 2.525305 -3.221515
v -10.376484 9.379804 -2.440502
v 1.599939 2.525305 -3.624594
v -5.984097 9.379804 -2.440503
v -14.680110 2.525305 3.201515
v -10.376484 9.379804 2.420503
v -14.680110 2.525305 -3.221515
v -10.376484 9.379804 -2.440502
v -9.186156 12.061058 6.227992
v -12.981043 12.061058 4.037013
v -9.405502 11.409009 4.919011
v -11.737518 11.409009 3.572621
v -9.224018 11.041067 3.424835
v -10.549832 11.037070 2.659376
v -8.824003 10.947233 2.211819
v -9.683771 10.947233 1.715431
v -12.981067 8.477528 4.037055
v -11.737519 9.232754 3.572621
v -12.981043 12.061058 4.037013
v -11.737518 11.409009 3.572621
v -10.549836 9.758158 2.659381
v -10.549832 11.037070 2.659376
v -9.683771 10.947233 1.715431
v -9.683254 9.999368 1.714537
v -9.186180 8.477529 6.228034
v -9.186156 12.061058 6.227992
v -9.405503 9.232754 4.919011
v -9.405502 11.409009 4.919011
v -9.224024 9.748721 3.424846
v -9.224018 11.041067 3.424835
v -8.823486 9.999369 2.210925
v -8.824003 10.947233 2.211819
v -9.186180 8.477529 6.228034
v -9.405503 9.232754 4.919011
v -12.981067 8.477528 4.037055
v -11.737519 9.232754 3.572621
v -9.224024 9.748721 3.424846
v -10.549836 9.758158 2.659381
v -9.683254 9.999368 1.714537
v -8.823486 9.999369 2.210925
v -9.171556 11.691642 6.236421
v -9.186156 12.061058 6.227992
v -12.993733 11.688982 4.029686
v -12.981043 12.061058 4.037013
v -9.186180 8.477529 6.228034
v -9.171556 8.848252 6.236421
v -12.981067 8.477528 4.037055
v -12.993733 8.845592 4.029686
v -12.668543 11.689825 4.217435
v -12.993733 11.688982 4.029686
v -12.668543 8.841555 4.217435
v -9.171556 11.691642 6.236421
v -9.493881 11.695145 6.050327
v -9.171556 8.848252 6.236421
v -9.493881 8.846875 6.050327
v -9.186156 12.061058 6.227992
v -9.405502 11.409009 4.919011
v -12.981043 12.061058 4.037013
v -11.737518 11.409009 3.572621
v -9.224018 11.041067 3.424835
v -10.549832 11.037070 2.659376
v -9.683771 10.947233 1.715431
v -8.824003 10.947233 2.211819
v -12.981067 8.477528 4.037055
v -12.981043 12.061058 4.037013
v -11.737519 9.232754 3.572621
v -11.737518 11.409009 3.572621
v -10.549836 9.758158 2.659381
v -10.549832 11.037070 2.659376
v -9.683254 9.999368 1.714537
v -9.683771 10.947233 1.715431
v -9.186180 8.477530 6.228034
v -12.981067 8.477528 4.037055
v -9.405503 9.232754 4.919012
v -11.737519 9.232754 3.572621
v -9.224024 9.748721 3.424847
v -10.549836 9.758158 2.659381
v -8.823486 9.999369 2.210925
v -9.683254 9.999368 1.714537
v -9.186180 8.477530 6.228034
v -9.405503 9.232754 4.919012
v -9.186156 12.061058 6.227992
v -9.405502 11.409009 4.919011
v -9.224024 9.748721 3.424847
v -9.224018 11.041067 3.424835
v -8.824003 10.947233 2.211819
v -8.823486 9.999369 2.210925
v -12.973932 12.061058 -4.061119
v -9.179046 12.061058 -6.252098
v -11.730648 11.409009 -3.596588
v -9.398632 11.409009 -4.942978
v -10.527396 11.041067 -2.692329
v -9.201582 11.037070 -3.457789
v -9.676901 10.947233 -1.739398
v -8.817132 10.947233 -2.235786
v -9.179070 8.477528 -6.252140
v -9.398632 9.232754 -4.942979
v -9.179046 12.061058 -6.252098
v -9.398632 11.409009 -4.942978
v -9.201585 9.758158 -3.457795
v -9.201582 11.037070 -3.457789
v -8.817132 10.947233 -2.235786
v -8.816616 9.999368 -2.234892
v -12.973957 8.477529 -4.061160
v -12.973932 12.061058 -4.061119
v -11.730648 9.232754 -3.596589
v -11.730648 11.409009 -3.596588
v -10.527403 9.748721 -2.692341
v -10.527396 11.041067 -2.692329
v -9.676384 9.999369 -1.738504
v -9.676901 10.947233 -1.739398
v -12.973957 8.477529 -4.061160
v -11.730648 9.232754 -3.596589
v -9.179070 8.477528 -6.252140
v -9.398632 9.232754 -4.942979
v -10.527403 9.748721 -2.692341
v -9.201585 9.758158 -3.457795
v -8.816616 9.999368 -2.234892
v -9.676384 9.999369 -1.738504
v -12.988532 11.691642 -4.052690
v -12.973932 12.061058 -4.061119
v -9.166355 11.688982 -6.259425
v -9.179046 12.061058 -6.252098
v -12.973957 8.477529 -4.061160
v -12.988532 8.848252 -4.052689
v -9.179070 8.477528 -6.252140
v -9.166355 8.845592 -6.259425
v -9.491547 11.689825 -6.071675
v -9.166355 11.688982 -6.259425
v -9.491547 8.841555 -6.071675
v -12.988532 11.691642 -4.052690
v -12.666207 11.695145 -4.238783
v -12.988532 8.848252 -4.052689
v -12.666207 8.846875 -4.238783
v -12.973932 12.061058 -4.061119
v -11.730648 11.409009 -3.596588
v -9.179046 12.061058 -6.252098
v -9.398632 11.409009 -4.942978
v -10.527396 11.041067 -2.692329
v -9.201582 11.037070 -3.457789
v -8.817132 10.947233 -2.235786
v -9.676901 10.947233 -1.739398
v -9.179070 8.477528 -6.252140
v -9.179046 12.061058 -6.252098
v -9.398633 9.232754 -4.942979
v -9.398632 11.409009 -4.942978
v -9.201586 9.758158 -3.457795
v -9.201582 11.037070 -3.457789
v -8.816616 9.999368 -2.234892
v -8.817132 10.947233 -2.235786
v -12.973957 8.477530 -4.061160
v -9.179070 8.477528 -6.252140
v -11.730648 9.232754 -3.596589
v -9.398633 9.232754 -4.942979
v -10.527403 9.748721 -2.692341
v -9.201586 9.758158 -3.457795
v -9.676384 9.999369 -1.738504
v -8.816616 9.999368 -2.234892
v -12.973957 8.477530 -4.061160
v -11.730648 9.232754 -3.596589
v -12.973932 12.061058 -4.061119
v -11.730648 11.409009 -3.596588
v -10.527403 9.748721 -2.692341
v -10.527396 11.041067 -2.692329
v -9.676901 10.947233 -1.739398
v -9.676384 9.999369 -1.738504
v -2.169413 12.061058 -2.196874
v -2.169413 12.061058 2.185084
v -3.193351 11.409009 -1.352423
v -3.193351 11.409009 1.340356
v -4.578087 11.041067 -0.762506
v -4.578087 11.037070 0.768412
v -5.828598 10.947233 -0.502421
v -5.828598 10.947233 0.490354
v -2.169365 8.477528 2.185084
v -3.193350 9.232754 1.340357
v -2.169413 12.061058 2.185084
v -3.193351 11.409009 1.340356
v -4.578080 9.758158 0.768413
v -4.578087 11.037070 0.768412
v -5.828598 10.947233 0.490354
v -5.829630 9.999368 0.490354
v -2.169365 8.477529 -2.196874
v -2.169413 12.061058 -2.196874
v -3.193350 9.232754 -1.352423
v -3.193351 11.409009 -1.352423
v -4.578074 9.748721 -0.762506
v -4.578087 11.041067 -0.762506
v -5.829630 9.999369 -0.502421
v -5.828598 10.947233 -0.502421
v -2.169365 8.477529 -2.196874
v -3.193350 9.232754 -1.352423
v -2.169365 8.477528 2.185084
v -3.193350 9.232754 1.340357
v -4.578074 9.748721 -0.762506
v -4.578080 9.758158 0.768413
v -5.829630 9.999368 0.490354
v -5.829630 9.999369 -0.502421
v -2.169413 11.691642 -2.213732
v -2.169413 12.061058 -2.196874
v -2.169412 11.688982 2.199738
v -2.169413 12.061058 2.185084
v -2.169365 8.477529 -2.196874
v -2.169413 8.848252 -2.213732
v -2.169365 8.477528 2.185084
v -2.169412 8.845592 2.199738
v -2.169412 11.689825 1.824239
v -2.169412 11.688982 2.199738
v -2.169412 8.841555 1.824239
v -2.169413 11.691642 -2.213732
v -2.169413 11.695145 -1.841544
v -2.169413 8.848252 -2.213732
v -2.169413 8.846875 -1.841544
v -2.169412 12.061058 -2.196874
v -3.193350 11.409009 -1.352423
v -2.169412 12.061058 2.185084
v -3.193350 11.409009 1.340356
v -4.578087 11.041067 -0.762506
v -4.578087 11.037070 0.768412
v -5.828598 10.947233 0.490354
v -5.828598 10.947233 -0.502421
v -2.169364 8.477528 2.185084
v -2.169412 12.061058 2.185084
v -3.193349 9.232754 1.340357
v -3.193350 11.409009 1.340356
v -4.578080 9.758158 0.768413
v -4.578087 11.037070 0.768412
v -5.829630 9.999368 0.490354
v -5.828598 10.947233 0.490354
v -2.169364 8.477530 -2.196874
v -2.169364 8.477528 2.185084
v -3.193349 9.232754 -1.352423
v -3.193349 9.232754 1.340357
v -4.578074 9.748721 -0.762506
v -4.578080 9.758158 0.768413
v -5.829630 9.999369 -0.502421
v -5.829630 9.999368 0.490354
v -2.169364 8.477530 -2.196874
v -3.193349 9.232754 -1.352423
v -2.169412 12.061058 -2.196874
v -3.193350 11.409009 -1.352423
v -4.578074 9.748721 -0.762506
v -4.578087 11.041067 -0.762506
v -5.828598 10.947233 -0.502421
v -5.829630 9.999369 -0.502421
vn -0.7070 0.0189 -0.7070
vn -0.7070 0.0189 0.7070
vn 0.7070 0.0189 -0.7070
vn 0.7070 0.0189 0.7070
vn -0.0000 1.0000 -0.0000
vn -0.4907 0.0840 0.8673
vn -0.4863 0.0763 0.8705
vn -0.4818 0.0686 0.8736
vn 0.9954 0.0962 -0.0000
vn 0.5031 0.0965 0.8588
vn 0.5077 0.0897 0.8568
vn 0.5123 0.0828 0.8548
vn 0.5056 0.0829 -0.8588
vn 0.5019 0.0766 -0.8615
vn 0.4982 0.0703 -0.8642
vn -0.9954 0.0961 -0.0000
vn -0.4700 0.0943 -0.8776
vn -0.4733 0.0894 -0.8764
vn -0.4766 0.0844 -0.8751
vn -0.0000 -1.0000 -0.0000
vn -0.0000 0.1379 0.9904
vn 0.9904 0.1379 -0.0000
vn -0.0000 0.1379 -0.9904
vn -0.9904 0.1379 -0.0000
vn -0.0068 0.3226 0.9465
vn -0.0034 0.3155 0.9489
vn -0.0034 0.3154 0.9489
vn -0.0000 0.3083 0.9513
vn 0.9617 0.2741 -0.0000
vn -0.0065 0.3106 -0.9505
vn -0.0033 0.3175 -0.9483
vn -0.0000 0.3243 -0.9459
vn -0.9297 0.3682 -0.0000
vn 0.3592 0.9333 -0.0000
vn -0.0245 0.1438 0.9893
vn -0.0123 0.1285 0.9916
vn -0.0122 0.1285 0.9916
vn -0.0000 0.1132 0.9936
vn 0.6705 0.7419 -0.0000
vn 0.3593 0.9332 -0.0000
vn -0.0245 0.1284 -0.9914
vn -0.0123 0.1493 -0.9887
vn -0.0000 0.1702 -0.9854
vn -0.8469 0.5317 -0.0000
vn -0.8882 -0.3343 0.3153
vn 0.0496 -0.5148 0.8558
vn -0.7857 -0.5732 0.2326
vn -0.7857 -0.5731 0.2328
vn 0.0496 -0.5149 0.8558
vn 0.2300 -0.6114 0.7571
vn -0.7857 -0.5731 0.2327
vn -0.7348 -0.6761 -0.0536
vn 0.2300 -0.6114 0.7572
vn 0.4375 -0.6871 0.5801
vn -0.7348 -0.6762 -0.0536
vn -0.4538 -0.8873 -0.0825
vn 0.4375 -0.6871 0.5800
vn 0.4919 -0.6999 0.5179
vn -0.0955 0.6308 0.7700
vn 0.1416 0.5705 0.8090
vn 0.1417 0.5705 0.8090
vn 0.2300 -0.6115 0.7571
vn 0.3622 0.6577 0.6605
vn 0.3623 0.6577 0.6604
vn 0.4374 -0.6872 0.5801
vn 0.4918 -0.7000 0.5178
vn 0.4374 -0.6871 0.5801
vn 0.6070 0.4320 0.6671
vn 0.4375 -0.6872 0.5800
vn -0.7729 0.4849 0.4092
vn -0.8882 -0.3342 0.3154
vn -0.7819 0.5334 0.3226
vn -0.8882 -0.3342 0.3153
vn -0.7628 0.6445 0.0525
vn -0.7628 0.6445 0.0524
vn -0.7857 -0.5732 0.2327
vn -0.7628 0.6446 0.0524
vn -0.7246 0.6817 -0.1009
vn -0.7730 0.4848 0.4092
vn -0.7820 0.5333 0.3226
vn -0.7819 0.5333 0.3227
vn -0.7628 0.6444 0.0524
vn -0.7628 0.6445 0.0523
vn 0.3623 0.6576 0.6605
vn 0.6069 0.4320 0.6671
vn 0.3624 0.6576 0.6605
vn -0.7247 0.6816 -0.1010
vn -0.5000 -0.0000 0.8660
vn -0.5000 0.0001 0.8660
vn 0.2686 0.8435 -0.4652
vn 0.2242 0.8938 -0.3883
vn 0.1768 0.9348 -0.3080
vn 0.2242 0.8939 -0.3883
vn 0.0975 0.9802 -0.1723
vn 0.1768 0.9348 -0.3079
vn 0.0665 0.9907 -0.1186
vn 0.0358 0.9974 -0.0621
vn 0.0354 0.9973 -0.0638
vn 0.0353 0.9973 -0.0639
vn -0.3499 -0.0000 -0.9368
vn -0.4407 -0.0000 -0.8976
vn -0.3498 -0.0000 -0.9368
vn -0.5282 -0.0000 -0.8491
vn -0.4408 -0.0000 -0.8976
vn -0.6542 -0.0000 -0.7563
vn -0.6967 0.0001 -0.7173
vn -0.6968 0.0001 -0.7173
vn -0.7370 -0.0000 -0.6759
vn -0.7368 0.0002 -0.6761
vn 0.2968 -0.8048 -0.5140
vn 0.2583 -0.8562 -0.4474
vn 0.2168 -0.8995 -0.3793
vn 0.2582 -0.8563 -0.4473
vn 0.2167 -0.8995 -0.3793
vn 0.1472 -0.9535 -0.2629
vn 0.1205 -0.9688 -0.2167
vn 0.0935 -0.9814 -0.1680
vn 0.1205 -0.9688 -0.2166
vn 0.0946 -0.9819 -0.1639
vn 0.9863 -0.0000 -0.1652
vn 0.9975 -0.0000 -0.0706
vn 0.9862 -0.0000 -0.1653
vn 0.9975 -0.0000 -0.0707
vn 0.9997 -0.0000 0.0255
vn 0.9826 -0.0000 0.1856
vn 0.9997 -0.0000 0.0256
vn 0.9682 0.0001 0.2501
vn 0.9497 0.0002 0.3132
vn 0.9496 -0.0000 0.3134
vn 0.9496 -0.0000 0.3133
vn 0.1709 -0.3342 -0.9269
vn -0.7660 -0.5148 -0.3850
vn 0.1914 -0.5732 -0.7967
vn 0.1913 -0.5731 -0.7968
vn -0.7660 -0.5149 -0.3850
vn -0.7707 -0.6114 -0.1793
vn 0.1914 -0.5731 -0.7968
vn 0.4139 -0.6761 -0.6095
vn 0.4138 -0.6761 -0.6096
vn -0.7707 -0.6114 -0.1794
vn -0.7211 -0.6871 0.0888
vn 0.4139 -0.6762 -0.6095
vn -0.7211 -0.6871 0.0889
vn 0.2983 -0.8873 -0.3518
vn -0.6944 -0.6999 0.1670
vn -0.6191 0.6308 -0.4677
vn -0.7714 0.5705 -0.2818
vn -0.7659 -0.5149 -0.3849
vn -0.7660 -0.5149 -0.3849
vn -0.7707 -0.6115 -0.1793
vn -0.7714 0.5705 -0.2819
vn -0.7531 0.6577 -0.0165
vn -0.7706 -0.6115 -0.1793
vn -0.7706 -0.6115 -0.1794
vn -0.7211 -0.6872 0.0888
vn -0.6944 -0.7000 0.1670
vn -0.8812 0.4320 0.1921
vn -0.7210 -0.6872 0.0888
vn 0.0321 0.4849 -0.8740
vn 0.1710 -0.3342 -0.9268
vn 0.1116 0.5334 -0.8385
vn 0.1115 0.5334 -0.8385
vn 0.3360 0.6445 -0.6868
vn 0.1913 -0.5732 -0.7967
vn 0.4138 -0.6762 -0.6095
vn 0.3360 0.6446 -0.6868
vn 0.4497 0.6817 -0.5771
vn 0.2984 -0.8872 -0.3518
vn 0.0321 0.4848 -0.8740
vn 0.1116 0.5333 -0.8385
vn -0.7715 0.5705 -0.2818
vn 0.1115 0.5333 -0.8385
vn 0.3360 0.6444 -0.6869
vn -0.7715 0.5705 -0.2817
vn 0.3361 0.6445 -0.6868
vn -0.7532 0.6576 -0.0165
vn -0.7531 0.6576 -0.0164
vn 0.4498 0.6816 -0.5771
vn -0.5000 -0.0000 -0.8660
vn -0.5000 0.0001 -0.8660
vn 0.2686 0.8435 0.4652
vn 0.2242 0.8938 0.3883
vn 0.1783 0.9348 0.3071
vn 0.2242 0.8939 0.3883
vn 0.1004 0.9802 0.1705
vn 0.1005 0.9802 0.1706
vn 0.0695 0.9907 0.1169
vn 0.0358 0.9974 0.0621
vn 0.0376 0.9973 0.0625
vn 0.9862 -0.0000 0.1654
vn 0.9977 -0.0000 0.0671
vn 0.9995 -0.0000 -0.0328
vn 0.9978 -0.0000 0.0670
vn 0.9995 -0.0000 -0.0329
vn 0.9821 -0.0000 -0.1884
vn 0.9696 0.0001 -0.2447
vn 0.9696 0.0001 -0.2448
vn 0.9539 -0.0000 -0.3003
vn 0.9539 0.0002 -0.3001
vn 0.2968 -0.8048 0.5140
vn 0.2583 -0.8562 0.4474
vn 0.2583 -0.8563 0.4473
vn 0.2201 -0.8995 0.3774
vn 0.2201 -0.8995 0.3773
vn 0.1541 -0.9535 0.2590
vn 0.1274 -0.9688 0.2127
vn 0.1541 -0.9535 0.2589
vn 0.0987 -0.9813 0.1649
vn 0.0987 -0.9814 0.1649
vn 0.1273 -0.9688 0.2127
vn 0.0946 -0.9819 0.1639
vn -0.3500 -0.0000 0.9367
vn -0.4376 -0.0000 0.8992
vn -0.5219 -0.0000 0.8530
vn -0.6520 -0.0000 0.7582
vn -0.5220 -0.0000 0.8530
vn -0.6521 -0.0000 0.7582
vn -0.7007 0.0001 0.7135
vn -0.7461 0.0002 0.6659
vn -0.7007 0.0001 0.7134
vn -0.7462 -0.0000 0.6657
vn -0.6521 -0.0000 0.7581
vn 0.7172 -0.3342 0.6115
vn 0.7164 -0.5148 -0.4709
vn 0.5943 -0.5732 0.5641
vn 0.5944 -0.5731 0.5641
vn 0.7164 -0.5149 -0.4709
vn 0.5407 -0.6114 -0.5778
vn 0.3209 -0.6761 0.6632
vn 0.3210 -0.6761 0.6632
vn 0.5407 -0.6114 -0.5777
vn 0.2836 -0.6871 -0.6689
vn 0.3209 -0.6762 0.6632
vn 0.1555 -0.8873 0.4343
vn 0.2026 -0.6999 -0.6849
vn 0.7146 0.6308 -0.3023
vn 0.6298 0.5705 -0.5272
vn 0.7163 -0.5149 -0.4709
vn 0.6297 0.5705 -0.5272
vn 0.5406 -0.6115 -0.5777
vn 0.6298 0.5705 -0.5271
vn 0.3909 0.6577 -0.6439
vn 0.5407 -0.6115 -0.5777
vn 0.3908 0.6577 -0.6439
vn 0.2836 -0.6872 -0.6689
vn 0.2026 -0.7000 -0.6848
vn 0.2837 -0.6871 -0.6689
vn 0.2742 0.4320 -0.8592
vn 0.3908 0.6577 -0.6440
vn 0.7409 0.4849 0.4648
vn 0.6704 0.5334 0.5159
vn 0.6704 0.5334 0.5158
vn 0.4268 0.6445 0.6344
vn 0.3209 -0.6762 0.6631
vn 0.4267 0.6446 0.6344
vn 0.3210 -0.6762 0.6631
vn 0.2749 0.6817 0.6780
vn 0.1554 -0.8873 0.4343
vn 0.7409 0.4848 0.4648
vn 0.6704 0.5333 0.5159
vn 0.6704 0.5333 0.5158
vn 0.4268 0.6444 0.6344
vn 0.4267 0.6445 0.6344
vn 0.3909 0.6576 -0.6440
vn 0.2743 0.4320 -0.8591
vn 0.3908 0.6576 -0.6440
vn 0.2749 0.6816 0.6781
vn 1.0000 -0.0000 -0.0000
vn 1.0000 0.0001 -0.0000
vn -0.5371 0.8435 -0.0000
vn -0.4484 0.8938 -0.0000
vn -0.3551 0.9348 0.0009
vn -0.4484 0.8939 -0.0000
vn -0.1979 0.9802 0.0017
vn -0.1980 0.9802 0.0017
vn -0.1360 0.9907 0.0017
vn -0.0717 0.9974 -0.0000
vn -0.0729 0.9973 0.0013
vn -0.0730 0.9973 0.0013
vn -0.6364 -0.0000 0.7714
vn -0.5570 -0.0000 0.8305
vn -0.4713 -0.0000 0.8820
vn -0.5569 -0.0000 0.8306
vn -0.4712 -0.0000 0.8820
vn -0.3279 -0.0000 0.9447
vn -0.2728 0.0001 0.9621
vn -0.2169 -0.0000 0.9762
vn -0.2171 0.0002 0.9762
vn -0.5936 -0.8048 -0.0000
vn -0.5166 -0.8562 -0.0000
vn -0.4369 -0.8995 0.0019
vn -0.5165 -0.8563 -0.0000
vn -0.4368 -0.8996 0.0019
vn -0.3013 -0.9535 0.0039
vn -0.3013 -0.9535 0.0040
vn -0.4368 -0.8995 0.0019
vn -0.2479 -0.9688 0.0039
vn -0.2479 -0.9688 0.0040
vn -0.1922 -0.9814 0.0030
vn -0.1892 -0.9819 -0.0000
vn -0.6362 -0.0000 -0.7715
vn -0.5599 -0.0000 -0.8285
vn -0.4778 -0.0000 -0.8785
vn -0.5599 -0.0000 -0.8286
vn -0.3306 -0.0000 -0.9438
vn -0.4777 -0.0000 -0.8785
vn -0.2676 0.0001 -0.9635
vn -0.2036 0.0002 -0.9790
vn -0.2675 0.0001 -0.9636
vn -0.2034 -0.0000 -0.9791
vn -0.2035 -0.0000 -0.9791
vn -0.3305 -0.0000 -0.9438
vt 0.925781 0.230469
vt 0.925781 0.234375
vt 0.855469 0.234375
vt 0.765625 0.242188
vt 0.765625 0.238281
vt 0.835938 0.238281
vt 0.902344 0.230469
vt 0.968750 0.234375
vt 0.902344 0.234375
vt 0.531250 0.449219
vt 0.531250 0.386719
vt 0.656250 0.449219
vt 0.531250 0.316406
vt 0.656250 0.382812
vt 0.656250 0.316406
vt 0.589844 0.789062
vt 0.589844 0.890625
vt 0.402344 0.789062
vt 0.402344 0.890625
vt -1.200000 1.200000
vt 1.200000 1.200000
vt -1.200000 -1.200000
vt 1.200000 -1.200000
vt 0.218750 0.292969
vt 0.218750 0.359375
vt 0.152344 0.292969
vt 0.152344 0.359375
vt 0.214844 0.175781
vt 0.300781 0.175781
vt 0.214844 0.257812
vt 0.300781 0.257812
vt 0.773438 0.253906
vt 0.773438 0.441406
vt 0.683594 0.253906
vt 0.683594 0.441406
vt 0.589844 0.195312
vt 0.562500 0.269531
vt 0.390625 0.195312
vt 0.421875 0.269531
vt 0.628906 0.085938
vt 0.601562 0.160156
vt 0.304688 0.085938
vt 0.332031 0.160156
vt 0.582031 0.894531
vt 0.562500 0.972656
vt 0.238281 0.894531
vt 0.257812 0.972656
vt 0.210938 0.296875
vt 0.210938 0.355469
vt 0.160156 0.296875
vt 0.160156 0.355469
vt 0.138982 0.559369
vt 0.250000 0.660156
vt 0.354306 0.559369
vt 0.316406 0.660156
vt 0.589844 0.500000
vt 0.574219 0.671875
vt 0.476562 0.500000
vt 0.492188 0.671875
vt 0.472656 0.554688
vt 0.461025 0.738281
vt 0.359375 0.554688
vt 0.371007 0.738281
vt 0.921875 0.050781
vt 0.800781 0.050781
vt 0.921875 0.031250
vt 0.808594 0.031250
vt 0.921875 0.015625
vt 0.808594 0.015625
vt 0.914062 0.000000
vt 0.808594 0.000000
vt 0.820312 0.000000
vt 0.843750 0.007812
vt 0.820312 0.062500
vt 0.843750 0.050781
vt 0.886719 0.019531
vt 0.886719 0.042969
vt 0.921875 0.042969
vt 0.921875 0.027344
vt 0.921875 0.062500
vt 0.890625 0.007812
vt 0.890625 0.050781
vt 0.851562 0.019531
vt 0.851562 0.042969
vt 0.820312 0.027344
vt 0.820312 0.042969
vt 0.808594 0.050781
vt 0.828125 0.031250
vt 0.910156 0.050781
vt 0.890625 0.031250
vt 0.839844 0.015625
vt 0.875000 0.015625
vt 0.867188 0.000000
vt 0.843750 0.000000
vt 0.781250 0.183594
vt 0.781250 0.203125
vt 0.953125 0.183594
vt 0.953125 0.203125
vt 0.773438 0.222656
vt 0.773438 0.242188
vt 0.957031 0.222656
vt 0.957031 0.242188
vt 0.746094 0.210938
vt 0.761719 0.132812
vt 0.980469 0.210938
vt 0.960938 0.132812
vt 0.777344 0.062500
vt 0.953125 0.062500
vt 0.941406 0.000000
vt 0.789062 0.000000
vt 0.937500 0.136719
vt 0.804688 0.136719
vt 0.910156 0.097656
vt 0.828125 0.097656
vt 0.890625 0.046875
vt 0.843750 0.046875
vt 0.882812 0.003906
vt 0.847656 0.003906
vt 0.945312 0.199219
vt 0.792969 0.199219
vt 0.917969 0.156250
vt 0.824219 0.156250
vt 0.894531 0.101562
vt 0.843750 0.101562
vt 0.886719 0.050781
vt 0.851562 0.050781
s 0
usemtl SPEAKER01.001.08_-_Default
f 147/78/94 148/79/94 149/80/94
f 150/81/95 151/82/95 152/83/95
f 153/84/96 154/85/96 155/86/96
f 156/86/97 157/85/97 158/86/97
f 159/87/98 160/88/98 161/89/98
f 161/89/98 160/88/98 162/90/98
f 161/89/98 162/90/98 163/91/98
f 163/91/98 162/90/98 164/92/98
f 165/93/99 166/94/100 167/95/100
f 167/95/100 166/94/100 168/96/101
f 169/95/102 170/96/102 171/93/102
f 171/93/102 170/96/102 172/94/102
f 173/93/103 174/94/104 175/95/104
f 175/95/104 174/94/104 176/96/105
f 177/95/106 178/96/107 179/93/107
f 179/93/107 178/96/107 180/94/108
f 181/95/109 182/96/109 183/93/109
f 183/93/109 182/96/109 184/94/109
f 185/93/110 186/94/111 187/95/111
f 187/95/111 186/94/111 188/96/112
f 189/97/113 190/98/113 191/99/113
f 191/99/113 190/98/113 192/100/113
f 193/101/98 194/102/98 195/103/98
f 195/103/98 194/102/98 196/104/98
f 197/105/114 198/106/114 199/107/114
f 199/107/114 198/106/114 200/108/114
f 201/107/115 202/108/115 203/105/115
f 203/105/115 202/108/115 204/106/115
f 205/105/116 206/106/116 207/107/116
f 207/107/116 206/106/116 208/108/116
f 209/107/117 210/108/117 211/105/117
f 211/105/117 210/108/117 212/106/117
f 213/109/98 214/110/98 215/111/98
f 215/111/98 214/110/98 216/112/98
f 217/113/118 218/114/119 219/115/119
f 219/115/120 218/114/120 220/116/121
f 221/117/122 222/118/122 223/119/122
f 223/119/122 222/118/122 224/120/122
f 225/115/123 226/116/124 227/113/124
f 227/113/124 226/116/124 228/114/125
f 229/121/126 230/122/126 231/123/126
f 231/123/126 230/122/126 232/124/126
f 233/125/127 234/126/127 235/127/98
f 235/127/98 234/126/127 236/128/98
f 237/129/128 238/130/129 239/131/129
f 239/131/130 238/130/130 240/132/131
f 241/133/132 242/134/133 243/135/132
f 243/135/132 242/134/133 244/136/133
f 245/131/134 246/132/135 247/129/135
f 247/129/135 246/132/135 248/130/136
f 249/137/137 250/138/137 251/139/137
f 251/139/137 250/138/137 252/140/137
f 253/141/138 254/142/139 255/143/140
f 255/143/141 254/142/142 256/144/143
f 255/143/144 256/144/143 257/145/145
f 257/145/145 256/144/146 258/146/147
f 257/145/148 258/146/147 259/147/149
f 259/147/149 258/146/150 260/148/151
f 261/149/152 262/150/153 263/151/142
f 263/151/142 262/150/154 264/152/155
f 262/150/153 265/153/156 264/152/155
f 264/152/155 265/153/157 266/154/158
f 267/155/159 266/154/160 268/156/161
f 268/156/161 266/154/162 265/153/157
f 269/147/163 270/157/164 271/158/165
f 271/158/165 270/157/166 272/159/140
f 271/158/165 272/159/140 273/160/167
f 273/160/168 272/159/169 274/161/148
f 273/160/170 274/161/148 275/162/171
f 275/162/171 274/161/148 276/163/149
f 277/164/172 278/165/165 279/166/152
f 279/166/152 278/165/173 280/167/154
f 278/165/174 281/168/175 280/167/154
f 280/167/154 281/168/176 282/169/177
f 283/170/178 282/169/179 284/171/180
f 284/171/180 282/169/177 281/168/168
f 285/172/181 286/173/181 287/174/181
f 287/174/181 286/173/181 288/175/181
f 289/176/182 290/177/182 291/178/182
f 291/178/182 290/177/182 292/179/182
f 292/179/181 295/178/181 294/177/181
f 294/177/181 295/178/181 293/176/181
f 296/176/181 297/177/181 298/178/181
f 298/178/181 297/177/181 299/179/181
f 300/180/183 301/181/184 302/182/183
f 302/182/183 301/181/184 303/183/185
f 301/181/186 304/184/187 303/183/188
f 303/183/188 304/184/187 305/185/189
f 306/186/190 305/185/189 307/187/191
f 307/187/192 305/185/189 304/184/187
f 308/188/193 309/189/193 310/190/194
f 310/190/194 309/189/195 311/191/196
f 310/190/197 311/191/196 312/192/198
f 312/192/198 311/191/196 313/193/199
f 312/192/198 313/193/200 314/194/201
f 314/194/202 313/193/200 315/195/202
f 316/196/203 317/197/203 318/198/204
f 318/198/204 317/197/203 319/199/205
f 318/198/206 319/199/207 320/200/208
f 320/200/208 319/199/207 321/201/209
f 320/200/208 321/201/209 322/202/210
f 322/202/210 321/201/211 323/203/212
f 324/188/213 325/190/214 326/189/213
f 326/189/215 325/190/216 327/191/217
f 325/190/214 328/192/218 327/191/219
f 327/191/219 328/192/218 329/193/220
f 330/195/221 329/193/220 331/194/222
f 331/194/223 329/193/220 328/192/218
f 332/141/224 333/142/225 334/143/226
f 334/143/227 333/142/228 335/144/229
f 334/143/230 335/144/229 336/145/231
f 336/145/232 335/144/233 337/146/234
f 336/145/235 337/146/236 338/147/237
f 338/147/237 337/146/236 339/148/238
f 340/149/239 341/150/240 342/151/241
f 342/151/242 341/150/240 343/152/243
f 341/150/244 344/153/245 343/152/246
f 343/152/247 344/153/245 345/154/248
f 346/155/249 345/154/234 347/156/250
f 347/156/250 345/154/251 344/153/245
f 348/147/252 349/157/253 350/158/254
f 350/158/255 349/157/253 351/159/226
f 350/158/255 351/159/226 352/160/256
f 352/160/256 351/159/257 353/161/258
f 352/160/259 353/161/258 354/162/260
f 354/162/260 353/161/258 355/163/261
f 356/164/262 357/165/254 358/166/239
f 358/166/239 357/165/263 359/167/264
f 357/165/265 360/168/266 359/167/264
f 359/167/267 360/168/268 361/169/269
f 362/170/250 361/169/270 363/171/271
f 363/171/271 361/169/269 360/168/256
f 364/172/272 365/173/272 366/174/272
f 366/174/272 365/173/272 367/175/272
f 368/176/273 369/177/273 370/178/273
f 370/178/273 369/177/273 371/179/273
f 371/179/272 374/178/272 373/177/272
f 373/177/272 374/178/272 372/176/272
f 375/176/272 376/177/272 377/178/272
f 377/178/272 376/177/272 378/179/272
f 379/180/274 380/181/275 381/182/274
f 381/182/274 380/181/275 382/183/276
f 380/181/277 383/184/278 382/183/276
f 382/183/276 383/184/279 384/185/280
f 385/186/281 384/185/280 386/187/282
f 386/187/282 384/185/280 383/184/278
f 387/188/283 388/189/283 389/190/284
f 389/190/284 388/189/283 390/191/285
f 389/190/286 390/191/287 391/192/288
f 391/192/288 390/191/287 392/193/289
f 391/192/288 392/193/290 393/194/291
f 393/194/292 392/193/290 394/195/292
f 395/196/293 396/197/293 397/198/294
f 397/198/295 396/197/293 398/199/296
f 397/198/295 398/199/297 399/200/298
f 399/200/298 398/199/297 400/201/299
f 399/200/300 400/201/299 401/202/301
f 401/202/302 400/201/303 402/203/304
f 403/188/305 404/190/306 405/189/305
f 405/189/305 404/190/306 406/191/307
f 404/190/306 407/192/308 406/191/309
f 406/191/309 407/192/310 408/193/311
f 409/195/312 408/193/313 410/194/314
f 410/194/314 408/193/313 407/192/315
f 411/141/316 412/142/317 413/143/318
f 413/143/319 412/142/320 414/144/321
f 413/143/319 414/144/321 415/145/322
f 415/145/323 414/144/324 416/146/325
f 415/145/326 416/146/325 417/147/327
f 417/147/327 416/146/325 418/148/328
f 419/149/329 420/150/330 421/151/331
f 421/151/331 420/150/332 422/152/333
f 420/150/334 423/153/335 422/152/333
f 422/152/336 423/153/337 424/154/338
f 425/155/339 424/154/340 426/156/341
f 426/156/341 424/154/338 423/153/342
f 427/147/343 428/157/316 429/158/344
f 429/158/345 428/157/316 430/159/318
f 429/158/345 430/159/318 431/160/346
f 431/160/346 430/159/318 432/161/347
f 431/160/348 432/161/349 433/162/350
f 433/162/350 432/161/347 434/163/351
f 435/164/352 436/165/344 437/166/329
f 437/166/329 436/165/353 438/167/330
f 436/165/354 439/168/355 438/167/330
f 438/167/332 439/168/356 440/169/357
f 441/170/358 440/169/359 442/171/360
f 442/171/360 440/169/357 439/168/346
f 443/172/361 444/173/361 445/174/361
f 445/174/361 444/173/361 446/175/361
f 447/176/362 448/177/362 449/178/362
f 449/178/362 448/177/362 450/179/362
f 450/179/361 453/178/361 452/177/361
f 452/177/361 453/178/361 451/176/361
f 454/176/361 455/177/361 456/178/361
f 456/178/361 455/177/361 457/179/361
f 458/180/363 459/181/364 460/182/363
f 460/182/363 459/181/364 461/183/365
f 459/181/366 462/184/367 461/183/365
f 461/183/365 462/184/368 463/185/369
f 464/186/370 463/185/369 465/187/371
f 465/187/372 463/185/369 462/184/367
f 466/188/373 467/189/373 468/190/374
f 468/190/374 467/189/373 469/191/375
f 468/190/376 469/191/377 470/192/378
f 470/192/378 469/191/377 471/193/379
f 470/192/378 471/193/379 472/194/380
f 472/194/380 471/193/379 473/195/381
f 474/196/382 475/197/382 476/198/383
f 476/198/383 475/197/382 477/199/384
f 476/198/385 477/199/386 478/200/387
f 478/200/388 477/199/389 479/201/390
f 478/200/387 479/201/391 480/202/392
f 480/202/392 479/201/390 481/203/393
f 482/188/394 483/190/395 484/189/394
f 484/189/394 483/190/395 485/191/396
f 483/190/397 486/192/398 485/191/399
f 485/191/399 486/192/398 487/193/400
f 488/195/401 487/193/402 489/194/403
f 489/194/404 487/193/402 486/192/405
o m3
v 3.981482 1.890996 -2.288907
v 2.863482 3.250031 -3.134731
v -15.448171 2.369256 -3.117604
v -13.181489 3.554509 -3.073362
v -15.448171 2.369256 -3.117604
v -13.181489 3.554509 -3.073362
v -5.357266 3.714078 -10.240162
v -4.784512 4.566918 -8.882979
v 3.981152 3.745892 -10.312673
v 2.863253 4.593623 -8.942212
v 2.863482 3.250031 -3.134731
v 3.981482 1.890996 -2.288907
v 3.981482 1.890996 2.268906
v -15.448171 2.369256 3.097604
v 2.863482 3.250031 3.114731
v -13.181489 3.554509 3.053361
v -15.448171 2.369256 3.097604
v -5.357266 3.714077 10.220161
v -13.181489 3.554509 3.053361
v -4.784512 4.566918 8.862979
v 3.981152 3.745892 10.292672
v 2.863253 4.593622 8.922213
v 2.863482 3.250031 3.114731
v 3.981482 1.890996 2.268906
v 6.023375 6.168765 1.124744
v 9.114624 4.958453 1.124744
v 8.075633 6.456579 0.578832
v 6.023375 6.168765 -1.193846
v 8.075633 6.456579 -0.647934
v 9.114624 4.958453 -1.193846
v 6.023375 6.168765 -1.193846
v 6.023375 6.168765 1.124744
v 8.075633 6.456579 -0.647934
v 8.075633 6.456579 -0.647934
v 6.023375 6.168765 1.124744
v 8.075633 6.456579 0.578832
v 9.114624 4.958453 -1.193846
v 8.075633 6.456579 -0.647934
v 9.114624 4.958453 1.124744
v 8.075633 6.456579 0.578832
vn -0.0239 0.5140 0.8575
vn -0.0109 0.2459 0.9692
vn -0.0109 0.2458 0.9693
vn 0.0030 -0.0430 0.9991
vn -0.5268 0.5581 -0.6411
vn -0.2045 0.9724 -0.1123
vn -0.3115 0.6061 -0.7319
vn -0.3114 0.6061 -0.7319
vn -0.2044 0.9724 -0.1123
vn -0.1012 0.9361 -0.3370
vn -0.3114 0.6060 -0.7319
vn -0.1011 0.9360 -0.3370
vn 0.4533 0.7461 -0.4877
vn 0.4533 0.7462 -0.4876
vn 0.3246 0.9450 0.0408
vn 0.9252 0.3697 0.0855
vn 0.3948 0.8951 0.2071
vn -0.0239 0.5140 -0.8575
vn -0.0109 0.2459 -0.9692
vn -0.0109 0.2458 -0.9693
vn 0.0030 -0.0430 -0.9991
vn -0.5269 0.5581 0.6410
vn -0.3115 0.6061 0.7319
vn -0.2045 0.9724 0.1123
vn -0.1012 0.9361 0.3370
vn -0.3114 0.6060 0.7319
vn 0.4533 0.7461 0.4877
vn -0.1011 0.9360 0.3370
vn 0.4533 0.7462 0.4876
vn 0.3247 0.9449 -0.0408
vn 0.3948 0.8951 -0.2071
vn 0.3246 0.9450 -0.0408
vn 0.9252 0.3697 -0.0855
vn 0.1725 0.4407 -0.8809
vn -0.1389 0.9903 -0.0000
vn 0.1725 0.4407 0.8809
vn 0.8217 0.5699 -0.0000
vt 0.604747 0.639268
vt 0.641729 0.681829
vt 0.880711 0.639063
vt 0.843729 0.681624
vt 0.203125 0.375000
vt 0.203125 0.437500
vt 0.128906 0.375000
vt 0.144531 0.601562
vt 0.144531 0.515625
vt 0.007812 0.601562
vt 0.007812 0.515625
vt 0.128906 0.437500
s 0
usemtl HOUSECOLOR01.003.01_-_Default
f 490/204/406 491/205/407 492/206/407
f 492/206/408 491/205/408 493/207/409
f 494/206/410 495/207/411 496/204/412
f 496/204/413 495/207/414 497/205/415
f 496/204/416 497/205/417 498/206/418
f 498/206/419 497/205/417 499/207/420
f 498/206/418 499/207/420 501/204/421
f 501/204/421 499/207/420 500/205/422
f 502/204/423 503/206/424 504/205/424
f 504/205/425 503/206/425 505/207/426
f 506/206/427 507/204/428 508/207/429
f 508/207/429 507/204/428 509/205/430
f 507/204/431 510/206/432 509/205/433
f 509/205/433 510/206/434 511/207/435
f 512/205/436 511/207/437 513/204/438
f 513/204/438 511/207/437 510/206/432
f 517/208/439 518/209/439 519/210/439
f 520/211/440 521/212/440 522/213/440
f 523/213/440 524/212/440 525/214/440
f 514/209/441 515/210/441 516/208/441
f 526/215/442 527/209/442 528/210/442
f 528/210/442 527/209/442 529/208/442
