# Blender 5.1.2
# www.blender.org
mtllib v1.mtl
o m2
v 7.998501 -0.341422 -3.416136
v 7.465789 -0.341422 -3.416136
v 7.998501 0.877556 -4.475777
v 7.465789 0.877556 -4.475777
v 7.998501 2.262019 -3.643908
v 7.465789 2.262018 -3.643908
v 7.998502 1.898687 -2.070142
v 7.465789 1.898687 -2.070143
v 7.998502 0.289672 -1.929372
v 7.465789 0.289672 -1.929372
v 7.998501 -0.341422 -3.416136
v 7.465789 -0.341422 -3.416136
v 7.998501 0.877556 -4.475777
v 7.998501 0.997302 -3.107067
v 7.998501 -0.341422 -3.416136
v 7.998502 0.289672 -1.929372
v 7.998502 1.898687 -2.070142
v 7.998501 2.262019 -3.643908
v 7.465789 -0.341422 -3.416136
v 7.465789 0.997302 -3.107067
v 7.465789 0.877556 -4.475777
v 7.465789 2.262018 -3.643908
v 7.465789 1.898687 -2.070143
v 7.465789 0.289672 -1.929372
v 7.928188 -0.453984 3.377034
v 7.395535 -0.453200 3.369150
v 7.950857 0.228600 1.913369
v 7.418203 0.229384 1.905486
v 7.950305 1.831721 2.110208
v 7.417651 1.832505 2.102324
v 7.927294 2.139921 3.695527
v 7.394641 2.140705 3.687643
v 7.913626 0.727278 4.478468
v 7.380971 0.728061 4.470584
v 7.928188 -0.453984 3.377034
v 7.395535 -0.453200 3.369150
v 7.950857 0.228600 1.913369
v 7.934054 0.894708 3.114921
v 7.928188 -0.453984 3.377034
v 7.913626 0.727278 4.478468
v 7.927294 2.139921 3.695527
v 7.950305 1.831721 2.110208
v 7.395535 -0.453200 3.369150
v 7.401401 0.895491 3.107037
v 7.418203 0.229384 1.905486
v 7.417651 1.832505 2.102324
v 7.394641 2.140705 3.687643
v 7.380971 0.728061 4.470584
vn -0.0000 -0.9999 0.0107
vn -0.0000 -0.8940 -0.4480
vn -0.0000 -0.3192 -0.9477
vn -0.0000 0.1498 -0.9887
vn -0.0000 0.8027 -0.5964
vn -0.0000 0.9866 -0.1631
vn -0.0000 0.8153 0.5791
vn -0.0000 0.4600 0.8879
vn -0.0000 -0.2988 0.9543
vn -0.0000 -0.7023 0.7118
vn -0.0001 -0.9999 0.0107
vn 1.0000 -0.0000 -0.0000
vn -1.0000 -0.0000 -0.0000
vn -0.0075 -0.9091 0.4165
vn -0.0008 -0.9990 -0.0456
vn 0.0099 -0.6771 -0.7359
vn 0.0139 -0.2653 -0.9641
vn 0.0099 -0.6771 -0.7358
vn 0.0136 0.4907 -0.8712
vn 0.0141 -0.2653 -0.9641
vn 0.0094 0.8350 -0.5502
vn -0.0014 0.9803 0.1974
vn -0.0015 0.9803 0.1974
vn 0.0093 0.8350 -0.5502
vn -0.0081 0.7814 0.6240
vn -0.0145 0.1152 0.9932
vn -0.0143 -0.3521 0.9359
vn -0.0146 0.1152 0.9932
vn -0.0144 -0.3521 0.9359
vn 0.9999 -0.0015 0.0148
vn -0.9999 0.0015 -0.0148
vt 0.496094 0.812500
vt 0.496094 0.753906
vt 0.390625 0.812500
vt 0.390625 0.753906
vt 0.285156 0.812500
vt 0.285156 0.753906
vt 0.187500 0.812500
vt 0.187500 0.753906
vt 0.097656 0.812500
vt 0.097656 0.753906
vt 0.003906 0.812500
vt 0.003906 0.753906
vt 0.011440 0.569245
vt 0.049979 0.595874
vt 0.049979 0.557336
vt 0.088517 0.569245
vt 0.073797 0.526157
vt 0.026161 0.526157
vt 0.496094 0.761719
vt 0.390625 0.761719
vt 0.285156 0.761719
vt 0.191406 0.812500
vt 0.191406 0.761719
vt 0.089844 0.812500
vt 0.089844 0.761719
vt 0.000000 0.812500
vt 0.000000 0.761719
s 0
usemtl HOUSECOLORUP01.House_color
f 1/1/1 2/2/2 3/3/3
f 3/3/3 2/2/2 4/4/4
f 3/3/3 4/4/4 5/5/5
f 5/5/5 4/4/4 6/6/6
f 5/5/5 6/6/6 7/7/7
f 7/7/7 6/6/6 8/8/8
f 7/7/7 8/8/8 9/9/9
f 9/9/9 8/8/8 10/10/10
f 9/9/9 10/10/10 11/11/11
f 11/11/1 10/10/10 12/12/2
f 15/13/12 13/14/12 14/15/12
f 14/15/12 13/14/12 18/16/12
f 14/15/12 18/16/12 17/17/12
f 17/17/12 16/18/12 14/15/12
f 14/15/12 16/18/12 15/13/12
f 21/14/13 19/13/13 20/15/13
f 20/15/13 19/13/13 24/18/13
f 20/15/13 24/18/13 23/17/13
f 23/17/13 22/16/13 20/15/13
f 20/15/13 22/16/13 21/14/13
usemtl HOUSECOLORUP02.House_color
f 25/1/14 26/19/15 27/3/16
f 27/3/16 26/19/15 28/20/17
f 27/3/18 28/20/17 29/5/19
f 29/5/19 28/20/20 30/21/21
f 29/5/19 30/21/21 31/22/22
f 31/22/23 30/21/24 32/23/25
f 31/22/23 32/23/25 33/24/26
f 33/24/26 32/23/25 34/25/27
f 33/24/28 34/25/29 35/26/14
f 35/26/14 34/25/29 36/27/15
f 39/13/30 37/14/30 38/15/30
f 38/15/30 37/14/30 42/16/30
f 38/15/30 42/16/30 41/17/30
f 41/17/30 40/18/30 38/15/30
f 38/15/30 40/18/30 39/13/30
f 45/14/31 43/13/31 44/15/31
f 44/15/31 43/13/31 48/18/31
f 44/15/31 48/18/31 47/17/31
f 47/17/31 46/16/31 44/15/31
f 44/15/31 46/16/31 45/14/31
o m1
v 9.511750 1.592691 -3.050103
v 9.513875 1.497406 -3.498399
v 9.512813 1.933288 -3.356772
v 9.515632 1.136294 -3.808959
v 9.516288 0.680490 -3.856867
v 9.517709 0.949884 -4.227647
v 9.509292 1.012010 -2.381561
v 9.509948 1.408924 -2.610716
v 9.507871 1.408920 -2.152405
v 9.515567 0.273549 -3.609382
v 9.513850 0.087132 -3.190695
v 9.515788 -0.182255 -3.561477
v 9.511642 0.196738 -2.727209
v 9.509923 0.537330 -2.420539
v 9.509702 0.101445 -2.278914
v 1.681896 1.357977 -3.677077
v 1.680038 2.120771 -3.429229
v 9.513875 1.497406 -3.498399
v 9.512813 1.933288 -3.356772
v 1.678180 1.524726 -2.892560
v 9.511750 1.592691 -3.050103
v 9.513875 1.497406 -3.498399
v 1.681896 1.357977 -3.677077
v 1.683323 0.492554 -3.807347
v 1.685810 0.963993 -4.456212
v 9.516288 0.680490 -3.856867
v 9.517709 0.949884 -4.227647
v 1.682174 1.290210 -3.723508
v 9.515632 1.136294 -3.808959
v 9.516288 0.680490 -3.856867
v 1.683323 0.492554 -3.807347
v 1.677856 1.501517 -2.813779
v 1.674221 1.501511 -2.011735
v 9.509948 1.408924 -2.610716
v 9.507871 1.408920 -2.152405
v 1.676708 0.806918 -2.412759
v 9.509292 1.012010 -2.381561
v 9.509948 1.408924 -2.610716
v 1.677856 1.501517 -2.813779
v 1.680161 0.101238 -3.024526
v 1.683556 -0.370191 -3.673394
v 9.513850 0.087132 -3.190695
v 9.515788 -0.182255 -3.561477
v 1.683167 0.427467 -3.757228
v 9.515567 0.273549 -3.609382
v 9.513850 0.087132 -3.190695
v 1.680161 0.101238 -3.024526
v 1.676775 0.724812 -2.410474
v 1.676387 -0.037986 -2.162631
v 9.509923 0.537330 -2.420539
v 9.509702 0.101445 -2.278914
v 1.679781 0.128776 -2.947148
v 9.511642 0.196738 -2.727209
v 9.509923 0.537330 -2.420539
v 1.676775 0.724812 -2.410474
v 9.513776 1.937403 3.356854
v 9.513776 1.501521 3.498482
v 9.513776 1.596806 3.050186
v 9.513776 0.953998 4.227730
v 9.513776 0.684605 3.856949
v 9.513776 1.140409 3.809041
v 9.513776 1.413035 2.152488
v 9.513776 1.413039 2.610798
v 9.513776 1.016125 2.381644
v 9.513776 -0.178140 3.561559
v 9.513776 0.091247 3.190777
v 9.513776 0.277664 3.609464
v 9.513776 0.105560 2.278997
v 9.513776 0.541444 2.420621
v 9.513776 0.200853 2.727292
v 1.682814 1.362139 3.676934
v 9.513776 1.501521 3.498482
v 1.680955 2.124933 3.429087
v 9.513776 1.937403 3.356854
v 1.679097 1.528889 2.892417
v 9.513776 1.596806 3.050186
v 1.682814 1.362139 3.676934
v 9.513776 1.501521 3.498482
v 1.684241 0.496717 3.807204
v 9.513776 0.684605 3.856949
v 1.686727 0.968156 4.456069
v 9.513776 0.953998 4.227730
v 1.683091 1.294372 3.723365
v 9.513776 1.140409 3.809041
v 1.684241 0.496717 3.807204
v 9.513776 0.684605 3.856949
v 1.678773 1.505679 2.813636
v 9.513776 1.413039 2.610798
v 1.675138 1.505672 2.011593
v 9.513776 1.413035 2.152488
v 1.677625 0.811079 2.412617
v 9.513776 1.016125 2.381644
v 1.678773 1.505679 2.813636
v 9.513776 1.413039 2.610798
v 1.681078 0.105400 3.024382
v 9.513776 0.091247 3.190777
v 1.684474 -0.366029 3.673251
v 9.513776 -0.178140 3.561559
v 1.684084 0.431629 3.757085
v 9.513776 0.277664 3.609464
v 1.681078 0.105400 3.024382
v 9.513776 0.091247 3.190777
v 1.677692 0.728974 2.410331
v 9.513776 0.541444 2.420621
v 1.677305 -0.033824 2.162489
v 9.513776 0.105560 2.278997
v 1.680699 0.132938 2.947005
v 9.513776 0.200853 2.727292
v 1.677692 0.728974 2.410331
v 9.513776 0.541444 2.420621
vn 1.0000 0.0010 0.0045
vn 0.0240 -0.9508 -0.3089
vn 0.0240 0.7430 -0.6689
vn 0.0260 -0.2078 -0.9778
vn 0.0199 0.9508 0.3090
vn 0.0179 0.2079 0.9780
vn 0.0199 0.9508 0.3091
vn 0.0199 -0.7429 0.6691
vn 0.0260 -0.2079 -0.9778
vn 0.0199 -0.7430 0.6690
vn 0.0239 -0.9508 -0.3088
vn 0.0240 -0.9508 -0.3088
vn 0.0192 -0.5876 0.8089
vn 0.0259 -0.4066 -0.9132
vn 0.0232 -0.9943 -0.1044
vn 0.0247 0.5877 -0.8087
vn 0.0207 0.9943 0.1046
vn 0.0246 0.5877 -0.8087
vn 0.0180 0.4067 0.9134
vn 0.0179 0.4066 0.9134
vn 0.0193 -0.5876 0.8089
vn 0.0259 -0.0000 -0.9997
vn 0.0192 0.8658 0.5000
vn 0.0232 0.8659 -0.4998
vn 0.0193 0.8658 0.5000
vn 0.0180 -0.0000 0.9998
vn 0.0207 -0.8658 0.5000
vn 0.0179 -0.0000 0.9998
vn 0.0206 -0.8658 0.5000
vn 0.0247 -0.8658 -0.4998
vn 0.0232 0.8658 -0.4998
vn 0.0246 -0.8658 -0.4998
vn 0.0260 -0.0000 -0.9997
vn 0.0183 0.5877 0.8089
vn 0.0224 -0.9943 0.1046
vn 0.0186 -0.4066 0.9134
vn 0.0223 -0.9943 0.1046
vn 0.0256 -0.5876 -0.8087
vn 0.0252 0.4066 -0.9132
vn 0.0252 0.4067 -0.9132
vn 0.0216 0.9943 -0.1044
vn 0.0187 -0.4066 0.9134
vn 0.0215 0.9943 -0.1044
vn 0.0182 0.5877 0.8089
vn 0.0223 0.9509 -0.3088
vn 0.0182 -0.2078 0.9780
vn 0.0186 0.7430 0.6691
vn 0.0183 -0.2078 0.9780
vn 0.0216 -0.9508 0.3090
vn 0.0181 -0.2079 0.9780
vn 0.0253 -0.7430 -0.6689
vn 0.0215 -0.9508 0.3090
vn 0.0252 -0.7430 -0.6689
vn 0.0256 0.2079 -0.9778
vn 0.0187 0.7430 0.6691
vn 0.0224 0.9508 -0.3089
vn 0.0252 -0.7429 -0.6689
vn 1.0000 -0.0000 -0.0000
vn 0.0240 -0.9508 0.3089
vn 0.0260 -0.2079 0.9778
vn 0.0240 0.7430 0.6689
vn 0.0200 0.9508 -0.3090
vn 0.0199 0.9509 -0.3090
vn 0.0179 0.2079 -0.9780
vn 0.0199 0.9508 -0.3090
vn 0.0200 -0.7430 -0.6690
vn 0.0180 0.2079 -0.9780
vn 0.0199 -0.7430 -0.6690
vn 0.0260 -0.2078 0.9778
vn 0.0192 -0.5876 -0.8089
vn 0.0232 -0.9943 0.1044
vn 0.0259 -0.4066 0.9132
vn 0.0260 -0.4066 0.9132
vn 0.0247 0.5877 0.8087
vn 0.0246 0.5876 0.8087
vn 0.0207 0.9943 -0.1046
vn 0.0208 0.9943 -0.1046
vn 0.0247 0.5876 0.8087
vn 0.0180 0.4067 -0.9134
vn 0.0180 0.4066 -0.9134
vn 0.0193 -0.5876 -0.8089
vn 0.0259 -0.0000 0.9997
vn 0.0232 0.8658 0.4998
vn 0.0192 0.8658 -0.5000
vn 0.0193 0.8658 -0.5000
vn 0.0180 -0.0000 -0.9998
vn 0.0192 0.8659 -0.4999
vn 0.0179 -0.0000 -0.9998
vn 0.0207 -0.8658 -0.4999
vn 0.0207 -0.8658 -0.5000
vn 0.0247 -0.8658 0.4998
vn 0.0246 -0.8658 0.4998
vn 0.0259 0.0001 0.9997
vn 0.0231 0.8658 0.4998
vn 0.0182 0.5877 -0.8089
vn 0.0186 -0.4066 -0.9134
vn 0.0224 -0.9943 -0.1046
vn 0.0187 -0.4066 -0.9134
vn 0.0256 -0.5876 0.8087
vn 0.0252 0.4067 0.9132
vn 0.0253 0.4066 0.9132
vn 0.0215 0.9943 0.1044
vn 0.0183 0.5877 -0.8089
vn 0.0223 0.9508 0.3089
vn 0.0186 0.7430 -0.6691
vn 0.0182 -0.2078 -0.9780
vn 0.0183 -0.2078 -0.9780
vn 0.0187 0.7430 -0.6691
vn 0.0215 -0.9508 -0.3090
vn 0.0182 -0.2079 -0.9780
vn 0.0252 -0.7429 0.6689
vn 0.0253 -0.7429 0.6689
vn 0.0256 0.2079 0.9778
vn 0.0224 0.9508 0.3089
vn 0.0187 0.7430 -0.6690
vt 0.453125 0.902344
vt 0.367188 0.902344
vt 0.410156 0.960938
vt 0.078125 0.507812
vt 0.003906 0.507812
vt 0.078125 0.003906
vt 0.003906 0.003906
vt 0.410156 0.964844
vt 0.367188 0.906250
vt 0.453125 0.906250
vt 0.078125 0.007812
vt 0.003906 0.007812
s 0
usemtl BARREL01.Overlord_Tank_-_Upgrades
f 49/28/32 50/29/32 51/30/32
f 52/28/32 53/29/32 54/30/32
f 55/28/32 56/29/32 57/30/32
f 58/28/32 59/29/32 60/30/32
f 61/28/32 62/29/32 63/30/32
f 64/31/33 65/32/34 66/33/35
f 66/33/35 65/32/34 67/34/36
f 65/32/34 68/31/37 67/34/38
f 67/34/36 68/31/37 69/33/39
f 70/34/40 69/33/41 71/32/42
f 71/32/43 69/33/41 68/31/37
f 72/31/44 73/32/45 74/33/46
f 74/33/46 73/32/45 75/34/47
f 73/32/45 76/31/48 75/34/49
f 75/34/47 76/31/48 77/33/50
f 78/34/46 77/33/51 79/32/44
f 79/32/52 77/33/51 76/31/48
f 80/31/53 81/32/54 82/33/55
f 82/33/55 81/32/56 83/34/57
f 81/32/54 84/31/58 83/34/59
f 83/34/59 84/31/60 85/33/61
f 86/34/62 85/33/63 87/32/53
f 87/32/64 85/33/63 84/31/58
f 88/31/65 89/32/66 90/33/67
f 90/33/67 89/32/68 91/34/69
f 89/32/68 92/31/70 91/34/69
f 91/34/69 92/31/71 93/33/72
f 94/34/73 93/33/74 95/32/65
f 95/32/75 93/33/74 92/31/71
f 96/31/76 97/32/77 98/33/78
f 98/33/78 97/32/79 99/34/80
f 97/32/81 100/31/82 99/34/83
f 99/34/83 100/31/84 101/33/85
f 102/34/86 101/33/85 103/32/87
f 103/32/87 101/33/85 100/31/88
usemtl BARREL02.Overlord_Tank_-_Upgrades
f 104/35/89 105/36/89 106/37/89
f 107/35/89 108/36/89 109/37/89
f 110/35/89 111/36/89 112/37/89
f 113/35/89 114/36/89 115/37/89
f 116/35/89 117/36/89 118/37/89
f 119/31/90 120/38/91 121/32/92
f 121/32/92 120/38/91 122/39/93
f 121/32/92 122/39/94 123/31/95
f 123/31/95 122/39/96 124/38/97
f 123/31/98 124/38/99 125/32/90
f 125/32/90 124/38/99 126/39/100
f 127/31/101 128/38/102 129/32/103
f 129/32/104 128/38/102 130/39/105
f 129/32/103 130/39/106 131/31/107
f 131/31/108 130/39/109 132/38/110
f 131/31/107 132/38/111 133/32/101
f 133/32/112 132/38/111 134/39/102
f 135/31/113 136/38/114 137/32/115
f 137/32/116 136/38/114 138/39/117
f 137/32/118 138/39/119 139/31/120
f 139/31/121 138/39/117 140/38/122
f 139/31/121 140/38/123 141/32/124
f 141/32/113 140/38/123 142/39/125
f 143/31/126 144/38/127 145/32/128
f 145/32/128 144/38/129 146/39/130
f 145/32/128 146/39/130 147/31/131
f 147/31/132 146/39/130 148/38/133
f 147/31/131 148/38/133 149/32/126
f 149/32/134 148/38/133 150/39/129
f 151/31/135 152/38/136 153/32/137
f 153/32/138 152/38/139 154/39/140
f 153/32/141 154/39/140 155/31/142
f 155/31/143 154/39/140 156/38/144
f 155/31/142 156/38/144 157/32/135
f 157/32/145 156/38/144 158/39/146
o m3
v -0.679237 0.272892 3.881765
v -0.679237 0.272887 -3.866237
v 1.040388 0.272892 3.881764
v 1.040388 0.272887 -3.866238
v 1.040388 0.626927 -3.866238
v -0.679237 0.626927 -3.866237
v 1.040388 0.626933 3.881764
v -0.679237 0.626932 3.881765
v 1.040388 0.272887 -3.866238
v 1.040388 0.626927 -3.866238
v 1.040388 0.272892 3.881764
v 1.040388 0.626933 3.881764
v -0.679237 0.272892 3.881765
v -0.679237 0.626932 3.881765
v -0.679237 0.272887 -3.866237
v -0.679237 0.626927 -3.866237
v -1.640978 -2.916037 -2.892205
v -1.640978 -2.916039 -5.706941
v 1.569577 -2.916037 -2.892206
v 1.569577 -2.916038 -5.706941
v 1.569576 -0.101305 -5.706941
v -1.640979 -0.101306 -5.706940
v 1.569577 -0.101303 -2.892206
v -1.640978 -0.101304 -2.892205
v 1.569577 -2.916038 -5.706941
v 1.569576 -0.101305 -5.706941
v 1.569577 -2.916037 -2.892206
v 1.569577 -0.101303 -2.892206
v -1.640978 -2.916039 -5.706941
v -1.640979 -0.101306 -5.706940
v 1.569577 -2.916038 -5.706941
v 1.569576 -0.101305 -5.706941
v -1.640978 -2.916037 -2.892205
v -1.640978 -0.101304 -2.892205
v -1.640978 -2.916039 -5.706941
v -1.640979 -0.101306 -5.706940
v 1.569577 -2.916037 -2.892206
v 1.569577 -0.101303 -2.892206
v -1.640978 -2.916037 -2.892205
v -1.640978 -0.101304 -2.892205
v -1.640978 -2.916035 2.823859
v 1.569577 -2.916034 2.823856
v -1.640979 -2.916034 5.638592
v 1.569576 -2.916033 5.638590
v 1.569576 -0.101299 5.638590
v 1.569576 -0.101300 2.823857
v -1.640979 -0.101300 5.638594
v -1.640979 -0.101301 2.823859
v 1.569576 -2.916033 5.638590
v 1.569577 -2.916034 2.823856
v 1.569576 -0.101299 5.638590
v 1.569576 -0.101300 2.823857
v -1.640979 -2.916034 5.638592
v 1.569576 -2.916033 5.638590
v -1.640979 -0.101300 5.638594
v 1.569576 -0.101299 5.638590
v -1.640978 -2.916035 2.823859
v -1.640979 -2.916034 5.638592
v -1.640979 -0.101301 2.823859
v -1.640979 -0.101300 5.638594
v 1.569577 -2.916034 2.823856
v -1.640978 -2.916035 2.823859
v 1.569576 -0.101300 2.823857
v -1.640979 -0.101301 2.823859
v -1.914990 1.388118 -1.603527
v -1.914044 2.424571 -2.640970
v -1.914990 -0.430635 -2.194475
v -1.914044 2.424571 -3.660331
v -1.914990 -0.430636 -4.106827
v -1.914990 1.388117 -4.697775
v 1.872464 1.388118 -4.697776
v -1.914990 1.388117 -4.697775
v 1.873410 2.424572 -3.660332
v -1.914044 2.424571 -3.660331
v -1.914044 2.424571 -2.640970
v -1.914990 1.388118 -1.603527
v 1.872464 1.388120 -1.603528
v 1.873410 2.424573 -2.640971
v 1.872464 1.388120 -1.603528
v -1.914990 1.388118 -1.603527
v 1.872464 -0.430634 -2.194476
v -1.914990 -0.430635 -2.194475
v 1.872464 -0.430634 -4.106827
v -1.914990 -0.430636 -4.106827
v 1.872464 1.388118 -4.697776
v -1.914990 1.388117 -4.697775
v 1.872464 1.388120 -1.603528
v 1.872464 -0.430634 -2.194476
v 1.873410 2.424573 -2.640971
v 1.873410 2.424572 -3.660332
v 1.872464 1.388118 -4.697776
v 1.872464 -0.430634 -4.106827
v -1.914991 1.388119 1.657676
v -1.914990 -0.430634 2.248626
v -1.914044 2.424573 2.695120
v -1.914044 2.424574 3.714481
v -1.914991 1.388121 4.751924
v -1.914990 -0.430633 4.160975
v 1.872463 1.388123 4.751921
v 1.873410 2.424576 3.714478
v -1.914991 1.388121 4.751924
v -1.914044 2.424574 3.714481
v 1.873410 2.424575 2.695116
v -1.914044 2.424573 2.695120
v -1.914991 1.388119 1.657676
v 1.872463 1.388121 1.657673
v 1.872463 1.388121 1.657673
v 1.872464 -0.430632 2.248622
v -1.914991 1.388119 1.657676
v -1.914990 -0.430634 2.248626
v 1.872464 -0.430631 4.160972
v 1.872463 1.388123 4.751921
v -1.914990 -0.430633 4.160975
v -1.914991 1.388121 4.751924
v 1.872463 1.388121 1.657673
v 1.873410 2.424575 2.695116
v 1.872464 -0.430632 2.248622
v 1.872464 -0.430631 4.160972
v 1.872463 1.388123 4.751921
v 1.873410 2.424576 3.714478
vn -0.0000 -1.0000 -0.0000
vn -0.0000 1.0000 -0.0000
vn 1.0000 -0.0000 -0.0000
vn -1.0000 -0.0000 -0.0000
vn -0.0000 -0.0000 -1.0000
vn -0.0000 -0.0000 1.0000
vn -1.0000 0.0002 -0.0007
vn -1.0000 0.0003 -0.0004
vn -1.0000 0.0003 -0.0003
vn -1.0000 0.0003 0.0003
vn -1.0000 0.0003 0.0004
vn -1.0000 0.0003 0.0002
vn -1.0000 0.0002 0.0007
vn -0.0000 0.0342 -0.9994
vn -0.0000 0.4237 -0.9058
vn -0.0000 0.9240 -0.3825
vn -0.0001 0.4237 -0.9058
vn -0.0000 0.9240 -0.3824
vn -0.0000 0.9240 0.3824
vn -0.0000 0.0342 0.9994
vn -0.0000 0.4237 0.9058
vn -0.0000 0.9240 0.3825
vn -0.0000 -0.6479 0.7617
vn -0.0000 -0.9247 0.3808
vn -0.0000 -0.9246 0.3808
vn -0.0000 -0.9246 -0.3808
vn -0.0000 -0.6479 -0.7617
vn -0.0000 -0.9247 -0.3808
vn 1.0000 -0.0002 0.0007
vn 1.0000 -0.0003 0.0004
vn 1.0000 -0.0003 -0.0000
vn 1.0000 -0.0002 -0.0007
vn 1.0000 -0.0003 -0.0002
vn 1.0000 -0.0003 -0.0004
vn -1.0000 0.0003 -0.0000
vn -1.0000 0.0003 -0.0002
vn -0.0000 0.8630 0.5052
vn 0.0001 0.9676 0.2526
vn -0.0000 0.9676 -0.2526
vn -0.0000 0.9676 0.2526
vn -0.0000 0.8630 -0.5052
vn -0.0001 0.0342 -0.9994
vn 0.0001 0.9676 -0.2526
vn 1.0000 -0.0003 0.0002
vt 0.304688 0.003906
vt 0.671875 0.003906
vt 0.304688 0.082031
vt 0.671875 0.082031
vt 0.671875 0.070312
vt 0.304688 0.070312
vt 0.671875 0.015625
vt 0.304688 0.015625
vt 0.214844 0.296875
vt 0.156250 0.296875
vt 0.214844 0.355469
vt 0.156250 0.355469
vt 0.148438 0.355469
vt 0.148438 0.296875
vt 0.089844 0.355469
vt 0.089844 0.296875
vt 0.218750 0.179688
vt 0.296875 0.179688
vt 0.218750 0.253906
vt 0.296875 0.253906
vt 0.218750 0.261719
vt 0.300781 0.261719
vt 0.218750 0.339844
vt 0.300781 0.339844
vt 0.085938 0.417969
vt 0.121094 0.476562
vt 0.121094 0.363281
vt 0.179688 0.476562
vt 0.179688 0.363281
vt 0.214844 0.417969
vt 0.191406 0.007812
vt 0.191406 0.167969
vt 0.156250 0.007812
vt 0.156250 0.167969
vt 0.125000 0.167969
vt 0.089844 0.167969
vt 0.089844 0.007812
vt 0.125000 0.007812
vt 0.207031 0.007812
vt 0.207031 0.167969
vt 0.296875 0.007812
vt 0.296875 0.167969
vt 0.089844 0.230469
vt 0.117188 0.179688
vt 0.121094 0.285156
vt 0.179688 0.285156
vt 0.210938 0.230469
vt 0.183594 0.179688
s 0
usemtl TURRETEL.Overlord_Tank_-_Upgrades
f 159/40/147 160/41/147 161/42/147
f 161/42/147 160/41/147 162/43/147
f 163/42/148 164/40/148 165/43/148
f 165/43/148 164/40/148 166/41/148
f 167/44/149 168/43/149 169/45/149
f 169/45/149 168/43/149 170/42/149
f 171/41/150 172/46/150 173/40/150
f 173/40/150 172/46/150 174/47/150
f 175/48/147 176/49/147 177/50/147
f 177/50/147 176/49/147 178/51/147
f 179/52/148 180/53/148 181/54/148
f 181/54/148 180/53/148 182/55/148
f 183/56/149 184/57/149 185/58/149
f 185/58/149 184/57/149 186/59/149
f 187/60/151 188/61/151 189/62/151
f 189/62/151 188/61/151 190/63/151
f 191/56/150 192/57/150 193/58/150
f 193/58/150 192/57/150 194/59/150
f 195/58/152 196/59/152 197/56/152
f 197/56/152 196/59/152 198/57/152
f 199/48/147 200/50/147 201/49/147
f 201/49/147 200/50/147 202/51/147
f 203/52/148 204/54/148 205/53/148
f 205/53/148 204/54/148 206/55/148
f 207/56/149 208/58/149 209/57/149
f 209/57/149 208/58/149 210/59/149
f 211/60/152 212/62/152 213/61/152
f 213/61/152 212/62/152 214/63/152
f 215/56/150 216/58/150 217/57/150
f 217/57/150 216/58/150 218/59/150
f 219/58/151 220/56/151 221/59/151
f 221/59/151 220/56/151 222/57/151
f 223/64/153 224/65/153 225/66/154
f 225/66/155 224/65/155 226/67/156
f 225/66/155 226/67/156 227/68/156
f 227/68/157 226/67/158 228/69/159
f 229/70/160 230/71/161 231/72/162
f 231/72/162 230/71/163 232/73/162
f 231/72/164 232/73/164 233/74/165
f 234/75/166 235/76/167 233/74/168
f 233/74/168 235/76/167 236/77/168
f 233/74/165 236/77/165 231/72/164
f 237/78/167 238/79/166 239/80/169
f 239/80/169 238/79/166 240/81/170
f 239/80/169 240/81/171 241/80/172
f 241/80/172 240/81/171 242/81/173
f 241/80/174 242/81/173 243/78/160
f 243/78/160 242/81/173 244/79/161
f 245/82/175 246/83/176 247/84/175
f 247/84/177 246/83/177 248/85/177
f 249/86/178 248/85/179 250/87/180
f 250/87/177 248/85/177 246/83/177
f 251/69/159 252/68/158 253/67/157
f 253/67/181 252/68/181 254/65/181
f 255/64/153 254/65/182 256/66/154
f 256/66/181 254/65/181 252/68/181
f 257/70/166 258/72/183 259/71/167
f 259/71/167 258/72/183 260/73/184
f 258/72/183 261/77/185 260/73/186
f 260/73/186 261/77/185 262/74/187
f 263/75/188 262/74/187 264/76/161
f 264/76/161 262/74/187 261/77/189
f 265/78/161 266/80/173 267/79/160
f 267/79/160 266/80/173 268/81/174
f 266/80/173 269/80/171 268/81/172
f 268/81/172 269/80/171 271/81/169
f 272/79/167 271/81/169 270/78/166
f 270/78/166 271/81/169 269/80/170
f 273/86/178 274/85/179 275/87/180
f 275/87/177 274/85/177 276/83/177
f 277/82/175 276/83/190 278/84/176
f 278/84/177 276/83/177 274/85/177
