# Blender 5.1.2
# www.blender.org
mtllib v1.mtl
o m1
v 3.211077 7.554373 6.209475
v 3.211078 7.554373 12.124720
v 6.165676 7.554600 6.209474
v 6.165676 7.554600 6.209474
v 3.211078 7.554373 12.124720
v 6.165678 7.554600 12.124716
v -3.210724 1.091229 3.792056
v -3.210720 1.091226 14.542140
v 3.211075 1.091228 3.792053
v 3.211075 1.091228 3.792053
v -3.210720 1.091226 14.542140
v 3.211079 1.091227 14.542140
v -6.165323 7.554601 6.209478
v -6.165321 7.554600 12.124719
v -3.210722 7.554374 6.209477
v -3.210721 7.554372 12.124721
v 8.405274 1.090950 0.084252
v 8.405274 -1.428818 0.084251
v -8.404924 1.091307 0.084254
v -8.404924 1.091307 0.084254
v 8.405274 -1.428818 0.084251
v -8.404924 -1.428460 0.084254
v -8.404922 -1.428460 14.542141
v -8.404922 1.091304 14.542139
v -8.404924 -1.428460 0.084254
v -8.404923 1.091306 3.792056
v -8.404924 1.091307 0.084254
v -8.404922 1.091304 14.542139
v -8.404922 -1.428460 14.542141
v -3.210720 1.091226 14.542140
v 3.211079 1.091227 14.542140
v 8.405279 1.090946 14.542137
v 8.405279 -1.428818 14.542137
v 8.405279 1.090946 14.542137
v 8.405279 -1.428818 14.542137
v 8.405275 1.090948 3.792053
v 8.405274 -1.428818 0.084251
v 8.405274 1.090950 0.084252
v 3.211075 1.091228 3.792053
v 3.211077 7.554373 6.209475
v 8.405275 1.090948 3.792053
v 6.165676 7.554600 6.209474
v 3.211079 1.091227 14.542140
v 3.211078 7.554373 12.124720
v 3.211075 1.091228 3.792053
v 3.211077 7.554373 6.209475
v 8.405279 1.090946 14.542137
v 6.165678 7.554600 12.124716
v 3.211079 1.091227 14.542140
v 3.211078 7.554373 12.124720
v 8.405275 1.090948 3.792053
v 6.165676 7.554600 6.209474
v 8.405279 1.090946 14.542137
v 6.165678 7.554600 12.124716
v -3.210724 1.091229 3.792056
v -3.210722 7.554374 6.209477
v -3.210720 1.091226 14.542140
v -3.210721 7.554372 12.124721
v -8.404923 1.091306 3.792056
v -6.165323 7.554601 6.209478
v -3.210724 1.091229 3.792056
v -3.210722 7.554374 6.209477
v -8.404922 1.091304 14.542139
v -6.165321 7.554600 12.124719
v -8.404923 1.091306 3.792056
v -8.404923 1.091306 3.792056
v -6.165321 7.554600 12.124719
v -6.165323 7.554601 6.209478
v -3.210720 1.091226 14.542140
v -3.210721 7.554372 12.124721
v -8.404922 1.091304 14.542139
v -6.165321 7.554600 12.124719
v 8.405275 1.090948 3.792053
v 8.405274 1.090950 0.084252
v 3.211075 1.091228 3.792053
v -8.404924 1.091307 0.084254
v -3.210724 1.091229 3.792056
v -8.404923 1.091306 3.792056
v 3.211076 7.553914 -6.209844
v 6.165675 7.554141 -6.209843
v 3.211077 7.553914 -12.125088
v 3.211077 7.553914 -12.125088
v 6.165675 7.554141 -6.209843
v 6.165677 7.554141 -12.125084
v -3.210724 1.090771 -3.792425
v 3.211075 1.090771 -3.792423
v -3.210722 1.090769 -14.542509
v -3.210722 1.090769 -14.542509
v 3.211075 1.090771 -3.792423
v 3.211077 1.090769 -14.542509
v -6.165323 7.554143 -6.209847
v -3.210723 7.553916 -6.209846
v -6.165323 7.554141 -12.125088
v -3.210722 7.553914 -12.125090
v 8.405274 1.090492 -0.084621
v -8.404924 1.090849 -0.084624
v 8.405274 -1.429275 -0.084620
v 8.405274 -1.429275 -0.084620
v -8.404924 1.090849 -0.084624
v -8.404924 -1.428918 -0.084623
v -8.404923 -1.428918 -14.542509
v -8.404924 -1.428918 -0.084623
v -8.404923 1.090846 -14.542509
v -8.404923 1.090848 -3.792425
v -8.404924 1.090849 -0.084624
v -8.404923 1.090846 -14.542509
v -3.210722 1.090769 -14.542509
v -8.404923 -1.428918 -14.542509
v 3.211077 1.090769 -14.542509
v 8.405277 -1.429275 -14.542507
v 8.405277 1.090488 -14.542507
v 8.405277 1.090488 -14.542507
v 8.405275 1.090491 -3.792423
v 8.405277 -1.429275 -14.542507
v 8.405274 -1.429275 -0.084620
v 8.405274 1.090492 -0.084621
v 3.211075 1.090771 -3.792423
v 8.405275 1.090491 -3.792423
v 3.211076 7.553914 -6.209844
v 6.165675 7.554141 -6.209843
v 3.211077 1.090769 -14.542509
v 3.211075 1.090771 -3.792423
v 3.211077 7.553914 -12.125088
v 3.211076 7.553914 -6.209844
v 8.405277 1.090488 -14.542507
v 3.211077 1.090769 -14.542509
v 6.165677 7.554141 -12.125084
v 3.211077 7.553914 -12.125088
v 8.405275 1.090491 -3.792423
v 8.405277 1.090488 -14.542507
v 6.165675 7.554141 -6.209843
v 6.165677 7.554141 -12.125084
v -3.210724 1.090771 -3.792425
v -3.210722 1.090769 -14.542509
v -3.210723 7.553916 -6.209846
v -3.210722 7.553914 -12.125090
v -8.404923 1.090848 -3.792425
v -3.210724 1.090771 -3.792425
v -6.165323 7.554143 -6.209847
v -3.210723 7.553916 -6.209846
v -8.404923 1.090846 -14.542509
v -8.404923 1.090848 -3.792425
v -6.165323 7.554141 -12.125088
v -6.165323 7.554141 -12.125088
v -8.404923 1.090848 -3.792425
v -6.165323 7.554143 -6.209847
v -3.210722 1.090769 -14.542509
v -8.404923 1.090846 -14.542509
v -3.210722 7.553914 -12.125090
v -6.165323 7.554141 -12.125088
v 8.405275 1.090491 -3.792423
v 3.211075 1.090771 -3.792423
v 8.405274 1.090492 -0.084621
v -8.404924 1.090849 -0.084624
v -8.404923 1.090848 -3.792425
v -3.210724 1.090771 -3.792425
v 5.669182 -0.914402 -8.224604
v 4.561397 -1.194602 -7.178884
v 4.561397 -1.194602 -7.178884
v 3.503966 -0.914402 -8.224604
v 4.611751 -0.634202 -9.270323
v -3.503616 -0.914402 -8.224604
v -4.611402 -1.194602 -7.178884
v -4.611402 -1.194602 -7.178884
v -5.668832 -0.914402 -8.224604
v -4.561048 -0.634202 -9.270323
vn -0.0001 1.0000 -0.0000
vn -0.0000 1.0000 -0.0000
vn -0.0000 -0.0000 -1.0000
vn -0.9449 0.3274 -0.0000
vn -0.0000 -0.0000 1.0000
vn 0.0001 1.0000 -0.0000
vn -1.0000 -0.0000 -0.0000
vn 1.0000 -0.0000 -0.0000
vn -0.0000 0.3503 -0.9366
vn -0.0000 0.3503 0.9366
vn 0.9449 0.3274 -0.0000
vt 0.656250 0.742188
vt 0.457031 0.742188
vt 0.656250 0.671875
vt 0.457031 0.671875
vt 0.683594 0.140625
vt 0.683594 0.273438
vt 0.585938 0.140625
vt 0.585938 0.273438
vt 0.796875 0.824219
vt 0.796875 0.742188
vt 0.519531 0.824219
vt 0.519531 0.742188
vt 0.589844 0.023438
vt 0.535156 0.164062
vt 0.355469 0.023438
vt 0.410156 0.164062
vt 0.152344 0.023438
vt 0.152344 0.093750
vt 0.355469 0.093750
vt 0.953125 0.742188
vt 0.835938 0.824219
vt 0.953125 0.824219
vt 0.707031 0.824219
vt 0.609375 0.824219
vt 0.996094 0.511719
vt 0.996094 0.742188
vt 0.898438 0.511719
vt 0.898438 0.742188
vt 0.097656 0.093750
vt 0.097656 0.164062
vt 0.175781 0.093750
vt 0.355469 0.164062
vt 0.277344 0.093750
vt 0.000000 0.023438
vt 0.000000 0.152344
vt 0.093750 0.023438
vt 0.093750 0.093750
s 0
usemtl TURRET01.001.Renegade_Mtl_#3
f 1/1/1 2/2/1 3/3/1
f 4/3/1 5/2/1 6/4/1
f 7/5/2 8/6/2 9/7/2
f 10/7/2 11/6/2 12/8/2
f 17/9/3 18/10/3 19/11/3
f 20/11/3 21/10/3 22/12/3
f 63/13/4 64/14/4 65/15/4
f 66/15/4 67/14/4 68/16/4
f 79/17/1 80/18/1 81/15/1
f 82/15/1 83/18/1 84/19/1
f 85/5/2 86/7/2 87/6/2
f 88/6/2 89/7/2 90/8/2
f 95/9/5 96/11/5 97/10/5
f 98/10/5 99/11/5 100/12/5
f 141/13/4 142/15/4 143/14/4
f 144/14/4 145/15/4 146/16/4
f 13/3/6 14/4/6 15/1/6
f 15/1/6 14/4/6 16/2/6
f 23/12/7 24/11/7 25/20/7
f 25/20/7 24/11/7 26/21/7
f 25/20/7 26/21/7 27/22/7
f 28/9/5 29/10/5 30/23/5
f 30/23/5 29/10/5 31/24/5
f 32/11/5 31/24/5 33/12/5
f 33/12/5 31/24/5 29/10/5
f 34/11/8 35/12/8 36/21/8
f 36/21/8 35/12/8 37/20/8
f 36/21/8 37/20/8 38/22/8
f 39/25/9 40/26/9 41/27/9
f 41/27/9 40/26/9 42/28/9
f 43/13/7 44/14/7 45/15/7
f 45/15/7 44/14/7 46/16/7
f 47/27/10 48/28/10 49/25/10
f 49/25/10 48/28/10 50/26/10
f 51/15/11 52/16/11 53/13/11
f 53/13/11 52/16/11 54/14/11
f 55/15/8 56/16/8 57/13/8
f 57/13/8 56/16/8 58/14/8
f 59/27/9 60/28/9 61/25/9
f 61/25/9 60/28/9 62/26/9
f 69/25/10 70/26/10 71/27/10
f 71/27/10 70/26/10 72/28/10
f 73/29/6 74/30/6 75/31/6
f 75/31/2 74/30/2 76/32/2
f 75/31/2 76/32/2 77/33/2
f 77/33/2 76/32/2 78/19/2
f 91/18/6 92/17/6 93/19/6
f 93/19/6 92/17/6 94/15/6
f 101/12/7 102/20/7 103/11/7
f 103/11/7 102/20/7 104/21/7
f 102/20/7 105/22/7 104/21/7
f 106/9/3 107/23/3 108/10/3
f 108/10/3 107/23/3 109/24/3
f 108/10/3 109/24/3 110/12/3
f 110/12/3 109/24/3 111/11/3
f 112/11/8 113/21/8 114/12/8
f 114/12/8 113/21/8 115/20/8
f 115/20/8 113/21/8 116/22/8
f 117/34/10 118/35/10 119/36/10
f 119/36/10 118/35/10 120/37/10
f 121/13/7 122/15/7 123/14/7
f 123/14/7 122/15/7 124/16/7
f 125/27/9 126/25/9 127/28/9
f 127/28/9 126/25/9 128/26/9
f 129/15/11 130/13/11 131/16/11
f 131/16/11 130/13/11 132/14/11
f 133/15/8 134/13/8 135/16/8
f 135/16/8 134/13/8 136/14/8
f 137/35/10 138/34/10 139/37/10
f 139/37/10 138/34/10 140/36/10
f 147/25/9 148/27/9 149/26/9
f 149/26/9 148/27/9 150/28/9
f 151/29/6 152/31/6 153/30/6
f 153/30/2 152/31/2 154/32/2
f 155/19/2 154/32/2 156/33/2
f 156/33/2 154/32/2 152/31/2
l 157 158
l 157 161
l 160 161
l 159 160
l 162 163
l 162 166
l 165 166
l 164 165
