# Blender 5.1.2
# www.blender.org
mtllib v2.mtl
o m2
v 2.177163 3.253325 -11.005166
v 5.875004 0.026531 -10.646346
v 2.177163 -0.036740 -11.005165
v 5.875004 3.190054 -10.646342
v 5.875004 3.190054 -10.646342
v 5.875005 0.878143 -5.816620
v 5.875004 0.026531 -10.646346
v 5.875005 2.338445 -5.816620
v 2.177164 2.338446 -5.816620
v 2.177163 -0.036740 -11.005165
v 2.177164 0.878143 -5.816619
v 2.177163 3.253325 -11.005166
v 2.177163 -0.036740 -11.005165
v 5.875004 -2.946208 -9.564353
v 2.177163 -3.128388 -9.879895
v 5.875004 0.026531 -10.646346
v 5.875005 -0.494093 -5.317167
v 5.875004 -2.946208 -9.564353
v 2.177163 -3.128388 -9.879895
v 2.177164 -0.494092 -5.317166
v 2.177163 -3.128388 -9.879895
v 5.875004 -5.369609 -7.530880
v 2.177163 -5.648724 -7.765083
v 5.875004 -2.946208 -9.564353
v 5.875005 -1.612748 -4.378502
v 5.875004 -5.369609 -7.530880
v 2.177163 -5.648724 -7.765083
v 2.177164 -1.612748 -4.378501
v 2.177163 -5.648724 -7.765083
v 5.875005 -6.951367 -4.791186
v 2.177164 -7.293755 -4.915803
v 5.875004 -5.369609 -7.530880
v 5.875005 -2.342899 -3.113843
v 5.875005 -6.951367 -4.791186
v 2.177164 -7.293755 -4.915803
v 2.177164 -2.342899 -3.113842
v 2.177164 -7.293755 -4.915803
v 5.875005 -7.500707 -1.675723
v 2.177164 -7.865067 -1.675723
v 5.875005 -6.951367 -4.791186
v 5.875006 -2.596478 -1.675726
v 5.875005 -7.500707 -1.675723
v 2.177164 -7.865067 -1.675723
v 2.177164 -2.596478 -1.675725
v 2.177164 -7.865067 -1.675723
v 5.875006 -6.951366 1.439738
v 2.177165 -7.293753 1.564357
v 5.875005 -7.500707 -1.675723
v 5.875006 -2.342898 -0.237609
v 5.875006 -6.951366 1.439738
v 2.177165 -7.293753 1.564357
v 2.177165 -2.342898 -0.237608
v 2.177165 -7.293753 1.564357
v 5.875006 -5.369603 4.179431
v 2.177165 -5.648718 4.413635
v 5.875006 -6.951366 1.439738
v 5.875006 -1.612746 1.027050
v 5.875006 -5.369603 4.179431
v 2.177165 -5.648718 4.413635
v 2.177165 -1.612746 1.027050
v 2.177165 -5.648718 4.413635
v 5.875007 -2.946202 6.212901
v 2.177166 -3.128382 6.528447
v 5.875006 -5.369603 4.179431
v 5.875006 -0.494089 1.965713
v 5.875007 -2.946202 6.212901
v 2.177166 -3.128382 6.528447
v 2.177165 -0.494089 1.965714
v 2.177166 -3.128382 6.528447
v 5.875007 0.026538 7.294888
v 2.177166 -0.036732 7.653712
v 5.875007 -2.946202 6.212901
v 5.875006 0.878146 2.465165
v 5.875007 0.026538 7.294888
v 2.177166 -0.036732 7.653712
v 2.177165 0.878147 2.465166
v 2.177166 -0.036732 7.653712
v 5.875008 3.190063 7.294887
v 2.177166 3.253333 7.653712
v 5.875007 0.026538 7.294888
v 5.875007 2.338449 2.465164
v 5.875008 3.190063 7.294887
v 2.177166 3.253333 7.653712
v 2.177165 2.338449 2.465165
v 2.177166 3.253333 7.653712
v 5.875007 6.162801 6.212896
v 2.177166 6.344982 6.528441
v 5.875008 3.190063 7.294887
v 5.875007 3.710684 1.965711
v 5.875007 6.162801 6.212896
v 2.177166 6.344982 6.528441
v 2.177165 3.710684 1.965712
v 2.177166 6.344982 6.528441
v 5.875007 8.586203 4.179422
v 2.177166 8.865316 4.413629
v 5.875007 6.162801 6.212896
v 5.875006 4.829340 1.027047
v 5.875007 8.586203 4.179422
v 2.177166 8.865316 4.413629
v 2.177165 4.829340 1.027047
v 2.177166 8.865316 4.413629
v 5.875007 10.167960 1.439729
v 2.177166 10.510346 1.564348
v 5.875007 8.586203 4.179422
v 5.875006 5.559490 -0.237613
v 5.875007 10.167960 1.439729
v 2.177166 10.510346 1.564348
v 2.177165 5.559491 -0.237612
v 2.177166 10.510346 1.564348
v 5.875006 10.717299 -1.675733
v 2.177165 11.081658 -1.675733
v 5.875007 10.167960 1.439729
v 5.875006 5.813071 -1.675730
v 5.875006 10.717299 -1.675733
v 2.177165 11.081658 -1.675733
v 2.177165 5.813069 -1.675729
v 2.177165 11.081658 -1.675733
v 5.875006 10.167956 -4.791195
v 2.177165 10.510343 -4.915813
v 5.875006 10.717299 -1.675733
v 5.875006 5.559489 -3.113847
v 5.875006 10.167956 -4.791195
v 2.177165 10.510343 -4.915813
v 2.177165 5.559489 -3.113846
v 2.177165 10.510343 -4.915813
v 5.875005 8.586195 -7.530885
v 2.177164 8.865309 -7.765090
v 5.875006 10.167956 -4.791195
v 5.875005 4.829338 -4.378506
v 5.875005 8.586195 -7.530885
v 2.177164 8.865309 -7.765090
v 2.177164 4.829337 -4.378505
v 2.177164 8.865309 -7.765090
v 5.875005 6.162792 -9.564357
v 2.177163 6.344971 -9.879900
v 5.875005 8.586195 -7.530885
v 5.875005 3.710680 -5.317169
v 5.875005 6.162792 -9.564357
v 2.177163 6.344971 -9.879900
v 2.177164 3.710680 -5.317168
v 2.177163 6.344971 -9.879900
v 5.875004 3.190054 -10.646342
v 2.177163 3.253325 -11.005166
v 5.875005 6.162792 -9.564357
vn 0.0979 -0.2300 -0.9683
vn 0.0979 0.1150 -0.9885
vn 0.0979 -0.1150 -0.9885
vn 0.0979 0.2300 -0.9683
vn 0.0979 -0.5473 -0.8312
vn 0.0979 -0.2301 -0.9682
vn 0.0979 -0.4461 -0.8896
vn 0.0979 -0.1151 -0.9885
vn 0.0979 -0.7985 -0.5939
vn 0.0979 -0.7235 -0.6834
vn 0.0979 -0.4462 -0.8895
vn 0.0979 -0.9535 -0.2850
vn 0.0979 -0.7986 -0.5938
vn 0.0979 -0.9136 -0.3947
vn 0.0979 -0.7236 -0.6833
vn 0.0979 -0.9935 0.0583
vn 0.0979 -0.9536 -0.2849
vn 0.0979 -0.9935 -0.0584
vn 0.0979 -0.9136 -0.3946
vn 0.0979 -0.9136 0.3946
vn 0.0979 -0.9935 0.0584
vn 0.0979 -0.9536 0.2849
vn 0.0979 -0.9935 -0.0583
vn 0.0979 -0.7236 0.6833
vn 0.0979 -0.9136 0.3947
vn 0.0979 -0.7986 0.5938
vn 0.0979 -0.9535 0.2850
vn 0.0979 -0.4462 0.8895
vn 0.0979 -0.7235 0.6834
vn 0.0979 -0.5473 0.8312
vn 0.0979 -0.7985 0.5939
vn 0.0979 -0.1151 0.9885
vn 0.0979 -0.4461 0.8896
vn 0.0979 -0.2301 0.9682
vn 0.0979 0.2300 0.9683
vn 0.0979 -0.1150 0.9885
vn 0.0979 0.1150 0.9885
vn 0.0979 -0.2300 0.9683
vn 0.0979 0.5473 0.8312
vn 0.0979 0.2301 0.9682
vn 0.0979 0.4461 0.8896
vn 0.0979 0.1151 0.9885
vn 0.0979 0.7985 0.5939
vn 0.0979 0.7235 0.6834
vn 0.0979 0.4462 0.8895
vn 0.0979 0.9535 0.2850
vn 0.0979 0.7986 0.5938
vn 0.0979 0.9136 0.3947
vn 0.0979 0.7236 0.6833
vn 0.0979 0.9935 -0.0583
vn 0.0979 0.9536 0.2849
vn 0.0979 0.9935 0.0584
vn 0.0979 0.9136 0.3946
vn 0.0979 0.9136 -0.3946
vn 0.0979 0.9935 -0.0584
vn 0.0979 0.9536 -0.2849
vn 0.0979 0.9935 0.0583
vn 0.0979 0.7236 -0.6833
vn 0.0979 0.9136 -0.3947
vn 0.0979 0.7986 -0.5938
vn 0.0979 0.9535 -0.2850
vn 0.0979 0.4462 -0.8895
vn 0.0979 0.7235 -0.6834
vn 0.0979 0.5473 -0.8312
vn 0.0979 0.7985 -0.5939
vn 0.0979 0.1151 -0.9885
vn 0.0979 0.4461 -0.8896
vn 0.0979 0.2301 -0.9682
vn 1.0000 -0.0000 -0.0000
vn -1.0000 -0.0000 -0.0000
vt 0.422058 0.254174
vt 0.498367 0.254832
vt 0.422058 0.432461
vt 0.498367 0.433119
vt 0.499521 0.548995
vt 0.499520 0.699995
vt 0.670672 0.566638
vt 0.670240 0.676665
s 0
usemtl HOUSECOLOR07.001.Renegade_Mtl_#4
f 3/1/1 1/2/2 2/3/3
f 2/3/3 1/2/2 4/4/4
f 15/1/5 13/2/6 14/3/7
f 14/3/7 13/2/6 16/4/8
f 23/1/9 21/2/5 22/3/10
f 22/3/10 21/2/5 24/4/11
f 31/1/12 29/2/13 30/3/14
f 30/3/14 29/2/13 32/4/15
f 39/1/16 37/2/17 38/3/18
f 38/3/18 37/2/17 40/4/19
f 47/1/20 45/2/21 46/3/22
f 46/3/22 45/2/21 48/4/23
f 55/1/24 53/2/25 54/3/26
f 54/3/26 53/2/25 56/4/27
f 63/1/28 61/2/29 62/3/30
f 62/3/30 61/2/29 64/4/31
f 71/1/32 69/2/33 70/3/34
f 70/3/34 69/2/33 72/4/30
f 79/1/35 77/2/36 78/3/37
f 78/3/37 77/2/36 80/4/38
f 87/1/39 85/2/40 86/3/41
f 86/3/41 85/2/40 88/4/42
f 95/1/43 93/2/39 94/3/44
f 94/3/44 93/2/39 96/4/45
f 103/1/46 101/2/47 102/3/48
f 102/3/48 101/2/47 104/4/49
f 111/1/50 109/2/51 110/3/52
f 110/3/52 109/2/51 112/4/53
f 119/1/54 117/2/55 118/3/56
f 118/3/56 117/2/55 120/4/57
f 127/1/58 125/2/59 126/3/60
f 126/3/60 125/2/59 128/4/61
f 135/1/62 133/2/63 134/3/64
f 134/3/64 133/2/63 136/4/65
f 143/1/66 141/2/67 142/3/68
f 142/3/68 141/2/67 144/4/64
f 7/5/69 5/6/69 6/7/69
f 6/7/69 5/6/69 8/8/69
f 6/7/69 17/8/69 7/5/69
f 7/5/69 17/8/69 18/6/69
f 17/8/69 25/7/69 18/6/69
f 18/6/69 25/7/69 26/5/69
f 25/7/69 33/8/69 26/5/69
f 26/5/69 33/8/69 34/6/69
f 33/8/69 41/7/69 34/6/69
f 34/6/69 41/7/69 42/5/69
f 41/7/69 49/8/69 42/5/69
f 42/5/69 49/8/69 50/6/69
f 49/8/69 57/7/69 50/6/69
f 50/6/69 57/7/69 58/5/69
f 57/7/69 65/8/69 58/5/69
f 58/5/69 65/8/69 66/6/69
f 65/8/69 73/7/69 66/6/69
f 66/6/69 73/7/69 74/5/69
f 73/7/69 81/8/69 74/5/69
f 74/5/69 81/8/69 82/6/69
f 81/8/69 89/7/69 82/6/69
f 82/6/69 89/7/69 90/5/69
f 89/7/69 97/8/69 90/5/69
f 90/5/69 97/8/69 98/6/69
f 97/8/69 105/7/69 98/6/69
f 98/6/69 105/7/69 106/5/69
f 105/7/69 113/8/69 106/5/69
f 106/5/69 113/8/69 114/6/69
f 113/8/69 121/7/69 114/6/69
f 114/6/69 121/7/69 122/5/69
f 121/7/69 129/8/69 122/5/69
f 122/5/69 129/8/69 130/6/69
f 129/8/69 137/7/69 130/6/69
f 130/6/69 137/7/69 138/5/69
f 137/7/69 8/8/69 138/5/69
f 138/5/69 8/8/69 5/6/69
f 11/7/70 9/8/70 10/5/70
f 10/5/70 9/8/70 12/6/70
f 10/5/70 19/6/70 11/7/70
f 11/7/70 19/6/70 20/8/70
f 19/6/70 27/5/70 20/8/70
f 20/8/70 27/5/70 28/7/70
f 27/5/70 35/6/70 28/7/70
f 28/7/70 35/6/70 36/8/70
f 35/6/70 43/5/70 36/8/70
f 36/8/70 43/5/70 44/7/70
f 43/5/70 51/6/70 44/7/70
f 44/7/70 51/6/70 52/8/70
f 51/6/70 59/5/70 52/8/70
f 52/8/70 59/5/70 60/7/70
f 59/5/70 67/6/70 60/7/70
f 60/7/70 67/6/70 68/8/70
f 67/6/70 75/5/70 68/8/70
f 68/8/70 75/5/70 76/7/70
f 75/5/70 83/6/70 76/7/70
f 76/7/70 83/6/70 84/8/70
f 83/6/70 91/5/70 84/8/70
f 84/8/70 91/5/70 92/7/70
f 91/5/70 99/6/70 92/7/70
f 92/7/70 99/6/70 100/8/70
f 99/6/70 107/5/70 100/8/70
f 100/8/70 107/5/70 108/7/70
f 107/5/70 115/6/70 108/7/70
f 108/7/70 115/6/70 116/8/70
f 115/6/70 123/5/70 116/8/70
f 116/8/70 123/5/70 124/7/70
f 123/5/70 131/6/70 124/7/70
f 124/7/70 131/6/70 132/8/70
f 131/6/70 139/5/70 132/8/70
f 132/8/70 139/5/70 140/7/70
f 139/5/70 12/6/70 140/7/70
f 140/7/70 12/6/70 9/8/70
o m1
v 5.942395 -6.165734 -4.028678
v 3.038436 -6.165734 -4.028678
v 5.942395 -1.642150 -4.028679
v 5.942395 -1.642150 -4.028679
v 3.038436 -6.165734 -4.028678
v 3.038436 -1.642149 -4.028679
v 5.942395 -1.642150 -4.028679
v 3.038436 -1.642149 -4.028679
v 5.942395 -1.642149 1.183462
v 5.942395 -1.642149 1.183462
v 3.038436 -1.642149 -4.028679
v 3.038436 -1.642149 1.183462
v 5.942395 -1.642149 1.183462
v 3.038436 -1.642149 1.183462
v 5.942395 -6.165734 1.183463
v 3.038436 -6.165733 1.183462
v 3.626340 -5.171836 -6.540690
v 3.626338 -5.171834 3.659289
v 4.439420 -4.365160 -6.540691
v 4.439420 -4.365160 -6.540691
v 3.626338 -5.171834 3.659289
v 4.439420 -4.365158 3.659289
v 5.252501 -5.171836 -6.540691
v 5.252501 -5.171834 3.659289
v -15.524562 -7.941496 -4.447430
v -2.324561 -7.941497 -4.447430
v -15.524561 -7.941495 1.602570
v -2.324560 -7.941496 1.602570
v -2.324560 -1.341494 1.602568
v -2.324561 -1.341495 -4.447432
v -15.524561 -1.341493 1.602569
v -15.524562 -1.341494 -4.447431
v -2.324560 -7.941496 1.602570
v -2.324560 -1.341494 1.602568
v -15.524561 -7.941495 1.602570
v -15.524561 -7.941495 1.602570
v -2.324560 -1.341494 1.602568
v -15.524561 -1.341493 1.602569
v -2.324561 -7.941497 -4.447430
v -2.324561 -1.341495 -4.447432
v -2.324560 -7.941496 1.602570
v -2.324560 -1.341494 1.602568
v -15.524562 -7.941496 -4.447430
v -15.524562 -1.341494 -4.447431
v -2.324561 -7.941497 -4.447430
v -2.324561 -1.341495 -4.447432
v -15.524561 -7.941495 1.602570
v -15.524561 -1.341493 1.602569
v -15.524562 -7.941496 -4.447430
v -15.524562 -1.341494 -4.447431
v 5.942395 -6.165734 1.183463
v 5.942395 -6.165734 -4.028678
v 5.942395 -1.642149 1.183462
v 5.942395 -1.642150 -4.028679
v 3.038436 -6.165734 -4.028678
v 3.038436 -6.165733 1.183462
v 3.038436 -1.642149 -4.028679
v 3.038436 -1.642149 1.183462
v 5.942393 9.646503 1.183458
v 3.038435 9.646503 1.183459
v 5.942393 5.122920 1.183458
v 5.942393 5.122920 1.183458
v 3.038435 9.646503 1.183459
v 3.038435 5.122919 1.183459
v 5.942393 5.122920 1.183458
v 3.038435 5.122919 1.183459
v 5.942393 5.122921 -4.028683
v 5.942393 5.122921 -4.028683
v 3.038435 5.122919 1.183459
v 3.038434 5.122920 -4.028682
v 5.942393 5.122921 -4.028683
v 3.038434 5.122920 -4.028682
v 5.942393 9.646505 -4.028683
v 3.038434 9.646504 -4.028681
v 3.626339 8.652605 3.695471
v 3.626336 8.652605 -6.504508
v 4.439418 7.845929 3.695471
v 4.439418 7.845929 3.695471
v 3.626336 8.652605 -6.504508
v 4.439418 7.845930 -6.504508
v 5.252500 8.652606 3.695471
v 5.252500 8.652607 -6.504509
v -15.524563 11.422260 1.602214
v -2.324562 11.422264 1.602212
v -15.524563 11.422261 -4.447786
v -2.324562 11.422265 -4.447788
v -2.324562 4.822264 -4.447787
v -2.324561 4.822264 1.602212
v -15.524562 4.822260 -4.447786
v -15.524562 4.822259 1.602214
v -2.324562 11.422265 -4.447788
v -2.324562 4.822264 -4.447787
v -15.524563 11.422261 -4.447786
v -15.524563 11.422261 -4.447786
v -2.324562 4.822264 -4.447787
v -15.524562 4.822260 -4.447786
v -2.324562 11.422264 1.602212
v -2.324561 4.822264 1.602212
v -2.324562 11.422265 -4.447788
v -2.324562 4.822264 -4.447787
v -15.524563 11.422260 1.602214
v -15.524562 4.822259 1.602214
v -2.324562 11.422264 1.602212
v -2.324561 4.822264 1.602212
v -15.524563 11.422261 -4.447786
v -15.524562 4.822260 -4.447786
v -15.524563 11.422260 1.602214
v -15.524562 4.822259 1.602214
v 5.942393 9.646505 -4.028683
v 5.942393 9.646503 1.183458
v 5.942393 5.122921 -4.028683
v 5.942393 5.122920 1.183458
v 3.038435 9.646503 1.183459
v 3.038434 9.646504 -4.028681
v 3.038435 5.122919 1.183459
v 3.038434 5.122920 -4.028682
v 5.942394 3.436528 6.727324
v 3.038435 3.436526 6.727324
v 5.942393 1.174734 2.809786
v 5.942393 1.174734 2.809786
v 3.038435 3.436526 6.727324
v 3.038435 1.174733 2.809785
v 5.942393 1.174734 2.809786
v 3.038435 1.174733 2.809785
v 5.942393 5.688581 0.203713
v 5.942393 5.688581 0.203713
v 3.038435 1.174733 2.809785
v 3.038435 5.688581 0.203714
v 5.942393 5.688581 0.203713
v 3.038435 5.688581 0.203714
v 5.942393 7.950375 4.121252
v 3.038435 7.950374 4.121252
v 3.626340 0.764111 7.122591
v 3.626336 9.597553 2.022596
v 4.439419 0.360772 6.423987
v 4.439419 0.360772 6.423987
v 3.626336 9.597553 2.022596
v 4.439418 9.194214 1.323994
v 5.252501 0.764111 7.122590
v 5.252500 9.597554 2.022595
v -15.524561 3.961753 8.474553
v -2.324561 3.961757 8.474554
v -15.524562 9.201206 5.449552
v -2.324562 9.201211 5.449553
v -2.324561 5.901207 -0.266214
v -2.324561 0.661753 2.758788
v -15.524562 5.901204 -0.266216
v -15.524561 0.661750 2.758786
v -2.324562 9.201211 5.449553
v -2.324561 5.901207 -0.266214
v -15.524562 9.201206 5.449552
v -15.524562 9.201206 5.449552
v -2.324561 5.901207 -0.266214
v -15.524562 5.901204 -0.266216
v -2.324561 3.961757 8.474554
v -2.324561 0.661753 2.758788
v -2.324562 9.201211 5.449553
v -2.324561 5.901207 -0.266214
v -15.524561 3.961753 8.474553
v -15.524561 0.661750 2.758786
v -2.324561 3.961757 8.474554
v -2.324561 0.661753 2.758788
v -15.524562 9.201206 5.449552
v -15.524562 5.901204 -0.266216
v -15.524561 3.961753 8.474553
v -15.524561 0.661750 2.758786
v 5.942393 7.950375 4.121252
v 5.942394 3.436528 6.727324
v 5.942393 5.688581 0.203713
v 5.942393 1.174734 2.809786
v 3.038435 3.436526 6.727324
v 3.038435 7.950374 4.121252
v 3.038435 1.174733 2.809785
v 3.038435 5.688581 0.203714
v 5.942393 -4.469597 4.121257
v 3.038435 -4.469597 4.121256
v 5.942393 -2.207805 0.203718
v 5.942393 -2.207805 0.203718
v 3.038435 -4.469597 4.121256
v 3.038435 -2.207805 0.203717
v 5.942393 -2.207805 0.203718
v 3.038435 -2.207805 0.203717
v 5.942395 2.306043 2.809788
v 5.942395 2.306043 2.809788
v 3.038435 -2.207805 0.203717
v 3.038435 2.306042 2.809788
v 5.942395 2.306043 2.809788
v 3.038435 2.306042 2.809788
v 5.942393 0.044251 6.727328
v 3.038436 0.044251 6.727327
v 3.626339 -6.148115 2.004510
v 3.626338 2.685330 7.104497
v 4.439418 -5.744777 1.305908
v 4.439418 -5.744777 1.305908
v 3.626338 2.685330 7.104497
v 4.439421 3.088668 6.405895
v 5.252500 -6.148115 2.004510
v 5.252501 2.685331 7.104498
v -15.524561 -5.720128 5.449734
v -2.324561 -5.720129 5.449736
v -15.524561 -0.480673 8.474732
v -2.324560 -0.480673 8.474734
v -2.324560 2.819326 2.758965
v -2.324561 -2.420129 -0.266034
v -15.524561 2.819326 2.758963
v -15.524561 -2.420129 -0.266036
v -2.324560 -0.480673 8.474734
v -2.324560 2.819326 2.758965
v -15.524561 -0.480673 8.474732
v -15.524561 -0.480673 8.474732
v -2.324560 2.819326 2.758965
v -15.524561 2.819326 2.758963
v -2.324561 -5.720129 5.449736
v -2.324561 -2.420129 -0.266034
v -2.324560 -0.480673 8.474734
v -2.324560 2.819326 2.758965
v -15.524561 -5.720128 5.449734
v -15.524561 -2.420129 -0.266036
v -2.324561 -5.720129 5.449736
v -2.324561 -2.420129 -0.266034
v -15.524561 -0.480673 8.474732
v -15.524561 2.819326 2.758963
v -15.524561 -5.720128 5.449734
v -15.524561 -2.420129 -0.266036
v 5.942393 0.044251 6.727328
v 5.942393 -4.469597 4.121257
v 5.942395 2.306043 2.809788
v 5.942393 -2.207805 0.203718
v 3.038435 -4.469597 4.121256
v 3.038436 0.044251 6.727327
v 3.038435 -2.207805 0.203717
v 3.038435 2.306042 2.809788
v 5.942394 7.950357 -6.966477
v 3.038436 7.950358 -6.966476
v 5.942395 5.688566 -3.048938
v 5.942395 5.688566 -3.048938
v 3.038436 7.950358 -6.966476
v 3.038437 5.688567 -3.048937
v 5.942395 5.688566 -3.048938
v 3.038437 5.688567 -3.048937
v 5.942394 1.174718 -5.655007
v 5.942394 1.174718 -5.655007
v 3.038437 5.688567 -3.048937
v 3.038435 1.174719 -5.655007
v 5.942394 1.174718 -5.655007
v 3.038435 1.174719 -5.655007
v 5.942394 3.436509 -9.572547
v 3.038435 3.436510 -9.572546
v 3.626342 9.628876 -4.849730
v 3.626336 0.795431 -9.949717
v 4.439422 9.225538 -4.151128
v 4.439422 9.225538 -4.151128
v 3.626336 0.795431 -9.949717
v 4.439417 0.392093 -9.251115
v 5.252503 9.628876 -4.849730
v 5.252499 0.795430 -9.949718
v -15.524560 9.200893 -8.294951
v -2.324559 9.200891 -8.294955
v -15.524562 3.961438 -11.319950
v -2.324561 3.961435 -11.319954
v -2.324562 0.661437 -5.604183
v -2.324559 5.900892 -2.579185
v -15.524562 0.661439 -5.604180
v -15.524560 5.900895 -2.579182
v -2.324561 3.961435 -11.319954
v -2.324562 0.661437 -5.604183
v -15.524562 3.961438 -11.319950
v -15.524562 3.961438 -11.319950
v -2.324562 0.661437 -5.604183
v -15.524562 0.661439 -5.604180
v -2.324559 9.200891 -8.294955
v -2.324559 5.900892 -2.579185
v -2.324561 3.961435 -11.319954
v -2.324562 0.661437 -5.604183
v -15.524560 9.200893 -8.294951
v -15.524560 5.900895 -2.579182
v -2.324559 9.200891 -8.294955
v -2.324559 5.900892 -2.579185
v -15.524562 3.961438 -11.319950
v -15.524562 0.661439 -5.604180
v -15.524560 9.200893 -8.294951
v -15.524560 5.900895 -2.579182
v 5.942394 3.436509 -9.572547
v 5.942394 7.950357 -6.966477
v 5.942394 1.174718 -5.655007
v 5.942395 5.688566 -3.048938
v 3.038436 7.950358 -6.966476
v 3.038435 3.436510 -9.572546
v 3.038437 5.688567 -3.048937
v 3.038435 1.174719 -5.655007
v 5.942392 0.044232 -9.572540
v 3.038434 0.044234 -9.572540
v 5.942394 2.306026 -5.655003
v 5.942394 2.306026 -5.655003
v 3.038434 0.044234 -9.572540
v 3.038436 2.306028 -5.655002
v 5.942394 2.306026 -5.655003
v 3.038436 2.306028 -5.655002
v 5.942393 -2.207820 -3.048930
v 5.942393 -2.207820 -3.048930
v 3.038436 2.306028 -5.655002
v 3.038434 -2.207818 -3.048930
v 5.942393 -2.207820 -3.048930
v 3.038434 -2.207818 -3.048930
v 5.942390 -4.469614 -6.966467
v 3.038433 -4.469612 -6.966468
v 3.626339 2.716649 -9.967808
v 3.626334 -6.116791 -4.867811
v 4.439419 3.119987 -9.269205
v 4.439419 3.119987 -9.269205
v 3.626334 -6.116791 -4.867811
v 4.439416 -5.713453 -4.169209
v 5.252501 2.716648 -9.967808
v 5.252498 -6.116792 -4.867811
v -15.524564 -0.480988 -11.319770
v -2.324563 -0.480995 -11.319772
v -15.524566 -5.720441 -8.294766
v -2.324565 -5.720448 -8.294768
v -2.324562 -2.420444 -2.579002
v -2.324561 2.819009 -5.604004
v -15.524564 -2.420437 -2.579000
v -15.524562 2.819016 -5.604003
v -2.324565 -5.720448 -8.294768
v -2.324562 -2.420444 -2.579002
v -15.524566 -5.720441 -8.294766
v -15.524566 -5.720441 -8.294766
v -2.324562 -2.420444 -2.579002
v -15.524564 -2.420437 -2.579000
v -2.324563 -0.480995 -11.319772
v -2.324561 2.819009 -5.604004
v -2.324565 -5.720448 -8.294768
v -2.324562 -2.420444 -2.579002
v -15.524564 -0.480988 -11.319770
v -15.524562 2.819016 -5.604003
v -2.324563 -0.480995 -11.319772
v -2.324561 2.819009 -5.604004
v -15.524566 -5.720441 -8.294766
v -15.524564 -2.420437 -2.579000
v -15.524564 -0.480988 -11.319770
v -15.524562 2.819016 -5.604003
v 5.942390 -4.469614 -6.966467
v 5.942392 0.044232 -9.572540
v 5.942393 -2.207820 -3.048930
v 5.942394 2.306026 -5.655003
v 3.038434 0.044234 -9.572540
v 3.038433 -4.469612 -6.966468
v 3.038436 2.306028 -5.655002
v 3.038434 -2.207818 -3.048930
vn -0.0000 -0.0000 -1.0000
vn -0.0000 1.0000 -0.0000
vn -0.7043 0.7099 -0.0000
vn -0.0000 -0.0000 1.0000
vn -0.0000 -1.0000 -0.0000
vn -0.7043 -0.7099 -0.0000
vn -0.0000 -0.8660 0.5000
vn -0.0000 -0.5000 -0.8660
vn -0.7043 -0.3549 -0.6148
vn -0.0000 0.8660 -0.5000
vn -0.0000 -0.8660 -0.5000
vn -0.0000 0.5000 -0.8660
vn -0.7043 0.3549 -0.6148
vn -0.0000 0.8660 0.5000
vn -0.0000 -0.5000 0.8660
vn -0.7043 -0.3549 0.6148
vn -0.0000 0.5000 0.8660
vn -0.7043 0.3549 0.6148
vn 0.3140 0.9494 -0.0000
vn 0.7043 0.7099 -0.0000
vn 1.0000 -0.0000 -0.0000
vn -1.0000 -0.0000 -0.0000
vn 0.3140 -0.9494 -0.0000
vn 0.7043 -0.7099 -0.0000
vn 0.3140 -0.4748 -0.8222
vn 0.3140 -0.4747 -0.8222
vn 0.7043 -0.3549 -0.6148
vn 0.3140 0.4747 -0.8223
vn 0.3140 0.4747 -0.8222
vn 0.7043 0.3549 -0.6148
vn 0.3140 -0.4747 0.8223
vn 0.3140 -0.4747 0.8222
vn 0.7043 -0.3549 0.6148
vn 0.3140 0.4748 0.8222
vn 0.3140 0.4747 0.8222
vn 0.7043 0.3549 0.6148
vt 0.750000 0.414062
vt 0.750000 0.359375
vt 0.671875 0.414062
vt 0.671875 0.359375
vt 0.109375 0.601562
vt 0.050781 0.601562
vt 0.109375 0.507812
vt 0.050781 0.507812
vt 0.621094 0.945312
vt 0.871094 0.945312
vt 0.621094 0.964844
vt 0.867188 0.320312
vt 0.996094 0.320312
vt 0.867188 0.019531
vt 0.996094 0.019531
vt 0.871094 0.964844
vt 0.000000 0.507812
vt 0.191406 0.507812
vt 0.000000 0.601562
vt 0.191406 0.601562
vt 0.683594 0.273438
vt 0.683594 0.144531
vt 0.585938 0.273438
vt 0.585938 0.144531
vt 0.742188 0.414062
vt 0.742188 0.363281
vt 0.671875 0.363281
s 0
usemtl BARRELHOLDER.001.Renegade_Mtl_#3
f 145/9/71 146/10/71 147/11/71
f 148/11/71 149/10/71 150/12/71
f 151/13/72 152/14/72 153/15/72
f 154/15/72 155/14/72 156/16/72
f 161/17/73 162/18/73 163/19/73
f 177/20/74 178/21/74 179/22/74
f 180/22/74 181/21/74 182/23/74
f 203/9/74 204/10/74 205/11/74
f 206/11/74 207/10/74 208/12/74
f 209/13/75 210/14/75 211/15/75
f 212/15/75 213/14/75 214/16/75
f 219/17/76 220/18/76 221/19/76
f 235/20/71 236/21/71 237/22/71
f 238/22/71 239/21/71 240/23/71
f 261/9/77 262/10/77 263/11/77
f 264/11/77 265/10/77 266/12/77
f 267/13/78 268/14/78 269/15/78
f 270/15/78 271/14/78 272/16/78
f 277/17/79 278/18/79 279/19/79
f 293/20/80 294/21/80 295/22/80
f 296/22/80 297/21/80 298/23/80
f 319/9/81 320/10/81 321/11/81
f 322/11/81 323/10/81 324/12/81
f 325/13/82 326/14/82 327/15/82
f 328/15/82 329/14/82 330/16/82
f 335/17/83 336/18/83 337/19/83
f 351/20/84 352/21/84 353/22/84
f 354/22/84 355/21/84 356/23/84
f 377/9/84 378/10/84 379/11/84
f 380/11/84 381/10/84 382/12/84
f 383/13/85 384/14/85 385/15/85
f 386/15/85 387/14/85 388/16/85
f 393/17/86 394/18/86 395/19/86
f 409/20/81 410/21/81 411/22/81
f 412/22/81 413/21/81 414/23/81
f 435/9/80 436/10/80 437/11/80
f 438/11/80 439/10/80 440/12/80
f 441/13/87 442/14/87 443/15/87
f 444/15/87 445/14/87 446/16/87
f 451/17/88 452/18/88 453/19/88
f 467/20/77 468/21/77 469/22/77
f 470/22/77 471/21/77 472/23/77
f 157/11/74 158/12/74 159/9/74
f 159/9/74 158/12/74 160/10/74
f 165/18/73 166/24/89 164/19/72
f 164/19/72 166/24/89 167/17/90
f 167/17/90 166/24/89 168/18/90
f 169/25/75 170/26/75 171/27/75
f 171/27/75 170/26/75 172/28/75
f 173/26/72 174/28/72 175/25/72
f 175/25/72 174/28/72 176/27/72
f 183/29/91 184/30/91 185/31/91
f 185/31/91 184/30/91 186/32/91
f 187/22/71 188/23/71 189/20/71
f 189/20/71 188/23/71 190/21/71
f 191/31/92 192/32/92 193/29/92
f 193/29/92 192/32/92 194/30/92
f 195/33/91 196/34/91 197/11/91
f 197/11/91 196/34/91 198/35/91
f 199/33/92 200/34/92 201/11/92
f 201/11/92 200/34/92 202/35/92
f 215/11/71 216/12/71 217/9/71
f 217/9/71 216/12/71 218/10/71
f 223/18/76 224/24/93 222/19/75
f 222/19/75 224/24/93 225/17/94
f 225/17/94 224/24/93 226/18/94
f 227/25/72 228/26/72 229/27/72
f 229/27/72 228/26/72 230/28/72
f 231/26/75 232/28/75 233/25/75
f 233/25/75 232/28/75 234/27/75
f 241/29/91 242/30/91 243/31/91
f 243/31/91 242/30/91 244/32/91
f 245/22/74 246/23/74 247/20/74
f 247/20/74 246/23/74 248/21/74
f 249/31/92 250/32/92 251/29/92
f 251/29/92 250/32/92 252/30/92
f 253/33/91 254/34/91 255/11/91
f 255/11/91 254/34/91 256/35/91
f 257/33/92 258/34/92 259/11/92
f 259/11/92 258/34/92 260/35/92
f 273/11/80 274/12/80 275/9/80
f 275/9/80 274/12/80 276/10/80
f 281/18/79 282/24/95 280/19/78
f 280/19/78 282/24/96 283/17/97
f 283/17/97 282/24/96 284/18/97
f 285/25/87 286/26/87 287/27/87
f 287/27/87 286/26/87 288/28/87
f 289/26/78 290/28/78 291/25/78
f 291/25/78 290/28/78 292/27/78
f 299/29/91 300/30/91 301/31/91
f 301/31/91 300/30/91 302/32/91
f 303/22/77 304/23/77 305/20/77
f 305/20/77 304/23/77 306/21/77
f 307/31/92 308/32/92 309/29/92
f 309/29/92 308/32/92 310/30/92
f 311/33/91 312/34/91 313/11/91
f 313/11/91 312/34/91 314/35/91
f 315/33/92 316/34/92 317/11/92
f 317/11/92 316/34/92 318/35/92
f 331/11/84 332/12/84 333/9/84
f 333/9/84 332/12/84 334/10/84
f 339/18/83 340/24/98 338/19/82
f 338/19/82 340/24/99 341/17/100
f 341/17/100 340/24/99 342/18/100
f 343/25/85 344/26/85 345/27/85
f 345/27/85 344/26/85 346/28/85
f 347/26/82 348/28/82 349/25/82
f 349/25/82 348/28/82 350/27/82
f 357/29/91 358/30/91 359/31/91
f 359/31/91 358/30/91 360/32/91
f 361/22/81 362/23/81 363/20/81
f 363/20/81 362/23/81 364/21/81
f 365/31/92 366/32/92 367/29/92
f 367/29/92 366/32/92 368/30/92
f 369/33/91 370/34/91 371/11/91
f 371/11/91 370/34/91 372/35/91
f 373/33/92 374/34/92 375/11/92
f 375/11/92 374/34/92 376/35/92
f 389/11/81 390/12/81 391/9/81
f 391/9/81 390/12/81 392/10/81
f 397/18/86 398/24/101 396/19/85
f 396/19/85 398/24/102 399/17/103
f 399/17/103 398/24/102 400/18/103
f 401/25/82 402/26/82 403/27/82
f 403/27/82 402/26/82 404/28/82
f 405/26/85 406/28/85 407/25/85
f 407/25/85 406/28/85 408/27/85
f 415/29/91 416/30/91 417/31/91
f 417/31/91 416/30/91 418/32/91
f 419/22/84 420/23/84 421/20/84
f 421/20/84 420/23/84 422/21/84
f 423/31/92 424/32/92 425/29/92
f 425/29/92 424/32/92 426/30/92
f 427/33/91 428/34/91 429/11/91
f 429/11/91 428/34/91 430/35/91
f 431/33/92 432/34/92 433/11/92
f 433/11/92 432/34/92 434/35/92
f 447/11/77 448/12/77 449/9/77
f 449/9/77 448/12/77 450/10/77
f 455/18/88 456/24/104 454/19/87
f 454/19/87 456/24/105 457/17/106
f 457/17/106 456/24/105 458/18/106
f 459/25/78 460/26/78 461/27/78
f 461/27/78 460/26/78 462/28/78
f 463/26/87 464/28/87 465/25/87
f 465/25/87 464/28/87 466/27/87
f 473/29/91 474/30/91 475/31/91
f 475/31/91 474/30/91 476/32/91
f 477/22/80 478/23/80 479/20/80
f 479/20/80 478/23/80 480/21/80
f 481/31/92 482/32/92 483/29/92
f 483/29/92 482/32/92 484/30/92
f 485/33/91 486/34/91 487/11/91
f 487/11/91 486/34/91 488/35/91
f 489/33/92 490/34/92 491/11/92
f 491/11/92 490/34/92 492/35/92
