# Blender 5.1.2
# www.blender.org
mtllib v3.mtl
o m1
v 1.475650 -24.731327 0.652456
v 0.043479 -24.731331 1.313947
v 1.475650 -24.731327 -1.001272
v 1.475650 -24.731327 -1.001272
v 0.043479 -24.731331 1.313947
v -1.388692 -24.731327 0.652455
v -1.388692 -24.731327 -1.001272
v 1.475650 -24.731327 -1.001272
v -1.388692 -24.731327 -1.001272
v 0.043478 -24.731331 -1.662764
v 0.043479 -24.731331 1.313947
v 0.043475 1.572245 2.533899
v -1.388692 -24.731327 0.652455
v -2.562597 1.572248 1.330205
v -1.388692 -24.731327 -1.001272
v -1.388692 -24.731327 -1.001272
v -2.562597 1.572248 1.330205
v -2.562597 1.572248 -1.679026
v 0.043478 -24.731331 -1.662764
v 0.043474 1.572247 -2.882718
v 2.649545 1.572248 -1.679025
v 1.475650 -24.731327 -1.001272
v 2.649546 1.572247 1.330206
v 1.475650 -24.731327 0.652456
v 1.475650 -24.731327 0.652456
v 0.043475 1.572245 2.533899
v 0.043479 -24.731331 1.313947
vn -0.0000 -1.0000 -0.0000
vn 0.4189 -0.0421 0.9070
vn -0.4189 -0.0421 0.9070
vn -0.1521 -0.0458 0.9873
vn -0.7106 -0.0498 0.7018
vn -0.8413 -0.0514 0.5382
vn -0.9990 -0.0446 -0.0000
vn -0.1520 -0.0458 0.9873
vn 0.8413 -0.0514 0.5382
vn 0.9350 -0.0508 0.3509
vn 0.9350 -0.0508 -0.3509
vn 0.7106 -0.0498 -0.7018
vn -0.0000 -0.0463 -0.9989
vn -0.0000 -0.0464 -0.9989
vn -0.7106 -0.0498 -0.7018
vn -0.8413 -0.0514 -0.5382
vt 0.195312 0.617188
vt 0.175781 0.605469
vt 0.195312 0.640625
vt 0.156250 0.640625
vt 0.175781 0.652344
vt 0.003906 0.234375
vt 0.578125 0.269531
vt 0.003906 0.269531
vt 0.156250 0.617188
vt 0.578125 0.234375
vt 0.003906 0.203125
vt 0.578125 0.203125
vt 0.003906 0.175781
vt 0.578125 0.175781
s 0
usemtl BARREL02.002.Renegade_Mtl_#3
f 1/1/1 2/2/1 3/3/1
f 8/3/1 9/4/1 10/5/1
f 25/6/2 26/7/2 27/8/2
f 5/2/1 6/9/1 4/3/1
f 4/3/1 6/9/1 7/4/1
f 11/8/3 12/7/4 13/6/5
f 13/6/5 12/7/4 14/10/6
f 13/6/5 14/10/6 15/11/7
f 12/7/8 24/6/9 23/10/10
f 23/10/10 24/6/9 22/11/11
f 23/10/10 22/11/11 21/12/12
f 21/12/12 22/11/11 19/13/13
f 21/12/12 19/13/13 20/14/14
f 20/14/13 19/13/13 18/12/15
f 17/10/7 18/12/15 16/11/16
f 16/11/16 18/12/15 19/13/13
