# Blender 5.1.2
# www.blender.org
mtllib v4.mtl
o m2
v 15.637123 1.645030 -9.329438
v 19.334965 -1.581764 -8.970618
v 15.637123 -1.645035 -9.329437
v 19.334965 1.581759 -8.970614
v 19.334965 1.581759 -8.970614
v 19.334965 -0.730152 -4.140892
v 19.334965 -1.581764 -8.970618
v 19.334965 0.730150 -4.140892
v 15.637124 0.730150 -4.140892
v 15.637123 -1.645035 -9.329437
v 15.637124 -0.730152 -4.140891
v 15.637123 1.645030 -9.329438
v 15.637123 -1.645035 -9.329437
v 19.334965 -4.554503 -7.888625
v 15.637123 -4.736683 -8.204167
v 19.334965 -1.581764 -8.970618
v 19.334965 -2.102388 -3.641439
v 19.334965 -4.554503 -7.888625
v 15.637123 -4.736683 -8.204167
v 15.637124 -2.102388 -3.641438
v 15.637123 -4.736683 -8.204167
v 19.334965 -6.977904 -5.855152
v 15.637123 -7.257019 -6.089355
v 19.334965 -4.554503 -7.888625
v 19.334965 -3.221044 -2.702774
v 19.334965 -6.977904 -5.855152
v 15.637123 -7.257019 -6.089355
v 15.637124 -3.221044 -2.702773
v 15.637123 -7.257019 -6.089355
v 19.334965 -8.559663 -3.115458
v 15.637123 -8.902050 -3.240076
v 19.334965 -6.977904 -5.855152
v 19.334965 -3.951195 -1.438115
v 19.334965 -8.559663 -3.115458
v 15.637123 -8.902050 -3.240076
v 15.637124 -3.951195 -1.438114
v 15.637123 -8.902050 -3.240076
v 19.334965 -9.109002 0.000005
v 15.637124 -9.473362 0.000005
v 19.334965 -8.559663 -3.115458
v 19.334965 -4.204772 0.000002
v 19.334965 -9.109002 0.000005
v 15.637124 -9.473362 0.000005
v 15.637124 -4.204772 0.000003
v 15.637124 -9.473362 0.000005
v 19.334967 -8.559662 3.115466
v 15.637125 -8.902048 3.240085
v 19.334965 -9.109002 0.000005
v 19.334967 -3.951194 1.438119
v 19.334967 -8.559662 3.115466
v 15.637125 -8.902048 3.240085
v 15.637125 -3.951193 1.438120
v 15.637125 -8.902048 3.240085
v 19.334967 -6.977898 5.855159
v 15.637125 -7.257013 6.089364
v 19.334967 -8.559662 3.115466
v 19.334967 -3.221042 2.702778
v 19.334967 -6.977898 5.855159
v 15.637125 -7.257013 6.089364
v 15.637125 -3.221041 2.702778
v 15.637125 -7.257013 6.089364
v 19.334967 -4.554497 7.888629
v 15.637126 -4.736677 8.204175
v 19.334967 -6.977898 5.855159
v 19.334967 -2.102385 3.641441
v 19.334967 -4.554497 7.888629
v 15.637126 -4.736677 8.204175
v 15.637125 -2.102385 3.641442
v 15.637126 -4.736677 8.204175
v 19.334967 -1.581757 8.970616
v 15.637126 -1.645027 9.329440
v 19.334967 -4.554497 7.888629
v 19.334967 -0.730149 4.140893
v 19.334967 -1.581757 8.970616
v 15.637126 -1.645027 9.329440
v 15.637125 -0.730149 4.140894
v 15.637126 -1.645027 9.329440
v 19.334967 1.581768 8.970614
v 15.637126 1.645038 9.329440
v 19.334967 -1.581757 8.970616
v 19.334967 0.730154 4.140893
v 19.334967 1.581768 8.970614
v 15.637126 1.645038 9.329440
v 15.637125 0.730154 4.140893
v 15.637126 1.645038 9.329440
v 19.334967 4.554506 7.888624
v 15.637126 4.736687 8.204169
v 19.334967 1.581768 8.970614
v 19.334967 2.102389 3.641439
v 19.334967 4.554506 7.888624
v 15.637126 4.736687 8.204169
v 15.637125 2.102389 3.641439
v 15.637126 4.736687 8.204169
v 19.334967 6.977907 5.855150
v 15.637126 7.257021 6.089356
v 19.334967 4.554506 7.888624
v 19.334967 3.221045 2.702775
v 19.334967 6.977907 5.855150
v 15.637126 7.257021 6.089356
v 15.637125 3.221045 2.702775
v 15.637126 7.257021 6.089356
v 19.334967 8.559665 3.115458
v 15.637126 8.902051 3.240076
v 19.334967 6.977907 5.855150
v 19.334967 3.951195 1.438115
v 19.334967 8.559665 3.115458
v 15.637126 8.902051 3.240076
v 15.637125 3.951195 1.438116
v 15.637126 8.902051 3.240076
v 19.334967 9.109003 -0.000005
v 15.637125 9.473363 -0.000005
v 19.334967 8.559665 3.115458
v 19.334967 4.204776 -0.000002
v 19.334967 9.109003 -0.000005
v 15.637125 9.473363 -0.000005
v 15.637125 4.204774 -0.000001
v 15.637125 9.473363 -0.000005
v 19.334965 8.559661 -3.115467
v 15.637125 8.902047 -3.240085
v 19.334967 9.109003 -0.000005
v 19.334965 3.951193 -1.438119
v 19.334965 8.559661 -3.115467
v 15.637125 8.902047 -3.240085
v 15.637125 3.951194 -1.438118
v 15.637125 8.902047 -3.240085
v 19.334965 6.977901 -5.855157
v 15.637124 7.257014 -6.089362
v 19.334965 8.559661 -3.115467
v 19.334965 3.221042 -2.702777
v 19.334965 6.977901 -5.855157
v 15.637124 7.257014 -6.089362
v 15.637124 3.221042 -2.702776
v 15.637124 7.257014 -6.089362
v 19.334965 4.554497 -7.888628
v 15.637123 4.736676 -8.204172
v 19.334965 6.977901 -5.855157
v 19.334965 2.102384 -3.641441
v 19.334965 4.554497 -7.888628
v 15.637123 4.736676 -8.204172
v 15.637124 2.102384 -3.641440
v 15.637123 4.736676 -8.204172
v 19.334965 1.581759 -8.970614
v 15.637123 1.645030 -9.329438
v 19.334965 4.554497 -7.888628
vn 0.0979 -0.2300 -0.9683
vn 0.0979 0.1150 -0.9885
vn 0.0979 -0.1150 -0.9885
vn 0.0979 0.2300 -0.9683
vn 0.0979 -0.5473 -0.8312
vn 0.0979 -0.2301 -0.9682
vn 0.0979 -0.4461 -0.8896
vn 0.0979 -0.1151 -0.9885
vn 0.0979 -0.7985 -0.5939
vn 0.0979 -0.7235 -0.6834
vn 0.0979 -0.4462 -0.8895
vn 0.0979 -0.9535 -0.2850
vn 0.0979 -0.7986 -0.5938
vn 0.0979 -0.9136 -0.3947
vn 0.0979 -0.7236 -0.6833
vn 0.0979 -0.9935 0.0583
vn 0.0979 -0.9536 -0.2849
vn 0.0979 -0.9935 -0.0584
vn 0.0979 -0.9136 -0.3946
vn 0.0979 -0.9136 0.3946
vn 0.0979 -0.9935 0.0584
vn 0.0979 -0.9536 0.2849
vn 0.0979 -0.9935 -0.0583
vn 0.0979 -0.7236 0.6833
vn 0.0979 -0.9136 0.3947
vn 0.0979 -0.7986 0.5938
vn 0.0979 -0.9535 0.2850
vn 0.0979 -0.4462 0.8895
vn 0.0979 -0.7235 0.6834
vn 0.0979 -0.5473 0.8312
vn 0.0979 -0.7985 0.5939
vn 0.0979 -0.1151 0.9885
vn 0.0979 -0.4461 0.8896
vn 0.0979 -0.2301 0.9682
vn 0.0979 0.2300 0.9683
vn 0.0979 -0.1150 0.9885
vn 0.0979 0.1150 0.9885
vn 0.0979 -0.2300 0.9683
vn 0.0979 0.5473 0.8312
vn 0.0979 0.2301 0.9682
vn 0.0979 0.4461 0.8896
vn 0.0979 0.1151 0.9885
vn 0.0979 0.7985 0.5939
vn 0.0979 0.7235 0.6834
vn 0.0979 0.4462 0.8895
vn 0.0979 0.9535 0.2850
vn 0.0979 0.7986 0.5938
vn 0.0979 0.9136 0.3947
vn 0.0979 0.7236 0.6833
vn 0.0979 0.9935 -0.0583
vn 0.0979 0.9536 0.2849
vn 0.0979 0.9935 0.0584
vn 0.0979 0.9136 0.3946
vn 0.0979 0.9136 -0.3946
vn 0.0979 0.9935 -0.0584
vn 0.0979 0.9536 -0.2849
vn 0.0979 0.9935 0.0583
vn 0.0979 0.7236 -0.6833
vn 0.0979 0.9136 -0.3947
vn 0.0979 0.7986 -0.5938
vn 0.0979 0.9535 -0.2850
vn 0.0979 0.4462 -0.8895
vn 0.0979 0.7235 -0.6834
vn 0.0979 0.5473 -0.8312
vn 0.0979 0.7985 -0.5939
vn 0.0979 0.1151 -0.9885
vn 0.0979 0.4461 -0.8896
vn 0.0979 0.2301 -0.9682
vn 1.0000 -0.0000 -0.0000
vn -1.0000 -0.0000 -0.0000
vt 0.422058 0.254174
vt 0.498367 0.254832
vt 0.422058 0.432461
vt 0.498367 0.433119
vt 0.499521 0.548995
vt 0.499520 0.699995
vt 0.670672 0.566638
vt 0.670240 0.676665
s 0
usemtl HOUSECOLOR07.001.Renegade_Mtl_#4
f 3/1/1 1/2/2 2/3/3
f 2/3/3 1/2/2 4/4/4
f 15/1/5 13/2/6 14/3/7
f 14/3/7 13/2/6 16/4/8
f 23/1/9 21/2/5 22/3/10
f 22/3/10 21/2/5 24/4/11
f 31/1/12 29/2/13 30/3/14
f 30/3/14 29/2/13 32/4/15
f 39/1/16 37/2/17 38/3/18
f 38/3/18 37/2/17 40/4/19
f 47/1/20 45/2/21 46/3/22
f 46/3/22 45/2/21 48/4/23
f 55/1/24 53/2/25 54/3/26
f 54/3/26 53/2/25 56/4/27
f 63/1/28 61/2/29 62/3/30
f 62/3/30 61/2/29 64/4/31
f 71/1/32 69/2/33 70/3/34
f 70/3/34 69/2/33 72/4/30
f 79/1/35 77/2/36 78/3/37
f 78/3/37 77/2/36 80/4/38
f 87/1/39 85/2/40 86/3/41
f 86/3/41 85/2/40 88/4/42
f 95/1/43 93/2/39 94/3/44
f 94/3/44 93/2/39 96/4/45
f 103/1/46 101/2/47 102/3/48
f 102/3/48 101/2/47 104/4/49
f 111/1/50 109/2/51 110/3/52
f 110/3/52 109/2/51 112/4/53
f 119/1/54 117/2/55 118/3/56
f 118/3/56 117/2/55 120/4/57
f 127/1/58 125/2/59 126/3/60
f 126/3/60 125/2/59 128/4/61
f 135/1/62 133/2/63 134/3/64
f 134/3/64 133/2/63 136/4/65
f 143/1/66 141/2/67 142/3/68
f 142/3/68 141/2/67 144/4/64
f 7/5/69 5/6/69 6/7/69
f 6/7/69 5/6/69 8/8/69
f 6/7/69 17/8/69 7/5/69
f 7/5/69 17/8/69 18/6/69
f 17/8/69 25/7/69 18/6/69
f 18/6/69 25/7/69 26/5/69
f 25/7/69 33/8/69 26/5/69
f 26/5/69 33/8/69 34/6/69
f 33/8/69 41/7/69 34/6/69
f 34/6/69 41/7/69 42/5/69
f 41/7/69 49/8/69 42/5/69
f 42/5/69 49/8/69 50/6/69
f 49/8/69 57/7/69 50/6/69
f 50/6/69 57/7/69 58/5/69
f 57/7/69 65/8/69 58/5/69
f 58/5/69 65/8/69 66/6/69
f 65/8/69 73/7/69 66/6/69
f 66/6/69 73/7/69 74/5/69
f 73/7/69 81/8/69 74/5/69
f 74/5/69 81/8/69 82/6/69
f 81/8/69 89/7/69 82/6/69
f 82/6/69 89/7/69 90/5/69
f 89/7/69 97/8/69 90/5/69
f 90/5/69 97/8/69 98/6/69
f 97/8/69 105/7/69 98/6/69
f 98/6/69 105/7/69 106/5/69
f 105/7/69 113/8/69 106/5/69
f 106/5/69 113/8/69 114/6/69
f 113/8/69 121/7/69 114/6/69
f 114/6/69 121/7/69 122/5/69
f 121/7/69 129/8/69 122/5/69
f 122/5/69 129/8/69 130/6/69
f 129/8/69 137/7/69 130/6/69
f 130/6/69 137/7/69 138/5/69
f 137/7/69 8/8/69 138/5/69
f 138/5/69 8/8/69 5/6/69
f 11/7/70 9/8/70 10/5/70
f 10/5/70 9/8/70 12/6/70
f 10/5/70 19/6/70 11/7/70
f 11/7/70 19/6/70 20/8/70
f 19/6/70 27/5/70 20/8/70
f 20/8/70 27/5/70 28/7/70
f 27/5/70 35/6/70 28/7/70
f 28/7/70 35/6/70 36/8/70
f 35/6/70 43/5/70 36/8/70
f 36/8/70 43/5/70 44/7/70
f 43/5/70 51/6/70 44/7/70
f 44/7/70 51/6/70 52/8/70
f 51/6/70 59/5/70 52/8/70
f 52/8/70 59/5/70 60/7/70
f 59/5/70 67/6/70 60/7/70
f 60/7/70 67/6/70 68/8/70
f 67/6/70 75/5/70 68/8/70
f 68/8/70 75/5/70 76/7/70
f 75/5/70 83/6/70 76/7/70
f 76/7/70 83/6/70 84/8/70
f 83/6/70 91/5/70 84/8/70
f 84/8/70 91/5/70 92/7/70
f 91/5/70 99/6/70 92/7/70
f 92/7/70 99/6/70 100/8/70
f 99/6/70 107/5/70 100/8/70
f 100/8/70 107/5/70 108/7/70
f 107/5/70 115/6/70 108/7/70
f 108/7/70 115/6/70 116/8/70
f 115/6/70 123/5/70 116/8/70
f 116/8/70 123/5/70 124/7/70
f 123/5/70 131/6/70 124/7/70
f 124/7/70 131/6/70 132/8/70
f 131/6/70 139/5/70 132/8/70
f 132/8/70 139/5/70 140/7/70
f 139/5/70 12/6/70 140/7/70
f 140/7/70 12/6/70 9/8/70
o m1
v 19.309574 -7.906116 -2.606069
v 16.405615 -7.906116 -2.606069
v 19.309574 -3.382532 -2.606069
v 19.309574 -3.382532 -2.606069
v 16.405615 -7.906116 -2.606069
v 16.405615 -3.382532 -2.606070
v 19.309574 -3.382532 -2.606069
v 16.405615 -3.382532 -2.606070
v 19.309574 -3.382531 2.606072
v 19.309574 -3.382531 2.606072
v 16.405615 -3.382532 -2.606070
v 16.405615 -3.382532 2.606071
v 19.309574 -3.382531 2.606072
v 16.405615 -3.382532 2.606071
v 19.309574 -7.906116 2.606072
v 16.405615 -7.906116 2.606071
v 16.993519 -6.912218 -5.118081
v 16.993517 -6.912216 5.081899
v 17.806599 -6.105542 -5.118082
v 17.806599 -6.105542 -5.118082
v 16.993517 -6.912216 5.081899
v 17.806599 -6.105540 5.081898
v 18.619680 -6.912218 -5.118082
v 18.619680 -6.912216 5.081899
v -2.157383 -9.681878 -3.024820
v 11.042618 -9.681879 -3.024821
v -2.157382 -9.681877 3.025180
v 11.042619 -9.681878 3.025179
v 11.042619 -3.081877 3.025177
v 11.042618 -3.081877 -3.024822
v -2.157382 -3.081876 3.025178
v -2.157383 -3.081876 -3.024822
v 11.042619 -9.681878 3.025179
v 11.042619 -3.081877 3.025177
v -2.157382 -9.681877 3.025180
v -2.157382 -9.681877 3.025180
v 11.042619 -3.081877 3.025177
v -2.157382 -3.081876 3.025178
v 11.042618 -9.681879 -3.024821
v 11.042618 -3.081877 -3.024822
v 11.042619 -9.681878 3.025179
v 11.042619 -3.081877 3.025177
v -2.157383 -9.681878 -3.024820
v -2.157383 -3.081876 -3.024822
v 11.042618 -9.681879 -3.024821
v 11.042618 -3.081877 -3.024822
v -2.157382 -9.681877 3.025180
v -2.157382 -3.081876 3.025178
v -2.157383 -9.681878 -3.024820
v -2.157383 -3.081876 -3.024822
v 19.309574 -7.906116 2.606072
v 19.309574 -7.906116 -2.606069
v 19.309574 -3.382531 2.606072
v 19.309574 -3.382532 -2.606069
v 16.405615 -7.906116 -2.606069
v 16.405615 -7.906116 2.606071
v 16.405615 -3.382532 -2.606070
v 16.405615 -3.382532 2.606071
v 19.309572 7.906122 2.606068
v 16.405613 7.906121 2.606069
v 19.309572 3.382538 2.606068
v 19.309572 3.382538 2.606068
v 16.405613 7.906121 2.606069
v 16.405613 3.382537 2.606068
v 19.309572 3.382538 2.606068
v 16.405613 3.382537 2.606068
v 19.309572 3.382539 -2.606073
v 19.309572 3.382539 -2.606073
v 16.405613 3.382537 2.606068
v 16.405613 3.382538 -2.606072
v 19.309572 3.382539 -2.606073
v 16.405613 3.382538 -2.606072
v 19.309572 7.906123 -2.606073
v 16.405613 7.906122 -2.606072
v 16.993517 6.912223 5.118081
v 16.993515 6.912223 -5.081899
v 17.806597 6.105547 5.118081
v 17.806597 6.105547 5.118081
v 16.993515 6.912223 -5.081899
v 17.806597 6.105547 -5.081899
v 18.619678 6.912224 5.118081
v 18.619678 6.912224 -5.081900
v -2.157384 9.681878 3.024823
v 11.042617 9.681882 3.024822
v -2.157384 9.681879 -3.025177
v 11.042617 9.681883 -3.025178
v 11.042618 3.081882 -3.025177
v 11.042618 3.081882 3.024822
v -2.157383 3.081878 -3.025177
v -2.157383 3.081877 3.024823
v 11.042617 9.681883 -3.025178
v 11.042618 3.081882 -3.025177
v -2.157384 9.681879 -3.025177
v -2.157384 9.681879 -3.025177
v 11.042618 3.081882 -3.025177
v -2.157383 3.081878 -3.025177
v 11.042617 9.681882 3.024822
v 11.042618 3.081882 3.024822
v 11.042617 9.681883 -3.025178
v 11.042618 3.081882 -3.025177
v -2.157384 9.681878 3.024823
v -2.157383 3.081877 3.024823
v 11.042617 9.681882 3.024822
v 11.042618 3.081882 3.024822
v -2.157384 9.681879 -3.025177
v -2.157383 3.081878 -3.025177
v -2.157384 9.681878 3.024823
v -2.157383 3.081877 3.024823
v 19.309572 7.906123 -2.606073
v 19.309572 7.906122 2.606068
v 19.309572 3.382539 -2.606073
v 19.309572 3.382538 2.606068
v 16.405613 7.906121 2.606069
v 16.405613 7.906122 -2.606072
v 16.405613 3.382537 2.606068
v 16.405613 3.382538 -2.606072
v 19.309572 1.696146 8.149933
v 16.405613 1.696144 8.149933
v 19.309572 -0.565648 4.232395
v 19.309572 -0.565648 4.232395
v 16.405613 1.696144 8.149933
v 16.405615 -0.565649 4.232395
v 19.309572 -0.565648 4.232395
v 16.405615 -0.565649 4.232395
v 19.309572 3.948199 1.626323
v 19.309572 3.948199 1.626323
v 16.405615 -0.565649 4.232395
v 16.405613 3.948198 1.626323
v 19.309572 3.948199 1.626323
v 16.405613 3.948198 1.626323
v 19.309572 6.209992 5.543861
v 16.405613 6.209991 5.543861
v 16.993519 -0.976271 8.545200
v 16.993515 7.857171 3.445205
v 17.806597 -1.379610 7.846597
v 17.806597 -1.379610 7.846597
v 16.993515 7.857171 3.445205
v 17.806597 7.453832 2.746603
v 18.619680 -0.976271 8.545198
v 18.619678 7.857172 3.445205
v -2.157382 2.221371 9.897163
v 11.042618 2.221375 9.897163
v -2.157383 7.460824 6.872161
v 11.042618 7.460829 6.872162
v 11.042618 4.160825 1.156395
v 11.042618 -1.078629 4.181397
v -2.157383 4.160822 1.156394
v -2.157382 -1.078633 4.181396
v 11.042618 7.460829 6.872162
v 11.042618 4.160825 1.156395
v -2.157383 7.460824 6.872161
v -2.157383 7.460824 6.872161
v 11.042618 4.160825 1.156395
v -2.157383 4.160822 1.156394
v 11.042618 2.221375 9.897163
v 11.042618 -1.078629 4.181397
v 11.042618 7.460829 6.872162
v 11.042618 4.160825 1.156395
v -2.157382 2.221371 9.897163
v -2.157382 -1.078633 4.181396
v 11.042618 2.221375 9.897163
v 11.042618 -1.078629 4.181397
v -2.157383 7.460824 6.872161
v -2.157383 4.160822 1.156394
v -2.157382 2.221371 9.897163
v -2.157382 -1.078633 4.181396
v 19.309572 6.209992 5.543861
v 19.309572 1.696146 8.149933
v 19.309572 3.948199 1.626323
v 19.309572 -0.565648 4.232395
v 16.405613 1.696144 8.149933
v 16.405613 6.209991 5.543861
v 16.405615 -0.565649 4.232395
v 16.405613 3.948198 1.626323
v 19.309572 -6.209979 5.543867
v 16.405615 -6.209979 5.543866
v 19.309572 -3.948188 1.626328
v 19.309572 -3.948188 1.626328
v 16.405615 -6.209979 5.543866
v 16.405615 -3.948188 1.626327
v 19.309572 -3.948188 1.626328
v 16.405615 -3.948188 1.626327
v 19.309574 0.565661 4.232397
v 19.309574 0.565661 4.232397
v 16.405615 -3.948188 1.626327
v 16.405615 0.565660 4.232397
v 19.309574 0.565661 4.232397
v 16.405615 0.565660 4.232397
v 19.309572 -1.696131 8.149937
v 16.405615 -1.696131 8.149937
v 16.993517 -7.888497 3.427119
v 16.993517 0.944948 8.527107
v 17.806597 -7.485159 2.728517
v 17.806597 -7.485159 2.728517
v 16.993517 0.944948 8.527107
v 17.806601 1.348286 7.828505
v 18.619678 -7.888497 3.427119
v 18.619680 0.944948 8.527107
v -2.157382 -7.460510 6.872344
v 11.042618 -7.460511 6.872345
v -2.157382 -2.221055 9.897343
v 11.042619 -2.221055 9.897345
v 11.042619 1.078944 4.181574
v 11.042618 -4.160511 1.156576
v -2.157382 1.078944 4.181572
v -2.157382 -4.160511 1.156574
v 11.042619 -2.221055 9.897345
v 11.042619 1.078944 4.181574
v -2.157382 -2.221055 9.897343
v -2.157382 -2.221055 9.897343
v 11.042619 1.078944 4.181574
v -2.157382 1.078944 4.181572
v 11.042618 -7.460511 6.872345
v 11.042618 -4.160511 1.156576
v 11.042619 -2.221055 9.897345
v 11.042619 1.078944 4.181574
v -2.157382 -7.460510 6.872344
v -2.157382 -4.160511 1.156574
v 11.042618 -7.460511 6.872345
v 11.042618 -4.160511 1.156576
v -2.157382 -2.221055 9.897343
v -2.157382 1.078944 4.181572
v -2.157382 -7.460510 6.872344
v -2.157382 -4.160511 1.156574
v 19.309572 -1.696131 8.149937
v 19.309572 -6.209979 5.543867
v 19.309574 0.565661 4.232397
v 19.309572 -3.948188 1.626328
v 16.405615 -6.209979 5.543866
v 16.405615 -1.696131 8.149937
v 16.405615 -3.948188 1.626327
v 16.405615 0.565660 4.232397
v 19.309572 6.209975 -5.543868
v 16.405615 6.209976 -5.543867
v 19.309574 3.948184 -1.626329
v 19.309574 3.948184 -1.626329
v 16.405615 6.209976 -5.543867
v 16.405617 3.948184 -1.626328
v 19.309574 3.948184 -1.626329
v 16.405617 3.948184 -1.626328
v 19.309572 -0.565664 -4.232398
v 19.309572 -0.565664 -4.232398
v 16.405617 3.948184 -1.626328
v 16.405613 -0.565663 -4.232398
v 19.309572 -0.565664 -4.232398
v 16.405613 -0.565663 -4.232398
v 19.309572 1.696127 -8.149937
v 16.405615 1.696128 -8.149937
v 16.993521 7.888493 -3.427121
v 16.993515 -0.944951 -8.527107
v 17.806601 7.485156 -2.728518
v 17.806601 7.485156 -2.728518
v 16.993515 -0.944951 -8.527107
v 17.806597 -1.348289 -7.828505
v 18.619682 7.888493 -3.427121
v 18.619677 -0.944952 -8.527107
v -2.157381 7.460511 -6.872342
v 11.042620 7.460508 -6.872345
v -2.157383 2.221056 -9.897341
v 11.042618 2.221053 -9.897345
v 11.042618 -1.078945 -4.181574
v 11.042620 4.160510 -1.156576
v -2.157383 -1.078943 -4.181571
v -2.157381 4.160512 -1.156573
v 11.042618 2.221053 -9.897345
v 11.042618 -1.078945 -4.181574
v -2.157383 2.221056 -9.897341
v -2.157383 2.221056 -9.897341
v 11.042618 -1.078945 -4.181574
v -2.157383 -1.078943 -4.181571
v 11.042620 7.460508 -6.872345
v 11.042620 4.160510 -1.156576
v 11.042618 2.221053 -9.897345
v 11.042618 -1.078945 -4.181574
v -2.157381 7.460511 -6.872342
v -2.157381 4.160512 -1.156573
v 11.042620 7.460508 -6.872345
v 11.042620 4.160510 -1.156576
v -2.157383 2.221056 -9.897341
v -2.157383 -1.078943 -4.181571
v -2.157381 7.460511 -6.872342
v -2.157381 4.160512 -1.156573
v 19.309572 1.696127 -8.149937
v 19.309572 6.209975 -5.543868
v 19.309572 -0.565664 -4.232398
v 19.309574 3.948184 -1.626329
v 16.405615 6.209976 -5.543867
v 16.405615 1.696128 -8.149937
v 16.405617 3.948184 -1.626328
v 16.405613 -0.565663 -4.232398
v 19.309572 -1.696150 -8.149931
v 16.405613 -1.696148 -8.149931
v 19.309572 0.565644 -4.232394
v 19.309572 0.565644 -4.232394
v 16.405613 -1.696148 -8.149931
v 16.405615 0.565646 -4.232393
v 19.309572 0.565644 -4.232394
v 16.405615 0.565646 -4.232393
v 19.309572 -3.948202 -1.626320
v 19.309572 -3.948202 -1.626320
v 16.405615 0.565646 -4.232393
v 16.405613 -3.948200 -1.626321
v 19.309572 -3.948202 -1.626320
v 16.405613 -3.948200 -1.626321
v 19.309568 -6.209996 -5.543858
v 16.405611 -6.209994 -5.543859
v 16.993517 0.976267 -8.545198
v 16.993513 -7.857173 -3.445202
v 17.806597 1.379605 -7.846596
v 17.806597 1.379605 -7.846596
v 16.993513 -7.857173 -3.445202
v 17.806595 -7.453835 -2.746600
v 18.619680 0.976266 -8.545198
v 18.619677 -7.857174 -3.445201
v -2.157385 -2.221370 -9.897160
v 11.042616 -2.221377 -9.897161
v -2.157387 -7.460823 -6.872157
v 11.042614 -7.460831 -6.872159
v 11.042617 -4.160826 -1.156392
v 11.042618 1.078627 -4.181395
v -2.157385 -4.160819 -1.156390
v -2.157383 1.078634 -4.181394
v 11.042614 -7.460831 -6.872159
v 11.042617 -4.160826 -1.156392
v -2.157387 -7.460823 -6.872157
v -2.157387 -7.460823 -6.872157
v 11.042617 -4.160826 -1.156392
v -2.157385 -4.160819 -1.156390
v 11.042616 -2.221377 -9.897161
v 11.042618 1.078627 -4.181395
v 11.042614 -7.460831 -6.872159
v 11.042617 -4.160826 -1.156392
v -2.157385 -2.221370 -9.897160
v -2.157383 1.078634 -4.181394
v 11.042616 -2.221377 -9.897161
v 11.042618 1.078627 -4.181395
v -2.157387 -7.460823 -6.872157
v -2.157385 -4.160819 -1.156390
v -2.157385 -2.221370 -9.897160
v -2.157383 1.078634 -4.181394
v 19.309568 -6.209996 -5.543858
v 19.309572 -1.696150 -8.149931
v 19.309572 -3.948202 -1.626320
v 19.309572 0.565644 -4.232394
v 16.405613 -1.696148 -8.149931
v 16.405611 -6.209994 -5.543859
v 16.405615 0.565646 -4.232393
v 16.405613 -3.948200 -1.626321
vn -0.0000 -0.0000 -1.0000
vn -0.0000 1.0000 -0.0000
vn -0.7043 0.7099 -0.0000
vn -0.0000 -0.0000 1.0000
vn -0.0000 -1.0000 -0.0000
vn -0.7043 -0.7099 -0.0000
vn -0.0000 -0.8660 0.5000
vn -0.0000 -0.5000 -0.8660
vn -0.7043 -0.3549 -0.6148
vn -0.0000 0.8660 -0.5000
vn -0.0000 -0.8660 -0.5000
vn -0.0000 0.5000 -0.8660
vn -0.7043 0.3549 -0.6148
vn -0.0000 0.8660 0.5000
vn -0.0000 -0.5000 0.8660
vn -0.7043 -0.3549 0.6148
vn -0.0000 0.5000 0.8660
vn -0.7043 0.3549 0.6148
vn 0.3140 0.9494 -0.0000
vn 0.7043 0.7099 -0.0000
vn 1.0000 -0.0000 -0.0000
vn -1.0000 -0.0000 -0.0000
vn 0.3140 -0.9494 -0.0000
vn 0.7043 -0.7099 -0.0000
vn 0.3140 -0.4748 -0.8222
vn 0.3140 -0.4747 -0.8222
vn 0.7043 -0.3549 -0.6148
vn 0.3140 0.4747 -0.8223
vn 0.3140 0.4747 -0.8222
vn 0.7043 0.3549 -0.6148
vn 0.3140 -0.4747 0.8223
vn 0.3140 -0.4747 0.8222
vn 0.7043 -0.3549 0.6148
vn 0.3140 0.4748 0.8222
vn 0.3140 0.4747 0.8222
vn 0.7043 0.3549 0.6148
vt 0.750000 0.414062
vt 0.750000 0.359375
vt 0.671875 0.414062
vt 0.671875 0.359375
vt 0.109375 0.601562
vt 0.050781 0.601562
vt 0.109375 0.507812
vt 0.050781 0.507812
vt 0.621094 0.945312
vt 0.871094 0.945312
vt 0.621094 0.964844
vt 0.867188 0.320312
vt 0.996094 0.320312
vt 0.867188 0.019531
vt 0.996094 0.019531
vt 0.871094 0.964844
vt 0.000000 0.507812
vt 0.191406 0.507812
vt 0.000000 0.601562
vt 0.191406 0.601562
vt 0.683594 0.273438
vt 0.683594 0.144531
vt 0.585938 0.273438
vt 0.585938 0.144531
vt 0.742188 0.414062
vt 0.742188 0.363281
vt 0.671875 0.363281
s 0
usemtl BARRELHOLDER.001.Renegade_Mtl_#3
f 145/9/71 146/10/71 147/11/71
f 148/11/71 149/10/71 150/12/71
f 151/13/72 152/14/72 153/15/72
f 154/15/72 155/14/72 156/16/72
f 161/17/73 162/18/73 163/19/73
f 177/20/74 178/21/74 179/22/74
f 180/22/74 181/21/74 182/23/74
f 203/9/74 204/10/74 205/11/74
f 206/11/74 207/10/74 208/12/74
f 209/13/75 210/14/75 211/15/75
f 212/15/75 213/14/75 214/16/75
f 219/17/76 220/18/76 221/19/76
f 235/20/71 236/21/71 237/22/71
f 238/22/71 239/21/71 240/23/71
f 261/9/77 262/10/77 263/11/77
f 264/11/77 265/10/77 266/12/77
f 267/13/78 268/14/78 269/15/78
f 270/15/78 271/14/78 272/16/78
f 277/17/79 278/18/79 279/19/79
f 293/20/80 294/21/80 295/22/80
f 296/22/80 297/21/80 298/23/80
f 319/9/81 320/10/81 321/11/81
f 322/11/81 323/10/81 324/12/81
f 325/13/82 326/14/82 327/15/82
f 328/15/82 329/14/82 330/16/82
f 335/17/83 336/18/83 337/19/83
f 351/20/84 352/21/84 353/22/84
f 354/22/84 355/21/84 356/23/84
f 377/9/84 378/10/84 379/11/84
f 380/11/84 381/10/84 382/12/84
f 383/13/85 384/14/85 385/15/85
f 386/15/85 387/14/85 388/16/85
f 393/17/86 394/18/86 395/19/86
f 409/20/81 410/21/81 411/22/81
f 412/22/81 413/21/81 414/23/81
f 435/9/80 436/10/80 437/11/80
f 438/11/80 439/10/80 440/12/80
f 441/13/87 442/14/87 443/15/87
f 444/15/87 445/14/87 446/16/87
f 451/17/88 452/18/88 453/19/88
f 467/20/77 468/21/77 469/22/77
f 470/22/77 471/21/77 472/23/77
f 157/11/74 158/12/74 159/9/74
f 159/9/74 158/12/74 160/10/74
f 165/18/73 166/24/89 164/19/72
f 164/19/72 166/24/89 167/17/90
f 167/17/90 166/24/89 168/18/90
f 169/25/75 170/26/75 171/27/75
f 171/27/75 170/26/75 172/28/75
f 173/26/72 174/28/72 175/25/72
f 175/25/72 174/28/72 176/27/72
f 183/29/91 184/30/91 185/31/91
f 185/31/91 184/30/91 186/32/91
f 187/22/71 188/23/71 189/20/71
f 189/20/71 188/23/71 190/21/71
f 191/31/92 192/32/92 193/29/92
f 193/29/92 192/32/92 194/30/92
f 195/33/91 196/34/91 197/11/91
f 197/11/91 196/34/91 198/35/91
f 199/33/92 200/34/92 201/11/92
f 201/11/92 200/34/92 202/35/92
f 215/11/71 216/12/71 217/9/71
f 217/9/71 216/12/71 218/10/71
f 223/18/76 224/24/93 222/19/75
f 222/19/75 224/24/93 225/17/94
f 225/17/94 224/24/93 226/18/94
f 227/25/72 228/26/72 229/27/72
f 229/27/72 228/26/72 230/28/72
f 231/26/75 232/28/75 233/25/75
f 233/25/75 232/28/75 234/27/75
f 241/29/91 242/30/91 243/31/91
f 243/31/91 242/30/91 244/32/91
f 245/22/74 246/23/74 247/20/74
f 247/20/74 246/23/74 248/21/74
f 249/31/92 250/32/92 251/29/92
f 251/29/92 250/32/92 252/30/92
f 253/33/91 254/34/91 255/11/91
f 255/11/91 254/34/91 256/35/91
f 257/33/92 258/34/92 259/11/92
f 259/11/92 258/34/92 260/35/92
f 273/11/80 274/12/80 275/9/80
f 275/9/80 274/12/80 276/10/80
f 281/18/79 282/24/95 280/19/78
f 280/19/78 282/24/96 283/17/97
f 283/17/97 282/24/96 284/18/97
f 285/25/87 286/26/87 287/27/87
f 287/27/87 286/26/87 288/28/87
f 289/26/78 290/28/78 291/25/78
f 291/25/78 290/28/78 292/27/78
f 299/29/91 300/30/91 301/31/91
f 301/31/91 300/30/91 302/32/91
f 303/22/77 304/23/77 305/20/77
f 305/20/77 304/23/77 306/21/77
f 307/31/92 308/32/92 309/29/92
f 309/29/92 308/32/92 310/30/92
f 311/33/91 312/34/91 313/11/91
f 313/11/91 312/34/91 314/35/91
f 315/33/92 316/34/92 317/11/92
f 317/11/92 316/34/92 318/35/92
f 331/11/84 332/12/84 333/9/84
f 333/9/84 332/12/84 334/10/84
f 339/18/83 340/24/98 338/19/82
f 338/19/82 340/24/99 341/17/100
f 341/17/100 340/24/99 342/18/100
f 343/25/85 344/26/85 345/27/85
f 345/27/85 344/26/85 346/28/85
f 347/26/82 348/28/82 349/25/82
f 349/25/82 348/28/82 350/27/82
f 357/29/91 358/30/91 359/31/91
f 359/31/91 358/30/91 360/32/91
f 361/22/81 362/23/81 363/20/81
f 363/20/81 362/23/81 364/21/81
f 365/31/92 366/32/92 367/29/92
f 367/29/92 366/32/92 368/30/92
f 369/33/91 370/34/91 371/11/91
f 371/11/91 370/34/91 372/35/91
f 373/33/92 374/34/92 375/11/92
f 375/11/92 374/34/92 376/35/92
f 389/11/81 390/12/81 391/9/81
f 391/9/81 390/12/81 392/10/81
f 397/18/86 398/24/101 396/19/85
f 396/19/85 398/24/102 399/17/103
f 399/17/103 398/24/102 400/18/103
f 401/25/82 402/26/82 403/27/82
f 403/27/82 402/26/82 404/28/82
f 405/26/85 406/28/85 407/25/85
f 407/25/85 406/28/85 408/27/85
f 415/29/91 416/30/91 417/31/91
f 417/31/91 416/30/91 418/32/91
f 419/22/84 420/23/84 421/20/84
f 421/20/84 420/23/84 422/21/84
f 423/31/92 424/32/92 425/29/92
f 425/29/92 424/32/92 426/30/92
f 427/33/91 428/34/91 429/11/91
f 429/11/91 428/34/91 430/35/91
f 431/33/92 432/34/92 433/11/92
f 433/11/92 432/34/92 434/35/92
f 447/11/77 448/12/77 449/9/77
f 449/9/77 448/12/77 450/10/77
f 455/18/88 456/24/104 454/19/87
f 454/19/87 456/24/105 457/17/106
f 457/17/106 456/24/105 458/18/106
f 459/25/78 460/26/78 461/27/78
f 461/27/78 460/26/78 462/28/78
f 463/26/87 464/28/87 465/25/87
f 465/25/87 464/28/87 466/27/87
f 473/29/91 474/30/91 475/31/91
f 475/31/91 474/30/91 476/32/91
f 477/22/80 478/23/80 479/20/80
f 479/20/80 478/23/80 480/21/80
f 481/31/92 482/32/92 483/29/92
f 483/29/92 482/32/92 484/30/92
f 485/33/91 486/34/91 487/11/91
f 487/11/91 486/34/91 488/35/91
f 489/33/92 490/34/92 491/11/92
f 491/11/92 490/34/92 492/35/92
