# Blender 5.1.2
# www.blender.org
mtllib v1.mtl
o model1
v 3.446826 8.950987 5.664126
v -0.224457 8.950988 5.664126
v 3.446827 8.988436 9.013389
v -0.224456 8.988436 9.013389
v 3.446826 7.710450 5.680164
v -0.224457 7.710450 5.680165
v -0.224457 8.950988 5.664126
v 3.446826 8.950987 5.664126
v 3.446827 7.747899 9.029427
v 3.446826 7.710450 5.680164
v 3.446826 8.950987 5.664126
v 3.446827 8.988436 9.013389
v -0.224457 7.710450 5.680165
v -0.224456 7.747900 9.029428
v -0.224456 8.988436 9.013389
v -0.224457 8.950988 5.664126
v -0.224456 7.747900 9.029428
v 3.446827 7.747899 9.029427
v 3.446827 8.988436 9.013389
v -0.224456 8.988436 9.013389
v 3.446826 8.950987 -5.684126
v 3.446827 8.988436 -9.033389
v -0.224457 8.950988 -5.684127
v -0.224456 8.988436 -9.033390
v 3.446826 7.710450 -5.700166
v -0.224457 8.950988 -5.684127
v -0.224457 7.710451 -5.700165
v 3.446826 8.950987 -5.684126
v 3.446828 7.747899 -9.049427
v 3.446826 8.950987 -5.684126
v 3.446826 7.710450 -5.700166
v 3.446827 8.988436 -9.033389
v -0.224457 7.710451 -5.700165
v -0.224456 8.988436 -9.033390
v -0.224456 7.747900 -9.049428
v -0.224457 8.950988 -5.684127
v -0.224456 7.747900 -9.049428
v 3.446827 8.988436 -9.033389
v 3.446828 7.747899 -9.049427
v -0.224456 8.988436 -9.033390
vn -0.0000 0.9999 -0.0112
vn -0.8944 -0.0057 -0.4472
vn -0.4472 -0.0116 -0.8944
vn 0.4472 -0.0115 -0.8944
vn 0.4472 -0.0116 -0.8944
vn 0.8944 -0.0058 -0.4472
vn 0.4472 -0.0115 -0.8943
vn 0.8944 -0.0058 -0.4471
vn 0.8944 0.0058 0.4471
vn 0.4472 0.0115 0.8943
vn -0.4472 0.0116 0.8943
vn -0.8944 0.0058 0.4471
vn -0.8944 -0.0058 -0.4471
vn -0.4472 -0.0116 -0.8943
vn 0.8944 0.0058 0.4472
vn 0.4472 0.0116 0.8944
vn -0.4472 0.0116 0.8944
vn 0.4472 0.0115 0.8944
vn -0.8944 0.0057 0.4472
vn -0.0000 0.9999 0.0112
vn -0.8944 -0.0057 0.4472
vn 0.4472 -0.0116 0.8944
vn -0.4472 -0.0115 0.8944
vn -0.4472 -0.0116 0.8944
vn 0.8944 -0.0058 0.4472
vn 0.4472 -0.0115 0.8943
vn 0.8944 0.0058 -0.4471
vn 0.8944 -0.0057 0.4471
vn 0.8944 -0.0058 0.4471
vn 0.8944 0.0057 -0.4471
vn 0.4472 0.0115 -0.8943
vn -0.4472 0.0116 -0.8943
vn -0.8944 -0.0058 0.4471
vn -0.8944 0.0058 -0.4471
vn -0.4472 -0.0116 0.8943
vn 0.8944 0.0058 -0.4472
vn -0.4472 0.0116 -0.8944
vn 0.4472 0.0116 -0.8944
vn 0.4472 0.0115 -0.8944
vn -0.4472 0.0115 -0.8944
vn -0.8944 0.0057 -0.4472
vt 0.552038 1.190660
vt 0.759963 1.190660
vt 0.552038 1.409943
vt 0.759963 1.409943
vt 0.556769 0.112175
vt 0.761512 0.112175
vt 0.556769 0.407525
vt 0.761512 0.407525
s 0
usemtl GATTBOXES01.09_-_Default
f 1/1/1 2/2/1 3/3/1
f 3/3/1 2/2/1 4/4/1
f 6/5/2 7/6/3 5/7/4
f 5/7/5 7/6/3 8/8/6
f 10/5/7 11/6/8 9/7/9
f 9/7/9 11/6/8 12/8/10
f 14/5/11 15/6/12 13/7/13
f 13/7/13 15/6/12 16/8/14
f 18/5/15 19/6/16 17/7/17
f 17/7/17 19/6/18 20/8/19
f 21/1/20 22/3/20 23/2/20
f 23/2/20 22/3/20 24/4/20
f 27/5/21 25/7/22 26/6/23
f 26/6/24 25/7/22 28/8/25
f 31/5/26 29/7/27 30/6/28
f 30/6/29 29/7/30 32/8/31
f 35/5/32 33/7/33 34/6/34
f 34/6/34 33/7/33 36/8/35
f 39/5/36 37/7/37 38/6/38
f 38/6/39 37/7/40 40/8/41
o model2
v -8.888336 11.432666 -8.053946
v -4.178553 11.432666 -8.053946
v -4.178553 11.432666 -10.542676
v -8.888336 11.432666 -10.542676
v -9.622986 10.199022 -7.665746
v -3.443904 10.199022 -7.665746
v -4.178553 11.432666 -8.053946
v -8.888336 11.432666 -8.053946
v -3.443904 10.199022 -7.665746
v -3.443904 10.199022 -10.930877
v -4.178553 11.432666 -10.542676
v -4.178553 11.432666 -8.053946
v -3.443904 10.199022 -10.930877
v -9.622986 10.199022 -10.930877
v -8.888336 11.432666 -10.542676
v -4.178553 11.432666 -10.542676
v -9.622986 10.199022 -10.930877
v -9.622986 10.199022 -7.665746
v -8.888336 11.432666 -8.053946
v -8.888336 11.432666 -10.542676
v -16.978672 11.432666 -8.053946
v -12.268888 11.432666 -8.053946
v -12.268888 11.432666 -10.542676
v -16.978672 11.432666 -10.542676
v -17.713320 10.199022 -7.665746
v -11.534239 10.199022 -7.665746
v -12.268888 11.432666 -8.053946
v -16.978672 11.432666 -8.053946
v -11.534239 10.199022 -7.665746
v -11.534239 10.199022 -10.930877
v -12.268888 11.432666 -10.542676
v -12.268888 11.432666 -8.053946
v -11.534239 10.199022 -10.930877
v -17.713320 10.199022 -10.930877
v -16.978672 11.432666 -10.542676
v -12.268888 11.432666 -10.542676
v -17.713320 10.199022 -10.930877
v -17.713320 10.199022 -7.665746
v -16.978672 11.432666 -8.053946
v -16.978672 11.432666 -10.542676
v -8.888336 11.432666 8.033946
v -4.178553 11.432666 10.522676
v -4.178553 11.432666 8.033946
v -8.888336 11.432666 10.522676
v -9.622986 10.199022 7.645745
v -4.178553 11.432666 8.033946
v -3.443904 10.199022 7.645745
v -8.888336 11.432666 8.033946
v -3.443904 10.199022 7.645745
v -4.178553 11.432666 10.522676
v -3.443904 10.199022 10.910876
v -4.178553 11.432666 8.033946
v -3.443904 10.199022 10.910876
v -8.888336 11.432666 10.522676
v -9.622986 10.199022 10.910876
v -4.178553 11.432666 10.522676
v -9.622986 10.199022 10.910876
v -8.888336 11.432666 8.033946
v -9.622986 10.199022 7.645745
v -8.888336 11.432666 10.522676
v -16.978672 11.432666 8.033946
v -12.268888 11.432666 10.522676
v -12.268888 11.432666 8.033946
v -16.978672 11.432666 10.522676
v -17.713320 10.199022 7.645745
v -12.268888 11.432666 8.033946
v -11.534239 10.199022 7.645745
v -16.978672 11.432666 8.033946
v -11.534239 10.199022 7.645745
v -12.268888 11.432666 10.522676
v -11.534239 10.199022 10.910876
v -12.268888 11.432666 8.033946
v -11.534239 10.199022 10.910876
v -16.978672 11.432666 10.522676
v -17.713320 10.199022 10.910876
v -12.268888 11.432666 10.522676
v -17.713320 10.199022 10.910876
v -16.978672 11.432666 8.033946
v -17.713320 10.199022 7.645745
v -16.978672 11.432666 10.522676
vn -0.0000 1.0000 -0.0000
vn -0.0000 0.3002 0.9539
vn 0.8592 0.5117 -0.0000
vn -0.0000 0.3002 -0.9539
vn -0.8592 0.5117 -0.0000
vt 0.244458 0.608984
vt 0.244458 0.740497
vt 0.038012 0.608984
vt 0.038012 0.740497
vt 0.275911 0.626916
vt 0.244006 0.683083
vt 0.005371 0.626916
vt 0.037277 0.683083
vt 0.207910 0.646710
vt 0.191277 0.708232
vt 0.068007 0.646710
vt 0.084641 0.708232
s 0
usemtl HOUSECOLOR02.03_-_Default
f 42/9/42 43/10/42 41/11/42
f 41/11/42 43/10/42 44/12/42
f 46/13/43 47/14/43 45/15/43
f 45/15/43 47/14/43 48/16/43
f 50/17/44 51/18/44 49/19/44
f 49/19/44 51/18/44 52/20/44
f 54/13/45 55/14/45 53/15/45
f 53/15/45 55/14/45 56/16/45
f 58/17/46 59/18/46 57/19/46
f 57/19/46 59/18/46 60/20/46
f 62/9/42 63/10/42 61/11/42
f 61/11/42 63/10/42 64/12/42
f 66/13/43 67/14/43 65/15/43
f 65/15/43 67/14/43 68/16/43
f 70/17/44 71/18/44 69/19/44
f 69/19/44 71/18/44 72/20/44
f 74/13/45 75/14/45 73/15/45
f 73/15/45 75/14/45 76/16/45
f 78/17/46 79/18/46 77/19/46
f 77/19/46 79/18/46 80/20/46
f 83/9/42 81/11/42 82/10/42
f 82/10/42 81/11/42 84/12/42
f 87/13/45 85/15/45 86/14/45
f 86/14/45 85/15/45 88/16/45
f 91/17/44 89/19/44 90/18/44
f 90/18/44 89/19/44 92/20/44
f 95/13/43 93/15/43 94/14/43
f 94/14/43 93/15/43 96/16/43
f 99/17/46 97/19/46 98/18/46
f 98/18/46 97/19/46 100/20/46
f 103/9/42 101/11/42 102/10/42
f 102/10/42 101/11/42 104/12/42
f 107/13/45 105/15/45 106/14/45
f 106/14/45 105/15/45 108/16/45
f 111/17/44 109/19/44 110/18/44
f 110/18/44 109/19/44 112/20/44
f 115/13/43 113/15/43 114/14/43
f 114/14/43 113/15/43 116/16/43
f 119/17/46 117/19/46 118/18/46
f 118/18/46 117/19/46 120/20/46
o model3
v 13.256141 7.890748 7.482921
v 24.574757 6.549294 7.482921
v 22.199007 6.549293 2.341149
v 24.574757 6.549294 7.482921
v 22.199007 6.549293 2.341149
v 13.256141 7.890749 -7.502920
v 22.199007 6.549294 -2.361148
v 24.574757 6.549294 -7.502921
v 24.574757 6.549294 -7.502921
v 22.199007 6.549294 -2.361148
v 15.028591 1.455498 -6.252405
v 11.062698 9.728028 -6.252404
v -16.873419 9.728027 -6.252406
v 11.062698 9.728028 6.232405
v -16.873419 9.728027 6.232406
v 13.256141 7.890749 -7.502920
v 11.062698 9.728028 -6.252404
v 13.256141 7.890748 7.482921
v 13.256141 7.890748 7.482921
v 11.062698 9.728028 -6.252404
v 11.062698 9.728028 6.232405
v 22.199007 6.549294 -2.361148
v 13.256141 7.890749 -7.502920
v 22.199007 6.549293 2.341149
v 13.256141 7.890748 7.482921
v 15.028591 1.455498 -6.252405
v 22.199007 6.549294 -2.361148
v 15.028591 1.455497 6.232405
v 22.199007 6.549293 2.341149
v -17.246195 1.455499 -6.252405
v 15.028591 1.455498 -6.252405
v -17.246195 1.455499 6.232405
v 15.028591 1.455497 6.232405
v -21.620531 3.956768 -7.502921
v -17.246195 1.455499 -6.252405
v -21.620531 3.956767 7.482921
v -21.620531 3.956767 7.482921
v -17.246195 1.455499 -6.252405
v -17.246195 1.455499 6.232405
v -21.620531 7.890750 -7.502920
v -21.620531 3.956768 -7.502921
v -21.620531 7.890749 7.482921
v -21.620531 3.956767 7.482921
v -16.873419 9.728027 -6.252406
v -21.620531 7.890750 -7.502920
v -16.873419 9.728027 6.232406
v -21.620531 7.890749 7.482921
v 13.256141 7.890748 7.482921
v 11.062698 9.728028 6.232405
v -21.620531 7.890749 7.482921
v -16.873419 9.728027 6.232406
v -21.620531 7.890749 7.482921
v -18.957897 7.472734 10.848797
v 13.256141 7.890748 7.482921
v 20.867859 7.472733 10.848796
v 20.867859 7.890749 7.482921
v -17.246195 1.455499 6.232405
v 15.028591 1.455497 6.232405
v -21.620531 3.956767 7.482921
v 24.574757 6.549294 7.482921
v -21.620531 3.956767 7.482921
v 24.574757 6.549294 7.482921
v -21.620531 7.890749 7.482921
v 13.256141 7.890748 7.482921
v 13.256141 7.890749 -7.502920
v -21.620531 7.890750 -7.502920
v 11.062698 9.728028 -6.252404
v -16.873419 9.728027 -6.252406
v -21.620531 7.890750 -7.502920
v 13.256141 7.890749 -7.502920
v -18.957897 7.472735 -10.868796
v 20.867859 7.472734 -10.868795
v 20.867859 7.890749 -7.502920
v -17.246195 1.455499 -6.252405
v -21.620531 3.956768 -7.502921
v 15.028591 1.455498 -6.252405
v 24.574757 6.549294 -7.502921
v -21.620531 3.956768 -7.502921
v -21.620531 7.890750 -7.502920
v 24.574757 6.549294 -7.502921
v 13.256141 7.890749 -7.502920
v 22.895035 7.219256 8.080092
v 20.867859 7.890749 7.482921
v 22.895035 6.968570 10.251626
v 20.867859 7.472733 10.848796
v 22.895035 6.968571 -10.271625
v 20.867859 7.472734 -10.868795
v 22.895035 7.219257 -8.100092
v 20.867859 7.890749 -7.502920
v 23.293339 6.353534 11.784019
v 2.995906 6.353537 11.784018
v 23.293339 6.353535 8.198705
v 2.995905 6.353537 8.198702
v -0.679612 6.353534 11.784019
v -20.977045 6.353537 11.784018
v -0.679612 6.353535 8.198705
v -20.977045 6.353537 8.198702
v -0.679612 6.353535 -8.218343
v -20.977045 6.353538 -8.218343
v -0.679612 6.353536 -11.803656
v -20.977045 6.353538 -11.803658
v 23.293339 6.353535 -8.218343
v 2.995906 6.353538 -8.218343
v 23.293339 6.353536 -11.803656
v 2.995905 6.353538 -11.803658
v 2.351609 5.707888 -12.769652
v 26.072144 5.707888 -12.769652
v 2.351609 5.707888 -5.945061
v 26.072144 5.707888 -5.945061
v 22.255487 10.288242 -6.998862
v 22.255487 10.288242 -11.715852
v 6.168267 10.288242 -6.998862
v 6.168267 10.288242 -11.715852
v 26.072144 5.707888 -5.945061
v 22.255487 10.288242 -6.998862
v 2.351609 5.707888 -5.945061
v 6.168267 10.288242 -6.998862
v 26.072144 5.707888 -12.769652
v 22.255487 10.288242 -11.715852
v 26.072144 5.707888 -5.945061
v 22.255487 10.288242 -6.998862
v 2.351609 5.707888 -12.769652
v 6.168267 10.288242 -11.715852
v 26.072144 5.707888 -12.769652
v 22.255487 10.288242 -11.715852
v 2.351609 5.707888 -5.945061
v 6.168267 10.288242 -6.998862
v 2.351609 5.707888 -12.769652
v 6.168267 10.288242 -11.715852
v 1.027718 5.707888 -12.769650
v 1.027718 5.707888 -5.945061
v -22.692816 5.707888 -12.769650
v -22.692816 5.707888 -5.945061
v -18.876160 10.288242 -6.998862
v -2.788939 10.288242 -6.998862
v -18.876160 10.288242 -11.715850
v -2.788939 10.288242 -11.715850
v -22.692816 5.707888 -5.945061
v 1.027718 5.707888 -5.945061
v -18.876160 10.288242 -6.998862
v -2.788939 10.288242 -6.998862
v -22.692816 5.707888 -12.769650
v -22.692816 5.707888 -5.945061
v -18.876160 10.288242 -11.715850
v -18.876160 10.288242 -6.998862
v 1.027718 5.707888 -12.769650
v -22.692816 5.707888 -12.769650
v -2.788939 10.288242 -11.715850
v -18.876160 10.288242 -11.715850
v 1.027718 5.707888 -5.945061
v 1.027718 5.707888 -12.769650
v -2.788939 10.288242 -6.998862
v -2.788939 10.288242 -11.715850
v 2.351609 5.707887 5.961529
v 26.072144 5.707887 5.961529
v 2.351609 5.707887 12.786119
v 26.072144 5.707887 12.786119
v 22.255487 10.288240 11.732318
v 22.255487 10.288240 7.015330
v 6.168267 10.288240 11.732318
v 6.168267 10.288240 7.015330
v 26.072144 5.707887 12.786119
v 22.255487 10.288240 11.732318
v 2.351609 5.707887 12.786119
v 6.168267 10.288240 11.732318
v 26.072144 5.707887 5.961529
v 22.255487 10.288240 7.015330
v 26.072144 5.707887 12.786119
v 22.255487 10.288240 11.732318
v 2.351609 5.707887 5.961529
v 6.168267 10.288240 7.015330
v 26.072144 5.707887 5.961529
v 22.255487 10.288240 7.015330
v 2.351609 5.707887 12.786119
v 6.168267 10.288240 11.732318
v 2.351609 5.707887 5.961529
v 6.168267 10.288240 7.015330
v 1.027718 5.707887 5.961529
v 1.027718 5.707887 12.786119
v -22.692816 5.707887 5.961529
v -22.692816 5.707887 12.786119
v -18.876160 10.288240 11.732318
v -2.788939 10.288240 11.732318
v -18.876160 10.288240 7.015330
v -2.788939 10.288240 7.015330
v -22.692816 5.707887 12.786119
v 1.027718 5.707887 12.786119
v -18.876160 10.288240 11.732318
v -2.788939 10.288240 11.732318
v -22.692816 5.707887 5.961529
v -22.692816 5.707887 12.786119
v -18.876160 10.288240 7.015330
v -18.876160 10.288240 11.732318
v 1.027718 5.707887 5.961529
v -22.692816 5.707887 5.961529
v -2.788939 10.288240 7.015330
v -18.876160 10.288240 7.015330
v 1.027718 5.707887 12.786119
v 1.027718 5.707887 5.961529
v -2.788939 10.288240 11.732318
v -2.788939 10.288240 7.015330
vn 0.1175 0.9916 -0.0543
vn 0.1175 0.9916 0.0543
vn 0.4815 -0.8477 0.2225
vn 0.6421 0.7666 -0.0000
vn -0.4964 -0.8681 -0.0000
vn -0.0000 1.0000 -0.0000
vn 0.1483 0.9889 -0.0000
vn 0.5791 -0.8152 -0.0000
vn -0.0000 -1.0000 -0.0000
vn -1.0000 -0.0000 -0.0000
vn -0.3609 0.9326 -0.0000
vn -0.0000 0.5627 0.8267
vn -0.0000 0.9924 0.1232
vn -0.0000 -0.4472 0.8944
vn 0.0074 -0.3577 0.9338
vn 0.0075 -0.3575 0.9339
vn 0.0148 -0.2645 0.9643
vn -0.0000 -0.0000 1.0000
vn -0.0000 0.5627 -0.8267
vn -0.0000 0.9924 -0.1232
vn -0.0000 -0.4472 -0.8944
vn 0.0074 -0.3577 -0.9338
vn 0.0075 -0.3575 -0.9339
vn 0.0148 -0.2645 -0.9643
vn -0.0000 -0.0000 -1.0000
vn 0.2832 0.9527 0.1100
vn 0.2778 0.9538 0.1143
vn 0.2724 0.9548 0.1186
vn 0.2704 0.9564 -0.1104
vn 0.2755 0.9545 -0.1143
vn 0.2755 0.9545 -0.1144
vn 0.2807 0.9525 -0.1183
vn -0.0000 0.2242 0.9745
vn 0.7682 0.6402 -0.0000
vn -0.0000 0.2242 -0.9745
vn -0.7682 0.6402 -0.0000
vt 0.160156 0.667969
vt -0.000000 0.667969
vt 0.031250 0.593750
vt 0.160156 0.453125
vt 0.031250 0.527344
vt -0.000000 0.453125
vt 0.175781 0.597656
vt 0.324219 0.667969
vt 0.398438 0.375000
vt 0.359375 0.453125
vt 0.000000 0.375000
vt 0.039062 0.453125
vt 0.625000 0.000000
vt 0.625000 0.109375
vt 0.878906 0.000000
vt 0.878906 0.109375
vt 0.496094 0.214844
vt 1.000000 0.214844
vt 0.496094 0.000000
vt 1.000000 0.000000
vt 0.324219 0.453125
vt 0.175781 0.523438
vt 0.878906 0.214844
vt 0.625000 0.214844
vt 0.998517 0.001483
vt 0.998517 0.109375
vt 0.625000 0.001483
vt 0.496094 0.195312
vt 0.628906 0.214844
vt 0.496094 0.015625
vt 0.628906 0.000000
vt 0.007812 0.292969
vt 0.070312 0.371094
vt 0.976562 0.292969
vt 0.843750 0.371094
vt 0.996094 0.296875
vt 0.937500 0.214844
vt 0.234375 0.296875
vt 0.062500 0.214844
vt 0.062500 0.296875
vt 0.628906 0.296875
vt 0.835938 0.296875
vt 0.628906 0.324219
vt 0.902344 0.335938
vt 0.628906 0.359375
vt 0.820312 0.359375
vt -0.003906 0.296875
vt -0.003906 0.214844
vt 0.000500 0.000499
vt 0.999500 0.000499
vt 0.000500 0.000500
vt 0.999500 0.000500
vt 0.737162 0.693283
vt 0.737162 0.893513
vt 1.250994 0.693283
vt 1.250994 0.893513
vt 0.253572 0.219278
vt 0.348225 0.291344
vt 0.906296 0.217407
vt 0.790300 0.289474
vt 0.299588 0.450150
vt 0.160473 0.483811
vt 0.299588 0.668147
vt 0.160473 0.634485
vt 0.160473 0.634485
vt 0.299587 0.450150
s 0
usemtl CHASSIS.01_-_Default
f 121/21/47 122/22/47 123/23/47
f 126/24/48 127/25/48 128/26/48
f 129/21/49 130/27/49 131/28/49
f 136/29/50 137/30/50 138/31/50
f 139/31/50 140/30/50 141/32/50
f 154/33/51 155/34/51 156/35/51
f 157/35/51 158/34/51 159/36/51
f 132/37/52 133/38/52 134/39/52
f 134/39/52 133/38/52 135/40/52
f 142/25/53 143/24/53 144/23/53
f 144/23/53 143/24/53 145/21/53
f 146/28/54 147/27/54 148/41/54
f 148/41/54 147/27/54 149/42/54
f 150/36/55 151/34/55 152/43/55
f 152/43/55 151/34/55 153/44/55
f 160/45/56 161/46/56 162/47/56
f 162/47/56 161/46/56 163/34/56
f 164/48/57 165/49/57 166/50/57
f 166/50/57 165/49/57 167/51/57
f 168/52/58 169/53/58 170/54/58
f 170/54/58 169/53/58 171/55/58
f 172/56/59 173/57/59 174/58/59
f 174/58/59 173/57/59 175/59/59
f 174/58/59 175/59/59 176/60/59
f 177/61/60 178/62/61 179/63/61
f 179/63/62 178/62/62 180/64/63
f 181/63/64 182/64/64 183/65/64
f 183/65/64 182/64/64 184/66/64
f 185/52/65 186/54/65 187/53/65
f 187/53/65 186/54/65 188/55/65
f 189/56/66 190/58/66 191/57/66
f 191/57/66 190/58/66 192/59/66
f 192/59/66 190/58/66 193/60/66
f 194/61/67 195/63/68 196/62/68
f 196/62/69 195/63/69 197/64/70
f 198/63/71 199/65/71 200/64/71
f 200/64/71 199/65/71 201/66/71
f 202/67/72 203/60/73 204/68/73
f 204/68/73 203/60/73 205/59/74
f 206/68/75 207/59/76 208/67/76
f 208/67/77 207/59/77 209/60/78
f 226/69/55 227/70/55 228/71/55
f 228/71/55 227/70/55 229/72/55
f 230/73/52 231/74/52 232/75/52
f 232/75/52 231/74/52 233/76/52
f 234/77/79 235/78/79 236/79/79
f 236/79/79 235/78/79 237/80/79
f 238/81/80 239/82/80 240/83/80
f 240/83/80 239/82/80 241/84/80
f 242/79/81 243/80/81 244/77/81
f 244/77/81 243/80/81 245/78/81
f 246/83/82 247/85/82 248/86/82
f 248/86/82 247/85/82 249/82/82
f 250/69/55 251/71/55 252/70/55
f 252/70/55 251/71/55 253/72/55
f 254/73/52 255/75/52 256/74/52
f 256/74/52 255/75/52 257/76/52
f 258/77/79 259/79/79 260/78/79
f 260/78/79 259/79/79 261/80/79
f 262/81/82 263/83/82 264/82/82
f 264/82/82 263/83/82 265/84/82
f 266/79/81 267/77/81 268/80/81
f 268/80/81 267/77/81 269/78/81
f 270/83/80 271/86/80 272/85/80
f 272/85/80 271/86/80 273/82/80
f 274/69/55 275/70/55 276/71/55
f 276/71/55 275/70/55 277/72/55
f 278/73/52 279/74/52 280/75/52
f 280/75/52 279/74/52 281/76/52
f 282/77/79 283/78/79 284/79/79
f 284/79/79 283/78/79 285/80/79
f 286/81/80 287/82/80 288/83/80
f 288/83/80 287/82/80 289/84/80
f 290/79/81 291/80/81 292/77/81
f 292/77/81 291/80/81 293/78/81
f 294/83/82 295/85/82 296/86/82
f 296/86/82 295/85/82 297/82/82
f 298/69/55 299/71/55 300/70/55
f 300/70/55 299/71/55 301/72/55
f 302/73/52 303/75/52 304/74/52
f 304/74/52 303/75/52 305/76/52
f 306/77/79 307/79/79 308/78/79
f 308/78/79 307/79/79 309/80/79
f 310/81/82 311/83/82 312/82/82
f 312/82/82 311/83/82 313/84/82
f 314/79/81 315/77/81 316/80/81
f 316/80/81 315/77/81 317/78/81
f 318/83/80 319/86/80 320/85/80
f 320/85/80 319/86/80 321/82/80
l 124 125
l 210 211
l 212 213
l 214 215
l 216 217
l 218 219
l 220 221
l 222 223
l 224 225
