# Blender 5.1.2
# www.blender.org
mtllib v2.mtl
o m2
v 4.481908 -2.831596 0.095925
v 5.852487 -1.691474 -0.813739
v 5.850608 -2.071389 0.095925
v 4.484896 -2.227302 -1.217716
v 4.484896 -2.227302 -1.217716
v 5.857021 -0.774280 -1.190535
v 5.852487 -1.691474 -0.813739
v 4.492110 -0.768408 -1.761843
v 4.492110 -0.768408 -1.761843
v 5.861557 0.142914 -0.813739
v 5.857021 -0.774280 -1.190535
v 4.499323 0.690485 -1.217715
v 4.499323 0.690485 -1.217715
v 5.863435 0.522828 0.095926
v 5.861557 0.142914 -0.813739
v 4.502311 1.294779 0.095926
v 4.502311 1.294779 0.095926
v 5.861557 0.142914 1.005590
v 5.863435 0.522828 0.095926
v 4.499323 0.690485 1.409567
v 4.499323 0.690485 1.409567
v 5.857021 -0.774281 1.382386
v 5.861557 0.142914 1.005590
v 4.492110 -0.768409 1.953694
v 4.492110 -0.768409 1.953694
v 5.852487 -1.691475 1.005590
v 5.857021 -0.774281 1.382386
v 4.484896 -2.227303 1.409566
v 4.484896 -2.227303 1.409566
v 5.850608 -2.071389 0.095925
v 5.852487 -1.691475 1.005590
v 4.481908 -2.831596 0.095925
v 25.523361 -2.061015 0.202070
v 27.085304 -1.911708 -0.713688
v 27.083221 -2.332970 0.202070
v 25.525059 -1.717704 -0.544235
v 25.525059 -1.717704 -0.544235
v 27.090328 -0.894692 -1.093007
v 27.085304 -1.911708 -0.713688
v 25.529160 -0.888878 -0.853365
v 27.095356 0.122323 -0.713687
v 25.533257 -0.060051 -0.544235
v 25.533257 -0.060051 -0.544235
v 27.097439 0.543585 0.202071
v 27.095356 0.122323 -0.713687
v 25.534954 0.283260 0.202071
v 27.095356 0.122323 1.117828
v 25.533257 -0.060052 0.948376
v 25.533257 -0.060052 0.948376
v 27.090328 -0.894693 1.497148
v 27.095356 0.122323 1.117828
v 25.529160 -0.888878 1.257506
v 27.085304 -1.911709 1.117828
v 25.525059 -1.717705 0.948376
v 25.525059 -1.717705 0.948376
v 27.085304 -1.911709 1.117828
v 32.192669 -1.626617 -0.537655
v 32.191231 -1.918074 0.095925
v 32.196148 -0.922981 -0.800092
v 32.192669 -1.626617 -0.537655
v 32.199627 -0.219344 -0.537655
v 32.201069 0.072112 0.095926
v 32.199627 -0.219344 -0.537655
v 32.199627 -0.219344 0.729506
v 32.196148 -0.922981 0.991943
v 32.199627 -0.219344 0.729506
v 32.192669 -1.626618 0.729505
v 32.192669 -1.626618 0.729505
v 32.196159 -0.922988 0.095925
v 32.191238 -1.918081 0.095925
v 32.192680 -1.626625 -0.537655
v 32.196159 -0.922988 -0.800092
v 32.199638 -0.219351 -0.537654
v 32.201080 0.072104 0.095926
v 32.199638 -0.219351 0.729506
v 32.196159 -0.922988 0.991943
v 32.192680 -1.626625 0.729505
vn 0.2469 -0.9690 0.0061
vn 0.2462 -0.9692 -0.0003
vn 0.2460 -0.7030 -0.6673
vn 0.2206 -0.6998 -0.6794
vn 0.2206 -0.6998 -0.6795
vn 0.2233 0.0108 -0.9747
vn 0.2128 -0.0070 -0.9771
vn 0.2233 0.0109 -0.9747
vn 0.2129 -0.0069 -0.9771
vn 0.2295 0.7087 -0.6671
vn 0.2294 0.7088 -0.6671
vn 0.2129 -0.0070 -0.9770
vn 0.2438 0.6908 -0.6807
vn 0.2439 0.6909 -0.6806
vn 0.2551 0.9669 -0.0061
vn 0.2438 0.6909 -0.6806
vn 0.2548 0.9670 0.0003
vn 0.2547 0.9670 0.0003
vn 0.2486 0.7014 0.6680
vn 0.2268 0.6977 0.6796
vn 0.2487 0.7013 0.6680
vn 0.2267 0.6977 0.6796
vn 0.2183 -0.0130 0.9758
vn 0.2129 0.0049 0.9771
vn 0.2182 -0.0131 0.9758
vn 0.2201 -0.7114 0.6675
vn 0.2378 -0.6930 0.6806
vn 0.2378 -0.6931 0.6805
vn 0.2469 -0.9690 0.0060
vn 0.2468 -0.9690 0.0061
vn 0.2377 -0.6931 0.6805
vn 0.2462 -0.9692 -0.0002
vn -0.0793 -0.7113 -0.6984
vn -0.0522 -0.6787 -0.7325
vn -0.0852 -0.9962 -0.0175
vn -0.0475 -0.9989 -0.0008
vn -0.0835 -0.7150 0.6942
vn -0.0343 -0.6802 0.7322
vn 0.0939 -0.5721 0.8148
vn 0.0831 -0.9851 0.1508
vn 0.0832 -0.9851 0.1507
vn -0.0475 -0.9989 -0.0009
vn 0.0649 -0.7723 -0.6319
vn -0.0736 0.7158 -0.6944
vn -0.0410 0.6802 -0.7319
vn -0.0733 -0.0127 -0.9972
vn -0.0474 0.0008 -0.9989
vn -0.0733 -0.0128 -0.9972
vn -0.0475 0.0007 -0.9989
vn -0.0793 -0.7112 -0.6985
vn -0.0794 -0.7112 -0.6985
vn -0.0522 -0.6787 -0.7326
vn 0.0562 -0.1235 -0.9908
vn 0.0561 -0.1235 -0.9908
vn -0.0474 0.0007 -0.9989
vn 0.0562 -0.1234 -0.9908
vn 0.0665 0.5725 -0.8172
vn -0.0761 0.7118 0.6982
vn -0.0291 0.6798 0.7329
vn -0.0762 0.9969 0.0175
vn -0.0761 0.9969 0.0175
vn -0.0290 0.6798 0.7329
vn -0.0350 0.9994 0.0005
vn -0.0351 0.9994 0.0005
vn -0.0736 0.7159 -0.6943
vn -0.0410 0.6802 -0.7318
vn 0.0665 0.5726 -0.8172
vn 0.0878 0.9846 -0.1514
vn 0.0878 0.9846 -0.1513
vn 0.0995 0.7699 0.6303
vn -0.0835 -0.7149 0.6942
vn -0.0780 0.0134 0.9969
vn -0.0270 -0.0003 0.9996
vn -0.0780 0.0135 0.9969
vn -0.0270 -0.0002 0.9996
vn -0.0762 0.7118 0.6983
vn -0.0761 0.7118 0.6983
vn -0.0290 0.6797 0.7329
vn 0.0984 0.1223 0.9876
vn 0.0939 -0.5720 0.8148
vn -0.0343 -0.6802 0.7323
vn 1.0000 -0.0049 -0.0000
vt -0.201211 0.528509
vt -0.004025 0.487382
vt -0.203753 0.689572
vt -0.004226 0.743143
vt -0.202573 0.690611
vt -0.003375 0.741686
vt -0.201143 0.528640
vt -0.005574 0.487982
vt -0.201364 0.528755
vt -0.005778 0.488066
vt -0.202751 0.690728
vt -0.003567 0.741770
vt -0.204029 0.690445
vt -0.004491 0.744050
vt -0.201445 0.529381
vt -0.004266 0.488288
vt -0.201211 0.528510
vt -0.004025 0.487382
vt -0.203753 0.689572
vt -0.004226 0.743143
vt -0.202573 0.690611
vt -0.003375 0.741686
vt -0.201143 0.528640
vt -0.201364 0.528755
vt -0.005778 0.488066
vt -0.202751 0.690728
vt -0.003566 0.741770
vt -0.004490 0.744050
vt -0.201445 0.529381
vt -0.004266 0.488288
vt 1.135936 0.377476
vt 1.164560 0.377283
vt 1.135113 0.405964
vt 1.164848 0.405874
vt 1.135936 0.434447
vt 1.164559 0.436025
vt 1.307509 0.427781
vt 1.308448 0.402029
vt 1.307510 0.376273
vt 1.135875 0.377510
vt 1.164506 0.377318
vt 1.135184 0.405963
vt 1.164931 0.405872
vt 1.135875 0.434415
vt 1.164507 0.435991
vt 1.307326 0.431687
vt 1.308384 0.405963
vt 1.307326 0.380239
vt 1.135936 0.377479
vt 1.164559 0.377284
vt 1.135113 0.405962
vt 1.164847 0.405871
vt 1.135936 0.434450
vt 1.164560 0.436025
vt 1.307510 0.435653
vt 1.308448 0.409897
vt 1.307509 0.384145
vt 1.135996 0.377452
vt 1.164600 0.377258
vt 1.135041 0.405963
vt 1.164752 0.405872
vt 1.135996 0.434474
vt 1.164600 0.436051
vt 1.307694 0.431739
vt 1.308512 0.405963
vt 1.307694 0.380187
vt 0.367610 0.429862
vt 0.344918 0.407169
vt 0.377010 0.407169
vt 0.367610 0.384476
vt 0.344918 0.375077
vt 0.322225 0.384476
vt 0.312825 0.407169
vt 0.322225 0.429862
vt 0.344917 0.439261
s 0
usemtl HOUSECOLOR03.003.01_-_Default
f 3/1/1 1/2/2 2/3/3
f 2/3/3 1/2/2 4/4/4
f 7/5/3 5/6/5 6/7/6
f 6/7/6 5/6/5 8/8/7
f 11/9/8 9/10/9 10/11/10
f 10/11/11 9/10/12 12/12/13
f 15/13/11 13/14/14 14/15/15
f 14/15/15 13/14/16 16/16/17
f 19/17/15 17/18/18 18/19/19
f 18/19/19 17/18/18 20/20/20
f 23/21/21 21/22/22 22/23/23
f 22/23/23 21/22/20 24/8/24
f 27/24/25 25/25/24 26/26/26
f 26/26/26 25/25/24 28/27/27
f 31/13/26 29/28/28 30/29/29
f 30/29/30 29/28/31 32/30/32
f 36/31/33 34/32/34 33/33/35
f 33/33/35 34/32/34 35/34/36
f 33/33/35 35/34/36 55/35/37
f 55/35/37 35/34/36 56/36/38
f 68/37/39 56/36/38 58/38/40
f 58/38/40 56/36/38 35/34/36
f 58/38/41 35/34/42 57/39/43
f 57/39/43 35/34/36 34/32/34
f 42/40/44 41/41/45 40/42/46
f 40/42/46 41/41/45 38/43/47
f 40/42/48 38/43/49 37/44/50
f 37/44/51 38/43/49 39/45/52
f 60/46/43 39/45/52 59/47/53
f 59/47/54 39/45/52 38/43/55
f 59/47/56 38/43/47 61/48/57
f 61/48/57 38/43/47 41/41/45
f 48/49/58 47/50/59 46/51/60
f 46/51/61 47/50/62 44/52/63
f 46/51/60 44/52/64 43/53/65
f 43/53/65 44/52/64 45/54/66
f 63/55/67 45/54/45 62/56/68
f 62/56/68 45/54/45 44/52/63
f 62/56/69 44/52/63 64/57/70
f 64/57/70 44/52/63 47/50/62
f 54/58/71 53/59/38 52/60/72
f 52/60/72 53/59/38 50/61/73
f 52/60/74 50/61/75 49/62/76
f 49/62/77 50/61/75 51/63/78
f 66/64/70 51/63/78 65/65/79
f 65/65/79 51/63/78 50/61/75
f 65/65/79 50/61/73 67/66/80
f 67/66/80 50/61/73 53/59/81
f 71/67/82 69/68/82 70/69/82
f 70/69/82 69/68/82 77/70/82
f 77/70/82 69/68/82 76/71/82
f 76/71/82 69/68/82 75/72/82
f 75/72/82 69/68/82 74/73/82
f 74/73/82 69/68/82 73/74/82
f 73/74/82 69/68/82 72/75/82
f 72/75/82 69/68/82 71/67/82
o m1
v -7.975915 -2.764510 0.095925
v 4.484900 -2.227305 -1.217716
v 4.481912 -2.831599 0.095925
v -7.972927 -2.160216 -1.217716
v -7.972927 -2.160216 -1.217716
v 4.492114 -0.768411 -1.761844
v 4.484900 -2.227305 -1.217716
v -7.965714 -0.701322 -1.761844
v 4.499328 0.690482 -1.217716
v -7.958501 0.757571 -1.217715
v 4.502316 1.294775 0.095926
v -7.955513 1.361865 0.095926
v 4.499328 0.690482 1.409567
v -7.958501 0.757571 1.409567
v 4.492114 -0.768412 1.953695
v -7.965714 -0.701323 1.953694
v 4.484900 -2.227306 1.409566
v -7.972927 -2.160217 1.409566
v 5.850613 -2.071392 0.095925
v 25.525070 -1.717710 -0.544235
v 25.523373 -2.061021 0.202070
v 5.852491 -1.691478 -0.813740
v 5.852491 -1.691478 -0.813740
v 25.529167 -0.888883 -0.853365
v 25.525070 -1.717710 -0.544235
v 5.857026 -0.774283 -1.190535
v 25.533268 -0.060057 -0.544235
v 5.861561 0.142911 -0.813739
v 25.534966 0.283254 0.202071
v 5.863440 0.522825 0.095926
v 25.533268 -0.060057 0.948376
v 5.861561 0.142910 1.005590
v 25.529167 -0.888884 1.257506
v 5.857026 -0.774284 1.382386
v 25.525070 -1.717710 0.948376
v 5.852491 -1.691478 1.005590
vn -0.0031 -0.5742 -0.8187
vn 0.1918 -0.7068 -0.6809
vn -0.0053 -0.9884 -0.1516
vn 0.1917 -0.7068 -0.6809
vn 0.2059 -0.9783 0.0240
vn -0.0042 -0.7739 0.6333
vn 0.2020 -0.6924 0.6927
vn -0.0041 -0.7739 0.6333
vn 0.2019 -0.6923 0.6927
vn -0.0008 -0.1234 0.9924
vn -0.0007 -0.1234 0.9924
vn 0.2020 -0.6923 0.6927
vn 0.1893 -0.0080 0.9819
vn -0.0006 -0.1234 0.9924
vn 0.1893 -0.0079 0.9819
vn 0.0030 0.5742 0.8187
vn 0.0031 0.5742 0.8187
vn 0.1984 0.7047 0.6812
vn 0.1983 0.7047 0.6812
vn 0.0054 0.9884 0.1516
vn 0.0053 0.9884 0.1516
vn 0.2149 0.9763 -0.0239
vn 0.0042 0.7739 -0.6333
vn 0.2149 0.9764 -0.0239
vn 0.2081 0.6903 -0.6930
vn 0.2081 0.6902 -0.6930
vn 0.0007 0.1234 -0.9924
vn 0.1891 0.0058 -0.9819
vn 0.1891 0.0057 -0.9819
vn 0.2109 -0.7031 -0.6791
vn -0.0680 -0.7168 -0.6940
vn 0.2073 -0.9781 -0.0189
vn 0.2073 -0.9781 -0.0188
vn -0.0679 -0.7168 -0.6940
vn -0.0703 -0.9975 0.0080
vn 0.1917 -0.7183 0.6688
vn -0.0703 -0.9975 0.0081
vn -0.0702 -0.7108 0.6999
vn 0.1917 -0.7182 0.6688
vn -0.0702 -0.7107 0.7000
vn 0.1944 -0.0006 0.9809
vn 0.1944 -0.0007 0.9809
vn -0.0686 0.0006 0.9976
vn -0.0685 0.0006 0.9976
vn 0.2131 0.7016 0.6799
vn -0.0648 0.7173 0.6938
vn 0.2130 0.7016 0.6799
vn -0.0648 0.7173 0.6937
vn 0.2159 0.9762 0.0188
vn 0.2160 0.9762 0.0188
vn -0.0607 0.9981 -0.0080
vn -0.0607 0.9981 -0.0081
vn 0.2021 0.7157 -0.6686
vn -0.0597 0.7116 -0.7000
vn 0.2022 0.7156 -0.6686
vn -0.0597 0.7116 -0.7001
vn 0.2002 -0.0017 -0.9797
vn 0.2003 -0.0017 -0.9797
vn -0.0632 0.0002 -0.9980
vn -0.0633 0.0002 -0.9980
vn -0.0633 0.0001 -0.9980
vt 1.066540 -0.553782
vt 0.649672 -0.553782
vt 1.066540 -0.588796
vt 0.649672 -0.588796
vt 1.066540 -0.623808
vt 0.649672 -0.623808
vt 1.066540 -0.553983
vt 0.649672 -0.553983
vt 1.066540 -0.588996
vt 0.649672 -0.588996
vt 1.066540 -0.624009
vt 0.649672 -0.624009
vt 1.066540 -0.552344
vt 0.649672 -0.552344
vt 1.066540 -0.587357
vt 0.649672 -0.587357
vt 1.066540 -0.622370
vt 0.649672 -0.622370
vt 0.949048 0.446982
vt 0.407883 0.446982
vt 0.949048 0.438279
vt 0.407883 0.438279
vt 0.949048 0.429577
vt 0.407883 0.429577
vt 0.949048 0.420875
vt 0.407883 0.420875
vt 0.949048 0.412173
vt 0.407883 0.412173
vt 0.949048 0.403470
vt 0.407883 0.403470
vt 0.949048 0.394768
vt 0.407883 0.394768
vt 0.949048 0.386066
vt 0.407883 0.386066
vt 0.949048 0.377364
vt 0.407883 0.377364
s 0
usemtl BARREL02.008.07_-_Default
f 81/76/83 79/77/84 78/78/85
f 78/78/85 79/77/86 80/79/87
f 78/78/85 80/79/87 95/80/88
f 95/80/88 80/79/87 94/81/89
f 95/80/90 94/81/91 93/82/92
f 93/82/93 94/81/94 92/83/95
f 93/82/96 92/83/97 91/84/98
f 91/84/99 92/83/97 90/85/100
f 91/84/99 90/85/101 89/86/102
f 89/86/103 90/85/100 88/87/104
f 89/86/103 88/87/104 87/88/105
f 87/88/105 88/87/106 86/89/107
f 87/88/105 86/89/108 85/90/109
f 85/90/109 86/89/107 83/91/110
f 85/90/109 83/91/111 82/92/83
f 82/92/83 83/91/111 84/93/84
f 99/94/112 97/95/113 96/96/114
f 96/96/115 97/95/116 98/97/117
f 96/96/115 98/97/117 113/98/118
f 113/98/118 98/97/119 112/99/120
f 113/98/121 112/99/122 111/100/123
f 111/100/124 112/99/122 110/101/125
f 111/100/123 110/101/126 109/102/127
f 109/102/127 110/101/126 108/103/128
f 109/102/129 108/103/130 107/104/131
f 107/104/132 108/103/130 106/105/133
f 107/104/132 106/105/134 105/106/135
f 105/106/135 106/105/134 104/107/136
f 105/106/137 104/107/138 103/108/139
f 103/108/140 104/107/138 101/109/141
f 103/108/140 101/109/142 100/110/112
f 100/110/112 101/109/143 102/111/116
