# Blender 5.1.2
# www.blender.org
mtllib v2.mtl
o boxes
v -1.873583 2.437801 10.731735
v 1.797701 2.437801 10.731736
v -1.873583 6.235936 10.738360
v 1.797700 6.235936 10.738360
v -1.873583 2.441450 9.105119
v 1.797701 2.441450 9.105119
v 1.797701 2.437801 10.731736
v -1.873583 2.437801 10.731735
v -1.873583 6.239584 9.111744
v -1.873583 2.441450 9.105119
v -1.873583 2.437801 10.731735
v -1.873583 6.235936 10.738360
v 1.797701 2.441450 9.105119
v 1.797700 6.239584 9.111743
v 1.797700 6.235936 10.738360
v 1.797701 2.437801 10.731736
v 1.797700 6.239584 9.111743
v -1.873583 6.239584 9.111744
v -1.873583 6.235936 10.738360
v 1.797700 6.235936 10.738360
v 3.867800 2.437804 10.731735
v 7.539083 2.437804 10.731736
v 3.867799 6.235939 10.738359
v 7.539083 6.235939 10.738359
v 3.867800 2.441453 9.105119
v 7.539083 2.441452 9.105119
v 7.539083 2.437804 10.731736
v 3.867800 2.437804 10.731735
v 3.867799 6.239587 9.111743
v 3.867800 2.441453 9.105119
v 3.867800 2.437804 10.731735
v 3.867799 6.235939 10.738359
v 7.539083 2.441452 9.105119
v 7.539083 6.239587 9.111743
v 7.539083 6.235939 10.738359
v 7.539083 2.437804 10.731736
v 7.539083 6.239587 9.111743
v 3.867799 6.239587 9.111743
v 3.867799 6.235939 10.738359
v 7.539083 6.235939 10.738359
v -1.873583 2.437801 -10.745962
v -1.873583 6.235936 -10.752586
v 1.797701 2.437801 -10.745963
v 1.797700 6.235935 -10.752587
v -1.873583 2.441449 -9.119345
v 1.797701 2.437801 -10.745963
v 1.797701 2.441449 -9.119346
v -1.873583 2.437801 -10.745962
v -1.873583 6.239584 -9.125971
v -1.873583 2.437801 -10.745962
v -1.873583 2.441449 -9.119345
v -1.873583 6.235936 -10.752586
v 1.797701 2.441449 -9.119346
v 1.797700 6.235935 -10.752587
v 1.797700 6.239584 -9.125970
v 1.797701 2.437801 -10.745963
v 1.797700 6.239584 -9.125970
v -1.873583 6.235936 -10.752586
v -1.873583 6.239584 -9.125971
v 1.797700 6.235935 -10.752587
v 3.867800 2.437803 -10.745961
v 3.867799 6.235939 -10.752587
v 7.539083 2.437803 -10.745963
v 7.539083 6.235938 -10.752586
v 3.867800 2.441453 -9.119346
v 7.539083 2.437803 -10.745963
v 7.539083 2.441452 -9.119346
v 3.867800 2.437803 -10.745961
v 3.867799 6.239586 -9.125970
v 3.867800 2.437803 -10.745961
v 3.867800 2.441453 -9.119346
v 3.867799 6.235939 -10.752587
v 7.539083 2.441452 -9.119346
v 7.539083 6.235938 -10.752586
v 7.539083 6.239586 -9.125971
v 7.539083 2.437803 -10.745963
v 7.539083 6.239586 -9.125971
v 3.867799 6.235939 -10.752587
v 3.867799 6.239586 -9.125970
v 7.539083 6.235938 -10.752586
v -18.352901 7.151735 -4.157434
v -18.352901 7.151735 -0.919880
v -15.131722 8.069697 -4.157434
v -15.131723 8.069696 -0.919880
v -17.907101 5.587397 -4.157434
v -17.907103 5.587397 -0.919881
v -18.352901 7.151735 -0.919880
v -18.352901 7.151735 -4.157434
v -14.685924 6.505359 -4.157434
v -17.907101 5.587397 -4.157434
v -18.352901 7.151735 -4.157434
v -15.131722 8.069697 -4.157434
v -17.907103 5.587397 -0.919881
v -14.685925 6.505358 -0.919881
v -15.131723 8.069696 -0.919880
v -18.352901 7.151735 -0.919880
v -14.685925 6.505358 -0.919881
v -14.685924 6.505359 -4.157434
v -15.131722 8.069697 -4.157434
v -15.131723 8.069696 -0.919880
v -18.352901 7.151735 0.905654
v -18.352901 7.151735 4.143207
v -15.131721 8.069696 0.905654
v -15.131722 8.069695 4.143207
v -17.907101 5.587397 0.905654
v -17.907101 5.587397 4.143207
v -18.352901 7.151735 4.143207
v -18.352901 7.151735 0.905654
v -14.685923 6.505358 0.905654
v -17.907101 5.587397 0.905654
v -18.352901 7.151735 0.905654
v -15.131721 8.069696 0.905654
v -17.907101 5.587397 4.143207
v -14.685921 6.505358 4.143207
v -15.131722 8.069695 4.143207
v -18.352901 7.151735 4.143207
v -14.685921 6.505358 4.143207
v -14.685923 6.505358 0.905654
v -15.131721 8.069696 0.905654
v -15.131722 8.069695 4.143207
vn -0.0000 -0.0017 1.0000
vn 0.8944 -0.4472 -0.0010
vn 0.4472 -0.8944 -0.0020
vn -0.4472 -0.8944 -0.0020
vn -0.8944 -0.4472 -0.0010
vn -0.4472 -0.8944 -0.0019
vn -0.8944 0.4472 0.0009
vn -0.8944 0.4472 0.0010
vn -0.8944 -0.4472 -0.0009
vn -0.4472 0.8944 0.0019
vn 0.4472 0.8944 0.0020
vn 0.8944 0.4472 0.0010
vn -0.4472 0.8944 0.0020
vn -0.0000 -0.0017 -1.0000
vn 0.8944 -0.4472 0.0010
vn -0.4472 -0.8944 0.0020
vn 0.4472 -0.8944 0.0020
vn -0.8944 -0.4472 0.0010
vn -0.4472 -0.8944 0.0018
vn -0.8944 0.4472 -0.0010
vn -0.4472 0.8944 -0.0018
vn 0.4472 0.8944 -0.0019
vn 0.8944 0.4472 -0.0010
vn 0.4472 -0.8944 0.0015
vn 0.4472 0.8944 -0.0020
vn -0.4472 0.8944 -0.0020
vn 0.4472 -0.8944 0.0019
vn -0.2741 0.9617 -0.0000
vn -0.4301 -0.1225 0.8944
vn -0.8602 -0.2452 0.4472
vn -0.8602 -0.2451 -0.4472
vn -0.4301 -0.1226 -0.8944
vn 0.4301 0.1226 -0.8944
vn 0.8602 0.2451 -0.4472
vn 0.8602 0.2452 0.4472
vn 0.4301 0.1225 0.8944
vt 0.304424 1.109412
vt 0.537422 1.109412
vt 0.304424 1.405145
vt 0.537422 1.405145
vt 0.556769 0.112175
vt 0.761512 0.112175
vt 0.556769 0.407525
vt 0.761512 0.407525
s 0
usemtl GATTBOXES02.09_-_Default
f 1/1/1 2/2/1 3/3/1
f 3/3/1 2/2/1 4/4/1
f 6/5/2 7/6/3 5/7/4
f 5/7/4 7/6/3 8/8/5
f 10/5/6 11/6/5 9/7/7
f 9/7/8 11/6/9 12/8/10
f 14/5/11 15/6/12 13/7/2
f 13/7/2 15/6/12 16/8/3
f 18/5/8 19/6/13 17/7/11
f 17/7/11 19/6/13 20/8/12
f 21/1/1 22/2/1 23/3/1
f 23/3/1 22/2/1 24/4/1
f 26/5/2 27/6/3 25/7/4
f 25/7/4 27/6/3 28/8/5
f 30/5/6 31/6/5 29/7/7
f 29/7/8 31/6/9 32/8/10
f 34/5/11 35/6/12 33/7/2
f 33/7/2 35/6/12 36/8/3
f 38/5/8 39/6/13 37/7/11
f 37/7/11 39/6/13 40/8/12
f 41/1/14 42/3/14 43/2/14
f 43/2/14 42/3/14 44/4/14
f 47/5/15 45/7/16 46/6/17
f 46/6/17 45/7/16 48/8/18
f 51/5/19 49/7/20 50/6/18
f 50/6/18 49/7/20 52/8/21
f 55/5/22 53/7/15 54/6/23
f 54/6/23 53/7/15 56/8/24
f 59/5/20 57/7/25 58/6/26
f 58/6/26 57/7/25 60/8/23
f 61/1/14 62/3/14 63/2/14
f 63/2/14 62/3/14 64/4/14
f 67/5/15 65/7/16 66/6/17
f 66/6/17 65/7/16 68/8/18
f 71/5/19 69/7/20 70/6/18
f 70/6/18 69/7/20 72/8/21
f 75/5/22 73/7/15 74/6/23
f 74/6/23 73/7/15 76/8/27
f 79/5/20 77/7/25 78/6/26
f 78/6/26 77/7/25 80/8/23
f 81/1/28 82/2/28 83/3/28
f 83/3/28 82/2/28 84/4/28
f 86/5/29 87/6/30 85/7/31
f 85/7/31 87/6/30 88/8/32
f 90/5/31 91/6/32 89/7/33
f 89/7/33 91/6/32 92/8/34
f 94/5/35 95/6/36 93/7/29
f 93/7/29 95/6/36 96/8/30
f 98/5/33 99/6/34 97/7/35
f 97/7/35 99/6/34 100/8/36
f 101/1/28 102/2/28 103/3/28
f 103/3/28 102/2/28 104/4/28
f 106/5/29 107/6/30 105/7/31
f 105/7/31 107/6/30 108/8/32
f 110/5/31 111/6/32 109/7/33
f 109/7/33 111/6/32 112/8/34
f 114/5/35 115/6/36 113/7/29
f 113/7/29 115/6/36 116/8/30
f 118/5/33 119/6/34 117/7/35
f 117/7/35 119/6/34 120/8/36
o tube
v -5.091296 13.899506 -9.043798
v -5.091296 13.278343 -10.381285
v -7.804190 14.605042 -9.371466
v -7.804190 13.983877 -10.708952
v -6.532933 10.597559 -9.136257
v -6.532932 11.218723 -7.798773
v -8.147944 11.017572 -9.331324
v -8.147945 11.638735 -7.993836
v -2.808071 12.394985 -8.345060
v -2.808072 11.773821 -9.682545
v -5.173706 9.701904 -8.720291
v -5.173706 10.323067 -7.382807
v -1.229906 10.272943 -7.359529
v -1.229906 9.651781 -8.697016
v -4.234207 8.438631 -8.133596
v -4.234208 9.059795 -6.796111
v -0.547149 7.789332 -6.206076
v -0.547150 7.168170 -7.543561
v -3.827757 6.960113 -7.446933
v -3.827756 7.581275 -6.109448
v -0.842152 5.243712 -5.023823
v -0.842153 4.622549 -6.361309
v -4.003375 5.444679 -6.743127
v -4.003375 6.065842 -5.405641
v -2.079334 2.943120 -3.955369
v -2.079335 2.321957 -5.292854
v -4.739882 4.075114 -6.107065
v -4.739881 4.696277 -4.769579
v -4.109472 1.165044 -3.129583
v -4.109472 0.543881 -4.467069
v -5.948443 3.016607 -5.615467
v -5.948442 3.637770 -4.277981
v -6.687700 0.123944 -2.646069
v -6.687700 -0.497219 -3.983554
v -7.483287 2.396830 -5.327625
v -7.483287 3.017993 -3.990140
v -9.503047 -0.054606 -2.563145
v -9.503048 -0.675769 -3.900630
v -9.159291 2.290537 -5.278260
v -9.159291 2.911701 -3.940775
v -12.215940 0.650929 -2.890813
v -12.215940 0.029766 -4.228299
v -10.774304 2.710549 -5.473324
v -10.774304 3.331712 -4.135839
v -14.499166 2.155451 -3.589551
v -14.499166 1.534288 -4.927037
v -12.133532 3.606206 -5.889290
v -12.133532 4.227369 -4.551805
v -16.077330 4.277492 -4.575082
v -16.077330 3.656329 -5.912568
v -13.073030 4.869479 -6.475986
v -13.073029 5.490642 -5.138501
v -16.760086 6.761103 -5.728535
v -16.760088 6.139940 -7.066021
v -13.479481 6.347998 -7.162649
v -13.479481 6.969161 -5.825163
v -16.465084 9.306725 -6.910789
v -16.465084 8.685562 -8.248274
v -13.303861 7.863431 -7.866456
v -13.303861 8.484594 -6.528970
v -15.227900 11.607317 -7.979243
v -15.227901 10.986153 -9.316729
v -12.567354 9.232996 -8.502518
v -12.567354 9.854160 -7.165032
v -13.197762 13.385391 -8.805029
v -13.197763 12.764229 -10.142513
v -11.358793 10.291502 -8.994116
v -11.358792 10.912664 -7.656630
v -10.619534 14.426491 -9.288542
v -10.619534 13.805328 -10.626028
v -9.823948 10.911280 -9.281956
v -9.823947 11.532442 -7.944472
v -7.804632 14.594440 9.364311
v -5.091738 13.266146 10.372026
v -5.091739 13.889425 9.035526
v -7.804632 13.971161 10.700811
v -8.148386 11.007038 9.318485
v -6.533374 11.210615 7.786256
v -6.533373 10.587337 9.122757
v -8.148386 11.630320 7.981985
v -2.808512 11.762733 9.670906
v -2.808512 12.386015 8.334406
v -5.174146 10.315620 7.368873
v -5.174146 9.692339 8.705374
v -1.230346 9.642258 8.682016
v -1.230346 10.265537 7.345516
v -4.234648 9.053280 6.780177
v -4.234648 8.430000 8.116676
v -0.547589 7.160476 7.524632
v -0.547588 7.783756 6.188131
v -3.828196 7.575850 6.091175
v -3.828196 6.952570 7.427675
v -0.842591 4.616730 6.338349
v -0.842591 5.240010 5.001850
v -4.003814 6.061533 5.384969
v -4.003814 5.438254 6.721469
v -2.079772 2.317833 5.266253
v -2.079772 2.941113 3.929753
v -4.740320 4.692977 4.746739
v -4.740320 4.069697 6.083239
v -4.109909 0.541066 4.437654
v -4.109909 1.164346 3.101153
v -5.948881 3.635250 4.253465
v -5.948881 3.011970 5.589966
v -6.688137 -0.499268 3.952491
v -6.688138 0.124012 2.615991
v -7.483726 3.015929 3.964644
v -7.483726 2.392649 5.301145
v -9.503485 -0.677687 3.869285
v -9.503484 -0.054407 2.532785
v -9.159731 2.909714 3.915110
v -9.159731 2.286434 5.251611
v -12.216379 0.027327 4.198070
v -12.216379 0.650607 2.861570
v -10.774742 3.329416 4.110839
v -10.774742 2.706136 5.447339
v -14.499604 1.530739 4.899190
v -14.499604 2.154019 3.562690
v -12.133970 4.224412 4.528223
v -12.133970 3.601132 5.864723
v -16.077770 3.651217 5.888080
v -16.077770 4.274497 4.551580
v -13.073467 5.486753 5.116919
v -13.073468 4.863473 6.453419
v -16.760527 6.132998 7.045464
v -16.760527 6.756278 5.708964
v -13.479920 6.964182 5.805921
v -13.479920 6.340903 7.142421
v -16.465523 8.676743 8.231747
v -16.465523 9.300022 6.895247
v -13.304302 8.478500 6.512127
v -13.304303 7.855220 7.848626
v -15.228343 10.975641 9.303843
v -15.228341 11.598919 7.967342
v -12.567796 9.847055 7.150356
v -12.567796 9.223776 8.486856
v -13.198206 12.752407 10.132442
v -13.198206 13.375689 8.795942
v -11.359234 10.904783 7.643630
v -11.359234 10.281504 8.980129
v -10.619976 13.792740 10.617603
v -10.619976 14.416021 9.281103
v -9.824388 11.524103 7.932452
v -9.824388 10.900824 9.268953
vn 0.1627 0.8949 -0.4156
vn 0.4903 0.7904 -0.3671
vn 0.3849 0.8371 -0.3888
vn 0.4904 0.7904 -0.3671
vn 0.6773 0.6672 -0.3099
vn 0.0460 0.9060 -0.4208
vn -0.1846 0.8914 -0.4140
vn -0.2984 0.8656 -0.4020
vn -0.5095 0.7804 -0.3624
vn -0.2985 0.8656 -0.4020
vn -0.6069 0.7209 -0.3348
vn -0.5096 0.7804 -0.3624
vn -0.6069 0.7208 -0.3348
vn -0.7731 0.5753 -0.2672
vn -0.8421 0.4891 -0.2272
vn -0.7731 0.5752 -0.2672
vn -0.7732 0.5752 -0.2671
vn -0.9434 0.3007 -0.1397
vn -0.9758 0.1984 -0.0921
vn -0.9999 -0.0100 0.0047
vn -0.9918 -0.1162 0.0540
vn -0.9999 -0.0101 0.0047
vn -0.9358 -0.3196 0.1485
vn -0.8881 -0.4169 0.1936
vn -0.9358 -0.3196 0.1484
vn -0.9358 -0.3197 0.1484
vn -0.7589 -0.5907 0.2743
vn -0.6774 -0.6672 0.3099
vn -0.7588 -0.5907 0.2743
vn -0.6773 -0.6672 0.3099
vn -0.4904 -0.7904 0.3671
vn -0.6773 -0.6673 0.3099
vn -0.3849 -0.8371 0.3888
vn -0.4903 -0.7905 0.3671
vn -0.1627 -0.8949 0.4156
vn -0.0460 -0.9060 0.4208
vn 0.1845 -0.8914 0.4140
vn 0.2984 -0.8656 0.4020
vn 0.1846 -0.8914 0.4140
vn 0.5096 -0.7804 0.3624
vn 0.6069 -0.7209 0.3348
vn 0.6069 -0.7208 0.3348
vn 0.7731 -0.5752 0.2672
vn 0.8421 -0.4891 0.2272
vn 0.7731 -0.5752 0.2671
vn 0.9434 -0.3007 0.1397
vn 0.9758 -0.1984 0.0922
vn 0.9434 -0.3007 0.1396
vn 0.9758 -0.1984 0.0921
vn 0.9999 0.0101 -0.0047
vn 0.9918 0.1162 -0.0540
vn 0.9358 0.3196 -0.1484
vn 0.8881 0.4169 -0.1936
vn 0.9358 0.3197 -0.1485
vn 0.7589 0.5907 -0.2743
vn 0.6774 0.6672 -0.3099
vn 0.7588 0.5907 -0.2743
vn -0.4903 -0.7904 0.3671
vn -0.0461 -0.9060 0.4208
vn -0.0459 -0.9060 0.4208
vn 0.8881 0.4168 -0.1936
vn 0.9358 0.3196 -0.1485
vn -0.7731 0.5752 -0.2671
vn -0.9758 0.1984 -0.0922
vn -0.9358 -0.3197 0.1485
vn 0.4903 0.7899 0.3684
vn 0.1627 0.8942 0.4170
vn 0.3849 0.8365 0.3901
vn 0.0460 0.9053 0.4222
vn 0.6773 0.6667 0.3109
vn 0.4904 0.7899 0.3683
vn 0.7588 0.5902 0.2753
vn 0.6774 0.6667 0.3109
vn 0.8881 0.4166 0.1943
vn 0.7589 0.5902 0.2752
vn 0.9358 0.3194 0.1490
vn 0.8881 0.4166 0.1942
vn 0.9918 0.1162 0.0542
vn 0.9358 0.3194 0.1489
vn 0.9999 0.0101 0.0047
vn 0.9918 0.1161 0.0542
vn 0.9758 -0.1983 -0.0925
vn 0.9434 -0.3005 -0.1401
vn 0.8421 -0.4888 -0.2279
vn 0.7731 -0.5748 -0.2680
vn 0.8421 -0.4888 -0.2280
vn 0.6069 -0.7203 -0.3359
vn 0.7731 -0.5748 -0.2681
vn 0.5096 -0.7798 -0.3636
vn 0.6069 -0.7203 -0.3360
vn 0.2984 -0.8650 -0.4034
vn 0.5096 -0.7798 -0.3637
vn 0.1846 -0.8907 -0.4154
vn -0.0460 -0.9053 -0.4222
vn -0.1627 -0.8942 -0.4170
vn -0.0460 -0.9054 -0.4221
vn -0.3849 -0.8365 -0.3901
vn -0.4903 -0.7899 -0.3683
vn -0.6773 -0.6667 -0.3109
vn -0.4904 -0.7899 -0.3684
vn -0.7588 -0.5902 -0.2753
vn -0.6774 -0.6667 -0.3109
vn -0.8881 -0.4166 -0.1943
vn -0.7589 -0.5902 -0.2753
vn -0.9358 -0.3194 -0.1490
vn -0.8881 -0.4165 -0.1943
vn -0.9918 -0.1162 -0.0542
vn -0.9999 -0.0101 -0.0046
vn -0.9918 -0.1161 -0.0542
vn -0.9758 0.1983 0.0925
vn -0.9999 -0.0101 -0.0047
vn -0.9434 0.3005 0.1401
vn -0.9758 0.1983 0.0924
vn -0.8421 0.4888 0.2279
vn -0.7731 0.5748 0.2681
vn -0.6069 0.7203 0.3359
vn -0.5096 0.7798 0.3637
vn -0.2984 0.8650 0.4034
vn -0.1846 0.8907 0.4154
vn -0.4903 -0.7899 -0.3684
vn -0.4904 -0.7899 -0.3683
vn -0.7589 -0.5902 -0.2752
vn -0.9358 -0.3195 -0.1490
vn -0.9358 -0.3194 -0.1489
vn -0.2985 0.8650 0.4034
vn -0.5095 0.7798 0.3637
vn 0.3848 0.8365 0.3901
vn 0.4904 0.7899 0.3684
vn 0.7589 0.5902 0.2753
vn 0.8881 0.4165 0.1943
vt 0.281073 0.023139
vt 0.206802 0.023139
vt 0.206802 0.094211
vt 0.281073 0.094211
s 0
usemtl TUBE02.07_-_Default
f 123/9/37 121/10/38 122/11/39
f 122/11/39 121/10/40 130/12/41
f 122/11/39 124/12/42 123/9/37
f 123/9/37 124/12/42 189/10/43
f 124/12/42 190/11/44 189/10/43
f 189/10/43 190/11/44 185/9/45
f 190/11/46 186/12/47 185/9/48
f 185/9/48 186/12/49 181/10/50
f 186/12/49 182/11/51 181/10/52
f 181/10/53 182/11/51 177/9/54
f 182/11/51 178/12/55 177/9/54
f 177/9/54 178/12/55 173/10/56
f 178/12/55 174/11/57 173/10/58
f 173/10/58 174/11/57 169/9/59
f 174/11/57 170/12/60 169/9/61
f 169/9/62 170/12/60 165/10/63
f 170/12/60 166/11/64 165/10/63
f 165/10/65 166/11/66 161/9/67
f 166/11/68 162/12/69 161/9/67
f 161/9/70 162/12/69 157/10/71
f 162/12/69 158/11/72 157/10/71
f 157/10/71 158/11/72 153/9/73
f 158/11/72 154/12/74 153/9/75
f 153/9/75 154/12/74 149/10/76
f 154/12/74 150/11/77 149/10/76
f 149/10/76 150/11/78 145/9/79
f 150/11/77 146/12/80 145/9/79
f 145/9/81 146/12/80 141/10/82
f 146/12/80 142/11/83 141/10/82
f 141/10/84 142/11/85 137/9/86
f 142/11/85 138/12/87 137/9/86
f 137/9/86 138/12/87 133/10/88
f 138/12/87 134/11/89 133/10/88
f 133/10/90 134/11/89 129/9/91
f 134/11/89 130/12/92 129/9/91
f 129/9/93 130/12/41 121/10/40
f 127/9/71 125/10/94 126/11/69
f 126/11/69 125/10/67 132/12/66
f 126/11/69 128/12/95 127/9/71
f 127/9/71 128/12/72 191/10/75
f 128/12/96 192/11/74 191/10/75
f 191/10/75 192/11/74 187/9/76
f 192/11/74 188/12/77 187/9/76
f 187/9/76 188/12/78 183/10/79
f 188/12/78 184/11/80 183/10/79
f 183/10/81 184/11/80 179/9/82
f 184/11/80 180/12/83 179/9/82
f 179/9/82 180/12/85 175/10/86
f 180/12/85 176/11/87 175/10/86
f 175/10/86 176/11/87 171/9/88
f 176/11/87 172/12/97 171/9/98
f 171/9/90 172/12/89 167/10/91
f 172/12/89 168/11/92 167/10/91
f 167/10/93 168/11/41 163/9/40
f 168/11/41 164/12/39 163/9/40
f 163/9/38 164/12/39 159/10/37
f 164/12/39 160/11/42 159/10/37
f 159/10/37 160/11/42 155/9/43
f 160/11/42 156/12/44 155/9/43
f 155/9/43 156/12/44 151/10/48
f 156/12/44 152/11/47 151/10/48
f 151/10/48 152/11/49 147/9/52
f 152/11/49 148/12/51 147/9/52
f 147/9/99 148/12/51 143/10/54
f 148/12/51 144/11/100 143/10/54
f 143/10/54 144/11/55 139/9/58
f 144/11/55 140/12/57 139/9/58
f 139/9/58 140/12/57 135/10/61
f 140/12/57 136/11/60 135/10/61
f 135/10/101 136/11/60 131/9/63
f 136/11/60 132/12/64 131/9/63
f 131/9/65 132/12/68 125/10/67
f 195/10/102 193/9/103 194/11/104
f 194/11/104 193/9/103 196/12/105
f 194/11/104 201/12/106 195/10/107
f 195/10/107 201/12/106 202/9/108
f 201/12/109 205/11/110 202/9/111
f 202/9/111 205/11/110 206/10/112
f 205/11/113 209/12/114 206/10/115
f 206/10/115 209/12/114 210/9/116
f 209/12/117 213/11/118 210/9/116
f 210/9/116 213/11/118 214/10/119
f 213/11/118 217/12/120 214/10/119
f 214/10/119 217/12/120 218/9/121
f 217/12/122 221/11/123 218/9/124
f 218/9/124 221/11/123 222/10/125
f 221/11/126 225/12/127 222/10/128
f 222/10/128 225/12/127 226/9/129
f 225/12/127 229/11/130 226/9/129
f 226/9/129 229/11/130 230/10/131
f 229/11/132 233/12/133 230/10/131
f 230/10/131 233/12/133 234/9/134
f 233/12/133 237/11/135 234/9/136
f 234/9/136 237/11/135 238/10/137
f 237/11/138 241/12/139 238/10/140
f 238/10/140 241/12/139 242/9/141
f 241/12/142 245/11/143 242/9/141
f 242/9/141 245/11/143 246/10/144
f 245/11/145 249/12/146 246/10/147
f 246/10/147 249/12/146 250/9/148
f 249/12/149 253/11/150 250/9/148
f 250/9/148 253/11/150 254/10/151
f 253/11/150 257/12/152 254/10/151
f 254/10/151 257/12/152 258/9/153
f 257/12/152 261/11/154 258/9/153
f 258/9/153 261/11/154 262/10/155
f 261/11/154 196/12/105 262/10/155
f 262/10/155 196/12/105 193/9/103
f 199/10/156 197/9/131 198/11/133
f 198/11/133 197/9/131 200/12/130
f 198/11/133 203/12/135 199/10/157
f 199/10/157 203/12/135 204/9/137
f 203/12/138 207/11/139 204/9/158
f 204/9/158 207/11/139 208/10/159
f 207/11/142 211/12/143 208/10/160
f 208/10/160 211/12/143 212/9/147
f 211/12/145 215/11/146 212/9/147
f 212/9/147 215/11/146 216/10/148
f 215/11/146 219/12/150 216/10/148
f 216/10/148 219/12/150 220/9/151
f 219/12/150 223/11/152 220/9/151
f 220/9/151 223/11/152 224/10/153
f 223/11/152 227/12/161 224/10/162
f 224/10/162 227/12/161 228/9/155
f 227/12/154 231/11/105 228/9/155
f 228/9/155 231/11/105 232/10/103
f 231/11/105 235/12/163 232/10/103
f 232/10/103 235/12/104 236/9/102
f 235/12/104 239/11/106 236/9/164
f 236/9/164 239/11/106 240/10/108
f 239/11/109 243/12/110 240/10/165
f 240/10/165 243/12/110 244/9/112
f 243/12/166 247/11/114 244/9/112
f 244/9/112 247/11/114 248/10/116
f 247/11/117 251/12/118 248/10/116
f 248/10/116 251/12/118 252/9/119
f 251/12/118 255/11/120 252/9/119
f 252/9/119 255/11/120 256/10/124
f 255/11/120 259/12/123 256/10/124
f 256/10/124 259/12/123 260/9/128
f 259/12/123 263/11/127 260/9/128
f 260/9/128 263/11/127 264/10/129
f 263/11/127 200/12/130 264/10/129
f 264/10/129 200/12/130 197/9/131
o tube2
v -5.542843 13.548084 10.287758
v -5.398787 9.910782 8.769245
v -3.169418 12.111376 9.770401
v -6.811709 10.766069 9.077232
v -6.763326 11.335530 7.717791
v -3.121036 12.680837 8.410959
v -5.350404 10.480242 7.409803
v -5.494460 14.117545 8.928314
v -4.381414 8.665047 8.283627
v -1.460440 10.018794 8.954659
v -1.412057 10.588255 7.595215
v -4.333032 9.234508 6.924183
v -3.882304 7.179121 7.678946
v -0.622036 7.522740 7.938919
v -0.573654 8.092200 6.579476
v -3.833921 7.748582 6.319503
v -3.961656 5.632227 7.028139
v -0.755330 4.924272 6.845696
v -0.706948 5.493732 5.486253
v -3.913273 6.201688 5.668696
v -4.609898 4.210944 6.409703
v -1.844245 2.536805 5.806849
v -1.795862 3.106265 4.447407
v -4.561515 4.780405 5.050261
v -5.748842 3.086699 5.898230
v -3.757441 0.648302 4.947679
v -3.709058 1.217763 3.588236
v -5.700459 3.656160 4.538788
v -7.241117 2.395094 5.555412
v -6.264160 -0.513455 4.371813
v -6.215777 0.056006 3.012370
v -7.192734 2.964555 4.195969
v -8.906730 2.219545 5.422596
v -9.062051 -0.808342 4.148710
v -9.013669 -0.238881 2.789266
v -8.858347 2.789006 4.063154
v -10.544785 2.581227 5.515803
v -11.813652 -0.200789 4.305278
v -11.765269 0.368671 2.945836
v -10.496403 3.150687 4.156361
v -11.957708 3.436515 5.823791
v -14.187076 1.235921 4.822636
v -14.138693 1.805382 3.463192
v -11.909326 4.005976 4.464348
v -12.975079 4.682249 6.309411
v -15.896053 3.328502 5.638379
v -15.847671 3.897962 4.278936
v -12.926696 5.251710 4.949968
v -13.474189 6.168176 6.914091
v -16.734457 5.824557 6.654119
v -16.686075 6.394018 5.294676
v -13.425806 6.737637 5.554648
v -13.394837 7.715070 7.564897
v -16.601164 8.423025 7.747341
v -16.552782 8.992485 6.387898
v -13.346455 8.284530 6.205455
v -12.746594 9.136353 8.183332
v -15.512249 10.810492 8.786188
v -15.463867 11.379951 7.426744
v -12.698212 9.705812 6.823890
v -11.607651 10.260596 8.694805
v -13.599049 12.698994 9.645357
v -13.550667 13.268454 8.285915
v -11.559268 10.830057 7.335363
v -10.115376 10.952202 9.037624
v -11.092331 13.860750 10.221224
v -11.043948 14.430210 8.861780
v -10.066994 11.521663 7.678182
v -8.449762 11.127750 9.170441
v -8.294439 14.155638 10.444326
v -8.246058 14.725098 9.084885
v -8.401380 11.697210 7.810997
v -5.874706 13.579800 -10.521271
v -6.999482 10.777027 -9.219595
v -8.654054 14.024279 -10.727697
v -8.654055 11.041632 -9.342484
v -6.999481 11.398188 -7.882110
v -5.874706 14.200960 -9.183784
v -8.654053 11.662791 -8.004997
v -8.654053 14.645439 -9.390211
v -3.430592 12.299975 -9.926889
v -5.544476 10.015135 -8.865755
v -5.544476 10.636297 -7.528269
v -3.430591 12.921137 -8.589403
v -1.616505 10.339172 -9.016247
v -4.464531 8.847850 -8.323639
v -4.464531 9.469010 -6.986154
v -1.616504 10.960333 -7.678760
v -0.651248 7.933892 -7.899176
v -3.889905 7.415962 -7.658637
v -3.889904 8.037125 -6.321151
v -0.651248 8.555054 -6.561689
v -0.651250 5.374247 -6.710416
v -3.889906 5.892180 -6.950956
v -3.889906 6.513341 -5.613469
v -0.651250 5.995407 -5.372929
v -1.616509 2.968968 -5.593346
v -4.464533 4.460293 -6.285953
v -4.464533 5.081454 -4.948466
v -1.616508 3.590128 -4.255859
v -3.430600 1.008167 -4.682703
v -5.544480 3.293010 -5.743838
v -5.544479 3.914170 -4.406352
v -3.430599 1.629328 -3.345217
v -5.874716 -0.271654 -4.088323
v -6.999487 2.531118 -5.389997
v -6.999486 3.152279 -4.052512
v -5.874715 0.349506 -2.750836
v -8.654062 -0.716130 -3.881897
v -8.654059 2.266518 -5.267110
v -8.654059 2.887678 -3.929624
v -8.654061 -0.094970 -2.544411
v -11.433409 -0.271650 -4.088324
v -10.308632 2.531121 -5.389999
v -10.308632 3.152282 -4.052512
v -11.433407 0.349511 -2.750837
v -13.877522 1.008174 -4.682704
v -11.763638 3.293013 -5.743838
v -11.763638 3.914174 -4.406353
v -13.877522 1.629335 -3.345218
v -15.691608 2.968977 -5.593349
v -12.843581 4.460299 -6.285955
v -12.843581 5.081460 -4.948468
v -15.691608 3.590138 -4.255862
v -16.656864 5.374258 -6.710418
v -13.418208 5.892187 -6.950958
v -13.418209 6.513348 -5.613471
v -16.656864 5.995419 -5.372932
v -16.656862 7.933903 -7.899179
v -13.418209 7.415968 -7.658639
v -13.418206 8.037130 -6.321152
v -16.656862 8.555063 -6.561693
v -15.691602 10.339181 -9.016249
v -12.843578 8.847856 -8.323641
v -12.843576 9.469017 -6.986156
v -15.691602 10.960343 -7.678762
v -13.877513 12.299982 -9.926891
v -11.763632 10.015140 -8.865757
v -11.763632 10.636299 -7.528270
v -13.877513 12.921144 -8.589405
v -11.433396 13.579803 -10.521273
v -10.308625 10.777030 -9.219597
v -10.308624 11.398189 -7.882110
v -11.433396 14.200963 -9.183786
vn -0.0328 -0.3862 0.9218
vn 0.0328 0.3862 -0.9218
vn 0.0328 0.3862 -0.9219
vn -0.0000 -0.4212 -0.9070
vn -0.0000 0.4212 0.9070
vt 0.500237 0.004584
vt 0.624864 0.004584
vt 0.519231 0.206584
vt 0.603687 0.206584
s 0
usemtl OBJECT01.01_-_Default
f 267/13/167 265/14/167 266/15/167
f 266/15/167 265/14/167 268/16/167
f 266/15/167 273/16/167 267/13/167
f 267/13/167 273/16/167 274/14/167
f 273/16/167 277/15/167 274/14/167
f 274/14/167 277/15/167 278/13/167
f 277/15/167 281/16/167 278/13/167
f 278/13/167 281/16/167 282/14/167
f 281/16/167 285/15/167 282/14/167
f 282/14/167 285/15/167 286/13/167
f 285/15/167 289/16/167 286/13/167
f 286/13/167 289/16/167 290/14/167
f 289/16/167 293/15/167 290/14/167
f 290/14/167 293/15/167 294/13/167
f 293/15/167 297/16/167 294/13/167
f 294/13/167 297/16/167 298/14/167
f 297/16/167 301/15/167 298/14/167
f 298/14/167 301/15/167 302/13/167
f 301/15/167 305/16/167 302/13/167
f 302/13/167 305/16/167 306/14/167
f 305/16/167 309/15/167 306/14/167
f 306/14/167 309/15/167 310/13/167
f 309/15/167 313/16/167 310/13/167
f 310/13/167 313/16/167 314/14/167
f 313/16/167 317/15/167 314/14/167
f 314/14/167 317/15/167 318/13/167
f 317/15/167 321/16/167 318/13/167
f 318/13/167 321/16/167 322/14/167
f 321/16/167 325/15/167 322/14/167
f 322/14/167 325/15/167 326/13/167
f 325/15/167 329/16/167 326/13/167
f 326/13/167 329/16/167 330/14/167
f 329/16/167 333/15/167 330/14/167
f 330/14/167 333/15/167 334/13/167
f 333/15/167 268/16/167 334/13/167
f 334/13/167 268/16/167 265/14/167
f 271/16/168 269/15/168 270/14/168
f 270/14/168 269/15/168 272/13/168
f 270/14/168 275/13/168 271/16/168
f 271/16/168 275/13/168 276/15/168
f 275/13/168 279/14/168 276/15/168
f 276/15/168 279/14/168 280/16/168
f 279/14/168 283/13/168 280/16/168
f 280/16/168 283/13/168 284/15/168
f 283/13/168 287/14/168 284/15/168
f 284/15/168 287/14/168 288/16/168
f 287/14/168 291/13/168 288/16/168
f 288/16/168 291/13/168 292/15/168
f 291/13/169 295/14/169 292/15/169
f 292/15/168 295/14/168 296/16/168
f 295/14/168 299/13/168 296/16/168
f 296/16/168 299/13/168 300/15/168
f 299/13/168 303/14/168 300/15/168
f 300/15/168 303/14/168 304/16/168
f 303/14/168 307/13/168 304/16/168
f 304/16/168 307/13/168 308/15/168
f 307/13/168 311/14/168 308/15/168
f 308/15/169 311/14/169 312/16/169
f 311/14/168 315/13/168 312/16/168
f 312/16/168 315/13/168 316/15/168
f 315/13/168 319/14/168 316/15/168
f 316/15/168 319/14/168 320/16/168
f 319/14/168 323/13/168 320/16/168
f 320/16/169 323/13/169 324/15/169
f 323/13/168 327/14/168 324/15/168
f 324/15/168 327/14/168 328/16/168
f 327/14/168 331/13/168 328/16/168
f 328/16/168 331/13/168 332/15/168
f 331/13/168 335/14/168 332/15/168
f 332/15/168 335/14/168 336/16/168
f 335/14/168 272/13/168 336/16/168
f 336/16/168 272/13/168 269/15/168
f 339/14/170 337/13/170 338/15/170
f 338/15/170 337/13/170 346/16/170
f 338/15/170 340/16/170 339/14/170
f 339/14/170 340/16/170 405/13/170
f 340/16/170 406/15/170 405/13/170
f 405/13/170 406/15/170 401/14/170
f 406/15/170 402/16/170 401/14/170
f 401/14/170 402/16/170 397/13/170
f 402/16/170 398/15/170 397/13/170
f 397/13/170 398/15/170 393/14/170
f 398/15/170 394/16/170 393/14/170
f 393/14/170 394/16/170 389/13/170
f 394/16/170 390/15/170 389/13/170
f 389/13/170 390/15/170 385/14/170
f 390/15/170 386/16/170 385/14/170
f 385/14/170 386/16/170 381/13/170
f 386/16/170 382/15/170 381/13/170
f 381/13/170 382/15/170 377/14/170
f 382/15/170 378/16/170 377/14/170
f 377/14/170 378/16/170 373/13/170
f 378/16/170 374/15/170 373/13/170
f 373/13/170 374/15/170 369/14/170
f 374/15/170 370/16/170 369/14/170
f 369/14/170 370/16/170 365/13/170
f 370/16/170 366/15/170 365/13/170
f 365/13/170 366/15/170 361/14/170
f 366/15/170 362/16/170 361/14/170
f 361/14/170 362/16/170 357/13/170
f 362/16/170 358/15/170 357/13/170
f 357/13/170 358/15/170 353/14/170
f 358/15/170 354/16/170 353/14/170
f 353/14/170 354/16/170 349/13/170
f 354/16/170 350/15/170 349/13/170
f 349/13/170 350/15/170 345/14/170
f 350/15/170 346/16/170 345/14/170
f 345/14/170 346/16/170 337/13/170
f 343/15/171 341/16/171 342/14/171
f 342/14/171 341/16/171 348/13/171
f 342/14/171 344/13/171 343/15/171
f 343/15/171 344/13/171 407/16/171
f 344/13/171 408/14/171 407/16/171
f 407/16/171 408/14/171 403/15/171
f 408/14/171 404/13/171 403/15/171
f 403/15/171 404/13/171 399/16/171
f 404/13/171 400/14/171 399/16/171
f 399/16/171 400/14/171 395/15/171
f 400/14/171 396/13/171 395/15/171
f 395/15/171 396/13/171 391/16/171
f 396/13/171 392/14/171 391/16/171
f 391/16/171 392/14/171 387/15/171
f 392/14/171 388/13/171 387/15/171
f 387/15/171 388/13/171 383/16/171
f 388/13/171 384/14/171 383/16/171
f 383/16/171 384/14/171 379/15/171
f 384/14/171 380/13/171 379/15/171
f 379/15/171 380/13/171 375/16/171
f 380/13/171 376/14/171 375/16/171
f 375/16/171 376/14/171 371/15/171
f 376/14/171 372/13/171 371/15/171
f 371/15/171 372/13/171 367/16/171
f 372/13/171 368/14/171 367/16/171
f 367/16/171 368/14/171 363/15/171
f 368/14/171 364/13/171 363/15/171
f 363/15/171 364/13/171 359/16/171
f 364/13/171 360/14/171 359/16/171
f 359/16/171 360/14/171 355/15/171
f 360/14/171 356/13/171 355/15/171
f 355/15/171 356/13/171 351/16/171
f 356/13/171 352/14/171 351/16/171
f 351/16/171 352/14/171 347/15/171
f 352/14/171 348/13/171 347/15/171
f 347/15/171 348/13/171 341/16/171
o ammos
v -18.052359 1.537123 8.953714
v -14.802416 0.726407 8.953719
v -18.081118 6.203987 8.953718
v -18.081118 6.203987 8.953718
v -14.802416 0.726407 8.953719
v -11.348461 6.253616 8.953729
v -14.859937 7.121942 8.953724
v -14.802416 0.726407 8.953719
v -11.319702 1.529140 8.953724
v -11.348461 6.253616 8.953729
v -14.802390 0.726424 -8.485142
v -18.052334 1.537140 -8.485147
v -11.319677 1.529156 -8.485137
v -14.859910 7.121958 -8.485137
v -11.348435 6.253633 -8.485132
v -18.052334 1.537140 -8.485147
v -18.081093 6.204003 -8.485143
v -14.859910 7.121958 -8.485137
v -11.348461 6.253616 8.953729
v -11.319702 1.529140 8.953724
v -11.319677 1.529156 -8.485137
v -11.319677 1.529156 -8.485137
v -11.319702 1.529140 8.953724
v -14.802390 0.726424 -8.485142
v -14.802416 0.726407 8.953719
v -18.052334 1.537140 -8.485147
v -18.052359 1.537123 8.953714
v -18.052334 1.537140 -8.485147
v -18.052359 1.537123 8.953714
v -18.081093 6.204003 -8.485143
v -18.081118 6.203987 8.953718
v -18.081093 6.204003 -8.485143
v -18.081118 6.203987 8.953718
v -14.859910 7.121958 -8.485137
v -14.859937 7.121942 8.953724
v -11.348435 6.253633 -8.485132
v -11.348461 6.253616 8.953729
v -11.348435 6.253633 -8.485132
v -11.348461 6.253616 8.953729
v -11.319677 1.529156 -8.485137
vn -0.0000 -0.0000 1.0000
vn -0.0000 -0.0000 -1.0000
vn 0.7855 0.6188 -0.0000
vn 0.5979 -0.8016 -0.0000
vn 0.7844 -0.6203 -0.0000
vn 0.6050 0.7962 -0.0000
vn 1.0000 0.0061 -0.0000
vn 0.7844 -0.6202 -0.0000
vn 0.0708 -0.9975 -0.0000
vn -0.0886 -0.9961 -0.0000
vn -0.0887 -0.9961 -0.0000
vn -0.6062 -0.7953 -0.0000
vn -0.9159 -0.4014 -0.0000
vn -1.0000 -0.0062 -0.0000
vn -0.2741 0.9617 -0.0000
vn -0.1059 0.9944 -0.0000
vn 0.0707 0.9975 -0.0000
vn -0.1058 0.9944 -0.0000
vn 0.0708 0.9975 -0.0000
vn 0.7856 0.6188 -0.0000
vt 0.197272 0.524582
vt 0.155238 0.514011
vt 0.197185 0.583630
vt 0.109109 0.523830
vt 0.109016 0.583607
vt 0.197585 0.524366
vt 0.197605 0.583603
vt 0.155657 0.595016
vt 0.359577 0.023771
vt 0.359577 0.145555
vt 0.587957 0.145555
vt 0.587957 0.023771
vt 0.155348 0.594932
vt 0.155400 0.513836
vt 0.109148 0.523767
vt 0.109164 0.583735
vt 0.913823 0.319039
vt 0.913823 0.019339
vt 0.914598 0.319039
vt 0.914598 0.019339
vt 0.996464 0.319039
vt 0.996464 0.019339
vt 0.587957 0.145125
vt 0.359577 0.145125
vt 0.587957 0.024201
vt 0.359577 0.024201
vt 0.870896 0.320409
vt 0.870896 0.019782
vt 0.931400 0.320409
vt 0.931400 0.019782
vt 0.996742 0.320409
vt 0.996742 0.019782
s 0
usemtl AMMOBOX.07_-_Default
f 409/17/172 410/18/172 411/19/172
f 416/18/172 417/20/172 418/21/172
f 424/22/173 425/23/173 426/24/173
f 427/25/174 428/26/175 429/27/176
f 446/28/177 447/25/174 448/27/178
f 413/18/172 414/21/172 412/19/172
f 412/19/172 414/21/172 415/29/172
f 419/30/173 420/22/173 421/31/173
f 421/31/173 420/22/173 422/24/173
f 421/31/173 422/24/173 423/32/173
f 430/33/179 431/34/175 432/35/180
f 432/35/180 431/34/175 433/36/181
f 432/35/180 433/36/182 434/37/183
f 434/37/183 433/36/182 435/38/184
f 436/39/183 437/40/184 438/41/185
f 438/41/185 437/40/184 439/42/185
f 440/43/186 441/44/186 442/45/187
f 442/45/187 441/44/186 443/46/188
f 442/45/189 443/46/190 444/47/177
f 444/47/177 443/46/190 445/48/191
o turret
v -2.291374 6.494128 9.955531
v -6.878965 1.986817 4.545890
v -2.291374 1.986817 9.955529
v -6.878965 1.986817 4.545890
v -2.291374 6.494128 9.955531
v -10.113735 6.494128 4.545891
v -2.252882 1.986817 -9.975529
v -6.878965 1.986817 -4.565889
v -2.252882 6.494129 -9.975529
v -10.113735 6.494129 -4.565888
v -2.252882 6.494129 -9.975529
v -6.878965 1.986817 -4.565889
v 23.637550 4.621075 4.545891
v 22.403822 5.114878 4.545891
v 23.777363 2.830368 4.545890
v 8.188805 1.986817 9.955529
v 8.188805 6.494128 9.955531
v -2.291374 1.986817 9.955529
v -2.291374 6.494128 9.955531
v 23.777363 2.830368 4.545890
v 22.403822 5.114878 4.545891
v 22.241161 1.986817 4.545891
v 8.188805 6.494128 4.545891
v 8.188805 1.986817 4.545891
v 11.178967 9.495384 3.767394
v 22.232677 1.986817 4.303516
v 19.725925 5.205266 4.303517
v 19.725925 1.986817 6.406618
v 14.947983 1.986817 6.406618
v 12.441233 1.986817 4.303517
v 14.947982 5.205266 4.303517
v 22.403822 5.114878 -4.565892
v 11.178967 9.495385 -3.787393
v 22.403822 5.114878 4.545891
v 11.178967 9.495384 3.767394
v 23.637550 4.621075 4.545891
v 23.637550 4.621075 -4.565892
v 22.403822 5.114878 4.545891
v 22.403822 5.114878 -4.565892
v 23.777363 2.830368 4.545890
v 23.777363 2.830368 -4.565892
v 23.637550 4.621075 4.545891
v 23.637550 4.621075 -4.565892
v 22.241161 1.986817 4.545891
v 22.241161 1.986817 -4.565892
v 23.777363 2.830368 4.545890
v 23.777363 2.830368 -4.565892
v 8.188805 6.494129 -4.565890
v 8.188805 6.494128 4.545891
v 11.178967 9.495385 -3.787393
v 11.178967 9.495384 3.767394
v -6.878965 1.986817 -4.565889
v -6.878965 1.986817 4.545890
v -10.113735 6.494129 -4.565888
v -10.113735 6.494128 4.545891
v 8.188805 1.986817 -9.975529
v -2.252882 1.986817 -9.975529
v 8.188805 6.494129 -9.975529
v -2.252882 6.494129 -9.975529
v 23.637550 4.621075 -4.565892
v 23.777363 2.830368 -4.565892
v 22.403822 5.114878 -4.565892
v 22.241161 1.986817 -4.565892
v 8.188805 1.986817 -4.565890
v 8.188805 6.494129 -4.565890
v 22.241161 1.986817 -4.565892
v 22.403822 5.114878 -4.565892
v 11.178967 9.495385 -3.787393
v 22.232676 1.986817 -4.323517
v 19.725925 1.986817 -6.426619
v 19.725925 5.205266 -4.323517
v 14.947982 1.986817 -6.426618
v 14.947982 5.205266 -4.323517
v 12.441233 1.986817 -4.323517
v 8.188805 6.494128 9.955531
v 8.188805 6.494128 4.545891
v -2.291374 6.494128 9.955531
v -10.113735 6.494128 4.545891
v 8.188805 6.494129 -4.565890
v -10.113735 6.494129 -4.565888
v -2.252882 6.494129 -9.975529
v 8.188805 6.494129 -9.975529
v 8.188805 6.494128 4.545891
v 8.188805 6.494128 9.955531
v 8.188805 1.986817 4.545891
v 8.188805 1.986817 9.955529
v 8.188805 1.986817 -9.975529
v 8.188805 6.494129 -9.975529
v 8.188805 1.986817 -4.565890
v 8.188805 6.494129 -4.565890
v 17.761377 1.427408 3.046739
v 17.761377 3.861888 2.038344
v 17.761377 0.419014 5.481218
v 17.761377 0.419014 5.481218
v 17.761377 3.861888 2.038344
v 17.761377 3.861888 8.924092
v 17.761377 1.427409 7.915698
v 17.761377 6.296368 7.915698
v 17.761377 3.861888 8.924092
v 17.761377 7.304762 5.481218
v 17.761377 6.296368 3.046738
v 3.874353 7.041050 8.660380
v -0.747276 6.110197 7.729527
v 3.874353 3.861888 9.977232
v -0.747276 3.861888 8.660806
v 3.874353 0.682726 8.660380
v 3.874353 0.682726 8.660380
v -0.747276 3.861888 8.660806
v -0.747276 1.613580 7.729527
v 3.874353 -0.634126 5.481218
v -0.747276 0.682299 5.481218
v 3.874353 0.682726 2.302056
v -0.747276 1.613579 3.232909
v 3.874353 3.861888 0.985204
v -0.747276 3.861888 2.301629
v 3.874353 7.041050 2.302056
v -0.747276 6.110197 3.232909
v 3.874353 8.357902 5.481217
v -0.747276 7.041476 5.481218
v 3.874353 7.041050 8.660380
v -0.747276 6.110197 7.729527
v 3.874353 7.041050 2.302056
v -0.747276 6.110197 3.232909
v 3.874353 8.357902 5.481217
v -0.747276 7.041476 5.481218
v 14.964075 3.861888 9.977232
v 17.761377 3.861888 8.924092
v 14.964075 7.041050 8.660380
v 17.761377 6.296368 7.915698
v 14.964075 0.682726 8.660380
v 17.761377 1.427409 7.915698
v 14.964075 3.861888 9.977232
v 14.964075 3.861888 9.977232
v 17.761377 1.427409 7.915698
v 17.761377 3.861888 8.924092
v 17.761377 1.427409 7.915698
v 14.964075 0.682726 8.660380
v 17.761377 0.419014 5.481218
v 14.964075 -0.634126 5.481218
v 17.761377 1.427408 3.046739
v 14.964075 0.682726 2.302056
v 17.761377 3.861888 2.038344
v 14.964075 3.861888 0.985204
v 17.761377 6.296368 3.046738
v 14.964075 7.041050 2.302056
v 14.964075 8.357902 5.481217
v 17.761377 7.304762 5.481218
v 14.964075 7.041050 2.302056
v 17.761377 6.296368 3.046738
v 14.964075 7.041050 8.660380
v 17.761377 6.296368 7.915698
v 14.964075 8.357902 5.481217
v 17.761377 7.304762 5.481218
v 14.964075 3.861888 9.977232
v 14.964075 7.041050 8.660380
v 3.874353 7.041050 8.660380
v 3.874353 8.357902 5.481217
v 14.964075 8.357902 5.481217
v 3.874353 7.041050 2.302056
v 14.964075 7.041050 2.302056
v 3.874353 3.861888 0.985204
v 14.964075 3.861888 0.985204
v 3.874353 0.682726 2.302056
v 14.964075 0.682726 2.302056
v 3.874353 -0.634126 5.481218
v 14.964075 -0.634126 5.481218
v 3.874353 0.682726 8.660380
v 14.964075 0.682726 8.660380
v 3.874353 3.861888 9.977232
v -0.747276 3.861888 8.660806
v -0.747276 6.110197 7.729527
v -11.349947 6.110197 7.729527
v -11.349947 6.110197 7.729527
v -0.747276 6.110197 7.729527
v -15.027933 7.041476 5.481218
v -0.747276 7.041476 5.481218
v -15.027933 7.041476 5.481218
v -0.747276 7.041476 5.481218
v -11.349947 6.110196 3.232908
v -0.747276 6.110197 3.232909
v -11.349947 6.110196 3.232908
v -0.747276 6.110197 3.232909
v -11.349947 3.861888 2.301629
v -0.747276 3.861888 2.301629
v -11.349947 1.613578 3.232909
v -0.747276 1.613579 3.232909
v -15.027933 0.682299 5.481218
v -0.747276 0.682299 5.481218
v -11.349947 1.613580 7.729528
v -0.747276 1.613580 7.729527
v -11.349947 3.861888 8.660806
v 17.761377 1.427409 -2.846227
v 17.761377 0.419015 -5.280707
v 17.761377 3.861889 -1.837832
v 17.761377 3.861889 -1.837832
v 17.761377 0.419015 -5.280707
v 17.761377 3.861889 -8.723581
v 17.761377 7.304763 -5.280706
v 17.761377 7.304763 -5.280706
v 17.761377 3.861889 -8.723581
v 17.761377 6.296369 -7.715186
v 17.761377 1.427410 -7.715187
v 17.761377 6.296368 -2.846227
v 3.874353 7.041051 -8.459869
v 3.874353 3.861889 -9.776721
v -0.747276 6.110197 -7.529015
v -0.747276 3.861889 -8.460296
v 3.874353 0.682727 -8.459869
v -0.747276 3.861889 -8.460296
v 3.874353 0.682727 -8.459869
v -0.747276 1.613581 -7.529016
v 3.874353 -0.634125 -5.280707
v -0.747276 0.682300 -5.280707
v 3.874353 0.682727 -2.101544
v -0.747276 1.613580 -3.032398
v 3.874353 3.861889 -0.784693
v -0.747276 3.861889 -2.101118
v -0.747276 6.110197 -3.032398
v 3.874353 7.041051 -2.101544
v 3.874353 8.357903 -5.280706
v 3.874353 7.041051 -8.459869
v -0.747276 7.041478 -5.280706
v -0.747276 6.110197 -7.529015
v 3.874353 7.041051 -2.101544
v 3.874353 8.357903 -5.280706
v -0.747276 6.110197 -3.032398
v -0.747276 7.041478 -5.280706
v 14.964075 3.861889 -9.776721
v 14.964075 7.041051 -8.459869
v 17.761377 3.861889 -8.723581
v 17.761377 6.296369 -7.715186
v 14.964075 0.682727 -8.459869
v 14.964075 3.861889 -9.776721
v 17.761377 1.427410 -7.715187
v 17.761377 1.427410 -7.715187
v 14.964075 3.861889 -9.776721
v 17.761377 3.861889 -8.723581
v 17.761377 1.427410 -7.715187
v 17.761377 0.419015 -5.280707
v 14.964075 0.682727 -8.459869
v 14.964075 -0.634125 -5.280707
v 17.761377 1.427409 -2.846227
v 14.964075 0.682727 -2.101544
v 17.761377 3.861889 -1.837832
v 14.964075 3.861889 -0.784693
v 14.964075 7.041051 -2.101544
v 17.761377 6.296368 -2.846227
v 14.964075 8.357903 -5.280706
v 14.964075 7.041051 -2.101544
v 17.761377 7.304763 -5.280706
v 17.761377 6.296368 -2.846227
v 14.964075 7.041051 -8.459869
v 14.964075 8.357903 -5.280706
v 17.761377 6.296369 -7.715186
v 17.761377 7.304763 -5.280706
v 14.964075 3.861889 -9.776721
v 3.874353 7.041051 -8.459869
v 14.964075 7.041051 -8.459869
v 3.874353 8.357903 -5.280706
v 14.964075 8.357903 -5.280706
v 3.874353 7.041051 -2.101544
v 14.964075 7.041051 -2.101544
v 3.874353 3.861889 -0.784693
v 14.964075 3.861889 -0.784693
v 3.874353 0.682727 -2.101544
v 14.964075 0.682727 -2.101544
v 3.874353 -0.634125 -5.280707
v 14.964075 -0.634125 -5.280707
v 3.874353 0.682727 -8.459869
v 14.964075 0.682727 -8.459869
v 3.874353 3.861889 -9.776721
v -0.747276 3.861889 -8.460296
v -11.349947 6.110197 -7.529015
v -0.747276 6.110197 -7.529015
v -0.747276 6.110197 -7.529015
v -11.349947 6.110197 -7.529015
v -15.027933 7.041478 -5.280706
v -0.747276 7.041478 -5.280706
v -0.747276 7.041478 -5.280706
v -15.027933 7.041478 -5.280706
v -11.349947 6.110197 -3.032397
v -0.747276 6.110197 -3.032398
v -0.747276 6.110197 -3.032398
v -11.349947 6.110197 -3.032397
v -11.349947 3.861889 -2.101118
v -0.747276 3.861889 -2.101118
v -11.349947 1.613579 -3.032398
v -0.747276 1.613580 -3.032398
v -15.027933 0.682300 -5.280707
v -0.747276 0.682300 -5.280707
v -11.349947 1.613581 -7.529017
v -0.747276 1.613581 -7.529016
v -11.349947 3.861889 -8.460296
v -5.511562 6.086280 5.527211
v 2.293167 6.086280 5.527211
v -5.511562 5.498686 6.945786
v -5.511562 5.498686 6.945786
v 2.293167 6.086280 5.527211
v 2.293167 5.498686 6.945786
v 2.293167 7.019870 7.575882
v 2.293167 7.607464 6.157306
v -5.511562 7.019870 7.575882
v -5.511562 7.019870 7.575882
v 2.293167 7.607464 6.157306
v -5.511562 7.607464 6.157306
v 2.293167 5.498686 6.945786
v 2.293167 7.019870 7.575882
v -5.511562 5.498686 6.945786
v -5.511562 7.019870 7.575882
v 2.293167 6.086280 5.527211
v 2.293167 7.607464 6.157306
v 2.293167 5.498686 6.945786
v 2.293167 5.498686 6.945786
v 2.293167 7.607464 6.157306
v 2.293167 7.019870 7.575882
v -5.511562 6.086280 5.527211
v -5.511562 7.607464 6.157306
v 2.293167 6.086280 5.527211
v 2.293167 7.607464 6.157306
v -5.511562 5.498686 6.945786
v -5.511562 7.019870 7.575882
v -5.511562 6.086280 5.527211
v -5.511562 7.607464 6.157306
v -5.511564 6.086280 -5.326511
v -5.511564 5.498686 -6.745088
v 2.293168 6.086280 -5.326511
v 2.293168 6.086280 -5.326511
v -5.511564 5.498686 -6.745088
v 2.293168 5.498686 -6.745088
v 2.293168 7.019871 -7.375184
v -5.511564 7.019871 -7.375184
v 2.293168 7.607465 -5.956606
v 2.293168 7.607465 -5.956606
v -5.511564 7.019871 -7.375184
v -5.511564 7.607465 -5.956606
v 2.293168 5.498686 -6.745088
v -5.511564 5.498686 -6.745088
v 2.293168 7.019871 -7.375184
v -5.511564 7.019871 -7.375184
v 2.293168 6.086280 -5.326511
v 2.293168 5.498686 -6.745088
v 2.293168 7.607465 -5.956606
v 2.293168 7.607465 -5.956606
v 2.293168 5.498686 -6.745088
v 2.293168 7.019871 -7.375184
v -5.511564 6.086280 -5.326511
v 2.293168 6.086280 -5.326511
v -5.511564 7.607465 -5.956606
v 2.293168 7.607465 -5.956606
v -5.511564 5.498686 -6.745088
v -5.511564 6.086280 -5.326511
v -5.511564 7.019871 -7.375184
v -5.511564 7.607465 -5.956606
vn -0.7627 -0.0000 0.6468
vn -0.5266 -0.3779 0.7615
vn -0.7600 -0.0000 -0.6499
vn -0.5251 -0.3769 -0.7630
vn -0.0000 -0.0000 1.0000
vn 1.0000 -0.0000 -0.0000
vn 0.3285 -0.3614 0.8726
vn 0.3285 -0.3614 -0.8726
vn -0.0000 -0.9239 -0.3827
vn -0.0000 0.9239 0.3827
vn -0.0000 -0.9239 0.3827
vn -0.0000 0.9239 -0.3827
vn 0.0075 0.0772 0.9970
vn 0.0223 0.2301 0.9729
vn 0.5747 0.4476 0.6850
vn 0.1999 0.5360 0.8202
vn 0.3014 0.5216 0.7982
vn 0.3013 0.5216 0.7982
vn 0.1998 0.5360 0.8202
vn -0.1998 0.5360 0.8202
vn -0.5747 0.4476 0.6850
vn -0.1999 0.5360 0.8202
vn -0.3014 0.5216 0.7982
vn -0.3013 0.5216 0.7982
vn 0.3635 0.9316 -0.0000
vn 0.3716 0.9284 -0.0000
vn 0.9970 0.0778 -0.0000
vn 0.4813 -0.8765 -0.0000
vn -0.7084 0.7058 -0.0000
vn -0.8124 -0.5831 -0.0000
vn -0.0000 -0.0000 -1.0000
vn 0.0075 0.0772 -0.9970
vn 0.0112 0.1158 -0.9932
vn 0.0223 0.2301 -0.9729
vn 0.0113 0.1159 -0.9932
vn 0.5747 0.4476 -0.6850
vn 0.3014 0.5216 -0.7982
vn 0.1999 0.5360 -0.8202
vn 0.1998 0.5360 -0.8202
vn 0.3013 0.5216 -0.7982
vn -0.1998 0.5360 -0.8202
vn -0.3013 0.5216 -0.7982
vn -0.3014 0.5216 -0.7982
vn -0.1999 0.5360 -0.8202
vn -0.5747 0.4476 -0.6850
vn -0.0000 1.0000 -0.0000
vn -0.2545 0.3701 0.8935
vn -0.2715 0.1317 0.9534
vn -0.2716 0.1317 0.9534
vn -0.2739 0.0001 0.9617
vn -0.2716 0.1316 0.9534
vn -0.2740 -0.0000 0.9617
vn -0.2545 -0.3701 0.8935
vn -0.2715 -0.7672 0.5811
vn -0.2739 -0.6800 0.6801
vn -0.2740 -0.6801 0.6800
vn -0.2716 -0.7673 0.5810
vn -0.2715 -0.9534 0.1317
vn -0.2715 -0.7673 0.5810
vn -0.2715 -0.9534 -0.1316
vn -0.2716 -0.9534 0.1317
vn -0.2716 -0.9534 0.1316
vn -0.2716 -0.9534 -0.1317
vn -0.2715 -0.7673 -0.5810
vn -0.2715 -0.9534 -0.1317
vn -0.2715 -0.5811 -0.7672
vn -0.2716 -0.7673 -0.5810
vn -0.2716 -0.7672 -0.5811
vn -0.2716 -0.5810 -0.7673
vn -0.2715 -0.1317 -0.9534
vn -0.2715 -0.5810 -0.7673
vn -0.2715 0.1316 -0.9534
vn -0.2716 -0.1317 -0.9534
vn -0.2716 -0.1316 -0.9534
vn -0.2716 0.1317 -0.9534
vn -0.2545 0.3701 -0.8935
vn -0.2715 0.1317 -0.9534
vn -0.2545 0.8935 0.3701
vn -0.2545 0.8935 -0.3701
vn 0.3285 0.3614 0.8726
vn 0.3285 -0.8726 0.3614
vn 0.3494 -0.9282 0.1282
vn 0.3494 -0.9281 0.1282
vn 0.3494 -0.9282 -0.1282
vn 0.3494 -0.7469 -0.5657
vn 0.3494 -0.5657 -0.7469
vn 0.3494 -0.1282 -0.9282
vn 0.3494 -0.1282 -0.9281
vn 0.3494 0.1282 -0.9282
vn 0.3285 0.3614 -0.8726
vn 0.3285 0.8726 -0.3614
vn 0.3285 0.8726 0.3614
vn -0.0000 0.7972 0.6037
vn -0.0000 0.6037 0.7972
vn -0.0000 0.1368 0.9906
vn -0.0000 -0.1368 0.9906
vn -0.0000 -0.6037 0.7972
vn -0.0000 -0.7972 0.6037
vn -0.0000 -0.9906 0.1368
vn -0.0000 -0.9906 -0.1368
vn -0.0000 -0.7972 -0.6037
vn -0.0000 -0.6037 -0.7972
vn -0.0000 -0.1368 -0.9906
vn 0.0001 -0.6037 -0.7972
vn -0.0000 0.1368 -0.9906
vn -0.0000 0.6037 -0.7972
vn -0.0000 0.7972 -0.6037
vn -0.2739 0.0001 -0.9618
vn -0.2716 0.1316 -0.9534
vn -0.2545 -0.3701 -0.8935
vn -0.2739 -0.0000 -0.9617
vn -0.2739 -0.6800 -0.6801
vn -0.2715 -0.7672 -0.5811
vn -0.2739 -0.6801 -0.6800
vn -0.2715 -0.9534 0.1316
vn -0.2716 -0.9534 -0.1316
vn -0.2715 -0.5811 0.7672
vn -0.2716 -0.5810 0.7673
vn -0.2716 -0.7672 0.5811
vn -0.2715 -0.1317 0.9534
vn -0.2715 -0.5810 0.7673
vn -0.2715 0.1316 0.9534
vn -0.2716 -0.1316 0.9534
vn 0.3285 -0.8726 -0.3614
vn 0.3494 -0.7470 0.5657
vn 0.3494 -0.7469 0.5657
vn 0.3494 -0.5657 0.7469
vn 0.3494 -0.1282 0.9282
vn 0.3494 0.1282 0.9282
vn 0.3494 0.1282 0.9281
vn 0.0002 -0.1368 -0.9906
vn -0.0002 0.1368 -0.9906
vn 0.0002 -0.6037 -0.7972
vn -0.0000 -0.3827 0.9239
vn -0.0000 0.3827 -0.9239
vn -1.0000 -0.0000 -0.0000
vn -0.0000 -0.3827 -0.9239
vn -0.0000 0.3827 0.9239
vn -0.0000 0.9906 0.1368
vn -0.0000 0.9906 -0.1368
vn 0.0001 0.7972 -0.6037
vn -0.0001 0.6037 -0.7972
vn 0.0002 0.6037 -0.7972
vn -0.0002 0.9906 0.1368
vt 0.480469 0.640625
vt 0.593750 0.558594
vt 0.480469 0.558594
vt 0.593750 0.640625
vt 0.492188 1.000000
vt 0.503906 0.933594
vt 0.457031 1.000000
vt 0.066564 0.548668
vt 0.088075 0.557578
vt 0.057653 0.527156
vt 0.118498 0.527156
vt 0.109587 0.548668
vt 0.088075 0.496734
vt 0.109587 0.505644
vt 0.300911 0.293053
vt 0.301225 0.213619
vt 0.401864 0.293053
vt 0.401550 0.213619
vt 0.066564 0.505644
vt 0.280581 0.606668
vt 0.188018 0.606668
vt 0.280581 0.514105
vt 0.188018 0.514105
vt 0.839844 0.457031
vt 0.839844 0.535156
vt 1.000000 0.457031
vt 1.000000 0.535156
vt 0.437500 0.972656
vt 0.531250 0.640625
vt 0.437500 0.640625
vt 0.593750 0.703125
vt -0.007812 0.882812
vt 0.062500 0.976562
vt 0.062500 0.882812
vt 0.203125 0.882812
vt 0.273438 0.882812
vt 0.203125 0.976562
vt 0.000000 0.882812
vt 0.375000 0.863281
vt 0.000000 0.667969
vt 0.375000 0.687500
vt 0.617188 0.457031
vt 0.429688 0.457031
vt 0.617188 0.531250
vt 0.429688 0.531250
vt 0.562500 0.019531
vt 0.562500 0.191406
vt 0.519531 0.019531
vt 0.519531 0.191406
vt 0.605469 0.019531
vt 0.605469 0.191406
vt 0.843750 0.457031
vt 0.617188 0.535156
vt 0.843750 0.535156
vt 1.000000 0.558594
vt 1.000000 0.679688
vt 0.761719 0.558594
vt 0.593750 0.679688
vt 1.000000 0.882812
vt 0.593750 0.882812
vt 0.761719 1.000000
vt 1.000000 1.000000
vt 0.730469 0.535156
vt 0.617188 0.453125
vt 0.730469 0.453125
vt 0.810582 0.107952
vt 0.794176 0.107952
vt 0.794171 0.068334
vt 0.782571 0.079934
vt 0.754552 0.051923
vt 0.754552 0.068328
vt 0.714934 0.068334
vt 0.726534 0.079934
vt 0.698523 0.107952
vt 0.714928 0.107952
vt 0.714934 0.147571
vt 0.726534 0.135971
vt 0.754552 0.163982
vt 0.754552 0.147576
vt 0.868274 0.067367
vt 0.851982 0.178656
vt 0.756985 0.067367
vt 0.773278 0.178656
vt 0.864045 0.071941
vt 0.849092 0.174082
vt 0.761904 0.071941
vt 0.776857 0.174082
vt 0.236334 0.293780
vt 0.236234 0.214272
vt 0.301214 0.293780
vt 0.301314 0.214272
vt 0.891774 0.816564
vt 0.887711 0.827007
vt 0.871522 0.797174
vt 0.861265 0.801686
vt 0.870913 0.769143
vt 0.860470 0.765081
vt 0.890303 0.748891
vt 0.885791 0.738634
vt 0.918334 0.748282
vt 0.922396 0.737839
vt 0.157911 0.293648
vt 0.157339 0.215176
vt 0.236459 0.293648
vt 0.236273 0.214716
vt 0.059267 0.293723
vt 0.059647 0.215729
vt 0.157700 0.293723
vt 0.157320 0.215729
vt 0.990375 0.451360
vt 0.668778 0.451360
vt 0.988982 0.426386
vt 0.667386 0.426386
vt 0.989327 0.395641
vt 0.667730 0.395641
vt 0.991206 0.377137
vt 0.650269 0.377137
vt 0.993519 0.381711
vt 0.671923 0.381711
vt 0.994911 0.406686
vt 0.673315 0.406686
vt 0.994567 0.437430
vt 0.672971 0.437430
vt -0.884568 0.296708
vt -0.578890 0.296708
vt -1.000936 0.217840
vt -0.578612 0.217840
vt -0.884013 0.296708
vt -0.578335 0.296708
vt -0.882617 0.296708
vt -0.998419 0.217840
vt -0.579072 0.296708
vt -0.578970 0.217840
vt -0.882411 0.296708
vt -0.578867 0.296708
vt 0.995152 0.038051
vt 0.995152 0.110628
vt 0.488423 0.110628
vt 0.488423 0.183205
vt 0.995152 0.183205
vt 0.488423 0.213268
vt 0.995152 0.213268
vt 0.488423 0.038051
vt 0.488423 0.007988
vt 0.995152 0.007988
s 0
usemtl TURRET01.01_-_Default
f 449/49/192 450/50/192 451/51/192
f 452/50/193 453/49/193 454/52/193
f 455/51/194 456/50/194 457/49/194
f 458/52/195 459/49/195 460/50/195
f 461/53/196 462/54/196 463/55/196
f 539/56/197 540/57/197 541/58/197
f 548/59/197 543/57/197 549/60/197
f 540/57/197 548/59/197 547/61/197
f 547/61/197 548/59/197 546/62/197
f 578/63/198 579/64/198 580/65/198
f 581/65/198 582/64/198 583/66/198
f 640/56/197 641/58/197 642/57/197
f 648/61/197 641/58/197 650/67/197
f 647/59/197 648/61/197 649/62/197
f 647/59/197 651/60/197 643/57/197
f 680/63/199 681/65/199 682/64/199
f 683/64/199 684/65/199 685/66/199
f 742/68/200 743/69/200 744/70/200
f 745/70/200 746/69/200 747/71/200
f 748/70/201 749/68/201 750/71/201
f 751/71/201 752/68/201 753/69/201
f 758/70/197 759/68/197 760/71/197
f 761/71/197 762/68/197 763/69/197
f 772/68/202 773/70/202 774/69/202
f 775/69/202 776/70/202 777/71/202
f 778/70/203 779/71/203 780/68/203
f 781/68/203 782/71/203 783/69/203
f 788/70/197 789/71/197 790/68/197
f 791/68/197 792/71/197 793/69/197
f 644/58/197 645/61/197 643/57/197
f 643/57/197 645/61/197 646/59/197
f 543/57/197 544/61/197 542/58/197
f 542/58/197 544/61/197 545/67/197
f 464/72/196 465/73/196 466/74/196
f 466/74/196 465/73/196 467/75/196
f 468/55/196 469/54/204 470/76/196
f 470/76/196 469/54/204 471/77/204
f 470/76/196 471/77/204 472/78/196
f 471/77/204 469/54/204 473/79/205
f 474/80/206 475/81/207 476/82/208
f 476/82/209 475/81/210 477/83/211
f 478/84/212 477/83/213 479/85/214
f 479/85/215 477/83/211 475/81/210
f 480/86/216 481/87/216 482/88/216
f 482/88/216 481/87/216 483/89/216
f 484/90/217 485/91/217 486/92/217
f 486/92/217 485/91/217 487/93/217
f 488/94/218 489/95/218 490/96/218
f 490/96/218 489/95/218 491/97/218
f 492/98/219 493/99/219 494/94/219
f 494/94/219 493/99/219 495/95/219
f 496/93/220 497/92/220 498/91/220
f 498/91/220 497/92/220 499/90/220
f 500/90/221 501/100/221 502/101/221
f 502/101/221 501/100/221 503/102/221
f 504/72/222 505/74/222 506/73/222
f 506/73/222 505/74/222 507/75/222
f 508/53/222 509/55/222 510/54/222
f 510/54/222 509/55/222 511/76/222
f 512/78/222 513/77/223 514/76/222
f 514/76/222 513/77/223 515/54/224
f 516/79/225 515/54/226 513/77/223
f 517/80/227 518/82/228 519/81/229
f 519/81/230 518/82/231 520/83/232
f 519/81/230 520/83/232 521/85/233
f 521/85/234 520/83/235 522/84/236
f 523/103/237 524/104/237 525/105/237
f 525/105/237 524/104/237 526/106/237
f 524/104/237 527/107/237 526/106/237
f 526/106/237 527/107/237 528/108/237
f 529/109/237 528/108/237 530/110/237
f 530/110/237 528/108/237 527/107/237
f 531/101/197 532/111/197 533/112/197
f 533/112/197 532/111/197 534/113/197
f 535/113/197 536/111/197 537/112/197
f 537/112/197 536/111/197 538/101/197
f 550/114/238 551/115/238 552/116/239
f 552/116/240 551/115/238 553/117/241
f 552/116/242 553/117/243 554/118/244
f 556/117/244 557/119/245 555/118/246
f 555/118/247 557/119/248 558/120/249
f 557/119/250 559/121/251 558/120/252
f 558/120/253 559/121/254 560/122/255
f 559/121/256 561/123/257 560/122/258
f 560/122/259 561/123/260 562/124/261
f 561/123/262 563/125/263 562/124/264
f 562/124/265 563/125/266 564/126/267
f 564/126/267 563/125/268 565/127/267
f 566/128/269 567/129/269 568/130/269
f 568/130/269 567/129/269 569/131/269
f 570/132/270 571/133/270 572/134/270
f 572/134/270 571/133/270 573/135/270
f 574/136/271 575/137/271 576/138/271
f 576/138/271 575/137/271 577/139/271
f 584/140/272 585/141/272 586/142/273
f 586/142/274 585/141/272 587/143/275
f 586/142/273 587/143/275 588/144/276
f 588/144/276 587/143/275 589/145/277
f 588/144/276 589/145/277 590/146/278
f 590/146/279 589/145/277 591/147/280
f 590/146/278 591/147/280 592/148/281
f 592/148/281 591/147/280 593/149/281
f 594/150/282 595/151/282 596/152/282
f 596/152/282 595/151/282 597/153/282
f 598/154/283 599/155/283 600/156/283
f 600/156/283 599/155/283 601/157/283
f 619/158/284 620/159/285 618/160/286
f 618/160/286 620/159/285 639/161/287
f 618/160/286 639/161/287 638/162/288
f 638/162/288 639/161/287 637/163/289
f 638/162/288 637/163/289 636/164/290
f 636/164/290 637/163/289 635/165/291
f 636/164/290 635/165/291 634/166/292
f 634/166/292 635/165/291 633/167/293
f 634/166/292 633/167/293 632/168/294
f 632/168/294 633/167/295 631/169/296
f 632/168/294 631/169/296 630/170/297
f 630/170/297 631/169/296 629/171/298
f 621/172/285 622/173/284 623/174/201
f 623/174/201 622/173/284 624/175/201
f 625/174/203 626/175/203 627/176/298
f 627/176/298 626/175/203 628/177/297
f 652/114/267 653/116/268 654/115/267
f 654/115/267 653/116/268 655/117/299
f 653/116/300 656/118/301 655/117/302
f 657/117/301 658/118/303 659/119/304
f 659/119/258 658/118/305 660/120/256
f 659/119/255 660/120/256 661/121/306
f 661/121/252 660/120/307 662/122/250
f 661/121/249 662/122/250 663/123/308
f 663/123/309 662/122/310 664/124/311
f 663/123/312 664/124/311 665/125/313
f 665/125/240 664/124/314 667/126/238
f 665/125/239 667/126/238 666/127/238
f 668/128/270 669/130/270 670/129/270
f 670/129/270 669/130/270 671/131/270
f 672/132/269 673/134/269 674/133/269
f 674/133/269 673/134/269 675/135/269
f 676/136/281 677/138/281 678/137/281
f 678/137/281 677/138/281 679/139/281
f 686/140/315 687/142/275 688/141/315
f 688/141/315 687/142/275 689/143/273
f 687/142/275 690/144/316 689/143/273
f 689/143/274 690/144/317 691/145/318
f 690/144/317 692/146/319 691/145/318
f 691/145/318 692/146/319 693/147/320
f 694/149/271 693/147/321 695/148/271
f 695/148/271 693/147/320 692/146/319
f 696/150/283 697/152/283 698/151/283
f 698/151/283 697/152/283 699/153/283
f 700/154/282 701/156/282 702/155/282
f 702/155/282 701/156/282 703/157/282
f 722/158/298 720/160/296 721/159/297
f 721/159/297 720/160/296 741/161/322
f 720/160/323 740/162/293 741/161/294
f 741/161/294 740/162/293 739/163/292
f 740/162/324 738/164/291 739/163/292
f 739/163/292 738/164/291 737/165/290
f 738/164/291 736/166/289 737/165/290
f 737/165/290 736/166/289 735/167/288
f 736/166/289 734/168/287 735/167/288
f 735/167/288 734/168/287 733/169/286
f 732/171/284 733/169/286 731/170/285
f 731/170/285 733/169/286 734/168/287
f 724/178/297 725/179/203 723/180/298
f 723/180/298 725/179/203 726/181/203
f 728/179/201 729/182/284 727/181/201
f 727/181/201 729/182/284 730/183/285
f 754/70/325 755/68/325 756/71/325
f 756/71/325 755/68/325 757/69/325
f 764/70/326 765/68/326 766/71/326
f 766/71/326 765/68/326 767/69/326
f 768/70/327 769/68/327 770/71/327
f 770/71/327 769/68/327 771/69/327
f 784/70/328 785/71/328 786/68/328
f 786/68/328 785/71/328 787/69/328
f 794/70/329 795/71/329 796/68/329
f 796/68/329 795/71/329 797/69/329
f 798/70/327 799/71/327 800/68/327
f 800/68/327 799/71/327 801/69/327
f 602/184/286 603/185/284 604/186/285
f 604/186/285 603/185/284 605/187/330
f 603/185/284 606/188/331 605/187/330
f 605/187/330 606/188/331 607/189/332
f 606/188/331 608/190/297 607/189/298
f 607/189/298 608/190/297 609/187/296
f 608/190/333 610/188/294 609/187/296
f 609/187/296 610/188/294 611/186/295
f 610/188/294 612/185/292 611/186/293
f 611/186/293 612/185/292 613/191/291
f 612/185/292 614/184/290 613/191/291
f 613/191/291 614/184/290 615/192/289
f 614/184/290 616/193/288 615/192/289
f 615/192/289 616/193/288 617/191/287
f 616/193/288 602/184/286 617/191/287
f 617/191/287 602/184/286 604/186/285
f 706/185/298 704/184/296 705/186/297
f 705/186/297 704/184/296 719/191/294
f 705/186/334 707/187/331 706/185/298
f 706/185/298 707/187/331 708/188/335
f 707/187/331 709/189/284 708/188/330
f 708/188/330 709/189/284 710/190/285
f 709/189/284 711/187/286 710/190/285
f 710/190/285 711/187/286 712/188/287
f 711/187/286 713/186/288 712/188/287
f 712/188/287 713/186/288 714/185/289
f 713/186/288 715/191/290 714/185/289
f 714/185/289 715/191/290 716/184/291
f 715/191/290 717/192/292 716/184/291
f 716/184/291 717/192/292 718/193/293
f 717/192/292 719/191/294 718/193/293
f 718/193/293 719/191/294 704/184/296
