# Blender 5.1.2
# www.blender.org
mtllib v1.mtl
o model1
v 3.446826 3.583595 5.664125
v -0.224457 3.583596 5.664125
v 3.446827 3.621044 9.013389
v -0.224456 3.621044 9.013389
v 3.446826 2.343058 5.680164
v -0.224457 2.343058 5.680165
v -0.224457 3.583596 5.664125
v 3.446826 3.583595 5.664125
v 3.446827 2.380507 9.029427
v 3.446826 2.343058 5.680164
v 3.446826 3.583595 5.664125
v 3.446827 3.621044 9.013389
v -0.224457 2.343058 5.680165
v -0.224456 2.380508 9.029428
v -0.224456 3.621044 9.013389
v -0.224457 3.583596 5.664125
v -0.224456 2.380508 9.029428
v 3.446827 2.380507 9.029427
v 3.446827 3.621044 9.013389
v -0.224456 3.621044 9.013389
v 3.446826 3.583594 -5.684126
v 3.446827 3.621043 -9.033389
v -0.224457 3.583595 -5.684127
v -0.224456 3.621043 -9.033390
v 3.446826 2.343057 -5.700166
v -0.224457 3.583595 -5.684127
v -0.224457 2.343058 -5.700165
v 3.446826 3.583594 -5.684126
v 3.446828 2.380506 -9.049427
v 3.446826 3.583594 -5.684126
v 3.446826 2.343057 -5.700166
v 3.446827 3.621043 -9.033389
v -0.224457 2.343058 -5.700165
v -0.224456 3.621043 -9.033390
v -0.224456 2.380507 -9.049428
v -0.224457 3.583595 -5.684127
v -0.224456 2.380507 -9.049428
v 3.446827 3.621043 -9.033389
v 3.446828 2.380506 -9.049427
v -0.224456 3.621043 -9.033390
vn -0.0000 0.9999 -0.0112
vn -0.8944 -0.0057 -0.4472
vn -0.4472 -0.0116 -0.8944
vn 0.4472 -0.0115 -0.8944
vn 0.8944 -0.0058 -0.4472
vn 0.4473 -0.0115 -0.8943
vn 0.8945 -0.0058 -0.4471
vn 0.8945 0.0058 0.4471
vn 0.4473 0.0115 0.8943
vn -0.4473 0.0116 0.8943
vn -0.8945 0.0058 0.4471
vn -0.8945 -0.0058 -0.4471
vn -0.4473 -0.0116 -0.8943
vn 0.8944 0.0058 0.4472
vn 0.4472 0.0115 0.8944
vn -0.4472 0.0116 0.8944
vn -0.8944 0.0057 0.4472
vn -0.0000 0.9999 0.0112
vn -0.8944 -0.0057 0.4472
vn 0.4472 -0.0116 0.8944
vn -0.4472 -0.0115 0.8944
vn 0.8944 -0.0058 0.4472
vn 0.4473 -0.0115 0.8943
vn 0.8945 0.0057 -0.4471
vn 0.8945 -0.0057 0.4471
vn 0.4473 0.0115 -0.8943
vn -0.4473 0.0116 -0.8943
vn -0.8945 -0.0058 0.4471
vn -0.8945 0.0058 -0.4471
vn -0.4473 -0.0116 0.8943
vn 0.8944 0.0058 -0.4472
vn -0.4472 0.0115 -0.8944
vn 0.4472 0.0115 -0.8944
vn -0.8944 0.0057 -0.4472
vt 0.552038 1.190660
vt 0.759963 1.190660
vt 0.552038 1.409943
vt 0.759963 1.409943
vt 0.556769 0.112175
vt 0.761512 0.112175
vt 0.556769 0.407525
vt 0.761512 0.407525
s 1
usemtl GATTBOXES01.09_-_Default
f 1/1/1 2/2/1 3/3/1
f 3/3/1 2/2/1 4/4/1
f 6/5/2 7/6/3 5/7/4
f 5/7/4 7/6/3 8/8/5
f 10/5/6 11/6/7 9/7/8
f 9/7/8 11/6/7 12/8/9
f 14/5/10 15/6/11 13/7/12
f 13/7/12 15/6/11 16/8/13
f 18/5/14 19/6/15 17/7/16
f 17/7/16 19/6/15 20/8/17
f 21/1/18 22/3/18 23/2/18
f 23/2/18 22/3/18 24/4/18
f 27/5/19 25/7/20 26/6/21
f 26/6/21 25/7/20 28/8/22
f 31/5/23 29/7/24 30/6/25
f 30/6/25 29/7/24 32/8/26
f 35/5/27 33/7/28 34/6/29
f 34/6/29 33/7/28 36/8/30
f 39/5/31 37/7/32 38/6/33
f 38/6/33 37/7/32 40/8/34
o model2
v -8.888336 6.065273 -8.053946
v -4.178553 6.065273 -8.053946
v -4.178553 6.065272 -10.542676
v -8.888336 6.065272 -10.542676
v -9.622986 4.831629 -7.665747
v -3.443904 4.831629 -7.665747
v -4.178553 6.065273 -8.053946
v -8.888336 6.065273 -8.053946
v -3.443904 4.831629 -7.665747
v -3.443904 4.831629 -10.930877
v -4.178553 6.065272 -10.542676
v -4.178553 6.065273 -8.053946
v -3.443904 4.831629 -10.930877
v -9.622986 4.831629 -10.930877
v -8.888336 6.065272 -10.542676
v -4.178553 6.065272 -10.542676
v -9.622986 4.831629 -10.930877
v -9.622986 4.831629 -7.665747
v -8.888336 6.065273 -8.053946
v -8.888336 6.065272 -10.542676
v -16.978672 6.065273 -8.053946
v -12.268888 6.065273 -8.053946
v -12.268888 6.065272 -10.542676
v -16.978672 6.065272 -10.542676
v -17.713320 4.831629 -7.665747
v -11.534239 4.831629 -7.665747
v -12.268888 6.065273 -8.053946
v -16.978672 6.065273 -8.053946
v -11.534239 4.831629 -7.665747
v -11.534239 4.831629 -10.930877
v -12.268888 6.065272 -10.542676
v -12.268888 6.065273 -8.053946
v -11.534239 4.831629 -10.930877
v -17.713320 4.831629 -10.930877
v -16.978672 6.065272 -10.542676
v -12.268888 6.065272 -10.542676
v -17.713320 4.831629 -10.930877
v -17.713320 4.831629 -7.665747
v -16.978672 6.065273 -8.053946
v -16.978672 6.065272 -10.542676
v -8.888336 6.065274 8.033946
v -4.178553 6.065274 10.522676
v -4.178553 6.065274 8.033946
v -8.888336 6.065274 10.522676
v -9.622986 4.831630 7.645744
v -4.178553 6.065274 8.033946
v -3.443904 4.831630 7.645744
v -8.888336 6.065274 8.033946
v -3.443904 4.831630 7.645744
v -4.178553 6.065274 10.522676
v -3.443904 4.831631 10.910876
v -4.178553 6.065274 8.033946
v -3.443904 4.831631 10.910876
v -8.888336 6.065274 10.522676
v -9.622986 4.831631 10.910876
v -4.178553 6.065274 10.522676
v -9.622986 4.831631 10.910876
v -8.888336 6.065274 8.033946
v -9.622986 4.831630 7.645744
v -8.888336 6.065274 10.522676
v -16.978672 6.065274 8.033946
v -12.268888 6.065274 10.522676
v -12.268888 6.065274 8.033946
v -16.978672 6.065274 10.522676
v -17.713320 4.831630 7.645744
v -12.268888 6.065274 8.033946
v -11.534239 4.831630 7.645744
v -16.978672 6.065274 8.033946
v -11.534239 4.831630 7.645744
v -12.268888 6.065274 10.522676
v -11.534239 4.831631 10.910876
v -12.268888 6.065274 8.033946
v -11.534239 4.831631 10.910876
v -16.978672 6.065274 10.522676
v -17.713320 4.831631 10.910876
v -12.268888 6.065274 10.522676
v -17.713320 4.831631 10.910876
v -16.978672 6.065274 8.033946
v -17.713320 4.831630 7.645744
v -16.978672 6.065274 10.522676
vn -0.0000 1.0000 -0.0000
vn -0.0000 0.3002 0.9539
vn 0.8592 0.5117 -0.0000
vn -0.0000 0.3002 -0.9539
vn -0.8592 0.5117 -0.0000
vt 0.244458 0.608984
vt 0.244458 0.740497
vt 0.038012 0.608984
vt 0.038012 0.740497
vt 0.275911 0.626916
vt 0.244006 0.683083
vt 0.005371 0.626916
vt 0.037277 0.683083
vt 0.207910 0.646710
vt 0.191277 0.708232
vt 0.068007 0.646710
vt 0.084641 0.708232
s 1
usemtl HOUSECOLOR02.03_-_Default
f 42/9/35 43/10/35 41/11/35
f 41/11/35 43/10/35 44/12/35
f 46/13/36 47/14/36 45/15/36
f 45/15/36 47/14/36 48/16/36
f 50/17/37 51/18/37 49/19/37
f 49/19/37 51/18/37 52/20/37
f 54/13/38 55/14/38 53/15/38
f 53/15/38 55/14/38 56/16/38
f 58/17/39 59/18/39 57/19/39
f 57/19/39 59/18/39 60/20/39
f 62/9/35 63/10/35 61/11/35
f 61/11/35 63/10/35 64/12/35
f 66/13/36 67/14/36 65/15/36
f 65/15/36 67/14/36 68/16/36
f 70/17/37 71/18/37 69/19/37
f 69/19/37 71/18/37 72/20/37
f 74/13/38 75/14/38 73/15/38
f 73/15/38 75/14/38 76/16/38
f 78/17/39 79/18/39 77/19/39
f 77/19/39 79/18/39 80/20/39
f 83/9/35 81/11/35 82/10/35
f 82/10/35 81/11/35 84/12/35
f 87/13/38 85/15/38 86/14/38
f 86/14/38 85/15/38 88/16/38
f 91/17/37 89/19/37 90/18/37
f 90/18/37 89/19/37 92/20/37
f 95/13/36 93/15/36 94/14/36
f 94/14/36 93/15/36 96/16/36
f 99/17/39 97/19/39 98/18/39
f 98/18/39 97/19/39 100/20/39
f 103/9/35 101/11/35 102/10/35
f 102/10/35 101/11/35 104/12/35
f 107/13/38 105/15/38 106/14/38
f 106/14/38 105/15/38 108/16/38
f 111/17/37 109/19/37 110/18/37
f 110/18/37 109/19/37 112/20/37
f 115/13/36 113/15/36 114/14/36
f 114/14/36 113/15/36 116/16/36
f 119/17/39 117/19/39 118/18/39
f 118/18/39 117/19/39 120/20/39
o model3
v 13.256141 2.523356 7.482921
v 24.574757 1.181903 7.482921
v 22.199007 1.181901 2.341149
v 24.574757 1.181903 7.482921
v 22.199007 1.181901 2.341149
v 13.256141 2.523356 -7.502920
v 22.199007 1.181902 -2.361149
v 24.574757 1.181901 -7.502921
v 24.574757 1.181901 -7.502921
v 22.199007 1.181902 -2.361149
v 15.028591 -3.911895 -6.252405
v 11.062698 4.360635 -6.252405
v -16.873419 4.360634 -6.252407
v 11.062698 4.360636 6.232405
v -16.873419 4.360635 6.232406
v 13.256141 2.523356 -7.502920
v 11.062698 4.360635 -6.252405
v 13.256141 2.523356 7.482921
v 13.256141 2.523356 7.482921
v 11.062698 4.360635 -6.252405
v 11.062698 4.360636 6.232405
v 22.199007 1.181902 -2.361149
v 13.256141 2.523356 -7.502920
v 22.199007 1.181901 2.341149
v 13.256141 2.523356 7.482921
v 15.028591 -3.911895 -6.252405
v 22.199007 1.181902 -2.361149
v 15.028591 -3.911895 6.232406
v 22.199007 1.181901 2.341149
v -17.246195 -3.911893 -6.252405
v 15.028591 -3.911895 -6.252405
v -17.246195 -3.911892 6.232406
v 15.028591 -3.911895 6.232406
v -21.620531 -1.410625 -7.502921
v -17.246195 -3.911893 -6.252405
v -21.620531 -1.410624 7.482921
v -21.620531 -1.410624 7.482921
v -17.246195 -3.911893 -6.252405
v -17.246195 -3.911892 6.232406
v -21.620531 2.523357 -7.502920
v -21.620531 -1.410625 -7.502921
v -21.620531 2.523357 7.482921
v -21.620531 -1.410624 7.482921
v -16.873419 4.360634 -6.252407
v -21.620531 2.523357 -7.502920
v -16.873419 4.360635 6.232406
v -21.620531 2.523357 7.482921
v 13.256141 2.523356 7.482921
v 11.062698 4.360636 6.232405
v -21.620531 2.523357 7.482921
v -16.873419 4.360635 6.232406
v -21.620531 2.523357 7.482921
v -18.957897 2.105343 10.848797
v 13.256141 2.523356 7.482921
v 20.867859 2.105342 10.848796
v 20.867859 2.523357 7.482921
v -17.246195 -3.911892 6.232406
v 15.028591 -3.911895 6.232406
v -21.620531 -1.410624 7.482921
v 24.574757 1.181903 7.482921
v -21.620531 -1.410624 7.482921
v 24.574757 1.181903 7.482921
v -21.620531 2.523357 7.482921
v 13.256141 2.523356 7.482921
v 13.256141 2.523356 -7.502920
v -21.620531 2.523357 -7.502920
v 11.062698 4.360635 -6.252405
v -16.873419 4.360634 -6.252407
v -21.620531 2.523357 -7.502920
v 13.256141 2.523356 -7.502920
v -18.957897 2.105342 -10.868796
v 20.867859 2.105341 -10.868795
v 20.867859 2.523356 -7.502920
v -17.246195 -3.911893 -6.252405
v -21.620531 -1.410625 -7.502921
v 15.028591 -3.911895 -6.252405
v 24.574757 1.181901 -7.502921
v -21.620531 -1.410625 -7.502921
v -21.620531 2.523357 -7.502920
v 24.574757 1.181901 -7.502921
v 13.256141 2.523356 -7.502920
v 22.895035 1.851865 8.080092
v 20.867859 2.523357 7.482921
v 22.895035 1.601179 10.251626
v 20.867859 2.105342 10.848796
v 22.895035 1.601179 -10.271625
v 20.867859 2.105341 -10.868795
v 22.895035 1.851864 -8.100092
v 20.867859 2.523356 -7.502920
v 23.293339 0.986143 11.784019
v 2.995906 0.986146 11.784018
v 23.293339 0.986144 8.198705
v 2.995905 0.986146 8.198702
v -0.679612 0.986143 11.784019
v -20.977045 0.986146 11.784018
v -0.679612 0.986144 8.198705
v -20.977045 0.986146 8.198702
v -0.679612 0.986143 -8.218343
v -20.977045 0.986145 -8.218343
v -0.679612 0.986143 -11.803656
v -20.977045 0.986145 -11.803658
v 23.293339 0.986143 -8.218343
v 2.995906 0.986145 -8.218343
v 23.293339 0.986143 -11.803656
v 2.995905 0.986145 -11.803658
v 2.351609 0.340495 -12.769652
v 26.072144 0.340495 -12.769652
v 2.351609 0.340496 -5.945061
v 26.072144 0.340496 -5.945061
v 22.255487 4.920849 -6.998862
v 22.255487 4.920849 -11.715852
v 6.168267 4.920849 -6.998862
v 6.168267 4.920849 -11.715852
v 26.072144 0.340496 -5.945061
v 22.255487 4.920849 -6.998862
v 2.351609 0.340496 -5.945061
v 6.168267 4.920849 -6.998862
v 26.072144 0.340495 -12.769652
v 22.255487 4.920849 -11.715852
v 26.072144 0.340496 -5.945061
v 22.255487 4.920849 -6.998862
v 2.351609 0.340495 -12.769652
v 6.168267 4.920849 -11.715852
v 26.072144 0.340495 -12.769652
v 22.255487 4.920849 -11.715852
v 2.351609 0.340496 -5.945061
v 6.168267 4.920849 -6.998862
v 2.351609 0.340495 -12.769652
v 6.168267 4.920849 -11.715852
v 1.027718 0.340495 -12.769650
v 1.027718 0.340496 -5.945061
v -22.692816 0.340495 -12.769650
v -22.692816 0.340496 -5.945061
v -18.876160 4.920849 -6.998862
v -2.788939 4.920849 -6.998862
v -18.876160 4.920849 -11.715850
v -2.788939 4.920849 -11.715850
v -22.692816 0.340496 -5.945061
v 1.027718 0.340496 -5.945061
v -18.876160 4.920849 -6.998862
v -2.788939 4.920849 -6.998862
v -22.692816 0.340495 -12.769650
v -22.692816 0.340496 -5.945061
v -18.876160 4.920849 -11.715850
v -18.876160 4.920849 -6.998862
v 1.027718 0.340495 -12.769650
v -22.692816 0.340495 -12.769650
v -2.788939 4.920849 -11.715850
v -18.876160 4.920849 -11.715850
v 1.027718 0.340496 -5.945061
v 1.027718 0.340495 -12.769650
v -2.788939 4.920849 -6.998862
v -2.788939 4.920849 -11.715850
v 2.351609 0.340496 5.961529
v 26.072144 0.340496 5.961529
v 2.351609 0.340496 12.786119
v 26.072144 0.340496 12.786119
v 22.255487 4.920849 11.732318
v 22.255487 4.920848 7.015329
v 6.168267 4.920849 11.732318
v 6.168267 4.920848 7.015329
v 26.072144 0.340496 12.786119
v 22.255487 4.920849 11.732318
v 2.351609 0.340496 12.786119
v 6.168267 4.920849 11.732318
v 26.072144 0.340496 5.961529
v 22.255487 4.920848 7.015329
v 26.072144 0.340496 12.786119
v 22.255487 4.920849 11.732318
v 2.351609 0.340496 5.961529
v 6.168267 4.920848 7.015329
v 26.072144 0.340496 5.961529
v 22.255487 4.920848 7.015329
v 2.351609 0.340496 12.786119
v 6.168267 4.920849 11.732318
v 2.351609 0.340496 5.961529
v 6.168267 4.920848 7.015329
v 1.027718 0.340496 5.961529
v 1.027718 0.340496 12.786119
v -22.692816 0.340496 5.961529
v -22.692816 0.340496 12.786119
v -18.876160 4.920849 11.732318
v -2.788939 4.920849 11.732318
v -18.876160 4.920848 7.015329
v -2.788939 4.920848 7.015329
v -22.692816 0.340496 12.786119
v 1.027718 0.340496 12.786119
v -18.876160 4.920849 11.732318
v -2.788939 4.920849 11.732318
v -22.692816 0.340496 5.961529
v -22.692816 0.340496 12.786119
v -18.876160 4.920848 7.015329
v -18.876160 4.920849 11.732318
v 1.027718 0.340496 5.961529
v -22.692816 0.340496 5.961529
v -2.788939 4.920848 7.015329
v -18.876160 4.920848 7.015329
v 1.027718 0.340496 12.786119
v 1.027718 0.340496 5.961529
v -2.788939 4.920849 11.732318
v -2.788939 4.920848 7.015329
vn 0.1175 0.9916 -0.0543
vn 0.1175 0.9916 0.0543
vn 0.4815 -0.8477 0.2225
vn 0.6421 0.7666 -0.0000
vn -0.4964 -0.8681 -0.0000
vn -0.0000 1.0000 -0.0000
vn 0.1483 0.9889 -0.0000
vn 0.5791 -0.8152 -0.0000
vn -0.0000 -1.0000 -0.0000
vn -1.0000 -0.0000 -0.0000
vn -0.3609 0.9326 -0.0000
vn -0.0000 0.5627 0.8267
vn -0.0000 0.9924 0.1232
vn -0.0000 -0.4472 0.8944
vn 0.0074 -0.3576 0.9338
vn 0.0148 -0.2645 0.9643
vn -0.0000 -0.0000 1.0000
vn -0.0000 0.5627 -0.8267
vn -0.0000 0.9924 -0.1232
vn -0.0000 -0.4472 -0.8944
vn 0.0074 -0.3576 -0.9338
vn 0.0075 -0.3576 -0.9338
vn 0.0148 -0.2645 -0.9643
vn -0.0000 -0.0000 -1.0000
vn 0.2832 0.9527 0.1100
vn 0.2778 0.9538 0.1143
vn 0.2724 0.9548 0.1186
vn 0.2704 0.9564 -0.1104
vn 0.2755 0.9545 -0.1143
vn 0.2755 0.9545 -0.1144
vn 0.2807 0.9525 -0.1183
vn -0.0000 0.2242 0.9745
vn 0.7682 0.6402 -0.0000
vn -0.0000 0.2242 -0.9745
vn -0.7682 0.6402 -0.0000
vt 0.160156 0.667969
vt -0.000000 0.667969
vt 0.031250 0.593750
vt 0.160156 0.453125
vt 0.031250 0.527344
vt -0.000000 0.453125
vt 0.175781 0.597656
vt 0.324219 0.667969
vt 0.398438 0.375000
vt 0.359375 0.453125
vt 0.000000 0.375000
vt 0.039062 0.453125
vt 0.625000 0.000000
vt 0.625000 0.109375
vt 0.878906 0.000000
vt 0.878906 0.109375
vt 0.496094 0.214844
vt 1.000000 0.214844
vt 0.496094 0.000000
vt 1.000000 0.000000
vt 0.324219 0.453125
vt 0.175781 0.523438
vt 0.878906 0.214844
vt 0.625000 0.214844
vt 0.998517 0.001483
vt 0.998517 0.109375
vt 0.625000 0.001483
vt 0.496094 0.195312
vt 0.628906 0.214844
vt 0.496094 0.015625
vt 0.628906 0.000000
vt 0.007812 0.292969
vt 0.070312 0.371094
vt 0.976562 0.292969
vt 0.843750 0.371094
vt 0.996094 0.296875
vt 0.937500 0.214844
vt 0.234375 0.296875
vt 0.062500 0.214844
vt 0.062500 0.296875
vt 0.628906 0.296875
vt 0.835938 0.296875
vt 0.628906 0.324219
vt 0.902344 0.335938
vt 0.628906 0.359375
vt 0.820312 0.359375
vt -0.003906 0.296875
vt -0.003906 0.214844
vt 0.000500 0.000499
vt 0.999500 0.000499
vt 0.000500 0.000500
vt 0.999500 0.000500
vt 0.737162 0.693283
vt 0.737162 0.893513
vt 1.250994 0.693283
vt 1.250994 0.893513
vt 0.253572 0.219278
vt 0.348225 0.291344
vt 0.906296 0.217407
vt 0.790300 0.289474
vt 0.299588 0.450150
vt 0.160473 0.483811
vt 0.299588 0.668147
vt 0.160473 0.634485
vt 0.299587 0.450150
s 1
usemtl CHASSIS.01_-_Default
f 121/21/40 122/22/40 123/23/40
f 126/24/41 127/25/41 128/26/41
f 129/21/42 130/27/42 131/28/42
f 136/29/43 137/30/43 138/31/43
f 139/31/43 140/30/43 141/32/43
f 154/33/44 155/34/44 156/35/44
f 157/35/44 158/34/44 159/36/44
f 132/37/45 133/38/45 134/39/45
f 134/39/45 133/38/45 135/40/45
f 142/25/46 143/24/46 144/23/46
f 144/23/46 143/24/46 145/21/46
f 146/28/47 147/27/47 148/41/47
f 148/41/47 147/27/47 149/42/47
f 150/36/48 151/34/48 152/43/48
f 152/43/48 151/34/48 153/44/48
f 160/45/49 161/46/49 162/47/49
f 162/47/49 161/46/49 163/34/49
f 164/48/50 165/49/50 166/50/50
f 166/50/50 165/49/50 167/51/50
f 168/52/51 169/53/51 170/54/51
f 170/54/51 169/53/51 171/55/51
f 172/56/52 173/57/52 174/58/52
f 174/58/52 173/57/52 175/59/52
f 174/58/52 175/59/52 176/60/52
f 177/61/53 178/62/54 179/63/54
f 179/63/54 178/62/54 180/64/55
f 181/63/56 182/64/56 183/65/56
f 183/65/56 182/64/56 184/66/56
f 185/52/57 186/54/57 187/53/57
f 187/53/57 186/54/57 188/55/57
f 189/56/58 190/58/58 191/57/58
f 191/57/58 190/58/58 192/59/58
f 192/59/58 190/58/58 193/60/58
f 194/61/59 195/63/60 196/62/61
f 196/62/61 195/63/60 197/64/62
f 198/63/63 199/65/63 200/64/63
f 200/64/63 199/65/63 201/66/63
f 202/67/64 203/60/65 204/68/65
f 204/68/65 203/60/65 205/59/66
f 206/68/67 207/59/68 208/67/69
f 208/67/69 207/59/68 209/60/70
f 226/69/48 227/70/48 228/71/48
f 228/71/48 227/70/48 229/72/48
f 230/73/45 231/74/45 232/75/45
f 232/75/45 231/74/45 233/76/45
f 234/77/71 235/78/71 236/79/71
f 236/79/71 235/78/71 237/80/71
f 238/81/72 239/82/72 240/83/72
f 240/83/72 239/82/72 241/84/72
f 242/79/73 243/80/73 244/77/73
f 244/77/73 243/80/73 245/78/73
f 246/83/74 247/84/74 248/85/74
f 248/85/74 247/84/74 249/82/74
f 250/69/48 251/71/48 252/70/48
f 252/70/48 251/71/48 253/72/48
f 254/73/45 255/75/45 256/74/45
f 256/74/45 255/75/45 257/76/45
f 258/77/71 259/79/71 260/78/71
f 260/78/71 259/79/71 261/80/71
f 262/81/74 263/83/74 264/82/74
f 264/82/74 263/83/74 265/84/74
f 266/79/73 267/77/73 268/80/73
f 268/80/73 267/77/73 269/78/73
f 270/83/72 271/85/72 272/84/72
f 272/84/72 271/85/72 273/82/72
f 274/69/48 275/70/48 276/71/48
f 276/71/48 275/70/48 277/72/48
f 278/73/45 279/74/45 280/75/45
f 280/75/45 279/74/45 281/76/45
f 282/77/71 283/78/71 284/79/71
f 284/79/71 283/78/71 285/80/71
f 286/81/72 287/82/72 288/83/72
f 288/83/72 287/82/72 289/84/72
f 290/79/73 291/80/73 292/77/73
f 292/77/73 291/80/73 293/78/73
f 294/83/74 295/84/74 296/85/74
f 296/85/74 295/84/74 297/82/74
f 298/69/48 299/71/48 300/70/48
f 300/70/48 299/71/48 301/72/48
f 302/73/45 303/75/45 304/74/45
f 304/74/45 303/75/45 305/76/45
f 306/77/71 307/79/71 308/78/71
f 308/78/71 307/79/71 309/80/71
f 310/81/74 311/83/74 312/82/74
f 312/82/74 311/83/74 313/84/74
f 314/79/73 315/77/73 316/80/73
f 316/80/73 315/77/73 317/78/73
f 318/83/72 319/85/72 320/84/72
f 320/84/72 319/85/72 321/82/72
l 124 125
l 210 211
l 212 213
l 214 215
l 216 217
l 218 219
l 220 221
l 222 223
l 224 225
