# Blender 5.1.2
# www.blender.org
mtllib v5.mtl
o model1
v 3.446826 2.867113 5.664126
v -0.224457 2.867114 5.664126
v 3.446827 2.904562 9.013389
v -0.224456 2.904562 9.013389
v 3.446826 1.626577 5.680164
v -0.224457 1.626577 5.680165
v -0.224457 2.867114 5.664126
v 3.446826 2.867113 5.664126
v 3.446827 1.664026 9.029427
v 3.446826 1.626577 5.680164
v 3.446826 2.867113 5.664126
v 3.446827 2.904562 9.013389
v -0.224457 1.626577 5.680165
v -0.224456 1.664026 9.029428
v -0.224456 2.904562 9.013389
v -0.224457 2.867114 5.664126
v -0.224456 1.664026 9.029428
v 3.446827 1.664026 9.029427
v 3.446827 2.904562 9.013389
v -0.224456 2.904562 9.013389
v 3.446826 2.867113 -5.684126
v 3.446827 2.904562 -9.033389
v -0.224457 2.867115 -5.684127
v -0.224456 2.904562 -9.033390
v 3.446826 1.626576 -5.700166
v -0.224457 2.867115 -5.684127
v -0.224457 1.626577 -5.700165
v 3.446826 2.867113 -5.684126
v 3.446828 1.664026 -9.049427
v 3.446826 2.867113 -5.684126
v 3.446826 1.626576 -5.700166
v 3.446827 2.904562 -9.033389
v -0.224457 1.626577 -5.700165
v -0.224456 2.904562 -9.033390
v -0.224456 1.664026 -9.049428
v -0.224457 2.867115 -5.684127
v -0.224456 1.664026 -9.049428
v 3.446827 2.904562 -9.033389
v 3.446828 1.664026 -9.049427
v -0.224456 2.904562 -9.033390
vn -0.0000 0.9999 -0.0112
vn -0.8944 -0.0057 -0.4472
vn -0.4472 -0.0116 -0.8944
vn 0.4472 -0.0115 -0.8944
vn 0.4472 -0.0116 -0.8944
vn 0.8944 -0.0058 -0.4472
vn 0.4472 -0.0115 -0.8943
vn 0.8944 -0.0058 -0.4471
vn 0.8944 0.0058 0.4471
vn 0.4472 0.0115 0.8943
vn -0.4472 0.0116 0.8943
vn -0.8944 0.0058 0.4471
vn -0.8944 -0.0058 -0.4471
vn -0.4472 -0.0116 -0.8943
vn 0.8944 0.0058 0.4472
vn 0.4472 0.0116 0.8944
vn -0.4472 0.0116 0.8944
vn 0.4472 0.0115 0.8944
vn -0.8944 0.0057 0.4472
vn -0.0000 0.9999 0.0112
vn -0.8944 -0.0057 0.4472
vn 0.4472 -0.0116 0.8944
vn -0.4472 -0.0115 0.8944
vn -0.4472 -0.0116 0.8944
vn 0.8944 -0.0058 0.4472
vn 0.4472 -0.0115 0.8943
vn 0.8944 0.0058 -0.4471
vn 0.8944 -0.0057 0.4471
vn 0.8944 -0.0058 0.4471
vn 0.8944 0.0057 -0.4471
vn 0.4472 0.0115 -0.8943
vn -0.4472 0.0116 -0.8943
vn -0.8944 -0.0058 0.4471
vn -0.8944 0.0058 -0.4471
vn -0.4472 -0.0116 0.8943
vn 0.8944 0.0058 -0.4472
vn -0.4472 0.0116 -0.8944
vn 0.4472 0.0116 -0.8944
vn 0.4472 0.0115 -0.8944
vn -0.4472 0.0115 -0.8944
vn -0.8944 0.0057 -0.4472
vt 0.552038 1.190660
vt 0.759963 1.190660
vt 0.552038 1.409943
vt 0.759963 1.409943
vt 0.556769 0.112175
vt 0.761512 0.112175
vt 0.556769 0.407525
vt 0.761512 0.407525
s 0
usemtl GATTBOXES01.001.09_-_Default
f 1/1/1 2/2/1 3/3/1
f 3/3/1 2/2/1 4/4/1
f 6/5/2 7/6/3 5/7/4
f 5/7/5 7/6/3 8/8/6
f 10/5/7 11/6/8 9/7/9
f 9/7/9 11/6/8 12/8/10
f 14/5/11 15/6/12 13/7/13
f 13/7/13 15/6/12 16/8/14
f 18/5/15 19/6/16 17/7/17
f 17/7/17 19/6/18 20/8/19
f 21/1/20 22/3/20 23/2/20
f 23/2/20 22/3/20 24/4/20
f 27/5/21 25/7/22 26/6/23
f 26/6/24 25/7/22 28/8/25
f 31/5/26 29/7/27 30/6/28
f 30/6/29 29/7/30 32/8/31
f 35/5/32 33/7/33 34/6/34
f 34/6/34 33/7/33 36/8/35
f 39/5/36 37/7/37 38/6/38
f 38/6/39 37/7/40 40/8/41
o model2
v -8.888336 5.348792 -8.053946
v -4.178553 5.348792 -8.053946
v -4.178553 5.348792 -10.542676
v -8.888336 5.348792 -10.542676
v -9.622986 4.115149 -7.665746
v -3.443904 4.115149 -7.665746
v -4.178553 5.348792 -8.053946
v -8.888336 5.348792 -8.053946
v -3.443904 4.115149 -7.665746
v -3.443904 4.115149 -10.930877
v -4.178553 5.348792 -10.542676
v -4.178553 5.348792 -8.053946
v -3.443904 4.115149 -10.930877
v -9.622986 4.115149 -10.930877
v -8.888336 5.348792 -10.542676
v -4.178553 5.348792 -10.542676
v -9.622986 4.115149 -10.930877
v -9.622986 4.115149 -7.665746
v -8.888336 5.348792 -8.053946
v -8.888336 5.348792 -10.542676
v -16.978672 5.348792 -8.053946
v -12.268888 5.348792 -8.053946
v -12.268888 5.348792 -10.542676
v -16.978672 5.348792 -10.542676
v -17.713320 4.115149 -7.665746
v -11.534239 4.115149 -7.665746
v -12.268888 5.348792 -8.053946
v -16.978672 5.348792 -8.053946
v -11.534239 4.115149 -7.665746
v -11.534239 4.115149 -10.930877
v -12.268888 5.348792 -10.542676
v -12.268888 5.348792 -8.053946
v -11.534239 4.115149 -10.930877
v -17.713320 4.115149 -10.930877
v -16.978672 5.348792 -10.542676
v -12.268888 5.348792 -10.542676
v -17.713320 4.115149 -10.930877
v -17.713320 4.115149 -7.665746
v -16.978672 5.348792 -8.053946
v -16.978672 5.348792 -10.542676
v -8.888336 5.348792 8.033946
v -4.178553 5.348792 10.522676
v -4.178553 5.348792 8.033946
v -8.888336 5.348792 10.522676
v -9.622986 4.115149 7.645745
v -4.178553 5.348792 8.033946
v -3.443904 4.115149 7.645745
v -8.888336 5.348792 8.033946
v -3.443904 4.115149 7.645745
v -4.178553 5.348792 10.522676
v -3.443904 4.115149 10.910876
v -4.178553 5.348792 8.033946
v -3.443904 4.115149 10.910876
v -8.888336 5.348792 10.522676
v -9.622986 4.115149 10.910876
v -4.178553 5.348792 10.522676
v -9.622986 4.115149 10.910876
v -8.888336 5.348792 8.033946
v -9.622986 4.115149 7.645745
v -8.888336 5.348792 10.522676
v -16.978672 5.348792 8.033946
v -12.268888 5.348792 10.522676
v -12.268888 5.348792 8.033946
v -16.978672 5.348792 10.522676
v -17.713320 4.115149 7.645745
v -12.268888 5.348792 8.033946
v -11.534239 4.115149 7.645745
v -16.978672 5.348792 8.033946
v -11.534239 4.115149 7.645745
v -12.268888 5.348792 10.522676
v -11.534239 4.115149 10.910876
v -12.268888 5.348792 8.033946
v -11.534239 4.115149 10.910876
v -16.978672 5.348792 10.522676
v -17.713320 4.115149 10.910876
v -12.268888 5.348792 10.522676
v -17.713320 4.115149 10.910876
v -16.978672 5.348792 8.033946
v -17.713320 4.115149 7.645745
v -16.978672 5.348792 10.522676
vn -0.0000 1.0000 -0.0000
vn -0.0000 0.3002 0.9539
vn 0.8592 0.5117 -0.0000
vn -0.0000 0.3002 -0.9539
vn -0.8592 0.5117 -0.0000
vt 0.244458 0.608984
vt 0.244458 0.740497
vt 0.038012 0.608984
vt 0.038012 0.740497
vt 0.275911 0.626916
vt 0.244006 0.683083
vt 0.005371 0.626916
vt 0.037277 0.683083
vt 0.207910 0.646710
vt 0.191277 0.708232
vt 0.068007 0.646710
vt 0.084641 0.708232
s 0
usemtl HOUSECOLOR02.001.03_-_Default
f 42/9/42 43/10/42 41/11/42
f 41/11/42 43/10/42 44/12/42
f 46/13/43 47/14/43 45/15/43
f 45/15/43 47/14/43 48/16/43
f 50/17/44 51/18/44 49/19/44
f 49/19/44 51/18/44 52/20/44
f 54/13/45 55/14/45 53/15/45
f 53/15/45 55/14/45 56/16/45
f 58/17/46 59/18/46 57/19/46
f 57/19/46 59/18/46 60/20/46
f 62/9/42 63/10/42 61/11/42
f 61/11/42 63/10/42 64/12/42
f 66/13/43 67/14/43 65/15/43
f 65/15/43 67/14/43 68/16/43
f 70/17/44 71/18/44 69/19/44
f 69/19/44 71/18/44 72/20/44
f 74/13/45 75/14/45 73/15/45
f 73/15/45 75/14/45 76/16/45
f 78/17/46 79/18/46 77/19/46
f 77/19/46 79/18/46 80/20/46
f 83/9/42 81/11/42 82/10/42
f 82/10/42 81/11/42 84/12/42
f 87/13/45 85/15/45 86/14/45
f 86/14/45 85/15/45 88/16/45
f 91/17/44 89/19/44 90/18/44
f 90/18/44 89/19/44 92/20/44
f 95/13/43 93/15/43 94/14/43
f 94/14/43 93/15/43 96/16/43
f 99/17/46 97/19/46 98/18/46
f 98/18/46 97/19/46 100/20/46
f 103/9/42 101/11/42 102/10/42
f 102/10/42 101/11/42 104/12/42
f 107/13/45 105/15/45 106/14/45
f 106/14/45 105/15/45 108/16/45
f 111/17/44 109/19/44 110/18/44
f 110/18/44 109/19/44 112/20/44
f 115/13/43 113/15/43 114/14/43
f 114/14/43 113/15/43 116/16/43
f 119/17/46 117/19/46 118/18/46
f 118/18/46 117/19/46 120/20/46
o model3
v 13.256141 1.806875 7.482921
v 24.574757 0.465420 7.482921
v 22.199007 0.465420 2.341149
v 24.574757 0.465420 7.482921
v 15.028591 -4.628376 6.232405
v 22.199007 0.465420 2.341149
v 13.256141 1.806875 -7.502920
v 22.199007 0.465420 -2.361148
v 24.574757 0.465421 -7.502921
v 24.574757 0.465421 -7.502921
v 22.199007 0.465420 -2.361148
v 15.028591 -4.628376 -6.252405
v 11.062698 3.644155 -6.252404
v -16.873419 3.644154 -6.252406
v 11.062698 3.644155 6.232405
v -16.873419 3.644154 6.232406
v 13.256141 1.806875 -7.502920
v 11.062698 3.644155 -6.252404
v 13.256141 1.806875 7.482921
v 13.256141 1.806875 7.482921
v 11.062698 3.644155 -6.252404
v 11.062698 3.644155 6.232405
v 22.199007 0.465420 -2.361148
v 13.256141 1.806875 -7.502920
v 22.199007 0.465420 2.341149
v 13.256141 1.806875 7.482921
v 15.028591 -4.628376 -6.252405
v 22.199007 0.465420 -2.361148
v 15.028591 -4.628376 6.232405
v 22.199007 0.465420 2.341149
v -17.246195 -4.628374 -6.252405
v 15.028591 -4.628376 -6.252405
v -17.246195 -4.628374 6.232405
v 15.028591 -4.628376 6.232405
v -21.620531 -2.127106 -7.502921
v -17.246195 -4.628374 -6.252405
v -21.620531 -2.127106 7.482921
v -21.620531 -2.127106 7.482921
v -17.246195 -4.628374 -6.252405
v -17.246195 -4.628374 6.232405
v -21.620531 1.806877 -7.502920
v -21.620531 -2.127106 -7.502921
v -21.620531 1.806876 7.482921
v -21.620531 -2.127106 7.482921
v -16.873419 3.644154 -6.252406
v -21.620531 1.806877 -7.502920
v -16.873419 3.644154 6.232406
v -21.620531 1.806876 7.482921
v 13.256141 1.806875 7.482921
v 11.062698 3.644155 6.232405
v -21.620531 1.806876 7.482921
v -16.873419 3.644154 6.232406
v -21.620531 1.806876 7.482921
v -18.957897 1.388861 10.848797
v 13.256141 1.806875 7.482921
v 20.867859 1.388860 10.848796
v 20.867859 1.806875 7.482921
v -17.246195 -4.628374 6.232405
v 15.028591 -4.628376 6.232405
v -21.620531 -2.127106 7.482921
v 24.574757 0.465420 7.482921
v -21.620531 -2.127106 7.482921
v 24.574757 0.465420 7.482921
v -21.620531 1.806876 7.482921
v 13.256141 1.806875 7.482921
v 13.256141 1.806875 -7.502920
v -21.620531 1.806877 -7.502920
v 11.062698 3.644155 -6.252404
v -16.873419 3.644154 -6.252406
v -21.620531 1.806877 -7.502920
v 13.256141 1.806875 -7.502920
v -18.957897 1.388862 -10.868796
v 20.867859 1.388861 -10.868795
v 20.867859 1.806876 -7.502920
v -17.246195 -4.628374 -6.252405
v -21.620531 -2.127106 -7.502921
v 15.028591 -4.628376 -6.252405
v 24.574757 0.465421 -7.502921
v -21.620531 -2.127106 -7.502921
v -21.620531 1.806877 -7.502920
v 24.574757 0.465421 -7.502921
v 13.256141 1.806875 -7.502920
v 22.895035 1.135383 8.080092
v 20.867859 1.806875 7.482921
v 22.895035 0.884697 10.251626
v 20.867859 1.388860 10.848796
v 22.895035 0.884698 -10.271625
v 20.867859 1.388861 -10.868795
v 22.895035 1.135384 -8.100092
v 20.867859 1.806876 -7.502920
v 23.293339 0.269661 11.784019
v 2.995906 0.269663 11.784018
v 23.293339 0.269661 8.198705
v 2.995905 0.269663 8.198702
v -0.679612 0.269661 11.784019
v -20.977045 0.269663 11.784018
v -0.679612 0.269661 8.198705
v -20.977045 0.269663 8.198702
v -0.679612 0.269662 -8.218343
v -20.977045 0.269664 -8.218343
v -0.679612 0.269662 -11.803656
v -20.977045 0.269664 -11.803658
v 23.293339 0.269662 -8.218343
v 2.995906 0.269664 -8.218343
v 23.293339 0.269662 -11.803656
v 2.995905 0.269664 -11.803658
v 2.351609 -0.375985 -12.769652
v 26.072144 -0.375985 -12.769652
v 2.351609 -0.375986 -5.945061
v 26.072144 -0.375986 -5.945061
v 22.255487 4.204369 -6.998862
v 22.255487 4.204369 -11.715852
v 6.168267 4.204369 -6.998862
v 6.168267 4.204369 -11.715852
v 26.072144 -0.375986 -5.945061
v 22.255487 4.204369 -6.998862
v 2.351609 -0.375986 -5.945061
v 6.168267 4.204369 -6.998862
v 26.072144 -0.375985 -12.769652
v 22.255487 4.204369 -11.715852
v 26.072144 -0.375986 -5.945061
v 22.255487 4.204369 -6.998862
v 2.351609 -0.375985 -12.769652
v 6.168267 4.204369 -11.715852
v 26.072144 -0.375985 -12.769652
v 22.255487 4.204369 -11.715852
v 2.351609 -0.375986 -5.945061
v 6.168267 4.204369 -6.998862
v 2.351609 -0.375985 -12.769652
v 6.168267 4.204369 -11.715852
v 1.027718 -0.375985 -12.769650
v 1.027718 -0.375986 -5.945061
v -22.692816 -0.375985 -12.769650
v -22.692816 -0.375986 -5.945061
v -18.876160 4.204369 -6.998862
v -2.788939 4.204369 -6.998862
v -18.876160 4.204369 -11.715850
v -2.788939 4.204369 -11.715850
v -22.692816 -0.375986 -5.945061
v 1.027718 -0.375986 -5.945061
v -18.876160 4.204369 -6.998862
v -2.788939 4.204369 -6.998862
v -22.692816 -0.375985 -12.769650
v -22.692816 -0.375986 -5.945061
v -18.876160 4.204369 -11.715850
v -18.876160 4.204369 -6.998862
v 1.027718 -0.375985 -12.769650
v -22.692816 -0.375985 -12.769650
v -2.788939 4.204369 -11.715850
v -18.876160 4.204369 -11.715850
v 1.027718 -0.375986 -5.945061
v 1.027718 -0.375985 -12.769650
v -2.788939 4.204369 -6.998862
v -2.788939 4.204369 -11.715850
v 2.351609 -0.375986 5.961529
v 26.072144 -0.375986 5.961529
v 2.351609 -0.375987 12.786119
v 26.072144 -0.375987 12.786119
v 22.255487 4.204367 11.732318
v 22.255487 4.204367 7.015330
v 6.168267 4.204367 11.732318
v 6.168267 4.204367 7.015330
v 26.072144 -0.375987 12.786119
v 22.255487 4.204367 11.732318
v 2.351609 -0.375987 12.786119
v 6.168267 4.204367 11.732318
v 26.072144 -0.375986 5.961529
v 22.255487 4.204367 7.015330
v 26.072144 -0.375987 12.786119
v 22.255487 4.204367 11.732318
v 2.351609 -0.375986 5.961529
v 6.168267 4.204367 7.015330
v 26.072144 -0.375986 5.961529
v 22.255487 4.204367 7.015330
v 2.351609 -0.375987 12.786119
v 6.168267 4.204367 11.732318
v 2.351609 -0.375986 5.961529
v 6.168267 4.204367 7.015330
v 1.027718 -0.375986 5.961529
v 1.027718 -0.375987 12.786119
v -22.692816 -0.375986 5.961529
v -22.692816 -0.375987 12.786119
v -18.876160 4.204367 11.732318
v -2.788939 4.204367 11.732318
v -18.876160 4.204367 7.015330
v -2.788939 4.204367 7.015330
v -22.692816 -0.375987 12.786119
v 1.027718 -0.375987 12.786119
v -18.876160 4.204367 11.732318
v -2.788939 4.204367 11.732318
v -22.692816 -0.375986 5.961529
v -22.692816 -0.375987 12.786119
v -18.876160 4.204367 7.015330
v -18.876160 4.204367 11.732318
v 1.027718 -0.375986 5.961529
v -22.692816 -0.375986 5.961529
v -2.788939 4.204367 7.015330
v -18.876160 4.204367 7.015330
v 1.027718 -0.375987 12.786119
v 1.027718 -0.375986 5.961529
v -2.788939 4.204367 11.732318
v -2.788939 4.204367 7.015330
vn 0.1175 0.9916 -0.0543
vn 0.4815 -0.8477 -0.2225
vn 0.1175 0.9916 0.0543
vn 0.4815 -0.8477 0.2225
vn 0.6421 0.7666 -0.0000
vn -0.4964 -0.8681 -0.0000
vn -0.0000 1.0000 -0.0000
vn 0.1483 0.9889 -0.0000
vn 0.5791 -0.8152 -0.0000
vn -0.0000 -1.0000 -0.0000
vn -1.0000 -0.0000 -0.0000
vn -0.3609 0.9326 -0.0000
vn -0.0000 0.5627 0.8267
vn -0.0000 0.9924 0.1232
vn -0.0000 -0.4472 0.8944
vn 0.0074 -0.3577 0.9338
vn 0.0075 -0.3575 0.9339
vn 0.0148 -0.2645 0.9643
vn -0.0000 -0.0000 1.0000
vn -0.0000 0.5627 -0.8267
vn -0.0000 0.9924 -0.1232
vn -0.0000 -0.4472 -0.8944
vn 0.0074 -0.3577 -0.9338
vn 0.0075 -0.3575 -0.9339
vn 0.0148 -0.2645 -0.9643
vn -0.0000 -0.0000 -1.0000
vn 0.2832 0.9527 0.1100
vn 0.2778 0.9538 0.1143
vn 0.2724 0.9548 0.1186
vn 0.2704 0.9564 -0.1104
vn 0.2755 0.9545 -0.1143
vn 0.2755 0.9545 -0.1144
vn 0.2807 0.9525 -0.1183
vn -0.0000 0.2242 0.9745
vn 0.7682 0.6402 -0.0000
vn -0.0000 0.2242 -0.9745
vn -0.7682 0.6402 -0.0000
vt 0.160156 0.667969
vt -0.000000 0.667969
vt 0.031250 0.593750
vt 0.160156 0.453125
vt 0.324219 0.453125
vt 0.175781 0.523438
vt 0.031250 0.527344
vt -0.000000 0.453125
vt 0.175781 0.597656
vt 0.324219 0.667969
vt 0.398438 0.375000
vt 0.359375 0.453125
vt 0.000000 0.375000
vt 0.039062 0.453125
vt 0.625000 0.000000
vt 0.625000 0.109375
vt 0.878906 0.000000
vt 0.878906 0.109375
vt 0.496094 0.214844
vt 1.000000 0.214844
vt 0.496094 0.000000
vt 1.000000 0.000000
vt 0.878906 0.214844
vt 0.625000 0.214844
vt 0.998517 0.001483
vt 0.998517 0.109375
vt 0.625000 0.001483
vt 0.496094 0.195312
vt 0.628906 0.214844
vt 0.496094 0.015625
vt 0.628906 0.000000
vt 0.007812 0.292969
vt 0.070312 0.371094
vt 0.976562 0.292969
vt 0.843750 0.371094
vt 0.996094 0.296875
vt 0.937500 0.214844
vt 0.234375 0.296875
vt 0.062500 0.214844
vt 0.062500 0.296875
vt 0.628906 0.296875
vt 0.835938 0.296875
vt 0.628906 0.324219
vt 0.902344 0.335938
vt 0.628906 0.359375
vt 0.820312 0.359375
vt -0.003906 0.296875
vt -0.003906 0.214844
vt 0.000500 0.000499
vt 0.999500 0.000499
vt 0.000500 0.000500
vt 0.999500 0.000500
vt 0.737162 0.693283
vt 0.737162 0.893513
vt 1.250994 0.693283
vt 1.250994 0.893513
vt 0.253572 0.219278
vt 0.348225 0.291344
vt 0.906296 0.217407
vt 0.790300 0.289474
vt 0.299588 0.450150
vt 0.160473 0.483811
vt 0.299588 0.668147
vt 0.160473 0.634485
vt 0.160473 0.634485
vt 0.299587 0.450150
s 0
usemtl CHASSIS.001.01_-_Default
f 121/21/47 122/22/47 123/23/47
f 124/24/48 125/25/48 126/26/48
f 127/24/49 128/27/49 129/28/49
f 130/21/50 131/29/50 132/30/50
f 137/31/51 138/32/51 139/33/51
f 140/33/51 141/32/51 142/34/51
f 155/35/52 156/36/52 157/37/52
f 158/37/52 159/36/52 160/38/52
f 133/39/53 134/40/53 135/41/53
f 135/41/53 134/40/53 136/42/53
f 143/27/54 144/24/54 145/23/54
f 145/23/54 144/24/54 146/21/54
f 147/30/55 148/29/55 149/25/55
f 149/25/55 148/29/55 150/26/55
f 151/38/56 152/36/56 153/43/56
f 153/43/56 152/36/56 154/44/56
f 161/45/57 162/46/57 163/47/57
f 163/47/57 162/46/57 164/36/57
f 165/48/58 166/49/58 167/50/58
f 167/50/58 166/49/58 168/51/58
f 169/52/59 170/53/59 171/54/59
f 171/54/59 170/53/59 172/55/59
f 173/56/60 174/57/60 175/58/60
f 175/58/60 174/57/60 176/59/60
f 175/58/60 176/59/60 177/60/60
f 178/61/61 179/62/62 180/63/62
f 180/63/63 179/62/63 181/64/64
f 182/63/65 183/64/65 184/65/65
f 184/65/65 183/64/65 185/66/65
f 186/52/66 187/54/66 188/53/66
f 188/53/66 187/54/66 189/55/66
f 190/56/67 191/58/67 192/57/67
f 192/57/67 191/58/67 193/59/67
f 193/59/67 191/58/67 194/60/67
f 195/61/68 196/63/69 197/62/69
f 197/62/70 196/63/70 198/64/71
f 199/63/72 200/65/72 201/64/72
f 201/64/72 200/65/72 202/66/72
f 203/67/73 204/60/74 205/68/74
f 205/68/74 204/60/74 206/59/75
f 207/68/76 208/59/77 209/67/77
f 209/67/78 208/59/78 210/60/79
f 227/69/56 228/70/56 229/71/56
f 229/71/56 228/70/56 230/72/56
f 231/73/53 232/74/53 233/75/53
f 233/75/53 232/74/53 234/76/53
f 235/77/80 236/78/80 237/79/80
f 237/79/80 236/78/80 238/80/80
f 239/81/81 240/82/81 241/83/81
f 241/83/81 240/82/81 242/84/81
f 243/79/82 244/80/82 245/77/82
f 245/77/82 244/80/82 246/78/82
f 247/83/83 248/85/83 249/86/83
f 249/86/83 248/85/83 250/82/83
f 251/69/56 252/71/56 253/70/56
f 253/70/56 252/71/56 254/72/56
f 255/73/53 256/75/53 257/74/53
f 257/74/53 256/75/53 258/76/53
f 259/77/80 260/79/80 261/78/80
f 261/78/80 260/79/80 262/80/80
f 263/81/83 264/83/83 265/82/83
f 265/82/83 264/83/83 266/84/83
f 267/79/82 268/77/82 269/80/82
f 269/80/82 268/77/82 270/78/82
f 271/83/81 272/86/81 273/85/81
f 273/85/81 272/86/81 274/82/81
f 275/69/56 276/70/56 277/71/56
f 277/71/56 276/70/56 278/72/56
f 279/73/53 280/74/53 281/75/53
f 281/75/53 280/74/53 282/76/53
f 283/77/80 284/78/80 285/79/80
f 285/79/80 284/78/80 286/80/80
f 287/81/81 288/82/81 289/83/81
f 289/83/81 288/82/81 290/84/81
f 291/79/82 292/80/82 293/77/82
f 293/77/82 292/80/82 294/78/82
f 295/83/83 296/85/83 297/86/83
f 297/86/83 296/85/83 298/82/83
f 299/69/56 300/71/56 301/70/56
f 301/70/56 300/71/56 302/72/56
f 303/73/53 304/75/53 305/74/53
f 305/74/53 304/75/53 306/76/53
f 307/77/80 308/79/80 309/78/80
f 309/78/80 308/79/80 310/80/80
f 311/81/83 312/83/83 313/82/83
f 313/82/83 312/83/83 314/84/83
f 315/79/82 316/77/82 317/80/82
f 317/80/82 316/77/82 318/78/82
f 319/83/81 320/86/81 321/85/81
f 321/85/81 320/86/81 322/82/81
l 211 212
l 213 214
l 215 216
l 217 218
l 219 220
l 221 222
l 223 224
l 225 226
