# Blender 5.1.2
# www.blender.org
mtllib v8.mtl
o ammos
v -18.052359 -0.748192 8.953714
v -14.802416 -1.558908 8.953719
v -18.081118 3.918672 8.953718
v -18.081118 3.918672 8.953718
v -14.802416 -1.558908 8.953719
v -11.348461 3.968301 8.953729
v -14.859937 4.836627 8.953724
v -14.802416 -1.558908 8.953719
v -11.319702 -0.756175 8.953724
v -11.348461 3.968301 8.953729
v -14.802390 -1.558892 -8.485142
v -18.052334 -0.748176 -8.485147
v -11.319677 -0.756160 -8.485137
v -14.859910 4.836642 -8.485137
v -11.348435 3.968317 -8.485132
v -18.052334 -0.748176 -8.485147
v -18.081093 3.918687 -8.485143
v -14.859910 4.836642 -8.485137
v -11.348461 3.968301 8.953729
v -11.319702 -0.756175 8.953724
v -11.319677 -0.756160 -8.485137
v -11.319677 -0.756160 -8.485137
v -11.319702 -0.756175 8.953724
v -14.802390 -1.558892 -8.485142
v -14.802416 -1.558908 8.953719
v -18.052334 -0.748176 -8.485147
v -18.052359 -0.748192 8.953714
v -18.052334 -0.748176 -8.485147
v -18.052359 -0.748192 8.953714
v -18.081093 3.918687 -8.485143
v -18.081118 3.918672 8.953718
v -18.081093 3.918687 -8.485143
v -18.081118 3.918672 8.953718
v -14.859910 4.836642 -8.485137
v -14.859937 4.836627 8.953724
v -11.348435 3.968317 -8.485132
v -11.348461 3.968301 8.953729
v -11.348435 3.968317 -8.485132
v -11.348461 3.968301 8.953729
v -11.319677 -0.756160 -8.485137
vn -0.0000 -0.0000 1.0000
vn -0.0000 -0.0000 -1.0000
vn 0.7855 0.6189 -0.0000
vn 0.5979 -0.8016 -0.0000
vn 0.7844 -0.6203 -0.0000
vn 0.6050 0.7962 -0.0000
vn 1.0000 0.0061 -0.0000
vn 0.7844 -0.6202 -0.0000
vn 0.0708 -0.9975 -0.0000
vn -0.0886 -0.9961 -0.0000
vn -0.6062 -0.7953 -0.0000
vn -0.9159 -0.4014 -0.0000
vn -1.0000 -0.0062 -0.0000
vn -0.2741 0.9617 -0.0000
vn -0.1058 0.9944 -0.0000
vn 0.0707 0.9975 -0.0000
vn 0.7856 0.6188 -0.0000
vt 0.197272 0.524582
vt 0.155238 0.514011
vt 0.197185 0.583630
vt 0.109109 0.523830
vt 0.109016 0.583607
vt 0.197585 0.524366
vt 0.197605 0.583603
vt 0.155657 0.595016
vt 0.359577 0.023771
vt 0.359577 0.145555
vt 0.587957 0.145555
vt 0.587957 0.023771
vt 0.155348 0.594932
vt 0.155400 0.513836
vt 0.109148 0.523767
vt 0.109164 0.583735
vt 0.913823 0.319039
vt 0.913823 0.019339
vt 0.914598 0.319039
vt 0.914598 0.019339
vt 0.996464 0.319039
vt 0.996464 0.019339
vt 0.587957 0.145125
vt 0.359577 0.145125
vt 0.587957 0.024201
vt 0.359577 0.024201
vt 0.870896 0.320409
vt 0.870896 0.019782
vt 0.931400 0.320409
vt 0.931400 0.019782
vt 0.996742 0.320409
vt 0.996742 0.019782
s 1
usemtl AMMOBOX.07_-_Default
f 1/1/1 2/2/1 3/3/1
f 8/2/1 9/4/1 10/5/1
f 16/6/2 17/7/2 18/8/2
f 19/9/3 20/10/4 21/11/5
f 38/12/6 39/9/3 40/11/7
f 5/2/1 6/5/1 4/3/1
f 4/3/1 6/5/1 7/13/1
f 11/14/2 12/6/2 13/15/2
f 13/15/2 12/6/2 14/8/2
f 13/15/2 14/8/2 15/16/2
f 22/17/8 23/18/4 24/19/9
f 24/19/9 23/18/4 25/20/10
f 24/19/9 25/20/10 26/21/11
f 26/21/11 25/20/10 27/22/12
f 28/23/11 29/24/12 30/25/13
f 30/25/13 29/24/12 31/26/13
f 32/27/14 33/28/14 34/29/15
f 34/29/15 33/28/14 35/30/16
f 34/29/15 35/30/16 36/31/6
f 36/31/6 35/30/16 37/32/17
o boxes
v -1.873583 0.152486 10.731735
v 1.797701 0.152486 10.731736
v -1.873583 3.950621 10.738360
v 1.797700 3.950621 10.738360
v -1.873583 0.156135 9.105119
v 1.797701 0.156135 9.105119
v 1.797701 0.152486 10.731736
v -1.873583 0.152486 10.731735
v -1.873583 3.954269 9.111744
v -1.873583 0.156135 9.105119
v -1.873583 0.152486 10.731735
v -1.873583 3.950621 10.738360
v 1.797701 0.156135 9.105119
v 1.797700 3.954269 9.111743
v 1.797700 3.950621 10.738360
v 1.797701 0.152486 10.731736
v 1.797700 3.954269 9.111743
v -1.873583 3.954269 9.111744
v -1.873583 3.950621 10.738360
v 1.797700 3.950621 10.738360
v 3.867800 0.152489 10.731735
v 7.539083 0.152489 10.731736
v 3.867799 3.950624 10.738359
v 7.539083 3.950624 10.738359
v 3.867800 0.156138 9.105119
v 7.539083 0.156137 9.105119
v 7.539083 0.152489 10.731736
v 3.867800 0.152489 10.731735
v 3.867799 3.954272 9.111743
v 3.867800 0.156138 9.105119
v 3.867800 0.152489 10.731735
v 3.867799 3.950624 10.738359
v 7.539083 0.156137 9.105119
v 7.539083 3.954272 9.111743
v 7.539083 3.950624 10.738359
v 7.539083 0.152489 10.731736
v 7.539083 3.954272 9.111743
v 3.867799 3.954272 9.111743
v 3.867799 3.950624 10.738359
v 7.539083 3.950624 10.738359
v -1.873583 0.152485 -10.745962
v -1.873583 3.950620 -10.752586
v 1.797701 0.152485 -10.745963
v 1.797700 3.950619 -10.752587
v -1.873583 0.156133 -9.119345
v 1.797701 0.152485 -10.745963
v 1.797701 0.156133 -9.119346
v -1.873583 0.152485 -10.745962
v -1.873583 3.954268 -9.125971
v -1.873583 0.152485 -10.745962
v -1.873583 0.156133 -9.119345
v -1.873583 3.950620 -10.752586
v 1.797701 0.156133 -9.119346
v 1.797700 3.950619 -10.752587
v 1.797700 3.954268 -9.125970
v 1.797701 0.152485 -10.745963
v 1.797700 3.954268 -9.125970
v -1.873583 3.950620 -10.752586
v -1.873583 3.954268 -9.125971
v 1.797700 3.950619 -10.752587
v 3.867800 0.152487 -10.745961
v 3.867799 3.950623 -10.752587
v 7.539083 0.152487 -10.745963
v 7.539083 3.950622 -10.752586
v 3.867800 0.156137 -9.119346
v 7.539083 0.152487 -10.745963
v 7.539083 0.156136 -9.119346
v 3.867800 0.152487 -10.745961
v 3.867799 3.954270 -9.125970
v 3.867800 0.152487 -10.745961
v 3.867800 0.156137 -9.119346
v 3.867799 3.950623 -10.752587
v 7.539083 0.156136 -9.119346
v 7.539083 3.950622 -10.752586
v 7.539083 3.954270 -9.125971
v 7.539083 0.152487 -10.745963
v 7.539083 3.954270 -9.125971
v 3.867799 3.950623 -10.752587
v 3.867799 3.954270 -9.125970
v 7.539083 3.950622 -10.752586
v -18.352901 4.866419 -4.157434
v -18.352901 4.866419 -0.919881
v -15.131722 5.784381 -4.157434
v -15.131723 5.784381 -0.919881
v -17.907101 3.302081 -4.157434
v -17.907103 3.302082 -0.919881
v -18.352901 4.866419 -0.919881
v -18.352901 4.866419 -4.157434
v -14.685924 4.220043 -4.157434
v -17.907101 3.302081 -4.157434
v -18.352901 4.866419 -4.157434
v -15.131722 5.784381 -4.157434
v -17.907103 3.302082 -0.919881
v -14.685925 4.220043 -0.919881
v -15.131723 5.784381 -0.919881
v -18.352901 4.866419 -0.919881
v -14.685925 4.220043 -0.919881
v -14.685924 4.220043 -4.157434
v -15.131722 5.784381 -4.157434
v -15.131723 5.784381 -0.919881
v -18.352901 4.866419 0.905653
v -18.352901 4.866420 4.143207
v -15.131721 5.784381 0.905653
v -15.131722 5.784380 4.143207
v -17.907101 3.302082 0.905654
v -17.907101 3.302082 4.143207
v -18.352901 4.866420 4.143207
v -18.352901 4.866419 0.905653
v -14.685923 4.220043 0.905654
v -17.907101 3.302082 0.905654
v -18.352901 4.866419 0.905653
v -15.131721 5.784381 0.905653
v -17.907101 3.302082 4.143207
v -14.685921 4.220043 4.143207
v -15.131722 5.784380 4.143207
v -18.352901 4.866420 4.143207
v -14.685921 4.220043 4.143207
v -14.685923 4.220043 0.905654
v -15.131721 5.784381 0.905653
v -15.131722 5.784380 4.143207
vn -0.0000 -0.0017 1.0000
vn 0.8944 -0.4472 -0.0010
vn 0.4472 -0.8944 -0.0020
vn -0.4472 -0.8944 -0.0020
vn -0.8944 -0.4472 -0.0010
vn -0.4472 -0.8944 -0.0019
vn -0.8944 0.4472 0.0009
vn -0.4472 0.8944 0.0019
vn 0.4472 0.8944 0.0020
vn 0.8944 0.4472 0.0009
vn 0.8944 -0.4472 -0.0009
vn -0.8944 0.4472 0.0010
vn -0.4472 0.8944 0.0020
vn 0.8944 0.4472 0.0010
vn -0.8944 -0.4472 -0.0009
vn -0.0000 -0.0017 -1.0000
vn 0.8944 -0.4472 0.0010
vn -0.4472 -0.8944 0.0020
vn 0.4472 -0.8944 0.0020
vn -0.8944 -0.4472 0.0010
vn -0.4472 -0.8944 0.0016
vn -0.8944 0.4472 -0.0010
vn -0.4472 0.8944 -0.0016
vn 0.4472 0.8944 -0.0019
vn 0.8944 0.4472 -0.0010
vn 0.4472 -0.8944 0.0015
vn 0.4472 0.8944 -0.0020
vn -0.4472 0.8944 -0.0020
vn 0.4472 -0.8944 0.0019
vn -0.2741 0.9617 -0.0000
vn -0.4302 -0.1225 0.8944
vn -0.8602 -0.2452 0.4472
vn -0.8602 -0.2451 -0.4472
vn -0.4301 -0.1226 -0.8944
vn 0.4301 0.1226 -0.8944
vn 0.8602 0.2451 -0.4472
vn 0.8602 0.2452 0.4472
vn 0.4301 0.1225 0.8944
vn -0.4301 -0.1225 0.8944
vn 0.4302 0.1225 0.8944
vn -0.4301 -0.1224 0.8944
vt 0.304424 1.109412
vt 0.537422 1.109412
vt 0.304424 1.405145
vt 0.537422 1.405145
vt 0.556769 0.112175
vt 0.761512 0.112175
vt 0.556769 0.407525
vt 0.761512 0.407525
s 1
usemtl GATTBOXES02.09_-_Default
f 41/33/18 42/34/18 43/35/18
f 43/35/18 42/34/18 44/36/18
f 46/37/19 47/38/20 45/39/21
f 45/39/21 47/38/20 48/40/22
f 50/37/23 51/38/22 49/39/24
f 49/39/24 51/38/22 52/40/25
f 54/37/26 55/38/27 53/39/28
f 53/39/28 55/38/27 56/40/20
f 58/37/29 59/38/30 57/39/26
f 57/39/26 59/38/30 60/40/31
f 61/33/18 62/34/18 63/35/18
f 63/35/18 62/34/18 64/36/18
f 66/37/19 67/38/20 65/39/21
f 65/39/21 67/38/20 68/40/22
f 70/37/23 71/38/32 69/39/24
f 69/39/24 71/38/32 72/40/25
f 74/37/26 75/38/27 73/39/28
f 73/39/28 75/38/27 76/40/20
f 78/37/29 79/38/30 77/39/26
f 77/39/26 79/38/30 80/40/31
f 81/33/33 82/35/33 83/34/33
f 83/34/33 82/35/33 84/36/33
f 87/37/34 85/39/35 86/38/36
f 86/38/36 85/39/35 88/40/37
f 91/37/38 89/39/39 90/38/37
f 90/38/37 89/39/39 92/40/40
f 95/37/41 93/39/34 94/38/42
f 94/38/42 93/39/34 96/40/43
f 99/37/39 97/39/44 98/38/45
f 98/38/45 97/39/44 100/40/42
f 101/33/33 102/35/33 103/34/33
f 103/34/33 102/35/33 104/36/33
f 107/37/34 105/39/35 106/38/36
f 106/38/36 105/39/35 108/40/37
f 111/37/38 109/39/39 110/38/37
f 110/38/37 109/39/39 112/40/40
f 115/37/41 113/39/34 114/38/42
f 114/38/42 113/39/34 116/40/46
f 119/37/39 117/39/44 118/38/45
f 118/38/45 117/39/44 120/40/42
f 121/33/47 122/34/47 123/35/47
f 123/35/47 122/34/47 124/36/47
f 126/37/48 127/38/49 125/39/50
f 125/39/50 127/38/49 128/40/51
f 130/37/50 131/38/51 129/39/52
f 129/39/52 131/38/51 132/40/53
f 134/37/54 135/38/55 133/39/56
f 133/39/56 135/38/55 136/40/49
f 138/37/52 139/38/53 137/39/54
f 137/39/54 139/38/53 140/40/57
f 141/33/47 142/34/47 143/35/47
f 143/35/47 142/34/47 144/36/47
f 146/37/48 147/38/49 145/39/50
f 145/39/50 147/38/49 148/40/51
f 150/37/50 151/38/51 149/39/52
f 149/39/52 151/38/51 152/40/53
f 154/37/54 155/38/55 153/39/58
f 153/39/58 155/38/55 156/40/49
f 158/37/52 159/38/53 157/39/54
f 157/39/54 159/38/53 160/40/57
o tube
v -5.091296 11.614189 -9.043799
v -5.091296 10.993027 -10.381286
v -7.804190 12.319726 -9.371467
v -7.804190 11.698561 -10.708953
v -6.532933 8.312243 -9.136258
v -6.532932 8.933407 -7.798773
v -8.147944 8.732256 -9.331325
v -8.147945 9.353418 -7.993836
v -2.808071 10.109669 -8.345061
v -2.808072 9.488504 -9.682546
v -5.173706 7.416588 -8.720292
v -5.173706 8.037750 -7.382807
v -1.229906 7.987627 -7.359529
v -1.229906 7.366465 -8.697017
v -4.234207 6.153315 -8.133596
v -4.234208 6.774479 -6.796112
v -0.547149 5.504016 -6.206077
v -0.547150 4.882854 -7.543561
v -3.827757 4.674797 -7.446933
v -3.827756 5.295959 -6.109448
v -0.842152 2.958396 -5.023823
v -0.842153 2.337233 -6.361309
v -4.003375 3.159363 -6.743127
v -4.003375 3.780526 -5.405642
v -2.079334 0.657804 -3.955369
v -2.079335 0.036641 -5.292854
v -4.739882 1.789798 -6.107065
v -4.739881 2.410961 -4.769579
v -4.109472 -1.120272 -3.129583
v -4.109472 -1.741435 -4.467069
v -5.948443 0.731291 -5.615467
v -5.948442 1.352454 -4.277981
v -6.687700 -2.161372 -2.646069
v -6.687700 -2.782535 -3.983554
v -7.483287 0.111514 -5.327625
v -7.483287 0.732677 -3.990140
v -9.503047 -2.339922 -2.563145
v -9.503048 -2.961085 -3.900630
v -9.159291 0.005221 -5.278260
v -9.159291 0.626385 -3.940775
v -12.215940 -1.634387 -2.890813
v -12.215940 -2.255550 -4.228299
v -10.774304 0.425233 -5.473324
v -10.774304 1.046396 -4.135839
v -14.499166 -0.129865 -3.589551
v -14.499166 -0.751028 -4.927037
v -12.133532 1.320890 -5.889290
v -12.133532 1.942053 -4.551805
v -16.077330 1.992176 -4.575082
v -16.077330 1.371013 -5.912568
v -13.073030 2.584163 -6.475986
v -13.073029 3.205326 -5.138502
v -16.760086 4.475787 -5.728536
v -16.760088 3.854624 -7.066021
v -13.479481 4.062682 -7.162650
v -13.479481 4.683845 -5.825163
v -16.465084 7.021409 -6.910789
v -16.465084 6.400246 -8.248275
v -13.303861 5.578115 -7.866457
v -13.303861 6.199278 -6.528970
v -15.227900 9.322001 -7.979243
v -15.227901 8.700836 -9.316730
v -12.567354 6.947680 -8.502519
v -12.567354 7.568844 -7.165032
v -13.197762 11.100075 -8.805030
v -13.197763 10.478912 -10.142514
v -11.358793 8.006186 -8.994117
v -11.358792 8.627348 -7.656631
v -10.619534 12.141174 -9.288543
v -10.619534 11.520012 -10.626029
v -9.823948 8.625963 -9.281957
v -9.823947 9.247126 -7.944472
v -7.804632 12.309126 9.364310
v -5.091738 10.980831 10.372025
v -5.091739 11.604111 9.035525
v -7.804632 11.685846 10.700810
v -8.148386 8.721724 9.318484
v -6.533374 8.925301 7.786255
v -6.533373 8.302022 9.122756
v -8.148386 9.345005 7.981985
v -2.808512 9.477419 9.670905
v -2.808512 10.100700 8.334405
v -5.174146 8.030306 7.368873
v -5.174146 7.407024 8.705373
v -1.230346 7.356943 8.682015
v -1.230346 7.980222 7.345516
v -4.234648 6.767965 6.780177
v -4.234648 6.144685 8.116676
v -0.547589 4.875161 7.524632
v -0.547588 5.498441 6.188130
v -3.828196 5.290535 6.091175
v -3.828196 4.667255 7.427674
v -0.842591 2.331415 6.338349
v -0.842591 2.954695 5.001850
v -4.003814 3.776218 5.384969
v -4.003814 3.152939 6.721469
v -2.079772 0.032518 5.266253
v -2.079772 0.655798 3.929753
v -4.740320 2.407662 4.746739
v -4.740320 1.784382 6.083239
v -4.109909 -1.744249 4.437654
v -4.109909 -1.120969 3.101153
v -5.948881 1.349935 4.253465
v -5.948881 0.726655 5.589966
v -6.688137 -2.784583 3.952491
v -6.688138 -2.161303 2.615991
v -7.483726 0.730614 3.964644
v -7.483726 0.107334 5.301145
v -9.503485 -2.963002 3.869285
v -9.503484 -2.339722 2.532785
v -9.159731 0.624399 3.915110
v -9.159731 0.001119 5.251611
v -12.216379 -2.257988 4.198070
v -12.216379 -1.634708 2.861570
v -10.774742 1.044101 4.110839
v -10.774742 0.420821 5.447339
v -14.499604 -0.754576 4.899190
v -14.499604 -0.131296 3.562690
v -12.133970 1.939097 4.528223
v -12.133970 1.315817 5.864723
v -16.077770 1.365902 5.888080
v -16.077770 1.989182 4.551580
v -13.073467 3.201438 5.116919
v -13.073468 2.578158 6.453419
v -16.760527 3.847683 7.045464
v -16.760527 4.470963 5.708963
v -13.479920 4.678867 5.805921
v -13.479920 4.055588 7.142420
v -16.465523 6.391428 8.231746
v -16.465523 7.014707 6.895247
v -13.304302 6.193185 6.512126
v -13.304303 5.569905 7.848626
v -15.228343 8.690327 9.303842
v -15.228341 9.313604 7.967341
v -12.567796 7.561740 7.150355
v -12.567796 6.938461 8.486856
v -13.198206 10.467093 10.132442
v -13.198206 11.090374 8.795941
v -11.359234 8.619469 7.643630
v -11.359234 7.996189 8.980128
v -10.619976 11.507425 10.617602
v -10.619976 12.130707 9.281102
v -9.824388 9.238789 7.932452
v -9.824388 8.615509 9.268952
vn 0.1627 0.8949 -0.4156
vn 0.4904 0.7904 -0.3671
vn 0.3849 0.8371 -0.3888
vn 0.6773 0.6672 -0.3099
vn 0.0460 0.9060 -0.4208
vn -0.1846 0.8914 -0.4140
vn -0.2984 0.8656 -0.4020
vn -0.5096 0.7804 -0.3624
vn -0.6069 0.7208 -0.3348
vn -0.7731 0.5752 -0.2672
vn -0.8421 0.4891 -0.2272
vn -0.9434 0.3007 -0.1397
vn -0.9758 0.1984 -0.0921
vn -0.9999 -0.0101 0.0047
vn -0.9918 -0.1162 0.0540
vn -0.9358 -0.3196 0.1484
vn -0.8881 -0.4169 0.1936
vn -0.7588 -0.5907 0.2743
vn -0.6773 -0.6672 0.3099
vn -0.4904 -0.7904 0.3671
vn -0.3849 -0.8371 0.3888
vn -0.1627 -0.8949 0.4156
vn -0.0460 -0.9060 0.4208
vn 0.1846 -0.8914 0.4140
vn 0.2984 -0.8656 0.4020
vn 0.5096 -0.7804 0.3624
vn 0.6069 -0.7208 0.3348
vn 0.7731 -0.5752 0.2672
vn 0.8421 -0.4891 0.2272
vn 0.9434 -0.3007 0.1397
vn 0.9758 -0.1984 0.0921
vn 0.9999 0.0101 -0.0047
vn 0.9918 0.1162 -0.0540
vn 0.9358 0.3196 -0.1484
vn 0.8881 0.4169 -0.1936
vn 0.7588 0.5907 -0.2743
vn 0.9358 0.3197 -0.1485
vn 0.8881 0.4168 -0.1936
vn 0.6774 0.6672 -0.3099
vn 0.4903 0.7899 0.3683
vn 0.1627 0.8942 0.4170
vn 0.3849 0.8365 0.3901
vn 0.0460 0.9053 0.4222
vn 0.6774 0.6667 0.3109
vn 0.7589 0.5902 0.2753
vn 0.8881 0.4166 0.1942
vn 0.9358 0.3194 0.1489
vn 0.9918 0.1162 0.0542
vn 0.9999 0.0101 0.0047
vn 0.9758 -0.1983 -0.0925
vn 0.9434 -0.3005 -0.1401
vn 0.8421 -0.4888 -0.2280
vn 0.7731 -0.5748 -0.2681
vn 0.6069 -0.7203 -0.3359
vn 0.5096 -0.7798 -0.3636
vn 0.2984 -0.8650 -0.4034
vn 0.1846 -0.8907 -0.4154
vn -0.0460 -0.9053 -0.4222
vn -0.1627 -0.8942 -0.4170
vn -0.3849 -0.8365 -0.3901
vn -0.4903 -0.7899 -0.3684
vn -0.6774 -0.6667 -0.3109
vn -0.7589 -0.5902 -0.2753
vn -0.8881 -0.4166 -0.1943
vn -0.9358 -0.3194 -0.1490
vn -0.9918 -0.1162 -0.0542
vn -0.9999 -0.0101 -0.0047
vn -0.9758 0.1983 0.0925
vn -0.9434 0.3005 0.1401
vn -0.8421 0.4888 0.2279
vn -0.7731 0.5748 0.2681
vn -0.6069 0.7203 0.3359
vn -0.5096 0.7798 0.3637
vn -0.2984 0.8650 0.4034
vn -0.1846 0.8907 0.4154
vn -0.8421 0.4888 0.2280
vn -0.5095 0.7798 0.3637
vn 0.4903 0.7899 0.3684
vn 0.8881 0.4166 0.1943
vn 0.9358 0.3194 0.1490
vt 0.281073 0.023139
vt 0.206802 0.023139
vt 0.206802 0.094211
vt 0.281073 0.094211
s 1
usemtl TUBE02.07_-_Default
f 163/41/59 161/42/60 162/43/61
f 162/43/61 161/42/60 170/44/62
f 162/43/61 164/44/63 163/41/59
f 163/41/59 164/44/63 229/42/64
f 164/44/63 230/43/65 229/42/64
f 229/42/64 230/43/65 225/41/66
f 230/43/65 226/44/67 225/41/66
f 225/41/66 226/44/67 221/42/68
f 226/44/67 222/43/69 221/42/68
f 221/42/68 222/43/69 217/41/70
f 222/43/69 218/44/71 217/41/70
f 217/41/70 218/44/71 213/42/72
f 218/44/71 214/43/73 213/42/72
f 213/42/72 214/43/73 209/41/74
f 214/43/73 210/44/75 209/41/74
f 209/41/74 210/44/75 205/42/76
f 210/44/75 206/43/77 205/42/76
f 205/42/76 206/43/77 201/41/78
f 206/43/77 202/44/79 201/41/78
f 201/41/78 202/44/79 197/42/80
f 202/44/79 198/43/81 197/42/80
f 197/42/80 198/43/81 193/41/82
f 198/43/81 194/44/83 193/41/82
f 193/41/82 194/44/83 189/42/84
f 194/44/83 190/43/85 189/42/84
f 189/42/84 190/43/85 185/41/86
f 190/43/85 186/44/87 185/41/86
f 185/41/86 186/44/87 181/42/88
f 186/44/87 182/43/89 181/42/88
f 181/42/88 182/43/89 177/41/90
f 182/43/89 178/44/91 177/41/90
f 177/41/90 178/44/91 173/42/92
f 178/44/91 174/43/93 173/42/92
f 173/42/92 174/43/93 169/41/94
f 174/43/93 170/44/62 169/41/94
f 169/41/94 170/44/62 161/42/60
f 167/41/80 165/42/78 166/43/79
f 166/43/79 165/42/78 172/44/77
f 166/43/79 168/44/81 167/41/80
f 167/41/80 168/44/81 231/42/82
f 168/44/81 232/43/83 231/42/82
f 231/42/82 232/43/83 227/41/84
f 232/43/83 228/44/85 227/41/84
f 227/41/84 228/44/85 223/42/86
f 228/44/85 224/43/87 223/42/86
f 223/42/86 224/43/87 219/41/88
f 224/43/87 220/44/89 219/41/88
f 219/41/88 220/44/89 215/42/90
f 220/44/89 216/43/91 215/42/90
f 215/42/90 216/43/91 211/41/95
f 216/43/91 212/44/96 211/41/95
f 211/41/95 212/44/96 207/42/94
f 212/44/96 208/43/97 207/42/94
f 207/42/94 208/43/97 203/41/60
f 208/43/97 204/44/61 203/41/60
f 203/41/60 204/44/61 199/42/59
f 204/44/61 200/43/63 199/42/59
f 199/42/59 200/43/63 195/41/64
f 200/43/63 196/44/65 195/41/64
f 195/41/64 196/44/65 191/42/66
f 196/44/65 192/43/67 191/42/66
f 191/42/66 192/43/67 187/41/68
f 192/43/67 188/44/69 187/41/68
f 187/41/68 188/44/69 183/42/70
f 188/44/69 184/43/71 183/42/70
f 183/42/70 184/43/71 179/41/72
f 184/43/71 180/44/73 179/41/72
f 179/41/72 180/44/73 175/42/74
f 180/44/73 176/43/75 175/42/74
f 175/42/74 176/43/75 171/41/76
f 176/43/75 172/44/77 171/41/76
f 171/41/76 172/44/77 165/42/78
f 235/42/98 233/41/99 234/43/100
f 234/43/100 233/41/99 236/44/101
f 234/43/100 241/44/102 235/42/98
f 235/42/98 241/44/102 242/41/103
f 241/44/102 245/43/104 242/41/103
f 242/41/103 245/43/104 246/42/105
f 245/43/104 249/44/106 246/42/105
f 246/42/105 249/44/106 250/41/107
f 249/44/106 253/43/108 250/41/107
f 250/41/107 253/43/108 254/42/109
f 253/43/108 257/44/110 254/42/109
f 254/42/109 257/44/110 258/41/111
f 257/44/110 261/43/112 258/41/111
f 258/41/111 261/43/112 262/42/113
f 261/43/112 265/44/114 262/42/113
f 262/42/113 265/44/114 266/41/115
f 265/44/114 269/43/116 266/41/115
f 266/41/115 269/43/116 270/42/117
f 269/43/116 273/44/118 270/42/117
f 270/42/117 273/44/118 274/41/119
f 273/44/118 277/43/120 274/41/119
f 274/41/119 277/43/120 278/42/121
f 277/43/120 281/44/122 278/42/121
f 278/42/121 281/44/122 282/41/123
f 281/44/122 285/43/124 282/41/123
f 282/41/123 285/43/124 286/42/125
f 285/43/124 289/44/126 286/42/125
f 286/42/125 289/44/126 290/41/127
f 289/44/126 293/43/128 290/41/127
f 290/41/127 293/43/128 294/42/129
f 293/43/128 297/44/130 294/42/129
f 294/42/129 297/44/130 298/41/131
f 297/44/130 301/43/132 298/41/131
f 298/41/131 301/43/132 302/42/133
f 301/43/132 236/44/101 302/42/133
f 302/42/133 236/44/101 233/41/99
f 239/42/119 237/41/117 238/43/118
f 238/43/118 237/41/117 240/44/116
f 238/43/118 243/44/120 239/42/119
f 239/42/119 243/44/120 244/41/121
f 243/44/120 247/43/122 244/41/121
f 244/41/121 247/43/122 248/42/123
f 247/43/122 251/44/124 248/42/123
f 248/42/123 251/44/124 252/41/125
f 251/44/124 255/43/126 252/41/125
f 252/41/125 255/43/126 256/42/127
f 255/43/126 259/44/134 256/42/127
f 256/42/127 259/44/134 260/41/129
f 259/44/134 263/43/130 260/41/129
f 260/41/129 263/43/130 264/42/135
f 263/43/130 267/44/132 264/42/135
f 264/42/135 267/44/132 268/41/133
f 267/44/132 271/43/101 268/41/133
f 268/41/133 271/43/101 272/42/99
f 271/43/101 275/44/100 272/42/99
f 272/42/99 275/44/100 276/41/136
f 275/44/100 279/43/102 276/41/136
f 276/41/136 279/43/102 280/42/103
f 279/43/102 283/44/137 280/42/103
f 280/42/103 283/44/137 284/41/138
f 283/44/137 287/43/106 284/41/138
f 284/41/138 287/43/106 288/42/107
f 287/43/106 291/44/108 288/42/107
f 288/42/107 291/44/108 292/41/109
f 291/44/108 295/43/110 292/41/109
f 292/41/109 295/43/110 296/42/111
f 295/43/110 299/44/112 296/42/111
f 296/42/111 299/44/112 300/41/113
f 299/44/112 303/43/114 300/41/113
f 300/41/113 303/43/114 304/42/115
f 303/43/114 240/44/116 304/42/115
f 304/42/115 240/44/116 237/41/117
o tube2
v -5.542843 11.262770 10.287757
v -5.398787 7.625467 8.769244
v -3.169418 9.826061 9.770400
v -6.811709 8.480755 9.077231
v -6.763326 9.050216 7.717791
v -3.121036 10.395522 8.410958
v -5.350404 8.194927 7.409802
v -5.494460 11.832231 8.928313
v -4.381414 6.379732 8.283626
v -1.460440 7.733479 8.954659
v -1.412057 8.302940 7.595214
v -4.333032 6.949193 6.924182
v -3.882304 4.893806 7.678946
v -0.622036 5.237425 7.938919
v -0.573654 5.806885 6.579475
v -3.833921 5.463267 6.319502
v -3.961656 3.346912 7.028139
v -0.755330 2.638957 6.845696
v -0.706948 3.208417 5.486252
v -3.913273 3.916373 5.668695
v -4.609898 1.925629 6.409703
v -1.844245 0.251490 5.806849
v -1.795862 0.820950 4.447407
v -4.561515 2.495090 5.050261
v -5.748842 0.801384 5.898230
v -3.757441 -1.637013 4.947679
v -3.709058 -1.067552 3.588236
v -5.700459 1.370845 4.538788
v -7.241117 0.109779 5.555412
v -6.264160 -2.798770 4.371813
v -6.215777 -2.229309 3.012370
v -7.192734 0.679240 4.195969
v -8.906730 -0.065770 5.422596
v -9.062051 -3.093657 4.148710
v -9.013669 -2.524196 2.789266
v -8.858347 0.503691 4.063154
v -10.544785 0.295912 5.515803
v -11.813652 -2.486104 4.305278
v -11.765269 -1.916644 2.945836
v -10.496403 0.865372 4.156361
v -11.957708 1.151200 5.823791
v -14.187076 -1.049394 4.822636
v -14.138693 -0.479933 3.463192
v -11.909326 1.720661 4.464348
v -12.975079 2.396934 6.309411
v -15.896053 1.043187 5.638379
v -15.847671 1.612647 4.278936
v -12.926696 2.966395 4.949968
v -13.474189 3.882861 6.914091
v -16.734457 3.539242 6.654119
v -16.686075 4.108703 5.294675
v -13.425806 4.452322 5.554647
v -13.394837 5.429755 7.564897
v -16.601164 6.137710 7.747341
v -16.552782 6.707170 6.387897
v -13.346455 5.999215 6.205454
v -12.746594 6.851038 8.183331
v -15.512249 8.525177 8.786187
v -15.463867 9.094636 7.426744
v -12.698212 7.420497 6.823890
v -11.607651 7.975281 8.694804
v -13.599049 10.413679 9.645356
v -13.550667 10.983139 8.285914
v -11.559268 8.544743 7.335362
v -10.115376 8.666887 9.037623
v -11.092331 11.575436 10.221223
v -11.043948 12.144896 8.861779
v -10.066994 9.236348 7.678182
v -8.449762 8.842436 9.170440
v -8.294439 11.870323 10.444325
v -8.246058 12.439783 9.084884
v -8.401380 9.411896 7.810997
v -5.874706 11.294483 -10.521272
v -6.999482 8.491711 -9.219596
v -8.654054 11.738962 -10.727698
v -8.654055 8.756315 -9.342485
v -6.999481 9.112871 -7.882111
v -5.874706 11.915644 -9.183784
v -8.654053 9.377475 -8.004998
v -8.654053 12.360123 -9.390212
v -3.430592 10.014659 -9.926890
v -5.544476 7.729819 -8.865756
v -5.544476 8.350981 -7.528269
v -3.430591 10.635820 -8.589404
v -1.616505 8.053856 -9.016248
v -4.464531 6.562534 -8.323640
v -4.464531 7.183694 -6.986155
v -1.616504 8.675016 -7.678761
v -0.651248 5.648576 -7.899177
v -3.889905 5.130646 -7.658638
v -3.889904 5.751809 -6.321151
v -0.651248 6.269738 -6.561689
v -0.651250 3.088931 -6.710416
v -3.889906 3.606864 -6.950956
v -3.889906 4.228025 -5.613470
v -0.651250 3.710091 -5.372930
v -1.616509 0.683652 -5.593346
v -4.464533 2.174977 -6.285953
v -4.464533 2.796138 -4.948466
v -1.616508 1.304812 -4.255859
v -3.430600 -1.277149 -4.682703
v -5.544480 1.007694 -5.743838
v -5.544479 1.628854 -4.406352
v -3.430599 -0.655988 -3.345217
v -5.874716 -2.556970 -4.088323
v -6.999487 0.245802 -5.389997
v -6.999486 0.866963 -4.052512
v -5.874715 -1.935810 -2.750836
v -8.654062 -3.001446 -3.881897
v -8.654059 -0.018798 -5.267110
v -8.654059 0.602362 -3.929624
v -8.654061 -2.380286 -2.544411
v -11.433409 -2.556966 -4.088324
v -10.308632 0.245805 -5.389999
v -10.308632 0.866966 -4.052512
v -11.433407 -1.935805 -2.750837
v -13.877522 -1.277142 -4.682704
v -11.763638 1.007697 -5.743838
v -11.763638 1.628858 -4.406353
v -13.877522 -0.655981 -3.345218
v -15.691608 0.683661 -5.593349
v -12.843581 2.174983 -6.285955
v -12.843581 2.796144 -4.948468
v -15.691608 1.304822 -4.255862
v -16.656864 3.088942 -6.710418
v -13.418208 3.606871 -6.950958
v -13.418209 4.228032 -5.613472
v -16.656864 3.710103 -5.372932
v -16.656862 5.648587 -7.899179
v -13.418209 5.130652 -7.658639
v -13.418206 5.751814 -6.321153
v -16.656862 6.269747 -6.561694
v -15.691602 8.053864 -9.016250
v -12.843578 6.562540 -8.323642
v -12.843576 7.183701 -6.986156
v -15.691602 8.675027 -7.678762
v -13.877513 10.014666 -9.926892
v -11.763632 7.729824 -8.865758
v -11.763632 8.350983 -7.528270
v -13.877513 10.635827 -8.589406
v -11.433396 11.294487 -10.521274
v -10.308625 8.491714 -9.219598
v -10.308624 9.112872 -7.882111
v -11.433396 11.915647 -9.183787
vn -0.0328 -0.3862 0.9218
vn 0.0328 0.3862 -0.9218
vn 0.0328 0.3862 -0.9219
vn -0.0000 -0.4212 -0.9070
vn -0.0000 0.4212 0.9070
vt 0.500237 0.004584
vt 0.624864 0.004584
vt 0.519231 0.206584
vt 0.603687 0.206584
s 1
usemtl OBJECT01.01_-_Default
f 307/45/139 305/46/139 306/47/139
f 306/47/139 305/46/139 308/48/139
f 306/47/139 313/48/139 307/45/139
f 307/45/139 313/48/139 314/46/139
f 313/48/139 317/47/139 314/46/139
f 314/46/139 317/47/139 318/45/139
f 317/47/139 321/48/139 318/45/139
f 318/45/139 321/48/139 322/46/139
f 321/48/139 325/47/139 322/46/139
f 322/46/139 325/47/139 326/45/139
f 325/47/139 329/48/139 326/45/139
f 326/45/139 329/48/139 330/46/139
f 329/48/139 333/47/139 330/46/139
f 330/46/139 333/47/139 334/45/139
f 333/47/139 337/48/139 334/45/139
f 334/45/139 337/48/139 338/46/139
f 337/48/139 341/47/139 338/46/139
f 338/46/139 341/47/139 342/45/139
f 341/47/139 345/48/139 342/45/139
f 342/45/139 345/48/139 346/46/139
f 345/48/139 349/47/139 346/46/139
f 346/46/139 349/47/139 350/45/139
f 349/47/139 353/48/139 350/45/139
f 350/45/139 353/48/139 354/46/139
f 353/48/139 357/47/139 354/46/139
f 354/46/139 357/47/139 358/45/139
f 357/47/139 361/48/139 358/45/139
f 358/45/139 361/48/139 362/46/139
f 361/48/139 365/47/139 362/46/139
f 362/46/139 365/47/139 366/45/139
f 365/47/139 369/48/139 366/45/139
f 366/45/139 369/48/139 370/46/139
f 369/48/139 373/47/139 370/46/139
f 370/46/139 373/47/139 374/45/139
f 373/47/139 308/48/139 374/45/139
f 374/45/139 308/48/139 305/46/139
f 311/48/140 309/47/140 310/46/141
f 310/46/141 309/47/140 312/45/141
f 310/46/141 315/45/140 311/48/140
f 311/48/140 315/45/140 316/47/140
f 315/45/140 319/46/140 316/47/140
f 316/47/140 319/46/140 320/48/140
f 319/46/140 323/45/140 320/48/140
f 320/48/140 323/45/140 324/47/140
f 323/45/140 327/46/141 324/47/140
f 324/47/140 327/46/141 328/48/141
f 327/46/141 331/45/140 328/48/141
f 328/48/141 331/45/140 332/47/140
f 331/45/140 335/46/140 332/47/140
f 332/47/140 335/46/140 336/48/140
f 335/46/140 339/45/140 336/48/140
f 336/48/140 339/45/140 340/47/140
f 339/45/140 343/46/140 340/47/140
f 340/47/140 343/46/140 344/48/140
f 343/46/140 347/45/140 344/48/140
f 344/48/140 347/45/140 348/47/141
f 347/45/140 351/46/141 348/47/141
f 348/47/141 351/46/141 352/48/141
f 351/46/141 355/45/140 352/48/141
f 352/48/141 355/45/140 356/47/140
f 355/45/140 359/46/140 356/47/140
f 356/47/140 359/46/140 360/48/140
f 359/46/140 363/45/140 360/48/140
f 360/48/140 363/45/140 364/47/140
f 363/45/140 367/46/140 364/47/140
f 364/47/140 367/46/140 368/48/140
f 367/46/140 371/45/140 368/48/140
f 368/48/140 371/45/140 372/47/141
f 371/45/140 375/46/140 372/47/141
f 372/47/141 375/46/140 376/48/140
f 375/46/140 312/45/141 376/48/140
f 376/48/140 312/45/141 309/47/140
f 379/46/142 377/45/142 378/47/142
f 378/47/142 377/45/142 386/48/142
f 378/47/142 380/48/142 379/46/142
f 379/46/142 380/48/142 445/45/142
f 380/48/142 446/47/142 445/45/142
f 445/45/142 446/47/142 441/46/142
f 446/47/142 442/48/142 441/46/142
f 441/46/142 442/48/142 437/45/142
f 442/48/142 438/47/142 437/45/142
f 437/45/142 438/47/142 433/46/142
f 438/47/142 434/48/142 433/46/142
f 433/46/142 434/48/142 429/45/142
f 434/48/142 430/47/142 429/45/142
f 429/45/142 430/47/142 425/46/142
f 430/47/142 426/48/142 425/46/142
f 425/46/142 426/48/142 421/45/142
f 426/48/142 422/47/142 421/45/142
f 421/45/142 422/47/142 417/46/142
f 422/47/142 418/48/142 417/46/142
f 417/46/142 418/48/142 413/45/142
f 418/48/142 414/47/142 413/45/142
f 413/45/142 414/47/142 409/46/142
f 414/47/142 410/48/142 409/46/142
f 409/46/142 410/48/142 405/45/142
f 410/48/142 406/47/142 405/45/142
f 405/45/142 406/47/142 401/46/142
f 406/47/142 402/48/142 401/46/142
f 401/46/142 402/48/142 397/45/142
f 402/48/142 398/47/142 397/45/142
f 397/45/142 398/47/142 393/46/142
f 398/47/142 394/48/142 393/46/142
f 393/46/142 394/48/142 389/45/142
f 394/48/142 390/47/142 389/45/142
f 389/45/142 390/47/142 385/46/142
f 390/47/142 386/48/142 385/46/142
f 385/46/142 386/48/142 377/45/142
f 383/47/143 381/48/143 382/46/143
f 382/46/143 381/48/143 388/45/143
f 382/46/143 384/45/143 383/47/143
f 383/47/143 384/45/143 447/48/143
f 384/45/143 448/46/143 447/48/143
f 447/48/143 448/46/143 443/47/143
f 448/46/143 444/45/143 443/47/143
f 443/47/143 444/45/143 439/48/143
f 444/45/143 440/46/143 439/48/143
f 439/48/143 440/46/143 435/47/143
f 440/46/143 436/45/143 435/47/143
f 435/47/143 436/45/143 431/48/143
f 436/45/143 432/46/143 431/48/143
f 431/48/143 432/46/143 427/47/143
f 432/46/143 428/45/143 427/47/143
f 427/47/143 428/45/143 423/48/143
f 428/45/143 424/46/143 423/48/143
f 423/48/143 424/46/143 419/47/143
f 424/46/143 420/45/143 419/47/143
f 419/47/143 420/45/143 415/48/143
f 420/45/143 416/46/143 415/48/143
f 415/48/143 416/46/143 411/47/143
f 416/46/143 412/45/143 411/47/143
f 411/47/143 412/45/143 407/48/143
f 412/45/143 408/46/143 407/48/143
f 407/48/143 408/46/143 403/47/143
f 408/46/143 404/45/143 403/47/143
f 403/47/143 404/45/143 399/48/143
f 404/45/143 400/46/143 399/48/143
f 399/48/143 400/46/143 395/47/143
f 400/46/143 396/45/143 395/47/143
f 395/47/143 396/45/143 391/48/143
f 396/45/143 392/46/143 391/48/143
f 391/48/143 392/46/143 387/47/143
f 392/46/143 388/45/143 387/47/143
f 387/47/143 388/45/143 381/48/143
o turret
v -2.291374 4.208814 9.955531
v -6.878965 -0.298498 4.545890
v -2.291374 -0.298498 9.955529
v -6.878965 -0.298498 4.545890
v -2.291374 4.208814 9.955531
v -10.113735 4.208813 4.545890
v -2.252882 -0.298499 -9.975529
v -6.878965 -0.298499 -4.565889
v -2.252882 4.208813 -9.975529
v -10.113735 4.208813 -4.565888
v -2.252882 4.208813 -9.975529
v -6.878965 -0.298499 -4.565889
v 23.637550 2.335760 4.545891
v 22.403822 2.829563 4.545891
v 23.777363 0.545053 4.545890
v 8.188805 -0.298498 9.955529
v 8.188805 4.208814 9.955531
v -2.291374 -0.298498 9.955529
v -2.291374 4.208814 9.955531
v 23.777363 0.545053 4.545890
v 22.403822 2.829563 4.545891
v 22.241161 -0.298498 4.545891
v 8.188805 4.208813 4.545890
v 8.188805 -0.298498 4.545891
v 11.178967 7.210069 3.767393
v 22.232677 -0.298498 4.303516
v 19.725925 2.919951 4.303517
v 19.725925 -0.298498 6.406618
v 14.947983 -0.298498 6.406618
v 12.441233 -0.298498 4.303517
v 14.947982 2.919951 4.303517
v 22.403822 2.829562 -4.565892
v 11.178967 7.210069 -3.787394
v 22.403822 2.829563 4.545891
v 11.178967 7.210069 3.767393
v 23.637550 2.335760 4.545891
v 23.637550 2.335759 -4.565892
v 22.403822 2.829563 4.545891
v 22.403822 2.829562 -4.565892
v 23.777363 0.545053 4.545890
v 23.777363 0.545052 -4.565892
v 23.637550 2.335760 4.545891
v 23.637550 2.335759 -4.565892
v 22.241161 -0.298498 4.545891
v 22.241161 -0.298499 -4.565892
v 23.777363 0.545053 4.545890
v 23.777363 0.545052 -4.565892
v 8.188805 4.208813 -4.565890
v 8.188805 4.208813 4.545890
v 11.178967 7.210069 -3.787394
v 11.178967 7.210069 3.767393
v -6.878965 -0.298499 -4.565889
v -6.878965 -0.298498 4.545890
v -10.113735 4.208813 -4.565888
v -10.113735 4.208813 4.545890
v 8.188805 -0.298499 -9.975529
v -2.252882 -0.298499 -9.975529
v 8.188805 4.208813 -9.975529
v -2.252882 4.208813 -9.975529
v 23.637550 2.335759 -4.565892
v 23.777363 0.545052 -4.565892
v 22.403822 2.829562 -4.565892
v 22.241161 -0.298499 -4.565892
v 8.188805 -0.298499 -4.565890
v 8.188805 4.208813 -4.565890
v 22.241161 -0.298499 -4.565892
v 22.403822 2.829562 -4.565892
v 11.178967 7.210069 -3.787394
v 22.232676 -0.298499 -4.323517
v 19.725925 -0.298499 -6.426619
v 19.725925 2.919950 -4.323517
v 14.947982 -0.298499 -6.426618
v 14.947982 2.919950 -4.323517
v 12.441233 -0.298499 -4.323517
v 8.188805 4.208814 9.955531
v 8.188805 4.208813 4.545890
v -2.291374 4.208814 9.955531
v -10.113735 4.208813 4.545890
v 8.188805 4.208813 -4.565890
v -10.113735 4.208813 -4.565888
v -2.252882 4.208813 -9.975529
v 8.188805 4.208813 -9.975529
v 8.188805 4.208813 4.545890
v 8.188805 4.208814 9.955531
v 8.188805 -0.298498 4.545891
v 8.188805 -0.298498 9.955529
v 8.188805 -0.298499 -9.975529
v 8.188805 4.208813 -9.975529
v 8.188805 -0.298499 -4.565890
v 8.188805 4.208813 -4.565890
v 17.761377 -0.857907 3.046739
v 17.761377 1.576573 2.038344
v 17.761377 -1.866301 5.481218
v 17.761377 -1.866301 5.481218
v 17.761377 1.576573 2.038344
v 17.761377 1.576573 8.924092
v 17.761377 -0.857906 7.915698
v 17.761377 4.011053 7.915698
v 17.761377 1.576573 8.924092
v 17.761377 5.019447 5.481217
v 17.761377 4.011053 3.046737
v 3.874353 4.755735 8.660380
v -0.747276 3.824882 7.729527
v 3.874353 1.576573 9.977232
v -0.747276 1.576573 8.660806
v 3.874353 -1.602589 8.660380
v 3.874353 -1.602589 8.660380
v -0.747276 1.576573 8.660806
v -0.747276 -0.671735 7.729527
v 3.874353 -2.919441 5.481218
v -0.747276 -1.603016 5.481218
v 3.874353 -1.602589 2.302056
v -0.747276 -0.671736 3.232909
v 3.874353 1.576573 0.985204
v -0.747276 1.576573 2.301629
v 3.874353 4.755734 2.302055
v -0.747276 3.824882 3.232908
v 3.874353 6.072587 5.481216
v -0.747276 4.756161 5.481217
v 3.874353 4.755735 8.660380
v -0.747276 3.824882 7.729527
v 3.874353 4.755734 2.302055
v -0.747276 3.824882 3.232908
v 3.874353 6.072587 5.481216
v -0.747276 4.756161 5.481217
v 14.964075 1.576573 9.977232
v 17.761377 1.576573 8.924092
v 14.964075 4.755735 8.660380
v 17.761377 4.011053 7.915698
v 14.964075 -1.602589 8.660380
v 17.761377 -0.857906 7.915698
v 14.964075 1.576573 9.977232
v 14.964075 1.576573 9.977232
v 17.761377 -0.857906 7.915698
v 17.761377 1.576573 8.924092
v 17.761377 -0.857906 7.915698
v 14.964075 -1.602589 8.660380
v 17.761377 -1.866301 5.481218
v 14.964075 -2.919441 5.481218
v 17.761377 -0.857907 3.046739
v 14.964075 -1.602589 2.302056
v 17.761377 1.576573 2.038344
v 14.964075 1.576573 0.985204
v 17.761377 4.011053 3.046737
v 14.964075 4.755734 2.302055
v 14.964075 6.072587 5.481216
v 17.761377 5.019447 5.481217
v 14.964075 4.755734 2.302055
v 17.761377 4.011053 3.046737
v 14.964075 4.755735 8.660380
v 17.761377 4.011053 7.915698
v 14.964075 6.072587 5.481216
v 17.761377 5.019447 5.481217
v 14.964075 1.576573 9.977232
v 14.964075 4.755735 8.660380
v 3.874353 4.755735 8.660380
v 3.874353 6.072587 5.481216
v 14.964075 6.072587 5.481216
v 3.874353 4.755734 2.302055
v 14.964075 4.755734 2.302055
v 3.874353 1.576573 0.985204
v 14.964075 1.576573 0.985204
v 3.874353 -1.602589 2.302056
v 14.964075 -1.602589 2.302056
v 3.874353 -2.919441 5.481218
v 14.964075 -2.919441 5.481218
v 3.874353 -1.602589 8.660380
v 14.964075 -1.602589 8.660380
v 3.874353 1.576573 9.977232
v -0.747276 1.576573 8.660806
v -0.747276 3.824882 7.729527
v -11.349947 3.824882 7.729527
v -11.349947 3.824882 7.729527
v -0.747276 3.824882 7.729527
v -15.027933 4.756161 5.481217
v -0.747276 4.756161 5.481217
v -15.027933 4.756161 5.481217
v -0.747276 4.756161 5.481217
v -11.349947 3.824881 3.232908
v -0.747276 3.824882 3.232908
v -11.349947 3.824881 3.232908
v -0.747276 3.824882 3.232908
v -11.349947 1.576573 2.301629
v -0.747276 1.576573 2.301629
v -11.349947 -0.671737 3.232909
v -0.747276 -0.671736 3.232909
v -15.027933 -1.603016 5.481218
v -0.747276 -1.603016 5.481218
v -11.349947 -0.671735 7.729528
v -0.747276 -0.671735 7.729527
v -11.349947 1.576573 8.660806
v 17.761377 -0.857907 -2.846227
v 17.761377 -1.866301 -5.280707
v 17.761377 1.576573 -1.837832
v 17.761377 1.576573 -1.837832
v 17.761377 -1.866301 -5.280707
v 17.761377 1.576573 -8.723581
v 17.761377 5.019447 -5.280706
v 17.761377 5.019447 -5.280706
v 17.761377 1.576573 -8.723581
v 17.761377 4.011053 -7.715187
v 17.761377 -0.857906 -7.715187
v 17.761377 4.011053 -2.846227
v 3.874353 4.755735 -8.459869
v 3.874353 1.576573 -9.776721
v -0.747276 3.824881 -7.529016
v -0.747276 1.576573 -8.460296
v 3.874353 -1.602589 -8.459869
v -0.747276 1.576573 -8.460296
v 3.874353 -1.602589 -8.459869
v -0.747276 -0.671735 -7.529016
v 3.874353 -2.919441 -5.280707
v -0.747276 -1.603016 -5.280707
v 3.874353 -1.602589 -2.101544
v -0.747276 -0.671736 -3.032398
v 3.874353 1.576573 -0.784693
v -0.747276 1.576573 -2.101118
v -0.747276 3.824881 -3.032398
v 3.874353 4.755735 -2.101545
v 3.874353 6.072587 -5.280706
v 3.874353 4.755735 -8.459869
v -0.747276 4.756162 -5.280706
v -0.747276 3.824881 -7.529016
v 3.874353 4.755735 -2.101545
v 3.874353 6.072587 -5.280706
v -0.747276 3.824881 -3.032398
v -0.747276 4.756162 -5.280706
v 14.964075 1.576573 -9.776721
v 14.964075 4.755735 -8.459869
v 17.761377 1.576573 -8.723581
v 17.761377 4.011053 -7.715187
v 14.964075 -1.602589 -8.459869
v 14.964075 1.576573 -9.776721
v 17.761377 -0.857906 -7.715187
v 17.761377 -0.857906 -7.715187
v 14.964075 1.576573 -9.776721
v 17.761377 1.576573 -8.723581
v 17.761377 -0.857906 -7.715187
v 17.761377 -1.866301 -5.280707
v 14.964075 -1.602589 -8.459869
v 14.964075 -2.919441 -5.280707
v 17.761377 -0.857907 -2.846227
v 14.964075 -1.602589 -2.101544
v 17.761377 1.576573 -1.837832
v 14.964075 1.576573 -0.784693
v 14.964075 4.755735 -2.101545
v 17.761377 4.011053 -2.846227
v 14.964075 6.072587 -5.280706
v 14.964075 4.755735 -2.101545
v 17.761377 5.019447 -5.280706
v 17.761377 4.011053 -2.846227
v 14.964075 4.755735 -8.459869
v 14.964075 6.072587 -5.280706
v 17.761377 4.011053 -7.715187
v 17.761377 5.019447 -5.280706
v 14.964075 1.576573 -9.776721
v 3.874353 4.755735 -8.459869
v 14.964075 4.755735 -8.459869
v 3.874353 6.072587 -5.280706
v 14.964075 6.072587 -5.280706
v 3.874353 4.755735 -2.101545
v 14.964075 4.755735 -2.101545
v 3.874353 1.576573 -0.784693
v 14.964075 1.576573 -0.784693
v 3.874353 -1.602589 -2.101544
v 14.964075 -1.602589 -2.101544
v 3.874353 -2.919441 -5.280707
v 14.964075 -2.919441 -5.280707
v 3.874353 -1.602589 -8.459869
v 14.964075 -1.602589 -8.459869
v 3.874353 1.576573 -9.776721
v -0.747276 1.576573 -8.460296
v -11.349947 3.824881 -7.529016
v -0.747276 3.824881 -7.529016
v -0.747276 3.824881 -7.529016
v -11.349947 3.824881 -7.529016
v -15.027933 4.756162 -5.280706
v -0.747276 4.756162 -5.280706
v -0.747276 4.756162 -5.280706
v -15.027933 4.756162 -5.280706
v -11.349947 3.824881 -3.032398
v -0.747276 3.824881 -3.032398
v -0.747276 3.824881 -3.032398
v -11.349947 3.824881 -3.032398
v -11.349947 1.576573 -2.101118
v -0.747276 1.576573 -2.101118
v -11.349947 -0.671737 -3.032398
v -0.747276 -0.671736 -3.032398
v -15.027933 -1.603016 -5.280707
v -0.747276 -1.603016 -5.280707
v -11.349947 -0.671735 -7.529017
v -0.747276 -0.671735 -7.529016
v -11.349947 1.576573 -8.460296
v -5.511562 3.800965 5.527211
v 2.293167 3.800965 5.527211
v -5.511562 3.213371 6.945786
v -5.511562 3.213371 6.945786
v 2.293167 3.800965 5.527211
v 2.293167 3.213371 6.945786
v 2.293167 4.734555 7.575881
v 2.293167 5.322149 6.157306
v -5.511562 4.734555 7.575881
v -5.511562 4.734555 7.575881
v 2.293167 5.322149 6.157306
v -5.511562 5.322149 6.157306
v 2.293167 3.213371 6.945786
v 2.293167 4.734555 7.575881
v -5.511562 3.213371 6.945786
v -5.511562 4.734555 7.575881
v 2.293167 3.800965 5.527211
v 2.293167 5.322149 6.157306
v 2.293167 3.213371 6.945786
v 2.293167 3.213371 6.945786
v 2.293167 5.322149 6.157306
v 2.293167 4.734555 7.575881
v -5.511562 3.800965 5.527211
v -5.511562 5.322149 6.157306
v 2.293167 3.800965 5.527211
v 2.293167 5.322149 6.157306
v -5.511562 3.213371 6.945786
v -5.511562 4.734555 7.575881
v -5.511562 3.800965 5.527211
v -5.511562 5.322149 6.157306
v -5.511564 3.800964 -5.326511
v -5.511564 3.213370 -6.745089
v 2.293168 3.800964 -5.326511
v 2.293168 3.800964 -5.326511
v -5.511564 3.213370 -6.745089
v 2.293168 3.213370 -6.745089
v 2.293168 4.734555 -7.375185
v -5.511564 4.734555 -7.375185
v 2.293168 5.322149 -5.956606
v 2.293168 5.322149 -5.956606
v -5.511564 4.734555 -7.375185
v -5.511564 5.322149 -5.956606
v 2.293168 3.213370 -6.745089
v -5.511564 3.213370 -6.745089
v 2.293168 4.734555 -7.375185
v -5.511564 4.734555 -7.375185
v 2.293168 3.800964 -5.326511
v 2.293168 3.213370 -6.745089
v 2.293168 5.322149 -5.956606
v 2.293168 5.322149 -5.956606
v 2.293168 3.213370 -6.745089
v 2.293168 4.734555 -7.375185
v -5.511564 3.800964 -5.326511
v 2.293168 3.800964 -5.326511
v -5.511564 5.322149 -5.956606
v 2.293168 5.322149 -5.956606
v -5.511564 3.213370 -6.745089
v -5.511564 3.800964 -5.326511
v -5.511564 4.734555 -7.375185
v -5.511564 5.322149 -5.956606
vn -0.7627 -0.0000 0.6468
vn -0.5266 -0.3779 0.7615
vn -0.7600 -0.0000 -0.6499
vn -0.5251 -0.3769 -0.7630
vn -0.0000 -0.0000 1.0000
vn 1.0000 -0.0000 -0.0000
vn 0.3285 -0.3614 0.8726
vn 0.3285 -0.3614 -0.8726
vn -0.0000 -0.9239 -0.3827
vn -0.0000 0.9239 0.3827
vn -0.0000 -0.9239 0.3827
vn -0.0000 0.9239 -0.3827
vn 0.0075 0.0772 0.9970
vn 0.0223 0.2301 0.9729
vn 0.5747 0.4476 0.6850
vn 0.1999 0.5360 0.8202
vn 0.3014 0.5216 0.7982
vn -0.1999 0.5360 0.8202
vn -0.5747 0.4476 0.6850
vn -0.3013 0.5216 0.7982
vn 0.3635 0.9316 -0.0000
vn 0.3716 0.9284 -0.0000
vn 0.9970 0.0778 -0.0000
vn 0.4813 -0.8765 -0.0000
vn -0.7084 0.7058 -0.0000
vn -0.8124 -0.5831 -0.0000
vn -0.0000 -0.0000 -1.0000
vn 0.0075 0.0772 -0.9970
vn 0.0112 0.1159 -0.9932
vn 0.0223 0.2301 -0.9729
vn 0.5747 0.4476 -0.6850
vn 0.3014 0.5216 -0.7982
vn 0.1999 0.5360 -0.8202
vn -0.1999 0.5360 -0.8202
vn -0.3013 0.5216 -0.7982
vn -0.5747 0.4476 -0.6850
vn -0.0000 1.0000 -0.0000
vn -0.2545 0.3701 0.8935
vn -0.2716 0.1316 0.9534
vn -0.2740 0.0001 0.9617
vn -0.2545 -0.3701 0.8935
vn -0.2715 -0.7672 0.5810
vn -0.2740 -0.6801 0.6800
vn -0.2716 -0.9534 0.1316
vn -0.2715 -0.9534 -0.1317
vn -0.2716 -0.7672 -0.5810
vn -0.2715 -0.5810 -0.7672
vn -0.2716 -0.1316 -0.9534
vn -0.2715 0.1317 -0.9534
vn -0.2545 0.3701 -0.8935
vn -0.2545 0.8935 0.3701
vn -0.2545 0.8935 -0.3701
vn 0.3285 0.3614 0.8726
vn 0.3285 -0.8726 0.3614
vn 0.3494 -0.9282 0.1282
vn 0.3494 -0.9282 -0.1281
vn 0.3494 -0.7469 -0.5657
vn 0.3494 -0.5657 -0.7469
vn 0.3494 -0.1282 -0.9282
vn 0.3494 0.1281 -0.9282
vn 0.3285 0.3614 -0.8726
vn 0.3285 0.8726 -0.3614
vn 0.3285 0.8726 0.3614
vn -0.0000 0.7972 0.6037
vn -0.0000 0.6037 0.7972
vn -0.0000 0.1368 0.9906
vn -0.0000 -0.1368 0.9906
vn -0.0000 -0.6037 0.7972
vn -0.0000 -0.7972 0.6037
vn -0.0000 -0.9906 0.1368
vn -0.0000 -0.9906 -0.1368
vn -0.0000 -0.7972 -0.6037
vn -0.0000 -0.6037 -0.7972
vn -0.0000 -0.1368 -0.9906
vn -0.0000 0.1368 -0.9906
vn -0.0000 0.6037 -0.7972
vn -0.0000 0.7972 -0.6037
vn -0.2715 0.1316 -0.9534
vn -0.2739 0.0001 -0.9618
vn -0.2545 -0.3701 -0.8935
vn -0.2739 -0.6801 -0.6801
vn -0.2715 -0.7672 -0.5810
vn -0.2715 -0.9534 -0.1316
vn -0.2715 -0.9534 0.1317
vn -0.2715 -0.5810 0.7672
vn -0.2715 -0.1316 0.9534
vn -0.2715 0.1317 0.9534
vn 0.3285 -0.8726 -0.3614
vn 0.3494 -0.9282 -0.1282
vn 0.3494 -0.7469 0.5657
vn 0.3494 -0.5657 0.7469
vn 0.3494 -0.1282 0.9282
vn 0.3494 0.1282 0.9282
vn -0.0001 0.1368 -0.9906
vn 0.0001 -0.1368 -0.9906
vn 0.0001 -0.6037 -0.7972
vn -0.0001 -0.7972 0.6037
vn -0.0000 -0.3827 0.9239
vn -0.0000 0.3827 -0.9239
vn -1.0000 -0.0000 -0.0000
vn -0.0000 -0.3827 -0.9239
vn -0.0000 0.3827 0.9239
vn -0.0000 0.9906 0.1368
vn -0.0000 0.9906 -0.1368
vn 0.0001 0.6037 -0.7972
vn -0.0001 0.9906 0.1368
vt 0.480469 0.640625
vt 0.593750 0.558594
vt 0.480469 0.558594
vt 0.593750 0.640625
vt 0.492188 1.000000
vt 0.503906 0.933594
vt 0.457031 1.000000
vt 0.066564 0.548668
vt 0.088075 0.557578
vt 0.057653 0.527156
vt 0.118498 0.527156
vt 0.109587 0.548668
vt 0.088075 0.496734
vt 0.109587 0.505644
vt 0.300911 0.293053
vt 0.301225 0.213619
vt 0.401864 0.293053
vt 0.401550 0.213619
vt 0.066564 0.505644
vt 0.280581 0.606668
vt 0.188018 0.606668
vt 0.280581 0.514105
vt 0.188018 0.514105
vt 0.839844 0.457031
vt 0.839844 0.535156
vt 1.000000 0.457031
vt 1.000000 0.535156
vt 0.437500 0.972656
vt 0.531250 0.640625
vt 0.437500 0.640625
vt 0.593750 0.703125
vt -0.007812 0.882812
vt 0.062500 0.976562
vt 0.062500 0.882812
vt 0.203125 0.882812
vt 0.273438 0.882812
vt 0.203125 0.976562
vt 0.000000 0.882812
vt 0.375000 0.863281
vt 0.000000 0.667969
vt 0.375000 0.687500
vt 0.617188 0.457031
vt 0.429688 0.457031
vt 0.617188 0.531250
vt 0.429688 0.531250
vt 0.562500 0.019531
vt 0.562500 0.191406
vt 0.519531 0.019531
vt 0.519531 0.191406
vt 0.605469 0.019531
vt 0.605469 0.191406
vt 0.843750 0.457031
vt 0.617188 0.535156
vt 0.843750 0.535156
vt 1.000000 0.558594
vt 1.000000 0.679688
vt 0.761719 0.558594
vt 0.593750 0.679688
vt 1.000000 0.882812
vt 0.593750 0.882812
vt 0.761719 1.000000
vt 1.000000 1.000000
vt 0.730469 0.535156
vt 0.617188 0.453125
vt 0.730469 0.453125
vt 0.810582 0.107952
vt 0.794176 0.107952
vt 0.794171 0.068334
vt 0.782571 0.079934
vt 0.754552 0.051923
vt 0.754552 0.068328
vt 0.714934 0.068334
vt 0.726534 0.079934
vt 0.698523 0.107952
vt 0.714928 0.107952
vt 0.714934 0.147571
vt 0.726534 0.135971
vt 0.754552 0.163982
vt 0.754552 0.147576
vt 0.868274 0.067367
vt 0.851982 0.178656
vt 0.756985 0.067367
vt 0.773278 0.178656
vt 0.864045 0.071941
vt 0.849092 0.174082
vt 0.761904 0.071941
vt 0.776857 0.174082
vt 0.236334 0.293780
vt 0.236234 0.214272
vt 0.301214 0.293780
vt 0.301314 0.214272
vt 0.891774 0.816564
vt 0.887711 0.827007
vt 0.871522 0.797174
vt 0.861265 0.801686
vt 0.870913 0.769143
vt 0.860470 0.765081
vt 0.890303 0.748891
vt 0.885791 0.738634
vt 0.918334 0.748282
vt 0.922396 0.737839
vt 0.157911 0.293648
vt 0.157339 0.215176
vt 0.236459 0.293648
vt 0.236273 0.214716
vt 0.059267 0.293723
vt 0.059647 0.215729
vt 0.157700 0.293723
vt 0.157320 0.215729
vt 0.990375 0.451360
vt 0.668778 0.451360
vt 0.988982 0.426386
vt 0.667386 0.426386
vt 0.989327 0.395641
vt 0.667730 0.395641
vt 0.991206 0.377137
vt 0.650269 0.377137
vt 0.993519 0.381711
vt 0.671923 0.381711
vt 0.994911 0.406686
vt 0.673315 0.406686
vt 0.994567 0.437430
vt 0.672971 0.437430
vt -0.884568 0.296708
vt -0.578890 0.296708
vt -1.000936 0.217840
vt -0.578612 0.217840
vt -0.884013 0.296708
vt -0.578335 0.296708
vt -0.882617 0.296708
vt -0.998419 0.217840
vt -0.579072 0.296708
vt -0.578970 0.217840
vt -0.882411 0.296708
vt -0.578867 0.296708
vt 0.995152 0.038051
vt 0.995152 0.110628
vt 0.488423 0.110628
vt 0.488423 0.183205
vt 0.995152 0.183205
vt 0.488423 0.213268
vt 0.995152 0.213268
vt 0.488423 0.038051
vt 0.488423 0.007988
vt 0.995152 0.007988
s 1
usemtl TURRET01.01_-_Default
f 449/49/144 450/50/144 451/51/144
f 452/50/145 453/49/145 454/52/145
f 455/51/146 456/50/146 457/49/146
f 458/52/147 459/49/147 460/50/147
f 461/53/148 462/54/148 463/55/148
f 539/56/149 540/57/149 541/58/149
f 548/59/149 543/57/149 549/60/149
f 540/57/149 548/59/149 547/61/149
f 547/61/149 548/59/149 546/62/149
f 578/63/150 579/64/150 580/65/150
f 581/65/150 582/64/150 583/66/150
f 640/56/149 641/58/149 642/57/149
f 648/61/149 641/58/149 650/67/149
f 647/59/149 648/61/149 649/62/149
f 647/59/149 651/60/149 643/57/149
f 680/63/151 681/65/151 682/64/151
f 683/64/151 684/65/151 685/66/151
f 742/68/152 743/69/152 744/70/152
f 745/70/152 746/69/152 747/71/152
f 748/70/153 749/68/153 750/71/153
f 751/71/153 752/68/153 753/69/153
f 758/70/149 759/68/149 760/71/149
f 761/71/149 762/68/149 763/69/149
f 772/68/154 773/70/154 774/69/154
f 775/69/154 776/70/154 777/71/154
f 778/70/155 779/71/155 780/68/155
f 781/68/155 782/71/155 783/69/155
f 788/70/149 789/71/149 790/68/149
f 791/68/149 792/71/149 793/69/149
f 644/58/149 645/61/149 643/57/149
f 643/57/149 645/61/149 646/59/149
f 543/57/149 544/61/149 542/58/149
f 542/58/149 544/61/149 545/67/149
f 464/72/148 465/73/148 466/74/148
f 466/74/148 465/73/148 467/75/148
f 468/55/148 469/54/156 470/76/148
f 470/76/148 469/54/156 471/77/156
f 470/76/148 471/77/156 472/78/148
f 471/77/156 469/54/156 473/79/157
f 474/80/158 475/81/159 476/82/160
f 476/82/160 475/81/159 477/83/161
f 478/84/162 477/83/161 479/85/163
f 479/85/163 477/83/161 475/81/159
f 480/86/164 481/87/164 482/88/164
f 482/88/164 481/87/164 483/89/164
f 484/90/165 485/91/165 486/92/165
f 486/92/165 485/91/165 487/93/165
f 488/94/166 489/95/166 490/96/166
f 490/96/166 489/95/166 491/97/166
f 492/98/167 493/99/167 494/94/167
f 494/94/167 493/99/167 495/95/167
f 496/93/168 497/92/168 498/91/168
f 498/91/168 497/92/168 499/90/168
f 500/90/169 501/100/169 502/101/169
f 502/101/169 501/100/169 503/102/169
f 504/72/170 505/74/170 506/73/170
f 506/73/170 505/74/170 507/75/170
f 508/53/170 509/55/170 510/54/170
f 510/54/170 509/55/170 511/76/170
f 512/78/170 513/77/171 514/76/170
f 514/76/170 513/77/171 515/54/172
f 516/79/173 515/54/172 513/77/171
f 517/80/174 518/82/175 519/81/176
f 519/81/176 518/82/175 520/83/177
f 519/81/176 520/83/177 521/85/178
f 521/85/178 520/83/177 522/84/179
f 523/103/180 524/104/180 525/105/180
f 525/105/180 524/104/180 526/106/180
f 524/104/180 527/107/180 526/106/180
f 526/106/180 527/107/180 528/108/180
f 529/109/180 528/108/180 530/110/180
f 530/110/180 528/108/180 527/107/180
f 531/101/149 532/111/149 533/112/149
f 533/112/149 532/111/149 534/113/149
f 535/113/149 536/111/149 537/112/149
f 537/112/149 536/111/149 538/101/149
f 550/114/181 551/115/181 552/116/182
f 552/116/182 551/115/181 553/117/183
f 552/116/182 553/117/183 554/118/184
f 556/117/184 557/119/185 555/118/186
f 555/118/186 557/119/185 558/120/187
f 557/119/185 559/121/188 558/120/187
f 558/120/187 559/121/188 560/122/189
f 559/121/188 561/123/190 560/122/189
f 560/122/189 561/123/190 562/124/191
f 561/123/190 563/125/192 562/124/191
f 562/124/191 563/125/192 564/126/193
f 564/126/193 563/125/192 565/127/193
f 566/128/194 567/129/194 568/130/194
f 568/130/194 567/129/194 569/131/194
f 570/132/195 571/133/195 572/134/195
f 572/134/195 571/133/195 573/135/195
f 574/136/196 575/137/196 576/138/196
f 576/138/196 575/137/196 577/139/196
f 584/140/197 585/141/197 586/142/198
f 586/142/198 585/141/197 587/143/199
f 586/142/198 587/143/199 588/144/200
f 588/144/200 587/143/199 589/145/201
f 588/144/200 589/145/201 590/146/202
f 590/146/202 589/145/201 591/147/203
f 590/146/202 591/147/203 592/148/204
f 592/148/204 591/147/203 593/149/204
f 594/150/205 595/151/205 596/152/205
f 596/152/205 595/151/205 597/153/205
f 598/154/206 599/155/206 600/156/206
f 600/156/206 599/155/206 601/157/206
f 619/158/207 620/159/208 618/160/209
f 618/160/209 620/159/208 639/161/210
f 618/160/209 639/161/210 638/162/211
f 638/162/211 639/161/210 637/163/212
f 638/162/211 637/163/212 636/164/213
f 636/164/213 637/163/212 635/165/214
f 636/164/213 635/165/214 634/166/215
f 634/166/215 635/165/214 633/167/216
f 634/166/215 633/167/216 632/168/217
f 632/168/217 633/167/216 631/169/218
f 632/168/217 631/169/218 630/170/219
f 630/170/219 631/169/218 629/171/220
f 621/172/208 622/173/207 623/174/153
f 623/174/153 622/173/207 624/175/153
f 625/174/155 626/175/155 627/176/220
f 627/176/220 626/175/155 628/177/219
f 652/114/193 653/116/221 654/115/193
f 654/115/193 653/116/221 655/117/222
f 653/116/221 656/118/223 655/117/222
f 657/117/223 658/118/224 659/119/225
f 659/119/225 658/118/224 660/120/226
f 659/119/225 660/120/226 661/121/227
f 661/121/227 660/120/226 662/122/185
f 661/121/227 662/122/185 663/123/228
f 663/123/228 662/122/185 664/124/229
f 663/123/228 664/124/229 665/125/230
f 665/125/230 664/124/229 667/126/181
f 665/125/230 667/126/181 666/127/181
f 668/128/195 669/130/195 670/129/195
f 670/129/195 669/130/195 671/131/195
f 672/132/194 673/134/194 674/133/194
f 674/133/194 673/134/194 675/135/194
f 676/136/204 677/138/204 678/137/204
f 678/137/204 677/138/204 679/139/204
f 686/140/231 687/142/232 688/141/231
f 688/141/231 687/142/232 689/143/198
f 687/142/232 690/144/233 689/143/198
f 689/143/198 690/144/233 691/145/234
f 690/144/233 692/146/235 691/145/234
f 691/145/234 692/146/235 693/147/236
f 694/149/196 693/147/236 695/148/196
f 695/148/196 693/147/236 692/146/235
f 696/150/206 697/152/206 698/151/206
f 698/151/206 697/152/206 699/153/206
f 700/154/205 701/156/205 702/155/205
f 702/155/205 701/156/205 703/157/205
f 722/158/220 720/160/237 721/159/219
f 721/159/219 720/160/237 741/161/238
f 720/160/237 740/162/239 741/161/238
f 741/161/238 740/162/239 739/163/215
f 740/162/239 738/164/214 739/163/215
f 739/163/215 738/164/214 737/165/213
f 738/164/214 736/166/240 737/165/213
f 737/165/213 736/166/240 735/167/211
f 736/166/240 734/168/210 735/167/211
f 735/167/211 734/168/210 733/169/209
f 732/171/207 733/169/209 731/170/208
f 731/170/208 733/169/209 734/168/210
f 724/178/219 725/179/155 723/180/220
f 723/180/220 725/179/155 726/181/155
f 728/179/153 729/182/207 727/181/153
f 727/181/153 729/182/207 730/183/208
f 754/70/241 755/68/241 756/71/241
f 756/71/241 755/68/241 757/69/241
f 764/70/242 765/68/242 766/71/242
f 766/71/242 765/68/242 767/69/242
f 768/70/243 769/68/243 770/71/243
f 770/71/243 769/68/243 771/69/243
f 784/70/244 785/71/244 786/68/244
f 786/68/244 785/71/244 787/69/244
f 794/70/245 795/71/245 796/68/245
f 796/68/245 795/71/245 797/69/245
f 798/70/243 799/71/243 800/68/243
f 800/68/243 799/71/243 801/69/243
f 602/184/209 603/185/207 604/186/208
f 604/186/208 603/185/207 605/187/246
f 603/185/207 606/188/247 605/187/246
f 605/187/246 606/188/247 607/189/220
f 606/188/247 608/190/219 607/189/220
f 607/189/220 608/190/219 609/187/218
f 608/190/219 610/188/217 609/187/218
f 609/187/218 610/188/217 611/186/216
f 610/188/217 612/185/215 611/186/216
f 611/186/216 612/185/215 613/191/214
f 612/185/215 614/184/213 613/191/214
f 613/191/214 614/184/213 615/192/212
f 614/184/213 616/193/211 615/192/212
f 615/192/212 616/193/211 617/191/210
f 616/193/211 602/184/209 617/191/210
f 617/191/210 602/184/209 604/186/208
f 706/185/220 704/184/218 705/186/248
f 705/186/248 704/184/218 719/191/217
f 705/186/248 707/187/247 706/185/220
f 706/185/220 707/187/247 708/188/249
f 707/187/247 709/189/207 708/188/249
f 708/188/249 709/189/207 710/190/208
f 709/189/207 711/187/209 710/190/208
f 710/190/208 711/187/209 712/188/210
f 711/187/209 713/186/211 712/188/210
f 712/188/210 713/186/211 714/185/212
f 713/186/211 715/191/213 714/185/212
f 714/185/212 715/191/213 716/184/214
f 715/191/213 717/192/215 716/184/214
f 716/184/214 717/192/215 718/193/216
f 717/192/215 719/191/217 718/193/216
f 718/193/216 719/191/217 704/184/218
