# Blender 5.1.2
# www.blender.org
mtllib v9.mtl
o gun2
v 16.410027 0.699561 0.706573
v 17.176060 0.998154 0.291043
v 17.176060 0.544499 0.549961
v 16.410027 1.054137 0.504204
v 17.176060 1.520492 0.293640
v 16.410027 1.462393 0.506235
v 17.176060 1.971550 0.557060
v 16.410027 1.814938 0.712122
v 16.410027 1.814938 0.712122
v 17.176060 2.230469 1.010715
v 17.176060 1.971550 0.557060
v 16.410027 2.017307 1.066698
v 17.176060 2.227870 1.533053
v 16.410027 2.015276 1.474954
v 17.176060 1.964451 1.984112
v 16.410027 1.809389 1.827499
v 16.410027 1.809389 1.827499
v 17.176060 1.510795 2.243030
v 17.176060 1.964451 1.984112
v 16.410027 1.454813 2.029868
v 17.176060 0.988458 2.240431
v 16.410027 1.046557 2.027837
v 17.176060 0.537399 1.977013
v 16.410027 0.694012 1.821950
v 16.410027 0.694012 1.821950
v 17.176060 0.278481 1.523356
v 17.176060 0.537399 1.977013
v 16.410027 0.491643 1.467375
v 17.176060 0.281079 1.001019
v 16.410027 0.493674 1.059118
v 17.176060 0.544499 0.549961
v 16.410027 0.699561 0.706573
v 17.176060 0.544499 0.549961
v 20.478943 1.039705 0.449253
v 20.478943 0.659587 0.666200
v 17.176060 0.998154 0.291043
v 20.478943 1.477370 0.451430
v 17.176060 1.520492 0.293640
v 20.478943 1.855311 0.672148
v 17.176060 1.971550 0.557060
v 17.176060 1.971550 0.557060
v 20.478943 2.072259 1.052266
v 20.478943 1.855311 0.672148
v 17.176060 2.230469 1.010715
v 20.478943 2.070082 1.489931
v 17.176060 2.227870 1.533053
v 20.478943 1.849363 1.867872
v 17.176060 1.964451 1.984112
v 17.176060 1.964451 1.984112
v 20.478943 1.469245 2.084819
v 20.478943 1.849363 1.867872
v 17.176060 1.510795 2.243030
v 20.478943 1.031580 2.082643
v 17.176060 0.988458 2.240431
v 20.478943 0.653638 1.861924
v 17.176060 0.537399 1.977013
v 17.176060 0.537399 1.977013
v 20.478943 0.436692 1.481805
v 20.478943 0.653638 1.861924
v 17.176060 0.278481 1.523356
v 20.478943 0.438868 1.044140
v 17.176060 0.281079 1.001019
v 20.478943 0.659587 0.666200
v 17.176060 0.544499 0.549961
v 20.478943 1.254475 1.267036
v 20.478943 0.659587 0.666200
v 20.478943 1.039705 0.449253
v 20.478943 1.477370 0.451430
v 20.478943 1.855311 0.672148
v 20.478943 2.072259 1.052266
v 20.478943 2.070082 1.489931
v 20.478943 1.849363 1.867872
v 20.478943 1.469245 2.084819
v 20.478943 1.031580 2.082643
v 20.478943 0.653638 1.861924
v 20.478943 0.436692 1.481805
v 20.478943 0.438868 1.044140
v 3.416695 0.260206 0.262824
v 4.413092 1.026063 0.397307
v 4.413092 0.621800 0.628034
v 3.416695 0.895517 -0.099772
v 4.413092 1.491529 0.399622
v 3.416695 1.627013 -0.096133
v 4.413092 1.893477 0.634360
v 3.416695 2.258687 0.272766
v 3.416695 2.258687 0.272766
v 4.413092 2.124206 1.038624
v 4.413092 1.893477 0.634360
v 3.416695 2.621283 0.908079
v 4.413092 2.121888 1.504090
v 3.416695 2.617643 1.639573
v 4.413092 1.887151 1.906037
v 3.416695 2.248744 2.271248
v 3.416695 2.248744 2.271248
v 4.413092 1.482887 2.136765
v 4.413092 1.887151 1.906037
v 3.416695 1.613431 2.633844
v 4.413092 1.017422 2.134450
v 3.416695 0.881938 2.630204
v 4.413092 0.615473 1.899711
v 3.416695 0.250265 2.261305
v 3.416695 0.250265 2.261305
v 4.413092 0.384745 1.495448
v 4.413092 0.615473 1.899711
v 3.416695 -0.112332 1.625993
v 4.413092 0.387061 1.029982
v 3.416695 -0.108695 0.894498
v 4.413092 0.621800 0.628034
v 3.416695 0.260206 0.262824
v 16.410027 -0.699573 -0.706565
v 17.176060 -0.998167 -0.291034
v 17.176060 -0.544511 -0.549953
v 16.410027 -1.054149 -0.504196
v 17.176060 -1.520504 -0.293632
v 16.410027 -1.462404 -0.506227
v 17.176060 -1.971562 -0.557051
v 16.410027 -1.814951 -0.712113
v 16.410027 -1.814951 -0.712113
v 17.176060 -2.230480 -1.010708
v 17.176060 -1.971562 -0.557051
v 16.410027 -2.017320 -1.066689
v 17.176060 -2.227883 -1.533045
v 16.410027 -2.015288 -1.474946
v 17.176060 -1.964463 -1.984103
v 16.410027 -1.809403 -1.827490
v 16.410027 -1.809403 -1.827490
v 17.176060 -1.510807 -2.243022
v 17.176060 -1.964463 -1.984103
v 16.410027 -1.454826 -2.029860
v 17.176060 -0.988471 -2.240423
v 16.410027 -1.046570 -2.027829
v 17.176060 -0.537413 -1.977004
v 16.410027 -0.694025 -1.821942
v 16.410027 -0.694025 -1.821942
v 17.176060 -0.278494 -1.523348
v 17.176060 -0.537413 -1.977004
v 16.410027 -0.491656 -1.467367
v 17.176060 -0.281093 -1.001011
v 16.410027 -0.493686 -1.059110
v 17.176060 -0.544511 -0.549953
v 16.410027 -0.699573 -0.706565
v 17.176060 -0.544511 -0.549953
v 20.478943 -1.039716 -0.449246
v 20.478943 -0.659599 -0.666192
v 17.176060 -0.998167 -0.291034
v 20.478943 -1.477383 -0.451422
v 17.176060 -1.520504 -0.293632
v 20.478943 -1.855324 -0.672139
v 17.176060 -1.971562 -0.557051
v 17.176060 -1.971562 -0.557051
v 20.478943 -2.072272 -1.052258
v 20.478943 -1.855324 -0.672139
v 17.176060 -2.230480 -1.010708
v 20.478943 -2.070094 -1.489922
v 17.176060 -2.227883 -1.533045
v 20.478943 -1.849375 -1.867865
v 17.176060 -1.964463 -1.984103
v 17.176060 -1.964463 -1.984103
v 20.478943 -1.469258 -2.084811
v 20.478943 -1.849375 -1.867865
v 17.176060 -1.510807 -2.243022
v 20.478943 -1.031592 -2.082635
v 17.176060 -0.988471 -2.240423
v 20.478943 -0.653652 -1.861916
v 17.176060 -0.537413 -1.977004
v 17.176060 -0.537413 -1.977004
v 20.478943 -0.436704 -1.481798
v 20.478943 -0.653652 -1.861916
v 17.176060 -0.278494 -1.523348
v 20.478943 -0.438881 -1.044133
v 17.176060 -0.281093 -1.001011
v 20.478943 -0.659599 -0.666192
v 17.176060 -0.544511 -0.549953
v 20.478943 -1.254488 -1.267027
v 20.478943 -0.659599 -0.666192
v 20.478943 -1.039716 -0.449246
v 20.478943 -1.477383 -0.451422
v 20.478943 -1.855324 -0.672139
v 20.478943 -2.072272 -1.052258
v 20.478943 -2.070094 -1.489922
v 20.478943 -1.849375 -1.867865
v 20.478943 -1.469258 -2.084811
v 20.478943 -1.031592 -2.082635
v 20.478943 -0.653652 -1.861916
v 20.478943 -0.436704 -1.481798
v 20.478943 -0.438881 -1.044133
v 3.416695 -0.260218 -0.262816
v 4.413092 -1.026075 -0.397298
v 4.413092 -0.621811 -0.628026
v 3.416695 -0.895530 0.099780
v 4.413092 -1.491541 -0.399614
v 3.416695 -1.627025 0.096141
v 4.413092 -1.893489 -0.634351
v 3.416695 -2.258699 -0.272757
v 3.416695 -2.258699 -0.272757
v 4.413092 -2.124216 -1.038616
v 4.413092 -1.893489 -0.634351
v 3.416695 -2.621296 -0.908070
v 4.413092 -2.121902 -1.504081
v 3.416695 -2.617655 -1.639565
v 4.413092 -1.887163 -1.906030
v 3.416695 -2.248759 -2.271239
v 3.416695 -2.248759 -2.271239
v 4.413092 -1.482901 -2.136756
v 4.413092 -1.887163 -1.906030
v 3.416695 -1.613446 -2.633836
v 4.413092 -1.017434 -2.134442
v 3.416695 -0.881951 -2.630197
v 4.413092 -0.615487 -1.899703
v 3.416695 -0.250277 -2.261297
v 3.416695 -0.250277 -2.261297
v 4.413092 -0.384758 -1.495440
v 4.413092 -0.615487 -1.899703
v 3.416695 0.112320 -1.625986
v 4.413092 -0.387074 -1.029974
v 3.416695 0.108680 -0.894490
v 4.413092 -0.621811 -0.628026
v 3.416695 -0.260218 -0.262816
v 16.410027 0.706564 -0.699564
v 17.176060 0.291033 -0.998158
v 17.176060 0.549951 -0.544501
v 16.410027 0.504195 -1.054139
v 17.176060 0.293632 -1.520495
v 16.410027 0.506225 -1.462395
v 17.176060 0.557050 -1.971553
v 16.410027 0.712112 -1.814940
v 16.410027 0.712112 -1.814940
v 17.176060 1.010706 -2.230471
v 17.176060 0.557050 -1.971553
v 16.410027 1.066688 -2.017309
v 17.176060 1.533044 -2.227872
v 16.410027 1.474944 -2.015279
v 17.176060 1.984102 -1.964454
v 16.410027 1.827489 -1.809392
v 16.410027 1.827489 -1.809392
v 17.176060 2.243020 -1.510797
v 17.176060 1.984102 -1.964454
v 16.410027 2.029859 -1.454816
v 17.176060 2.240422 -0.988460
v 16.410027 2.027827 -1.046559
v 17.176060 1.977003 -0.537401
v 16.410027 1.821941 -0.694014
v 16.410027 1.821941 -0.694014
v 17.176060 1.523346 -0.278484
v 17.176060 1.977003 -0.537401
v 16.410027 1.467364 -0.491645
v 17.176060 1.001009 -0.281082
v 16.410027 1.059108 -0.493676
v 17.176060 0.549951 -0.544501
v 16.410027 0.706564 -0.699564
v 17.176060 0.549951 -0.544501
v 20.478943 0.449243 -1.039707
v 20.478943 0.666190 -0.659590
v 17.176060 0.291033 -0.998158
v 20.478943 0.451421 -1.477372
v 17.176060 0.293632 -1.520495
v 20.478943 0.672138 -1.855314
v 17.176060 0.557050 -1.971553
v 17.176060 0.557050 -1.971553
v 20.478943 1.052258 -2.072262
v 20.478943 0.672138 -1.855314
v 17.176060 1.010706 -2.230471
v 20.478943 1.489923 -2.070084
v 17.176060 1.533044 -2.227872
v 20.478943 1.867863 -1.849365
v 17.176060 1.984102 -1.964454
v 17.176060 1.984102 -1.964454
v 20.478943 2.084811 -1.469248
v 20.478943 1.867863 -1.849365
v 17.176060 2.243020 -1.510797
v 20.478943 2.082633 -1.031582
v 17.176060 2.240422 -0.988460
v 20.478943 1.861914 -0.653641
v 17.176060 1.977003 -0.537401
v 17.176060 1.977003 -0.537401
v 20.478943 1.481796 -0.436694
v 20.478943 1.861914 -0.653641
v 17.176060 1.523346 -0.278484
v 20.478943 1.044131 -0.438871
v 17.176060 1.001009 -0.281082
v 20.478943 0.666190 -0.659590
v 17.176060 0.549951 -0.544501
v 20.478943 1.267026 -1.254477
v 20.478943 0.666190 -0.659590
v 20.478943 0.449243 -1.039707
v 20.478943 0.451421 -1.477372
v 20.478943 0.672138 -1.855314
v 20.478943 1.052258 -2.072262
v 20.478943 1.489923 -2.070084
v 20.478943 1.867863 -1.849365
v 20.478943 2.084811 -1.469248
v 20.478943 2.082633 -1.031582
v 20.478943 1.861914 -0.653641
v 20.478943 1.481796 -0.436694
v 20.478943 1.044131 -0.438871
v 3.416695 0.262815 -0.260208
v 4.413092 0.397296 -1.026065
v 4.413092 0.628025 -0.621802
v 3.416695 -0.099781 -0.895521
v 4.413092 0.399612 -1.491532
v 3.416695 -0.096143 -1.627016
v 4.413092 0.634350 -1.893479
v 3.416695 0.272757 -2.258689
v 3.416695 0.272757 -2.258689
v 4.413092 1.038615 -2.124207
v 4.413092 0.634350 -1.893479
v 3.416695 0.908070 -2.621285
v 4.413092 1.504081 -2.121891
v 3.416695 1.639563 -2.617646
v 4.413092 1.906028 -1.887153
v 3.416695 2.271237 -2.248747
v 3.416695 2.271237 -2.248747
v 4.413092 2.136757 -1.482890
v 4.413092 1.906028 -1.887153
v 3.416695 2.633834 -1.613435
v 4.413092 2.134440 -1.017423
v 3.416695 2.630195 -0.881940
v 4.413092 1.899702 -0.615475
v 3.416695 2.261297 -0.250266
v 3.416695 2.261297 -0.250266
v 4.413092 1.495438 -0.384748
v 4.413092 1.899702 -0.615475
v 3.416695 1.625983 0.112330
v 4.413092 1.029972 -0.387063
v 3.416695 0.894490 0.108691
v 4.413092 0.628025 -0.621802
v 3.416695 0.262815 -0.260208
v 16.410027 -0.706576 0.699570
v 17.176060 -0.291045 0.998165
v 17.176060 -0.549963 0.544508
v 16.410027 -0.504206 1.054146
v 17.176060 -0.293643 1.520502
v 16.410027 -0.506239 1.462402
v 17.176060 -0.557063 1.971560
v 16.410027 -0.712126 1.814948
v 16.410027 -0.712126 1.814948
v 17.176060 -1.010720 2.230479
v 17.176060 -0.557063 1.971560
v 16.410027 -1.066701 2.017317
v 17.176060 -1.533056 2.227879
v 16.410027 -1.474957 2.015285
v 17.176060 -1.984113 1.964459
v 16.410027 -1.827500 1.809397
v 16.410027 -1.827500 1.809397
v 17.176060 -2.243031 1.510803
v 17.176060 -1.984113 1.964459
v 16.410027 -2.029871 1.454823
v 17.176060 -2.240434 0.988467
v 16.410027 -2.027839 1.046566
v 17.176060 -1.977015 0.537409
v 16.410027 -1.821953 0.694022
v 16.410027 -1.821953 0.694022
v 17.176060 -1.523357 0.278491
v 17.176060 -1.977015 0.537409
v 16.410027 -1.467378 0.491653
v 17.176060 -1.001022 0.281090
v 16.410027 -1.059121 0.493684
v 17.176060 -0.549963 0.544508
v 16.410027 -0.706576 0.699570
v 17.176060 -0.549963 0.544508
v 20.478943 -0.449256 1.039715
v 20.478943 -0.666202 0.659596
v 17.176060 -0.291045 0.998165
v 20.478943 -0.451432 1.477380
v 17.176060 -0.293643 1.520502
v 20.478943 -0.672151 1.855321
v 17.176060 -0.557063 1.971560
v 17.176060 -0.557063 1.971560
v 20.478943 -1.052269 2.072267
v 20.478943 -0.672151 1.855321
v 17.176060 -1.010720 2.230479
v 20.478943 -1.489934 2.070090
v 17.176060 -1.533056 2.227879
v 20.478943 -1.867875 1.849372
v 17.176060 -1.984113 1.964459
v 17.176060 -1.984113 1.964459
v 20.478943 -2.084823 1.469254
v 20.478943 -1.867875 1.849372
v 17.176060 -2.243031 1.510803
v 20.478943 -2.082644 1.031588
v 17.176060 -2.240434 0.988467
v 20.478943 -1.861927 0.653648
v 17.176060 -1.977015 0.537409
v 17.176060 -1.977015 0.537409
v 20.478943 -1.481809 0.436701
v 20.478943 -1.861927 0.653648
v 17.176060 -1.523357 0.278491
v 20.478943 -1.044143 0.438878
v 17.176060 -1.001022 0.281090
v 20.478943 -0.666202 0.659596
v 17.176060 -0.549963 0.544508
v 20.478943 -1.267038 1.254485
v 20.478943 -0.666202 0.659596
v 20.478943 -0.449256 1.039715
v 20.478943 -0.451432 1.477380
v 20.478943 -0.672151 1.855321
v 20.478943 -1.052269 2.072267
v 20.478943 -1.489934 2.070090
v 20.478943 -1.867875 1.849372
v 20.478943 -2.084823 1.469254
v 20.478943 -2.082644 1.031588
v 20.478943 -1.861927 0.653648
v 20.478943 -1.481809 0.436701
v 20.478943 -1.044143 0.438878
v 3.416695 -0.262827 0.260215
v 4.413092 -0.397309 1.026072
v 4.413092 -0.628037 0.621809
v 3.416695 0.099769 0.895527
v 4.413092 -0.399625 1.491539
v 3.416695 0.096131 1.627022
v 4.413092 -0.634362 1.893486
v 3.416695 -0.272769 2.258696
v 3.416695 -0.272769 2.258696
v 4.413092 -1.038626 2.124213
v 4.413092 -0.634362 1.893486
v 3.416695 -0.908081 2.621292
v 4.413092 -1.504093 2.121899
v 3.416695 -1.639576 2.617653
v 4.413092 -1.906040 1.887160
v 3.416695 -2.271251 2.248754
v 3.416695 -2.271251 2.248754
v 4.413092 -2.136768 1.482897
v 4.413092 -1.906040 1.887160
v 3.416695 -2.633847 1.613442
v 4.413092 -2.134452 1.017430
v 3.416695 -2.630206 0.881947
v 4.413092 -1.899715 0.615483
v 3.416695 -2.261308 0.250273
v 3.416695 -2.261308 0.250273
v 4.413092 -1.495451 0.384755
v 4.413092 -1.899715 0.615483
v 3.416695 -1.625996 -0.112323
v 4.413092 -1.029985 0.387071
v 3.416695 -0.894501 -0.108684
v 4.413092 -0.628037 0.621809
v 3.416695 -0.262827 0.260215
vn -0.2755 -0.7344 -0.6203
vn -0.1253 -0.7035 -0.6996
vn -0.1153 -0.2508 -0.9612
vn -0.1254 -0.7035 -0.6996
vn -0.1253 -0.2595 -0.9576
vn -0.1153 -0.2507 -0.9612
vn -0.1153 0.2634 -0.9578
vn -0.1253 -0.2594 -0.9576
vn -0.1253 0.2541 -0.9590
vn -0.1153 0.2635 -0.9578
vn -0.2755 0.6202 -0.7345
vn -0.1253 0.6995 -0.7035
vn -0.2755 0.6203 -0.7344
vn -0.1253 0.6996 -0.7035
vn -0.1153 0.9612 -0.2508
vn -0.1253 0.9576 -0.2595
vn -0.1153 0.9612 -0.2507
vn -0.1153 0.9578 0.2634
vn -0.1253 0.9590 0.2541
vn -0.1153 0.9578 0.2635
vn -0.2755 0.7345 0.6202
vn -0.1253 0.7035 0.6995
vn -0.2755 0.7344 0.6203
vn -0.1253 0.7035 0.6996
vn -0.1153 0.2508 0.9611
vn -0.1153 0.2508 0.9612
vn -0.1253 0.2595 0.9576
vn -0.1153 0.2507 0.9612
vn -0.1153 -0.2634 0.9578
vn -0.1253 0.2594 0.9576
vn -0.1253 -0.2541 0.9590
vn -0.1153 -0.2635 0.9578
vn -0.2755 -0.6202 0.7345
vn -0.1253 -0.6995 0.7035
vn -0.2755 -0.6203 0.7344
vn -0.1253 -0.6996 0.7035
vn -0.1153 -0.9612 0.2508
vn -0.1253 -0.9576 0.2595
vn -0.1153 -0.9612 0.2507
vn -0.1153 -0.9578 -0.2634
vn -0.1253 -0.9590 -0.2541
vn -0.1153 -0.9578 -0.2635
vn -0.2755 -0.7345 -0.6202
vn -0.1253 -0.7035 -0.6995
vn 0.0493 -0.7631 -0.6445
vn 0.0493 -0.3387 -0.9396
vn 0.0493 -0.3386 -0.9396
vn -0.1152 -0.2508 -0.9612
vn 0.0493 0.1765 -0.9831
vn 0.0493 0.1766 -0.9831
vn -0.1152 0.2634 -0.9578
vn 0.0493 0.6444 -0.7631
vn -0.2754 0.6202 -0.7345
vn 0.0493 0.9396 -0.3387
vn 0.0493 0.9396 -0.3386
vn -0.1152 0.9612 -0.2508
vn 0.0493 0.9831 0.1765
vn 0.0493 0.9831 0.1766
vn -0.1152 0.9578 0.2634
vn 0.0493 0.7631 0.6444
vn -0.2754 0.7345 0.6202
vn 0.0493 0.3387 0.9396
vn 0.0493 0.3386 0.9396
vn -0.1152 0.2508 0.9612
vn 0.0493 -0.1765 0.9831
vn 0.0493 -0.1766 0.9831
vn -0.1152 -0.2634 0.9578
vn 0.0493 -0.6444 0.7631
vn -0.2754 -0.6202 0.7345
vn 0.0493 -0.6445 0.7631
vn 0.0493 -0.9396 0.3387
vn 0.0493 -0.9396 0.3386
vn -0.1152 -0.9612 0.2508
vn 0.0493 -0.9831 -0.1765
vn 0.0493 -0.9831 -0.1766
vn -0.1152 -0.9578 -0.2634
vn 0.0493 -0.7631 -0.6444
vn -0.2754 -0.7345 -0.6202
vn 0.2253 -0.6778 -0.6999
vn 0.2204 -0.6939 -0.6855
vn 0.2252 -0.2371 -0.9450
vn 0.2253 -0.2371 -0.9450
vn 0.2205 -0.6939 -0.6855
vn 0.2205 -0.2582 -0.9406
vn 0.2253 -0.2370 -0.9450
vn 0.2204 -0.2581 -0.9406
vn 0.2252 0.2672 -0.9370
vn 0.2253 0.2672 -0.9369
vn 0.2205 0.2467 -0.9437
vn 0.2204 0.2468 -0.9437
vn 0.2252 0.6999 -0.6778
vn 0.2253 0.6999 -0.6778
vn 0.2205 0.6855 -0.6939
vn 0.2204 0.6855 -0.6939
vn 0.2252 0.9450 -0.2371
vn 0.2253 0.9450 -0.2371
vn 0.2205 0.9406 -0.2582
vn 0.2253 0.9450 -0.2370
vn 0.2204 0.9406 -0.2581
vn 0.2252 0.9370 0.2672
vn 0.2253 0.9369 0.2672
vn 0.2205 0.9437 0.2467
vn 0.2204 0.9437 0.2468
vn 0.2252 0.6778 0.6999
vn 0.2253 0.6778 0.6999
vn 0.2205 0.6939 0.6855
vn 0.2204 0.6939 0.6855
vn 0.2252 0.2371 0.9450
vn 0.2253 0.2371 0.9450
vn 0.2205 0.2582 0.9406
vn 0.2204 0.2581 0.9406
vn 0.2252 -0.2672 0.9370
vn 0.2253 -0.2672 0.9369
vn 0.2205 -0.2467 0.9437
vn 0.2204 -0.2468 0.9437
vn 0.2252 -0.6999 0.6778
vn 0.2253 -0.6999 0.6778
vn 0.2205 -0.6855 0.6939
vn 0.2204 -0.6855 0.6939
vn 0.2252 -0.9450 0.2371
vn 0.2253 -0.9450 0.2371
vn 0.2205 -0.9406 0.2582
vn 0.2253 -0.9450 0.2370
vn 0.2204 -0.9406 0.2581
vn 0.2252 -0.9370 -0.2672
vn 0.2253 -0.9369 -0.2672
vn 0.2205 -0.9437 -0.2467
vn 0.2204 -0.9437 -0.2468
vn 0.2252 -0.6778 -0.6999
vn -0.1253 -0.9576 0.2594
vn 0.0493 0.7631 0.6445
vn 0.2253 0.2370 0.9450
vn 0.2252 -0.6998 0.6778
vn 0.2205 -0.6938 -0.6856
vn 0.2205 0.2468 -0.9437
vn -0.1153 -0.9611 0.2508
vn 0.2205 -0.6855 0.6938
vn -0.1253 0.9576 -0.2594
vn -0.1153 -0.9578 -0.2633
vn 0.0493 0.6445 -0.7631
vn 1.0000 -0.0000 -0.0000
vt 0.175125 0.435684
vt 0.129277 0.429612
vt 0.175125 0.417205
vt 0.129277 0.415169
vt 0.175125 0.395867
vt 0.129277 0.398491
vt 0.175125 0.377388
vt 0.129277 0.384048
vt 0.129277 0.429612
vt 0.175125 0.417205
vt 0.175125 0.395867
vt 0.311928 0.377000
vt 0.175298 0.377000
vt 0.311928 0.398087
vt 0.175298 0.396312
vt 0.311928 0.416436
vt 0.175298 0.418211
vt 0.311928 0.435470
vt 0.175298 0.435470
vt 0.226300 0.719078
vt 0.052741 0.744739
vt 0.226300 0.692188
vt 0.052741 0.702480
vt 0.226300 0.661138
vt 0.052741 0.653685
vt 0.226300 0.634248
vt 0.052741 0.611427
vt 1.369055 -0.578159
vt 1.343079 -0.593156
vt 1.373073 -0.593156
vt 1.369055 -0.608154
vt 1.358076 -0.619132
vt 1.343079 -0.623151
vt 1.328081 -0.619132
vt 1.317102 -0.608154
vt 1.313084 -0.593156
vt 1.317102 -0.578159
vt 1.328081 -0.567180
vt 1.343079 -0.563162
vt 1.358076 -0.567180
s 0
usemtl HOUSECOLOR05.002.01_-_Default
f 3/1/1 1/2/2 2/3/3
f 2/3/3 1/2/4 4/4/5
f 2/3/6 4/4/5 5/5/7
f 5/5/7 4/4/8 6/6/9
f 5/5/10 6/6/9 7/7/11
f 7/7/11 6/6/9 8/8/12
f 11/1/13 9/9/14 10/3/15
f 10/3/15 9/9/14 12/4/16
f 10/3/17 12/4/16 13/5/18
f 13/5/18 12/4/16 14/6/19
f 13/5/20 14/6/19 15/7/21
f 15/7/21 14/6/19 16/8/22
f 19/1/23 17/9/24 18/10/25
f 18/10/26 17/9/24 20/4/27
f 18/10/28 20/4/27 21/5/29
f 21/5/29 20/4/30 22/6/31
f 21/5/32 22/6/31 23/7/33
f 23/7/33 22/6/31 24/8/34
f 27/1/35 25/9/36 26/3/37
f 26/3/37 25/9/36 28/4/38
f 26/3/39 28/4/38 29/11/40
f 29/11/40 28/4/38 30/6/41
f 29/11/42 30/6/41 31/7/43
f 31/7/43 30/6/41 32/8/44
f 35/12/45 33/13/1 34/14/46
f 34/14/46 33/13/1 36/15/3
f 34/14/47 36/15/48 37/16/49
f 37/16/49 36/15/6 38/17/7
f 37/16/50 38/17/51 39/18/52
f 39/18/52 38/17/7 40/19/53
f 43/12/52 41/13/13 42/14/54
f 42/14/54 41/13/13 44/15/15
f 42/14/55 44/15/56 45/16/57
f 45/16/57 44/15/17 46/17/18
f 45/16/58 46/17/59 47/18/60
f 47/18/60 46/17/18 48/19/61
f 51/12/60 49/13/23 50/14/62
f 50/14/62 49/13/23 52/15/26
f 50/14/63 52/15/64 53/16/65
f 53/16/65 52/15/28 54/17/29
f 53/16/66 54/17/67 55/18/68
f 55/18/68 54/17/29 56/19/69
f 59/12/70 57/13/35 58/14/71
f 58/14/71 57/13/35 60/15/37
f 58/14/72 60/15/73 61/16/74
f 61/16/74 60/15/39 62/17/40
f 61/16/75 62/17/76 63/18/77
f 63/18/77 62/17/40 64/19/78
f 80/20/79 78/21/80 79/22/81
f 79/22/82 78/21/83 81/23/84
f 79/22/85 81/23/86 82/24/87
f 82/24/88 81/23/84 83/25/89
f 82/24/88 83/25/90 84/26/91
f 84/26/92 83/25/89 85/27/93
f 88/20/92 86/21/94 87/22/95
f 87/22/96 86/21/93 89/23/97
f 87/22/98 89/23/99 90/24/100
f 90/24/101 89/23/97 91/25/102
f 90/24/101 91/25/103 92/26/104
f 92/26/105 91/25/102 93/27/106
f 96/20/105 94/21/107 95/22/108
f 95/22/109 94/21/106 97/23/110
f 95/22/109 97/23/111 98/24/112
f 98/24/113 97/23/110 99/25/114
f 98/24/113 99/25/115 100/26/116
f 100/26/117 99/25/114 101/27/118
f 104/20/117 102/21/119 103/22/120
f 103/22/121 102/21/118 105/23/122
f 103/22/123 105/23/124 106/24/125
f 106/24/126 105/23/122 107/25/127
f 106/24/126 107/25/128 108/26/129
f 108/26/79 107/25/127 109/27/83
f 112/1/23 110/2/24 111/3/26
f 111/3/26 110/2/24 113/4/27
f 111/3/28 113/4/27 114/5/29
f 114/5/29 113/4/30 115/6/31
f 114/5/32 115/6/31 116/7/33
f 116/7/33 115/6/31 117/8/34
f 120/1/35 118/9/36 119/3/37
f 119/3/37 118/9/36 121/4/38
f 119/3/39 121/4/130 122/5/40
f 122/5/40 121/4/38 123/6/41
f 122/5/42 123/6/41 124/7/43
f 124/7/43 123/6/41 125/8/44
f 128/1/1 126/9/2 127/10/3
f 127/10/3 126/9/2 129/4/5
f 127/10/6 129/4/5 130/5/7
f 130/5/7 129/4/5 131/6/9
f 130/5/10 131/6/9 132/7/11
f 132/7/11 131/6/9 133/8/12
f 136/1/13 134/9/14 135/3/15
f 135/3/15 134/9/14 137/4/16
f 135/3/17 137/4/16 138/11/18
f 138/11/18 137/4/16 139/6/19
f 138/11/20 139/6/19 140/7/21
f 140/7/21 139/6/19 141/8/22
f 144/12/131 142/13/23 143/14/62
f 143/14/62 142/13/23 145/15/26
f 143/14/63 145/15/64 146/16/65
f 146/16/65 145/15/28 147/17/29
f 146/16/66 147/17/67 148/18/68
f 148/18/68 147/17/29 149/19/69
f 152/12/68 150/13/35 151/14/71
f 151/14/71 150/13/35 153/15/37
f 151/14/72 153/15/73 154/16/74
f 154/16/74 153/15/39 155/17/40
f 154/16/75 155/17/76 156/18/77
f 156/18/77 155/17/40 157/19/78
f 160/12/77 158/13/1 159/14/46
f 159/14/46 158/13/1 161/15/3
f 159/14/47 161/15/48 162/16/49
f 162/16/49 161/15/6 163/17/7
f 162/16/50 163/17/51 164/18/52
f 164/18/52 163/17/7 165/19/53
f 168/12/52 166/13/13 167/14/54
f 167/14/54 166/13/13 169/15/15
f 167/14/55 169/15/56 170/16/57
f 170/16/57 169/15/17 171/17/18
f 170/16/58 171/17/59 172/18/60
f 172/18/60 171/17/18 173/19/61
f 189/20/105 187/21/107 188/22/108
f 188/22/109 187/21/106 190/23/110
f 188/22/132 190/23/111 191/24/112
f 191/24/113 190/23/110 192/25/114
f 191/24/113 192/25/115 193/26/133
f 193/26/117 192/25/114 194/27/118
f 197/20/117 195/21/119 196/22/120
f 196/22/121 195/21/118 198/23/122
f 196/22/123 198/23/124 199/24/125
f 199/24/126 198/23/122 200/25/127
f 199/24/126 200/25/128 201/26/129
f 201/26/79 200/25/127 202/27/83
f 205/20/79 203/21/134 204/22/81
f 204/22/82 203/21/83 206/23/84
f 204/22/85 206/23/86 207/24/87
f 207/24/88 206/23/84 208/25/89
f 207/24/88 208/25/135 209/26/91
f 209/26/92 208/25/89 210/27/93
f 213/20/92 211/21/94 212/22/95
f 212/22/96 211/21/93 214/23/97
f 212/22/98 214/23/99 215/24/100
f 215/24/101 214/23/97 216/25/102
f 215/24/101 216/25/103 217/26/104
f 217/26/105 216/25/102 218/27/106
f 221/1/35 219/2/36 220/3/37
f 220/3/136 219/2/36 222/4/38
f 220/3/39 222/4/130 223/5/40
f 223/5/40 222/4/38 224/6/41
f 223/5/42 224/6/41 225/7/43
f 225/7/43 224/6/41 226/8/44
f 229/1/1 227/9/2 228/3/3
f 228/3/3 227/9/2 230/4/5
f 228/3/6 230/4/5 231/5/7
f 231/5/7 230/4/8 232/6/9
f 231/5/10 232/6/9 233/7/11
f 233/7/11 232/6/9 234/8/12
f 237/1/13 235/9/14 236/10/15
f 236/10/15 235/9/14 238/4/16
f 236/10/17 238/4/16 239/5/18
f 239/5/18 238/4/16 240/6/19
f 239/5/20 240/6/19 241/7/21
f 241/7/21 240/6/19 242/8/22
f 245/1/23 243/9/24 244/3/26
f 244/3/26 243/9/24 246/4/27
f 244/3/28 246/4/27 247/11/29
f 247/11/29 246/4/30 248/6/31
f 247/11/32 248/6/31 249/7/33
f 249/7/33 248/6/31 250/8/34
f 253/12/68 251/13/35 252/14/71
f 252/14/71 251/13/35 254/15/37
f 252/14/72 254/15/73 255/16/74
f 255/16/74 254/15/39 256/17/40
f 255/16/75 256/17/76 257/18/77
f 257/18/77 256/17/40 258/19/78
f 261/12/77 259/13/1 260/14/46
f 260/14/46 259/13/1 262/15/3
f 260/14/47 262/15/48 263/16/49
f 263/16/49 262/15/6 264/17/7
f 263/16/50 264/17/51 265/18/52
f 265/18/52 264/17/7 266/19/53
f 269/12/52 267/13/13 268/14/54
f 268/14/54 267/13/13 270/15/15
f 268/14/55 270/15/56 271/16/57
f 271/16/57 270/15/17 272/17/18
f 271/16/58 272/17/59 273/18/60
f 273/18/60 272/17/18 274/19/61
f 277/12/131 275/13/23 276/14/62
f 276/14/62 275/13/23 278/15/26
f 276/14/63 278/15/64 279/16/65
f 279/16/65 278/15/28 280/17/29
f 279/16/66 280/17/67 281/18/68
f 281/18/68 280/17/29 282/19/69
f 298/20/117 296/21/119 297/22/120
f 297/22/121 296/21/137 299/23/122
f 297/22/123 299/23/124 300/24/125
f 300/24/126 299/23/122 301/25/127
f 300/24/126 301/25/128 302/26/129
f 302/26/79 301/25/127 303/27/83
f 306/20/79 304/21/80 305/22/81
f 305/22/82 304/21/83 307/23/84
f 305/22/85 307/23/86 308/24/87
f 308/24/88 307/23/84 309/25/89
f 308/24/88 309/25/90 310/26/91
f 310/26/92 309/25/89 311/27/93
f 314/20/92 312/21/94 313/22/95
f 313/22/96 312/21/93 315/23/97
f 313/22/98 315/23/99 316/24/100
f 316/24/101 315/23/97 317/25/102
f 316/24/101 317/25/103 318/26/104
f 318/26/105 317/25/102 319/27/106
f 322/20/105 320/21/107 321/22/108
f 321/22/109 320/21/106 323/23/110
f 321/22/132 323/23/111 324/24/112
f 324/24/113 323/23/110 325/25/114
f 324/24/113 325/25/115 326/26/116
f 326/26/117 325/25/114 327/27/118
f 330/1/13 328/2/14 329/3/15
f 329/3/15 328/2/14 331/4/16
f 329/3/17 331/4/138 332/5/18
f 332/5/18 331/4/16 333/6/19
f 332/5/20 333/6/19 334/7/21
f 334/7/21 333/6/19 335/8/22
f 338/1/23 336/9/24 337/3/26
f 337/3/26 336/9/24 339/4/27
f 337/3/28 339/4/27 340/5/29
f 340/5/29 339/4/30 341/6/31
f 340/5/32 341/6/31 342/7/33
f 342/7/33 341/6/31 343/8/34
f 346/1/35 344/9/36 345/10/37
f 345/10/37 344/9/36 347/4/38
f 345/10/39 347/4/38 348/5/40
f 348/5/139 347/4/38 349/6/41
f 348/5/42 349/6/41 350/7/43
f 350/7/43 349/6/41 351/8/44
f 354/1/1 352/9/2 353/3/3
f 353/3/3 352/9/2 355/4/5
f 353/3/6 355/4/5 356/11/7
f 356/11/7 355/4/8 357/6/9
f 356/11/10 357/6/9 358/7/11
f 358/7/11 357/6/9 359/8/12
f 362/12/140 360/13/13 361/14/54
f 361/14/54 360/13/13 363/15/15
f 361/14/55 363/15/56 364/16/57
f 364/16/57 363/15/17 365/17/18
f 364/16/58 365/17/59 366/18/60
f 366/18/60 365/17/18 367/19/61
f 370/12/131 368/13/23 369/14/62
f 369/14/62 368/13/23 371/15/26
f 369/14/63 371/15/64 372/16/65
f 372/16/65 371/15/28 373/17/29
f 372/16/66 373/17/67 374/18/68
f 374/18/68 373/17/29 375/19/69
f 378/12/68 376/13/35 377/14/71
f 377/14/71 376/13/35 379/15/37
f 377/14/72 379/15/73 380/16/74
f 380/16/74 379/15/39 381/17/40
f 380/16/75 381/17/76 382/18/77
f 382/18/77 381/17/40 383/19/78
f 386/12/45 384/13/1 385/14/46
f 385/14/46 384/13/1 387/15/3
f 385/14/47 387/15/48 388/16/49
f 388/16/49 387/15/6 389/17/7
f 388/16/50 389/17/51 390/18/52
f 390/18/52 389/17/7 391/19/53
f 407/20/92 405/21/94 406/22/95
f 406/22/96 405/21/93 408/23/97
f 406/22/98 408/23/99 409/24/100
f 409/24/101 408/23/97 410/25/102
f 409/24/101 410/25/103 411/26/104
f 411/26/105 410/25/102 412/27/106
f 415/20/105 413/21/107 414/22/108
f 414/22/109 413/21/106 416/23/110
f 414/22/109 416/23/111 417/24/112
f 417/24/113 416/23/110 418/25/114
f 417/24/113 418/25/115 419/26/116
f 419/26/117 418/25/114 420/27/118
f 423/20/117 421/21/119 422/22/120
f 422/22/121 421/21/118 424/23/122
f 422/22/123 424/23/124 425/24/125
f 425/24/126 424/23/122 426/25/127
f 425/24/126 426/25/128 427/26/129
f 427/26/79 426/25/127 428/27/83
f 431/20/79 429/21/80 430/22/81
f 430/22/82 429/21/83 432/23/84
f 430/22/85 432/23/86 433/24/87
f 433/24/88 432/23/84 434/25/89
f 433/24/88 434/25/90 435/26/91
f 435/26/92 434/25/89 436/27/93
f 67/28/141 65/29/141 66/30/141
f 66/30/141 65/29/141 77/31/141
f 77/31/141 65/29/141 76/32/141
f 76/32/141 65/29/141 75/33/141
f 75/33/141 65/29/141 74/34/141
f 74/34/141 65/29/141 73/35/141
f 73/35/141 65/29/141 72/36/141
f 72/36/141 65/29/141 71/37/141
f 71/37/141 65/29/141 70/38/141
f 70/38/141 65/29/141 69/39/141
f 69/39/141 65/29/141 68/40/141
f 68/40/141 65/29/141 67/28/141
f 176/28/141 174/29/141 175/30/141
f 175/30/141 174/29/141 186/31/141
f 186/31/141 174/29/141 185/32/141
f 185/32/141 174/29/141 184/33/141
f 184/33/141 174/29/141 183/34/141
f 183/34/141 174/29/141 182/35/141
f 182/35/141 174/29/141 181/36/141
f 181/36/141 174/29/141 180/37/141
f 180/37/141 174/29/141 179/38/141
f 179/38/141 174/29/141 178/39/141
f 178/39/141 174/29/141 177/40/141
f 177/40/141 174/29/141 176/28/141
f 285/28/141 283/29/141 284/30/141
f 284/30/141 283/29/141 295/31/141
f 295/31/141 283/29/141 294/32/141
f 294/32/141 283/29/141 293/33/141
f 293/33/141 283/29/141 292/34/141
f 292/34/141 283/29/141 291/35/141
f 291/35/141 283/29/141 290/36/141
f 290/36/141 283/29/141 289/37/141
f 289/37/141 283/29/141 288/38/141
f 288/38/141 283/29/141 287/39/141
f 287/39/141 283/29/141 286/40/141
f 286/40/141 283/29/141 285/28/141
f 394/28/141 392/29/141 393/30/141
f 393/30/141 392/29/141 404/31/141
f 404/31/141 392/29/141 403/32/141
f 403/32/141 392/29/141 402/33/141
f 402/33/141 392/29/141 401/34/141
f 401/34/141 392/29/141 400/35/141
f 400/35/141 392/29/141 399/36/141
f 399/36/141 392/29/141 398/37/141
f 398/37/141 392/29/141 397/38/141
f 397/38/141 392/29/141 396/39/141
f 396/39/141 392/29/141 395/40/141
f 395/40/141 392/29/141 394/28/141
o gun
v -6.993448 -3.314804 0.005737
v -6.993447 -2.337428 -2.321052
v -6.993448 -2.360624 2.342133
v -6.993448 -2.360624 2.342133
v -6.993447 -2.337428 -2.321052
v -6.993447 2.302560 2.365330
v -6.993448 -0.033836 3.319509
v -6.993447 3.279936 0.038542
v -6.993447 2.302560 2.365330
v -6.993447 2.325757 -2.297854
v -6.993447 -0.001031 -3.275231
v -14.119994 2.325758 -2.297856
v -14.119994 -0.001030 -3.275232
v -14.119994 3.279937 0.038540
v -14.119994 3.279937 0.038540
v -14.119994 -0.001030 -3.275232
v -14.119995 -0.033835 3.319506
v -14.119994 2.302559 2.365329
v -14.119995 -2.360623 2.342131
v -14.119995 -3.314803 0.005735
v -14.119994 -2.337426 -2.321053
v -6.993447 2.302560 2.365330
v -6.993447 3.279936 0.038542
v -14.119994 3.279937 0.038540
v -14.119994 2.325758 -2.297856
v -6.993447 2.325757 -2.297854
v -14.119994 2.325758 -2.297856
v -6.993447 2.325757 -2.297854
v -14.119994 -0.001030 -3.275232
v -6.993447 -0.001031 -3.275231
v -14.119994 -2.337426 -2.321053
v -6.993447 -2.337428 -2.321052
v -14.119995 -3.314803 0.005735
v -6.993448 -3.314804 0.005737
v -14.119995 -2.360623 2.342131
v -6.993448 -2.360624 2.342133
v -14.119995 -0.033835 3.319506
v -6.993448 -0.033836 3.319509
v -14.119994 2.302559 2.365329
v -7.080134 1.234415 1.286131
v -7.080134 0.875459 -0.080678
v -7.080134 0.240146 0.281919
v -7.080134 1.606953 -0.077038
v -7.080134 2.238627 0.291861
v -7.080134 1.606953 -0.077038
v -7.080134 2.601223 0.927174
v -7.080134 2.597585 1.658668
v -7.080134 2.228685 2.290342
v -7.080134 1.593373 2.652938
v -7.080134 0.861877 2.649299
v -7.080134 0.230205 2.280400
v -7.080134 -0.132392 1.645087
v -7.080134 -0.128753 0.913593
v -7.080134 0.240146 0.281919
v 3.284538 0.875459 -0.080678
v 3.284538 0.240146 0.281919
v -7.080134 0.875459 -0.080678
v 3.284538 1.606953 -0.077038
v -7.080134 1.606953 -0.077038
v 3.284538 2.238627 0.291861
v -7.080134 2.238627 0.291861
v 3.284538 2.601223 0.927174
v -7.080134 2.601223 0.927174
v 3.284538 2.597585 1.658668
v -7.080134 2.597585 1.658668
v 3.284538 2.228685 2.290342
v -7.080134 2.228685 2.290342
v 3.284538 1.593373 2.652938
v -7.080134 1.593373 2.652938
v 3.284538 0.861877 2.649299
v -7.080134 0.861877 2.649299
v 3.284538 0.230205 2.280400
v -7.080134 0.230205 2.280400
v 3.284538 -0.132392 1.645087
v -7.080134 -0.132392 1.645087
v 3.284538 -0.128753 0.913593
v -7.080134 -0.128753 0.913593
v 4.280934 0.601739 0.647129
v 16.277872 1.034077 0.523298
v 16.277872 0.679502 0.725668
v 4.280934 1.006004 0.416401
v 16.277872 1.442334 0.525328
v 4.280934 1.471469 0.418717
v 16.277872 1.794878 0.731216
v 4.280934 1.873417 0.653455
v 16.277872 1.997248 1.085792
v 4.280934 2.104145 1.057718
v 16.277872 1.995217 1.494048
v 4.280934 2.101830 1.523184
v 16.277872 1.789330 1.846592
v 4.280934 1.867090 1.925132
v 16.277872 1.434754 2.048962
v 4.280934 1.462827 2.155860
v 16.277872 1.026498 2.046932
v 4.280934 0.997362 2.153544
v 16.277872 0.673954 1.841044
v 4.280934 0.595413 1.918806
v 16.277872 0.471584 1.486468
v 4.280934 0.364686 1.514543
v 16.277872 0.473615 1.078212
v 4.280934 0.367002 1.049077
v -7.080134 -1.274555 -1.247924
v -7.080134 -0.915597 0.118883
v -7.080134 -0.280284 -0.243714
v -7.080134 -1.647092 0.115243
v -7.080134 -2.278764 -0.253655
v -7.080134 -1.647092 0.115243
v -7.080134 -2.641363 -0.888968
v -7.080134 -2.637722 -1.620463
v -7.080134 -2.268824 -2.252136
v -7.080134 -1.633512 -2.614732
v -7.080134 -0.902018 -2.611094
v -7.080134 -0.270343 -2.242195
v -7.080134 0.092253 -1.606882
v -7.080134 0.088614 -0.875388
v -7.080134 -0.280284 -0.243714
v 3.284538 -0.915597 0.118883
v 3.284538 -0.280284 -0.243714
v -7.080134 -0.915597 0.118883
v 3.284538 -1.647092 0.115243
v -7.080134 -1.647092 0.115243
v 3.284538 -2.278764 -0.253655
v -7.080134 -2.278764 -0.253655
v 3.284538 -2.641363 -0.888968
v -7.080134 -2.641363 -0.888968
v 3.284538 -2.637722 -1.620463
v -7.080134 -2.637722 -1.620463
v 3.284538 -2.268824 -2.252136
v -7.080134 -2.268824 -2.252136
v 3.284538 -1.633512 -2.614732
v -7.080134 -1.633512 -2.614732
v 3.284538 -0.902018 -2.611094
v -7.080134 -0.902018 -2.611094
v 3.284538 -0.270343 -2.242195
v -7.080134 -0.270343 -2.242195
v 3.284538 0.092253 -1.606882
v -7.080134 0.092253 -1.606882
v 3.284538 0.088614 -0.875388
v -7.080134 0.088614 -0.875388
v 4.280934 -0.641879 -0.608924
v 16.277872 -1.074216 -0.485093
v 16.277872 -0.719641 -0.687462
v 4.280934 -1.046143 -0.378196
v 16.277872 -1.482472 -0.487123
v 4.280934 -1.511608 -0.380511
v 16.277872 -1.835017 -0.693010
v 4.280934 -1.913556 -0.615249
v 16.277872 -2.037387 -1.047587
v 4.280934 -2.144285 -1.019513
v 16.277872 -2.035357 -1.455843
v 4.280934 -2.141968 -1.484979
v 16.277872 -1.829469 -1.808388
v 4.280934 -1.907231 -1.886926
v 16.277872 -1.474894 -2.010756
v 4.280934 -1.502967 -2.117654
v 16.277872 -1.066637 -2.008726
v 4.280934 -1.037502 -2.115340
v 16.277872 -0.714092 -1.802840
v 4.280934 -0.635553 -1.880601
v 16.277872 -0.511722 -1.448263
v 4.280934 -0.404826 -1.476338
v 16.277872 -0.513754 -1.040007
v 4.280934 -0.407140 -1.010872
v -7.080134 1.246959 -1.235382
v -7.080134 -0.119849 -0.876425
v -7.080134 0.242749 -0.241113
v -7.080134 -0.116210 -1.607920
v -7.080134 0.252689 -2.239594
v -7.080134 -0.116210 -1.607920
v -7.080134 0.888002 -2.602190
v -7.080134 1.619496 -2.598551
v -7.080134 2.251171 -2.229652
v -7.080134 2.613766 -1.594339
v -7.080134 2.610128 -0.862845
v -7.080134 2.241228 -0.231171
v -7.080134 1.605917 0.131425
v -7.080134 0.874422 0.127787
v -7.080134 0.242749 -0.241113
v 3.284538 -0.119849 -0.876425
v 3.284538 0.242749 -0.241113
v -7.080134 -0.119849 -0.876425
v 3.284538 -0.116210 -1.607920
v -7.080134 -0.116210 -1.607920
v 3.284538 0.252689 -2.239594
v -7.080134 0.252689 -2.239594
v 3.284538 0.888002 -2.602190
v -7.080134 0.888002 -2.602190
v 3.284538 1.619496 -2.598551
v -7.080134 1.619496 -2.598551
v 3.284538 2.251171 -2.229652
v -7.080134 2.251171 -2.229652
v 3.284538 2.613766 -1.594339
v -7.080134 2.613766 -1.594339
v 3.284538 2.610128 -0.862845
v -7.080134 2.610128 -0.862845
v 3.284538 2.241228 -0.231171
v -7.080134 2.241228 -0.231171
v 3.284538 1.605917 0.131425
v -7.080134 1.605917 0.131425
v 3.284538 0.874422 0.127787
v -7.080134 0.874422 0.127787
v 4.280934 0.607957 -0.602707
v 16.277872 0.484126 -1.035044
v 16.277872 0.686496 -0.680468
v 4.280934 0.377229 -1.006970
v 16.277872 0.486158 -1.443301
v 4.280934 0.379545 -1.472436
v 16.277872 0.692044 -1.795845
v 4.280934 0.614283 -1.874384
v 16.277872 1.046620 -1.998214
v 4.280934 1.018547 -2.105111
v 16.277872 1.454876 -1.996184
v 4.280934 1.484013 -2.102797
v 16.277872 1.807421 -1.790297
v 4.280934 1.885962 -1.868058
v 16.277872 2.009791 -1.435722
v 4.280934 2.116688 -1.463794
v 16.277872 2.007759 -1.027464
v 4.280934 2.114373 -0.998328
v 16.277872 1.801872 -0.674920
v 4.280934 1.879634 -0.596380
v 16.277872 1.447298 -0.472551
v 4.280934 1.475371 -0.365653
v 16.277872 1.039041 -0.474582
v 4.280934 1.009905 -0.367968
v -7.080134 -1.287097 1.273587
v -7.080134 0.079710 0.914630
v -7.080134 -0.282885 0.279317
v -7.080134 0.076071 1.646125
v -7.080134 -0.292828 2.277798
v -7.080134 0.076071 1.646125
v -7.080134 -0.928141 2.640395
v -7.080134 -1.659635 2.636755
v -7.080134 -2.291309 2.267857
v -7.080134 -2.653906 1.632544
v -7.080134 -2.650265 0.901048
v -7.080134 -2.281367 0.269375
v -7.080134 -1.646055 -0.093220
v -7.080134 -0.914560 -0.089581
v -7.080134 -0.282885 0.279317
v 3.284538 0.079710 0.914630
v 3.284538 -0.282885 0.279317
v -7.080134 0.079710 0.914630
v 3.284538 0.076071 1.646125
v -7.080134 0.076071 1.646125
v 3.284538 -0.292828 2.277798
v -7.080134 -0.292828 2.277798
v 3.284538 -0.928141 2.640395
v -7.080134 -0.928141 2.640395
v 3.284538 -1.659635 2.636755
v -7.080134 -1.659635 2.636755
v 3.284538 -2.291309 2.267857
v -7.080134 -2.291309 2.267857
v 3.284538 -2.653906 1.632544
v -7.080134 -2.653906 1.632544
v 3.284538 -2.650265 0.901048
v -7.080134 -2.650265 0.901048
v 3.284538 -2.281367 0.269375
v -7.080134 -2.281367 0.269375
v 3.284538 -1.646055 -0.093220
v -7.080134 -1.646055 -0.093220
v 3.284538 -0.914560 -0.089581
v -7.080134 -0.914560 -0.089581
v 4.280934 -0.648096 0.640912
v 16.277872 -0.524265 1.073248
v 16.277872 -0.726634 0.718673
v 4.280934 -0.417369 1.045176
v 16.277872 -0.526297 1.481506
v 4.280934 -0.419684 1.510641
v 16.277872 -0.732183 1.834050
v 4.280934 -0.654423 1.912589
v 16.277872 -1.086760 2.036420
v 4.280934 -1.058685 2.143316
v 16.277872 -1.495015 2.034389
v 4.280934 -1.524152 2.141001
v 16.277872 -1.847560 1.828501
v 4.280934 -1.926101 1.906263
v 16.277872 -2.049928 1.473924
v 4.280934 -2.156827 1.501999
v 16.277872 -2.047899 1.065670
v 4.280934 -2.154511 1.036533
v 16.277872 -1.842012 0.713125
v 4.280934 -1.919774 0.634586
v 16.277872 -1.487436 0.510756
v 4.280934 -1.515509 0.403858
v 16.277872 -1.079179 0.512786
v 4.280934 -1.050042 0.406173
vn 1.0000 -0.0000 -0.0000
vn -1.0000 -0.0000 -0.0000
vn -0.0000 0.9258 -0.3781
vn 0.0001 0.9913 -0.1319
vn -0.0000 0.9913 -0.1319
vn -0.0000 0.9899 0.1417
vn -0.0000 0.7942 0.6077
vn -0.0000 0.5998 0.8002
vn -0.0000 0.5997 0.8002
vn -0.0000 0.1319 0.9913
vn -0.0001 0.5997 0.8002
vn -0.0000 -0.1417 0.9899
vn -0.0000 -0.6077 0.7942
vn -0.0000 -0.8002 0.5998
vn -0.0001 -0.9913 0.1319
vn -0.0000 -0.9913 0.1319
vn -0.0000 -0.9899 -0.1417
vn -0.0000 -0.7942 -0.6077
vn -0.0000 -0.5998 -0.8002
vn -0.0000 -0.5997 -0.8002
vn -0.0000 -0.1319 -0.9913
vn -0.0000 0.1417 -0.9899
vn -0.0000 0.3873 -0.9220
vn 0.2528 -0.6799 -0.6884
vn -0.0000 -0.6375 -0.7704
vn 0.2529 -0.2447 -0.9361
vn 0.2528 -0.2447 -0.9361
vn -0.0000 -0.1670 -0.9860
vn 0.2528 -0.2446 -0.9361
vn -0.0000 -0.1669 -0.9860
vn 0.2529 0.2562 -0.9330
vn 0.2528 0.2562 -0.9330
vn -0.0000 0.3484 -0.9374
vn -0.0000 0.3484 -0.9373
vn 0.2529 0.6883 -0.6799
vn 0.2528 0.6883 -0.6799
vn -0.0000 0.7704 -0.6376
vn 0.2528 0.6884 -0.6799
vn -0.0000 0.7704 -0.6375
vn 0.2529 0.9361 -0.2447
vn 0.2528 0.9361 -0.2447
vn -0.0000 0.9860 -0.1670
vn 0.2528 0.9361 -0.2446
vn -0.0000 0.9860 -0.1669
vn 0.2529 0.9330 0.2562
vn 0.2528 0.9330 0.2562
vn -0.0000 0.9374 0.3484
vn -0.0000 0.9373 0.3484
vn 0.2529 0.6799 0.6883
vn 0.2528 0.6799 0.6883
vn -0.0000 0.6376 0.7704
vn 0.2528 0.6799 0.6884
vn -0.0000 0.6375 0.7704
vn 0.2529 0.2447 0.9361
vn 0.2528 0.2447 0.9361
vn -0.0000 0.1670 0.9860
vn 0.2528 0.2446 0.9361
vn -0.0000 0.1669 0.9860
vn 0.2529 -0.2562 0.9330
vn 0.2528 -0.2562 0.9330
vn -0.0000 -0.3484 0.9374
vn -0.0000 -0.3484 0.9373
vn 0.2529 -0.6883 0.6799
vn 0.2528 -0.6883 0.6799
vn -0.0000 -0.7704 0.6376
vn 0.2528 -0.6884 0.6799
vn -0.0000 -0.7704 0.6375
vn 0.2529 -0.9361 0.2447
vn 0.2528 -0.9361 0.2447
vn -0.0000 -0.9860 0.1670
vn 0.2528 -0.9361 0.2446
vn -0.0000 -0.9860 0.1669
vn 0.2529 -0.9330 -0.2562
vn 0.2528 -0.9330 -0.2562
vn -0.0000 -0.9374 -0.3484
vn -0.0000 -0.9373 -0.3484
vn 0.2529 -0.6799 -0.6883
vn 0.2528 -0.6799 -0.6883
vn -0.0000 -0.6376 -0.7704
vn -0.1451 -0.6929 -0.7062
vn 0.2569 -0.6808 -0.6860
vn -0.1451 -0.2471 -0.9581
vn 0.2569 -0.2466 -0.9344
vn -0.1451 -0.2470 -0.9581
vn -0.1451 0.2651 -0.9532
vn 0.2569 0.2536 -0.9326
vn -0.1451 0.2652 -0.9532
vn 0.2569 0.2537 -0.9325
vn -0.1451 0.7062 -0.6930
vn 0.2569 0.6859 -0.6808
vn -0.1451 0.7062 -0.6929
vn 0.2569 0.6860 -0.6808
vn -0.1451 0.9581 -0.2471
vn -0.1451 0.9581 -0.2470
vn 0.2569 0.9344 -0.2466
vn -0.1451 0.9532 0.2651
vn 0.2570 0.9325 0.2536
vn -0.1451 0.9532 0.2652
vn 0.2569 0.9325 0.2537
vn -0.1451 0.6930 0.7062
vn 0.2569 0.6808 0.6859
vn -0.1451 0.6929 0.7062
vn 0.2569 0.6808 0.6860
vn -0.1451 0.2470 0.9581
vn 0.2569 0.2466 0.9344
vn -0.1451 -0.2651 0.9532
vn -0.1451 -0.2651 0.9533
vn 0.2569 -0.2536 0.9326
vn -0.1451 -0.2652 0.9532
vn 0.2569 -0.2537 0.9325
vn -0.1451 -0.7062 0.6930
vn 0.2569 -0.6859 0.6808
vn -0.1451 -0.7062 0.6929
vn 0.2569 -0.6860 0.6808
vn -0.1451 -0.9581 0.2471
vn 0.2569 -0.9344 0.2466
vn -0.1451 -0.9581 0.2470
vn -0.1451 -0.9532 -0.2651
vn 0.2570 -0.9325 -0.2536
vn -0.1451 -0.9532 -0.2652
vn 0.2569 -0.9325 -0.2537
vn -0.1451 -0.6930 -0.7062
vn 0.2569 -0.6808 -0.6859
vn 0.2529 0.2561 -0.9330
vn 0.0001 -0.1669 -0.9860
vn -0.1451 0.2471 0.9581
vn 0.2569 -0.9326 -0.2536
vn 0.2570 -0.6808 -0.6859
vn -0.1451 0.2651 -0.9533
vn 0.2570 0.6859 -0.6808
vn -0.1451 0.9533 0.2651
vn 0.2569 0.9326 0.2536
vn 0.2570 0.2536 -0.9325
vn -0.1451 0.9533 0.2650
vn 0.2570 0.6808 0.6859
vn 0.2570 -0.6859 0.6808
vn -0.1451 -0.9533 -0.2650
vn -0.1451 -0.9533 -0.2651
vt 0.436865 0.436865
vt 0.410714 0.500000
vt 0.500000 0.410714
vt 0.500000 0.589286
vt 0.436865 0.563135
vt 0.436865 0.563134
vt 0.563135 0.563135
vt 0.589286 0.500000
vt 0.563135 0.436865
vt 0.368545 0.849265
vt 0.205736 0.847844
vt 0.368684 0.880519
vt 0.204566 0.879087
vt 0.368060 0.849261
vt 0.205251 0.847840
vt 0.369393 0.773821
vt 0.205263 0.773697
vt 0.369377 0.698369
vt 0.206568 0.696948
vt 0.370547 0.667126
vt 0.206428 0.665694
vt 0.369862 0.698373
vt 0.207052 0.696952
vt 0.369838 0.773825
vt 0.205720 0.772392
vt 3.423443 2.456564
vt 3.340110 2.456564
vt 3.006777 2.456564
vt 3.256777 2.456564
vt 3.173444 2.456564
vt 2.423443 2.456564
vt 2.506777 2.456564
vt 2.590110 2.456564
vt 2.673444 2.456564
vt 2.756777 2.456564
vt 2.840110 2.456564
vt 2.923444 2.456564
vt 3.090110 2.456564
vt 1.688428 0.454759
vt 1.996803 0.454759
vt 1.688428 0.428957
vt 1.996803 0.428957
vt 1.688428 0.399163
vt 1.996803 0.399163
vt 1.688428 0.373360
vt 1.996803 0.373360
vt 0.399312 0.388373
vt 0.945358 0.379385
vt 0.399312 0.405881
vt 0.945358 0.400953
vt 0.399312 0.426098
vt 0.945358 0.425857
vt 0.399312 0.443606
vt 0.945358 0.447425
s 0
usemtl GATT01.002.01_-_Default
f 437/41/142 438/42/142 439/43/142
f 446/44/142 441/42/142 447/45/142
f 448/44/143 449/46/143 450/47/143
f 438/42/142 446/44/142 445/48/142
f 445/48/142 446/44/142 444/47/142
f 441/42/142 442/48/142 440/43/142
f 440/43/142 442/48/142 443/49/142
f 454/48/143 451/47/143 453/49/143
f 453/49/143 451/47/143 452/46/143
f 453/49/143 452/46/143 456/41/143
f 456/41/143 452/46/143 457/42/143
f 455/43/143 453/49/143 456/41/143
f 462/50/144 461/51/144 459/52/145
f 459/52/146 461/51/144 460/53/147
f 459/52/146 460/53/147 458/54/148
f 458/54/148 460/53/147 475/55/149
f 458/54/148 475/55/150 474/56/151
f 474/56/151 475/55/152 473/57/153
f 474/56/151 473/57/153 472/58/154
f 472/58/154 473/57/153 471/59/155
f 472/58/154 471/59/155 470/60/156
f 470/60/157 471/59/155 469/61/158
f 470/60/157 469/61/158 468/62/159
f 468/62/159 469/61/158 467/63/160
f 468/62/159 467/63/161 466/64/162
f 466/64/162 467/63/161 465/65/163
f 466/64/162 465/65/163 464/50/164
f 464/50/164 465/65/163 463/51/164
f 479/66/143 477/67/143 476/68/143
f 476/68/143 477/67/143 478/69/143
f 476/68/143 478/69/143 489/70/143
f 481/71/143 476/68/143 480/72/143
f 480/72/143 476/68/143 482/73/143
f 482/73/143 476/68/143 483/74/143
f 483/74/143 476/68/143 484/75/143
f 484/75/143 476/68/143 485/76/143
f 485/76/143 476/68/143 486/77/143
f 486/77/143 476/68/143 487/68/143
f 487/68/143 476/68/143 488/78/143
f 476/68/143 489/70/143 488/78/143
f 541/66/143 539/67/143 538/68/143
f 538/68/143 539/67/143 540/69/143
f 538/68/143 540/69/143 551/70/143
f 543/71/143 538/68/143 542/72/143
f 542/72/143 538/68/143 544/73/143
f 544/73/143 538/68/143 545/74/143
f 545/74/143 538/68/143 546/75/143
f 546/75/143 538/68/143 547/76/143
f 547/76/143 538/68/143 548/77/143
f 548/77/143 538/68/143 549/68/143
f 549/68/143 538/68/143 550/78/143
f 538/68/143 551/70/143 550/78/143
f 603/66/143 601/67/143 600/68/143
f 600/68/143 601/67/143 602/69/143
f 600/68/143 602/69/143 613/70/143
f 605/71/143 600/68/143 604/72/143
f 604/72/143 600/68/143 606/73/143
f 606/73/143 600/68/143 607/74/143
f 607/74/143 600/68/143 608/75/143
f 608/75/143 600/68/143 609/76/143
f 609/76/143 600/68/143 610/77/143
f 610/77/143 600/68/143 611/68/143
f 611/68/143 600/68/143 612/78/143
f 600/68/143 613/70/143 612/78/143
f 665/66/143 663/67/143 662/68/143
f 662/68/143 663/67/143 664/69/143
f 662/68/143 664/69/143 675/70/143
f 667/71/143 662/68/143 666/72/143
f 666/72/143 662/68/143 668/73/143
f 668/73/143 662/68/143 669/74/143
f 669/74/143 662/68/143 670/75/143
f 670/75/143 662/68/143 671/76/143
f 671/76/143 662/68/143 672/77/143
f 672/77/143 662/68/143 673/68/143
f 673/68/143 662/68/143 674/78/143
f 662/68/143 675/70/143 674/78/143
f 492/79/165 490/80/166 491/81/167
f 491/81/168 490/80/166 493/82/169
f 491/81/170 493/82/171 494/83/172
f 494/83/173 493/82/171 495/84/174
f 494/83/173 495/84/175 496/85/176
f 496/85/177 495/84/175 497/86/178
f 496/85/179 497/86/180 498/83/181
f 498/83/182 497/86/180 499/84/183
f 498/83/184 499/84/185 500/81/186
f 500/81/187 499/84/185 501/82/188
f 500/81/187 501/82/189 502/79/190
f 502/79/191 501/82/189 503/80/192
f 502/79/193 503/80/194 504/81/195
f 504/81/196 503/80/194 505/82/197
f 504/81/198 505/82/199 506/83/200
f 506/83/201 505/82/199 507/84/202
f 506/83/201 507/84/203 508/85/204
f 508/85/205 507/84/203 509/86/206
f 508/85/207 509/86/208 510/83/209
f 510/83/210 509/86/208 511/84/211
f 510/83/212 511/84/213 512/81/214
f 512/81/215 511/84/213 513/82/216
f 512/81/215 513/82/217 492/79/218
f 492/79/219 513/82/217 490/80/220
f 516/87/221 514/88/222 515/89/223
f 515/89/223 514/88/222 517/90/224
f 515/89/225 517/90/224 518/91/226
f 518/91/226 517/90/224 519/92/227
f 518/91/228 519/92/229 520/93/230
f 520/93/230 519/92/229 521/94/231
f 520/93/232 521/94/233 522/91/234
f 522/91/235 521/94/233 523/92/236
f 522/91/235 523/92/236 524/89/237
f 524/89/237 523/92/236 525/90/238
f 524/89/239 525/90/240 526/87/241
f 526/87/241 525/90/240 527/88/242
f 526/87/243 527/88/244 528/89/245
f 528/89/245 527/88/244 529/90/246
f 528/89/245 529/90/246 530/91/247
f 530/91/248 529/90/246 531/92/249
f 530/91/250 531/92/251 532/93/252
f 532/93/252 531/92/251 533/94/253
f 532/93/254 533/94/255 534/91/256
f 534/91/256 533/94/255 535/92/257
f 534/91/258 535/92/257 536/89/259
f 536/89/259 535/92/257 537/90/260
f 536/89/261 537/90/262 516/87/263
f 516/87/263 537/90/262 514/88/264
f 554/79/193 552/80/194 553/81/195
f 553/81/196 552/80/194 555/82/197
f 553/81/198 555/82/199 556/83/200
f 556/83/201 555/82/199 557/84/202
f 556/83/201 557/84/203 558/85/204
f 558/85/205 557/84/203 559/86/206
f 558/85/207 559/86/208 560/83/209
f 560/83/210 559/86/208 561/84/211
f 560/83/212 561/84/213 562/81/214
f 562/81/215 561/84/213 563/82/216
f 562/81/215 563/82/217 564/79/218
f 564/79/219 563/82/217 565/80/220
f 564/79/165 565/80/166 566/81/167
f 566/81/168 565/80/166 567/82/169
f 566/81/170 567/82/171 568/83/265
f 568/83/173 567/82/266 569/84/174
f 568/83/173 569/84/175 570/85/176
f 570/85/177 569/84/175 571/86/178
f 570/85/179 571/86/180 572/83/181
f 572/83/182 571/86/180 573/84/183
f 572/83/184 573/84/185 574/81/186
f 574/81/187 573/84/185 575/82/188
f 574/81/187 575/82/189 554/79/190
f 554/79/191 575/82/189 552/80/192
f 578/87/243 576/88/244 577/89/267
f 577/89/245 576/88/244 579/90/246
f 577/89/245 579/90/246 580/91/247
f 580/91/248 579/90/246 581/92/249
f 580/91/250 581/92/251 582/93/252
f 582/93/252 581/92/251 583/94/253
f 582/93/254 583/94/255 584/91/256
f 584/91/258 583/94/255 585/92/257
f 584/91/258 585/92/257 586/89/259
f 586/89/259 585/92/257 587/90/268
f 586/89/261 587/90/262 588/87/263
f 588/87/263 587/90/262 589/88/269
f 588/87/221 589/88/222 590/89/223
f 590/89/223 589/88/222 591/90/224
f 590/89/225 591/90/224 592/91/226
f 592/91/270 591/90/224 593/92/227
f 592/91/228 593/92/229 594/93/230
f 594/93/230 593/92/229 595/94/271
f 594/93/232 595/94/233 596/91/234
f 596/91/235 595/94/233 597/92/236
f 596/91/235 597/92/236 598/89/237
f 598/89/272 597/92/236 599/90/273
f 598/89/239 599/90/240 578/87/241
f 578/87/241 599/90/240 576/88/242
f 616/79/207 614/80/208 615/81/209
f 615/81/210 614/80/208 617/82/211
f 615/81/212 617/82/213 618/83/214
f 618/83/215 617/82/213 619/84/216
f 618/83/215 619/84/217 620/85/218
f 620/85/219 619/84/217 621/86/220
f 620/85/165 621/86/166 622/83/167
f 622/83/168 621/86/166 623/84/169
f 622/83/170 623/84/171 624/81/172
f 624/81/173 623/84/171 625/82/174
f 624/81/173 625/82/175 626/79/176
f 626/79/177 625/82/175 627/80/178
f 626/79/179 627/80/180 628/81/181
f 628/81/182 627/80/180 629/82/183
f 628/81/184 629/82/185 630/83/186
f 630/83/187 629/82/185 631/84/188
f 630/83/187 631/84/189 632/85/190
f 632/85/191 631/84/189 633/86/192
f 632/85/193 633/86/194 634/83/195
f 634/83/196 633/86/194 635/84/197
f 634/83/198 635/84/199 636/81/200
f 636/81/201 635/84/199 637/82/202
f 636/81/201 637/82/203 616/79/204
f 616/79/205 637/82/203 614/80/206
f 640/87/254 638/88/255 639/89/256
f 639/89/256 638/88/255 641/90/257
f 639/89/258 641/90/257 642/91/259
f 642/91/259 641/90/257 643/92/268
f 642/91/261 643/92/262 644/93/263
f 644/93/263 643/92/262 645/94/264
f 644/93/221 645/94/222 646/91/223
f 646/91/225 645/94/222 647/92/224
f 646/91/225 647/92/224 648/89/226
f 648/89/226 647/92/224 649/90/274
f 648/89/228 649/90/229 650/87/230
f 650/87/230 649/90/229 651/88/231
f 650/87/232 651/88/233 652/89/234
f 652/89/234 651/88/233 653/90/236
f 652/89/235 653/90/236 654/91/275
f 654/91/237 653/90/236 655/92/273
f 654/91/239 655/92/240 656/93/241
f 656/93/241 655/92/240 657/94/242
f 656/93/243 657/94/244 658/91/267
f 658/91/267 657/94/244 659/92/246
f 658/91/245 659/92/246 660/89/247
f 660/89/247 659/92/246 661/90/249
f 660/89/250 661/90/251 640/87/252
f 640/87/252 661/90/251 638/88/253
f 678/79/179 676/80/180 677/81/181
f 677/81/182 676/80/180 679/82/183
f 677/81/184 679/82/185 680/83/186
f 680/83/187 679/82/185 681/84/188
f 680/83/187 681/84/189 682/85/190
f 682/85/191 681/84/189 683/86/192
f 682/85/193 683/86/194 684/83/195
f 684/83/196 683/86/194 685/84/197
f 684/83/198 685/84/199 686/81/200
f 686/81/201 685/84/199 687/82/202
f 686/81/201 687/82/203 688/79/204
f 688/79/205 687/82/203 689/80/206
f 688/79/207 689/80/208 690/81/209
f 690/81/210 689/80/208 691/82/211
f 690/81/212 691/82/213 692/83/214
f 692/83/215 691/82/213 693/84/216
f 692/83/215 693/84/217 694/85/218
f 694/85/219 693/84/217 695/86/220
f 694/85/165 695/86/166 696/83/167
f 696/83/168 695/86/166 697/84/169
f 696/83/170 697/84/171 698/81/172
f 698/81/173 697/84/171 699/82/174
f 698/81/173 699/82/175 678/79/176
f 678/79/177 699/82/175 676/80/178
f 702/87/232 700/88/233 701/89/234
f 701/89/234 700/88/233 703/90/236
f 701/89/235 703/90/236 704/91/237
f 704/91/237 703/90/236 705/92/273
f 704/91/239 705/92/240 706/93/241
f 706/93/241 705/92/240 707/94/276
f 706/93/243 707/94/244 708/91/245
f 708/91/245 707/94/244 709/92/246
f 708/91/245 709/92/246 710/89/247
f 710/89/248 709/92/246 711/90/249
f 710/89/250 711/90/251 712/87/252
f 712/87/252 711/90/251 713/88/277
f 712/87/254 713/88/255 714/89/256
f 714/89/256 713/88/255 715/90/257
f 714/89/258 715/90/257 716/91/278
f 716/91/279 715/90/257 717/92/268
f 716/91/261 717/92/262 718/93/263
f 718/93/263 717/92/262 719/94/264
f 718/93/221 719/94/222 720/91/225
f 720/91/223 719/94/222 721/92/224
f 720/91/225 721/92/224 722/89/226
f 722/89/226 721/92/224 723/90/227
f 722/89/228 723/90/229 702/87/230
f 702/87/230 723/90/229 700/88/231
