# Blender 5.1.2
# www.blender.org
mtllib v1.mtl
o model2
v 5.117239 -1.720310 4.664365
v 4.088073 3.263702 2.881799
v 5.117239 3.263702 4.664365
v 4.088073 -1.720310 2.881799
v 2.029742 -1.720310 2.881799
v 1.000576 3.263702 4.664365
v 2.029742 3.263702 2.881799
v 1.000576 -1.720310 4.664365
v 2.029742 3.263703 6.446933
v 2.029742 -1.720311 6.446933
v 4.088073 3.263703 6.446933
v 4.088073 -1.720311 6.446933
v 5.117239 -1.720310 -4.641701
v 5.117239 3.263702 -4.641701
v 4.088073 3.263702 -2.859134
v 4.088073 -1.720310 -2.859134
v 2.029742 -1.720310 -2.859134
v 2.029742 3.263702 -2.859134
v 1.000576 3.263702 -4.641701
v 1.000576 -1.720310 -4.641701
v 2.029742 3.263702 -6.424269
v 2.029742 -1.720311 -6.424269
v 4.088073 3.263702 -6.424269
v 4.088073 -1.720311 -6.424269
v -10.527966 6.292862 1.725000
v -8.802965 6.292862 1.725000
v -8.802965 6.292862 -1.725000
v -10.527966 6.292862 -1.725000
v -10.744271 3.992863 1.725000
v -9.019271 3.992863 1.725000
v -8.802965 6.292862 1.725000
v -10.527966 6.292862 1.725000
v -9.019271 3.992863 -1.725000
v -10.744271 3.992863 -1.725000
v -10.527966 6.292862 -1.725000
v -8.802965 6.292862 -1.725000
v -10.744271 3.992863 -1.725000
v -10.744271 3.992863 1.725000
v -10.527966 6.292862 1.725000
v -10.527966 6.292862 -1.725000
vn 0.8660 -0.0000 -0.5000
vn 0.9820 -0.0000 -0.1890
vn 0.9820 -0.0000 0.1890
vn 0.6547 -0.0000 0.7559
vn 0.3273 -0.0000 0.9449
vn -0.3273 -0.0000 0.9449
vn -0.6547 -0.0000 0.7559
vn -0.9820 -0.0000 0.1890
vn -0.9820 -0.0000 -0.1890
vn -0.8660 -0.0000 -0.5000
vn 0.8660 -0.0000 0.5000
vn 0.6547 -0.0000 -0.7559
vn 0.3273 -0.0000 -0.9449
vn -0.3273 -0.0000 -0.9449
vn -0.6547 -0.0000 -0.7559
vn -0.3273 0.0002 -0.9449
vn -0.8660 -0.0000 0.5000
vn -0.0000 1.0000 -0.0000
vn -0.0000 -0.0000 1.0000
vn -0.0000 -0.0000 -1.0000
vn -0.9956 0.0936 -0.0000
vt 0.476562 0.253906
vt 0.476562 0.433594
vt 0.515625 0.253906
vt 0.515625 0.433594
vt 0.425781 0.253906
vt 0.425781 0.433594
vt 0.386719 0.253906
vt 0.386719 0.433594
vt 0.656250 0.433594
vt 0.527344 0.433594
vt 0.656250 0.371094
vt 0.527344 0.371094
vt 0.625000 0.398438
vt 0.566406 0.398438
vt 0.625000 0.371094
vt 0.566406 0.371094
s 0
usemtl HOUSECOLOR01.House_color
f 4/1/1 2/2/1 1/3/2
f 1/3/2 2/2/1 3/4/3
f 1/3/2 3/4/3 12/1/4
f 12/1/4 3/4/3 11/2/5
f 12/1/4 11/2/5 10/5/6
f 10/5/6 11/2/5 9/6/7
f 10/5/6 9/6/7 8/7/8
f 8/7/8 9/6/7 6/8/9
f 8/7/8 6/8/9 5/5/10
f 5/5/10 6/8/9 7/6/10
f 16/1/11 13/3/3 15/2/11
f 15/2/11 13/3/3 14/4/2
f 13/3/3 24/1/12 14/4/2
f 14/4/2 24/1/12 23/2/13
f 24/1/12 22/5/14 23/2/13
f 23/2/13 22/5/14 21/6/15
f 22/5/16 20/7/9 21/6/15
f 21/6/15 20/7/9 19/8/8
f 18/6/17 19/8/8 17/5/17
f 17/5/17 19/8/8 20/7/9
f 26/9/18 27/10/18 25/11/18
f 25/11/18 27/10/18 28/12/18
f 30/13/19 31/14/19 29/15/19
f 29/15/19 31/14/19 32/16/19
f 34/15/20 35/16/20 33/13/20
f 33/13/20 35/16/20 36/14/20
f 38/9/21 39/11/21 37/10/21
f 37/10/21 39/11/21 40/12/21
o model1
v 0.072418 4.842371 0.781416
v 9.925291 3.887091 2.795543
v 9.925291 4.842371 0.925029
v 0.072418 3.887090 2.546052
v 11.431507 3.887090 0.925029
v 9.925291 3.887091 2.795543
v 11.431507 -2.148363 0.925029
v 11.431507 3.887090 0.925029
v 9.925291 -2.148363 2.795543
v 0.072418 3.887090 2.546052
v 9.925291 -2.148363 2.795543
v 9.925291 3.887091 2.795543
v 0.072418 -2.148363 2.546052
v 1.131007 6.339571 -3.982889
v 1.131007 6.339571 4.115008
v 3.003492 4.007922 2.792958
v 3.003492 4.007922 -2.660839
v 1.992829 3.336065 6.436934
v 5.080326 3.336063 4.654366
v 4.051160 3.336063 2.871800
v 1.992829 3.336063 2.871800
v 0.963663 3.336063 4.654366
v 4.051161 3.336065 6.436934
v 8.368179 -1.797421 -0.010000
v 4.907755 -1.797420 7.152016
v -0.845618 -1.797420 7.152016
v -0.845618 -1.719735 7.152016
v 4.907755 -1.719736 7.152016
v 8.368179 -1.719736 -0.010000
v 9.925291 -2.148363 2.795543
v 12.565042 -3.609699 0.925029
v 11.431507 -2.148363 0.925029
v -8.335451 10.347564 4.423778
v 0.772043 10.347564 3.957682
v 0.772043 10.347564 -3.977684
v -8.335451 10.347564 -4.443780
v -9.232002 1.242004 4.423779
v 0.772043 1.242004 3.957684
v 0.772043 10.347564 3.957682
v -8.335451 10.347564 4.423778
v 0.772043 1.242004 3.957684
v 0.772043 1.242004 -3.977683
v 0.772043 10.347564 -3.977684
v 0.772043 10.347564 3.957682
v -9.232002 1.242004 -4.443779
v -9.232002 1.242004 4.423779
v -8.335451 10.347564 4.423778
v -8.335451 10.347564 -4.443780
v -13.322792 3.148994 2.725958
v 10.161396 3.148994 2.034838
v 10.161396 3.148995 -2.044052
v -13.322792 3.148995 -2.735172
v -12.311966 -2.502957 2.725958
v 10.161396 -2.502957 2.034838
v 10.161396 3.148994 2.034838
v -13.322792 3.148994 2.725958
v -12.311966 -2.502957 -2.735172
v -12.311966 -2.502957 2.725958
v -13.322792 3.148994 2.725958
v -13.322792 3.148995 -2.735172
v -12.311966 -2.502957 2.725958
v -12.311966 -2.502957 -2.735172
v 10.161396 -2.502957 -2.044052
v 10.161396 -2.502957 2.034838
v -7.981126 -0.392203 7.296808
v -7.503560 0.085363 7.296808
v -7.503560 0.085361 -7.316807
v -7.981126 -0.392205 -7.316807
v -7.025994 -0.392204 7.296808
v -7.025994 -0.392206 -7.316807
v -1.516363 2.946251 4.101625
v -4.679275 6.109162 6.370843
v -1.516363 2.946251 6.370844
v -4.679274 6.109161 4.253111
v -11.226355 6.109162 6.370843
v -11.226355 6.109161 4.566912
v -0.478451 -1.625687 6.370843
v -0.478451 -1.625688 4.051198
v 3.047142 3.346833 4.209550
v 2.444621 3.689322 4.571109
v 2.507373 3.568342 5.288101
v 3.047142 3.346832 4.898558
v 2.444621 3.689322 4.571109
v 1.731314 3.806969 4.637466
v 1.497325 3.735000 5.280257
v 2.507373 3.568342 5.288101
v 1.731314 3.806969 4.637466
v 1.464213 3.956502 4.247850
v 0.822947 3.969052 4.485875
v 1.497325 3.735000 5.280257
v 1.464213 3.956502 4.247850
v 1.467984 4.027937 2.293636
v 0.865493 4.027937 2.164657
v 0.822947 3.969052 4.485875
v 0.072418 4.842372 -0.800977
v 9.925291 4.842372 -0.944590
v 9.925291 3.887090 -2.815104
v 0.072418 3.887091 -2.565613
v 11.431507 3.887091 -0.944589
v 11.431507 -2.148363 -0.944589
v 11.431507 3.887090 0.925029
v 11.431507 -2.148363 0.925029
v 11.431507 3.887091 -0.944589
v 9.925291 3.887090 -2.815104
v 11.431507 3.887091 -0.944589
v 11.431507 -2.148363 -0.944589
v 9.925291 -2.148363 -2.815104
v 0.072418 3.887091 -2.565613
v 9.925291 3.887090 -2.815104
v 9.925291 -2.148363 -2.815104
v 0.072418 -2.148363 -2.565613
v 1.992829 3.336061 -6.434270
v 4.051160 3.336063 -2.869136
v 5.080326 3.336063 -4.651703
v 1.992829 3.336063 -2.869136
v 0.963663 3.336063 -4.651703
v 4.051161 3.336061 -6.434270
v -0.845618 -1.797422 -7.172016
v 4.907755 -1.797422 -7.172016
v -0.845618 -1.719737 -7.172016
v 4.907755 -1.719738 -7.172016
v 12.565042 -3.609699 -0.944590
v 11.431507 -2.148363 -0.944589
v 9.925291 -2.148363 -2.815104
v -9.232002 1.242004 -4.443779
v 0.772043 10.347564 -3.977684
v 0.772043 1.242004 -3.977683
v -8.335451 10.347564 -4.443780
v -12.311966 -2.502957 -2.735172
v 10.161396 3.148995 -2.044052
v 10.161396 -2.502957 -2.044052
v -13.322792 3.148995 -2.735172
v 9.437454 -3.010388 -4.761969
v 9.915022 -2.532821 4.741970
v 9.915022 -2.532821 -4.761969
v 9.437454 -3.010387 4.741970
v 10.392590 -3.010388 -4.761969
v 10.392590 -3.010387 4.741970
v -1.516363 2.946252 -4.121624
v -1.516363 2.946250 -6.390842
v -4.679275 6.109161 -6.390842
v -4.679274 6.109161 -4.273111
v -11.226355 6.109161 -6.390842
v -11.226355 6.109161 -4.586910
v -0.478451 -1.625690 -6.390842
v -0.478451 -1.625688 -4.071197
v 3.047142 3.346833 -4.229548
v 2.507373 3.568340 -5.308099
v 2.444621 3.689320 -4.591108
v 3.047142 3.346831 -4.918559
v 2.444621 3.689320 -4.591108
v 1.497325 3.734998 -5.300255
v 1.731314 3.806968 -4.657467
v 2.507373 3.568340 -5.308099
v 1.731314 3.806968 -4.657467
v 0.822947 3.969050 -4.505875
v 1.464213 3.956501 -4.267850
v 1.497325 3.734998 -5.300255
v 1.464213 3.956501 -4.267850
v 0.865493 4.027937 -2.184655
v 1.467984 4.027937 -2.313635
v 0.822947 3.969050 -4.505875
v 0.103541 10.570493 4.025603
v 0.103541 9.670493 4.025603
v 2.171828 10.345494 5.775692
v 2.490026 10.345494 5.457495
v 0.739937 9.670493 3.389207
v 0.739937 10.570493 3.389207
v 0.103541 10.570493 4.025603
v 2.490026 10.345494 5.457495
v 0.103540 10.570493 -4.045605
v 2.171827 10.345494 -5.795694
v 0.103540 9.670493 -4.045605
v 2.490025 10.345494 -5.477496
v 0.739936 10.570493 -3.409209
v 0.739936 9.670493 -3.409209
v 0.103540 10.570493 -4.045605
v 2.490025 10.345494 -5.477496
v -7.417138 10.570493 4.025603
v -9.485424 10.345494 5.775692
v -7.417138 9.670493 4.025603
v -9.803623 10.345494 5.457495
v -8.053534 10.570493 3.389207
v -8.053534 9.670493 3.389207
v -7.417138 10.570493 4.025603
v -9.803623 10.345494 5.457495
v -7.417138 10.570495 -4.045605
v -7.417138 9.670494 -4.045605
v -9.485424 10.345494 -5.795694
v -9.803623 10.345494 -5.477496
v -8.053534 9.670494 -3.409209
v -8.053534 10.570495 -3.409209
v -7.417138 10.570495 -4.045605
v -9.803623 10.345494 -5.477496
vn -0.4138 0.7023 0.5792
vn -0.6459 -0.0000 0.7634
vn -0.2358 0.8889 0.3928
vn 0.5793 0.7024 -0.4137
vn 0.7634 -0.0000 -0.6459
vn 0.3928 0.8889 -0.2357
vn -0.4140 0.7022 0.5793
vn -0.2357 0.8889 0.3928
vn 0.5794 0.7022 -0.4138
vn -0.4138 0.7023 -0.5792
vn -0.2357 0.8889 -0.3929
vn -0.6459 -0.0000 -0.7634
vn 0.5792 0.7023 0.4138
vn 0.3928 0.8889 0.2358
vn 0.7634 -0.0000 0.6459
vn -0.4139 0.7022 -0.5793
vn 0.3928 0.8889 0.2357
vn -0.2357 0.8889 -0.3928
vn 0.5794 0.7022 0.4138
vn 0.4138 0.7023 0.5792
vn 0.2357 0.8889 0.3929
vn 0.6459 -0.0000 0.7634
vn -0.5792 0.7023 -0.4138
vn -0.3928 0.8889 -0.2358
vn -0.7634 -0.0000 -0.6459
vn 0.4139 0.7022 0.5793
vn -0.3928 0.8889 -0.2357
vn 0.2357 0.8889 0.3928
vn -0.5794 0.7022 -0.4138
vn 0.4138 0.7023 -0.5792
vn 0.6459 -0.0000 -0.7634
vn 0.2358 0.8889 -0.3928
vn -0.5793 0.7024 0.4137
vn -0.7634 -0.0000 0.6459
vn -0.3928 0.8889 0.2357
vn 0.4140 0.7022 -0.5793
vn 0.2357 0.8889 -0.3928
vn -0.5794 0.7022 0.4138
vn -0.0121 0.8793 0.4760
vn 0.1627 0.8750 0.4561
vn -0.0059 0.9479 0.3186
vn 0.2759 0.9493 0.1508
vn -0.0048 0.9708 -0.2398
vn 0.2720 0.9352 -0.2267
vn 0.1626 0.8749 -0.4561
vn 0.5307 0.8368 -0.1344
vn -0.0121 0.8793 -0.4760
vn 0.5245 0.8270 0.2022
vn 0.9755 -0.0000 0.2202
vn 0.7789 -0.0000 0.6272
vn 0.8978 -0.0000 0.4404
vn -0.0253 -0.0000 0.9997
vn 0.7797 0.6262 -0.0000
vn -0.0000 1.0000 -0.0000
vn -0.0000 -1.0000 -0.0000
vn 0.6667 0.5171 0.5368
vn 0.7587 0.5885 0.2795
vn 0.7764 0.6023 0.1855
vn 0.7764 0.6023 -0.1854
vn 0.7586 0.5885 -0.2796
vn 0.6667 0.5171 -0.5368
vn 0.0465 -0.0000 0.9989
vn 0.0487 -0.0024 0.9988
vn 0.0488 -0.0025 0.9988
vn 0.0511 -0.0050 0.9987
vn 1.0000 -0.0000 -0.0000
vn -0.9952 0.0980 -0.0000
vn 0.0307 -0.0000 0.9995
vn 0.0301 0.0026 0.9995
vn 0.0301 0.0027 0.9995
vn 0.0294 0.0053 0.9996
vn -0.9844 -0.1761 -0.0000
vn -0.7071 0.7071 -0.0000
vn 0.7071 0.7071 -0.0000
vn 0.2527 0.9675 -0.0000
vn 0.5055 0.8628 -0.0000
vn 0.8755 0.4833 -0.0000
vn 0.8755 0.4832 -0.0000
vn 0.9752 0.2214 -0.0000
vn 0.2954 0.9448 0.1419
vn 0.3636 0.9278 0.0831
vn 0.4594 0.8870 0.0477
vn 0.3797 0.9251 -0.0000
vn 0.1488 0.9672 0.2058
vn 0.1609 0.9736 0.1620
vn 0.2952 0.9448 0.1419
vn 0.3634 0.9279 0.0832
vn 0.0486 0.9921 0.1155
vn 0.1004 0.9824 0.1576
vn -0.0078 0.9993 0.0365
vn 0.0107 0.9995 0.0312
vn 0.0485 0.9921 0.1154
vn 0.8978 -0.0000 0.4403
vn 0.9431 -0.0000 -0.3325
vn 0.9755 -0.0000 0.2200
vn 0.7789 -0.0000 -0.6272
vn -0.0253 -0.0000 -0.9997
vn 0.0465 -0.0000 -0.9989
vn 0.0488 -0.0025 -0.9988
vn 0.0487 -0.0024 -0.9988
vn 0.0511 -0.0050 -0.9987
vn 0.0307 -0.0000 -0.9995
vn 0.0301 0.0027 -0.9995
vn 0.0301 0.0026 -0.9995
vn 0.0294 0.0053 -0.9996
vn 0.2954 0.9448 -0.1419
vn 0.4593 0.8870 -0.0477
vn 0.3636 0.9278 -0.0831
vn 0.1489 0.9672 -0.2058
vn 0.2952 0.9448 -0.1419
vn 0.1609 0.9736 -0.1620
vn 0.3634 0.9279 -0.0832
vn 0.0485 0.9921 -0.1155
vn 0.1488 0.9672 -0.2058
vn 0.1004 0.9824 -0.1577
vn -0.0078 0.9993 -0.0365
vn 0.0485 0.9921 -0.1154
vn 0.0107 0.9995 -0.0312
vn 0.1003 0.9824 -0.1576
vt 0.437500 0.972656
vt 0.437500 0.937500
vt 0.332031 0.937500
vt 0.332031 0.972656
vt 0.203125 0.695312
vt 0.558594 0.695312
vt 0.203125 0.769531
vt 0.558594 0.761719
vt 0.203125 0.824219
vt 0.558594 0.832031
vt 0.558594 0.902344
vt 0.609375 0.832031
vt 0.203125 0.902344
vt 0.609375 0.761719
vt 0.125000 0.691406
vt 0.199219 0.691406
vt 0.125000 0.433594
vt 0.199219 0.433594
vt 0.613281 0.691406
vt 0.613281 0.433594
vt 0.480469 0.996094
vt 0.507812 0.906250
vt 0.652344 0.996094
vt 0.621094 0.906250
vt 0.722656 0.574219
vt 0.691406 0.558594
vt 0.750000 0.558594
vt 0.750000 0.523438
vt 0.691406 0.523438
vt 0.718750 0.507812
vt 0.921875 0.675781
vt 0.789062 0.675781
vt 1.000000 0.839844
vt 0.789062 1.000000
vt 0.921875 1.000000
vt 0.753906 0.113281
vt 0.722656 0.171875
vt 0.707031 0.113281
vt 0.652344 0.171875
vt 0.667969 0.113281
vt 0.621094 0.113281
vt 0.617188 0.437500
vt 0.820312 0.437500
vt 0.617188 0.640625
vt 0.820312 0.640625
vt 0.273438 0.113281
vt 0.273438 0.433594
vt 0.546875 0.113281
vt 0.546875 0.433594
vt 0.273438 0.109375
vt -0.000000 0.109375
vt -0.000000 0.433594
vt 0.824219 0.113281
vt 0.824219 0.433594
vt 0.550781 0.113281
vt 0.550781 0.433594
vt 0.996094 0.527344
vt 0.824219 0.527344
vt 0.996094 0.003906
vt 0.824219 0.003906
vt 0.839844 0.105469
vt 0.996094 0.105469
vt 0.839844 0.667969
vt 0.996094 0.667969
vt 0.996094 0.097656
vt 0.996094 0.035156
vt 0.824219 0.097656
vt 0.824219 0.035156
vt 0.945312 0.167969
vt 0.945312 0.566406
vt 0.839844 0.167969
vt 0.839844 0.566406
vt 0.171875 0.906250
vt 0.500000 0.906250
vt 0.171875 0.921875
vt 0.500000 0.921875
vt 0.500000 0.933594
vt 0.171875 0.933594
vt 0.820312 0.097656
vt 0.820312 0.003906
vt 0.511719 0.097656
vt 0.511719 0.003906
vt 0.253906 0.097656
vt 0.253906 0.003906
vt 0.000000 0.003906
vt 0.000000 0.097656
vt 0.226562 1.000000
vt 0.191406 1.000000
vt 0.226562 0.937500
vt 0.191406 0.937500
vt 0.078125 0.433594
vt 0.078125 0.691406
vt 0.003906 0.691406
vt 0.003906 0.433594
vt 0.492188 0.902344
vt 0.492188 0.917969
vt 0.179688 0.902344
vt 0.179688 0.917969
vt 0.492188 0.937500
vt 0.179688 0.937500
s 1
usemtl CHASSIS.Toxin_Tractor
f 203/17/22 204/18/23 205/19/24
f 206/19/25 207/18/26 208/17/27
f 209/18/28 205/19/29 208/17/27
f 208/17/27 205/19/29 210/20/30
f 211/17/31 212/19/32 213/18/33
f 214/19/34 215/17/35 216/18/36
f 217/18/37 215/17/38 212/19/39
f 212/19/39 215/17/38 218/20/40
f 219/17/41 220/19/42 221/18/43
f 222/19/44 223/17/45 224/18/46
f 225/18/47 223/17/48 220/19/49
f 220/19/49 223/17/48 226/20/50
f 227/17/51 228/18/52 229/19/53
f 230/19/54 231/18/55 232/17/56
f 233/18/57 229/19/58 232/17/56
f 232/17/56 229/19/58 234/20/59
f 44/21/60 42/22/61 41/23/62
f 41/23/62 42/22/61 43/24/63
f 41/23/62 43/24/63 135/25/64
f 135/25/64 43/24/63 136/26/65
f 135/25/64 136/26/65 137/27/66
f 137/27/66 136/26/65 139/28/67
f 137/27/66 138/29/68 135/25/64
f 45/30/69 139/28/67 43/24/63
f 43/24/63 139/28/67 136/26/65
f 43/24/63 42/22/61 45/30/69
f 48/31/70 46/32/71 47/33/72
f 47/33/72 46/32/71 49/34/71
f 52/32/73 50/35/73 51/34/73
f 51/34/73 50/35/73 53/36/73
f 55/37/74 56/38/74 54/39/74
f 54/39/74 56/38/74 57/40/74
f 62/41/75 58/42/75 61/43/75
f 61/43/75 58/42/75 60/44/75
f 63/45/75 59/46/75 58/42/75
f 58/42/75 59/46/75 60/44/75
f 65/47/76 66/48/76 64/49/76
f 64/49/76 66/48/76 158/50/76
f 64/49/76 158/50/76 159/51/76
f 68/47/75 69/49/75 67/48/75
f 67/48/75 69/49/75 160/50/75
f 160/50/75 69/49/75 161/51/75
f 70/52/77 71/53/78 72/54/79
f 72/54/79 71/53/78 162/55/80
f 72/54/79 162/55/80 163/56/81
f 163/56/81 162/55/80 164/57/82
f 74/58/75 75/59/75 73/60/75
f 73/60/75 75/59/75 76/61/75
f 78/62/83 79/63/84 77/64/85
f 77/64/85 79/63/84 80/65/86
f 82/66/87 83/63/87 81/67/87
f 81/67/87 83/63/87 84/68/87
f 86/69/88 87/70/88 85/71/88
f 85/71/88 87/70/88 88/72/88
f 90/73/75 91/74/75 89/75/75
f 89/75/75 91/74/75 92/76/75
f 94/77/89 95/78/90 93/79/91
f 93/79/91 95/78/90 96/80/92
f 98/81/93 99/82/93 97/83/93
f 97/83/93 99/82/93 100/84/93
f 102/85/76 103/86/76 101/87/76
f 101/87/76 103/86/76 104/88/76
f 108/89/94 105/90/94 107/91/75
f 107/91/75 105/90/94 106/92/75
f 107/91/75 106/92/75 109/93/95
f 109/93/95 110/94/95 107/91/75
f 116/95/75 115/96/75 114/97/96
f 114/97/96 115/96/75 112/98/97
f 114/97/96 112/98/97 111/99/98
f 111/99/98 112/98/97 113/100/99
f 111/99/98 113/100/99 117/101/100
f 117/101/100 118/102/100 111/99/98
f 120/103/101 121/104/102 119/105/103
f 119/105/103 121/104/102 122/106/104
f 124/103/105 125/104/106 123/105/107
f 123/105/107 125/104/106 126/106/108
f 128/103/109 129/104/110 127/105/105
f 127/105/105 129/104/110 130/106/106
f 132/103/111 133/104/112 131/105/113
f 131/105/113 133/104/112 134/106/110
f 142/107/114 140/33/115 141/108/116
f 141/108/116 140/33/115 143/31/115
f 145/108/115 146/107/115 144/109/117
f 144/109/117 146/107/115 147/110/117
f 149/32/118 150/34/118 148/35/118
f 148/35/118 150/34/118 151/36/118
f 156/41/75 155/42/75 152/43/75
f 152/43/75 155/42/75 153/45/75
f 152/43/75 153/45/75 154/46/75
f 152/43/75 154/46/75 157/44/75
f 167/62/119 165/64/120 166/63/121
f 166/63/121 165/64/120 168/65/122
f 171/77/123 169/79/124 170/78/125
f 170/78/125 169/79/124 172/80/126
f 176/111/94 174/112/75 173/113/94
f 173/113/94 174/112/75 175/114/75
f 178/115/95 177/116/95 174/112/75
f 174/112/75 177/116/95 175/114/75
f 184/95/75 182/97/96 183/96/75
f 183/96/75 182/97/96 181/98/97
f 182/97/96 179/99/99 181/98/97
f 181/98/97 179/99/99 180/100/99
f 186/102/100 185/101/100 179/99/99
f 179/99/99 185/101/100 180/100/99
f 189/104/127 187/106/128 188/103/129
f 188/103/129 187/106/128 190/105/104
f 193/105/130 191/103/131 192/106/132
f 192/106/132 191/103/131 194/104/133
f 197/105/134 195/103/135 196/106/136
f 196/106/136 195/103/135 198/104/132
f 201/105/137 199/103/138 200/106/139
f 200/106/139 199/103/138 202/104/140
