# Blender 5.1.2
# www.blender.org
mtllib v2.mtl
o TURRET
v 2.804322 -1.362064 1.958194
v 2.400770 0.908052 -1.592028
v 2.400770 0.908052 1.592028
v 2.804322 -1.362064 -1.958195
v 2.804322 -1.362064 -1.958195
v 0.057534 0.908052 -2.251468
v 2.400770 0.908052 -1.592028
v 0.057534 -1.362064 -2.769306
v 0.057534 -1.362064 -2.769306
v -2.458304 0.908052 -1.592028
v 0.057534 0.908052 -2.251468
v -2.861856 -1.362064 -1.958194
v -2.861856 -1.362064 -1.958194
v -2.458304 0.908052 1.592028
v -2.458304 0.908052 -1.592028
v -2.861856 -1.362064 1.958195
v -2.861856 -1.362064 1.958195
v 0.057534 0.908052 2.251468
v -2.458304 0.908052 1.592028
v 0.057534 -1.362064 2.769305
v 0.057534 -1.362064 2.769305
v 2.400770 0.908052 1.592028
v 0.057534 0.908052 2.251468
v 2.804322 -1.362064 1.958194
v 2.400770 0.908052 -1.592028
v 0.057534 0.908052 -2.251468
v -2.458304 0.908052 -1.592028
v -2.458304 0.908052 1.592028
v 0.057534 0.908052 2.251468
v 2.400770 0.908052 1.592028
vn 0.9846 0.1750 -0.0000
vn 0.2655 0.1993 -0.9433
vn 0.2711 0.2065 -0.9401
vn 0.1013 0.2161 -0.9711
vn 0.2711 0.2066 -0.9401
vn -0.0803 0.2163 -0.9730
vn 0.1012 0.2161 -0.9711
vn -0.0804 0.2163 -0.9730
vn -0.2550 0.2072 -0.9445
vn -0.2623 0.1989 -0.9442
vn -0.9846 0.1750 -0.0000
vn -0.2486 0.1972 0.9483
vn -0.2550 0.2059 0.9448
vn -0.0844 0.2153 0.9729
vn -0.2550 0.2059 0.9447
vn 0.0966 0.2169 0.9714
vn -0.0844 0.2154 0.9729
vn 0.0966 0.2170 0.9714
vn 0.2710 0.2077 0.9399
vn 0.0967 0.2169 0.9714
vn 0.2774 0.2009 0.9395
vn -0.0000 1.0000 -0.0000
vt 0.785156 0.851562
vt 0.671875 0.851562
vt 0.785156 0.957031
vt 0.671875 0.957031
vt 0.785156 0.839844
vt 0.671875 0.839844
vt 0.785156 0.746094
vt 0.671875 0.746094
vt 0.785156 0.738281
vt 0.671875 0.738281
vt 0.785156 0.644531
vt 0.671875 0.644531
vt 0.863281 0.886719
vt 0.921875 0.875000
vt 0.808594 0.875000
vt 0.921875 0.800781
vt 0.863281 0.785156
vt 0.808594 0.800781
s 0
usemtl TURRET.Toxin_Tractor
f 3/1/1 1/2/1 2/3/1
f 2/3/1 1/2/1 4/4/1
f 7/5/2 5/6/3 6/7/4
f 6/7/4 5/6/5 8/8/6
f 11/9/7 9/10/8 10/11/9
f 10/11/9 9/10/8 12/12/10
f 15/5/11 13/6/11 14/7/11
f 14/7/11 13/6/11 16/8/11
f 19/11/12 17/12/13 18/9/14
f 18/9/14 17/12/15 20/10/16
f 23/7/17 21/8/18 22/5/19
f 22/5/19 21/8/20 24/6/21
f 26/13/22 27/14/22 25/15/22
f 25/15/22 27/14/22 28/16/22
f 25/15/22 28/16/22 29/17/22
f 25/15/22 29/17/22 30/18/22
