# Blender 5.1.2
# www.blender.org
mtllib v3.mtl
o TURRETEL.001
v -0.127415 -0.097708 0.781048
v -0.127416 -0.903501 -0.008946
v 8.000611 -0.903501 -0.008946
v 8.000610 -0.097708 0.812648
v -0.127416 0.708085 -0.008946
v 8.000611 0.708085 -0.008946
v 8.000610 -0.097708 -0.830539
v -0.127416 -0.097708 -0.798939
v -0.127415 -0.097708 0.781048
v 8.000610 -0.097708 0.812648
v 8.000611 0.708085 -0.008946
v -0.127416 0.708085 -0.008946
v 8.000610 -0.097708 0.812648
v 8.000611 -0.903501 -0.008946
v 8.000610 -0.097708 -0.830539
v 8.000611 0.708085 -0.008946
v -0.127416 -0.097708 -0.798939
v 8.000610 -0.097708 -0.830539
vn -0.0039 0.0001 1.0000
vn -0.0019 -0.0000 1.0000
vn -0.0020 -1.0000 -0.0001
vn -0.0020 -1.0000 -0.0000
vn -0.0000 -1.0000 -0.0000
vn -0.0003 -1.0000 -0.0000
vn -0.0024 -0.3181 -0.9481
vn -0.0025 -0.3181 -0.9481
vn -0.0025 0.3143 -0.9493
vn -0.0019 -1.0000 0.0001
vn -0.0012 0.9481 0.3181
vn -0.0012 0.9493 -0.3144
vn -0.0024 -0.3180 -0.9481
vn -0.0039 -0.0001 1.0000
vn -0.0012 0.9480 0.3181
vn -0.0020 -0.0000 1.0000
vn -0.0012 0.9480 0.3182
vn 1.0000 -0.0000 -0.0000
vt 0.230469 0.976562
vt 0.450774 0.976562
vt 0.230469 0.996094
vt 0.450774 0.996094
vt 0.230469 0.955392
vt 0.230469 0.972656
vt 0.450774 0.955392
vt 0.450774 0.972656
vt 0.230469 0.957031
vt 0.450774 0.957031
vt 0.722656 0.554688
vt 0.707031 0.542969
vt 0.734375 0.539062
vt 0.718750 0.527344
s 0
usemtl TURRETEL.001.Toxin_Tractor
f 4/1/1 1/2/2 3/3/3
f 3/3/4 1/2/2 2/4/5
f 3/3/4 2/4/6 17/2/7
f 17/2/8 18/1/9 3/3/10
f 6/5/11 7/6/9 5/7/12
f 5/7/12 7/6/9 8/8/13
f 10/6/14 11/9/15 9/8/16
f 9/8/2 11/9/17 12/10/12
f 14/11/18 15/12/18 13/13/18
f 13/13/18 15/12/18 16/14/18
